{
  "header": {
    "PPQ": 96,
    "timeSignature": [
      4,
      4
    ],
    "bpm": 115.00002875000719,
    "name": ""
  },
  "tempo": [
    {
      "absoluteTime": 0,
      "seconds": 0,
      "bpm": 115.00002875000719
    }
  ],
  "timeSignature": [
    {
      "absoluteTime": 0,
      "seconds": 0,
      "numerator": 4,
      "denominator": 2,
      "click": 24,
      "notesQ": 8
    },
    {
      "absoluteTime": 384,
      "seconds": 2.086955999999999,
      "numerator": 4,
      "denominator": 2,
      "click": 24,
      "notesQ": 8
    }
  ],
  "startTime": 3.6521729999999986,
  "duration": 239.99450521873604,
  "tracks": [
    {
      "startTime": 3.6521729999999986,
      "duration": 239.99450521873604,
      "length": 5230,
      "notes": [
        {
          "name": "E2",
          "midi": 40,
          "time": 3.6521729999999986,
          "velocity": 0.9291338582677166,
          "duration": 0.14673909374999994
        },
        {
          "name": "E1",
          "midi": 28,
          "time": 3.9184772812499986,
          "velocity": 0.952755905511811,
          "duration": 0.1521738749999999
        },
        {
          "name": "A2",
          "midi": 45,
          "time": 4.146738093749999,
          "velocity": 0.9212598425196851,
          "duration": 0.05434781249999965
        },
        {
          "name": "C2",
          "midi": 36,
          "time": 4.173911999999999,
          "velocity": 0.8818897637795275,
          "duration": 0.005434781249999965
        },
        {
          "name": "A2",
          "midi": 45,
          "time": 4.173911999999999,
          "velocity": 0.9763779527559056,
          "duration": 1.9673908124999997
        },
        {
          "name": "A1",
          "midi": 33,
          "time": 4.179346781249999,
          "velocity": 0.952755905511811,
          "duration": 0.1521738749999999
        },
        {
          "name": "E3",
          "midi": 52,
          "time": 4.402172812499998,
          "velocity": 0.6141732283464567,
          "duration": 0.05434781249999965
        },
        {
          "name": "E3",
          "midi": 52,
          "time": 4.429346718749998,
          "velocity": 0.6692913385826772,
          "duration": 0.38586946875000017
        },
        {
          "name": "A1",
          "midi": 33,
          "time": 4.440216281249998,
          "velocity": 0.7716535433070866,
          "duration": 0.13043475000000004
        },
        {
          "name": "B3",
          "midi": 59,
          "time": 4.663042312499998,
          "velocity": 0.8503937007874016,
          "duration": 0.05434781249999965
        },
        {
          "name": "B3",
          "midi": 59,
          "time": 4.690216218749998,
          "velocity": 0.905511811023622,
          "duration": 0.2554347187500001
        },
        {
          "name": "E2",
          "midi": 40,
          "time": 4.695650999999998,
          "velocity": 0.9291338582677166,
          "duration": 0.005434781249999965
        },
        {
          "name": "A1",
          "midi": 33,
          "time": 4.701085781249998,
          "velocity": 0.952755905511811,
          "duration": 0.1521738749999999
        },
        {
          "name": "E3",
          "midi": 52,
          "time": 4.923911812499998,
          "velocity": 0.7086614173228346,
          "duration": 0.05434781249999965
        },
        {
          "name": "A1",
          "midi": 33,
          "time": 4.951085718749998,
          "velocity": 0.8188976377952756,
          "duration": 0.14673909374999994
        },
        {
          "name": "E3",
          "midi": 52,
          "time": 4.951085718749998,
          "velocity": 0.7637795275590551,
          "duration": 0.6467389687500003
        },
        {
          "name": "C2",
          "midi": 36,
          "time": 4.956520499999998,
          "velocity": 0.6377952755905512,
          "duration": 0.005434781249999965
        },
        {
          "name": "C#4",
          "midi": 61,
          "time": 5.184781312499998,
          "velocity": 0.7952755905511811,
          "duration": 0.05434781249999965
        },
        {
          "name": "A1",
          "midi": 33,
          "time": 5.211955218749998,
          "velocity": 0.9291338582677166,
          "duration": 0.15760865624999987
        },
        {
          "name": "C#4",
          "midi": 61,
          "time": 5.211955218749998,
          "velocity": 0.8503937007874016,
          "duration": 0.2554347187500001
        },
        {
          "name": "C2",
          "midi": 36,
          "time": 5.217389999999998,
          "velocity": 0.8582677165354331,
          "duration": 0.005434781249999965
        },
        {
          "name": "B3",
          "midi": 59,
          "time": 5.4456508124999985,
          "velocity": 0.7716535433070866,
          "duration": 0.05434781249999965
        },
        {
          "name": "A1",
          "midi": 33,
          "time": 5.472824718749998,
          "velocity": 0.8818897637795275,
          "duration": 0.14130431249999997
        },
        {
          "name": "B3",
          "midi": 59,
          "time": 5.472824718749998,
          "velocity": 0.8267716535433071,
          "duration": 0.4891303125000004
        },
        {
          "name": "E3",
          "midi": 52,
          "time": 5.706520312499999,
          "velocity": 0.7165354330708661,
          "duration": 0.05434781249999965
        },
        {
          "name": "A1",
          "midi": 33,
          "time": 5.733694218749998,
          "velocity": 0.9133858267716536,
          "duration": 0.13586953125
        },
        {
          "name": "E3",
          "midi": 52,
          "time": 5.733694218749998,
          "velocity": 0.7716535433070866,
          "duration": 0.38586946875000017
        },
        {
          "name": "E2",
          "midi": 40,
          "time": 5.739128999999998,
          "velocity": 0.9291338582677166,
          "duration": 0.005434781249999965
        },
        {
          "name": "B3",
          "midi": 59,
          "time": 5.967389812499999,
          "velocity": 0.7874015748031497,
          "duration": 0.05434781249999965
        },
        {
          "name": "A1",
          "midi": 33,
          "time": 5.9945637187499985,
          "velocity": 0.9133858267716536,
          "duration": 0.16304343749999983
        },
        {
          "name": "B3",
          "midi": 59,
          "time": 5.9945637187499985,
          "velocity": 0.84251968503937,
          "duration": 0.2445651562500002
        },
        {
          "name": "A2",
          "midi": 45,
          "time": 6.233694093749999,
          "velocity": 0.9212598425196851,
          "duration": 0.05434781249999965
        },
        {
          "name": "A1",
          "midi": 33,
          "time": 6.255433218749999,
          "velocity": 0.9133858267716536,
          "duration": 0.17391299999999976
        },
        {
          "name": "C2",
          "midi": 36,
          "time": 6.2608679999999985,
          "velocity": 0.8818897637795275,
          "duration": 0.005434781249999965
        },
        {
          "name": "A2",
          "midi": 45,
          "time": 6.2608679999999985,
          "velocity": 0.9763779527559056,
          "duration": 1.9673908124999997
        },
        {
          "name": "E3",
          "midi": 52,
          "time": 6.489128812499998,
          "velocity": 0.6141732283464567,
          "duration": 0.05434781249999965
        },
        {
          "name": "A1",
          "midi": 33,
          "time": 6.516302718749998,
          "velocity": 0.7795275590551181,
          "duration": 0.1847825624999997
        },
        {
          "name": "E3",
          "midi": 52,
          "time": 6.516302718749998,
          "velocity": 0.6692913385826772,
          "duration": 0.3858694687499993
        },
        {
          "name": "B3",
          "midi": 59,
          "time": 6.749998312499997,
          "velocity": 0.8503937007874016,
          "duration": 0.05434781249999965
        },
        {
          "name": "A1",
          "midi": 33,
          "time": 6.777172218749997,
          "velocity": 0.9133858267716536,
          "duration": 0.19565212499999962
        },
        {
          "name": "B3",
          "midi": 59,
          "time": 6.777172218749997,
          "velocity": 0.905511811023622,
          "duration": 0.2445651562499993
        },
        {
          "name": "E2",
          "midi": 40,
          "time": 6.782606999999997,
          "velocity": 0.9291338582677166,
          "duration": 0.005434781249999965
        },
        {
          "name": "E3",
          "midi": 52,
          "time": 7.010867812499996,
          "velocity": 0.7086614173228346,
          "duration": 0.05434781249999965
        },
        {
          "name": "E3",
          "midi": 52,
          "time": 7.038041718749996,
          "velocity": 0.7637795275590551,
          "duration": 0.2445651562499993
        },
        {
          "name": "C2",
          "midi": 36,
          "time": 7.043476499999996,
          "velocity": 0.6220472440944882,
          "duration": 0.005434781249999965
        },
        {
          "name": "A1",
          "midi": 33,
          "time": 7.043476499999996,
          "velocity": 0.8346456692913385,
          "duration": 0.16304343749999983
        },
        {
          "name": "C#4",
          "midi": 61,
          "time": 7.2717373124999956,
          "velocity": 0.7952755905511811,
          "duration": 0.05434781249999965
        },
        {
          "name": "A1",
          "midi": 33,
          "time": 7.298911218749995,
          "velocity": 0.8976377952755905,
          "duration": 0.1684782187499998
        },
        {
          "name": "C#4",
          "midi": 61,
          "time": 7.298911218749995,
          "velocity": 0.8503937007874016,
          "duration": 0.25543471874999923
        },
        {
          "name": "C2",
          "midi": 36,
          "time": 7.304345999999995,
          "velocity": 0.8740157480314961,
          "duration": 0.005434781249999965
        },
        {
          "name": "B3",
          "midi": 59,
          "time": 7.532606812499995,
          "velocity": 0.7716535433070866,
          "duration": 0.05434781249999965
        },
        {
          "name": "A1",
          "midi": 33,
          "time": 7.559780718749995,
          "velocity": 0.7716535433070866,
          "duration": 0.2010869062499996
        },
        {
          "name": "B3",
          "midi": 59,
          "time": 7.559780718749995,
          "velocity": 0.8267716535433071,
          "duration": 0.4728259687499996
        },
        {
          "name": "E3",
          "midi": 52,
          "time": 7.793476312499994,
          "velocity": 0.7165354330708661,
          "duration": 0.05434781249999965
        },
        {
          "name": "A1",
          "midi": 33,
          "time": 7.820650218749994,
          "velocity": 0.8818897637795275,
          "duration": 0.2282608125000012
        },
        {
          "name": "E3",
          "midi": 52,
          "time": 7.820650218749994,
          "velocity": 0.7716535433070866,
          "duration": 0.24456515625000375
        },
        {
          "name": "E2",
          "midi": 40,
          "time": 7.826084999999994,
          "velocity": 0.9291338582677166,
          "duration": 0.005434781249999965
        },
        {
          "name": "B3",
          "midi": 59,
          "time": 8.054345812499996,
          "velocity": 0.7874015748031497,
          "duration": 0.0543478125000032
        },
        {
          "name": "F4",
          "midi": 65,
          "time": 8.054345812499996,
          "velocity": 0.6062992125984252,
          "duration": 0.2554347187500028
        },
        {
          "name": "A1",
          "midi": 33,
          "time": 8.081519718749998,
          "velocity": 0.8031496062992126,
          "duration": 0.1684782187499998
        },
        {
          "name": "B3",
          "midi": 59,
          "time": 8.081519718749998,
          "velocity": 0.84251968503937,
          "duration": 0.24456515625000108
        },
        {
          "name": "F#2",
          "midi": 42,
          "time": 8.320650093749999,
          "velocity": 0.9212598425196851,
          "duration": 0.054347812500001424
        },
        {
          "name": "C2",
          "midi": 36,
          "time": 8.347824,
          "velocity": 0.8818897637795275,
          "duration": 0.005434781250000853
        },
        {
          "name": "F#2",
          "midi": 42,
          "time": 8.347824,
          "velocity": 0.9763779527559056,
          "duration": 1.9673908125000157
        },
        {
          "name": "F#1",
          "midi": 30,
          "time": 8.35325878125,
          "velocity": 0.9448818897637795,
          "duration": 0.13586953125
        },
        {
          "name": "C#3",
          "midi": 49,
          "time": 8.5760848125,
          "velocity": 0.6141732283464567,
          "duration": 0.054347812500001424
        },
        {
          "name": "F#1",
          "midi": 30,
          "time": 8.60325871875,
          "velocity": 0.9448818897637795,
          "duration": 0.14673909374999994
        },
        {
          "name": "C#3",
          "midi": 49,
          "time": 8.60325871875,
          "velocity": 0.6692913385826772,
          "duration": 0.38586946875000194
        },
        {
          "name": "G#3",
          "midi": 56,
          "time": 8.8369543125,
          "velocity": 0.8503937007874016,
          "duration": 0.0543478125000032
        },
        {
          "name": "G#3",
          "midi": 56,
          "time": 8.86412821875,
          "velocity": 0.905511811023622,
          "duration": 0.2554347187500028
        },
        {
          "name": "E2",
          "midi": 40,
          "time": 8.869563000000001,
          "velocity": 0.9291338582677166,
          "duration": 0.005434781250000853
        },
        {
          "name": "F#1",
          "midi": 30,
          "time": 8.869563000000001,
          "velocity": 0.952755905511811,
          "duration": 0.19021734375000143
        },
        {
          "name": "C#3",
          "midi": 49,
          "time": 9.097823812500003,
          "velocity": 0.7086614173228346,
          "duration": 0.0543478125000032
        },
        {
          "name": "F#1",
          "midi": 30,
          "time": 9.124997718750004,
          "velocity": 0.8976377952755905,
          "duration": 0.14130431250000264
        },
        {
          "name": "C#3",
          "midi": 49,
          "time": 9.124997718750004,
          "velocity": 0.7637795275590551,
          "duration": 0.6467389687500056
        },
        {
          "name": "C2",
          "midi": 36,
          "time": 9.130432500000005,
          "velocity": 0.5905511811023622,
          "duration": 0.005434781250000853
        },
        {
          "name": "A3",
          "midi": 57,
          "time": 9.358693312500007,
          "velocity": 0.7952755905511811,
          "duration": 0.0543478125000032
        },
        {
          "name": "F#1",
          "midi": 30,
          "time": 9.385867218750008,
          "velocity": 0.952755905511811,
          "duration": 0.15760865625000164
        },
        {
          "name": "A3",
          "midi": 57,
          "time": 9.385867218750008,
          "velocity": 0.8503937007874016,
          "duration": 0.255434718750001
        },
        {
          "name": "C2",
          "midi": 36,
          "time": 9.391302000000008,
          "velocity": 0.8818897637795275,
          "duration": 0.005434781250000853
        },
        {
          "name": "G#3",
          "midi": 56,
          "time": 9.619562812500009,
          "velocity": 0.7716535433070866,
          "duration": 0.054347812500001424
        },
        {
          "name": "F#1",
          "midi": 30,
          "time": 9.64673671875001,
          "velocity": 0.9212598425196851,
          "duration": 0.17391300000000065
        },
        {
          "name": "G#3",
          "midi": 56,
          "time": 9.64673671875001,
          "velocity": 0.8267716535433071,
          "duration": 0.48913031250000394
        },
        {
          "name": "C#3",
          "midi": 49,
          "time": 9.88043231250001,
          "velocity": 0.7165354330708661,
          "duration": 0.0543478125000032
        },
        {
          "name": "C#3",
          "midi": 49,
          "time": 9.907606218750011,
          "velocity": 0.7716535433070866,
          "duration": 0.3858694687500037
        },
        {
          "name": "E2",
          "midi": 40,
          "time": 9.913041000000012,
          "velocity": 0.9291338582677166,
          "duration": 0.005434781250000853
        },
        {
          "name": "F#1",
          "midi": 30,
          "time": 9.913041000000012,
          "velocity": 0.952755905511811,
          "duration": 0.1793477812500015
        },
        {
          "name": "G#3",
          "midi": 56,
          "time": 10.141301812500014,
          "velocity": 0.7874015748031497,
          "duration": 0.054347812500001424
        },
        {
          "name": "G#3",
          "midi": 56,
          "time": 10.168475718750015,
          "velocity": 0.84251968503937,
          "duration": 0.24456515625000108
        },
        {
          "name": "F#1",
          "midi": 30,
          "time": 10.179345281250015,
          "velocity": 0.8976377952755905,
          "duration": 0.15760865624999987
        },
        {
          "name": "F#2",
          "midi": 42,
          "time": 10.407606093750015,
          "velocity": 0.9212598425196851,
          "duration": 0.054347812500001424
        },
        {
          "name": "C2",
          "midi": 36,
          "time": 10.434780000000016,
          "velocity": 0.8661417322834646,
          "duration": 0.005434781250000853
        },
        {
          "name": "F#1",
          "midi": 30,
          "time": 10.434780000000016,
          "velocity": 0.952755905511811,
          "duration": 0.17391300000000065
        },
        {
          "name": "F#2",
          "midi": 42,
          "time": 10.434780000000016,
          "velocity": 0.9763779527559056,
          "duration": 1.9673908125000192
        },
        {
          "name": "C#3",
          "midi": 49,
          "time": 10.663040812500016,
          "velocity": 0.6141732283464567,
          "duration": 0.054347812500001424
        },
        {
          "name": "C#3",
          "midi": 49,
          "time": 10.690214718750017,
          "velocity": 0.6692913385826772,
          "duration": 0.3858694687500037
        },
        {
          "name": "F#1",
          "midi": 30,
          "time": 10.701084281250017,
          "velocity": 0.8976377952755905,
          "duration": 0.16847821875000157
        },
        {
          "name": "G#3",
          "midi": 56,
          "time": 10.923910312500018,
          "velocity": 0.8503937007874016,
          "duration": 0.0543478125000032
        },
        {
          "name": "G#3",
          "midi": 56,
          "time": 10.951084218750019,
          "velocity": 0.905511811023622,
          "duration": 0.24456515625000286
        },
        {
          "name": "E2",
          "midi": 40,
          "time": 10.95651900000002,
          "velocity": 0.9291338582677166,
          "duration": 0.005434781250000853
        },
        {
          "name": "F#1",
          "midi": 30,
          "time": 10.95651900000002,
          "velocity": 0.952755905511811,
          "duration": 0.19021734375000143
        },
        {
          "name": "C#3",
          "midi": 49,
          "time": 11.184779812500022,
          "velocity": 0.7086614173228346,
          "duration": 0.0543478125000032
        },
        {
          "name": "C#3",
          "midi": 49,
          "time": 11.211953718750022,
          "velocity": 0.7637795275590551,
          "duration": 0.24456515625000286
        },
        {
          "name": "C2",
          "midi": 36,
          "time": 11.217388500000023,
          "velocity": 0.5669291338582677,
          "duration": 0.005434781250000853
        },
        {
          "name": "F#1",
          "midi": 30,
          "time": 11.222823281250024,
          "velocity": 0.8976377952755905,
          "duration": 0.16304343750000072
        },
        {
          "name": "A3",
          "midi": 57,
          "time": 11.445649312500025,
          "velocity": 0.7952755905511811,
          "duration": 0.0543478125000032
        },
        {
          "name": "F#1",
          "midi": 30,
          "time": 11.472823218750026,
          "velocity": 0.952755905511811,
          "duration": 0.19565212500000229
        },
        {
          "name": "A3",
          "midi": 57,
          "time": 11.472823218750026,
          "velocity": 0.8503937007874016,
          "duration": 0.2554347187500028
        },
        {
          "name": "C2",
          "midi": 36,
          "time": 11.478258000000027,
          "velocity": 0.8740157480314961,
          "duration": 0.005434781250000853
        },
        {
          "name": "G#3",
          "midi": 56,
          "time": 11.706518812500029,
          "velocity": 0.7716535433070866,
          "duration": 0.054347812500001424
        },
        {
          "name": "F#1",
          "midi": 30,
          "time": 11.73369271875003,
          "velocity": 0.8976377952755905,
          "duration": 0.07065215625000043
        },
        {
          "name": "G#3",
          "midi": 56,
          "time": 11.73369271875003,
          "velocity": 0.8267716535433071,
          "duration": 0.47282596875000493
        },
        {
          "name": "F#1",
          "midi": 30,
          "time": 11.86412746875003,
          "velocity": 0.9448818897637795,
          "duration": 0.09782606249999937
        },
        {
          "name": "C#3",
          "midi": 49,
          "time": 11.96738831250003,
          "velocity": 0.7165354330708661,
          "duration": 0.0543478125000032
        },
        {
          "name": "F#1",
          "midi": 30,
          "time": 11.994562218750032,
          "velocity": 0.952755905511811,
          "duration": 0.18478256250000236
        },
        {
          "name": "C#3",
          "midi": 49,
          "time": 11.994562218750032,
          "velocity": 0.7716535433070866,
          "duration": 0.24456515625000286
        },
        {
          "name": "E2",
          "midi": 40,
          "time": 11.999997000000032,
          "velocity": 0.9291338582677166,
          "duration": 0.005434781250000853
        },
        {
          "name": "G#3",
          "midi": 56,
          "time": 12.228257812500035,
          "velocity": 0.7874015748031497,
          "duration": 0.054347812500001424
        },
        {
          "name": "F4",
          "midi": 65,
          "time": 12.228257812500035,
          "velocity": 0.6062992125984252,
          "duration": 0.255434718750001
        },
        {
          "name": "G#3",
          "midi": 56,
          "time": 12.255431718750035,
          "velocity": 0.84251968503937,
          "duration": 0.24456515625000108
        },
        {
          "name": "F#1",
          "midi": 30,
          "time": 12.266301281250035,
          "velocity": 0.952755905511811,
          "duration": 0.14130431250000086
        },
        {
          "name": "D3",
          "midi": 50,
          "time": 12.494562093750035,
          "velocity": 0.9212598425196851,
          "duration": 0.054347812500001424
        },
        {
          "name": "C2",
          "midi": 36,
          "time": 12.521736000000036,
          "velocity": 0.8503937007874016,
          "duration": 0.005434781250000853
        },
        {
          "name": "D2",
          "midi": 38,
          "time": 12.521736000000036,
          "velocity": 0.952755905511811,
          "duration": 0.11413040625000015
        },
        {
          "name": "D3",
          "midi": 50,
          "time": 12.521736000000036,
          "velocity": 0.9763779527559056,
          "duration": 0.7771737187500083
        },
        {
          "name": "A3",
          "midi": 57,
          "time": 12.749996812500036,
          "velocity": 0.6141732283464567,
          "duration": 0.054347812500001424
        },
        {
          "name": "A3",
          "midi": 57,
          "time": 12.777170718750037,
          "velocity": 0.6692913385826772,
          "duration": 0.5163042187500064
        },
        {
          "name": "D2",
          "midi": 38,
          "time": 12.782605500000038,
          "velocity": 0.8976377952755905,
          "duration": 0.09239128125000029
        },
        {
          "name": "D2",
          "midi": 38,
          "time": 12.907605468750038,
          "velocity": 0.6850393700787402,
          "duration": 0.06521737499999958
        },
        {
          "name": "E4",
          "midi": 64,
          "time": 13.010866312500038,
          "velocity": 0.7952755905511811,
          "duration": 0.0543478125000032
        },
        {
          "name": "D2",
          "midi": 38,
          "time": 13.038040218750039,
          "velocity": 0.8661417322834646,
          "duration": 0.20108690625000314
        },
        {
          "name": "E4",
          "midi": 64,
          "time": 13.038040218750039,
          "velocity": 0.8503937007874016,
          "duration": 0.38586946875000905
        },
        {
          "name": "E2",
          "midi": 40,
          "time": 13.04347500000004,
          "velocity": 0.9291338582677166,
          "duration": 0.005434781250000853
        },
        {
          "name": "A3",
          "midi": 57,
          "time": 13.271735812500042,
          "velocity": 0.7086614173228346,
          "duration": 0.05434781250000498
        },
        {
          "name": "D3",
          "midi": 50,
          "time": 13.277170593750043,
          "velocity": 0.7401574803149606,
          "duration": 0.05434781250000498
        },
        {
          "name": "D2",
          "midi": 38,
          "time": 13.298909718750044,
          "velocity": 0.7952755905511811,
          "duration": 0.1902173437500032
        },
        {
          "name": "A3",
          "midi": 57,
          "time": 13.298909718750044,
          "velocity": 0.7637795275590551,
          "duration": 0.48369553125000664
        },
        {
          "name": "C2",
          "midi": 36,
          "time": 13.304344500000045,
          "velocity": 0.6377952755905512,
          "duration": 0.005434781250000853
        },
        {
          "name": "D3",
          "midi": 50,
          "time": 13.304344500000045,
          "velocity": 0.7952755905511811,
          "duration": 0.7771737187500065
        },
        {
          "name": "D4",
          "midi": 62,
          "time": 13.532605312500047,
          "velocity": 0.7952755905511811,
          "duration": 0.0543478125000032
        },
        {
          "name": "D2",
          "midi": 38,
          "time": 13.559779218750048,
          "velocity": 0.952755905511811,
          "duration": 0.20108690625000314
        },
        {
          "name": "D4",
          "midi": 62,
          "time": 13.559779218750048,
          "velocity": 0.8503937007874016,
          "duration": 0.3858694687500037
        },
        {
          "name": "C2",
          "midi": 36,
          "time": 13.565214000000049,
          "velocity": 0.8740157480314961,
          "duration": 0.005434781250000853
        },
        {
          "name": "A3",
          "midi": 57,
          "time": 13.793474812500051,
          "velocity": 0.7716535433070866,
          "duration": 0.054347812500001424
        },
        {
          "name": "D2",
          "midi": 38,
          "time": 13.820648718750052,
          "velocity": 0.7716535433070866,
          "duration": 0.15760865624999987
        },
        {
          "name": "A3",
          "midi": 57,
          "time": 13.820648718750052,
          "velocity": 0.8267716535433071,
          "duration": 0.38586946875000194
        },
        {
          "name": "D4",
          "midi": 62,
          "time": 14.059779093750052,
          "velocity": 0.5669291338582677,
          "duration": 0.054347812500001424
        },
        {
          "name": "D3",
          "midi": 50,
          "time": 14.059779093750052,
          "velocity": 0.7165354330708661,
          "duration": 0.054347812500001424
        },
        {
          "name": "D2",
          "midi": 38,
          "time": 14.081518218750052,
          "velocity": 0.9133858267716536,
          "duration": 0.20652168750000222
        },
        {
          "name": "E2",
          "midi": 40,
          "time": 14.086953000000053,
          "velocity": 0.9291338582677166,
          "duration": 0.005434781250000853
        },
        {
          "name": "D4",
          "midi": 62,
          "time": 14.086953000000053,
          "velocity": 0.6220472440944882,
          "duration": 0.3858694687500037
        },
        {
          "name": "D3",
          "midi": 50,
          "time": 14.086953000000053,
          "velocity": 0.7716535433070866,
          "duration": 0.5163042187500047
        },
        {
          "name": "A3",
          "midi": 57,
          "time": 14.315213812500055,
          "velocity": 0.7874015748031497,
          "duration": 0.054347812500001424
        },
        {
          "name": "A3",
          "midi": 57,
          "time": 14.342387718750055,
          "velocity": 0.84251968503937,
          "duration": 0.24456515625000108
        },
        {
          "name": "E2",
          "midi": 40,
          "time": 14.353257281250055,
          "velocity": 0.8346456692913385,
          "duration": 0.20652168750000044
        },
        {
          "name": "E3",
          "midi": 52,
          "time": 14.581518093750056,
          "velocity": 0.9212598425196851,
          "duration": 0.0543478125000032
        },
        {
          "name": "C2",
          "midi": 36,
          "time": 14.608692000000058,
          "velocity": 0.8740157480314961,
          "duration": 0.005434781250000853
        },
        {
          "name": "E3",
          "midi": 52,
          "time": 14.608692000000058,
          "velocity": 0.8976377952755905,
          "duration": 0.7663041562500066
        },
        {
          "name": "E2",
          "midi": 40,
          "time": 14.614126781250059,
          "velocity": 0.9133858267716536,
          "duration": 0.19021734374999966
        },
        {
          "name": "B3",
          "midi": 59,
          "time": 14.836952812500058,
          "velocity": 0.6141732283464567,
          "duration": 0.054347812500001424
        },
        {
          "name": "B3",
          "midi": 59,
          "time": 14.86412671875006,
          "velocity": 0.6692913385826772,
          "duration": 0.3858694687500037
        },
        {
          "name": "E2",
          "midi": 40,
          "time": 14.87499628125006,
          "velocity": 0.7244094488188977,
          "duration": 0.1793477812500015
        },
        {
          "name": "F#4",
          "midi": 66,
          "time": 15.09782231250006,
          "velocity": 0.8503937007874016,
          "duration": 0.0543478125000032
        },
        {
          "name": "F#4",
          "midi": 66,
          "time": 15.124996218750061,
          "velocity": 0.7637795275590551,
          "duration": 0.38586946875000727
        },
        {
          "name": "E2",
          "midi": 40,
          "time": 15.130431000000062,
          "velocity": 0.9291338582677166,
          "duration": 0.005434781250000853
        },
        {
          "name": "E2",
          "midi": 40,
          "time": 15.135865781250063,
          "velocity": 0.8976377952755905,
          "duration": 0.14130431250000086
        },
        {
          "name": "B3",
          "midi": 59,
          "time": 15.358691812500064,
          "velocity": 0.7086614173228346,
          "duration": 0.0543478125000032
        },
        {
          "name": "E3",
          "midi": 52,
          "time": 15.364126593750065,
          "velocity": 0.7480314960629921,
          "duration": 0.0543478125000032
        },
        {
          "name": "B3",
          "midi": 59,
          "time": 15.385865718750065,
          "velocity": 0.7637795275590551,
          "duration": 0.38586946875000727
        },
        {
          "name": "C2",
          "midi": 36,
          "time": 15.391300500000066,
          "velocity": 0.5984251968503937,
          "duration": 0.005434781250000853
        },
        {
          "name": "E3",
          "midi": 52,
          "time": 15.391300500000066,
          "velocity": 0.8031496062992126,
          "duration": 0.733695468750005
        },
        {
          "name": "E2",
          "midi": 40,
          "time": 15.396735281250066,
          "velocity": 0.7795275590551181,
          "duration": 0.15217387500000257
        },
        {
          "name": "E4",
          "midi": 64,
          "time": 15.61956131250007,
          "velocity": 0.7952755905511811,
          "duration": 0.0543478125000032
        },
        {
          "name": "E4",
          "midi": 64,
          "time": 15.64673521875007,
          "velocity": 0.8503937007874016,
          "duration": 0.38586946875000194
        },
        {
          "name": "C2",
          "midi": 36,
          "time": 15.652170000000071,
          "velocity": 0.8661417322834646,
          "duration": 0.005434781250000853
        },
        {
          "name": "E2",
          "midi": 40,
          "time": 15.657604781250072,
          "velocity": 0.8976377952755905,
          "duration": 0.14673909374999994
        },
        {
          "name": "B3",
          "midi": 59,
          "time": 15.880430812500071,
          "velocity": 0.7716535433070866,
          "duration": 0.054347812500001424
        },
        {
          "name": "E2",
          "midi": 40,
          "time": 15.907604718750072,
          "velocity": 0.7480314960629921,
          "duration": 0.1684782187499998
        },
        {
          "name": "B3",
          "midi": 59,
          "time": 15.907604718750072,
          "velocity": 0.7795275590551181,
          "duration": 0.7771737187499994
        },
        {
          "name": "E3",
          "midi": 52,
          "time": 16.14130031250007,
          "velocity": 0.7165354330708661,
          "duration": 0.05434781249999787
        },
        {
          "name": "E3",
          "midi": 52,
          "time": 16.16847421875007,
          "velocity": 0.7007874015748031,
          "duration": 0.24456515625000108
        },
        {
          "name": "E2",
          "midi": 40,
          "time": 16.17390900000007,
          "velocity": 0.9291338582677166,
          "duration": 0.005434781249999077
        },
        {
          "name": "E2",
          "midi": 40,
          "time": 16.17390900000007,
          "velocity": 0.9291338582677166,
          "duration": 0.15217387499999901
        },
        {
          "name": "E4",
          "midi": 64,
          "time": 16.40216981250007,
          "velocity": 0.7874015748031497,
          "duration": 0.054347812500001424
        },
        {
          "name": "F4",
          "midi": 65,
          "time": 16.40216981250007,
          "velocity": 0.6062992125984252,
          "duration": 0.25543471874999923
        },
        {
          "name": "E2",
          "midi": 40,
          "time": 16.429343718750072,
          "velocity": 0.7795275590551181,
          "duration": 0.2010869062499978
        },
        {
          "name": "E4",
          "midi": 64,
          "time": 16.429343718750072,
          "velocity": 0.6692913385826772,
          "duration": 0.25543471874999923
        },
        {
          "name": "A2",
          "midi": 45,
          "time": 16.66847409375007,
          "velocity": 0.9212598425196851,
          "duration": 0.05434781249999787
        },
        {
          "name": "A1",
          "midi": 33,
          "time": 16.69021321875007,
          "velocity": 0.952755905511811,
          "duration": 0.1684782187499998
        },
        {
          "name": "C2",
          "midi": 36,
          "time": 16.69564800000007,
          "velocity": 0.8740157480314961,
          "duration": 0.005434781249999077
        },
        {
          "name": "A2",
          "midi": 45,
          "time": 16.69564800000007,
          "velocity": 0.9763779527559056,
          "duration": 1.9673908124999961
        },
        {
          "name": "E3",
          "midi": 52,
          "time": 16.92390881250007,
          "velocity": 0.6141732283464567,
          "duration": 0.05434781249999787
        },
        {
          "name": "A1",
          "midi": 33,
          "time": 16.95108271875007,
          "velocity": 0.9133858267716536,
          "duration": 0.18478256250000058
        },
        {
          "name": "E3",
          "midi": 52,
          "time": 16.95108271875007,
          "velocity": 0.6692913385826772,
          "duration": 0.3858694687499984
        },
        {
          "name": "B3",
          "midi": 59,
          "time": 17.184778312500068,
          "velocity": 0.8503937007874016,
          "duration": 0.05434781249999787
        },
        {
          "name": "B3",
          "midi": 59,
          "time": 17.211952218750067,
          "velocity": 0.905511811023622,
          "duration": 0.2554347187500028
        },
        {
          "name": "E2",
          "midi": 40,
          "time": 17.217387000000066,
          "velocity": 0.9291338582677166,
          "duration": 0.005434781249999077
        },
        {
          "name": "A1",
          "midi": 33,
          "time": 17.217387000000066,
          "velocity": 0.7559055118110236,
          "duration": 0.17391300000000243
        },
        {
          "name": "E3",
          "midi": 52,
          "time": 17.44564781250007,
          "velocity": 0.7086614173228346,
          "duration": 0.05434781249999787
        },
        {
          "name": "E3",
          "midi": 52,
          "time": 17.47282171875007,
          "velocity": 0.7637795275590551,
          "duration": 0.6467389687499967
        },
        {
          "name": "C2",
          "midi": 36,
          "time": 17.478256500000068,
          "velocity": 0.5905511811023622,
          "duration": 0.005434781249999077
        },
        {
          "name": "A1",
          "midi": 33,
          "time": 17.478256500000068,
          "velocity": 0.8818897637795275,
          "duration": 0.18478256250000058
        },
        {
          "name": "C#4",
          "midi": 61,
          "time": 17.70651731250007,
          "velocity": 0.7952755905511811,
          "duration": 0.05434781249999787
        },
        {
          "name": "C#4",
          "midi": 61,
          "time": 17.733691218750067,
          "velocity": 0.8503937007874016,
          "duration": 0.25543471874999923
        },
        {
          "name": "C2",
          "midi": 36,
          "time": 17.739126000000066,
          "velocity": 0.8740157480314961,
          "duration": 0.005434781249999077
        },
        {
          "name": "A1",
          "midi": 33,
          "time": 17.744560781250065,
          "velocity": 0.7952755905511811,
          "duration": 0.15760865625000164
        },
        {
          "name": "B3",
          "midi": 59,
          "time": 17.967386812500067,
          "velocity": 0.7716535433070866,
          "duration": 0.05434781249999787
        },
        {
          "name": "A1",
          "midi": 33,
          "time": 17.994560718750066,
          "velocity": 0.8818897637795275,
          "duration": 0.19565212499999873
        },
        {
          "name": "B3",
          "midi": 59,
          "time": 17.994560718750066,
          "velocity": 0.8267716535433071,
          "duration": 0.4891303124999986
        },
        {
          "name": "E3",
          "midi": 52,
          "time": 18.228256312500065,
          "velocity": 0.7165354330708661,
          "duration": 0.05434781249999787
        },
        {
          "name": "E3",
          "midi": 52,
          "time": 18.255430218750064,
          "velocity": 0.7716535433070866,
          "duration": 0.38586946875000194
        },
        {
          "name": "E2",
          "midi": 40,
          "time": 18.260865000000063,
          "velocity": 0.9291338582677166,
          "duration": 0.005434781249999077
        },
        {
          "name": "A1",
          "midi": 33,
          "time": 18.266299781250062,
          "velocity": 0.7401574803149606,
          "duration": 0.17391300000000243
        },
        {
          "name": "B3",
          "midi": 59,
          "time": 18.489125812500063,
          "velocity": 0.7874015748031497,
          "duration": 0.054347812500001424
        },
        {
          "name": "B3",
          "midi": 59,
          "time": 18.516299718750062,
          "velocity": 0.84251968503937,
          "duration": 0.24456515625000108
        },
        {
          "name": "A1",
          "midi": 33,
          "time": 18.527169281250064,
          "velocity": 0.8661417322834646,
          "duration": 0.16304343750000072
        },
        {
          "name": "A2",
          "midi": 45,
          "time": 18.755430093750064,
          "velocity": 0.9212598425196851,
          "duration": 0.05434781249999787
        },
        {
          "name": "C2",
          "midi": 36,
          "time": 18.782604000000063,
          "velocity": 0.905511811023622,
          "duration": 0.005434781249999077
        },
        {
          "name": "A2",
          "midi": 45,
          "time": 18.782604000000063,
          "velocity": 0.9763779527559056,
          "duration": 1.9673908125000068
        },
        {
          "name": "A1",
          "midi": 33,
          "time": 18.788038781250062,
          "velocity": 0.8346456692913385,
          "duration": 0.20108690625000136
        },
        {
          "name": "E3",
          "midi": 52,
          "time": 19.010864812500063,
          "velocity": 0.6141732283464567,
          "duration": 0.054347812500001424
        },
        {
          "name": "E3",
          "midi": 52,
          "time": 19.038038718750062,
          "velocity": 0.6692913385826772,
          "duration": 0.38586946875000194
        },
        {
          "name": "A1",
          "midi": 33,
          "time": 19.048908281250064,
          "velocity": 0.8503937007874016,
          "duration": 0.119565187500001
        },
        {
          "name": "B3",
          "midi": 59,
          "time": 19.271734312500065,
          "velocity": 0.8503937007874016,
          "duration": 0.05434781249999787
        },
        {
          "name": "B3",
          "midi": 59,
          "time": 19.298908218750064,
          "velocity": 0.905511811023622,
          "duration": 0.24456515625000108
        },
        {
          "name": "C#5",
          "midi": 73,
          "time": 19.304343000000063,
          "velocity": 0.7874015748031497,
          "duration": 0.2826086250000017
        },
        {
          "name": "E2",
          "midi": 40,
          "time": 19.304343000000063,
          "velocity": 0.9291338582677166,
          "duration": 0.005434781249999077
        },
        {
          "name": "A1",
          "midi": 33,
          "time": 19.309777781250062,
          "velocity": 0.8188976377952756,
          "duration": 0.17391300000000243
        },
        {
          "name": "E3",
          "midi": 52,
          "time": 19.532603812500064,
          "velocity": 0.7086614173228346,
          "duration": 0.054347812500001424
        },
        {
          "name": "E3",
          "midi": 52,
          "time": 19.559777718750066,
          "velocity": 0.7637795275590551,
          "duration": 0.5163042187499975
        },
        {
          "name": "D5",
          "midi": 74,
          "time": 19.565212500000065,
          "velocity": 0.6929133858267716,
          "duration": 0.25543471874999923
        },
        {
          "name": "C2",
          "midi": 36,
          "time": 19.565212500000065,
          "velocity": 0.5748031496062992,
          "duration": 0.005434781249999077
        },
        {
          "name": "A1",
          "midi": 33,
          "time": 19.570647281250064,
          "velocity": 0.8346456692913385,
          "duration": 0.1793477812500015
        },
        {
          "name": "C#4",
          "midi": 61,
          "time": 19.793473312500065,
          "velocity": 0.7952755905511811,
          "duration": 0.05434781249999787
        },
        {
          "name": "C#4",
          "midi": 61,
          "time": 19.820647218750064,
          "velocity": 0.8503937007874016,
          "duration": 0.25543471874999923
        },
        {
          "name": "C#5",
          "midi": 73,
          "time": 19.826082000000063,
          "velocity": 0.8582677165354331,
          "duration": 0.5326085624999983
        },
        {
          "name": "C2",
          "midi": 36,
          "time": 19.826082000000063,
          "velocity": 0.8582677165354331,
          "duration": 0.005434781249999077
        },
        {
          "name": "A1",
          "midi": 33,
          "time": 19.831516781250063,
          "velocity": 0.889763779527559,
          "duration": 0.1793477812500015
        },
        {
          "name": "B3",
          "midi": 59,
          "time": 20.054342812500064,
          "velocity": 0.7716535433070866,
          "duration": 0.054347812500001424
        },
        {
          "name": "B3",
          "midi": 59,
          "time": 20.081516718750063,
          "velocity": 0.8267716535433071,
          "duration": 0.4728259687500014
        },
        {
          "name": "A1",
          "midi": 33,
          "time": 20.092386281250064,
          "velocity": 0.8661417322834646,
          "duration": 0.15760865625000164
        },
        {
          "name": "E3",
          "midi": 52,
          "time": 20.315212312500066,
          "velocity": 0.7165354330708661,
          "duration": 0.05434781249999787
        },
        {
          "name": "E3",
          "midi": 52,
          "time": 20.342386218750065,
          "velocity": 0.7716535433070866,
          "duration": 0.24456515625000108
        },
        {
          "name": "E2",
          "midi": 40,
          "time": 20.347821000000064,
          "velocity": 0.9291338582677166,
          "duration": 0.005434781249999077
        },
        {
          "name": "A1",
          "midi": 33,
          "time": 20.347821000000064,
          "velocity": 0.8031496062992126,
          "duration": 0.1793477812500015
        },
        {
          "name": "B4",
          "midi": 71,
          "time": 20.369560125000064,
          "velocity": 0.7322834645669292,
          "duration": 0.5163042187500047
        },
        {
          "name": "B3",
          "midi": 59,
          "time": 20.576081812500064,
          "velocity": 0.7874015748031497,
          "duration": 0.05434781250000498
        },
        {
          "name": "B3",
          "midi": 59,
          "time": 20.603255718750066,
          "velocity": 0.84251968503937,
          "duration": 0.24456515625000108
        },
        {
          "name": "A1",
          "midi": 33,
          "time": 20.614125281250068,
          "velocity": 0.9133858267716536,
          "duration": 0.16304343750000072
        },
        {
          "name": "A2",
          "midi": 45,
          "time": 20.84238609375007,
          "velocity": 0.9212598425196851,
          "duration": 0.054347812500001424
        },
        {
          "name": "A4",
          "midi": 69,
          "time": 20.869560000000067,
          "velocity": 0.6456692913385826,
          "duration": 1.3206518437499888
        },
        {
          "name": "C2",
          "midi": 36,
          "time": 20.869560000000067,
          "velocity": 0.8818897637795275,
          "duration": 0.005434781249999077
        },
        {
          "name": "A2",
          "midi": 45,
          "time": 20.869560000000067,
          "velocity": 0.9763779527559056,
          "duration": 1.9673908124999855
        },
        {
          "name": "A1",
          "midi": 33,
          "time": 20.874994781250066,
          "velocity": 0.952755905511811,
          "duration": 0.1576086562500052
        },
        {
          "name": "E3",
          "midi": 52,
          "time": 21.09782081250007,
          "velocity": 0.6141732283464567,
          "duration": 0.05434781249999787
        },
        {
          "name": "A1",
          "midi": 33,
          "time": 21.12499471875007,
          "velocity": 0.7952755905511811,
          "duration": 0.1576086562499981
        },
        {
          "name": "E3",
          "midi": 52,
          "time": 21.12499471875007,
          "velocity": 0.6692913385826772,
          "duration": 0.3858694687499984
        },
        {
          "name": "B3",
          "midi": 59,
          "time": 21.35869031250007,
          "velocity": 0.8503937007874016,
          "duration": 0.05434781249999787
        },
        {
          "name": "B3",
          "midi": 59,
          "time": 21.38586421875007,
          "velocity": 0.905511811023622,
          "duration": 0.25543471874999923
        },
        {
          "name": "E2",
          "midi": 40,
          "time": 21.391299000000068,
          "velocity": 0.9291338582677166,
          "duration": 0.005434781249999077
        },
        {
          "name": "A1",
          "midi": 33,
          "time": 21.391299000000068,
          "velocity": 0.9291338582677166,
          "duration": 0.16304343750000072
        },
        {
          "name": "E3",
          "midi": 52,
          "time": 21.619559812500068,
          "velocity": 0.7086614173228346,
          "duration": 0.05434781249999787
        },
        {
          "name": "E3",
          "midi": 52,
          "time": 21.646733718750067,
          "velocity": 0.7637795275590551,
          "duration": 0.6467389687499896
        },
        {
          "name": "C2",
          "midi": 36,
          "time": 21.652168500000066,
          "velocity": 0.6377952755905512,
          "duration": 0.005434781249999077
        },
        {
          "name": "A1",
          "midi": 33,
          "time": 21.657603281250065,
          "velocity": 0.9133858267716536,
          "duration": 0.15217387499999901
        },
        {
          "name": "C#4",
          "midi": 61,
          "time": 21.880429312500063,
          "velocity": 0.7952755905511811,
          "duration": 0.05434781249999787
        },
        {
          "name": "A1",
          "midi": 33,
          "time": 21.90760321875006,
          "velocity": 0.9291338582677166,
          "duration": 0.1413043124999973
        },
        {
          "name": "C#4",
          "midi": 61,
          "time": 21.90760321875006,
          "velocity": 0.8503937007874016,
          "duration": 0.2554347187499957
        },
        {
          "name": "C2",
          "midi": 36,
          "time": 21.91303800000006,
          "velocity": 0.8582677165354331,
          "duration": 0.005434781249999077
        },
        {
          "name": "B3",
          "midi": 59,
          "time": 22.141298812500057,
          "velocity": 0.7716535433070866,
          "duration": 0.05434781249999787
        },
        {
          "name": "A1",
          "midi": 33,
          "time": 22.168472718750056,
          "velocity": 0.8976377952755905,
          "duration": 0.14673909374999994
        },
        {
          "name": "B3",
          "midi": 59,
          "time": 22.168472718750056,
          "velocity": 0.8267716535433071,
          "duration": 0.4891303124999986
        },
        {
          "name": "E3",
          "midi": 52,
          "time": 22.402168312500056,
          "velocity": 0.7165354330708661,
          "duration": 0.05434781249999787
        },
        {
          "name": "E3",
          "midi": 52,
          "time": 22.429342218750055,
          "velocity": 0.7716535433070866,
          "duration": 0.3858694687499984
        },
        {
          "name": "E2",
          "midi": 40,
          "time": 22.434777000000054,
          "velocity": 0.9291338582677166,
          "duration": 0.005434781249999077
        },
        {
          "name": "A1",
          "midi": 33,
          "time": 22.434777000000054,
          "velocity": 0.952755905511811,
          "duration": 0.14673909374999994
        },
        {
          "name": "B3",
          "midi": 59,
          "time": 22.663037812500054,
          "velocity": 0.7874015748031497,
          "duration": 0.05434781249999787
        },
        {
          "name": "A1",
          "midi": 33,
          "time": 22.690211718750053,
          "velocity": 0.8503937007874016,
          "duration": 0.14673909374999994
        },
        {
          "name": "B3",
          "midi": 59,
          "time": 22.690211718750053,
          "velocity": 0.84251968503937,
          "duration": 0.24456515624999753
        },
        {
          "name": "A2",
          "midi": 45,
          "time": 22.92934209375005,
          "velocity": 0.9212598425196851,
          "duration": 0.05434781249999787
        },
        {
          "name": "A1",
          "midi": 33,
          "time": 22.95108121875005,
          "velocity": 0.952755905511811,
          "duration": 0.16304343749999717
        },
        {
          "name": "C2",
          "midi": 36,
          "time": 22.95651600000005,
          "velocity": 0.8818897637795275,
          "duration": 0.005434781249999077
        },
        {
          "name": "A2",
          "midi": 45,
          "time": 22.95651600000005,
          "velocity": 0.9763779527559056,
          "duration": 1.9673908124999961
        },
        {
          "name": "E3",
          "midi": 52,
          "time": 23.184776812500047,
          "velocity": 0.6141732283464567,
          "duration": 0.05434781249999787
        },
        {
          "name": "A1",
          "midi": 33,
          "time": 23.211950718750046,
          "velocity": 0.8503937007874016,
          "duration": 0.1576086562499981
        },
        {
          "name": "E3",
          "midi": 52,
          "time": 23.211950718750046,
          "velocity": 0.6692913385826772,
          "duration": 0.38586946875000194
        },
        {
          "name": "E4",
          "midi": 64,
          "time": 23.217385500000045,
          "velocity": 0.6141732283464567,
          "duration": 0.19565212499999873
        },
        {
          "name": "B3",
          "midi": 59,
          "time": 23.445646312500045,
          "velocity": 0.8503937007874016,
          "duration": 0.054347812500001424
        },
        {
          "name": "C#5",
          "midi": 73,
          "time": 23.461950656250046,
          "velocity": 0.8188976377952756,
          "duration": 0.2880434062500008
        },
        {
          "name": "A1",
          "midi": 33,
          "time": 23.472820218750048,
          "velocity": 0.952755905511811,
          "duration": 0.17391299999999887
        },
        {
          "name": "B3",
          "midi": 59,
          "time": 23.472820218750048,
          "velocity": 0.905511811023622,
          "duration": 0.24456515625000108
        },
        {
          "name": "E2",
          "midi": 40,
          "time": 23.478255000000047,
          "velocity": 0.9291338582677166,
          "duration": 0.005434781249999077
        },
        {
          "name": "E3",
          "midi": 52,
          "time": 23.706515812500047,
          "velocity": 0.7086614173228346,
          "duration": 0.054347812500001424
        },
        {
          "name": "A1",
          "midi": 33,
          "time": 23.73368971875005,
          "velocity": 0.8346456692913385,
          "duration": 0.17934778124999795
        },
        {
          "name": "E3",
          "midi": 52,
          "time": 23.73368971875005,
          "velocity": 0.7637795275590551,
          "duration": 0.24456515625000108
        },
        {
          "name": "D5",
          "midi": 74,
          "time": 23.73912450000005,
          "velocity": 0.6692913385826772,
          "duration": 0.2880434062500008
        },
        {
          "name": "C2",
          "midi": 36,
          "time": 23.73912450000005,
          "velocity": 0.6220472440944882,
          "duration": 0.005434781249999077
        },
        {
          "name": "C#4",
          "midi": 61,
          "time": 23.96738531250005,
          "velocity": 0.7952755905511811,
          "duration": 0.054347812500001424
        },
        {
          "name": "A1",
          "midi": 33,
          "time": 23.99455921875005,
          "velocity": 0.952755905511811,
          "duration": 0.16304343749999717
        },
        {
          "name": "C#4",
          "midi": 61,
          "time": 23.99455921875005,
          "velocity": 0.8503937007874016,
          "duration": 0.2554347187499957
        },
        {
          "name": "C#5",
          "midi": 73,
          "time": 23.99999400000005,
          "velocity": 0.8031496062992126,
          "duration": 0.5380433437499939
        },
        {
          "name": "C2",
          "midi": 36,
          "time": 23.99999400000005,
          "velocity": 0.8740157480314961,
          "duration": 0.005434781249999077
        },
        {
          "name": "B3",
          "midi": 59,
          "time": 24.228254812500047,
          "velocity": 0.7716535433070866,
          "duration": 0.05434781249999787
        },
        {
          "name": "A1",
          "midi": 33,
          "time": 24.255428718750046,
          "velocity": 0.7952755905511811,
          "duration": 0.17391299999999887
        },
        {
          "name": "B3",
          "midi": 59,
          "time": 24.255428718750046,
          "velocity": 0.8267716535433071,
          "duration": 0.4728259687499978
        },
        {
          "name": "E3",
          "midi": 52,
          "time": 24.489124312500046,
          "velocity": 0.7165354330708661,
          "duration": 0.05434781249999787
        },
        {
          "name": "A1",
          "midi": 33,
          "time": 24.516298218750045,
          "velocity": 0.952755905511811,
          "duration": 0.1576086562499981
        },
        {
          "name": "E3",
          "midi": 52,
          "time": 24.516298218750045,
          "velocity": 0.7716535433070866,
          "duration": 0.24456515625000108
        },
        {
          "name": "E2",
          "midi": 40,
          "time": 24.521733000000044,
          "velocity": 0.9291338582677166,
          "duration": 0.005434781249999077
        },
        {
          "name": "B4",
          "midi": 71,
          "time": 24.538037343750045,
          "velocity": 0.7165354330708661,
          "duration": 0.5326085625000019
        },
        {
          "name": "B3",
          "midi": 59,
          "time": 24.749993812500044,
          "velocity": 0.7874015748031497,
          "duration": 0.054347812500001424
        },
        {
          "name": "F4",
          "midi": 65,
          "time": 24.749993812500044,
          "velocity": 0.6062992125984252,
          "duration": 0.2554347187500028
        },
        {
          "name": "G#1",
          "midi": 32,
          "time": 24.777167718750047,
          "velocity": 0.952755905511811,
          "duration": 0.15760865625000164
        },
        {
          "name": "B3",
          "midi": 59,
          "time": 24.777167718750047,
          "velocity": 0.84251968503937,
          "duration": 0.24456515625000108
        },
        {
          "name": "F#2",
          "midi": 42,
          "time": 25.01629809375005,
          "velocity": 0.9212598425196851,
          "duration": 0.05434781249999787
        },
        {
          "name": "F#1",
          "midi": 30,
          "time": 25.03803721875005,
          "velocity": 0.8976377952755905,
          "duration": 0.16847821874999624
        },
        {
          "name": "C2",
          "midi": 36,
          "time": 25.043472000000047,
          "velocity": 0.8818897637795275,
          "duration": 0.005434781249999077
        },
        {
          "name": "F#2",
          "midi": 42,
          "time": 25.043472000000047,
          "velocity": 0.9763779527559056,
          "duration": 1.9673908124999855
        },
        {
          "name": "A4",
          "midi": 69,
          "time": 25.070645906250046,
          "velocity": 0.6535433070866141,
          "duration": 1.0217388749999863
        },
        {
          "name": "C#3",
          "midi": 49,
          "time": 25.271732812500044,
          "velocity": 0.6141732283464567,
          "duration": 0.05434781249999787
        },
        {
          "name": "F#1",
          "midi": 30,
          "time": 25.298906718750043,
          "velocity": 0.8740157480314961,
          "duration": 0.1576086562499981
        },
        {
          "name": "C#3",
          "midi": 49,
          "time": 25.298906718750043,
          "velocity": 0.6692913385826772,
          "duration": 0.3858694687499984
        },
        {
          "name": "G#3",
          "midi": 56,
          "time": 25.532602312500043,
          "velocity": 0.8503937007874016,
          "duration": 0.05434781249999787
        },
        {
          "name": "G#3",
          "midi": 56,
          "time": 25.55977621875004,
          "velocity": 0.905511811023622,
          "duration": 0.25543471874999923
        },
        {
          "name": "E2",
          "midi": 40,
          "time": 25.56521100000004,
          "velocity": 0.9291338582677166,
          "duration": 0.005434781249999077
        },
        {
          "name": "F#1",
          "midi": 30,
          "time": 25.57064578125004,
          "velocity": 0.952755905511811,
          "duration": 0.15217387500000257
        },
        {
          "name": "C#3",
          "midi": 49,
          "time": 25.79347181250004,
          "velocity": 0.7086614173228346,
          "duration": 0.05434781249999787
        },
        {
          "name": "C#3",
          "midi": 49,
          "time": 25.82064571875004,
          "velocity": 0.7637795275590551,
          "duration": 0.6467389687499931
        },
        {
          "name": "C2",
          "midi": 36,
          "time": 25.82608050000004,
          "velocity": 0.5905511811023622,
          "duration": 0.005434781249999077
        },
        {
          "name": "F#1",
          "midi": 30,
          "time": 25.82608050000004,
          "velocity": 0.905511811023622,
          "duration": 0.1576086562499981
        },
        {
          "name": "A3",
          "midi": 57,
          "time": 26.054341312500036,
          "velocity": 0.7952755905511811,
          "duration": 0.05434781249999787
        },
        {
          "name": "F#1",
          "midi": 30,
          "time": 26.081515218750035,
          "velocity": 0.952755905511811,
          "duration": 0.17391299999999887
        },
        {
          "name": "A3",
          "midi": 57,
          "time": 26.081515218750035,
          "velocity": 0.8503937007874016,
          "duration": 0.25543471874999923
        },
        {
          "name": "C2",
          "midi": 36,
          "time": 26.086950000000034,
          "velocity": 0.8818897637795275,
          "duration": 0.005434781249999077
        },
        {
          "name": "G#3",
          "midi": 56,
          "time": 26.315210812500034,
          "velocity": 0.7716535433070866,
          "duration": 0.05434781249999787
        },
        {
          "name": "G#3",
          "midi": 56,
          "time": 26.342384718750033,
          "velocity": 0.8267716535433071,
          "duration": 0.4891303124999986
        },
        {
          "name": "F#1",
          "midi": 30,
          "time": 26.347819500000032,
          "velocity": 0.8582677165354331,
          "duration": 0.15217387500000257
        },
        {
          "name": "C#3",
          "midi": 49,
          "time": 26.576080312500036,
          "velocity": 0.7165354330708661,
          "duration": 0.05434781249999787
        },
        {
          "name": "C#3",
          "midi": 49,
          "time": 26.603254218750035,
          "velocity": 0.7716535433070866,
          "duration": 0.3858694687499984
        },
        {
          "name": "E2",
          "midi": 40,
          "time": 26.608689000000034,
          "velocity": 0.9291338582677166,
          "duration": 0.005434781249999077
        },
        {
          "name": "F#1",
          "midi": 30,
          "time": 26.614123781250033,
          "velocity": 0.9212598425196851,
          "duration": 0.1684782187499998
        },
        {
          "name": "G#3",
          "midi": 56,
          "time": 26.83694981250003,
          "velocity": 0.7874015748031497,
          "duration": 0.054347812500001424
        },
        {
          "name": "G#3",
          "midi": 56,
          "time": 26.86412371875003,
          "velocity": 0.84251968503937,
          "duration": 0.24456515625000108
        },
        {
          "name": "F#1",
          "midi": 30,
          "time": 26.87499328125003,
          "velocity": 0.8661417322834646,
          "duration": 0.14130431250000086
        },
        {
          "name": "F#2",
          "midi": 42,
          "time": 27.10325409375003,
          "velocity": 0.9212598425196851,
          "duration": 0.05434781249999787
        },
        {
          "name": "C2",
          "midi": 36,
          "time": 27.13042800000003,
          "velocity": 0.8661417322834646,
          "duration": 0.005434781249999077
        },
        {
          "name": "F#1",
          "midi": 30,
          "time": 27.13042800000003,
          "velocity": 0.9212598425196851,
          "duration": 0.16304343750000072
        },
        {
          "name": "F#2",
          "midi": 42,
          "time": 27.13042800000003,
          "velocity": 0.9763779527559056,
          "duration": 1.9673908125000032
        },
        {
          "name": "C#3",
          "midi": 49,
          "time": 27.35868881250003,
          "velocity": 0.6141732283464567,
          "duration": 0.054347812500001424
        },
        {
          "name": "C#3",
          "midi": 49,
          "time": 27.38586271875003,
          "velocity": 0.6692913385826772,
          "duration": 0.3858694687500055
        },
        {
          "name": "F#1",
          "midi": 30,
          "time": 27.39129750000003,
          "velocity": 0.8267716535433071,
          "duration": 0.1467390937500035
        },
        {
          "name": "A4",
          "midi": 69,
          "time": 27.40216706250003,
          "velocity": 0.8503937007874016,
          "duration": 0.21739125000000215
        },
        {
          "name": "G#3",
          "midi": 56,
          "time": 27.619558312500033,
          "velocity": 0.8503937007874016,
          "duration": 0.054347812500001424
        },
        {
          "name": "A4",
          "midi": 69,
          "time": 27.635862656250033,
          "velocity": 0.7716535433070866,
          "duration": 0.24999993750000016
        },
        {
          "name": "G#3",
          "midi": 56,
          "time": 27.646732218750035,
          "velocity": 0.905511811023622,
          "duration": 0.24456515624999753
        },
        {
          "name": "E2",
          "midi": 40,
          "time": 27.652167000000034,
          "velocity": 0.9291338582677166,
          "duration": 0.005434781249999077
        },
        {
          "name": "F#1",
          "midi": 30,
          "time": 27.652167000000034,
          "velocity": 0.9212598425196851,
          "duration": 0.16304343750000072
        },
        {
          "name": "C#3",
          "midi": 49,
          "time": 27.880427812500034,
          "velocity": 0.7086614173228346,
          "duration": 0.05434781249999787
        },
        {
          "name": "C#3",
          "midi": 49,
          "time": 27.907601718750033,
          "velocity": 0.7637795275590551,
          "duration": 0.24456515625000108
        },
        {
          "name": "C2",
          "midi": 36,
          "time": 27.913036500000032,
          "velocity": 0.5669291338582677,
          "duration": 0.005434781249999077
        },
        {
          "name": "F#1",
          "midi": 30,
          "time": 27.913036500000032,
          "velocity": 0.8110236220472441,
          "duration": 0.1684782187499998
        },
        {
          "name": "C#5",
          "midi": 73,
          "time": 27.92390606250003,
          "velocity": 0.84251968503937,
          "duration": 0.5163042187500047
        },
        {
          "name": "A3",
          "midi": 57,
          "time": 28.141297312500033,
          "velocity": 0.7952755905511811,
          "duration": 0.054347812500001424
        },
        {
          "name": "A3",
          "midi": 57,
          "time": 28.168471218750035,
          "velocity": 0.8503937007874016,
          "duration": 0.25543471874999923
        },
        {
          "name": "C2",
          "midi": 36,
          "time": 28.173906000000034,
          "velocity": 0.8740157480314961,
          "duration": 0.005434781249999077
        },
        {
          "name": "F#1",
          "midi": 30,
          "time": 28.173906000000034,
          "velocity": 0.952755905511811,
          "duration": 0.1684782187499998
        },
        {
          "name": "G#3",
          "midi": 56,
          "time": 28.402166812500035,
          "velocity": 0.7716535433070866,
          "duration": 0.054347812500001424
        },
        {
          "name": "D5",
          "midi": 74,
          "time": 28.423905937500034,
          "velocity": 0.84251968503937,
          "duration": 0.5163042187499975
        },
        {
          "name": "G#3",
          "midi": 56,
          "time": 28.429340718750034,
          "velocity": 0.8267716535433071,
          "duration": 0.4728259687499978
        },
        {
          "name": "F#1",
          "midi": 30,
          "time": 28.440210281250035,
          "velocity": 0.8582677165354331,
          "duration": 0.15217387499999901
        },
        {
          "name": "C#3",
          "midi": 49,
          "time": 28.663036312500033,
          "velocity": 0.7165354330708661,
          "duration": 0.05434781249999787
        },
        {
          "name": "F#1",
          "midi": 30,
          "time": 28.690210218750032,
          "velocity": 0.937007874015748,
          "duration": 0.17934778124999795
        },
        {
          "name": "C#3",
          "midi": 49,
          "time": 28.690210218750032,
          "velocity": 0.7716535433070866,
          "duration": 0.24456515625000108
        },
        {
          "name": "E2",
          "midi": 40,
          "time": 28.69564500000003,
          "velocity": 0.9291338582677166,
          "duration": 0.005434781249999077
        },
        {
          "name": "G#3",
          "midi": 56,
          "time": 28.92390581250003,
          "velocity": 0.7874015748031497,
          "duration": 0.054347812500001424
        },
        {
          "name": "F4",
          "midi": 65,
          "time": 28.92390581250003,
          "velocity": 0.6062992125984252,
          "duration": 0.2554347187500028
        },
        {
          "name": "A4",
          "midi": 69,
          "time": 28.940210156250032,
          "velocity": 0.8818897637795275,
          "duration": 0.37499990625000024
        },
        {
          "name": "F#1",
          "midi": 30,
          "time": 28.951079718750034,
          "velocity": 0.9212598425196851,
          "duration": 0.15760865625000164
        },
        {
          "name": "G#3",
          "midi": 56,
          "time": 28.951079718750034,
          "velocity": 0.84251968503937,
          "duration": 0.24456515625000108
        },
        {
          "name": "D3",
          "midi": 50,
          "time": 29.190210093750036,
          "velocity": 0.9212598425196851,
          "duration": 0.05434781249999787
        },
        {
          "name": "C2",
          "midi": 36,
          "time": 29.217384000000035,
          "velocity": 0.8503937007874016,
          "duration": 0.005434781249999077
        },
        {
          "name": "D3",
          "midi": 50,
          "time": 29.217384000000035,
          "velocity": 0.9763779527559056,
          "duration": 0.7771737187499923
        },
        {
          "name": "D2",
          "midi": 38,
          "time": 29.222818781250034,
          "velocity": 0.9133858267716536,
          "duration": 0.13586953124999823
        },
        {
          "name": "A4",
          "midi": 69,
          "time": 29.440210031250032,
          "velocity": 0.84251968503937,
          "duration": 0.2499999374999966
        },
        {
          "name": "A3",
          "midi": 57,
          "time": 29.44564481250003,
          "velocity": 0.6141732283464567,
          "duration": 0.05434781249999787
        },
        {
          "name": "A3",
          "midi": 57,
          "time": 29.47281871875003,
          "velocity": 0.6692913385826772,
          "duration": 0.5163042187499975
        },
        {
          "name": "D2",
          "midi": 38,
          "time": 29.47825350000003,
          "velocity": 0.8818897637795275,
          "duration": 0.1684782187499998
        },
        {
          "name": "A4",
          "midi": 69,
          "time": 29.70107953125003,
          "velocity": 0.6614173228346457,
          "duration": 0.2499999374999966
        },
        {
          "name": "E4",
          "midi": 64,
          "time": 29.70651431250003,
          "velocity": 0.7952755905511811,
          "duration": 0.05434781249999787
        },
        {
          "name": "E4",
          "midi": 64,
          "time": 29.73368821875003,
          "velocity": 0.8503937007874016,
          "duration": 0.38586946874999484
        },
        {
          "name": "E2",
          "midi": 40,
          "time": 29.739123000000028,
          "velocity": 0.9291338582677166,
          "duration": 0.005434781249999077
        },
        {
          "name": "D2",
          "midi": 38,
          "time": 29.739123000000028,
          "velocity": 0.9133858267716536,
          "duration": 0.1576086562499981
        },
        {
          "name": "D5",
          "midi": 74,
          "time": 29.967383812500028,
          "velocity": 0.8267716535433071,
          "duration": 0.516304218749994
        },
        {
          "name": "A3",
          "midi": 57,
          "time": 29.967383812500028,
          "velocity": 0.7086614173228346,
          "duration": 0.05434781249999787
        },
        {
          "name": "D3",
          "midi": 50,
          "time": 29.972818593750027,
          "velocity": 0.7401574803149606,
          "duration": 0.05434781249999787
        },
        {
          "name": "A3",
          "midi": 57,
          "time": 29.994557718750027,
          "velocity": 0.7637795275590551,
          "duration": 0.483695531249996
        },
        {
          "name": "C2",
          "midi": 36,
          "time": 29.999992500000026,
          "velocity": 0.6377952755905512,
          "duration": 0.005434781249999077
        },
        {
          "name": "D2",
          "midi": 38,
          "time": 29.999992500000026,
          "velocity": 0.8031496062992126,
          "duration": 0.16847821874999624
        },
        {
          "name": "D3",
          "midi": 50,
          "time": 29.999992500000026,
          "velocity": 0.7952755905511811,
          "duration": 0.7771737187499994
        },
        {
          "name": "D4",
          "midi": 62,
          "time": 30.228253312500023,
          "velocity": 0.7952755905511811,
          "duration": 0.05434781249999787
        },
        {
          "name": "D2",
          "midi": 38,
          "time": 30.25542721875002,
          "velocity": 0.9133858267716536,
          "duration": 0.1684782187499998
        },
        {
          "name": "D4",
          "midi": 62,
          "time": 30.25542721875002,
          "velocity": 0.8503937007874016,
          "duration": 0.3858694687500055
        },
        {
          "name": "C2",
          "midi": 36,
          "time": 30.26086200000002,
          "velocity": 0.8740157480314961,
          "duration": 0.005434781249999077
        },
        {
          "name": "A3",
          "midi": 57,
          "time": 30.48912281250002,
          "velocity": 0.7716535433070866,
          "duration": 0.05434781250000498
        },
        {
          "name": "C#5",
          "midi": 73,
          "time": 30.505427156250022,
          "velocity": 0.889763779527559,
          "duration": 0.5163042187500047
        },
        {
          "name": "A3",
          "midi": 57,
          "time": 30.516296718750024,
          "velocity": 0.8267716535433071,
          "duration": 0.3858694687499984
        },
        {
          "name": "D2",
          "midi": 38,
          "time": 30.527166281250025,
          "velocity": 0.7401574803149606,
          "duration": 0.16304343750000072
        },
        {
          "name": "D4",
          "midi": 62,
          "time": 30.755427093750026,
          "velocity": 0.5669291338582677,
          "duration": 0.05434781249999787
        },
        {
          "name": "D3",
          "midi": 50,
          "time": 30.755427093750026,
          "velocity": 0.7165354330708661,
          "duration": 0.05434781249999787
        },
        {
          "name": "E2",
          "midi": 40,
          "time": 30.782601000000025,
          "velocity": 0.9291338582677166,
          "duration": 0.005434781249999077
        },
        {
          "name": "D4",
          "midi": 62,
          "time": 30.782601000000025,
          "velocity": 0.6220472440944882,
          "duration": 0.3858694687500055
        },
        {
          "name": "D3",
          "midi": 50,
          "time": 30.782601000000025,
          "velocity": 0.7716535433070866,
          "duration": 0.5163042187500082
        },
        {
          "name": "D2",
          "midi": 38,
          "time": 30.788035781250024,
          "velocity": 0.8976377952755905,
          "duration": 0.1684782187499998
        },
        {
          "name": "A3",
          "midi": 57,
          "time": 31.010861812500025,
          "velocity": 0.7874015748031497,
          "duration": 0.05434781250000498
        },
        {
          "name": "B4",
          "midi": 71,
          "time": 31.03260093750003,
          "velocity": 0.8661417322834646,
          "duration": 0.4076085937500018
        },
        {
          "name": "A3",
          "midi": 57,
          "time": 31.038035718750027,
          "velocity": 0.84251968503937,
          "duration": 0.24456515625000463
        },
        {
          "name": "D2",
          "midi": 38,
          "time": 31.04890528125003,
          "velocity": 0.8031496062992126,
          "duration": 0.17391300000000243
        },
        {
          "name": "E3",
          "midi": 52,
          "time": 31.277166093750033,
          "velocity": 0.9212598425196851,
          "duration": 0.05434781249999787
        },
        {
          "name": "C2",
          "midi": 36,
          "time": 31.304340000000032,
          "velocity": 0.8740157480314961,
          "duration": 0.005434781249999077
        },
        {
          "name": "E3",
          "midi": 52,
          "time": 31.304340000000032,
          "velocity": 0.8976377952755905,
          "duration": 0.7663041562500013
        },
        {
          "name": "E2",
          "midi": 40,
          "time": 31.30977478125003,
          "velocity": 0.8818897637795275,
          "duration": 0.1684782187499998
        },
        {
          "name": "B3",
          "midi": 59,
          "time": 31.532600812500032,
          "velocity": 0.6141732283464567,
          "duration": 0.05434781249999787
        },
        {
          "name": "B4",
          "midi": 71,
          "time": 31.55977471875003,
          "velocity": 0.905511811023622,
          "duration": 0.22826081249999675
        },
        {
          "name": "E2",
          "midi": 40,
          "time": 31.55977471875003,
          "velocity": 0.7086614173228346,
          "duration": 0.1413043124999973
        },
        {
          "name": "B3",
          "midi": 59,
          "time": 31.55977471875003,
          "velocity": 0.6692913385826772,
          "duration": 0.38586946874999484
        },
        {
          "name": "F#4",
          "midi": 66,
          "time": 31.793470312500027,
          "velocity": 0.8503937007874016,
          "duration": 0.05434781249999787
        },
        {
          "name": "A4",
          "midi": 69,
          "time": 31.820644218750026,
          "velocity": 0.7716535433070866,
          "duration": 0.2010869062499978
        },
        {
          "name": "E2",
          "midi": 40,
          "time": 31.820644218750026,
          "velocity": 0.8818897637795275,
          "duration": 0.010869562499998153
        },
        {
          "name": "F#4",
          "midi": 66,
          "time": 31.820644218750026,
          "velocity": 0.7637795275590551,
          "duration": 0.38586946875001615
        },
        {
          "name": "E2",
          "midi": 40,
          "time": 31.826079000000025,
          "velocity": 0.9291338582677166,
          "duration": 0.1684782187499998
        },
        {
          "name": "B3",
          "midi": 59,
          "time": 32.054339812500025,
          "velocity": 0.7086614173228346,
          "duration": 0.05434781250001208
        },
        {
          "name": "E3",
          "midi": 52,
          "time": 32.05977459375003,
          "velocity": 0.7480314960629921,
          "duration": 0.05434781250001208
        },
        {
          "name": "C#5",
          "midi": 73,
          "time": 32.06520937500003,
          "velocity": 0.889763779527559,
          "duration": 0.5054346562500172
        },
        {
          "name": "E2",
          "midi": 40,
          "time": 32.08151371875003,
          "velocity": 0.7401574803149606,
          "duration": 0.17391300000001308
        },
        {
          "name": "B3",
          "midi": 59,
          "time": 32.08151371875003,
          "velocity": 0.7637795275590551,
          "duration": 0.38586946875001615
        },
        {
          "name": "C2",
          "midi": 36,
          "time": 32.086948500000034,
          "velocity": 0.5984251968503937,
          "duration": 0.005434781250002629
        },
        {
          "name": "E3",
          "midi": 52,
          "time": 32.086948500000034,
          "velocity": 0.8031496062992126,
          "duration": 0.7336954687500139
        },
        {
          "name": "E4",
          "midi": 64,
          "time": 32.315209312500045,
          "velocity": 0.7952755905511811,
          "duration": 0.05434781250000498
        },
        {
          "name": "E2",
          "midi": 40,
          "time": 32.342383218750044,
          "velocity": 0.8346456692913385,
          "duration": 0.13586953125000178
        },
        {
          "name": "E4",
          "midi": 64,
          "time": 32.342383218750044,
          "velocity": 0.8503937007874016,
          "duration": 0.38586946875000194
        },
        {
          "name": "C2",
          "midi": 36,
          "time": 32.347818000000046,
          "velocity": 0.8661417322834646,
          "duration": 0.005434781250002629
        },
        {
          "name": "A4",
          "midi": 69,
          "time": 32.57607881250005,
          "velocity": 0.8110236220472441,
          "duration": 0.5543476875000053
        },
        {
          "name": "B3",
          "midi": 59,
          "time": 32.57607881250005,
          "velocity": 0.7716535433070866,
          "duration": 0.05434781249999787
        },
        {
          "name": "E2",
          "midi": 40,
          "time": 32.60325271875005,
          "velocity": 0.6614173228346457,
          "duration": 0.16847821874999624
        },
        {
          "name": "B3",
          "midi": 59,
          "time": 32.60325271875005,
          "velocity": 0.7795275590551181,
          "duration": 0.7771737187500065
        },
        {
          "name": "E3",
          "midi": 52,
          "time": 32.83694831250005,
          "velocity": 0.7165354330708661,
          "duration": 0.05434781250000498
        },
        {
          "name": "E2",
          "midi": 40,
          "time": 32.86412221875005,
          "velocity": 0.8976377952755905,
          "duration": 0.010869562500005259
        },
        {
          "name": "E3",
          "midi": 52,
          "time": 32.86412221875005,
          "velocity": 0.7007874015748031,
          "duration": 0.24456515625000463
        },
        {
          "name": "E2",
          "midi": 40,
          "time": 32.86955700000005,
          "velocity": 0.9291338582677166,
          "duration": 0.15217387500000257
        },
        {
          "name": "E4",
          "midi": 64,
          "time": 33.097817812500054,
          "velocity": 0.7874015748031497,
          "duration": 0.05434781250000498
        },
        {
          "name": "E2",
          "midi": 40,
          "time": 33.12499171875005,
          "velocity": 0.8188976377952756,
          "duration": 0.1793477812500015
        },
        {
          "name": "E4",
          "midi": 64,
          "time": 33.12499171875005,
          "velocity": 0.6692913385826772,
          "duration": 0.2554347187500028
        },
        {
          "name": "A4",
          "midi": 69,
          "time": 33.16303518750006,
          "velocity": 0.6771653543307087,
          "duration": 0.9184780312500038
        },
        {
          "name": "F#2",
          "midi": 42,
          "time": 33.364122093750055,
          "velocity": 0.9212598425196851,
          "duration": 0.05434781250000498
        },
        {
          "name": "C2",
          "midi": 36,
          "time": 33.391296000000054,
          "velocity": 0.8740157480314961,
          "duration": 0.005434781250002629
        },
        {
          "name": "F#2",
          "midi": 42,
          "time": 33.391296000000054,
          "velocity": 0.8976377952755905,
          "duration": 0.1793477812500086
        },
        {
          "name": "F#2",
          "midi": 42,
          "time": 33.391296000000054,
          "velocity": 0.9763779527559056,
          "duration": 0.4510868437500122
        },
        {
          "name": "C#3",
          "midi": 49,
          "time": 33.619556812500065,
          "velocity": 0.6141732283464567,
          "duration": 0.05434781249999787
        },
        {
          "name": "C#3",
          "midi": 49,
          "time": 33.646730718750064,
          "velocity": 0.6692913385826772,
          "duration": 0.38586946875000194
        },
        {
          "name": "F#2",
          "midi": 42,
          "time": 33.65760028125006,
          "velocity": 0.8976377952755905,
          "duration": 0.4130433750000009
        },
        {
          "name": "G#3",
          "midi": 56,
          "time": 33.88042631250006,
          "velocity": 0.8503937007874016,
          "duration": 0.05434781250000498
        },
        {
          "name": "G#3",
          "midi": 56,
          "time": 33.90760021875006,
          "velocity": 0.905511811023622,
          "duration": 0.2554347187500028
        },
        {
          "name": "E2",
          "midi": 40,
          "time": 33.913035000000065,
          "velocity": 0.9291338582677166,
          "duration": 0.005434781250002629
        },
        {
          "name": "F#2",
          "midi": 42,
          "time": 33.91846978125007,
          "velocity": 0.8267716535433071,
          "duration": 0.3804346875000064
        },
        {
          "name": "C#3",
          "midi": 49,
          "time": 34.14129581250006,
          "velocity": 0.7086614173228346,
          "duration": 0.05434781250001208
        },
        {
          "name": "C#3",
          "midi": 49,
          "time": 34.16846971875007,
          "velocity": 0.7637795275590551,
          "duration": 0.6467389687500145
        },
        {
          "name": "C2",
          "midi": 36,
          "time": 34.17390450000007,
          "velocity": 0.5905511811023622,
          "duration": 0.005434781250002629
        },
        {
          "name": "F#2",
          "midi": 42,
          "time": 34.17933928125007,
          "velocity": 0.9448818897637795,
          "duration": 0.3967390312500072
        },
        {
          "name": "A3",
          "midi": 57,
          "time": 34.402165312500074,
          "velocity": 0.7952755905511811,
          "duration": 0.05434781250000498
        },
        {
          "name": "F#2",
          "midi": 42,
          "time": 34.42933921875007,
          "velocity": 0.9448818897637795,
          "duration": 0.9293475937500162
        },
        {
          "name": "A3",
          "midi": 57,
          "time": 34.42933921875007,
          "velocity": 0.8503937007874016,
          "duration": 0.2554347187500099
        },
        {
          "name": "C2",
          "midi": 36,
          "time": 34.434774000000075,
          "velocity": 0.8740157480314961,
          "duration": 0.005434781250002629
        },
        {
          "name": "G#3",
          "midi": 56,
          "time": 34.66303481250008,
          "velocity": 0.7716535433070866,
          "duration": 0.05434781250000498
        },
        {
          "name": "E2",
          "midi": 40,
          "time": 34.690208718750085,
          "velocity": 0.8976377952755905,
          "duration": 0.24999993750000016
        },
        {
          "name": "G#3",
          "midi": 56,
          "time": 34.690208718750085,
          "velocity": 0.8267716535433071,
          "duration": 0.48913031250000216
        },
        {
          "name": "C#3",
          "midi": 49,
          "time": 34.923904312500085,
          "velocity": 0.7165354330708661,
          "duration": 0.05434781250000498
        },
        {
          "name": "C#3",
          "midi": 49,
          "time": 34.951078218750084,
          "velocity": 0.7716535433070866,
          "duration": 0.38586946875000194
        },
        {
          "name": "E2",
          "midi": 40,
          "time": 34.956513000000086,
          "velocity": 0.9291338582677166,
          "duration": 0.005434781250002629
        },
        {
          "name": "G#3",
          "midi": 56,
          "time": 35.18477381250009,
          "velocity": 0.7874015748031497,
          "duration": 0.05434781249999787
        },
        {
          "name": "F#2",
          "midi": 42,
          "time": 35.21194771875009,
          "velocity": 0.8976377952755905,
          "duration": 0.16847821875000335
        },
        {
          "name": "G#3",
          "midi": 56,
          "time": 35.21194771875009,
          "velocity": 0.84251968503937,
          "duration": 0.24456515625000463
        },
        {
          "name": "F#2",
          "midi": 42,
          "time": 35.45107809375009,
          "velocity": 0.9212598425196851,
          "duration": 0.05434781250001208
        },
        {
          "name": "F#2",
          "midi": 42,
          "time": 35.472817218750095,
          "velocity": 0.8267716535433071,
          "duration": 0.17391300000000598
        },
        {
          "name": "C2",
          "midi": 36,
          "time": 35.4782520000001,
          "velocity": 0.905511811023622,
          "duration": 0.005434781250002629
        },
        {
          "name": "F#2",
          "midi": 42,
          "time": 35.4782520000001,
          "velocity": 0.9763779527559056,
          "duration": 0.42391293749999903
        },
        {
          "name": "C#3",
          "midi": 49,
          "time": 35.7065128125001,
          "velocity": 0.6141732283464567,
          "duration": 0.05434781249999787
        },
        {
          "name": "F#2",
          "midi": 42,
          "time": 35.7336867187501,
          "velocity": 0.9448818897637795,
          "duration": 0.3967390312500001
        },
        {
          "name": "C#3",
          "midi": 49,
          "time": 35.7336867187501,
          "velocity": 0.6692913385826772,
          "duration": 0.38586946875000194
        },
        {
          "name": "G#3",
          "midi": 56,
          "time": 35.9673823125001,
          "velocity": 0.8503937007874016,
          "duration": 0.05434781250000498
        },
        {
          "name": "F#2",
          "midi": 42,
          "time": 35.9945562187501,
          "velocity": 0.8503937007874016,
          "duration": 0.39130425000000457
        },
        {
          "name": "G#3",
          "midi": 56,
          "time": 35.9945562187501,
          "velocity": 0.905511811023622,
          "duration": 0.24456515624999753
        },
        {
          "name": "E2",
          "midi": 40,
          "time": 35.9999910000001,
          "velocity": 0.9291338582677166,
          "duration": 0.005434781250002629
        },
        {
          "name": "C#5",
          "midi": 73,
          "time": 36.0054257812501,
          "velocity": 0.9212598425196851,
          "duration": 0.2608694999999983
        },
        {
          "name": "C#3",
          "midi": 49,
          "time": 36.2282518125001,
          "velocity": 0.7086614173228346,
          "duration": 0.05434781250000498
        },
        {
          "name": "F#2",
          "midi": 42,
          "time": 36.2554257187501,
          "velocity": 0.8740157480314961,
          "duration": 0.40760859375001246
        },
        {
          "name": "C#3",
          "midi": 49,
          "time": 36.2554257187501,
          "velocity": 0.7637795275590551,
          "duration": 0.5163042187500153
        },
        {
          "name": "D5",
          "midi": 74,
          "time": 36.2608605000001,
          "velocity": 0.7086614173228346,
          "duration": 0.2554347187500028
        },
        {
          "name": "C2",
          "midi": 36,
          "time": 36.2608605000001,
          "velocity": 0.5748031496062992,
          "duration": 0.005434781250002629
        },
        {
          "name": "A3",
          "midi": 57,
          "time": 36.4891213125001,
          "velocity": 0.7952755905511811,
          "duration": 0.05434781250000498
        },
        {
          "name": "F#2",
          "midi": 42,
          "time": 36.5162952187501,
          "velocity": 0.8740157480314961,
          "duration": 0.413043375000008
        },
        {
          "name": "A3",
          "midi": 57,
          "time": 36.5162952187501,
          "velocity": 0.8503937007874016,
          "duration": 0.2554347187500099
        },
        {
          "name": "C#5",
          "midi": 73,
          "time": 36.521730000000105,
          "velocity": 0.8031496062992126,
          "duration": 0.5108694375000056
        },
        {
          "name": "C2",
          "midi": 36,
          "time": 36.521730000000105,
          "velocity": 0.8582677165354331,
          "duration": 0.005434781250002629
        },
        {
          "name": "G#3",
          "midi": 56,
          "time": 36.74999081250011,
          "velocity": 0.7716535433070866,
          "duration": 0.05434781250000498
        },
        {
          "name": "G#3",
          "midi": 56,
          "time": 36.777164718750115,
          "velocity": 0.8267716535433071,
          "duration": 0.4728259687500085
        },
        {
          "name": "F#2",
          "midi": 42,
          "time": 36.78803428125011,
          "velocity": 0.8976377952755905,
          "duration": 0.6576085312500126
        },
        {
          "name": "C#3",
          "midi": 49,
          "time": 37.01629509375011,
          "velocity": 0.7165354330708661,
          "duration": 0.05434781250001208
        },
        {
          "name": "C#3",
          "midi": 49,
          "time": 37.03803421875011,
          "velocity": 0.7716535433070866,
          "duration": 0.38586946875000905
        },
        {
          "name": "E2",
          "midi": 40,
          "time": 37.043469000000115,
          "velocity": 0.9291338582677166,
          "duration": 0.005434781250002629
        },
        {
          "name": "E2",
          "midi": 40,
          "time": 37.04890378125012,
          "velocity": 0.952755905511811,
          "duration": 0.1576086562500052
        },
        {
          "name": "B4",
          "midi": 71,
          "time": 37.05433856250012,
          "velocity": 0.7874015748031497,
          "duration": 0.2554347187500028
        },
        {
          "name": "G#3",
          "midi": 56,
          "time": 37.271729812500126,
          "velocity": 0.7874015748031497,
          "duration": 0.05434781249999787
        },
        {
          "name": "F4",
          "midi": 65,
          "time": 37.271729812500126,
          "velocity": 0.6062992125984252,
          "duration": 0.2554347187499957
        },
        {
          "name": "A4",
          "midi": 69,
          "time": 37.298903718750125,
          "velocity": 0.6692913385826772,
          "duration": 0.5163042187500082
        },
        {
          "name": "G#3",
          "midi": 56,
          "time": 37.298903718750125,
          "velocity": 0.84251968503937,
          "duration": 0.24456515624999753
        },
        {
          "name": "E2",
          "midi": 40,
          "time": 37.30977328125012,
          "velocity": 0.8031496062992126,
          "duration": 0.16304343750000072
        },
        {
          "name": "A2",
          "midi": 45,
          "time": 37.53803409375012,
          "velocity": 0.9212598425196851,
          "duration": 0.05434781250001208
        },
        {
          "name": "C2",
          "midi": 36,
          "time": 37.565208000000126,
          "velocity": 0.8818897637795275,
          "duration": 0.005434781250002629
        },
        {
          "name": "A2",
          "midi": 45,
          "time": 37.565208000000126,
          "velocity": 0.9763779527559056,
          "duration": 1.9673908125000423
        },
        {
          "name": "A1",
          "midi": 33,
          "time": 37.57064278125013,
          "velocity": 0.952755905511811,
          "duration": 0.18478256250000413
        },
        {
          "name": "E3",
          "midi": 52,
          "time": 37.79346881250013,
          "velocity": 0.6141732283464567,
          "duration": 0.05434781250001208
        },
        {
          "name": "E3",
          "midi": 52,
          "time": 37.820642718750136,
          "velocity": 0.6692913385826772,
          "duration": 0.38586946875000905
        },
        {
          "name": "C#5",
          "midi": 73,
          "time": 37.82607750000014,
          "velocity": 0.7322834645669292,
          "duration": 1.570651781250028
        },
        {
          "name": "A1",
          "midi": 33,
          "time": 37.82607750000014,
          "velocity": 0.8976377952755905,
          "duration": 0.14130431250000441
        },
        {
          "name": "B3",
          "midi": 59,
          "time": 38.05433831250014,
          "velocity": 0.8503937007874016,
          "duration": 0.05434781250000498
        },
        {
          "name": "A1",
          "midi": 33,
          "time": 38.08151221875014,
          "velocity": 0.952755905511811,
          "duration": 0.17391300000000598
        },
        {
          "name": "B3",
          "midi": 59,
          "time": 38.08151221875014,
          "velocity": 0.905511811023622,
          "duration": 0.2554347187500099
        },
        {
          "name": "E2",
          "midi": 40,
          "time": 38.086947000000144,
          "velocity": 0.9291338582677166,
          "duration": 0.005434781250002629
        },
        {
          "name": "E3",
          "midi": 52,
          "time": 38.31520781250015,
          "velocity": 0.7086614173228346,
          "duration": 0.05434781250001208
        },
        {
          "name": "A1",
          "midi": 33,
          "time": 38.342381718750154,
          "velocity": 0.8503937007874016,
          "duration": 0.14130431250000441
        },
        {
          "name": "E3",
          "midi": 52,
          "time": 38.342381718750154,
          "velocity": 0.7637795275590551,
          "duration": 0.6467389687500145
        },
        {
          "name": "C2",
          "midi": 36,
          "time": 38.34781650000016,
          "velocity": 0.6377952755905512,
          "duration": 0.005434781250002629
        },
        {
          "name": "C#4",
          "midi": 61,
          "time": 38.57607731250016,
          "velocity": 0.7952755905511811,
          "duration": 0.05434781250000498
        },
        {
          "name": "A1",
          "midi": 33,
          "time": 38.60325121875016,
          "velocity": 0.952755905511811,
          "duration": 0.1793477812500086
        },
        {
          "name": "C#4",
          "midi": 61,
          "time": 38.60325121875016,
          "velocity": 0.8503937007874016,
          "duration": 0.2554347187500099
        },
        {
          "name": "C2",
          "midi": 36,
          "time": 38.60868600000016,
          "velocity": 0.8582677165354331,
          "duration": 0.005434781250002629
        },
        {
          "name": "B3",
          "midi": 59,
          "time": 38.836946812500166,
          "velocity": 0.7716535433070866,
          "duration": 0.05434781250000498
        },
        {
          "name": "A1",
          "midi": 33,
          "time": 38.86412071875017,
          "velocity": 0.8976377952755905,
          "duration": 0.16304343749999362
        },
        {
          "name": "B3",
          "midi": 59,
          "time": 38.86412071875017,
          "velocity": 0.8267716535433071,
          "duration": 0.48913031249999506
        },
        {
          "name": "E3",
          "midi": 52,
          "time": 39.097816312500164,
          "velocity": 0.7165354330708661,
          "duration": 0.05434781250000498
        },
        {
          "name": "A1",
          "midi": 33,
          "time": 39.12499021875016,
          "velocity": 0.952755905511811,
          "duration": 0.18478256250000413
        },
        {
          "name": "E3",
          "midi": 52,
          "time": 39.12499021875016,
          "velocity": 0.7716535433070866,
          "duration": 0.38586946875000194
        },
        {
          "name": "E2",
          "midi": 40,
          "time": 39.130425000000166,
          "velocity": 0.9291338582677166,
          "duration": 0.005434781250002629
        },
        {
          "name": "B3",
          "midi": 59,
          "time": 39.35868581250017,
          "velocity": 0.7874015748031497,
          "duration": 0.05434781249999787
        },
        {
          "name": "A1",
          "midi": 33,
          "time": 39.38585971875017,
          "velocity": 0.8661417322834646,
          "duration": 0.15217387500000257
        },
        {
          "name": "B3",
          "midi": 59,
          "time": 39.38585971875017,
          "velocity": 0.84251968503937,
          "duration": 0.24456515625000463
        },
        {
          "name": "A2",
          "midi": 45,
          "time": 39.62499009375017,
          "velocity": 0.9212598425196851,
          "duration": 0.05434781250001208
        },
        {
          "name": "A1",
          "midi": 33,
          "time": 39.646729218750174,
          "velocity": 0.952755905511811,
          "duration": 0.16304343750000783
        },
        {
          "name": "C2",
          "midi": 36,
          "time": 39.65216400000018,
          "velocity": 0.8818897637795275,
          "duration": 0.005434781250002629
        },
        {
          "name": "A2",
          "midi": 45,
          "time": 39.65216400000018,
          "velocity": 0.9763779527559056,
          "duration": 1.9673908125000281
        },
        {
          "name": "E3",
          "midi": 52,
          "time": 39.88042481250018,
          "velocity": 0.6141732283464567,
          "duration": 0.05434781250000498
        },
        {
          "name": "E3",
          "midi": 52,
          "time": 39.90759871875018,
          "velocity": 0.6692913385826772,
          "duration": 0.38586946875000905
        },
        {
          "name": "A1",
          "midi": 33,
          "time": 39.91303350000018,
          "velocity": 0.9291338582677166,
          "duration": 0.0597825937500005
        },
        {
          "name": "E4",
          "midi": 64,
          "time": 39.918468281250185,
          "velocity": 0.7559055118110236,
          "duration": 0.239130375000002
        },
        {
          "name": "A1",
          "midi": 33,
          "time": 40.038033468750186,
          "velocity": 0.8031496062992126,
          "duration": 0.0597825937500005
        },
        {
          "name": "B3",
          "midi": 59,
          "time": 40.141294312500186,
          "velocity": 0.8503937007874016,
          "duration": 0.05434781250000498
        },
        {
          "name": "A1",
          "midi": 33,
          "time": 40.168468218750185,
          "velocity": 0.952755905511811,
          "duration": 0.1793477812500015
        },
        {
          "name": "B3",
          "midi": 59,
          "time": 40.168468218750185,
          "velocity": 0.905511811023622,
          "duration": 0.24456515624999753
        },
        {
          "name": "E2",
          "midi": 40,
          "time": 40.17390300000019,
          "velocity": 0.9291338582677166,
          "duration": 0.005434781250002629
        },
        {
          "name": "C#5",
          "midi": 73,
          "time": 40.18477256250019,
          "velocity": 0.7716535433070866,
          "duration": 0.2608694999999983
        },
        {
          "name": "E3",
          "midi": 52,
          "time": 40.402163812500184,
          "velocity": 0.7086614173228346,
          "duration": 0.05434781250000498
        },
        {
          "name": "E3",
          "midi": 52,
          "time": 40.42933771875018,
          "velocity": 0.7637795275590551,
          "duration": 0.24456515624999753
        },
        {
          "name": "D5",
          "midi": 74,
          "time": 40.434772500000186,
          "velocity": 0.7322834645669292,
          "duration": 0.2608694999999983
        },
        {
          "name": "C2",
          "midi": 36,
          "time": 40.434772500000186,
          "velocity": 0.6220472440944882,
          "duration": 0.005434781250002629
        },
        {
          "name": "A1",
          "midi": 33,
          "time": 40.44020728125019,
          "velocity": 0.952755905511811,
          "duration": 0.1413043124999973
        },
        {
          "name": "C#4",
          "midi": 61,
          "time": 40.66303331250018,
          "velocity": 0.7952755905511811,
          "duration": 0.05434781250000498
        },
        {
          "name": "A1",
          "midi": 33,
          "time": 40.69020721875018,
          "velocity": 0.952755905511811,
          "duration": 0.16304343750000783
        },
        {
          "name": "C#4",
          "midi": 61,
          "time": 40.69020721875018,
          "velocity": 0.8503937007874016,
          "duration": 0.2554347187500099
        },
        {
          "name": "C2",
          "midi": 36,
          "time": 40.695642000000184,
          "velocity": 0.8740157480314961,
          "duration": 0.005434781250002629
        },
        {
          "name": "C#5",
          "midi": 73,
          "time": 40.711946343750185,
          "velocity": 0.7637795275590551,
          "duration": 0.5163042187500224
        },
        {
          "name": "B3",
          "midi": 59,
          "time": 40.92390281250019,
          "velocity": 0.7716535433070866,
          "duration": 0.05434781250001208
        },
        {
          "name": "B3",
          "midi": 59,
          "time": 40.951076718750194,
          "velocity": 0.8267716535433071,
          "duration": 0.4728259687500085
        },
        {
          "name": "A1",
          "midi": 33,
          "time": 40.9565115000002,
          "velocity": 0.8818897637795275,
          "duration": 0.1576086562500052
        },
        {
          "name": "E3",
          "midi": 52,
          "time": 41.1847723125002,
          "velocity": 0.7165354330708661,
          "duration": 0.05434781250000498
        },
        {
          "name": "E3",
          "midi": 52,
          "time": 41.2119462187502,
          "velocity": 0.7716535433070866,
          "duration": 0.24456515625000463
        },
        {
          "name": "B4",
          "midi": 71,
          "time": 41.2173810000002,
          "velocity": 0.8110236220472441,
          "duration": 0.5108694375000056
        },
        {
          "name": "E2",
          "midi": 40,
          "time": 41.2173810000002,
          "velocity": 0.9291338582677166,
          "duration": 0.005434781250002629
        },
        {
          "name": "A1",
          "midi": 33,
          "time": 41.222815781250205,
          "velocity": 0.952755905511811,
          "duration": 0.17391299999999887
        },
        {
          "name": "B3",
          "midi": 59,
          "time": 41.445641812500206,
          "velocity": 0.7874015748031497,
          "duration": 0.05434781249999787
        },
        {
          "name": "F4",
          "midi": 65,
          "time": 41.445641812500206,
          "velocity": 0.6062992125984252,
          "duration": 0.2554347187500028
        },
        {
          "name": "G#1",
          "midi": 32,
          "time": 41.472815718750205,
          "velocity": 0.8976377952755905,
          "duration": 0.16304343750000072
        },
        {
          "name": "B3",
          "midi": 59,
          "time": 41.472815718750205,
          "velocity": 0.84251968503937,
          "duration": 0.24456515625000463
        },
        {
          "name": "F#2",
          "midi": 42,
          "time": 41.71194609375021,
          "velocity": 0.9212598425196851,
          "duration": 0.05434781250001208
        },
        {
          "name": "A4",
          "midi": 69,
          "time": 41.72825043750021,
          "velocity": 0.7480314960629921,
          "duration": 1.489130062500017
        },
        {
          "name": "F#1",
          "midi": 30,
          "time": 41.73368521875021,
          "velocity": 0.9448818897637795,
          "duration": 0.1576086562500052
        },
        {
          "name": "C2",
          "midi": 36,
          "time": 41.73912000000021,
          "velocity": 0.8818897637795275,
          "duration": 0.005434781250002629
        },
        {
          "name": "F#2",
          "midi": 42,
          "time": 41.73912000000021,
          "velocity": 0.9763779527559056,
          "duration": 1.967390812500014
        },
        {
          "name": "C#3",
          "midi": 49,
          "time": 41.96738081250022,
          "velocity": 0.6141732283464567,
          "duration": 0.05434781249999787
        },
        {
          "name": "F#1",
          "midi": 30,
          "time": 41.994554718750216,
          "velocity": 0.8503937007874016,
          "duration": 0.15217387499999546
        },
        {
          "name": "C#3",
          "midi": 49,
          "time": 41.994554718750216,
          "velocity": 0.6692913385826772,
          "duration": 0.38586946874999484
        },
        {
          "name": "G#3",
          "midi": 56,
          "time": 42.22825031250021,
          "velocity": 0.8503937007874016,
          "duration": 0.05434781250000498
        },
        {
          "name": "F#1",
          "midi": 30,
          "time": 42.25542421875021,
          "velocity": 0.952755905511811,
          "duration": 0.16304343750000072
        },
        {
          "name": "G#3",
          "midi": 56,
          "time": 42.25542421875021,
          "velocity": 0.905511811023622,
          "duration": 0.2554347187500028
        },
        {
          "name": "E2",
          "midi": 40,
          "time": 42.26085900000021,
          "velocity": 0.9291338582677166,
          "duration": 0.005434781250002629
        },
        {
          "name": "C#3",
          "midi": 49,
          "time": 42.489119812500206,
          "velocity": 0.7086614173228346,
          "duration": 0.05434781250001208
        },
        {
          "name": "F#1",
          "midi": 30,
          "time": 42.51629371875021,
          "velocity": 0.8740157480314961,
          "duration": 0.14130431250000441
        },
        {
          "name": "C#3",
          "midi": 49,
          "time": 42.51629371875021,
          "velocity": 0.7637795275590551,
          "duration": 0.6467389687500145
        },
        {
          "name": "C2",
          "midi": 36,
          "time": 42.521728500000215,
          "velocity": 0.5905511811023622,
          "duration": 0.005434781250002629
        },
        {
          "name": "A3",
          "midi": 57,
          "time": 42.74998931250022,
          "velocity": 0.7952755905511811,
          "duration": 0.05434781250000498
        },
        {
          "name": "F#1",
          "midi": 30,
          "time": 42.77716321875022,
          "velocity": 0.952755905511811,
          "duration": 0.16304343750000783
        },
        {
          "name": "A3",
          "midi": 57,
          "time": 42.77716321875022,
          "velocity": 0.8503937007874016,
          "duration": 0.2554347187500099
        },
        {
          "name": "C2",
          "midi": 36,
          "time": 42.78259800000022,
          "velocity": 0.8818897637795275,
          "duration": 0.005434781250002629
        },
        {
          "name": "G#3",
          "midi": 56,
          "time": 43.010858812500224,
          "velocity": 0.7716535433070866,
          "duration": 0.05434781250000498
        },
        {
          "name": "F#1",
          "midi": 30,
          "time": 43.03803271875023,
          "velocity": 0.8110236220472441,
          "duration": 0.1413043124999973
        },
        {
          "name": "G#3",
          "midi": 56,
          "time": 43.03803271875023,
          "velocity": 0.8267716535433071,
          "duration": 0.48913031249999506
        },
        {
          "name": "C#3",
          "midi": 49,
          "time": 43.27172831250022,
          "velocity": 0.7165354330708661,
          "duration": 0.05434781250000498
        },
        {
          "name": "C#3",
          "midi": 49,
          "time": 43.29890221875022,
          "velocity": 0.7716535433070866,
          "duration": 0.38586946875000194
        },
        {
          "name": "E2",
          "midi": 40,
          "time": 43.304337000000224,
          "velocity": 0.9291338582677166,
          "duration": 0.005434781250002629
        },
        {
          "name": "F#1",
          "midi": 30,
          "time": 43.30977178125023,
          "velocity": 0.9448818897637795,
          "duration": 0.14673909374999994
        },
        {
          "name": "G#3",
          "midi": 56,
          "time": 43.53259781250023,
          "velocity": 0.7874015748031497,
          "duration": 0.05434781249999787
        },
        {
          "name": "F#1",
          "midi": 30,
          "time": 43.55977171875023,
          "velocity": 0.8110236220472441,
          "duration": 0.13043474999999916
        },
        {
          "name": "G#3",
          "midi": 56,
          "time": 43.55977171875023,
          "velocity": 0.84251968503937,
          "duration": 0.24456515625000463
        },
        {
          "name": "F#2",
          "midi": 42,
          "time": 43.79890209375023,
          "velocity": 0.9212598425196851,
          "duration": 0.05434781250001208
        },
        {
          "name": "F#1",
          "midi": 30,
          "time": 43.82064121875023,
          "velocity": 0.952755905511811,
          "duration": 0.14130431250001152
        },
        {
          "name": "C2",
          "midi": 36,
          "time": 43.826076000000235,
          "velocity": 0.8661417322834646,
          "duration": 0.005434781250002629
        },
        {
          "name": "F#2",
          "midi": 42,
          "time": 43.826076000000235,
          "velocity": 0.9763779527559056,
          "duration": 1.9673908125000281
        },
        {
          "name": "C#3",
          "midi": 49,
          "time": 44.054336812500246,
          "velocity": 0.6141732283464567,
          "duration": 0.05434781250000498
        },
        {
          "name": "F#1",
          "midi": 30,
          "time": 44.081510718750245,
          "velocity": 0.7952755905511811,
          "duration": 0.1358695312500089
        },
        {
          "name": "C#3",
          "midi": 49,
          "time": 44.081510718750245,
          "velocity": 0.6692913385826772,
          "duration": 0.38586946875000905
        },
        {
          "name": "A4",
          "midi": 69,
          "time": 44.08694550000025,
          "velocity": 0.8740157480314961,
          "duration": 0.21195646875000307
        },
        {
          "name": "G#3",
          "midi": 56,
          "time": 44.31520631250025,
          "velocity": 0.8503937007874016,
          "duration": 0.05434781250000498
        },
        {
          "name": "F#1",
          "midi": 30,
          "time": 44.34238021875025,
          "velocity": 0.952755905511811,
          "duration": 0.16304343750000072
        },
        {
          "name": "G#3",
          "midi": 56,
          "time": 44.34238021875025,
          "velocity": 0.905511811023622,
          "duration": 0.24456515624999753
        },
        {
          "name": "A4",
          "midi": 69,
          "time": 44.34781500000025,
          "velocity": 0.8740157480314961,
          "duration": 0.27173906250000357
        },
        {
          "name": "E2",
          "midi": 40,
          "time": 44.34781500000025,
          "velocity": 0.9291338582677166,
          "duration": 0.005434781250002629
        },
        {
          "name": "C#3",
          "midi": 49,
          "time": 44.57607581250025,
          "velocity": 0.7086614173228346,
          "duration": 0.05434781250000498
        },
        {
          "name": "F#1",
          "midi": 30,
          "time": 44.60324971875025,
          "velocity": 0.7795275590551181,
          "duration": 0.15217387500000257
        },
        {
          "name": "C#3",
          "midi": 49,
          "time": 44.60324971875025,
          "velocity": 0.7637795275590551,
          "duration": 0.24456515624999753
        },
        {
          "name": "C2",
          "midi": 36,
          "time": 44.60868450000025,
          "velocity": 0.5669291338582677,
          "duration": 0.005434781250002629
        },
        {
          "name": "C#5",
          "midi": 73,
          "time": 44.630423625000255,
          "velocity": 0.905511811023622,
          "duration": 0.4728259687500014
        },
        {
          "name": "A3",
          "midi": 57,
          "time": 44.83694531250025,
          "velocity": 0.7952755905511811,
          "duration": 0.05434781250000498
        },
        {
          "name": "F#1",
          "midi": 30,
          "time": 44.86411921875025,
          "velocity": 0.952755905511811,
          "duration": 0.16847821875000335
        },
        {
          "name": "A3",
          "midi": 57,
          "time": 44.86411921875025,
          "velocity": 0.8503937007874016,
          "duration": 0.2554347187500099
        },
        {
          "name": "C2",
          "midi": 36,
          "time": 44.86955400000025,
          "velocity": 0.8740157480314961,
          "duration": 0.005434781250002629
        },
        {
          "name": "G#3",
          "midi": 56,
          "time": 45.09781481250025,
          "velocity": 0.7716535433070866,
          "duration": 0.05434781250000498
        },
        {
          "name": "F#1",
          "midi": 30,
          "time": 45.12498871875026,
          "velocity": 0.889763779527559,
          "duration": 0.14673909374999994
        },
        {
          "name": "G#3",
          "midi": 56,
          "time": 45.12498871875026,
          "velocity": 0.8267716535433071,
          "duration": 0.4728259687500014
        },
        {
          "name": "D5",
          "midi": 74,
          "time": 45.13585828125026,
          "velocity": 0.8188976377952756,
          "duration": 0.4945650937500048
        },
        {
          "name": "C#3",
          "midi": 49,
          "time": 45.35868431250026,
          "velocity": 0.7165354330708661,
          "duration": 0.05434781250000498
        },
        {
          "name": "F#1",
          "midi": 30,
          "time": 45.38585821875026,
          "velocity": 0.952755905511811,
          "duration": 0.17391300000000598
        },
        {
          "name": "C#3",
          "midi": 49,
          "time": 45.38585821875026,
          "velocity": 0.7716535433070866,
          "duration": 0.24456515625000463
        },
        {
          "name": "E2",
          "midi": 40,
          "time": 45.39129300000026,
          "velocity": 0.9291338582677166,
          "duration": 0.005434781250002629
        },
        {
          "name": "G#3",
          "midi": 56,
          "time": 45.619553812500264,
          "velocity": 0.7874015748031497,
          "duration": 0.05434781250000498
        },
        {
          "name": "F4",
          "midi": 65,
          "time": 45.619553812500264,
          "velocity": 0.6062992125984252,
          "duration": 0.2554347187499957
        },
        {
          "name": "F#1",
          "midi": 30,
          "time": 45.64672771875026,
          "velocity": 0.8976377952755905,
          "duration": 0.10869562500000285
        },
        {
          "name": "G#3",
          "midi": 56,
          "time": 45.64672771875026,
          "velocity": 0.84251968503937,
          "duration": 0.24456515624999753
        },
        {
          "name": "A4",
          "midi": 69,
          "time": 45.66846684375027,
          "velocity": 0.7874015748031497,
          "duration": 0.3369564375000067
        },
        {
          "name": "D3",
          "midi": 50,
          "time": 45.88585809375026,
          "velocity": 0.9212598425196851,
          "duration": 0.05434781250001208
        },
        {
          "name": "C2",
          "midi": 36,
          "time": 45.913032000000264,
          "velocity": 0.8503937007874016,
          "duration": 0.005434781250002629
        },
        {
          "name": "D3",
          "midi": 50,
          "time": 45.913032000000264,
          "velocity": 0.9763779527559056,
          "duration": 0.7771737187500136
        },
        {
          "name": "D2",
          "midi": 38,
          "time": 45.91846678125027,
          "velocity": 0.952755905511811,
          "duration": 0.14130431250000441
        },
        {
          "name": "A4",
          "midi": 69,
          "time": 46.14129281250027,
          "velocity": 0.7874015748031497,
          "duration": 0.239130375000002
        },
        {
          "name": "A3",
          "midi": 57,
          "time": 46.14129281250027,
          "velocity": 0.6141732283464567,
          "duration": 0.05434781249999787
        },
        {
          "name": "D2",
          "midi": 38,
          "time": 46.16846671875027,
          "velocity": 0.8661417322834646,
          "duration": 0.1793477812500015
        },
        {
          "name": "A3",
          "midi": 57,
          "time": 46.16846671875027,
          "velocity": 0.6692913385826772,
          "duration": 0.5163042187500082
        },
        {
          "name": "E4",
          "midi": 64,
          "time": 46.40216231250027,
          "velocity": 0.7952755905511811,
          "duration": 0.05434781250000498
        },
        {
          "name": "A4",
          "midi": 69,
          "time": 46.41303187500027,
          "velocity": 0.8740157480314961,
          "duration": 0.239130375000002
        },
        {
          "name": "E4",
          "midi": 64,
          "time": 46.42933621875027,
          "velocity": 0.8503937007874016,
          "duration": 0.38586946875001615
        },
        {
          "name": "E2",
          "midi": 40,
          "time": 46.434771000000275,
          "velocity": 0.9291338582677166,
          "duration": 0.005434781250002629
        },
        {
          "name": "D2",
          "midi": 38,
          "time": 46.434771000000275,
          "velocity": 0.952755905511811,
          "duration": 0.1793477812500015
        },
        {
          "name": "A3",
          "midi": 57,
          "time": 46.66303181250027,
          "velocity": 0.7086614173228346,
          "duration": 0.05434781250001208
        },
        {
          "name": "D3",
          "midi": 50,
          "time": 46.668466593750274,
          "velocity": 0.7401574803149606,
          "duration": 0.05434781250001208
        },
        {
          "name": "D5",
          "midi": 74,
          "time": 46.67933615625027,
          "velocity": 0.8503937007874016,
          "duration": 0.48369553125001374
        },
        {
          "name": "A3",
          "midi": 57,
          "time": 46.69020571875028,
          "velocity": 0.7637795275590551,
          "duration": 0.48369553125000664
        },
        {
          "name": "C2",
          "midi": 36,
          "time": 46.69564050000028,
          "velocity": 0.6377952755905512,
          "duration": 0.005434781250002629
        },
        {
          "name": "D3",
          "midi": 50,
          "time": 46.69564050000028,
          "velocity": 0.7952755905511811,
          "duration": 0.7771737187499994
        },
        {
          "name": "D2",
          "midi": 38,
          "time": 46.70107528125028,
          "velocity": 0.8031496062992126,
          "duration": 0.15217387500000257
        },
        {
          "name": "D4",
          "midi": 62,
          "time": 46.923901312500284,
          "velocity": 0.7952755905511811,
          "duration": 0.05434781250000498
        },
        {
          "name": "D2",
          "midi": 38,
          "time": 46.95107521875028,
          "velocity": 0.952755905511811,
          "duration": 0.16847821875000335
        },
        {
          "name": "D4",
          "midi": 62,
          "time": 46.95107521875028,
          "velocity": 0.8503937007874016,
          "duration": 0.38586946874999484
        },
        {
          "name": "C2",
          "midi": 36,
          "time": 46.956510000000286,
          "velocity": 0.8740157480314961,
          "duration": 0.005434781250002629
        },
        {
          "name": "A3",
          "midi": 57,
          "time": 47.18477081250028,
          "velocity": 0.7716535433070866,
          "duration": 0.05434781249999787
        },
        {
          "name": "C#5",
          "midi": 73,
          "time": 47.20107515625028,
          "velocity": 0.84251968503937,
          "duration": 0.4782607500000111
        },
        {
          "name": "D2",
          "midi": 38,
          "time": 47.21194471875028,
          "velocity": 0.8031496062992126,
          "duration": 0.16304343749999362
        },
        {
          "name": "A3",
          "midi": 57,
          "time": 47.21194471875028,
          "velocity": 0.8267716535433071,
          "duration": 0.38586946875000905
        },
        {
          "name": "D4",
          "midi": 62,
          "time": 47.451075093750276,
          "velocity": 0.5669291338582677,
          "duration": 0.05434781250001208
        },
        {
          "name": "D3",
          "midi": 50,
          "time": 47.451075093750276,
          "velocity": 0.7165354330708661,
          "duration": 0.05434781250001208
        },
        {
          "name": "D2",
          "midi": 38,
          "time": 47.47281421875028,
          "velocity": 0.952755905511811,
          "duration": 0.1576086562500123
        },
        {
          "name": "E2",
          "midi": 40,
          "time": 47.47824900000028,
          "velocity": 0.9291338582677166,
          "duration": 0.005434781250002629
        },
        {
          "name": "D4",
          "midi": 62,
          "time": 47.47824900000028,
          "velocity": 0.6220472440944882,
          "duration": 0.38586946875000905
        },
        {
          "name": "D3",
          "midi": 50,
          "time": 47.47824900000028,
          "velocity": 0.7716535433070866,
          "duration": 0.5163042187500153
        },
        {
          "name": "A3",
          "midi": 57,
          "time": 47.70650981250029,
          "velocity": 0.7874015748031497,
          "duration": 0.05434781249999787
        },
        {
          "name": "E2",
          "midi": 40,
          "time": 47.73368371875029,
          "velocity": 0.9212598425196851,
          "duration": 0.34239121875001644
        },
        {
          "name": "A3",
          "midi": 57,
          "time": 47.73368371875029,
          "velocity": 0.84251968503937,
          "duration": 0.24456515625000463
        },
        {
          "name": "B4",
          "midi": 71,
          "time": 47.74455328125029,
          "velocity": 0.8188976377952756,
          "duration": 0.36413034375001985
        },
        {
          "name": "E3",
          "midi": 52,
          "time": 47.972814093750294,
          "velocity": 0.9212598425196851,
          "duration": 0.05434781250001208
        },
        {
          "name": "C2",
          "midi": 36,
          "time": 47.9999880000003,
          "velocity": 0.8740157480314961,
          "duration": 0.005434781250002629
        },
        {
          "name": "E3",
          "midi": 52,
          "time": 47.9999880000003,
          "velocity": 0.8976377952755905,
          "duration": 0.7663041562500155
        },
        {
          "name": "B3",
          "midi": 59,
          "time": 48.22824881250031,
          "velocity": 0.6141732283464567,
          "duration": 0.05434781249999787
        },
        {
          "name": "B4",
          "midi": 71,
          "time": 48.23911837500031,
          "velocity": 0.8188976377952756,
          "duration": 0.23369559374999938
        },
        {
          "name": "E2",
          "midi": 40,
          "time": 48.25542271875031,
          "velocity": 0.8976377952755905,
          "duration": 0.1576086562499981
        },
        {
          "name": "B3",
          "midi": 59,
          "time": 48.25542271875031,
          "velocity": 0.6692913385826772,
          "duration": 0.38586946875000194
        },
        {
          "name": "F#4",
          "midi": 66,
          "time": 48.48911831250031,
          "velocity": 0.8503937007874016,
          "duration": 0.05434781250000498
        },
        {
          "name": "A4",
          "midi": 69,
          "time": 48.49998787500031,
          "velocity": 0.7952755905511811,
          "duration": 0.22826081250000385
        },
        {
          "name": "E2",
          "midi": 40,
          "time": 48.51629221875031,
          "velocity": 0.8188976377952756,
          "duration": 0.010869562500005259
        },
        {
          "name": "F#4",
          "midi": 66,
          "time": 48.51629221875031,
          "velocity": 0.7637795275590551,
          "duration": 0.38586946875001615
        },
        {
          "name": "E2",
          "midi": 40,
          "time": 48.52172700000031,
          "velocity": 0.9291338582677166,
          "duration": 0.16304343750000072
        },
        {
          "name": "C#5",
          "midi": 73,
          "time": 48.749987812500315,
          "velocity": 0.8267716535433071,
          "duration": 0.4999998750000145
        },
        {
          "name": "B3",
          "midi": 59,
          "time": 48.749987812500315,
          "velocity": 0.7086614173228346,
          "duration": 0.05434781250000498
        },
        {
          "name": "E3",
          "midi": 52,
          "time": 48.75542259375032,
          "velocity": 0.7480314960629921,
          "duration": 0.05434781250000498
        },
        {
          "name": "E2",
          "midi": 40,
          "time": 48.777161718750314,
          "velocity": 0.8661417322834646,
          "duration": 0.1576086562500123
        },
        {
          "name": "B3",
          "midi": 59,
          "time": 48.777161718750314,
          "velocity": 0.7637795275590551,
          "duration": 0.38586946875001615
        },
        {
          "name": "C2",
          "midi": 36,
          "time": 48.78259650000032,
          "velocity": 0.5984251968503937,
          "duration": 0.005434781250002629
        },
        {
          "name": "E3",
          "midi": 52,
          "time": 48.78259650000032,
          "velocity": 0.8031496062992126,
          "duration": 0.7336954687499997
        },
        {
          "name": "E4",
          "midi": 64,
          "time": 49.01085731250033,
          "velocity": 0.7952755905511811,
          "duration": 0.05434781250000498
        },
        {
          "name": "E2",
          "midi": 40,
          "time": 49.038031218750326,
          "velocity": 0.8661417322834646,
          "duration": 0.1793477812500015
        },
        {
          "name": "E4",
          "midi": 64,
          "time": 49.038031218750326,
          "velocity": 0.8503937007874016,
          "duration": 0.38586946874999484
        },
        {
          "name": "C2",
          "midi": 36,
          "time": 49.04346600000033,
          "velocity": 0.8661417322834646,
          "duration": 0.005434781250002629
        },
        {
          "name": "A4",
          "midi": 69,
          "time": 49.26085725000033,
          "velocity": 0.7401574803149606,
          "duration": 0.5597824687499937
        },
        {
          "name": "B3",
          "midi": 59,
          "time": 49.271726812500326,
          "velocity": 0.7716535433070866,
          "duration": 0.05434781249999787
        },
        {
          "name": "E2",
          "midi": 40,
          "time": 49.298900718750325,
          "velocity": 0.7716535433070866,
          "duration": 0.1793477812499944
        },
        {
          "name": "B3",
          "midi": 59,
          "time": 49.298900718750325,
          "velocity": 0.7795275590551181,
          "duration": 0.7771737187499994
        },
        {
          "name": "E3",
          "midi": 52,
          "time": 49.53259631250032,
          "velocity": 0.7165354330708661,
          "duration": 0.05434781250000498
        },
        {
          "name": "E2",
          "midi": 40,
          "time": 49.559770218750316,
          "velocity": 0.8818897637795275,
          "duration": 0.010869562500005259
        },
        {
          "name": "E3",
          "midi": 52,
          "time": 49.559770218750316,
          "velocity": 0.7007874015748031,
          "duration": 0.24456515625000463
        },
        {
          "name": "E2",
          "midi": 40,
          "time": 49.56520500000032,
          "velocity": 0.9291338582677166,
          "duration": 0.17391300000000598
        },
        {
          "name": "E4",
          "midi": 64,
          "time": 49.79346581250032,
          "velocity": 0.7874015748031497,
          "duration": 0.05434781249999787
        },
        {
          "name": "F4",
          "midi": 65,
          "time": 49.79346581250032,
          "velocity": 0.6062992125984252,
          "duration": 0.2554347187500028
        },
        {
          "name": "E2",
          "midi": 40,
          "time": 49.82063971875032,
          "velocity": 0.8503937007874016,
          "duration": 0.16304343750000072
        },
        {
          "name": "E4",
          "midi": 64,
          "time": 49.82063971875032,
          "velocity": 0.6692913385826772,
          "duration": 0.2554347187500028
        },
        {
          "name": "A4",
          "midi": 69,
          "time": 49.869552750000324,
          "velocity": 0.6850393700787402,
          "duration": 1.3260866250000305
        },
        {
          "name": "A2",
          "midi": 45,
          "time": 50.05977009375032,
          "velocity": 0.9212598425196851,
          "duration": 0.05434781250001208
        },
        {
          "name": "A1",
          "midi": 33,
          "time": 50.08150921875033,
          "velocity": 0.8976377952755905,
          "duration": 0.1358695312500089
        },
        {
          "name": "C2",
          "midi": 36,
          "time": 50.08694400000033,
          "velocity": 0.8740157480314961,
          "duration": 0.005434781250002629
        },
        {
          "name": "A2",
          "midi": 45,
          "time": 50.08694400000033,
          "velocity": 0.9763779527559056,
          "duration": 1.9673908125000352
        },
        {
          "name": "E3",
          "midi": 52,
          "time": 50.31520481250033,
          "velocity": 0.6141732283464567,
          "duration": 0.05434781249999787
        },
        {
          "name": "A1",
          "midi": 33,
          "time": 50.34237871875033,
          "velocity": 0.8661417322834646,
          "duration": 0.1793477812500015
        },
        {
          "name": "E3",
          "midi": 52,
          "time": 50.34237871875033,
          "velocity": 0.6692913385826772,
          "duration": 0.38586946875000194
        },
        {
          "name": "B3",
          "midi": 59,
          "time": 50.57607431250033,
          "velocity": 0.8503937007874016,
          "duration": 0.05434781250000498
        },
        {
          "name": "B3",
          "midi": 59,
          "time": 50.60324821875033,
          "velocity": 0.905511811023622,
          "duration": 0.2554347187500099
        },
        {
          "name": "E2",
          "midi": 40,
          "time": 50.60868300000033,
          "velocity": 0.9291338582677166,
          "duration": 0.005434781250002629
        },
        {
          "name": "A1",
          "midi": 33,
          "time": 50.60868300000033,
          "velocity": 0.9291338582677166,
          "duration": 0.1793477812500015
        },
        {
          "name": "E3",
          "midi": 52,
          "time": 50.83694381250034,
          "velocity": 0.7086614173228346,
          "duration": 0.05434781250001208
        },
        {
          "name": "E3",
          "midi": 52,
          "time": 50.86411771875034,
          "velocity": 0.7637795275590551,
          "duration": 0.6467389687500145
        },
        {
          "name": "C2",
          "midi": 36,
          "time": 50.869552500000346,
          "velocity": 0.5905511811023622,
          "duration": 0.005434781250002629
        },
        {
          "name": "A1",
          "midi": 33,
          "time": 50.869552500000346,
          "velocity": 0.8188976377952756,
          "duration": 0.16847821875000335
        },
        {
          "name": "C#4",
          "midi": 61,
          "time": 51.09781331250035,
          "velocity": 0.7952755905511811,
          "duration": 0.05434781250000498
        },
        {
          "name": "C#4",
          "midi": 61,
          "time": 51.12498721875035,
          "velocity": 0.8503937007874016,
          "duration": 0.2554347187500099
        },
        {
          "name": "C2",
          "midi": 36,
          "time": 51.13042200000035,
          "velocity": 0.8740157480314961,
          "duration": 0.005434781250002629
        },
        {
          "name": "A1",
          "midi": 33,
          "time": 51.13042200000035,
          "velocity": 0.952755905511811,
          "duration": 0.1576086562500052
        },
        {
          "name": "B3",
          "midi": 59,
          "time": 51.358682812500355,
          "velocity": 0.7716535433070866,
          "duration": 0.05434781250000498
        },
        {
          "name": "A1",
          "midi": 33,
          "time": 51.38585671875036,
          "velocity": 0.8188976377952756,
          "duration": 0.14673909374999994
        },
        {
          "name": "B3",
          "midi": 59,
          "time": 51.38585671875036,
          "velocity": 0.8267716535433071,
          "duration": 0.48913031250000216
        },
        {
          "name": "E3",
          "midi": 52,
          "time": 51.61955231250036,
          "velocity": 0.7165354330708661,
          "duration": 0.05434781250000498
        },
        {
          "name": "E3",
          "midi": 52,
          "time": 51.64672621875036,
          "velocity": 0.7716535433070866,
          "duration": 0.38586946875000194
        },
        {
          "name": "E2",
          "midi": 40,
          "time": 51.65216100000036,
          "velocity": 0.9291338582677166,
          "duration": 0.005434781250002629
        },
        {
          "name": "A1",
          "midi": 33,
          "time": 51.65216100000036,
          "velocity": 0.952755905511811,
          "duration": 0.16304343750000072
        },
        {
          "name": "B3",
          "midi": 59,
          "time": 51.880421812500366,
          "velocity": 0.7874015748031497,
          "duration": 0.05434781249999787
        },
        {
          "name": "A1",
          "midi": 33,
          "time": 51.907595718750365,
          "velocity": 0.8818897637795275,
          "duration": 0.1413043124999973
        },
        {
          "name": "B3",
          "midi": 59,
          "time": 51.907595718750365,
          "velocity": 0.84251968503937,
          "duration": 0.24456515625000463
        },
        {
          "name": "A2",
          "midi": 45,
          "time": 52.14672609375037,
          "velocity": 0.9212598425196851,
          "duration": 0.05434781250001208
        },
        {
          "name": "C2",
          "midi": 36,
          "time": 52.17390000000037,
          "velocity": 0.905511811023622,
          "duration": 0.005434781250002629
        },
        {
          "name": "A1",
          "midi": 33,
          "time": 52.17390000000037,
          "velocity": 0.952755905511811,
          "duration": 0.15217387500000257
        },
        {
          "name": "A2",
          "midi": 45,
          "time": 52.17390000000037,
          "velocity": 0.9763779527559056,
          "duration": 1.9673908125000565
        },
        {
          "name": "E3",
          "midi": 52,
          "time": 52.40216081250038,
          "velocity": 0.6141732283464567,
          "duration": 0.05434781249999787
        },
        {
          "name": "E3",
          "midi": 52,
          "time": 52.429334718750376,
          "velocity": 0.6692913385826772,
          "duration": 0.38586946875000905
        },
        {
          "name": "A1",
          "midi": 33,
          "time": 52.440204281250374,
          "velocity": 0.8031496062992126,
          "duration": 0.14673909374999994
        },
        {
          "name": "B3",
          "midi": 59,
          "time": 52.663030312500375,
          "velocity": 0.8503937007874016,
          "duration": 0.05434781250001208
        },
        {
          "name": "E2",
          "midi": 40,
          "time": 52.68476943750038,
          "velocity": 0.6456692913385826,
          "duration": 0.005434781250002629
        },
        {
          "name": "B3",
          "midi": 59,
          "time": 52.69020421875038,
          "velocity": 0.905511811023622,
          "duration": 0.24456515625000463
        },
        {
          "name": "E2",
          "midi": 40,
          "time": 52.695639000000384,
          "velocity": 0.9291338582677166,
          "duration": 0.005434781250002629
        },
        {
          "name": "A1",
          "midi": 33,
          "time": 52.695639000000384,
          "velocity": 0.952755905511811,
          "duration": 0.16847821875000335
        },
        {
          "name": "A4",
          "midi": 69,
          "time": 52.711943343750384,
          "velocity": 0.9212598425196851,
          "duration": 0.44565206250000955
        },
        {
          "name": "E3",
          "midi": 52,
          "time": 52.92389981250039,
          "velocity": 0.7086614173228346,
          "duration": 0.05434781250000498
        },
        {
          "name": "E3",
          "midi": 52,
          "time": 52.951073718750386,
          "velocity": 0.7637795275590551,
          "duration": 0.5163042187500224
        },
        {
          "name": "C2",
          "midi": 36,
          "time": 52.95650850000039,
          "velocity": 0.5748031496062992,
          "duration": 0.005434781250002629
        },
        {
          "name": "A1",
          "midi": 33,
          "time": 52.95650850000039,
          "velocity": 0.7952755905511811,
          "duration": 0.1576086562500052
        },
        {
          "name": "C#5",
          "midi": 73,
          "time": 53.1793345312504,
          "velocity": 0.905511811023622,
          "duration": 0.4728259687500227
        },
        {
          "name": "C#4",
          "midi": 61,
          "time": 53.1847693125004,
          "velocity": 0.7952755905511811,
          "duration": 0.05434781250000498
        },
        {
          "name": "A1",
          "midi": 33,
          "time": 53.2119432187504,
          "velocity": 0.952755905511811,
          "duration": 0.16304343750000783
        },
        {
          "name": "C#4",
          "midi": 61,
          "time": 53.2119432187504,
          "velocity": 0.8503937007874016,
          "duration": 0.2554347187500099
        },
        {
          "name": "C2",
          "midi": 36,
          "time": 53.2173780000004,
          "velocity": 0.8582677165354331,
          "duration": 0.005434781250002629
        },
        {
          "name": "G2",
          "midi": 43,
          "time": 53.222812781250404,
          "velocity": 0.4566929133858268,
          "duration": 0.005434781250002629
        },
        {
          "name": "F2",
          "midi": 41,
          "time": 53.222812781250404,
          "velocity": 0.4566929133858268,
          "duration": 0.005434781250002629
        },
        {
          "name": "B3",
          "midi": 59,
          "time": 53.445638812500405,
          "velocity": 0.7716535433070866,
          "duration": 0.05434781250001208
        },
        {
          "name": "F2",
          "midi": 41,
          "time": 53.47281271875041,
          "velocity": 0.6220472440944882,
          "duration": 0.005434781250002629
        },
        {
          "name": "G2",
          "midi": 43,
          "time": 53.47281271875041,
          "velocity": 0.6220472440944882,
          "duration": 0.005434781250002629
        },
        {
          "name": "B3",
          "midi": 59,
          "time": 53.47281271875041,
          "velocity": 0.8267716535433071,
          "duration": 0.4728259687500156
        },
        {
          "name": "A1",
          "midi": 33,
          "time": 53.48368228125042,
          "velocity": 0.8346456692913385,
          "duration": 0.14673909374999994
        },
        {
          "name": "E3",
          "midi": 52,
          "time": 53.70650831250042,
          "velocity": 0.7165354330708661,
          "duration": 0.05434781250001208
        },
        {
          "name": "E5",
          "midi": 76,
          "time": 53.72281265625042,
          "velocity": 0.905511811023622,
          "duration": 0.26630428125000805
        },
        {
          "name": "E2",
          "midi": 40,
          "time": 53.72281265625042,
          "velocity": 0.6299212598425197,
          "duration": 0.005434781250002629
        },
        {
          "name": "E3",
          "midi": 52,
          "time": 53.733682218750424,
          "velocity": 0.7716535433070866,
          "duration": 0.24456515625000463
        },
        {
          "name": "E2",
          "midi": 40,
          "time": 53.73911700000043,
          "velocity": 0.9291338582677166,
          "duration": 0.005434781250002629
        },
        {
          "name": "G2",
          "midi": 43,
          "time": 53.73911700000043,
          "velocity": 0.8267716535433071,
          "duration": 0.005434781250002629
        },
        {
          "name": "F2",
          "midi": 41,
          "time": 53.73911700000043,
          "velocity": 0.8267716535433071,
          "duration": 0.005434781250002629
        },
        {
          "name": "A1",
          "midi": 33,
          "time": 53.73911700000043,
          "velocity": 0.8818897637795275,
          "duration": 0.12499996875000363
        },
        {
          "name": "B3",
          "midi": 59,
          "time": 53.96737781250043,
          "velocity": 0.7874015748031497,
          "duration": 0.05434781249999787
        },
        {
          "name": "D5",
          "midi": 74,
          "time": 53.98911693750043,
          "velocity": 0.6850393700787402,
          "duration": 0.23369559374999938
        },
        {
          "name": "C#2",
          "midi": 37,
          "time": 53.99455171875043,
          "velocity": 0.9448818897637795,
          "duration": 0.19021734374999966
        },
        {
          "name": "B3",
          "midi": 59,
          "time": 53.99455171875043,
          "velocity": 0.84251968503937,
          "duration": 0.24456515624999753
        },
        {
          "name": "D3",
          "midi": 50,
          "time": 54.233682093750424,
          "velocity": 0.9212598425196851,
          "duration": 0.05434781250001208
        },
        {
          "name": "F#5",
          "midi": 78,
          "time": 54.23911687500043,
          "velocity": 0.9212598425196851,
          "duration": 1.6467387187500577
        },
        {
          "name": "C2",
          "midi": 36,
          "time": 54.26085600000043,
          "velocity": 0.8818897637795275,
          "duration": 0.005434781250002629
        },
        {
          "name": "D2",
          "midi": 38,
          "time": 54.26085600000043,
          "velocity": 0.9291338582677166,
          "duration": 0.15217387500000257
        },
        {
          "name": "D3",
          "midi": 50,
          "time": 54.26085600000043,
          "velocity": 0.9763779527559056,
          "duration": 1.5163039687500373
        },
        {
          "name": "F#4",
          "midi": 66,
          "time": 54.26085600000043,
          "velocity": 0.5511811023622047,
          "duration": 4.168477218750127
        },
        {
          "name": "D4",
          "midi": 62,
          "time": 54.26085600000043,
          "velocity": 0.5511811023622047,
          "duration": 1.065217125000025
        },
        {
          "name": "E4",
          "midi": 64,
          "time": 54.26085600000043,
          "velocity": 0.5511811023622047,
          "duration": 0.5434781250000071
        },
        {
          "name": "A4",
          "midi": 69,
          "time": 54.26085600000043,
          "velocity": 0.5511811023622047,
          "duration": 4.168477218750127
        },
        {
          "name": "F#2",
          "midi": 42,
          "time": 54.26629078125043,
          "velocity": 0.8582677165354331,
          "duration": 0.005434781250002629
        },
        {
          "name": "A3",
          "midi": 57,
          "time": 54.489116812500434,
          "velocity": 0.6141732283464567,
          "duration": 0.05434781249999787
        },
        {
          "name": "D2",
          "midi": 38,
          "time": 54.51629071875043,
          "velocity": 0.7952755905511811,
          "duration": 0.17391299999999887
        },
        {
          "name": "A3",
          "midi": 57,
          "time": 54.51629071875043,
          "velocity": 0.6692913385826772,
          "duration": 0.38586946875000194
        },
        {
          "name": "F#2",
          "midi": 42,
          "time": 54.52716028125043,
          "velocity": 0.30708661417322836,
          "duration": 0.005434781250002629
        },
        {
          "name": "E4",
          "midi": 64,
          "time": 54.74998631250043,
          "velocity": 0.8503937007874016,
          "duration": 0.5434781250000142
        },
        {
          "name": "D2",
          "midi": 38,
          "time": 54.77716021875043,
          "velocity": 0.8818897637795275,
          "duration": 0.16847821875000335
        },
        {
          "name": "E4",
          "midi": 64,
          "time": 54.77716021875043,
          "velocity": 0.905511811023622,
          "duration": 3.6521730000001256
        },
        {
          "name": "E2",
          "midi": 40,
          "time": 54.782595000000434,
          "velocity": 0.9291338582677166,
          "duration": 0.005434781250002629
        },
        {
          "name": "F#2",
          "midi": 42,
          "time": 54.78802978125044,
          "velocity": 0.7480314960629921,
          "duration": 0.005434781250002629
        },
        {
          "name": "A3",
          "midi": 57,
          "time": 55.01085581250044,
          "velocity": 0.7086614173228346,
          "duration": 0.05434781250000498
        },
        {
          "name": "A3",
          "midi": 57,
          "time": 55.03802971875044,
          "velocity": 0.7637795275590551,
          "duration": 0.5163042187500224
        },
        {
          "name": "C2",
          "midi": 36,
          "time": 55.04346450000044,
          "velocity": 0.6377952755905512,
          "duration": 0.005434781250002629
        },
        {
          "name": "F#2",
          "midi": 42,
          "time": 55.04889928125044,
          "velocity": 0.4094488188976378,
          "duration": 0.005434781250002629
        },
        {
          "name": "D2",
          "midi": 38,
          "time": 55.04889928125044,
          "velocity": 0.8503937007874016,
          "duration": 0.15217387500000257
        },
        {
          "name": "D4",
          "midi": 62,
          "time": 55.27172531250044,
          "velocity": 0.7952755905511811,
          "duration": 0.28260862500001593
        },
        {
          "name": "F#2",
          "midi": 42,
          "time": 55.29889921875045,
          "velocity": 0.7480314960629921,
          "duration": 0.005434781250002629
        },
        {
          "name": "D2",
          "midi": 38,
          "time": 55.29889921875045,
          "velocity": 0.9133858267716536,
          "duration": 0.1576086562500052
        },
        {
          "name": "D4",
          "midi": 62,
          "time": 55.29889921875045,
          "velocity": 0.8503937007874016,
          "duration": 1.592390906250067
        },
        {
          "name": "C2",
          "midi": 36,
          "time": 55.30433400000045,
          "velocity": 0.8582677165354331,
          "duration": 0.005434781250002629
        },
        {
          "name": "A3",
          "midi": 57,
          "time": 55.532594812500456,
          "velocity": 0.7716535433070866,
          "duration": 0.05434781250001208
        },
        {
          "name": "F#2",
          "midi": 42,
          "time": 55.55976871875046,
          "velocity": 0.49606299212598426,
          "duration": 0.005434781250002629
        },
        {
          "name": "D2",
          "midi": 38,
          "time": 55.55976871875046,
          "velocity": 0.8188976377952756,
          "duration": 0.16304343750000783
        },
        {
          "name": "A3",
          "midi": 57,
          "time": 55.55976871875046,
          "velocity": 0.8267716535433071,
          "duration": 0.4891303125000235
        },
        {
          "name": "D3",
          "midi": 50,
          "time": 55.79889909375047,
          "velocity": 0.7165354330708661,
          "duration": 0.05434781250001208
        },
        {
          "name": "F#2",
          "midi": 42,
          "time": 55.820638218750474,
          "velocity": 0.7716535433070866,
          "duration": 0.005434781250002629
        },
        {
          "name": "D2",
          "midi": 38,
          "time": 55.820638218750474,
          "velocity": 0.9291338582677166,
          "duration": 0.1358695312500089
        },
        {
          "name": "D3",
          "midi": 50,
          "time": 55.820638218750474,
          "velocity": 0.7716535433070866,
          "duration": 0.255434718750017
        },
        {
          "name": "E2",
          "midi": 40,
          "time": 55.82607300000048,
          "velocity": 0.9291338582677166,
          "duration": 0.005434781250002629
        },
        {
          "name": "D3",
          "midi": 50,
          "time": 56.05433381250049,
          "velocity": 0.7874015748031497,
          "duration": 0.05434781250001208
        },
        {
          "name": "F#2",
          "midi": 42,
          "time": 56.081507718750494,
          "velocity": 0.4251968503937008,
          "duration": 0.005434781250002629
        },
        {
          "name": "D2",
          "midi": 38,
          "time": 56.081507718750494,
          "velocity": 0.7795275590551181,
          "duration": 0.15217387500000257
        },
        {
          "name": "D3",
          "midi": 50,
          "time": 56.081507718750494,
          "velocity": 0.84251968503937,
          "duration": 0.24456515625000463
        },
        {
          "name": "D3",
          "midi": 50,
          "time": 56.320638093750496,
          "velocity": 0.9212598425196851,
          "duration": 0.05434781250001208
        },
        {
          "name": "F#2",
          "midi": 42,
          "time": 56.3423772187505,
          "velocity": 0.8661417322834646,
          "duration": 0.005434781250002629
        },
        {
          "name": "D2",
          "midi": 38,
          "time": 56.3423772187505,
          "velocity": 0.9133858267716536,
          "duration": 0.1576086562500052
        },
        {
          "name": "C2",
          "midi": 36,
          "time": 56.3478120000005,
          "velocity": 0.8818897637795275,
          "duration": 0.005434781250002629
        },
        {
          "name": "D3",
          "midi": 50,
          "time": 56.3478120000005,
          "velocity": 0.6062992125984252,
          "duration": 0.7771737187500136
        },
        {
          "name": "A3",
          "midi": 57,
          "time": 56.576072812500506,
          "velocity": 0.6141732283464567,
          "duration": 0.05434781250000498
        },
        {
          "name": "F#2",
          "midi": 42,
          "time": 56.603246718750505,
          "velocity": 0.4566929133858268,
          "duration": 0.005434781250002629
        },
        {
          "name": "C2",
          "midi": 36,
          "time": 56.603246718750505,
          "velocity": 0.8976377952755905,
          "duration": 0.16847821875000335
        },
        {
          "name": "A3",
          "midi": 57,
          "time": 56.603246718750505,
          "velocity": 0.6692913385826772,
          "duration": 0.38586946875000905
        },
        {
          "name": "D4",
          "midi": 62,
          "time": 56.83694231250051,
          "velocity": 0.8503937007874016,
          "duration": 0.27173906250000357
        },
        {
          "name": "F#2",
          "midi": 42,
          "time": 56.86411621875051,
          "velocity": 0.7480314960629921,
          "duration": 0.005434781250002629
        },
        {
          "name": "C2",
          "midi": 36,
          "time": 56.86411621875051,
          "velocity": 0.8503937007874016,
          "duration": 0.18478256250000413
        },
        {
          "name": "D4",
          "midi": 62,
          "time": 56.86411621875051,
          "velocity": 0.905511811023622,
          "duration": 1.5652170000000467
        },
        {
          "name": "F#5",
          "midi": 78,
          "time": 56.86955100000051,
          "velocity": 0.8818897637795275,
          "duration": 0.24456515625000463
        },
        {
          "name": "E2",
          "midi": 40,
          "time": 56.86955100000051,
          "velocity": 0.9291338582677166,
          "duration": 0.005434781250002629
        },
        {
          "name": "A3",
          "midi": 57,
          "time": 57.09781181250052,
          "velocity": 0.7086614173228346,
          "duration": 0.05434781250000498
        },
        {
          "name": "C2",
          "midi": 36,
          "time": 57.124985718750516,
          "velocity": 0.9291338582677166,
          "duration": 0.010869562500005259
        },
        {
          "name": "F#5",
          "midi": 78,
          "time": 57.13042050000052,
          "velocity": 0.7952755905511811,
          "duration": 0.2554347187500028
        },
        {
          "name": "F#2",
          "midi": 42,
          "time": 57.13042050000052,
          "velocity": 0.4015748031496063,
          "duration": 0.005434781250002629
        },
        {
          "name": "C2",
          "midi": 36,
          "time": 57.13042050000052,
          "velocity": 0.6220472440944882,
          "duration": 0.15217387500000257
        },
        {
          "name": "D3",
          "midi": 50,
          "time": 57.13042050000052,
          "velocity": 0.7637795275590551,
          "duration": 0.733695468750021
        },
        {
          "name": "C4",
          "midi": 60,
          "time": 57.35868131250052,
          "velocity": 0.7952755905511811,
          "duration": 0.05434781250000498
        },
        {
          "name": "F#2",
          "midi": 42,
          "time": 57.38585521875052,
          "velocity": 0.7559055118110236,
          "duration": 0.005434781250002629
        },
        {
          "name": "C2",
          "midi": 36,
          "time": 57.38585521875052,
          "velocity": 0.8661417322834646,
          "duration": 0.010869562500005259
        },
        {
          "name": "C4",
          "midi": 60,
          "time": 57.38585521875052,
          "velocity": 0.8503937007874016,
          "duration": 0.2554347187500099
        },
        {
          "name": "C2",
          "midi": 36,
          "time": 57.391290000000524,
          "velocity": 0.8740157480314961,
          "duration": 0.1576086562500052
        },
        {
          "name": "E5",
          "midi": 76,
          "time": 57.40215956250053,
          "velocity": 0.8503937007874016,
          "duration": 0.706521562500015
        },
        {
          "name": "A3",
          "midi": 57,
          "time": 57.61955081250053,
          "velocity": 0.7716535433070866,
          "duration": 0.05434781250001208
        },
        {
          "name": "C2",
          "midi": 36,
          "time": 57.646724718750534,
          "velocity": 0.8976377952755905,
          "duration": 0.16847821875000335
        },
        {
          "name": "A3",
          "midi": 57,
          "time": 57.646724718750534,
          "velocity": 0.8267716535433071,
          "duration": 0.4728259687500085
        },
        {
          "name": "F#2",
          "midi": 42,
          "time": 57.652159500000536,
          "velocity": 0.4409448818897638,
          "duration": 0.005434781250002629
        },
        {
          "name": "D3",
          "midi": 50,
          "time": 57.88042031250054,
          "velocity": 0.7165354330708661,
          "duration": 0.05434781250000498
        },
        {
          "name": "D3",
          "midi": 50,
          "time": 57.90759421875054,
          "velocity": 0.7716535433070866,
          "duration": 0.5163042187500153
        },
        {
          "name": "E2",
          "midi": 40,
          "time": 57.91302900000054,
          "velocity": 0.9291338582677166,
          "duration": 0.005434781250002629
        },
        {
          "name": "F#2",
          "midi": 42,
          "time": 57.91302900000054,
          "velocity": 0.7086614173228346,
          "duration": 0.005434781250002629
        },
        {
          "name": "C2",
          "midi": 36,
          "time": 57.918463781250544,
          "velocity": 0.8346456692913385,
          "duration": 0.1576086562499981
        },
        {
          "name": "A3",
          "midi": 57,
          "time": 58.141289812500546,
          "velocity": 0.7874015748031497,
          "duration": 0.05434781250000498
        },
        {
          "name": "C#2",
          "midi": 37,
          "time": 58.168463718750544,
          "velocity": 0.9212598425196851,
          "duration": 0.1956521250000094
        },
        {
          "name": "A3",
          "midi": 57,
          "time": 58.168463718750544,
          "velocity": 0.7480314960629921,
          "duration": 0.24456515625001174
        },
        {
          "name": "A4",
          "midi": 69,
          "time": 58.17389850000055,
          "velocity": 0.8188976377952756,
          "duration": 0.2554347187500099
        },
        {
          "name": "F#2",
          "midi": 42,
          "time": 58.17389850000055,
          "velocity": 0.4094488188976378,
          "duration": 0.005434781250002629
        },
        {
          "name": "A2",
          "midi": 45,
          "time": 58.407594093750554,
          "velocity": 0.9212598425196851,
          "duration": 0.05434781250001208
        },
        {
          "name": "C#5",
          "midi": 73,
          "time": 58.423898437500554,
          "velocity": 0.84251968503937,
          "duration": 1.6684778437500398
        },
        {
          "name": "A1",
          "midi": 33,
          "time": 58.42933321875056,
          "velocity": 0.8661417322834646,
          "duration": 0.19021734375000676
        },
        {
          "name": "F#2",
          "midi": 42,
          "time": 58.43476800000056,
          "velocity": 0.8976377952755905,
          "duration": 0.005434781250002629
        },
        {
          "name": "C2",
          "midi": 36,
          "time": 58.43476800000056,
          "velocity": 0.8818897637795275,
          "duration": 0.005434781250002629
        },
        {
          "name": "A2",
          "midi": 45,
          "time": 58.43476800000056,
          "velocity": 0.9763779527559056,
          "duration": 1.9673908125000423
        },
        {
          "name": "E4",
          "midi": 64,
          "time": 58.43476800000056,
          "velocity": 0.5748031496062992,
          "duration": 4.168477218750098
        },
        {
          "name": "A4",
          "midi": 69,
          "time": 58.43476800000056,
          "velocity": 0.5748031496062992,
          "duration": 4.168477218750098
        },
        {
          "name": "E3",
          "midi": 52,
          "time": 58.66302881250056,
          "velocity": 0.6141732283464567,
          "duration": 0.05434781250000498
        },
        {
          "name": "E3",
          "midi": 52,
          "time": 58.69020271875056,
          "velocity": 0.6692913385826772,
          "duration": 0.38586946875000905
        },
        {
          "name": "A1",
          "midi": 33,
          "time": 58.695637500000565,
          "velocity": 0.8976377952755905,
          "duration": 0.16304343750000072
        },
        {
          "name": "F#2",
          "midi": 42,
          "time": 58.70107228125057,
          "velocity": 0.4566929133858268,
          "duration": 0.005434781250002629
        },
        {
          "name": "B3",
          "midi": 59,
          "time": 58.92389831250057,
          "velocity": 0.8503937007874016,
          "duration": 0.05434781250000498
        },
        {
          "name": "B3",
          "midi": 59,
          "time": 58.95107221875057,
          "velocity": 0.905511811023622,
          "duration": 0.2554347187500099
        },
        {
          "name": "E2",
          "midi": 40,
          "time": 58.95650700000057,
          "velocity": 0.9291338582677166,
          "duration": 0.005434781250002629
        },
        {
          "name": "A1",
          "midi": 33,
          "time": 58.95650700000057,
          "velocity": 0.8661417322834646,
          "duration": 0.16304343750000072
        },
        {
          "name": "F#2",
          "midi": 42,
          "time": 58.96194178125057,
          "velocity": 0.7244094488188977,
          "duration": 0.005434781250002629
        },
        {
          "name": "E3",
          "midi": 52,
          "time": 59.184767812500574,
          "velocity": 0.7086614173228346,
          "duration": 0.05434781250001208
        },
        {
          "name": "E3",
          "midi": 52,
          "time": 59.21194171875058,
          "velocity": 0.7637795275590551,
          "duration": 0.6467389687500145
        },
        {
          "name": "C2",
          "midi": 36,
          "time": 59.21737650000058,
          "velocity": 0.5905511811023622,
          "duration": 0.005434781250002629
        },
        {
          "name": "F#2",
          "midi": 42,
          "time": 59.222811281250586,
          "velocity": 0.4330708661417323,
          "duration": 0.005434781250002629
        },
        {
          "name": "A1",
          "midi": 33,
          "time": 59.222811281250586,
          "velocity": 0.9133858267716536,
          "duration": 0.15217387499999546
        },
        {
          "name": "C#4",
          "midi": 61,
          "time": 59.44563731250058,
          "velocity": 0.7952755905511811,
          "duration": 0.05434781250000498
        },
        {
          "name": "A1",
          "midi": 33,
          "time": 59.47281121875058,
          "velocity": 0.8503937007874016,
          "duration": 0.1576086562500052
        },
        {
          "name": "C#4",
          "midi": 61,
          "time": 59.47281121875058,
          "velocity": 0.8503937007874016,
          "duration": 0.2554347187500099
        },
        {
          "name": "C2",
          "midi": 36,
          "time": 59.47824600000058,
          "velocity": 0.8818897637795275,
          "duration": 0.005434781250002629
        },
        {
          "name": "F#2",
          "midi": 42,
          "time": 59.483680781250584,
          "velocity": 0.7086614173228346,
          "duration": 0.005434781250002629
        },
        {
          "name": "B3",
          "midi": 59,
          "time": 59.706506812500585,
          "velocity": 0.7716535433070866,
          "duration": 0.05434781250001208
        },
        {
          "name": "F#2",
          "midi": 42,
          "time": 59.73368071875059,
          "velocity": 0.4566929133858268,
          "duration": 0.005434781250002629
        },
        {
          "name": "B3",
          "midi": 59,
          "time": 59.73368071875059,
          "velocity": 0.8267716535433071,
          "duration": 0.48913031250000216
        },
        {
          "name": "A1",
          "midi": 33,
          "time": 59.744550281250596,
          "velocity": 0.952755905511811,
          "duration": 0.15217387499999546
        },
        {
          "name": "E3",
          "midi": 52,
          "time": 59.96737631250059,
          "velocity": 0.7165354330708661,
          "duration": 0.05434781250000498
        },
        {
          "name": "F#2",
          "midi": 42,
          "time": 59.99455021875059,
          "velocity": 0.6299212598425197,
          "duration": 0.005434781250002629
        },
        {
          "name": "E3",
          "midi": 52,
          "time": 59.99455021875059,
          "velocity": 0.7716535433070866,
          "duration": 0.38586946875000905
        },
        {
          "name": "E2",
          "midi": 40,
          "time": 59.99998500000059,
          "velocity": 0.9291338582677166,
          "duration": 0.005434781250002629
        },
        {
          "name": "A1",
          "midi": 33,
          "time": 60.005419781250595,
          "velocity": 0.9133858267716536,
          "duration": 0.1413043124999973
        },
        {
          "name": "B3",
          "midi": 59,
          "time": 60.228245812500596,
          "velocity": 0.7874015748031497,
          "duration": 0.05434781250000498
        },
        {
          "name": "F#2",
          "midi": 42,
          "time": 60.255419718750595,
          "velocity": 0.4094488188976378,
          "duration": 0.005434781250002629
        },
        {
          "name": "B3",
          "midi": 59,
          "time": 60.255419718750595,
          "velocity": 0.84251968503937,
          "duration": 0.24456515625001174
        },
        {
          "name": "A1",
          "midi": 33,
          "time": 60.2608545000006,
          "velocity": 0.952755905511811,
          "duration": 0.13586953125000178
        },
        {
          "name": "A2",
          "midi": 45,
          "time": 60.494550093750604,
          "velocity": 0.9212598425196851,
          "duration": 0.05434781250001208
        },
        {
          "name": "F#2",
          "midi": 42,
          "time": 60.51628921875061,
          "velocity": 0.8976377952755905,
          "duration": 0.005434781250002629
        },
        {
          "name": "A1",
          "midi": 33,
          "time": 60.51628921875061,
          "velocity": 0.8346456692913385,
          "duration": 0.16304343750000783
        },
        {
          "name": "C2",
          "midi": 36,
          "time": 60.52172400000061,
          "velocity": 0.8661417322834646,
          "duration": 0.005434781250002629
        },
        {
          "name": "A2",
          "midi": 45,
          "time": 60.52172400000061,
          "velocity": 0.9763779527559056,
          "duration": 1.9673908125000494
        },
        {
          "name": "E3",
          "midi": 52,
          "time": 60.749984812500614,
          "velocity": 0.6141732283464567,
          "duration": 0.05434781250000498
        },
        {
          "name": "F#2",
          "midi": 42,
          "time": 60.77715871875061,
          "velocity": 0.4409448818897638,
          "duration": 0.005434781250002629
        },
        {
          "name": "A1",
          "midi": 33,
          "time": 60.77715871875061,
          "velocity": 0.9133858267716536,
          "duration": 0.14130431250000441
        },
        {
          "name": "E3",
          "midi": 52,
          "time": 60.77715871875061,
          "velocity": 0.6692913385826772,
          "duration": 0.38586946875000905
        },
        {
          "name": "B3",
          "midi": 59,
          "time": 61.01085431250062,
          "velocity": 0.8503937007874016,
          "duration": 0.05434781250000498
        },
        {
          "name": "A5",
          "midi": 81,
          "time": 61.02172387500062,
          "velocity": 0.9212598425196851,
          "duration": 0.27173906250000357
        },
        {
          "name": "F#2",
          "midi": 42,
          "time": 61.03802821875062,
          "velocity": 0.7007874015748031,
          "duration": 0.005434781250002629
        },
        {
          "name": "A1",
          "midi": 33,
          "time": 61.03802821875062,
          "velocity": 0.8661417322834646,
          "duration": 0.16847821875000335
        },
        {
          "name": "B3",
          "midi": 59,
          "time": 61.03802821875062,
          "velocity": 0.905511811023622,
          "duration": 0.24456515625000463
        },
        {
          "name": "E2",
          "midi": 40,
          "time": 61.04346300000062,
          "velocity": 0.9291338582677166,
          "duration": 0.005434781250002629
        },
        {
          "name": "E3",
          "midi": 52,
          "time": 61.271723812500625,
          "velocity": 0.7086614173228346,
          "duration": 0.05434781250000498
        },
        {
          "name": "F#5",
          "midi": 78,
          "time": 61.29346293750062,
          "velocity": 0.7165354330708661,
          "duration": 0.28804340625001856
        },
        {
          "name": "F#2",
          "midi": 42,
          "time": 61.298897718750624,
          "velocity": 0.4251968503937008,
          "duration": 0.005434781250002629
        },
        {
          "name": "E3",
          "midi": 52,
          "time": 61.298897718750624,
          "velocity": 0.7637795275590551,
          "duration": 0.24456515625000463
        },
        {
          "name": "C2",
          "midi": 36,
          "time": 61.304332500000626,
          "velocity": 0.5669291338582677,
          "duration": 0.005434781250002629
        },
        {
          "name": "A1",
          "midi": 33,
          "time": 61.304332500000626,
          "velocity": 0.9291338582677166,
          "duration": 0.15217387500000257
        },
        {
          "name": "C#4",
          "midi": 61,
          "time": 61.53259331250063,
          "velocity": 0.7952755905511811,
          "duration": 0.05434781250001208
        },
        {
          "name": "A5",
          "midi": 81,
          "time": 61.55976721875063,
          "velocity": 0.84251968503937,
          "duration": 0.4130433750000151
        },
        {
          "name": "A1",
          "midi": 33,
          "time": 61.55976721875063,
          "velocity": 0.8818897637795275,
          "duration": 0.14673909375001415
        },
        {
          "name": "C#4",
          "midi": 61,
          "time": 61.55976721875063,
          "velocity": 0.8503937007874016,
          "duration": 0.255434718750017
        },
        {
          "name": "C2",
          "midi": 36,
          "time": 61.56520200000063,
          "velocity": 0.8740157480314961,
          "duration": 0.005434781250002629
        },
        {
          "name": "F#2",
          "midi": 42,
          "time": 61.570636781250634,
          "velocity": 0.6929133858267716,
          "duration": 0.005434781250002629
        },
        {
          "name": "B3",
          "midi": 59,
          "time": 61.79346281250064,
          "velocity": 0.7716535433070866,
          "duration": 0.05434781250000498
        },
        {
          "name": "A1",
          "midi": 33,
          "time": 61.82063671875065,
          "velocity": 0.952755905511811,
          "duration": 0.15217387499999546
        },
        {
          "name": "B3",
          "midi": 59,
          "time": 61.82063671875065,
          "velocity": 0.8267716535433071,
          "duration": 0.4728259687500014
        },
        {
          "name": "F#2",
          "midi": 42,
          "time": 61.83150628125065,
          "velocity": 0.44881889763779526,
          "duration": 0.005434781250002629
        },
        {
          "name": "E3",
          "midi": 52,
          "time": 62.05433231250064,
          "velocity": 0.7165354330708661,
          "duration": 0.05434781250000498
        },
        {
          "name": "A5",
          "midi": 81,
          "time": 62.08150621875064,
          "velocity": 0.9212598425196851,
          "duration": 0.26630428125001515
        },
        {
          "name": "A1",
          "midi": 33,
          "time": 62.08150621875064,
          "velocity": 0.8661417322834646,
          "duration": 0.1793477812500086
        },
        {
          "name": "E3",
          "midi": 52,
          "time": 62.08150621875064,
          "velocity": 0.7716535433070866,
          "duration": 0.24456515625001174
        },
        {
          "name": "E2",
          "midi": 40,
          "time": 62.08694100000064,
          "velocity": 0.9291338582677166,
          "duration": 0.005434781250002629
        },
        {
          "name": "F#2",
          "midi": 42,
          "time": 62.092375781250645,
          "velocity": 0.7244094488188977,
          "duration": 0.005434781250002629
        },
        {
          "name": "B3",
          "midi": 59,
          "time": 62.31520181250065,
          "velocity": 0.7874015748031497,
          "duration": 0.05434781250000498
        },
        {
          "name": "B3",
          "midi": 59,
          "time": 62.34237571875065,
          "velocity": 0.84251968503937,
          "duration": 0.24456515625000463
        },
        {
          "name": "F#5",
          "midi": 78,
          "time": 62.35324528125066,
          "velocity": 0.6850393700787402,
          "duration": 0.5108694375000127
        },
        {
          "name": "F#2",
          "midi": 42,
          "time": 62.35324528125066,
          "velocity": 0.3700787401574803,
          "duration": 0.005434781250002629
        },
        {
          "name": "A#1",
          "midi": 34,
          "time": 62.35324528125066,
          "velocity": 0.8740157480314961,
          "duration": 0.17391299999999887
        },
        {
          "name": "B2",
          "midi": 47,
          "time": 62.581506093750654,
          "velocity": 0.9212598425196851,
          "duration": 0.05434781250001208
        },
        {
          "name": "C2",
          "midi": 36,
          "time": 62.60868000000066,
          "velocity": 0.8503937007874016,
          "duration": 0.005434781250002629
        },
        {
          "name": "B1",
          "midi": 35,
          "time": 62.60868000000066,
          "velocity": 0.952755905511811,
          "duration": 0.18478256250000413
        },
        {
          "name": "B2",
          "midi": 47,
          "time": 62.60868000000066,
          "velocity": 0.9763779527559056,
          "duration": 2.0815212187500407
        },
        {
          "name": "D#4",
          "midi": 63,
          "time": 62.60868000000066,
          "velocity": 0.5826771653543307,
          "duration": 1.065217125000025
        },
        {
          "name": "A4",
          "midi": 69,
          "time": 62.60868000000066,
          "velocity": 0.5826771653543307,
          "duration": 4.168477218750098
        },
        {
          "name": "F#2",
          "midi": 42,
          "time": 62.61411478125066,
          "velocity": 0.84251968503937,
          "duration": 0.005434781250002629
        },
        {
          "name": "F#3",
          "midi": 54,
          "time": 62.836940812500664,
          "velocity": 0.6141732283464567,
          "duration": 0.05434781250000498
        },
        {
          "name": "A5",
          "midi": 81,
          "time": 62.85867993750067,
          "velocity": 0.8976377952755905,
          "duration": 0.2554347187500028
        },
        {
          "name": "B1",
          "midi": 35,
          "time": 62.86411471875067,
          "velocity": 0.7795275590551181,
          "duration": 0.1576086562499981
        },
        {
          "name": "F#3",
          "midi": 54,
          "time": 62.86411471875067,
          "velocity": 0.6692913385826772,
          "duration": 0.38586946875000194
        },
        {
          "name": "F#2",
          "midi": 42,
          "time": 62.87498428125067,
          "velocity": 0.4330708661417323,
          "duration": 0.005434781250002629
        },
        {
          "name": "C#4",
          "midi": 61,
          "time": 63.09781031250067,
          "velocity": 0.8503937007874016,
          "duration": 0.05434781250000498
        },
        {
          "name": "F#2",
          "midi": 42,
          "time": 63.12498421875067,
          "velocity": 0.7559055118110236,
          "duration": 0.005434781250002629
        },
        {
          "name": "B1",
          "midi": 35,
          "time": 63.12498421875067,
          "velocity": 0.9133858267716536,
          "duration": 0.16304343750000072
        },
        {
          "name": "C#4",
          "midi": 61,
          "time": 63.12498421875067,
          "velocity": 0.905511811023622,
          "duration": 0.5163042187500082
        },
        {
          "name": "E2",
          "midi": 40,
          "time": 63.13041900000067,
          "velocity": 0.9291338582677166,
          "duration": 0.005434781250002629
        },
        {
          "name": "F#5",
          "midi": 78,
          "time": 63.152158125000675,
          "velocity": 0.6771653543307087,
          "duration": 1.3206518437500208
        },
        {
          "name": "F#3",
          "midi": 54,
          "time": 63.35867981250067,
          "velocity": 0.7086614173228346,
          "duration": 0.05434781250000498
        },
        {
          "name": "F#3",
          "midi": 54,
          "time": 63.38585371875067,
          "velocity": 0.7637795275590551,
          "duration": 0.6467389687500287
        },
        {
          "name": "C2",
          "midi": 36,
          "time": 63.39128850000067,
          "velocity": 0.6377952755905512,
          "duration": 0.005434781250002629
        },
        {
          "name": "F#2",
          "midi": 42,
          "time": 63.39672328125067,
          "velocity": 0.44881889763779526,
          "duration": 0.005434781250002629
        },
        {
          "name": "B1",
          "midi": 35,
          "time": 63.39672328125067,
          "velocity": 0.8661417322834646,
          "duration": 0.13043474999999916
        },
        {
          "name": "D#4",
          "midi": 63,
          "time": 63.61954931250067,
          "velocity": 0.7952755905511811,
          "duration": 0.28260862500001593
        },
        {
          "name": "B1",
          "midi": 35,
          "time": 63.64672321875068,
          "velocity": 0.9291338582677166,
          "duration": 0.16304343750000783
        },
        {
          "name": "D#4",
          "midi": 63,
          "time": 63.64672321875068,
          "velocity": 0.8503937007874016,
          "duration": 2.1141299062500565
        },
        {
          "name": "C2",
          "midi": 36,
          "time": 63.65215800000068,
          "velocity": 0.8740157480314961,
          "duration": 0.005434781250002629
        },
        {
          "name": "F#2",
          "midi": 42,
          "time": 63.657592781250685,
          "velocity": 0.7559055118110236,
          "duration": 0.005434781250002629
        },
        {
          "name": "C#4",
          "midi": 61,
          "time": 63.880418812500686,
          "velocity": 0.7716535433070866,
          "duration": 0.05434781250000498
        },
        {
          "name": "B1",
          "midi": 35,
          "time": 63.90759271875069,
          "velocity": 0.8818897637795275,
          "duration": 0.14673909374999994
        },
        {
          "name": "C#4",
          "midi": 61,
          "time": 63.90759271875069,
          "velocity": 0.8267716535433071,
          "duration": 0.48913031249999506
        },
        {
          "name": "F#2",
          "midi": 42,
          "time": 63.91846228125069,
          "velocity": 0.44881889763779526,
          "duration": 0.005434781250002629
        },
        {
          "name": "F#3",
          "midi": 54,
          "time": 64.14128831250069,
          "velocity": 0.7165354330708661,
          "duration": 0.05434781249999787
        },
        {
          "name": "B1",
          "midi": 35,
          "time": 64.16846221875069,
          "velocity": 0.8976377952755905,
          "duration": 0.14673909374999994
        },
        {
          "name": "F#3",
          "midi": 54,
          "time": 64.16846221875069,
          "velocity": 0.7716535433070866,
          "duration": 0.5163042187500082
        },
        {
          "name": "E2",
          "midi": 40,
          "time": 64.1738970000007,
          "velocity": 0.9291338582677166,
          "duration": 0.005434781250002629
        },
        {
          "name": "F#2",
          "midi": 42,
          "time": 64.1738970000007,
          "velocity": 0.7086614173228346,
          "duration": 0.005434781250002629
        },
        {
          "name": "C#4",
          "midi": 61,
          "time": 64.40215781250069,
          "velocity": 0.7874015748031497,
          "duration": 0.05434781250001208
        },
        {
          "name": "B1",
          "midi": 35,
          "time": 64.42933171875069,
          "velocity": 0.8188976377952756,
          "duration": 0.16304343750000783
        },
        {
          "name": "C#4",
          "midi": 61,
          "time": 64.42933171875069,
          "velocity": 0.84251968503937,
          "duration": 0.24456515625000463
        },
        {
          "name": "F#2",
          "midi": 42,
          "time": 64.4402012812507,
          "velocity": 0.33070866141732286,
          "duration": 0.005434781250002629
        },
        {
          "name": "B2",
          "midi": 47,
          "time": 64.66846209375069,
          "velocity": 0.9212598425196851,
          "duration": 0.05434781250001208
        },
        {
          "name": "B1",
          "midi": 35,
          "time": 64.6902012187507,
          "velocity": 0.8661417322834646,
          "duration": 0.13043475000000626
        },
        {
          "name": "F#2",
          "midi": 42,
          "time": 64.6956360000007,
          "velocity": 0.84251968503937,
          "duration": 0.005434781250002629
        },
        {
          "name": "C2",
          "midi": 36,
          "time": 64.6956360000007,
          "velocity": 0.8740157480314961,
          "duration": 0.005434781250002629
        },
        {
          "name": "B2",
          "midi": 47,
          "time": 64.6956360000007,
          "velocity": 0.9763779527559056,
          "duration": 2.081521218750055
        },
        {
          "name": "B4",
          "midi": 71,
          "time": 64.9021576875007,
          "velocity": 0.84251968503937,
          "duration": 0.28260862500000883
        },
        {
          "name": "F#3",
          "midi": 54,
          "time": 64.9238968125007,
          "velocity": 0.6141732283464567,
          "duration": 0.05434781250001208
        },
        {
          "name": "B1",
          "midi": 35,
          "time": 64.9510707187507,
          "velocity": 0.8188976377952756,
          "duration": 0.16847821875001046
        },
        {
          "name": "F#3",
          "midi": 54,
          "time": 64.9510707187507,
          "velocity": 0.6692913385826772,
          "duration": 0.38586946875003036
        },
        {
          "name": "F#2",
          "midi": 42,
          "time": 64.9619402812507,
          "velocity": 0.5196850393700787,
          "duration": 0.005434781250002629
        },
        {
          "name": "B5",
          "midi": 83,
          "time": 65.17389675000071,
          "velocity": 0.9212598425196851,
          "duration": 0.2608695000000125
        },
        {
          "name": "C#4",
          "midi": 61,
          "time": 65.18476631250071,
          "velocity": 0.8503937007874016,
          "duration": 0.05434781250001208
        },
        {
          "name": "B1",
          "midi": 35,
          "time": 65.21194021875071,
          "velocity": 0.9291338582677166,
          "duration": 0.14673909375001415
        },
        {
          "name": "C#4",
          "midi": 61,
          "time": 65.21194021875071,
          "velocity": 0.905511811023622,
          "duration": 0.5163042187500224
        },
        {
          "name": "E2",
          "midi": 40,
          "time": 65.21737500000071,
          "velocity": 0.9291338582677166,
          "duration": 0.005434781250002629
        },
        {
          "name": "F#2",
          "midi": 42,
          "time": 65.22280978125072,
          "velocity": 0.7480314960629921,
          "duration": 0.005434781250002629
        },
        {
          "name": "B5",
          "midi": 83,
          "time": 65.44563581250073,
          "velocity": 0.7559055118110236,
          "duration": 0.2554347187500099
        },
        {
          "name": "F#3",
          "midi": 54,
          "time": 65.45107059375073,
          "velocity": 0.7086614173228346,
          "duration": 0.05434781249999787
        },
        {
          "name": "F#2",
          "midi": 42,
          "time": 65.47280971875072,
          "velocity": 0.4251968503937008,
          "duration": 0.005434781250002629
        },
        {
          "name": "B1",
          "midi": 35,
          "time": 65.47280971875072,
          "velocity": 0.8188976377952756,
          "duration": 0.1576086562500052
        },
        {
          "name": "C2",
          "midi": 36,
          "time": 65.47824450000073,
          "velocity": 0.5984251968503937,
          "duration": 0.005434781250002629
        },
        {
          "name": "F#3",
          "midi": 54,
          "time": 65.47824450000073,
          "velocity": 0.7637795275590551,
          "duration": 0.7336954687500281
        },
        {
          "name": "D#4",
          "midi": 63,
          "time": 65.70650531250074,
          "velocity": 0.7952755905511811,
          "duration": 0.28260862500000883
        },
        {
          "name": "G5",
          "midi": 79,
          "time": 65.72280965625073,
          "velocity": 0.905511811023622,
          "duration": 0.2554347187500099
        },
        {
          "name": "B1",
          "midi": 35,
          "time": 65.73367921875074,
          "velocity": 0.952755905511811,
          "duration": 0.1576086562500052
        },
        {
          "name": "D#4",
          "midi": 63,
          "time": 65.73367921875074,
          "velocity": 0.8503937007874016,
          "duration": 1.0434780000000217
        },
        {
          "name": "F#2",
          "midi": 42,
          "time": 65.73911400000074,
          "velocity": 0.7244094488188977,
          "duration": 0.005434781250002629
        },
        {
          "name": "C2",
          "midi": 36,
          "time": 65.73911400000074,
          "velocity": 0.8661417322834646,
          "duration": 0.005434781250002629
        },
        {
          "name": "C#4",
          "midi": 61,
          "time": 65.96737481250074,
          "velocity": 0.7716535433070866,
          "duration": 0.05434781250001208
        },
        {
          "name": "F#2",
          "midi": 42,
          "time": 65.99454871875075,
          "velocity": 0.36220472440944884,
          "duration": 0.005434781250002629
        },
        {
          "name": "B1",
          "midi": 35,
          "time": 65.99454871875075,
          "velocity": 0.7401574803149606,
          "duration": 0.17391299999999887
        },
        {
          "name": "C#4",
          "midi": 61,
          "time": 65.99454871875075,
          "velocity": 0.8267716535433071,
          "duration": 0.4728259687500014
        },
        {
          "name": "F#5",
          "midi": 78,
          "time": 65.99998350000075,
          "velocity": 0.7244094488188977,
          "duration": 0.46739118749999875
        },
        {
          "name": "F#3",
          "midi": 54,
          "time": 66.22824431250075,
          "velocity": 0.7165354330708661,
          "duration": 0.05434781249999787
        },
        {
          "name": "F#2",
          "midi": 42,
          "time": 66.25541821875075,
          "velocity": 0.7086614173228346,
          "duration": 0.005434781250002629
        },
        {
          "name": "B1",
          "midi": 35,
          "time": 66.25541821875075,
          "velocity": 0.9133858267716536,
          "duration": 0.1576086562500052
        },
        {
          "name": "F#3",
          "midi": 54,
          "time": 66.25541821875075,
          "velocity": 0.7716535433070866,
          "duration": 0.5163042187500082
        },
        {
          "name": "E2",
          "midi": 40,
          "time": 66.26085300000075,
          "velocity": 0.9291338582677166,
          "duration": 0.005434781250002629
        },
        {
          "name": "C#4",
          "midi": 61,
          "time": 66.48911381250075,
          "velocity": 0.6929133858267716,
          "duration": 0.05434781249999787
        },
        {
          "name": "E5",
          "midi": 76,
          "time": 66.49454859375075,
          "velocity": 0.7952755905511811,
          "duration": 0.4999998750000145
        },
        {
          "name": "B1",
          "midi": 35,
          "time": 66.51628771875075,
          "velocity": 0.7952755905511811,
          "duration": 0.19565212499999518
        },
        {
          "name": "C#4",
          "midi": 61,
          "time": 66.51628771875075,
          "velocity": 0.7480314960629921,
          "duration": 0.24456515625000463
        },
        {
          "name": "F#2",
          "midi": 42,
          "time": 66.52172250000075,
          "velocity": 0.4015748031496063,
          "duration": 0.005434781250002629
        },
        {
          "name": "E3",
          "midi": 52,
          "time": 66.75541809375075,
          "velocity": 0.9212598425196851,
          "duration": 0.05434781250001208
        },
        {
          "name": "E2",
          "midi": 40,
          "time": 66.77715721875076,
          "velocity": 0.8188976377952756,
          "duration": 0.1793477812500015
        },
        {
          "name": "C2",
          "midi": 36,
          "time": 66.78259200000076,
          "velocity": 0.8740157480314961,
          "duration": 0.005434781250002629
        },
        {
          "name": "E3",
          "midi": 52,
          "time": 66.78259200000076,
          "velocity": 0.9763779527559056,
          "duration": 1.5597822187500299
        },
        {
          "name": "A4",
          "midi": 69,
          "time": 66.78259200000076,
          "velocity": 0.5826771653543307,
          "duration": 4.152172875000076
        },
        {
          "name": "D4",
          "midi": 62,
          "time": 66.78259200000076,
          "velocity": 0.5826771653543307,
          "duration": 4.168477218750084
        },
        {
          "name": "F#2",
          "midi": 42,
          "time": 66.78802678125076,
          "velocity": 0.84251968503937,
          "duration": 0.005434781250002629
        },
        {
          "name": "B3",
          "midi": 59,
          "time": 67.01085281250076,
          "velocity": 0.6141732283464567,
          "duration": 0.05434781249999787
        },
        {
          "name": "E5",
          "midi": 76,
          "time": 67.02715715625075,
          "velocity": 0.8818897637795275,
          "duration": 1.3695648750000373
        },
        {
          "name": "E2",
          "midi": 40,
          "time": 67.03802671875076,
          "velocity": 0.8031496062992126,
          "duration": 0.21195646875000307
        },
        {
          "name": "B3",
          "midi": 59,
          "time": 67.03802671875076,
          "velocity": 0.6692913385826772,
          "duration": 0.38586946875000194
        },
        {
          "name": "F#2",
          "midi": 42,
          "time": 67.04346150000076,
          "velocity": 0.4566929133858268,
          "duration": 0.005434781250002629
        },
        {
          "name": "F#4",
          "midi": 66,
          "time": 67.27172231250076,
          "velocity": 0.8503937007874016,
          "duration": 0.05434781249999787
        },
        {
          "name": "F#4",
          "midi": 66,
          "time": 67.29889621875076,
          "velocity": 0.905511811023622,
          "duration": 0.38586946875001615
        },
        {
          "name": "E2",
          "midi": 40,
          "time": 67.30433100000076,
          "velocity": 0.9291338582677166,
          "duration": 0.005434781250002629
        },
        {
          "name": "F#2",
          "midi": 42,
          "time": 67.30433100000076,
          "velocity": 0.6771653543307087,
          "duration": 0.005434781250002629
        },
        {
          "name": "E2",
          "midi": 40,
          "time": 67.30433100000076,
          "velocity": 0.7795275590551181,
          "duration": 0.16304343750000783
        },
        {
          "name": "B3",
          "midi": 59,
          "time": 67.53259181250077,
          "velocity": 0.7086614173228346,
          "duration": 0.05434781249999787
        },
        {
          "name": "E2",
          "midi": 40,
          "time": 67.55976571875077,
          "velocity": 0.7165354330708661,
          "duration": 0.17391299999999887
        },
        {
          "name": "B3",
          "midi": 59,
          "time": 67.55976571875077,
          "velocity": 0.7637795275590551,
          "duration": 0.5163042187500082
        },
        {
          "name": "F#2",
          "midi": 42,
          "time": 67.56520050000077,
          "velocity": 0.49606299212598426,
          "duration": 0.005434781250002629
        },
        {
          "name": "C2",
          "midi": 36,
          "time": 67.56520050000077,
          "velocity": 0.5905511811023622,
          "duration": 0.005434781250002629
        },
        {
          "name": "E4",
          "midi": 64,
          "time": 67.79346131250077,
          "velocity": 0.7952755905511811,
          "duration": 0.05434781250001208
        },
        {
          "name": "E2",
          "midi": 40,
          "time": 67.82063521875077,
          "velocity": 0.8188976377952756,
          "duration": 0.17391300000001308
        },
        {
          "name": "E4",
          "midi": 64,
          "time": 67.82063521875077,
          "velocity": 0.8503937007874016,
          "duration": 0.907608468750027
        },
        {
          "name": "C2",
          "midi": 36,
          "time": 67.82607000000077,
          "velocity": 0.8740157480314961,
          "duration": 0.005434781250002629
        },
        {
          "name": "F#2",
          "midi": 42,
          "time": 67.83150478125077,
          "velocity": 0.7244094488188977,
          "duration": 0.005434781250002629
        },
        {
          "name": "B3",
          "midi": 59,
          "time": 68.05433081250078,
          "velocity": 0.7716535433070866,
          "duration": 0.05434781250001208
        },
        {
          "name": "E2",
          "midi": 40,
          "time": 68.08150471875078,
          "velocity": 0.7952755905511811,
          "duration": 0.1576086562500194
        },
        {
          "name": "B3",
          "midi": 59,
          "time": 68.08150471875078,
          "velocity": 0.8267716535433071,
          "duration": 0.48913031250000927
        },
        {
          "name": "F#2",
          "midi": 42,
          "time": 68.09237428125078,
          "velocity": 0.36220472440944884,
          "duration": 0.005434781250002629
        },
        {
          "name": "E3",
          "midi": 52,
          "time": 68.3206350937508,
          "velocity": 0.7165354330708661,
          "duration": 0.05434781249999787
        },
        {
          "name": "E2",
          "midi": 40,
          "time": 68.34237421875079,
          "velocity": 0.8661417322834646,
          "duration": 0.010869562500005259
        },
        {
          "name": "E2",
          "midi": 40,
          "time": 68.3478090000008,
          "velocity": 0.9291338582677166,
          "duration": 0.1413043124999973
        },
        {
          "name": "E3",
          "midi": 52,
          "time": 68.3478090000008,
          "velocity": 0.7716535433070866,
          "duration": 0.516304218749994
        },
        {
          "name": "F#2",
          "midi": 42,
          "time": 68.3532437812508,
          "velocity": 0.7716535433070866,
          "duration": 0.005434781250002629
        },
        {
          "name": "B3",
          "midi": 59,
          "time": 68.57606981250079,
          "velocity": 0.7874015748031497,
          "duration": 0.05434781249999787
        },
        {
          "name": "F#2",
          "midi": 42,
          "time": 68.60324371875079,
          "velocity": 0.4409448818897638,
          "duration": 0.005434781250002629
        },
        {
          "name": "E2",
          "midi": 40,
          "time": 68.60324371875079,
          "velocity": 0.7165354330708661,
          "duration": 0.17391299999999887
        },
        {
          "name": "B3",
          "midi": 59,
          "time": 68.60324371875079,
          "velocity": 0.84251968503937,
          "duration": 0.24456515625000463
        },
        {
          "name": "E3",
          "midi": 52,
          "time": 68.84237409375079,
          "velocity": 0.9212598425196851,
          "duration": 0.05434781249999787
        },
        {
          "name": "E2",
          "midi": 40,
          "time": 68.86411321875079,
          "velocity": 0.8661417322834646,
          "duration": 0.14673909374999994
        },
        {
          "name": "C2",
          "midi": 36,
          "time": 68.86954800000079,
          "velocity": 0.905511811023622,
          "duration": 0.005434781250002629
        },
        {
          "name": "E3",
          "midi": 52,
          "time": 68.86954800000079,
          "velocity": 0.9763779527559056,
          "duration": 1.5597822187500299
        },
        {
          "name": "F#2",
          "midi": 42,
          "time": 68.8749827812508,
          "velocity": 0.84251968503937,
          "duration": 0.005434781250002629
        },
        {
          "name": "B3",
          "midi": 59,
          "time": 69.09780881250079,
          "velocity": 0.6141732283464567,
          "duration": 0.05434781250001208
        },
        {
          "name": "E2",
          "midi": 40,
          "time": 69.12498271875079,
          "velocity": 0.7952755905511811,
          "duration": 0.1576086562500052
        },
        {
          "name": "B3",
          "midi": 59,
          "time": 69.12498271875079,
          "velocity": 0.6692913385826772,
          "duration": 0.38586946875000194
        },
        {
          "name": "E4",
          "midi": 64,
          "time": 69.13585228125079,
          "velocity": 0.3937007874015748,
          "duration": 0.119565187500001
        },
        {
          "name": "F#2",
          "midi": 42,
          "time": 69.13585228125079,
          "velocity": 0.4094488188976378,
          "duration": 0.005434781250002629
        },
        {
          "name": "F#4",
          "midi": 66,
          "time": 69.35867831250079,
          "velocity": 0.8503937007874016,
          "duration": 0.05434781249999787
        },
        {
          "name": "E2",
          "midi": 40,
          "time": 69.38585221875078,
          "velocity": 0.8661417322834646,
          "duration": 0.010869562500005259
        },
        {
          "name": "F#4",
          "midi": 66,
          "time": 69.38585221875078,
          "velocity": 0.905511811023622,
          "duration": 0.5163042187500224
        },
        {
          "name": "C#5",
          "midi": 73,
          "time": 69.39128700000079,
          "velocity": 0.7480314960629921,
          "duration": 0.26630428125001515
        },
        {
          "name": "E2",
          "midi": 40,
          "time": 69.39128700000079,
          "velocity": 0.9291338582677166,
          "duration": 0.13043475000000626
        },
        {
          "name": "F#2",
          "midi": 42,
          "time": 69.39128700000079,
          "velocity": 0.7086614173228346,
          "duration": 0.005434781250002629
        },
        {
          "name": "B3",
          "midi": 59,
          "time": 69.6195478125008,
          "velocity": 0.7086614173228346,
          "duration": 0.05434781250001208
        },
        {
          "name": "E2",
          "midi": 40,
          "time": 69.6467217187508,
          "velocity": 0.7165354330708661,
          "duration": 0.1576086562500194
        },
        {
          "name": "B3",
          "midi": 59,
          "time": 69.6467217187508,
          "velocity": 0.7637795275590551,
          "duration": 0.38586946875003036
        },
        {
          "name": "D5",
          "midi": 74,
          "time": 69.6521565000008,
          "velocity": 0.5826771653543307,
          "duration": 0.2554347187500099
        },
        {
          "name": "C2",
          "midi": 36,
          "time": 69.6521565000008,
          "velocity": 0.5748031496062992,
          "duration": 0.005434781250002629
        },
        {
          "name": "F#2",
          "midi": 42,
          "time": 69.6575912812508,
          "velocity": 0.3858267716535433,
          "duration": 0.005434781250002629
        },
        {
          "name": "E4",
          "midi": 64,
          "time": 69.88041731250081,
          "velocity": 0.7952755905511811,
          "duration": 0.05434781250001208
        },
        {
          "name": "E2",
          "midi": 40,
          "time": 69.90759121875081,
          "velocity": 0.8346456692913385,
          "duration": 0.1576086562500194
        },
        {
          "name": "E4",
          "midi": 64,
          "time": 69.90759121875081,
          "velocity": 0.8503937007874016,
          "duration": 0.7771737187500065
        },
        {
          "name": "C#5",
          "midi": 73,
          "time": 69.91302600000081,
          "velocity": 0.6377952755905512,
          "duration": 0.48369553125000664
        },
        {
          "name": "C2",
          "midi": 36,
          "time": 69.91302600000081,
          "velocity": 0.8582677165354331,
          "duration": 0.005434781250002629
        },
        {
          "name": "F#2",
          "midi": 42,
          "time": 69.91846078125081,
          "velocity": 0.7716535433070866,
          "duration": 0.005434781250002629
        },
        {
          "name": "B3",
          "midi": 59,
          "time": 70.14128681250082,
          "velocity": 0.7716535433070866,
          "duration": 0.05434781249999787
        },
        {
          "name": "F#2",
          "midi": 42,
          "time": 70.16846071875082,
          "velocity": 0.3858267716535433,
          "duration": 0.005434781250002629
        },
        {
          "name": "E2",
          "midi": 40,
          "time": 70.16846071875082,
          "velocity": 0.7716535433070866,
          "duration": 0.14673909374999994
        },
        {
          "name": "B3",
          "midi": 59,
          "time": 70.16846071875082,
          "velocity": 0.8267716535433071,
          "duration": 0.7771737187500207
        },
        {
          "name": "E3",
          "midi": 52,
          "time": 70.40759109375082,
          "velocity": 0.7165354330708661,
          "duration": 0.05434781249999787
        },
        {
          "name": "B4",
          "midi": 71,
          "time": 70.42389543750082,
          "velocity": 0.7874015748031497,
          "duration": 0.28804340625001146
        },
        {
          "name": "E2",
          "midi": 40,
          "time": 70.42933021875082,
          "velocity": 0.8976377952755905,
          "duration": 0.010869562500005259
        },
        {
          "name": "E2",
          "midi": 40,
          "time": 70.43476500000082,
          "velocity": 0.9291338582677166,
          "duration": 0.16847821874999624
        },
        {
          "name": "E3",
          "midi": 52,
          "time": 70.43476500000082,
          "velocity": 0.7716535433070866,
          "duration": 0.5163042187500224
        },
        {
          "name": "F#2",
          "midi": 42,
          "time": 70.44019978125083,
          "velocity": 0.84251968503937,
          "duration": 0.005434781250002629
        },
        {
          "name": "E4",
          "midi": 64,
          "time": 70.66302581250082,
          "velocity": 0.7874015748031497,
          "duration": 0.05434781250001208
        },
        {
          "name": "A#2",
          "midi": 46,
          "time": 70.69019971875082,
          "velocity": 0.6456692913385826,
          "duration": 0.005434781250002629
        },
        {
          "name": "E2",
          "midi": 40,
          "time": 70.69019971875082,
          "velocity": 0.7480314960629921,
          "duration": 0.16847821875001046
        },
        {
          "name": "E4",
          "midi": 64,
          "time": 70.69019971875082,
          "velocity": 0.84251968503937,
          "duration": 0.24456515625001884
        },
        {
          "name": "A4",
          "midi": 69,
          "time": 70.70106928125082,
          "velocity": 0.6220472440944882,
          "duration": 0.23913037500001622
        },
        {
          "name": "A2",
          "midi": 45,
          "time": 70.92933009375083,
          "velocity": 0.9212598425196851,
          "duration": 0.05434781250001208
        },
        {
          "name": "A4",
          "midi": 69,
          "time": 70.95650400000085,
          "velocity": 0.7559055118110236,
          "duration": 1.5163039687500515
        },
        {
          "name": "C2",
          "midi": 36,
          "time": 70.95650400000085,
          "velocity": 0.8818897637795275,
          "duration": 0.005434781250002629
        },
        {
          "name": "A2",
          "midi": 45,
          "time": 70.95650400000085,
          "velocity": 0.9763779527559056,
          "duration": 1.9673908125000423
        },
        {
          "name": "A4",
          "midi": 69,
          "time": 70.95650400000085,
          "velocity": 0.49606299212598426,
          "duration": 4.168477218750056
        },
        {
          "name": "B4",
          "midi": 71,
          "time": 70.95650400000085,
          "velocity": 0.5433070866141733,
          "duration": 2.0815212187500407
        },
        {
          "name": "E4",
          "midi": 64,
          "time": 70.95650400000085,
          "velocity": 0.5511811023622047,
          "duration": 2.5380428437500626
        },
        {
          "name": "F#2",
          "midi": 42,
          "time": 70.96193878125085,
          "velocity": 0.8582677165354331,
          "duration": 0.005434781250002629
        },
        {
          "name": "A1",
          "midi": 33,
          "time": 70.96193878125085,
          "velocity": 0.952755905511811,
          "duration": 0.15760865624999099
        },
        {
          "name": "E3",
          "midi": 52,
          "time": 71.18476481250084,
          "velocity": 0.6141732283464567,
          "duration": 0.05434781250001208
        },
        {
          "name": "A1",
          "midi": 33,
          "time": 71.21193871875084,
          "velocity": 0.7952755905511811,
          "duration": 0.1576086562500194
        },
        {
          "name": "E3",
          "midi": 52,
          "time": 71.21193871875084,
          "velocity": 0.6692913385826772,
          "duration": 0.38586946875003036
        },
        {
          "name": "F#2",
          "midi": 42,
          "time": 71.22280828125085,
          "velocity": 0.30708661417322836,
          "duration": 0.005434781250002629
        },
        {
          "name": "B3",
          "midi": 59,
          "time": 71.44563431250086,
          "velocity": 0.8503937007874016,
          "duration": 0.05434781250001208
        },
        {
          "name": "B3",
          "midi": 59,
          "time": 71.47280821875086,
          "velocity": 0.905511811023622,
          "duration": 0.2554347187500241
        },
        {
          "name": "E2",
          "midi": 40,
          "time": 71.47824300000086,
          "velocity": 0.9291338582677166,
          "duration": 0.005434781250002629
        },
        {
          "name": "A1",
          "midi": 33,
          "time": 71.47824300000086,
          "velocity": 0.9291338582677166,
          "duration": 0.16304343750002204
        },
        {
          "name": "F#2",
          "midi": 42,
          "time": 71.48367778125086,
          "velocity": 0.7480314960629921,
          "duration": 0.005434781250002629
        },
        {
          "name": "E3",
          "midi": 52,
          "time": 71.70650381250088,
          "velocity": 0.7086614173228346,
          "duration": 0.05434781250001208
        },
        {
          "name": "E3",
          "midi": 52,
          "time": 71.73367771875088,
          "velocity": 0.7637795275590551,
          "duration": 0.6467389687500145
        },
        {
          "name": "C2",
          "midi": 36,
          "time": 71.73911250000089,
          "velocity": 0.6377952755905512,
          "duration": 0.005434781250002629
        },
        {
          "name": "F#2",
          "midi": 42,
          "time": 71.74454728125089,
          "velocity": 0.4094488188976378,
          "duration": 0.005434781250002629
        },
        {
          "name": "A1",
          "midi": 33,
          "time": 71.74454728125089,
          "velocity": 0.9133858267716536,
          "duration": 0.15217387500000257
        },
        {
          "name": "C#4",
          "midi": 61,
          "time": 71.9673733125009,
          "velocity": 0.7952755905511811,
          "duration": 0.05434781249999787
        },
        {
          "name": "F#2",
          "midi": 42,
          "time": 71.9945472187509,
          "velocity": 0.7480314960629921,
          "duration": 0.005434781250002629
        },
        {
          "name": "A1",
          "midi": 33,
          "time": 71.9945472187509,
          "velocity": 0.9291338582677166,
          "duration": 0.1413043124999973
        },
        {
          "name": "C#4",
          "midi": 61,
          "time": 71.9945472187509,
          "velocity": 0.8503937007874016,
          "duration": 0.2554347187499957
        },
        {
          "name": "C2",
          "midi": 36,
          "time": 71.9999820000009,
          "velocity": 0.8582677165354331,
          "duration": 0.005434781250002629
        },
        {
          "name": "B3",
          "midi": 59,
          "time": 72.2282428125009,
          "velocity": 0.7716535433070866,
          "duration": 0.05434781249999787
        },
        {
          "name": "F#2",
          "midi": 42,
          "time": 72.2554167187509,
          "velocity": 0.49606299212598426,
          "duration": 0.005434781250002629
        },
        {
          "name": "A1",
          "midi": 33,
          "time": 72.2554167187509,
          "velocity": 0.8976377952755905,
          "duration": 0.14673909374999994
        },
        {
          "name": "B3",
          "midi": 59,
          "time": 72.2554167187509,
          "velocity": 0.8267716535433071,
          "duration": 0.48913031249999506
        },
        {
          "name": "E3",
          "midi": 52,
          "time": 72.4891123125009,
          "velocity": 0.7165354330708661,
          "duration": 0.05434781249999787
        },
        {
          "name": "F#2",
          "midi": 42,
          "time": 72.51628621875089,
          "velocity": 0.7716535433070866,
          "duration": 0.005434781250002629
        },
        {
          "name": "E3",
          "midi": 52,
          "time": 72.51628621875089,
          "velocity": 0.7716535433070866,
          "duration": 0.38586946875000194
        },
        {
          "name": "E2",
          "midi": 40,
          "time": 72.5217210000009,
          "velocity": 0.9291338582677166,
          "duration": 0.005434781250002629
        },
        {
          "name": "A1",
          "midi": 33,
          "time": 72.5217210000009,
          "velocity": 0.952755905511811,
          "duration": 0.14673909374999994
        },
        {
          "name": "B3",
          "midi": 59,
          "time": 72.74998181250089,
          "velocity": 0.7874015748031497,
          "duration": 0.05434781249999787
        },
        {
          "name": "F#2",
          "midi": 42,
          "time": 72.77715571875089,
          "velocity": 0.4251968503937008,
          "duration": 0.005434781250002629
        },
        {
          "name": "A1",
          "midi": 33,
          "time": 72.77715571875089,
          "velocity": 0.8503937007874016,
          "duration": 0.14673909374999994
        },
        {
          "name": "B3",
          "midi": 59,
          "time": 72.77715571875089,
          "velocity": 0.84251968503937,
          "duration": 0.24456515625000463
        },
        {
          "name": "A2",
          "midi": 45,
          "time": 73.01628609375089,
          "velocity": 0.9212598425196851,
          "duration": 0.05434781249999787
        },
        {
          "name": "F#2",
          "midi": 42,
          "time": 73.03802521875089,
          "velocity": 0.8661417322834646,
          "duration": 0.005434781250002629
        },
        {
          "name": "A1",
          "midi": 33,
          "time": 73.03802521875089,
          "velocity": 0.952755905511811,
          "duration": 0.16304343750000783
        },
        {
          "name": "C2",
          "midi": 36,
          "time": 73.04346000000089,
          "velocity": 0.8818897637795275,
          "duration": 0.005434781250002629
        },
        {
          "name": "A2",
          "midi": 45,
          "time": 73.04346000000089,
          "velocity": 0.9763779527559056,
          "duration": 1.967390812500014
        },
        {
          "name": "E3",
          "midi": 52,
          "time": 73.2717208125009,
          "velocity": 0.6141732283464567,
          "duration": 0.05434781249999787
        },
        {
          "name": "E4",
          "midi": 64,
          "time": 73.2988947187509,
          "velocity": 0.6141732283464567,
          "duration": 5.99999850000016
        },
        {
          "name": "F#2",
          "midi": 42,
          "time": 73.2988947187509,
          "velocity": 0.4566929133858268,
          "duration": 0.005434781250002629
        },
        {
          "name": "A1",
          "midi": 33,
          "time": 73.2988947187509,
          "velocity": 0.8503937007874016,
          "duration": 0.1576086562500052
        },
        {
          "name": "E3",
          "midi": 52,
          "time": 73.2988947187509,
          "velocity": 0.6692913385826772,
          "duration": 0.38586946875001615
        },
        {
          "name": "B3",
          "midi": 59,
          "time": 73.53259031250091,
          "velocity": 0.8503937007874016,
          "duration": 0.05434781249999787
        },
        {
          "name": "F#2",
          "midi": 42,
          "time": 73.55976421875091,
          "velocity": 0.7480314960629921,
          "duration": 0.005434781250002629
        },
        {
          "name": "A1",
          "midi": 33,
          "time": 73.55976421875091,
          "velocity": 0.952755905511811,
          "duration": 0.17391299999999887
        },
        {
          "name": "B3",
          "midi": 59,
          "time": 73.55976421875091,
          "velocity": 0.905511811023622,
          "duration": 0.24456515625000463
        },
        {
          "name": "C#5",
          "midi": 73,
          "time": 73.56519900000092,
          "velocity": 0.889763779527559,
          "duration": 0.2554347187499957
        },
        {
          "name": "E2",
          "midi": 40,
          "time": 73.56519900000092,
          "velocity": 0.9291338582677166,
          "duration": 0.005434781250002629
        },
        {
          "name": "E3",
          "midi": 52,
          "time": 73.79345981250091,
          "velocity": 0.7086614173228346,
          "duration": 0.05434781249999787
        },
        {
          "name": "A1",
          "midi": 33,
          "time": 73.82063371875091,
          "velocity": 0.8346456692913385,
          "duration": 0.1793477812500015
        },
        {
          "name": "E3",
          "midi": 52,
          "time": 73.82063371875091,
          "velocity": 0.7637795275590551,
          "duration": 0.24456515625000463
        },
        {
          "name": "D5",
          "midi": 74,
          "time": 73.82606850000091,
          "velocity": 0.7007874015748031,
          "duration": 0.2554347187499957
        },
        {
          "name": "F#2",
          "midi": 42,
          "time": 73.82606850000091,
          "velocity": 0.4015748031496063,
          "duration": 0.005434781250002629
        },
        {
          "name": "C2",
          "midi": 36,
          "time": 73.82606850000091,
          "velocity": 0.6220472440944882,
          "duration": 0.005434781250002629
        },
        {
          "name": "C#4",
          "midi": 61,
          "time": 74.05432931250091,
          "velocity": 0.7952755905511811,
          "duration": 0.05434781249999787
        },
        {
          "name": "F#2",
          "midi": 42,
          "time": 74.08150321875091,
          "velocity": 0.7559055118110236,
          "duration": 0.005434781250002629
        },
        {
          "name": "A1",
          "midi": 33,
          "time": 74.08150321875091,
          "velocity": 0.952755905511811,
          "duration": 0.16304343749999362
        },
        {
          "name": "C#4",
          "midi": 61,
          "time": 74.08150321875091,
          "velocity": 0.8503937007874016,
          "duration": 0.2554347187499957
        },
        {
          "name": "C#5",
          "midi": 73,
          "time": 74.08693800000091,
          "velocity": 0.8740157480314961,
          "duration": 0.5054346562499887
        },
        {
          "name": "C2",
          "midi": 36,
          "time": 74.08693800000091,
          "velocity": 0.8740157480314961,
          "duration": 0.005434781250002629
        },
        {
          "name": "B3",
          "midi": 59,
          "time": 74.31519881250091,
          "velocity": 0.7716535433070866,
          "duration": 0.05434781249999787
        },
        {
          "name": "A1",
          "midi": 33,
          "time": 74.34237271875091,
          "velocity": 0.7952755905511811,
          "duration": 0.17391299999999887
        },
        {
          "name": "B3",
          "midi": 59,
          "time": 74.34237271875091,
          "velocity": 0.8267716535433071,
          "duration": 0.4728259687500014
        },
        {
          "name": "F#2",
          "midi": 42,
          "time": 74.34780750000091,
          "velocity": 0.4409448818897638,
          "duration": 0.005434781250002629
        },
        {
          "name": "E3",
          "midi": 52,
          "time": 74.57606831250091,
          "velocity": 0.7165354330708661,
          "duration": 0.05434781249999787
        },
        {
          "name": "B4",
          "midi": 71,
          "time": 74.5978074375009,
          "velocity": 0.8661417322834646,
          "duration": 0.3206520937499988
        },
        {
          "name": "A1",
          "midi": 33,
          "time": 74.6032422187509,
          "velocity": 0.952755905511811,
          "duration": 0.1576086562500052
        },
        {
          "name": "E3",
          "midi": 52,
          "time": 74.6032422187509,
          "velocity": 0.7716535433070866,
          "duration": 0.24456515625000463
        },
        {
          "name": "E2",
          "midi": 40,
          "time": 74.60867700000091,
          "velocity": 0.9291338582677166,
          "duration": 0.005434781250002629
        },
        {
          "name": "F#2",
          "midi": 42,
          "time": 74.60867700000091,
          "velocity": 0.7086614173228346,
          "duration": 0.005434781250002629
        },
        {
          "name": "B3",
          "midi": 59,
          "time": 74.8369378125009,
          "velocity": 0.7874015748031497,
          "duration": 0.05434781249999787
        },
        {
          "name": "A1",
          "midi": 33,
          "time": 74.8641117187509,
          "velocity": 0.952755905511811,
          "duration": 0.1576086562500052
        },
        {
          "name": "B3",
          "midi": 59,
          "time": 74.8641117187509,
          "velocity": 0.84251968503937,
          "duration": 0.24456515625000463
        },
        {
          "name": "A4",
          "midi": 69,
          "time": 74.86954650000091,
          "velocity": 0.6299212598425197,
          "duration": 1.6521735000000604
        },
        {
          "name": "F#2",
          "midi": 42,
          "time": 74.86954650000091,
          "velocity": 0.4094488188976378,
          "duration": 0.005434781250002629
        },
        {
          "name": "F#2",
          "midi": 42,
          "time": 75.10324209375091,
          "velocity": 0.9212598425196851,
          "duration": 0.032608687500001565
        },
        {
          "name": "F#1",
          "midi": 30,
          "time": 75.1249812187509,
          "velocity": 0.8976377952755905,
          "duration": 0.16847821874999624
        },
        {
          "name": "A4",
          "midi": 69,
          "time": 75.1304160000009,
          "velocity": 0.7480314960629921,
          "duration": 2.5652167500000616
        },
        {
          "name": "F#2",
          "midi": 42,
          "time": 75.1304160000009,
          "velocity": 0.8976377952755905,
          "duration": 0.027173906249998936
        },
        {
          "name": "C2",
          "midi": 36,
          "time": 75.1304160000009,
          "velocity": 0.8818897637795275,
          "duration": 0.005434781250002629
        },
        {
          "name": "F#2",
          "midi": 42,
          "time": 75.1304160000009,
          "velocity": 0.9763779527559056,
          "duration": 0.27173906250000357
        },
        {
          "name": "C#3",
          "midi": 49,
          "time": 75.3586768125009,
          "velocity": 0.6141732283464567,
          "duration": 0.05434781250001208
        },
        {
          "name": "F#1",
          "midi": 30,
          "time": 75.3858507187509,
          "velocity": 0.8740157480314961,
          "duration": 0.1576086562500194
        },
        {
          "name": "C#3",
          "midi": 49,
          "time": 75.3858507187509,
          "velocity": 0.6692913385826772,
          "duration": 0.38586946875003036
        },
        {
          "name": "F#2",
          "midi": 42,
          "time": 75.39672028125091,
          "velocity": 0.4566929133858268,
          "duration": 0.26630428125001515
        },
        {
          "name": "G#3",
          "midi": 56,
          "time": 75.61954631250092,
          "velocity": 0.8503937007874016,
          "duration": 0.05434781250001208
        },
        {
          "name": "G#3",
          "midi": 56,
          "time": 75.64672021875091,
          "velocity": 0.905511811023622,
          "duration": 0.2554347187500241
        },
        {
          "name": "E2",
          "midi": 40,
          "time": 75.65215500000092,
          "velocity": 0.9291338582677166,
          "duration": 0.005434781250002629
        },
        {
          "name": "F#2",
          "midi": 42,
          "time": 75.65758978125092,
          "velocity": 0.7244094488188977,
          "duration": 0.26630428125002936
        },
        {
          "name": "F#1",
          "midi": 30,
          "time": 75.65758978125092,
          "velocity": 0.952755905511811,
          "duration": 0.15217387500001678
        },
        {
          "name": "C#3",
          "midi": 49,
          "time": 75.88041581250094,
          "velocity": 0.7086614173228346,
          "duration": 0.05434781250001208
        },
        {
          "name": "C#3",
          "midi": 49,
          "time": 75.90758971875094,
          "velocity": 0.7637795275590551,
          "duration": 0.6467389687500287
        },
        {
          "name": "C2",
          "midi": 36,
          "time": 75.91302450000094,
          "velocity": 0.5905511811023622,
          "duration": 0.005434781250002629
        },
        {
          "name": "F#1",
          "midi": 30,
          "time": 75.91302450000094,
          "velocity": 0.905511811023622,
          "duration": 0.1576086562500052
        },
        {
          "name": "F#2",
          "midi": 42,
          "time": 75.91845928125095,
          "velocity": 0.4330708661417323,
          "duration": 0.26630428125001515
        },
        {
          "name": "A3",
          "midi": 57,
          "time": 76.14128531250095,
          "velocity": 0.7952755905511811,
          "duration": 0.05434781250001208
        },
        {
          "name": "F#1",
          "midi": 30,
          "time": 76.16845921875095,
          "velocity": 0.952755905511811,
          "duration": 0.17391300000001308
        },
        {
          "name": "A3",
          "midi": 57,
          "time": 76.16845921875095,
          "velocity": 0.8503937007874016,
          "duration": 0.2554347187500099
        },
        {
          "name": "C2",
          "midi": 36,
          "time": 76.17389400000096,
          "velocity": 0.8818897637795275,
          "duration": 0.005434781250002629
        },
        {
          "name": "F#2",
          "midi": 42,
          "time": 76.17932878125096,
          "velocity": 0.7086614173228346,
          "duration": 0.2554347187500099
        },
        {
          "name": "G#3",
          "midi": 56,
          "time": 76.40215481250097,
          "velocity": 0.7716535433070866,
          "duration": 0.05434781249999787
        },
        {
          "name": "F#2",
          "midi": 42,
          "time": 76.42932871875097,
          "velocity": 0.4566929133858268,
          "duration": 0.26630428125000094
        },
        {
          "name": "G#3",
          "midi": 56,
          "time": 76.42932871875097,
          "velocity": 0.8267716535433071,
          "duration": 0.48913031249999506
        },
        {
          "name": "F#1",
          "midi": 30,
          "time": 76.43476350000097,
          "velocity": 0.8582677165354331,
          "duration": 0.15217387500000257
        },
        {
          "name": "C#3",
          "midi": 49,
          "time": 76.66302431250097,
          "velocity": 0.7165354330708661,
          "duration": 0.05434781249999787
        },
        {
          "name": "F#2",
          "midi": 42,
          "time": 76.69019821875096,
          "velocity": 0.6299212598425197,
          "duration": 0.26630428125000094
        },
        {
          "name": "C#3",
          "midi": 49,
          "time": 76.69019821875096,
          "velocity": 0.7716535433070866,
          "duration": 0.38586946875000194
        },
        {
          "name": "E2",
          "midi": 40,
          "time": 76.69563300000097,
          "velocity": 0.9291338582677166,
          "duration": 0.005434781250002629
        },
        {
          "name": "F#1",
          "midi": 30,
          "time": 76.70106778125097,
          "velocity": 0.9212598425196851,
          "duration": 0.16847821874999624
        },
        {
          "name": "G#3",
          "midi": 56,
          "time": 76.92389381250096,
          "velocity": 0.7874015748031497,
          "duration": 0.05434781249999787
        },
        {
          "name": "F#2",
          "midi": 42,
          "time": 76.95106771875096,
          "velocity": 0.4094488188976378,
          "duration": 0.14673909374999994
        },
        {
          "name": "G#3",
          "midi": 56,
          "time": 76.95106771875096,
          "velocity": 0.84251968503937,
          "duration": 0.24456515625000463
        },
        {
          "name": "F#1",
          "midi": 30,
          "time": 76.96193728125097,
          "velocity": 0.8661417322834646,
          "duration": 0.1413043124999973
        },
        {
          "name": "F#2",
          "midi": 42,
          "time": 77.19019809375096,
          "velocity": 0.9212598425196851,
          "duration": 0.027173906249998936
        },
        {
          "name": "F#2",
          "midi": 42,
          "time": 77.21193721875096,
          "velocity": 0.8976377952755905,
          "duration": 0.032608687500001565
        },
        {
          "name": "C2",
          "midi": 36,
          "time": 77.21737200000096,
          "velocity": 0.8661417322834646,
          "duration": 0.005434781250002629
        },
        {
          "name": "F#1",
          "midi": 30,
          "time": 77.21737200000096,
          "velocity": 0.9212598425196851,
          "duration": 0.16304343749999362
        },
        {
          "name": "F#2",
          "midi": 42,
          "time": 77.21737200000096,
          "velocity": 0.9763779527559056,
          "duration": 0.2608694999999983
        },
        {
          "name": "C#3",
          "midi": 49,
          "time": 77.44563281250096,
          "velocity": 0.6141732283464567,
          "duration": 0.05434781249999787
        },
        {
          "name": "A4",
          "midi": 69,
          "time": 77.46737193750096,
          "velocity": 0.8661417322834646,
          "duration": 0.49999987500002874
        },
        {
          "name": "F#2",
          "midi": 42,
          "time": 77.47280671875096,
          "velocity": 0.4409448818897638,
          "duration": 0.26630428125001515
        },
        {
          "name": "C#3",
          "midi": 49,
          "time": 77.47280671875096,
          "velocity": 0.6692913385826772,
          "duration": 0.38586946875001615
        },
        {
          "name": "F#1",
          "midi": 30,
          "time": 77.47824150000096,
          "velocity": 0.8267716535433071,
          "duration": 0.14673909374999994
        },
        {
          "name": "G#3",
          "midi": 56,
          "time": 77.70650231250097,
          "velocity": 0.8503937007874016,
          "duration": 0.05434781249999787
        },
        {
          "name": "A4",
          "midi": 69,
          "time": 77.71737187500098,
          "velocity": 0.8976377952755905,
          "duration": 1.581521343750083
        },
        {
          "name": "F#2",
          "midi": 42,
          "time": 77.73367621875097,
          "velocity": 0.7007874015748031,
          "duration": 0.26630428125001515
        },
        {
          "name": "G#3",
          "midi": 56,
          "time": 77.73367621875097,
          "velocity": 0.905511811023622,
          "duration": 0.24456515625001884
        },
        {
          "name": "E2",
          "midi": 40,
          "time": 77.73911100000097,
          "velocity": 0.9291338582677166,
          "duration": 0.005434781250002629
        },
        {
          "name": "F#1",
          "midi": 30,
          "time": 77.73911100000097,
          "velocity": 0.9212598425196851,
          "duration": 0.16304343750000783
        },
        {
          "name": "C#3",
          "midi": 49,
          "time": 77.96737181250099,
          "velocity": 0.7086614173228346,
          "duration": 0.05434781250001208
        },
        {
          "name": "F#2",
          "midi": 42,
          "time": 77.99454571875098,
          "velocity": 0.4251968503937008,
          "duration": 0.2771738437500204
        },
        {
          "name": "C#3",
          "midi": 49,
          "time": 77.99454571875098,
          "velocity": 0.7637795275590551,
          "duration": 0.24456515625001884
        },
        {
          "name": "C2",
          "midi": 36,
          "time": 77.99998050000099,
          "velocity": 0.5669291338582677,
          "duration": 0.005434781250002629
        },
        {
          "name": "F#1",
          "midi": 30,
          "time": 77.99998050000099,
          "velocity": 0.8110236220472441,
          "duration": 0.16847821875001046
        },
        {
          "name": "C#5",
          "midi": 73,
          "time": 78.01085006250099,
          "velocity": 0.8267716535433071,
          "duration": 0.5163042187500366
        },
        {
          "name": "A3",
          "midi": 57,
          "time": 78.228241312501,
          "velocity": 0.7952755905511811,
          "duration": 0.05434781250001208
        },
        {
          "name": "A3",
          "midi": 57,
          "time": 78.255415218751,
          "velocity": 0.8503937007874016,
          "duration": 0.2554347187500241
        },
        {
          "name": "C2",
          "midi": 36,
          "time": 78.260850000001,
          "velocity": 0.8740157480314961,
          "duration": 0.005434781250002629
        },
        {
          "name": "F#1",
          "midi": 30,
          "time": 78.260850000001,
          "velocity": 0.952755905511811,
          "duration": 0.16847821875001046
        },
        {
          "name": "F#2",
          "midi": 42,
          "time": 78.266284781251,
          "velocity": 0.6929133858267716,
          "duration": 0.26630428125002936
        },
        {
          "name": "G#3",
          "midi": 56,
          "time": 78.48911081250101,
          "velocity": 0.7716535433070866,
          "duration": 0.054347812500026293
        },
        {
          "name": "D5",
          "midi": 74,
          "time": 78.49998037500102,
          "velocity": 0.8818897637795275,
          "duration": 0.47826075000003243
        },
        {
          "name": "G#3",
          "midi": 56,
          "time": 78.51628471875102,
          "velocity": 0.8267716535433071,
          "duration": 0.4728259687500298
        },
        {
          "name": "F#2",
          "midi": 42,
          "time": 78.52715428125103,
          "velocity": 0.44881889763779526,
          "duration": 0.26630428125001515
        },
        {
          "name": "F#1",
          "midi": 30,
          "time": 78.52715428125103,
          "velocity": 0.8582677165354331,
          "duration": 0.15217387500000257
        },
        {
          "name": "C#3",
          "midi": 49,
          "time": 78.74998031250104,
          "velocity": 0.7165354330708661,
          "duration": 0.05434781250001208
        },
        {
          "name": "F#1",
          "midi": 30,
          "time": 78.77715421875104,
          "velocity": 0.937007874015748,
          "duration": 0.17934778125001571
        },
        {
          "name": "C#3",
          "midi": 49,
          "time": 78.77715421875104,
          "velocity": 0.7716535433070866,
          "duration": 0.24456515625001884
        },
        {
          "name": "E2",
          "midi": 40,
          "time": 78.78258900000104,
          "velocity": 0.9291338582677166,
          "duration": 0.005434781250002629
        },
        {
          "name": "F#2",
          "midi": 42,
          "time": 78.78802378125104,
          "velocity": 0.7244094488188977,
          "duration": 0.26630428125001515
        },
        {
          "name": "G#3",
          "midi": 56,
          "time": 79.01084981250105,
          "velocity": 0.7874015748031497,
          "duration": 0.05434781250001208
        },
        {
          "name": "A4",
          "midi": 69,
          "time": 79.03802371875105,
          "velocity": 0.8661417322834646,
          "duration": 0.4130433750000151
        },
        {
          "name": "F#1",
          "midi": 30,
          "time": 79.03802371875105,
          "velocity": 0.9212598425196851,
          "duration": 0.1576086562500194
        },
        {
          "name": "G#3",
          "midi": 56,
          "time": 79.03802371875105,
          "velocity": 0.84251968503937,
          "duration": 0.24456515625001884
        },
        {
          "name": "F#2",
          "midi": 42,
          "time": 79.04889328125105,
          "velocity": 0.3700787401574803,
          "duration": 0.1358695312500089
        },
        {
          "name": "D3",
          "midi": 50,
          "time": 79.27715409375107,
          "velocity": 0.9212598425196851,
          "duration": 0.05434781249999787
        },
        {
          "name": "C2",
          "midi": 36,
          "time": 79.30432800000106,
          "velocity": 0.8503937007874016,
          "duration": 0.005434781250002629
        },
        {
          "name": "D3",
          "midi": 50,
          "time": 79.30432800000106,
          "velocity": 0.9763779527559056,
          "duration": 0.7771737187500065
        },
        {
          "name": "E4",
          "midi": 64,
          "time": 79.30432800000106,
          "velocity": 0.5196850393700787,
          "duration": 0.5434781250000071
        },
        {
          "name": "A4",
          "midi": 69,
          "time": 79.30432800000106,
          "velocity": 0.5118110236220472,
          "duration": 0.46739118750001296
        },
        {
          "name": "F#2",
          "midi": 42,
          "time": 79.30976278125107,
          "velocity": 0.84251968503937,
          "duration": 0.005434781250002629
        },
        {
          "name": "D2",
          "midi": 38,
          "time": 79.30976278125107,
          "velocity": 0.9133858267716536,
          "duration": 0.13586953124999468
        },
        {
          "name": "A3",
          "midi": 57,
          "time": 79.53258881250106,
          "velocity": 0.6141732283464567,
          "duration": 0.05434781250001208
        },
        {
          "name": "A4",
          "midi": 69,
          "time": 79.54345837500107,
          "velocity": 0.7952755905511811,
          "duration": 0.5163042187500082
        },
        {
          "name": "A3",
          "midi": 57,
          "time": 79.55976271875106,
          "velocity": 0.6692913385826772,
          "duration": 0.5163042187500082
        },
        {
          "name": "D2",
          "midi": 38,
          "time": 79.56519750000106,
          "velocity": 0.8818897637795275,
          "duration": 0.16847821875001046
        },
        {
          "name": "F#2",
          "midi": 42,
          "time": 79.57063228125106,
          "velocity": 0.4330708661417323,
          "duration": 0.005434781250002629
        },
        {
          "name": "E4",
          "midi": 64,
          "time": 79.79345831250107,
          "velocity": 0.7952755905511811,
          "duration": 0.4130433750000151
        },
        {
          "name": "A4",
          "midi": 69,
          "time": 79.80432787500108,
          "velocity": 0.8267716535433071,
          "duration": 2.331521156250048
        },
        {
          "name": "F#2",
          "midi": 42,
          "time": 79.82063221875107,
          "velocity": 0.7559055118110236,
          "duration": 0.005434781250002629
        },
        {
          "name": "E4",
          "midi": 64,
          "time": 79.82063221875107,
          "velocity": 0.8503937007874016,
          "duration": 2.6358689062500673
        },
        {
          "name": "E2",
          "midi": 40,
          "time": 79.82606700000107,
          "velocity": 0.9291338582677166,
          "duration": 0.005434781250002629
        },
        {
          "name": "D2",
          "midi": 38,
          "time": 79.82606700000107,
          "velocity": 0.9133858267716536,
          "duration": 0.15760865624999099
        },
        {
          "name": "D5",
          "midi": 74,
          "time": 80.04889303125107,
          "velocity": 0.8818897637795275,
          "duration": 0.5163042187500224
        },
        {
          "name": "A3",
          "midi": 57,
          "time": 80.05432781250107,
          "velocity": 0.7086614173228346,
          "duration": 0.05434781250001208
        },
        {
          "name": "D3",
          "midi": 50,
          "time": 80.05976259375107,
          "velocity": 0.7401574803149606,
          "duration": 0.05434781250001208
        },
        {
          "name": "A3",
          "midi": 57,
          "time": 80.08150171875107,
          "velocity": 0.7637795275590551,
          "duration": 0.48369553125002085
        },
        {
          "name": "C2",
          "midi": 36,
          "time": 80.08693650000107,
          "velocity": 0.6377952755905512,
          "duration": 0.005434781250002629
        },
        {
          "name": "D2",
          "midi": 38,
          "time": 80.08693650000107,
          "velocity": 0.8031496062992126,
          "duration": 0.16847821875001046
        },
        {
          "name": "D3",
          "midi": 50,
          "time": 80.08693650000107,
          "velocity": 0.7952755905511811,
          "duration": 0.7771737187500349
        },
        {
          "name": "F#2",
          "midi": 42,
          "time": 80.09237128125108,
          "velocity": 0.44881889763779526,
          "duration": 0.005434781250002629
        },
        {
          "name": "D4",
          "midi": 62,
          "time": 80.31519731250108,
          "velocity": 0.7952755905511811,
          "duration": 0.05434781250001208
        },
        {
          "name": "D2",
          "midi": 38,
          "time": 80.34237121875108,
          "velocity": 0.9133858267716536,
          "duration": 0.16847821875001046
        },
        {
          "name": "D4",
          "midi": 62,
          "time": 80.34237121875108,
          "velocity": 0.8503937007874016,
          "duration": 0.38586946875003036
        },
        {
          "name": "C2",
          "midi": 36,
          "time": 80.34780600000109,
          "velocity": 0.8740157480314961,
          "duration": 0.005434781250002629
        },
        {
          "name": "F#2",
          "midi": 42,
          "time": 80.35324078125109,
          "velocity": 0.7559055118110236,
          "duration": 0.005434781250002629
        },
        {
          "name": "A3",
          "midi": 57,
          "time": 80.5760668125011,
          "velocity": 0.7716535433070866,
          "duration": 0.05434781250001208
        },
        {
          "name": "C#5",
          "midi": 73,
          "time": 80.59237115625109,
          "velocity": 0.9212598425196851,
          "duration": 0.48369553125002085
        },
        {
          "name": "A3",
          "midi": 57,
          "time": 80.6032407187511,
          "velocity": 0.8267716535433071,
          "duration": 0.38586946875001615
        },
        {
          "name": "F#2",
          "midi": 42,
          "time": 80.6141102812511,
          "velocity": 0.44881889763779526,
          "duration": 0.005434781250002629
        },
        {
          "name": "D2",
          "midi": 38,
          "time": 80.6141102812511,
          "velocity": 0.7401574803149606,
          "duration": 0.16304343750000783
        },
        {
          "name": "D4",
          "midi": 62,
          "time": 80.84237109375111,
          "velocity": 0.5669291338582677,
          "duration": 0.05434781249999787
        },
        {
          "name": "D3",
          "midi": 50,
          "time": 80.84237109375111,
          "velocity": 0.7165354330708661,
          "duration": 0.05434781249999787
        },
        {
          "name": "E2",
          "midi": 40,
          "time": 80.86954500000111,
          "velocity": 0.9291338582677166,
          "duration": 0.005434781250002629
        },
        {
          "name": "F#2",
          "midi": 42,
          "time": 80.86954500000111,
          "velocity": 0.7086614173228346,
          "duration": 0.005434781250002629
        },
        {
          "name": "D4",
          "midi": 62,
          "time": 80.86954500000111,
          "velocity": 0.6220472440944882,
          "duration": 0.38586946875000194
        },
        {
          "name": "D3",
          "midi": 50,
          "time": 80.86954500000111,
          "velocity": 0.7716535433070866,
          "duration": 0.516304218749994
        },
        {
          "name": "D2",
          "midi": 38,
          "time": 80.87497978125111,
          "velocity": 0.8976377952755905,
          "duration": 0.16847821874999624
        },
        {
          "name": "A3",
          "midi": 57,
          "time": 81.09780581250111,
          "velocity": 0.7874015748031497,
          "duration": 0.05434781250001208
        },
        {
          "name": "A3",
          "midi": 57,
          "time": 81.1249797187511,
          "velocity": 0.84251968503937,
          "duration": 0.24456515625000463
        },
        {
          "name": "B4",
          "midi": 71,
          "time": 81.13584928125111,
          "velocity": 0.905511811023622,
          "duration": 0.36956512499999405
        },
        {
          "name": "F#2",
          "midi": 42,
          "time": 81.13584928125111,
          "velocity": 0.33070866141732286,
          "duration": 0.005434781250002629
        },
        {
          "name": "E2",
          "midi": 40,
          "time": 81.13584928125111,
          "velocity": 0.8031496062992126,
          "duration": 0.17391299999999887
        },
        {
          "name": "E3",
          "midi": 52,
          "time": 81.36411009375111,
          "velocity": 0.9212598425196851,
          "duration": 0.05434781249999787
        },
        {
          "name": "F#2",
          "midi": 42,
          "time": 81.39128400000111,
          "velocity": 0.84251968503937,
          "duration": 0.005434781250002629
        },
        {
          "name": "C2",
          "midi": 36,
          "time": 81.39128400000111,
          "velocity": 0.8740157480314961,
          "duration": 0.005434781250002629
        },
        {
          "name": "E3",
          "midi": 52,
          "time": 81.39128400000111,
          "velocity": 0.8976377952755905,
          "duration": 0.7663041562500297
        },
        {
          "name": "E2",
          "midi": 40,
          "time": 81.39671878125111,
          "velocity": 0.8818897637795275,
          "duration": 0.16847821874999624
        },
        {
          "name": "B3",
          "midi": 59,
          "time": 81.6195448125011,
          "velocity": 0.6141732283464567,
          "duration": 0.05434781250001208
        },
        {
          "name": "B4",
          "midi": 71,
          "time": 81.6467187187511,
          "velocity": 0.9212598425196851,
          "duration": 0.26630428125001515
        },
        {
          "name": "E2",
          "midi": 40,
          "time": 81.6467187187511,
          "velocity": 0.7086614173228346,
          "duration": 0.14130431250001152
        },
        {
          "name": "B3",
          "midi": 59,
          "time": 81.6467187187511,
          "velocity": 0.6692913385826772,
          "duration": 0.38586946875003036
        },
        {
          "name": "F#2",
          "midi": 42,
          "time": 81.65758828125111,
          "velocity": 0.5196850393700787,
          "duration": 0.005434781250002629
        },
        {
          "name": "F#4",
          "midi": 66,
          "time": 81.88041431250112,
          "velocity": 0.8503937007874016,
          "duration": 0.05434781250001208
        },
        {
          "name": "E2",
          "midi": 40,
          "time": 81.90758821875112,
          "velocity": 0.8818897637795275,
          "duration": 0.010869562500005259
        },
        {
          "name": "F#4",
          "midi": 66,
          "time": 81.90758821875112,
          "velocity": 0.7637795275590551,
          "duration": 0.38586946875003036
        },
        {
          "name": "E2",
          "midi": 40,
          "time": 81.91302300000112,
          "velocity": 0.9291338582677166,
          "duration": 0.16847821875001046
        },
        {
          "name": "A4",
          "midi": 69,
          "time": 81.91845778125112,
          "velocity": 0.7716535433070866,
          "duration": 1.2499996875000363
        },
        {
          "name": "F#2",
          "midi": 42,
          "time": 81.91845778125112,
          "velocity": 0.7480314960629921,
          "duration": 0.005434781250002629
        },
        {
          "name": "B3",
          "midi": 59,
          "time": 82.14128381250113,
          "velocity": 0.7086614173228346,
          "duration": 0.05434781250001208
        },
        {
          "name": "E3",
          "midi": 52,
          "time": 82.14671859375113,
          "velocity": 0.7480314960629921,
          "duration": 0.05434781250001208
        },
        {
          "name": "C#5",
          "midi": 73,
          "time": 82.15758815625114,
          "velocity": 0.889763779527559,
          "duration": 0.5054346562500172
        },
        {
          "name": "F#2",
          "midi": 42,
          "time": 82.16845771875114,
          "velocity": 0.4251968503937008,
          "duration": 0.005434781250002629
        },
        {
          "name": "E2",
          "midi": 40,
          "time": 82.16845771875114,
          "velocity": 0.7401574803149606,
          "duration": 0.17391299999999887
        },
        {
          "name": "B3",
          "midi": 59,
          "time": 82.16845771875114,
          "velocity": 0.7637795275590551,
          "duration": 0.38586946875000194
        },
        {
          "name": "C2",
          "midi": 36,
          "time": 82.17389250000114,
          "velocity": 0.5984251968503937,
          "duration": 0.005434781250002629
        },
        {
          "name": "E3",
          "midi": 52,
          "time": 82.17389250000114,
          "velocity": 0.8031496062992126,
          "duration": 0.7336954687500139
        },
        {
          "name": "E4",
          "midi": 64,
          "time": 82.40215331250114,
          "velocity": 0.7952755905511811,
          "duration": 0.4130433750000151
        },
        {
          "name": "E2",
          "midi": 40,
          "time": 82.42932721875114,
          "velocity": 0.8346456692913385,
          "duration": 0.1358695312500089
        },
        {
          "name": "E4",
          "midi": 64,
          "time": 82.42932721875114,
          "velocity": 0.8503937007874016,
          "duration": 0.8097824062500081
        },
        {
          "name": "F#2",
          "midi": 42,
          "time": 82.43476200000114,
          "velocity": 0.7244094488188977,
          "duration": 0.005434781250002629
        },
        {
          "name": "C2",
          "midi": 36,
          "time": 82.43476200000114,
          "velocity": 0.8661417322834646,
          "duration": 0.005434781250002629
        },
        {
          "name": "A4",
          "midi": 69,
          "time": 82.65758803125115,
          "velocity": 0.7322834645669292,
          "duration": 1.5706517812500067
        },
        {
          "name": "B3",
          "midi": 59,
          "time": 82.66302281250115,
          "velocity": 0.7716535433070866,
          "duration": 0.05434781249999787
        },
        {
          "name": "F#2",
          "midi": 42,
          "time": 82.69019671875115,
          "velocity": 0.36220472440944884,
          "duration": 0.005434781250002629
        },
        {
          "name": "E2",
          "midi": 40,
          "time": 82.69019671875115,
          "velocity": 0.6614173228346457,
          "duration": 0.16847821875001046
        },
        {
          "name": "B3",
          "midi": 59,
          "time": 82.69019671875115,
          "velocity": 0.7795275590551181,
          "duration": 0.7771737187499923
        },
        {
          "name": "E3",
          "midi": 52,
          "time": 82.92389231250115,
          "velocity": 0.7165354330708661,
          "duration": 0.05434781249999787
        },
        {
          "name": "F#2",
          "midi": 42,
          "time": 82.95106621875115,
          "velocity": 0.7086614173228346,
          "duration": 0.005434781250002629
        },
        {
          "name": "E2",
          "midi": 40,
          "time": 82.95106621875115,
          "velocity": 0.8976377952755905,
          "duration": 0.010869562500005259
        },
        {
          "name": "E3",
          "midi": 52,
          "time": 82.95106621875115,
          "velocity": 0.7007874015748031,
          "duration": 0.24456515625000463
        },
        {
          "name": "E2",
          "midi": 40,
          "time": 82.95650100000115,
          "velocity": 0.9291338582677166,
          "duration": 0.15217387500000257
        },
        {
          "name": "E4",
          "midi": 64,
          "time": 83.18476181250115,
          "velocity": 0.7874015748031497,
          "duration": 0.2826086249999946
        },
        {
          "name": "A4",
          "midi": 69,
          "time": 83.21193571875115,
          "velocity": 0.7165354330708661,
          "duration": 4.163042437500067
        },
        {
          "name": "E2",
          "midi": 40,
          "time": 83.21193571875115,
          "velocity": 0.8188976377952756,
          "duration": 0.1793477812500015
        },
        {
          "name": "E4",
          "midi": 64,
          "time": 83.21193571875115,
          "velocity": 0.6692913385826772,
          "duration": 4.1739120000000725
        },
        {
          "name": "F#2",
          "midi": 42,
          "time": 83.21737050000115,
          "velocity": 0.4015748031496063,
          "duration": 0.005434781250002629
        },
        {
          "name": "F#2",
          "midi": 42,
          "time": 83.45106609375115,
          "velocity": 0.9212598425196851,
          "duration": 0.038043468750004195
        },
        {
          "name": "C2",
          "midi": 36,
          "time": 83.47824000000115,
          "velocity": 0.8740157480314961,
          "duration": 0.005434781250002629
        },
        {
          "name": "F#2",
          "midi": 42,
          "time": 83.47824000000115,
          "velocity": 0.8976377952755905,
          "duration": 0.027173906249998936
        },
        {
          "name": "F#2",
          "midi": 42,
          "time": 83.47824000000115,
          "velocity": 0.9763779527559056,
          "duration": 0.19021734374999255
        },
        {
          "name": "F#2",
          "midi": 42,
          "time": 83.48367478125115,
          "velocity": 0.84251968503937,
          "duration": 0.2608694999999983
        },
        {
          "name": "C#3",
          "midi": 49,
          "time": 83.70650081250115,
          "velocity": 0.6141732283464567,
          "duration": 0.05434781249999787
        },
        {
          "name": "C#3",
          "midi": 49,
          "time": 83.73367471875115,
          "velocity": 0.6692913385826772,
          "duration": 0.38586946875000194
        },
        {
          "name": "F#2",
          "midi": 42,
          "time": 83.73910950000115,
          "velocity": 0.4566929133858268,
          "duration": 0.19021734374999255
        },
        {
          "name": "F#2",
          "midi": 42,
          "time": 83.74454428125115,
          "velocity": 0.8976377952755905,
          "duration": 0.2608694999999983
        },
        {
          "name": "G#3",
          "midi": 56,
          "time": 83.96737031250115,
          "velocity": 0.8503937007874016,
          "duration": 0.05434781249999787
        },
        {
          "name": "G#3",
          "midi": 56,
          "time": 83.99454421875114,
          "velocity": 0.905511811023622,
          "duration": 0.2554347187500099
        },
        {
          "name": "E2",
          "midi": 40,
          "time": 83.99997900000115,
          "velocity": 0.9291338582677166,
          "duration": 0.005434781250002629
        },
        {
          "name": "F#2",
          "midi": 42,
          "time": 83.99997900000115,
          "velocity": 0.6771653543307087,
          "duration": 0.1576086562500052
        },
        {
          "name": "F#2",
          "midi": 42,
          "time": 84.00541378125115,
          "velocity": 0.8267716535433071,
          "duration": 0.2608695000000125
        },
        {
          "name": "C#3",
          "midi": 49,
          "time": 84.22823981250116,
          "velocity": 0.7086614173228346,
          "duration": 0.05434781249999787
        },
        {
          "name": "C#3",
          "midi": 49,
          "time": 84.25541371875116,
          "velocity": 0.7637795275590551,
          "duration": 0.6467389687500287
        },
        {
          "name": "F#2",
          "midi": 42,
          "time": 84.26084850000116,
          "velocity": 0.49606299212598426,
          "duration": 0.16847821874999624
        },
        {
          "name": "C2",
          "midi": 36,
          "time": 84.26084850000116,
          "velocity": 0.5905511811023622,
          "duration": 0.005434781250002629
        },
        {
          "name": "F#2",
          "midi": 42,
          "time": 84.26628328125116,
          "velocity": 0.9448818897637795,
          "duration": 0.26630428125000094
        },
        {
          "name": "A3",
          "midi": 57,
          "time": 84.48910931250116,
          "velocity": 0.7952755905511811,
          "duration": 0.05434781250001208
        },
        {
          "name": "F#2",
          "midi": 42,
          "time": 84.51628321875116,
          "velocity": 0.9448818897637795,
          "duration": 0.14673909375001415
        },
        {
          "name": "A3",
          "midi": 57,
          "time": 84.51628321875116,
          "velocity": 0.8503937007874016,
          "duration": 0.2554347187500099
        },
        {
          "name": "C2",
          "midi": 36,
          "time": 84.52171800000116,
          "velocity": 0.8740157480314961,
          "duration": 0.005434781250002629
        },
        {
          "name": "F#2",
          "midi": 42,
          "time": 84.52715278125116,
          "velocity": 0.7244094488188977,
          "duration": 0.26630428125001515
        },
        {
          "name": "G#3",
          "midi": 56,
          "time": 84.74997881250117,
          "velocity": 0.7716535433070866,
          "duration": 0.05434781250001208
        },
        {
          "name": "F#2",
          "midi": 42,
          "time": 84.77715271875117,
          "velocity": 0.8976377952755905,
          "duration": 0.17391300000001308
        },
        {
          "name": "G#3",
          "midi": 56,
          "time": 84.77715271875117,
          "velocity": 0.8267716535433071,
          "duration": 0.4891303125000235
        },
        {
          "name": "F#2",
          "midi": 42,
          "time": 84.78802228125117,
          "velocity": 0.36220472440944884,
          "duration": 0.26630428125001515
        },
        {
          "name": "C#3",
          "midi": 49,
          "time": 85.01084831250118,
          "velocity": 0.7165354330708661,
          "duration": 0.05434781250001208
        },
        {
          "name": "C#3",
          "midi": 49,
          "time": 85.03802221875118,
          "velocity": 0.7716535433070866,
          "duration": 0.38586946875001615
        },
        {
          "name": "E2",
          "midi": 40,
          "time": 85.04345700000118,
          "velocity": 0.9291338582677166,
          "duration": 0.005434781250002629
        },
        {
          "name": "F#2",
          "midi": 42,
          "time": 85.04345700000118,
          "velocity": 0.8976377952755905,
          "duration": 0.17391300000001308
        },
        {
          "name": "F#2",
          "midi": 42,
          "time": 85.04889178125119,
          "velocity": 0.7716535433070866,
          "duration": 0.2554347187500099
        },
        {
          "name": "G#3",
          "midi": 56,
          "time": 85.2717178125012,
          "velocity": 0.7874015748031497,
          "duration": 0.05434781249999787
        },
        {
          "name": "F#2",
          "midi": 42,
          "time": 85.2988917187512,
          "velocity": 0.4409448818897638,
          "duration": 0.14673909374999994
        },
        {
          "name": "F#2",
          "midi": 42,
          "time": 85.2988917187512,
          "velocity": 0.8976377952755905,
          "duration": 0.16847821874999624
        },
        {
          "name": "G#3",
          "midi": 56,
          "time": 85.2988917187512,
          "velocity": 0.84251968503937,
          "duration": 0.24456515625000463
        },
        {
          "name": "F#2",
          "midi": 42,
          "time": 85.5380220937512,
          "velocity": 0.9212598425196851,
          "duration": 0.038043468750004195
        },
        {
          "name": "F#2",
          "midi": 42,
          "time": 85.55976121875119,
          "velocity": 0.8267716535433071,
          "duration": 0.032608687500001565
        },
        {
          "name": "C2",
          "midi": 36,
          "time": 85.5651960000012,
          "velocity": 0.905511811023622,
          "duration": 0.005434781250002629
        },
        {
          "name": "F#2",
          "midi": 42,
          "time": 85.5651960000012,
          "velocity": 0.9763779527559056,
          "duration": 0.16847821874999624
        },
        {
          "name": "F#2",
          "midi": 42,
          "time": 85.5706307812512,
          "velocity": 0.84251968503937,
          "duration": 0.26630428125000094
        },
        {
          "name": "C#3",
          "midi": 49,
          "time": 85.79345681250119,
          "velocity": 0.6141732283464567,
          "duration": 0.05434781250001208
        },
        {
          "name": "F#2",
          "midi": 42,
          "time": 85.82063071875119,
          "velocity": 0.9448818897637795,
          "duration": 0.16847821875001046
        },
        {
          "name": "C#3",
          "midi": 49,
          "time": 85.82063071875119,
          "velocity": 0.6692913385826772,
          "duration": 0.38586946875001615
        },
        {
          "name": "F#2",
          "midi": 42,
          "time": 85.8315002812512,
          "velocity": 0.4094488188976378,
          "duration": 0.2608695000000125
        },
        {
          "name": "G#3",
          "midi": 56,
          "time": 86.0543263125012,
          "velocity": 0.8503937007874016,
          "duration": 0.05434781249999787
        },
        {
          "name": "E2",
          "midi": 40,
          "time": 86.0706306562512,
          "velocity": 0.6456692913385826,
          "duration": 0.005434781250002629
        },
        {
          "name": "F#2",
          "midi": 42,
          "time": 86.0815002187512,
          "velocity": 0.8503937007874016,
          "duration": 0.1358695312500089
        },
        {
          "name": "G#3",
          "midi": 56,
          "time": 86.0815002187512,
          "velocity": 0.905511811023622,
          "duration": 0.24456515625001884
        },
        {
          "name": "E2",
          "midi": 40,
          "time": 86.0869350000012,
          "velocity": 0.9291338582677166,
          "duration": 0.005434781250002629
        },
        {
          "name": "F#2",
          "midi": 42,
          "time": 86.0869350000012,
          "velocity": 0.7086614173228346,
          "duration": 0.2717390625000178
        },
        {
          "name": "C#3",
          "midi": 49,
          "time": 86.31519581250122,
          "velocity": 0.7086614173228346,
          "duration": 0.05434781250001208
        },
        {
          "name": "F2",
          "midi": 41,
          "time": 86.34236971875121,
          "velocity": 0.33858267716535434,
          "duration": 0.005434781250002629
        },
        {
          "name": "G2",
          "midi": 43,
          "time": 86.34236971875121,
          "velocity": 0.4645669291338583,
          "duration": 0.005434781250002629
        },
        {
          "name": "F#2",
          "midi": 42,
          "time": 86.34236971875121,
          "velocity": 0.8740157480314961,
          "duration": 0.13043475000000626
        },
        {
          "name": "C#3",
          "midi": 49,
          "time": 86.34236971875121,
          "velocity": 0.7637795275590551,
          "duration": 0.5163042187500082
        },
        {
          "name": "C2",
          "midi": 36,
          "time": 86.34780450000122,
          "velocity": 0.5748031496062992,
          "duration": 0.005434781250002629
        },
        {
          "name": "F#2",
          "midi": 42,
          "time": 86.35323928125122,
          "velocity": 0.3858267716535433,
          "duration": 0.26630428125000094
        },
        {
          "name": "A3",
          "midi": 57,
          "time": 86.57606531250121,
          "velocity": 0.7952755905511811,
          "duration": 0.05434781250001208
        },
        {
          "name": "F2",
          "midi": 41,
          "time": 86.60323921875121,
          "velocity": 0.5354330708661418,
          "duration": 0.005434781250002629
        },
        {
          "name": "G2",
          "midi": 43,
          "time": 86.60323921875121,
          "velocity": 0.6141732283464567,
          "duration": 0.005434781250002629
        },
        {
          "name": "F#2",
          "midi": 42,
          "time": 86.60323921875121,
          "velocity": 0.8740157480314961,
          "duration": 0.14673909375001415
        },
        {
          "name": "A3",
          "midi": 57,
          "time": 86.60323921875121,
          "velocity": 0.8503937007874016,
          "duration": 0.2554347187500099
        },
        {
          "name": "C2",
          "midi": 36,
          "time": 86.60867400000122,
          "velocity": 0.8582677165354331,
          "duration": 0.005434781250002629
        },
        {
          "name": "F#2",
          "midi": 42,
          "time": 86.61410878125122,
          "velocity": 0.7716535433070866,
          "duration": 0.2554347187500099
        },
        {
          "name": "G#3",
          "midi": 56,
          "time": 86.83693481250123,
          "velocity": 0.7716535433070866,
          "duration": 0.05434781249999787
        },
        {
          "name": "F#2",
          "midi": 42,
          "time": 86.86410871875123,
          "velocity": 0.3858267716535433,
          "duration": 0.15217387500000257
        },
        {
          "name": "F2",
          "midi": 41,
          "time": 86.86410871875123,
          "velocity": 0.6692913385826772,
          "duration": 0.005434781250002629
        },
        {
          "name": "G2",
          "midi": 43,
          "time": 86.86410871875123,
          "velocity": 0.7952755905511811,
          "duration": 0.005434781250002629
        },
        {
          "name": "G#3",
          "midi": 56,
          "time": 86.86410871875123,
          "velocity": 0.8267716535433071,
          "duration": 0.4728259687500014
        },
        {
          "name": "F#2",
          "midi": 42,
          "time": 86.87497828125123,
          "velocity": 0.8976377952755905,
          "duration": 0.4184781562499893
        },
        {
          "name": "C#3",
          "midi": 49,
          "time": 87.10323909375123,
          "velocity": 0.7165354330708661,
          "duration": 0.038043468750004195
        },
        {
          "name": "C#3",
          "midi": 49,
          "time": 87.12497821875122,
          "velocity": 0.7716535433070866,
          "duration": 0.032608687500001565
        },
        {
          "name": "E2",
          "midi": 40,
          "time": 87.13041300000123,
          "velocity": 0.9291338582677166,
          "duration": 0.005434781250002629
        },
        {
          "name": "C#3",
          "midi": 49,
          "time": 87.13584778125123,
          "velocity": 0.8188976377952756,
          "duration": 0.3749999062500109
        },
        {
          "name": "F2",
          "midi": 41,
          "time": 87.13584778125123,
          "velocity": 0.8503937007874016,
          "duration": 0.005434781250002629
        },
        {
          "name": "F#2",
          "midi": 42,
          "time": 87.13584778125123,
          "velocity": 0.952755905511811,
          "duration": 0.3967390312500072
        },
        {
          "name": "G#3",
          "midi": 56,
          "time": 87.35867381250122,
          "velocity": 0.7874015748031497,
          "duration": 0.05434781249999787
        },
        {
          "name": "G#3",
          "midi": 56,
          "time": 87.38584771875122,
          "velocity": 0.84251968503937,
          "duration": 0.24456515625003306
        },
        {
          "name": "F#2",
          "midi": 42,
          "time": 87.39671728125123,
          "velocity": 0.8031496062992126,
          "duration": 0.16304343750002204
        },
        {
          "name": "F2",
          "midi": 41,
          "time": 87.41302162500122,
          "velocity": 0.9133858267716536,
          "duration": 0.06521737500001734
        },
        {
          "name": "C3",
          "midi": 48,
          "time": 87.41302162500122,
          "velocity": 0.9133858267716536,
          "duration": 0.06521737500001734
        },
        {
          "name": "A3",
          "midi": 57,
          "time": 87.41302162500122,
          "velocity": 0.9133858267716536,
          "duration": 0.06521737500001734
        },
        {
          "name": "C4",
          "midi": 60,
          "time": 87.41302162500122,
          "velocity": 0.9133858267716536,
          "duration": 0.06521737500001734
        },
        {
          "name": "F4",
          "midi": 65,
          "time": 87.41302162500122,
          "velocity": 0.9133858267716536,
          "duration": 0.06521737500001734
        },
        {
          "name": "F2",
          "midi": 41,
          "time": 87.42932596875123,
          "velocity": 0.9133858267716536,
          "duration": 0.0978260625000047
        },
        {
          "name": "C3",
          "midi": 48,
          "time": 87.42932596875123,
          "velocity": 0.9133858267716536,
          "duration": 0.0978260625000047
        },
        {
          "name": "A3",
          "midi": 57,
          "time": 87.42932596875123,
          "velocity": 0.9133858267716536,
          "duration": 0.0978260625000047
        },
        {
          "name": "C4",
          "midi": 60,
          "time": 87.42932596875123,
          "velocity": 0.9133858267716536,
          "duration": 0.0978260625000047
        },
        {
          "name": "F4",
          "midi": 65,
          "time": 87.42932596875123,
          "velocity": 0.9133858267716536,
          "duration": 0.0978260625000047
        },
        {
          "name": "C4",
          "midi": 60,
          "time": 87.53258681250124,
          "velocity": 0.937007874015748,
          "duration": 0.05434781250001208
        },
        {
          "name": "F2",
          "midi": 41,
          "time": 87.53802159375124,
          "velocity": 0.937007874015748,
          "duration": 0.05434781250001208
        },
        {
          "name": "C3",
          "midi": 48,
          "time": 87.53802159375124,
          "velocity": 0.937007874015748,
          "duration": 0.05434781250001208
        },
        {
          "name": "A3",
          "midi": 57,
          "time": 87.53802159375124,
          "velocity": 0.937007874015748,
          "duration": 0.05434781250001208
        },
        {
          "name": "F4",
          "midi": 65,
          "time": 87.53802159375124,
          "velocity": 0.937007874015748,
          "duration": 0.05434781250001208
        },
        {
          "name": "C4",
          "midi": 60,
          "time": 87.54889115625124,
          "velocity": 0.937007874015748,
          "duration": 0.05434781250001208
        },
        {
          "name": "F2",
          "midi": 41,
          "time": 87.55432593750125,
          "velocity": 0.937007874015748,
          "duration": 0.05434781250001208
        },
        {
          "name": "C3",
          "midi": 48,
          "time": 87.55432593750125,
          "velocity": 0.937007874015748,
          "duration": 0.05434781250001208
        },
        {
          "name": "A3",
          "midi": 57,
          "time": 87.55432593750125,
          "velocity": 0.937007874015748,
          "duration": 0.05434781250001208
        },
        {
          "name": "F4",
          "midi": 65,
          "time": 87.55432593750125,
          "velocity": 0.937007874015748,
          "duration": 0.05434781250001208
        },
        {
          "name": "F4",
          "midi": 65,
          "time": 87.64128243750126,
          "velocity": 0.9448818897637795,
          "duration": 3.907607718750114
        },
        {
          "name": "A3",
          "midi": 57,
          "time": 87.64671721875126,
          "velocity": 0.9212598425196851,
          "duration": 0.010869562500005259
        },
        {
          "name": "C4",
          "midi": 60,
          "time": 87.64671721875126,
          "velocity": 0.9763779527559056,
          "duration": 3.907607718750114
        },
        {
          "name": "C3",
          "midi": 48,
          "time": 87.64671721875126,
          "velocity": 0.9291338582677166,
          "duration": 3.907607718750114
        },
        {
          "name": "F2",
          "midi": 41,
          "time": 87.64671721875126,
          "velocity": 1,
          "duration": 0.20652168750001465
        },
        {
          "name": "A3",
          "midi": 57,
          "time": 87.65215200000127,
          "velocity": 0.84251968503937,
          "duration": 3.9021729375001115
        },
        {
          "name": "D#3",
          "midi": 51,
          "time": 87.65215200000127,
          "velocity": 0.8976377952755905,
          "duration": 0.005434781250002629
        },
        {
          "name": "C2",
          "midi": 36,
          "time": 87.65215200000127,
          "velocity": 0.8818897637795275,
          "duration": 0.005434781250002629
        },
        {
          "name": "F2",
          "midi": 41,
          "time": 87.65758678125127,
          "velocity": 0.952755905511811,
          "duration": 0.46195640625001033
        },
        {
          "name": "F4",
          "midi": 65,
          "time": 87.65758678125127,
          "velocity": 0.9448818897637795,
          "duration": 3.907607718750114
        },
        {
          "name": "A3",
          "midi": 57,
          "time": 87.66302156250127,
          "velocity": 0.9212598425196851,
          "duration": 3.907607718750114
        },
        {
          "name": "C4",
          "midi": 60,
          "time": 87.66302156250127,
          "velocity": 0.9763779527559056,
          "duration": 3.907607718750114
        },
        {
          "name": "C3",
          "midi": 48,
          "time": 87.66302156250127,
          "velocity": 0.9291338582677166,
          "duration": 3.907607718750114
        },
        {
          "name": "F2",
          "midi": 41,
          "time": 87.66302156250127,
          "velocity": 1,
          "duration": 0.9728258437500301
        },
        {
          "name": "D#3",
          "midi": 51,
          "time": 87.90758671875128,
          "velocity": 0.3858267716535433,
          "duration": 0.005434781250002629
        },
        {
          "name": "A5",
          "midi": 81,
          "time": 87.91302150000128,
          "velocity": 0.9212598425196851,
          "duration": 0.239130375000002
        },
        {
          "name": "A4",
          "midi": 69,
          "time": 87.91302150000128,
          "velocity": 0.8346456692913385,
          "duration": 0.2608694999999983
        },
        {
          "name": "F2",
          "midi": 41,
          "time": 87.91845628125128,
          "velocity": 0.8346456692913385,
          "duration": 0.9728258437500159
        },
        {
          "name": "F3",
          "midi": 53,
          "time": 88.16845621875127,
          "velocity": 0.9291338582677166,
          "duration": 0.005434781250002629
        },
        {
          "name": "E2",
          "midi": 40,
          "time": 88.17389100000128,
          "velocity": 0.9291338582677166,
          "duration": 0.005434781250002629
        },
        {
          "name": "D#3",
          "midi": 51,
          "time": 88.17389100000128,
          "velocity": 0.7952755905511811,
          "duration": 0.005434781250002629
        },
        {
          "name": "F1",
          "midi": 29,
          "time": 88.17389100000128,
          "velocity": 0.952755905511811,
          "duration": 0.24999993750000726
        },
        {
          "name": "A5",
          "midi": 81,
          "time": 88.17932578125128,
          "velocity": 0.8740157480314961,
          "duration": 0.21195646875000307
        },
        {
          "name": "A4",
          "midi": 69,
          "time": 88.17932578125128,
          "velocity": 0.7952755905511811,
          "duration": 0.239130375000002
        },
        {
          "name": "A5",
          "midi": 81,
          "time": 88.42389093750128,
          "velocity": 0.9212598425196851,
          "duration": 0.40217381250002404
        },
        {
          "name": "A4",
          "midi": 69,
          "time": 88.42389093750128,
          "velocity": 0.8346456692913385,
          "duration": 0.4184781562500177
        },
        {
          "name": "C2",
          "midi": 36,
          "time": 88.43476050000129,
          "velocity": 0.6377952755905512,
          "duration": 0.005434781250002629
        },
        {
          "name": "D#3",
          "midi": 51,
          "time": 88.44019528125129,
          "velocity": 0.2755905511811024,
          "duration": 0.005434781250002629
        },
        {
          "name": "F2",
          "midi": 41,
          "time": 88.44019528125129,
          "velocity": 0.9291338582677166,
          "duration": 0.7336954687499997
        },
        {
          "name": "F3",
          "midi": 53,
          "time": 88.6901952187513,
          "velocity": 0.9291338582677166,
          "duration": 0.005434781250002629
        },
        {
          "name": "C2",
          "midi": 36,
          "time": 88.6956300000013,
          "velocity": 0.8582677165354331,
          "duration": 0.005434781250002629
        },
        {
          "name": "D#3",
          "midi": 51,
          "time": 88.7010647812513,
          "velocity": 0.7716535433070866,
          "duration": 0.005434781250002629
        },
        {
          "name": "F2",
          "midi": 41,
          "time": 88.7010647812513,
          "velocity": 0.7165354330708661,
          "duration": 0.9293475937499949
        },
        {
          "name": "C5",
          "midi": 72,
          "time": 88.7010647812513,
          "velocity": 0.6771653543307087,
          "duration": 1.0597823437500011
        },
        {
          "name": "C6",
          "midi": 84,
          "time": 88.7010647812513,
          "velocity": 0.8661417322834646,
          "duration": 1.0597823437500011
        },
        {
          "name": "C6",
          "midi": 84,
          "time": 88.71736912500131,
          "velocity": 0.984251968503937,
          "duration": 1.0923910312500027
        },
        {
          "name": "G5",
          "midi": 79,
          "time": 88.94019515625129,
          "velocity": 0.9212598425196851,
          "duration": 0.22826081249999675
        },
        {
          "name": "G4",
          "midi": 67,
          "time": 88.94019515625129,
          "velocity": 0.8346456692913385,
          "duration": 0.2608694999999983
        },
        {
          "name": "D#3",
          "midi": 51,
          "time": 88.95649950000129,
          "velocity": 0.31496062992125984,
          "duration": 0.005434781250002629
        },
        {
          "name": "F2",
          "midi": 41,
          "time": 88.95649950000129,
          "velocity": 0.9133858267716536,
          "duration": 0.9836954062500212
        },
        {
          "name": "G5",
          "midi": 79,
          "time": 89.2064994375013,
          "velocity": 0.905511811023622,
          "duration": 0.23369559374999938
        },
        {
          "name": "G4",
          "midi": 67,
          "time": 89.2064994375013,
          "velocity": 0.8267716535433071,
          "duration": 0.2608694999999983
        },
        {
          "name": "D#3",
          "midi": 51,
          "time": 89.2119342187513,
          "velocity": 0.7952755905511811,
          "duration": 0.005434781250002629
        },
        {
          "name": "E2",
          "midi": 40,
          "time": 89.2173690000013,
          "velocity": 0.9291338582677166,
          "duration": 0.005434781250002629
        },
        {
          "name": "F1",
          "midi": 29,
          "time": 89.2173690000013,
          "velocity": 0.952755905511811,
          "duration": 0.20652168750000044
        },
        {
          "name": "F3",
          "midi": 53,
          "time": 89.2228037812513,
          "velocity": 0.9291338582677166,
          "duration": 0.005434781250002629
        },
        {
          "name": "G5",
          "midi": 79,
          "time": 89.4728037187513,
          "velocity": 0.9212598425196851,
          "duration": 0.4510868437500193
        },
        {
          "name": "G4",
          "midi": 67,
          "time": 89.4728037187513,
          "velocity": 0.8346456692913385,
          "duration": 0.4510868437500193
        },
        {
          "name": "F3",
          "midi": 53,
          "time": 89.4782385000013,
          "velocity": 0.5826771653543307,
          "duration": 0.005434781250002629
        },
        {
          "name": "D#3",
          "midi": 51,
          "time": 89.4782385000013,
          "velocity": 0.31496062992125984,
          "duration": 0.005434781250002629
        },
        {
          "name": "F2",
          "midi": 41,
          "time": 89.4836732812513,
          "velocity": 0.7795275590551181,
          "duration": 0.7010867812500123
        },
        {
          "name": "F3",
          "midi": 53,
          "time": 89.73367321875129,
          "velocity": 0.9291338582677166,
          "duration": 0.005434781250002629
        },
        {
          "name": "F2",
          "midi": 41,
          "time": 89.73367321875129,
          "velocity": 0.8818897637795275,
          "duration": 0.9456519375000454
        },
        {
          "name": "C2",
          "midi": 36,
          "time": 89.7391080000013,
          "velocity": 0.8818897637795275,
          "duration": 0.005434781250002629
        },
        {
          "name": "D#3",
          "midi": 51,
          "time": 89.7445427812513,
          "velocity": 0.7716535433070866,
          "duration": 0.005434781250002629
        },
        {
          "name": "B5",
          "midi": 83,
          "time": 89.7608471250013,
          "velocity": 0.8031496062992126,
          "duration": 1.0054345312500317
        },
        {
          "name": "B4",
          "midi": 71,
          "time": 89.76628190625131,
          "velocity": 0.7165354330708661,
          "duration": 0.999999750000029
        },
        {
          "name": "B5",
          "midi": 83,
          "time": 89.77171668750131,
          "velocity": 0.8976377952755905,
          "duration": 1.0108693125000343
        },
        {
          "name": "F2",
          "midi": 41,
          "time": 89.9945427187513,
          "velocity": 0.7086614173228346,
          "duration": 0.9891301875000522
        },
        {
          "name": "G5",
          "midi": 79,
          "time": 90.00541228125131,
          "velocity": 0.9212598425196851,
          "duration": 0.521739000000025
        },
        {
          "name": "G4",
          "midi": 67,
          "time": 90.00541228125131,
          "velocity": 0.8346456692913385,
          "duration": 0.5326085625000303
        },
        {
          "name": "D#3",
          "midi": 51,
          "time": 90.00541228125131,
          "velocity": 0.33858267716535434,
          "duration": 0.005434781250002629
        },
        {
          "name": "F3",
          "midi": 53,
          "time": 90.25541221875132,
          "velocity": 0.9291338582677166,
          "duration": 0.005434781250002629
        },
        {
          "name": "F1",
          "midi": 29,
          "time": 90.25541221875132,
          "velocity": 0.952755905511811,
          "duration": 0.2173912500000057
        },
        {
          "name": "E2",
          "midi": 40,
          "time": 90.26084700000132,
          "velocity": 0.9291338582677166,
          "duration": 0.005434781250002629
        },
        {
          "name": "D#3",
          "midi": 51,
          "time": 90.26628178125132,
          "velocity": 0.8188976377952756,
          "duration": 0.005434781250002629
        },
        {
          "name": "D#3",
          "midi": 51,
          "time": 90.51628171875133,
          "velocity": 0.3543307086614173,
          "duration": 0.005434781250002629
        },
        {
          "name": "F2",
          "midi": 41,
          "time": 90.51628171875133,
          "velocity": 0.8346456692913385,
          "duration": 0.7554345937500386
        },
        {
          "name": "C2",
          "midi": 36,
          "time": 90.52171650000133,
          "velocity": 0.6220472440944882,
          "duration": 0.005434781250002629
        },
        {
          "name": "A5",
          "midi": 81,
          "time": 90.53802084375134,
          "velocity": 0.9212598425196851,
          "duration": 0.4891303125000235
        },
        {
          "name": "A4",
          "midi": 69,
          "time": 90.53802084375134,
          "velocity": 0.8346456692913385,
          "duration": 0.49999987500002874
        },
        {
          "name": "A5",
          "midi": 81,
          "time": 90.76628165625134,
          "velocity": 0.9606299212598425,
          "duration": 1.0271736562500564
        },
        {
          "name": "F2",
          "midi": 41,
          "time": 90.77715121875134,
          "velocity": 0.8976377952755905,
          "duration": 0.7771737187500349
        },
        {
          "name": "F3",
          "midi": 53,
          "time": 90.78258600000134,
          "velocity": 0.9291338582677166,
          "duration": 0.005434781250002629
        },
        {
          "name": "D#3",
          "midi": 51,
          "time": 90.78258600000134,
          "velocity": 0.84251968503937,
          "duration": 0.005434781250002629
        },
        {
          "name": "C2",
          "midi": 36,
          "time": 90.78258600000134,
          "velocity": 0.8740157480314961,
          "duration": 0.005434781250002629
        },
        {
          "name": "A4",
          "midi": 69,
          "time": 90.79889034375135,
          "velocity": 0.6929133858267716,
          "duration": 1.0108693125000343
        },
        {
          "name": "A5",
          "midi": 81,
          "time": 90.80432512500136,
          "velocity": 0.8188976377952756,
          "duration": 1.016304093750037
        },
        {
          "name": "G5",
          "midi": 79,
          "time": 91.03802071875137,
          "velocity": 0.9212598425196851,
          "duration": 0.4728259687500014
        },
        {
          "name": "G4",
          "midi": 67,
          "time": 91.03802071875137,
          "velocity": 0.8346456692913385,
          "duration": 0.5326085625000161
        },
        {
          "name": "D#3",
          "midi": 51,
          "time": 91.03802071875137,
          "velocity": 0.36220472440944884,
          "duration": 0.005434781250002629
        },
        {
          "name": "F2",
          "midi": 41,
          "time": 91.03802071875137,
          "velocity": 0.7559055118110236,
          "duration": 0.5326085625000161
        },
        {
          "name": "D#3",
          "midi": 51,
          "time": 91.29889021875137,
          "velocity": 0.7952755905511811,
          "duration": 0.005434781250002629
        },
        {
          "name": "F1",
          "midi": 29,
          "time": 91.29889021875137,
          "velocity": 0.952755905511811,
          "duration": 0.2554347187500099
        },
        {
          "name": "E2",
          "midi": 40,
          "time": 91.30432500000137,
          "velocity": 0.9291338582677166,
          "duration": 0.005434781250002629
        },
        {
          "name": "F3",
          "midi": 53,
          "time": 91.30975978125137,
          "velocity": 0.9291338582677166,
          "duration": 0.005434781250002629
        },
        {
          "name": "D#3",
          "midi": 51,
          "time": 91.55975971875138,
          "velocity": 0.3464566929133858,
          "duration": 0.005434781250002629
        },
        {
          "name": "F2",
          "midi": 41,
          "time": 91.55975971875138,
          "velocity": 0.9291338582677166,
          "duration": 0.2717390625000178
        },
        {
          "name": "G5",
          "midi": 79,
          "time": 91.57606406250139,
          "velocity": 0.9212598425196851,
          "duration": 0.3586955625000172
        },
        {
          "name": "G4",
          "midi": 67,
          "time": 91.57606406250139,
          "velocity": 0.8346456692913385,
          "duration": 0.07608693750000839
        },
        {
          "name": "G2",
          "midi": 43,
          "time": 91.5869336250014,
          "velocity": 0.9212598425196851,
          "duration": 0.05434781249999787
        },
        {
          "name": "D3",
          "midi": 50,
          "time": 91.5869336250014,
          "velocity": 0.9212598425196851,
          "duration": 0.05434781249999787
        },
        {
          "name": "B3",
          "midi": 59,
          "time": 91.5869336250014,
          "velocity": 0.9212598425196851,
          "duration": 0.05434781249999787
        },
        {
          "name": "D4",
          "midi": 62,
          "time": 91.5869336250014,
          "velocity": 0.9212598425196851,
          "duration": 0.06521737500000313
        },
        {
          "name": "G4",
          "midi": 67,
          "time": 91.5869336250014,
          "velocity": 0.9212598425196851,
          "duration": 0.119565187500001
        },
        {
          "name": "G2",
          "midi": 43,
          "time": 91.60323796875139,
          "velocity": 0.9212598425196851,
          "duration": 0.10326084375000733
        },
        {
          "name": "D3",
          "midi": 50,
          "time": 91.60323796875139,
          "velocity": 0.9212598425196851,
          "duration": 0.10326084375000733
        },
        {
          "name": "B3",
          "midi": 59,
          "time": 91.60323796875139,
          "velocity": 0.9212598425196851,
          "duration": 0.10326084375000733
        },
        {
          "name": "D4",
          "midi": 62,
          "time": 91.60323796875139,
          "velocity": 0.9212598425196851,
          "duration": 0.10326084375000733
        },
        {
          "name": "G4",
          "midi": 67,
          "time": 91.60323796875139,
          "velocity": 0.9212598425196851,
          "duration": 0.16304343750000783
        },
        {
          "name": "G4",
          "midi": 67,
          "time": 91.7119335937514,
          "velocity": 1,
          "duration": 0.07065215624999155
        },
        {
          "name": "B3",
          "midi": 59,
          "time": 91.7119335937514,
          "velocity": 1,
          "duration": 0.05434781249999787
        },
        {
          "name": "D3",
          "midi": 50,
          "time": 91.7119335937514,
          "velocity": 1,
          "duration": 0.05434781249999787
        },
        {
          "name": "G2",
          "midi": 43,
          "time": 91.7119335937514,
          "velocity": 1,
          "duration": 0.05434781249999787
        },
        {
          "name": "D4",
          "midi": 62,
          "time": 91.7119335937514,
          "velocity": 1,
          "duration": 0.05434781249999787
        },
        {
          "name": "G4",
          "midi": 67,
          "time": 91.72823793750139,
          "velocity": 0.9448818897637795,
          "duration": 0.20652168750001465
        },
        {
          "name": "B3",
          "midi": 59,
          "time": 91.72823793750139,
          "velocity": 0.9448818897637795,
          "duration": 0.05434781249999787
        },
        {
          "name": "D3",
          "midi": 50,
          "time": 91.72823793750139,
          "velocity": 0.9448818897637795,
          "duration": 0.05434781249999787
        },
        {
          "name": "G2",
          "midi": 43,
          "time": 91.72823793750139,
          "velocity": 0.9448818897637795,
          "duration": 0.05434781249999787
        },
        {
          "name": "D4",
          "midi": 62,
          "time": 91.72823793750139,
          "velocity": 0.9448818897637795,
          "duration": 0.05434781249999787
        },
        {
          "name": "G4",
          "midi": 67,
          "time": 91.81519443750139,
          "velocity": 0.9448818897637795,
          "duration": 0.7989128437500455
        },
        {
          "name": "D#3",
          "midi": 51,
          "time": 91.82062921875139,
          "velocity": 0.7952755905511811,
          "duration": 0.005434781250002629
        },
        {
          "name": "B3",
          "midi": 59,
          "time": 91.82062921875139,
          "velocity": 0.9212598425196851,
          "duration": 3.907607718750171
        },
        {
          "name": "D4",
          "midi": 62,
          "time": 91.82062921875139,
          "velocity": 0.9763779527559056,
          "duration": 0.5434781250000356
        },
        {
          "name": "D3",
          "midi": 50,
          "time": 91.82062921875139,
          "velocity": 0.9291338582677166,
          "duration": 3.907607718750171
        },
        {
          "name": "G2",
          "midi": 43,
          "time": 91.82062921875139,
          "velocity": 1,
          "duration": 0.7554345937500386
        },
        {
          "name": "C2",
          "midi": 36,
          "time": 91.8260640000014,
          "velocity": 0.8818897637795275,
          "duration": 0.005434781250002629
        },
        {
          "name": "A3",
          "midi": 57,
          "time": 91.8314987812514,
          "velocity": 0.9291338582677166,
          "duration": 0.005434781250002629
        },
        {
          "name": "G1",
          "midi": 31,
          "time": 91.8314987812514,
          "velocity": 0.952755905511811,
          "duration": 0.13043475000000626
        },
        {
          "name": "G4",
          "midi": 67,
          "time": 91.8314987812514,
          "velocity": 0.9448818897637795,
          "duration": 1.0326084375000306
        },
        {
          "name": "B3",
          "midi": 59,
          "time": 91.8369335625014,
          "velocity": 0.9212598425196851,
          "duration": 3.907607718750171
        },
        {
          "name": "D4",
          "midi": 62,
          "time": 91.8369335625014,
          "velocity": 0.9763779527559056,
          "duration": 1.7989125937500603
        },
        {
          "name": "D3",
          "midi": 50,
          "time": 91.8369335625014,
          "velocity": 0.9291338582677166,
          "duration": 3.907607718750171
        },
        {
          "name": "G2",
          "midi": 43,
          "time": 91.8369335625014,
          "velocity": 1,
          "duration": 1.788043031250055
        },
        {
          "name": "G1",
          "midi": 31,
          "time": 92.08693350000141,
          "velocity": 0.9291338582677166,
          "duration": 0.22826081250001096
        },
        {
          "name": "D#3",
          "midi": 51,
          "time": 92.09236828125141,
          "velocity": 0.4094488188976378,
          "duration": 0.005434781250002629
        },
        {
          "name": "D5",
          "midi": 74,
          "time": 92.09780306250141,
          "velocity": 0.9212598425196851,
          "duration": 0.22826081250001096
        },
        {
          "name": "D4",
          "midi": 62,
          "time": 92.09780306250141,
          "velocity": 0.8346456692913385,
          "duration": 2.581521093750112
        },
        {
          "name": "E2",
          "midi": 40,
          "time": 92.34780300000142,
          "velocity": 0.9291338582677166,
          "duration": 0.005434781250002629
        },
        {
          "name": "F3",
          "midi": 53,
          "time": 92.35323778125142,
          "velocity": 0.9133858267716536,
          "duration": 0.005434781250002629
        },
        {
          "name": "D#3",
          "midi": 51,
          "time": 92.35323778125142,
          "velocity": 0.8188976377952756,
          "duration": 0.005434781250002629
        },
        {
          "name": "G2",
          "midi": 43,
          "time": 92.35323778125142,
          "velocity": 0.952755905511811,
          "duration": 2.315216812500097
        },
        {
          "name": "G5",
          "midi": 79,
          "time": 92.36410734375143,
          "velocity": 0.9212598425196851,
          "duration": 0.19021734375000676
        },
        {
          "name": "G4",
          "midi": 67,
          "time": 92.36410734375143,
          "velocity": 0.8346456692913385,
          "duration": 0.7608693750000128
        },
        {
          "name": "D#3",
          "midi": 51,
          "time": 92.60867250000143,
          "velocity": 0.4094488188976378,
          "duration": 0.005434781250002629
        },
        {
          "name": "C2",
          "midi": 36,
          "time": 92.60867250000143,
          "velocity": 0.5905511811023622,
          "duration": 0.005434781250002629
        },
        {
          "name": "G1",
          "midi": 31,
          "time": 92.61410728125144,
          "velocity": 0.8661417322834646,
          "duration": 0.15217387500000257
        },
        {
          "name": "G5",
          "midi": 79,
          "time": 92.61954206250144,
          "velocity": 0.9212598425196851,
          "duration": 0.16847821874999624
        },
        {
          "name": "G4",
          "midi": 67,
          "time": 92.61954206250144,
          "velocity": 0.8346456692913385,
          "duration": 1.5271735312500567
        },
        {
          "name": "D6",
          "midi": 86,
          "time": 92.83693331250143,
          "velocity": 1,
          "duration": 1.124999718750061
        },
        {
          "name": "G1",
          "midi": 31,
          "time": 92.86410721875143,
          "velocity": 0.7795275590551181,
          "duration": 0.1956521250000094
        },
        {
          "name": "G5",
          "midi": 79,
          "time": 92.86954200000143,
          "velocity": 0.905511811023622,
          "duration": 0.2554347187500099
        },
        {
          "name": "G4",
          "midi": 67,
          "time": 92.86954200000143,
          "velocity": 0.8267716535433071,
          "duration": 2.30434725000012
        },
        {
          "name": "F3",
          "midi": 53,
          "time": 92.86954200000143,
          "velocity": 0.9291338582677166,
          "duration": 0.005434781250002629
        },
        {
          "name": "C2",
          "midi": 36,
          "time": 92.86954200000143,
          "velocity": 0.8818897637795275,
          "duration": 0.005434781250002629
        },
        {
          "name": "D#3",
          "midi": 51,
          "time": 92.87497678125143,
          "velocity": 0.7480314960629921,
          "duration": 0.005434781250002629
        },
        {
          "name": "D6",
          "midi": 86,
          "time": 92.90215068750143,
          "velocity": 0.7480314960629921,
          "duration": 1.059782343750058
        },
        {
          "name": "D5",
          "midi": 74,
          "time": 92.90215068750143,
          "velocity": 0.7165354330708661,
          "duration": 0.6956520000000239
        },
        {
          "name": "E5",
          "midi": 76,
          "time": 93.12497671875144,
          "velocity": 0.9212598425196851,
          "duration": 0.2554347187500099
        },
        {
          "name": "E4",
          "midi": 64,
          "time": 93.12497671875144,
          "velocity": 0.8346456692913385,
          "duration": 0.24999993750000726
        },
        {
          "name": "G1",
          "midi": 31,
          "time": 93.12497671875144,
          "velocity": 0.8346456692913385,
          "duration": 0.239130375000002
        },
        {
          "name": "D#3",
          "midi": 51,
          "time": 93.13584628125145,
          "velocity": 0.4566929133858268,
          "duration": 0.005434781250002629
        },
        {
          "name": "D5",
          "midi": 74,
          "time": 93.37497665625145,
          "velocity": 0.905511811023622,
          "duration": 0.5869563750000424
        },
        {
          "name": "D4",
          "midi": 62,
          "time": 93.37497665625145,
          "velocity": 0.8267716535433071,
          "duration": 2.3532602812501153
        },
        {
          "name": "E2",
          "midi": 40,
          "time": 93.39128100000146,
          "velocity": 0.9291338582677166,
          "duration": 0.005434781250002629
        },
        {
          "name": "G2",
          "midi": 43,
          "time": 93.39128100000146,
          "velocity": 0.952755905511811,
          "duration": 2.0597820937501012
        },
        {
          "name": "F3",
          "midi": 53,
          "time": 93.39671578125146,
          "velocity": 0.9291338582677166,
          "duration": 0.005434781250002629
        },
        {
          "name": "D#3",
          "midi": 51,
          "time": 93.39671578125146,
          "velocity": 0.7952755905511811,
          "duration": 0.005434781250002629
        },
        {
          "name": "G5",
          "midi": 79,
          "time": 93.63584615625146,
          "velocity": 0.9212598425196851,
          "duration": 0.4945650937500403
        },
        {
          "name": "G4",
          "midi": 67,
          "time": 93.63584615625146,
          "velocity": 0.8346456692913385,
          "duration": 2.0869560000001
        },
        {
          "name": "G1",
          "midi": 31,
          "time": 93.64671571875147,
          "velocity": 0.952755905511811,
          "duration": 0.20108690625001202
        },
        {
          "name": "D#3",
          "midi": 51,
          "time": 93.65215050000147,
          "velocity": 0.4330708661417323,
          "duration": 0.005434781250002629
        },
        {
          "name": "F3",
          "midi": 53,
          "time": 93.90758521875148,
          "velocity": 0.889763779527559,
          "duration": 0.005434781250002629
        },
        {
          "name": "D#3",
          "midi": 51,
          "time": 93.90758521875148,
          "velocity": 0.7480314960629921,
          "duration": 0.005434781250002629
        },
        {
          "name": "G1",
          "midi": 31,
          "time": 93.90758521875148,
          "velocity": 0.8976377952755905,
          "duration": 0.15217387500001678
        },
        {
          "name": "C6",
          "midi": 84,
          "time": 93.90758521875148,
          "velocity": 0.9606299212598425,
          "duration": 1.0543475625000696
        },
        {
          "name": "C2",
          "midi": 36,
          "time": 93.91302000000148,
          "velocity": 0.8661417322834646,
          "duration": 0.005434781250002629
        },
        {
          "name": "C6",
          "midi": 84,
          "time": 93.92388956250149,
          "velocity": 0.6929133858267716,
          "duration": 1.0978258125000622
        },
        {
          "name": "C5",
          "midi": 72,
          "time": 93.92388956250149,
          "velocity": 0.6614173228346457,
          "duration": 1.0434780000000643
        },
        {
          "name": "D5",
          "midi": 74,
          "time": 94.1467155937515,
          "velocity": 0.8188976377952756,
          "duration": 0.30434775000001935
        },
        {
          "name": "D4",
          "midi": 62,
          "time": 94.1467155937515,
          "velocity": 0.7480314960629921,
          "duration": 1.5978256875000767
        },
        {
          "name": "G1",
          "midi": 31,
          "time": 94.16845471875149,
          "velocity": 0.952755905511811,
          "duration": 0.2173912500000057
        },
        {
          "name": "D#3",
          "midi": 51,
          "time": 94.1793242812515,
          "velocity": 0.31496062992125984,
          "duration": 0.005434781250002629
        },
        {
          "name": "D#3",
          "midi": 51,
          "time": 94.4293242187515,
          "velocity": 0.7480314960629921,
          "duration": 0.005434781250002629
        },
        {
          "name": "G2",
          "midi": 43,
          "time": 94.4293242187515,
          "velocity": 0.952755905511811,
          "duration": 1.29891271875006
        },
        {
          "name": "E2",
          "midi": 40,
          "time": 94.4347590000015,
          "velocity": 0.9291338582677166,
          "duration": 0.005434781250002629
        },
        {
          "name": "F3",
          "midi": 53,
          "time": 94.4347590000015,
          "velocity": 0.9291338582677166,
          "duration": 0.005434781250002629
        },
        {
          "name": "G5",
          "midi": 79,
          "time": 94.67932415625152,
          "velocity": 0.9212598425196851,
          "duration": 0.46195640625002454
        },
        {
          "name": "G4",
          "midi": 67,
          "time": 94.67932415625152,
          "velocity": 0.8346456692913385,
          "duration": 1.0597823437500438
        },
        {
          "name": "G1",
          "midi": 31,
          "time": 94.69019371875153,
          "velocity": 0.952755905511811,
          "duration": 0.1358695312500089
        },
        {
          "name": "C2",
          "midi": 36,
          "time": 94.69562850000153,
          "velocity": 0.5669291338582677,
          "duration": 0.005434781250002629
        },
        {
          "name": "D#3",
          "midi": 51,
          "time": 94.70106328125154,
          "velocity": 0.4015748031496063,
          "duration": 0.005434781250002629
        },
        {
          "name": "B5",
          "midi": 83,
          "time": 94.94562843750154,
          "velocity": 0.7480314960629921,
          "duration": 1.0326084375000164
        },
        {
          "name": "G1",
          "midi": 31,
          "time": 94.95106321875154,
          "velocity": 0.9133858267716536,
          "duration": 0.21195646875000307
        },
        {
          "name": "C2",
          "midi": 36,
          "time": 94.95649800000155,
          "velocity": 0.8740157480314961,
          "duration": 0.005434781250002629
        },
        {
          "name": "B5",
          "midi": 83,
          "time": 94.95649800000155,
          "velocity": 0.9212598425196851,
          "duration": 1.038043218750019
        },
        {
          "name": "F3",
          "midi": 53,
          "time": 94.96193278125155,
          "velocity": 0.889763779527559,
          "duration": 0.005434781250002629
        },
        {
          "name": "D#3",
          "midi": 51,
          "time": 94.96193278125155,
          "velocity": 0.7244094488188977,
          "duration": 0.005434781250002629
        },
        {
          "name": "B4",
          "midi": 71,
          "time": 94.96736756250155,
          "velocity": 0.6377952755905512,
          "duration": 1.010869312500006
        },
        {
          "name": "G5",
          "midi": 79,
          "time": 95.17932403125155,
          "velocity": 0.9212598425196851,
          "duration": 0.478260750000004
        },
        {
          "name": "G4",
          "midi": 67,
          "time": 95.17932403125155,
          "velocity": 0.8346456692913385,
          "duration": 0.5652172500000177
        },
        {
          "name": "G2",
          "midi": 43,
          "time": 95.21193271875156,
          "velocity": 0.952755905511811,
          "duration": 0.5326085625000161
        },
        {
          "name": "D#3",
          "midi": 51,
          "time": 95.22280228125156,
          "velocity": 0.4094488188976378,
          "duration": 0.005434781250002629
        },
        {
          "name": "G1",
          "midi": 31,
          "time": 95.47280221875155,
          "velocity": 0.952755905511811,
          "duration": 0.239130375000002
        },
        {
          "name": "E2",
          "midi": 40,
          "time": 95.47823700000156,
          "velocity": 0.9291338582677166,
          "duration": 0.005434781250002629
        },
        {
          "name": "F3",
          "midi": 53,
          "time": 95.47823700000156,
          "velocity": 0.9291338582677166,
          "duration": 0.005434781250002629
        },
        {
          "name": "D#3",
          "midi": 51,
          "time": 95.48367178125156,
          "velocity": 0.8188976377952756,
          "duration": 0.005434781250002629
        },
        {
          "name": "G2",
          "midi": 43,
          "time": 95.73367171875157,
          "velocity": 0.952755905511811,
          "duration": 0.2010869062499978
        },
        {
          "name": "D#3",
          "midi": 51,
          "time": 95.74454128125157,
          "velocity": 0.30708661417322836,
          "duration": 0.005434781250002629
        },
        {
          "name": "G5",
          "midi": 79,
          "time": 95.74997606250157,
          "velocity": 0.9212598425196851,
          "duration": 0.39130424999999036
        },
        {
          "name": "G4",
          "midi": 67,
          "time": 95.74997606250157,
          "velocity": 0.8346456692913385,
          "duration": 0.39130424999999036
        },
        {
          "name": "F2",
          "midi": 41,
          "time": 95.76084562500158,
          "velocity": 0.889763779527559,
          "duration": 0.07065215624999155
        },
        {
          "name": "C3",
          "midi": 48,
          "time": 95.76084562500158,
          "velocity": 0.889763779527559,
          "duration": 0.07065215624999155
        },
        {
          "name": "A3",
          "midi": 57,
          "time": 95.76084562500158,
          "velocity": 0.889763779527559,
          "duration": 0.07065215624999155
        },
        {
          "name": "C4",
          "midi": 60,
          "time": 95.76084562500158,
          "velocity": 0.889763779527559,
          "duration": 0.07065215624999155
        },
        {
          "name": "F4",
          "midi": 65,
          "time": 95.76084562500158,
          "velocity": 0.889763779527559,
          "duration": 0.07065215624999155
        },
        {
          "name": "F2",
          "midi": 41,
          "time": 95.77714996875157,
          "velocity": 0.937007874015748,
          "duration": 0.10326084374999311
        },
        {
          "name": "C3",
          "midi": 48,
          "time": 95.77714996875157,
          "velocity": 0.937007874015748,
          "duration": 0.10326084374999311
        },
        {
          "name": "A3",
          "midi": 57,
          "time": 95.77714996875157,
          "velocity": 0.937007874015748,
          "duration": 0.10326084374999311
        },
        {
          "name": "C4",
          "midi": 60,
          "time": 95.77714996875157,
          "velocity": 0.937007874015748,
          "duration": 0.10326084374999311
        },
        {
          "name": "F4",
          "midi": 65,
          "time": 95.77714996875157,
          "velocity": 0.937007874015748,
          "duration": 0.10326084374999311
        },
        {
          "name": "F4",
          "midi": 65,
          "time": 95.88584559375157,
          "velocity": 0.952755905511811,
          "duration": 0.05434781249999787
        },
        {
          "name": "A3",
          "midi": 57,
          "time": 95.88584559375157,
          "velocity": 0.952755905511811,
          "duration": 0.05434781249999787
        },
        {
          "name": "C3",
          "midi": 48,
          "time": 95.88584559375157,
          "velocity": 0.952755905511811,
          "duration": 0.05434781249999787
        },
        {
          "name": "F2",
          "midi": 41,
          "time": 95.88584559375157,
          "velocity": 0.952755905511811,
          "duration": 0.05434781249999787
        },
        {
          "name": "C4",
          "midi": 60,
          "time": 95.88584559375157,
          "velocity": 0.952755905511811,
          "duration": 0.05434781249999787
        },
        {
          "name": "F4",
          "midi": 65,
          "time": 95.90214993750156,
          "velocity": 0.9606299212598425,
          "duration": 0.05434781249999787
        },
        {
          "name": "A3",
          "midi": 57,
          "time": 95.90214993750156,
          "velocity": 0.9606299212598425,
          "duration": 0.05434781249999787
        },
        {
          "name": "C3",
          "midi": 48,
          "time": 95.90214993750156,
          "velocity": 0.9606299212598425,
          "duration": 0.05434781249999787
        },
        {
          "name": "F2",
          "midi": 41,
          "time": 95.90214993750156,
          "velocity": 0.9606299212598425,
          "duration": 0.05434781249999787
        },
        {
          "name": "C4",
          "midi": 60,
          "time": 95.90214993750156,
          "velocity": 0.9606299212598425,
          "duration": 0.05434781249999787
        },
        {
          "name": "F4",
          "midi": 65,
          "time": 95.98910643750156,
          "velocity": 0.9448818897637795,
          "duration": 3.9076077187501284
        },
        {
          "name": "D#3",
          "midi": 51,
          "time": 95.99454121875156,
          "velocity": 0.7716535433070866,
          "duration": 0.005434781250002629
        },
        {
          "name": "A3",
          "midi": 57,
          "time": 95.99454121875156,
          "velocity": 0.9212598425196851,
          "duration": 0.016304343750007888
        },
        {
          "name": "C4",
          "midi": 60,
          "time": 95.99454121875156,
          "velocity": 0.9763779527559056,
          "duration": 3.9076077187501284
        },
        {
          "name": "C3",
          "midi": 48,
          "time": 95.99454121875156,
          "velocity": 0.9291338582677166,
          "duration": 3.9076077187501284
        },
        {
          "name": "F2",
          "midi": 41,
          "time": 95.99454121875156,
          "velocity": 1,
          "duration": 0.7554345937500244
        },
        {
          "name": "C2",
          "midi": 36,
          "time": 95.99997600000157,
          "velocity": 0.8503937007874016,
          "duration": 0.005434781250002629
        },
        {
          "name": "F1",
          "midi": 29,
          "time": 95.99997600000157,
          "velocity": 0.952755905511811,
          "duration": 0.11413040624999837
        },
        {
          "name": "A3",
          "midi": 57,
          "time": 96.00541078125157,
          "velocity": 0.9291338582677166,
          "duration": 3.896738156250123
        },
        {
          "name": "F4",
          "midi": 65,
          "time": 96.00541078125157,
          "velocity": 0.9448818897637795,
          "duration": 3.9076077187501284
        },
        {
          "name": "A3",
          "midi": 57,
          "time": 96.01084556250157,
          "velocity": 0.9212598425196851,
          "duration": 3.9076077187501284
        },
        {
          "name": "C4",
          "midi": 60,
          "time": 96.01084556250157,
          "velocity": 0.9763779527559056,
          "duration": 3.9076077187501284
        },
        {
          "name": "C3",
          "midi": 48,
          "time": 96.01084556250157,
          "velocity": 0.9291338582677166,
          "duration": 3.9076077187501284
        },
        {
          "name": "F2",
          "midi": 41,
          "time": 96.01084556250157,
          "velocity": 1,
          "duration": 1.7663039062500587
        },
        {
          "name": "F1",
          "midi": 29,
          "time": 96.25541071875156,
          "velocity": 0.9291338582677166,
          "duration": 0.23369559375001359
        },
        {
          "name": "D#3",
          "midi": 51,
          "time": 96.26628028125157,
          "velocity": 0.4094488188976378,
          "duration": 0.005434781250002629
        },
        {
          "name": "D5",
          "midi": 74,
          "time": 96.27714984375157,
          "velocity": 0.9212598425196851,
          "duration": 0.24456515625000463
        },
        {
          "name": "D4",
          "midi": 62,
          "time": 96.27714984375157,
          "velocity": 0.8346456692913385,
          "duration": 0.24456515625000463
        },
        {
          "name": "F2",
          "midi": 41,
          "time": 96.51628021875158,
          "velocity": 0.952755905511811,
          "duration": 2.2771733437500785
        },
        {
          "name": "G5",
          "midi": 79,
          "time": 96.52171500000158,
          "velocity": 0.9212598425196851,
          "duration": 0.22826081250001096
        },
        {
          "name": "G4",
          "midi": 67,
          "time": 96.52171500000158,
          "velocity": 0.8346456692913385,
          "duration": 0.2554347187500099
        },
        {
          "name": "E2",
          "midi": 40,
          "time": 96.52171500000158,
          "velocity": 0.9291338582677166,
          "duration": 0.005434781250002629
        },
        {
          "name": "F3",
          "midi": 53,
          "time": 96.52714978125158,
          "velocity": 0.7480314960629921,
          "duration": 0.005434781250002629
        },
        {
          "name": "D#3",
          "midi": 51,
          "time": 96.52714978125158,
          "velocity": 0.7244094488188977,
          "duration": 0.005434781250002629
        },
        {
          "name": "F1",
          "midi": 29,
          "time": 96.77714971875159,
          "velocity": 0.952755905511811,
          "duration": 0.19021734375000676
        },
        {
          "name": "G5",
          "midi": 79,
          "time": 96.78258450000159,
          "velocity": 0.8740157480314961,
          "duration": 0.2173912500000057
        },
        {
          "name": "G4",
          "midi": 67,
          "time": 96.78258450000159,
          "velocity": 0.7952755905511811,
          "duration": 0.24999993750000726
        },
        {
          "name": "D#3",
          "midi": 51,
          "time": 96.78258450000159,
          "velocity": 0.3858267716535433,
          "duration": 0.005434781250002629
        },
        {
          "name": "C2",
          "midi": 36,
          "time": 96.78258450000159,
          "velocity": 0.6377952755905512,
          "duration": 0.005434781250002629
        },
        {
          "name": "C6",
          "midi": 84,
          "time": 97.0325844375016,
          "velocity": 1,
          "duration": 1.005434531250046
        },
        {
          "name": "G5",
          "midi": 79,
          "time": 97.0380192187516,
          "velocity": 0.9212598425196851,
          "duration": 0.46195640625001033
        },
        {
          "name": "G4",
          "midi": 67,
          "time": 97.0380192187516,
          "velocity": 0.8346456692913385,
          "duration": 0.5108694375000198
        },
        {
          "name": "F1",
          "midi": 29,
          "time": 97.0380192187516,
          "velocity": 0.952755905511811,
          "duration": 0.1358695312500089
        },
        {
          "name": "C6",
          "midi": 84,
          "time": 97.0380192187516,
          "velocity": 0.8661417322834646,
          "duration": 1.0489127812500385
        },
        {
          "name": "F3",
          "midi": 53,
          "time": 97.0434540000016,
          "velocity": 0.7480314960629921,
          "duration": 0.005434781250002629
        },
        {
          "name": "C2",
          "midi": 36,
          "time": 97.0434540000016,
          "velocity": 0.8740157480314961,
          "duration": 0.005434781250002629
        },
        {
          "name": "D#3",
          "midi": 51,
          "time": 97.0488887812516,
          "velocity": 0.7480314960629921,
          "duration": 0.005434781250002629
        },
        {
          "name": "C5",
          "midi": 72,
          "time": 97.05975834375161,
          "velocity": 0.7244094488188977,
          "duration": 1.0326084375000306
        },
        {
          "name": "D#3",
          "midi": 51,
          "time": 97.29888871875161,
          "velocity": 0.44881889763779526,
          "duration": 0.005434781250002629
        },
        {
          "name": "F1",
          "midi": 29,
          "time": 97.29888871875161,
          "velocity": 0.9291338582677166,
          "duration": 0.20652168750000044
        },
        {
          "name": "G5",
          "midi": 79,
          "time": 97.55432343750162,
          "velocity": 0.9212598425196851,
          "duration": 0.22282603125000833
        },
        {
          "name": "G4",
          "midi": 67,
          "time": 97.55432343750162,
          "velocity": 0.8346456692913385,
          "duration": 0.2554347187500099
        },
        {
          "name": "D#3",
          "midi": 51,
          "time": 97.55975821875163,
          "velocity": 0.7716535433070866,
          "duration": 0.005434781250002629
        },
        {
          "name": "F2",
          "midi": 41,
          "time": 97.55975821875163,
          "velocity": 0.952755905511811,
          "duration": 1.9130430000000587
        },
        {
          "name": "E2",
          "midi": 40,
          "time": 97.56519300000163,
          "velocity": 0.9291338582677166,
          "duration": 0.005434781250002629
        },
        {
          "name": "F3",
          "midi": 53,
          "time": 97.57062778125163,
          "velocity": 0.7637795275590551,
          "duration": 0.005434781250002629
        },
        {
          "name": "G5",
          "midi": 79,
          "time": 97.81519293750164,
          "velocity": 0.905511811023622,
          "duration": 0.20108690625001202
        },
        {
          "name": "G4",
          "midi": 67,
          "time": 97.81519293750164,
          "velocity": 0.8267716535433071,
          "duration": 0.239130375000002
        },
        {
          "name": "F1",
          "midi": 29,
          "time": 97.82062771875164,
          "velocity": 0.952755905511811,
          "duration": 0.16304343750000783
        },
        {
          "name": "D#3",
          "midi": 51,
          "time": 97.83149728125164,
          "velocity": 0.3700787401574803,
          "duration": 0.005434781250002629
        },
        {
          "name": "G5",
          "midi": 79,
          "time": 98.05975809375164,
          "velocity": 0.9212598425196851,
          "duration": 0.22282603125000833
        },
        {
          "name": "G4",
          "midi": 67,
          "time": 98.05975809375164,
          "velocity": 0.8346456692913385,
          "duration": 0.24456515625000463
        },
        {
          "name": "B5",
          "midi": 83,
          "time": 98.06519287500164,
          "velocity": 0.8661417322834646,
          "duration": 1.0434780000000217
        },
        {
          "name": "D#3",
          "midi": 51,
          "time": 98.08149721875164,
          "velocity": 0.6929133858267716,
          "duration": 0.005434781250002629
        },
        {
          "name": "F1",
          "midi": 29,
          "time": 98.08149721875164,
          "velocity": 0.8976377952755905,
          "duration": 0.14130431250001152
        },
        {
          "name": "C2",
          "midi": 36,
          "time": 98.08693200000164,
          "velocity": 0.8740157480314961,
          "duration": 0.005434781250002629
        },
        {
          "name": "F3",
          "midi": 53,
          "time": 98.09236678125164,
          "velocity": 0.7480314960629921,
          "duration": 0.005434781250002629
        },
        {
          "name": "B5",
          "midi": 83,
          "time": 98.09236678125164,
          "velocity": 0.6929133858267716,
          "duration": 1.0489127812500243
        },
        {
          "name": "B4",
          "midi": 71,
          "time": 98.09236678125164,
          "velocity": 0.7716535433070866,
          "duration": 1.0597823437500296
        },
        {
          "name": "G5",
          "midi": 79,
          "time": 98.30975803125165,
          "velocity": 0.9212598425196851,
          "duration": 0.46739118750001296
        },
        {
          "name": "G4",
          "midi": 67,
          "time": 98.30975803125165,
          "velocity": 0.8346456692913385,
          "duration": 0.5217390000000108
        },
        {
          "name": "D#3",
          "midi": 51,
          "time": 98.34236671875165,
          "velocity": 0.4409448818897638,
          "duration": 0.005434781250002629
        },
        {
          "name": "F1",
          "midi": 29,
          "time": 98.34236671875165,
          "velocity": 0.952755905511811,
          "duration": 0.24456515625000463
        },
        {
          "name": "D#3",
          "midi": 51,
          "time": 98.60323621875165,
          "velocity": 0.8188976377952756,
          "duration": 0.005434781250002629
        },
        {
          "name": "F2",
          "midi": 41,
          "time": 98.60323621875165,
          "velocity": 0.952755905511811,
          "duration": 0.9999997500000433
        },
        {
          "name": "E2",
          "midi": 40,
          "time": 98.60867100000165,
          "velocity": 0.9291338582677166,
          "duration": 0.005434781250002629
        },
        {
          "name": "F3",
          "midi": 53,
          "time": 98.61410578125165,
          "velocity": 0.8110236220472441,
          "duration": 0.005434781250002629
        },
        {
          "name": "A5",
          "midi": 81,
          "time": 98.83149703125166,
          "velocity": 0.9212598425196851,
          "duration": 0.7554345937500386
        },
        {
          "name": "A4",
          "midi": 69,
          "time": 98.83149703125166,
          "velocity": 0.8346456692913385,
          "duration": 0.8206519687500418
        },
        {
          "name": "D#3",
          "midi": 51,
          "time": 98.86410571875166,
          "velocity": 0.25984251968503935,
          "duration": 0.005434781250002629
        },
        {
          "name": "F1",
          "midi": 29,
          "time": 98.86410571875166,
          "velocity": 0.952755905511811,
          "duration": 0.14673909374999994
        },
        {
          "name": "C2",
          "midi": 36,
          "time": 98.86954050000166,
          "velocity": 0.5984251968503937,
          "duration": 0.005434781250002629
        },
        {
          "name": "D#3",
          "midi": 51,
          "time": 99.12497521875166,
          "velocity": 0.7952755905511811,
          "duration": 0.005434781250002629
        },
        {
          "name": "F1",
          "midi": 29,
          "time": 99.12497521875166,
          "velocity": 0.952755905511811,
          "duration": 0.17391300000001308
        },
        {
          "name": "F3",
          "midi": 53,
          "time": 99.13041000000166,
          "velocity": 0.7637795275590551,
          "duration": 0.005434781250002629
        },
        {
          "name": "C2",
          "midi": 36,
          "time": 99.13041000000166,
          "velocity": 0.8661417322834646,
          "duration": 0.005434781250002629
        },
        {
          "name": "A5",
          "midi": 81,
          "time": 99.14127956250167,
          "velocity": 0.8188976377952756,
          "duration": 0.9728258437500443
        },
        {
          "name": "A5",
          "midi": 81,
          "time": 99.15214912500167,
          "velocity": 0.7637795275590551,
          "duration": 1.0054345312500317
        },
        {
          "name": "A4",
          "midi": 69,
          "time": 99.15758390625167,
          "velocity": 0.6299212598425197,
          "duration": 1.0054345312500317
        },
        {
          "name": "F2",
          "midi": 41,
          "time": 99.38584471875167,
          "velocity": 0.9291338582677166,
          "duration": 0.5163042187500224
        },
        {
          "name": "D#3",
          "midi": 51,
          "time": 99.39671428125168,
          "velocity": 0.4094488188976378,
          "duration": 0.005434781250002629
        },
        {
          "name": "F2",
          "midi": 41,
          "time": 99.51627946875169,
          "velocity": 0.8346456692913385,
          "duration": 0.40217381250000983
        },
        {
          "name": "F3",
          "midi": 53,
          "time": 99.6467142187517,
          "velocity": 0.9291338582677166,
          "duration": 0.005434781250002629
        },
        {
          "name": "F1",
          "midi": 29,
          "time": 99.6467142187517,
          "velocity": 0.952755905511811,
          "duration": 0.23369559374999938
        },
        {
          "name": "E5",
          "midi": 76,
          "time": 99.6521490000017,
          "velocity": 0.9212598425196851,
          "duration": 0.24456515624999042
        },
        {
          "name": "E4",
          "midi": 64,
          "time": 99.6521490000017,
          "velocity": 0.8346456692913385,
          "duration": 0.27173906250000357
        },
        {
          "name": "E2",
          "midi": 40,
          "time": 99.6521490000017,
          "velocity": 0.9291338582677166,
          "duration": 0.005434781250002629
        },
        {
          "name": "D#3",
          "midi": 51,
          "time": 99.6521490000017,
          "velocity": 0.7480314960629921,
          "duration": 0.005434781250002629
        },
        {
          "name": "D#3",
          "midi": 51,
          "time": 99.9075837187517,
          "velocity": 0.3937007874015748,
          "duration": 0.005434781250002629
        },
        {
          "name": "F2",
          "midi": 41,
          "time": 99.9075837187517,
          "velocity": 0.952755905511811,
          "duration": 0.16304343750000783
        },
        {
          "name": "D5",
          "midi": 74,
          "time": 99.9238880625017,
          "velocity": 0.9212598425196851,
          "duration": 0.38586946875001615
        },
        {
          "name": "D4",
          "midi": 62,
          "time": 99.9238880625017,
          "velocity": 0.8346456692913385,
          "duration": 0.08152171874999681
        },
        {
          "name": "G2",
          "midi": 43,
          "time": 99.93475762500171,
          "velocity": 0.905511811023622,
          "duration": 0.07065215624999155
        },
        {
          "name": "D3",
          "midi": 50,
          "time": 99.93475762500171,
          "velocity": 0.905511811023622,
          "duration": 0.07065215624999155
        },
        {
          "name": "B3",
          "midi": 59,
          "time": 99.93475762500171,
          "velocity": 0.905511811023622,
          "duration": 0.07065215624999155
        },
        {
          "name": "D4",
          "midi": 62,
          "time": 99.93475762500171,
          "velocity": 0.905511811023622,
          "duration": 0.11956518749998679
        },
        {
          "name": "G4",
          "midi": 67,
          "time": 99.93475762500171,
          "velocity": 0.905511811023622,
          "duration": 0.07065215624999155
        },
        {
          "name": "G2",
          "midi": 43,
          "time": 99.9510619687517,
          "velocity": 0.905511811023622,
          "duration": 0.10326084374999311
        },
        {
          "name": "D3",
          "midi": 50,
          "time": 99.9510619687517,
          "velocity": 0.905511811023622,
          "duration": 0.10326084374999311
        },
        {
          "name": "B3",
          "midi": 59,
          "time": 99.9510619687517,
          "velocity": 0.905511811023622,
          "duration": 0.10326084374999311
        },
        {
          "name": "D4",
          "midi": 62,
          "time": 99.9510619687517,
          "velocity": 0.905511811023622,
          "duration": 0.16304343750000783
        },
        {
          "name": "G4",
          "midi": 67,
          "time": 99.9510619687517,
          "velocity": 0.905511811023622,
          "duration": 0.10326084374999311
        },
        {
          "name": "G4",
          "midi": 67,
          "time": 100.0597575937517,
          "velocity": 0.9448818897637795,
          "duration": 0.05434781250001208
        },
        {
          "name": "B3",
          "midi": 59,
          "time": 100.0597575937517,
          "velocity": 0.9448818897637795,
          "duration": 0.05434781250001208
        },
        {
          "name": "D3",
          "midi": 50,
          "time": 100.0597575937517,
          "velocity": 0.9448818897637795,
          "duration": 0.05434781250001208
        },
        {
          "name": "G2",
          "midi": 43,
          "time": 100.0597575937517,
          "velocity": 0.9448818897637795,
          "duration": 0.05434781250001208
        },
        {
          "name": "D4",
          "midi": 62,
          "time": 100.0597575937517,
          "velocity": 0.9448818897637795,
          "duration": 0.07065215625000576
        },
        {
          "name": "G4",
          "midi": 67,
          "time": 100.0760619375017,
          "velocity": 0.937007874015748,
          "duration": 0.05434781249999787
        },
        {
          "name": "B3",
          "midi": 59,
          "time": 100.0760619375017,
          "velocity": 0.937007874015748,
          "duration": 0.05434781249999787
        },
        {
          "name": "D3",
          "midi": 50,
          "time": 100.0760619375017,
          "velocity": 0.937007874015748,
          "duration": 0.05434781249999787
        },
        {
          "name": "G2",
          "midi": 43,
          "time": 100.0760619375017,
          "velocity": 0.937007874015748,
          "duration": 0.05434781249999787
        },
        {
          "name": "D4",
          "midi": 62,
          "time": 100.0760619375017,
          "velocity": 0.937007874015748,
          "duration": 0.2608695000000125
        },
        {
          "name": "G4",
          "midi": 67,
          "time": 100.1630184375017,
          "velocity": 0.9448818897637795,
          "duration": 0.788043281250026
        },
        {
          "name": "B3",
          "midi": 59,
          "time": 100.16845321875171,
          "velocity": 0.9212598425196851,
          "duration": 3.9076077187500857
        },
        {
          "name": "D4",
          "midi": 62,
          "time": 100.16845321875171,
          "velocity": 0.9763779527559056,
          "duration": 0.5108694375000198
        },
        {
          "name": "D3",
          "midi": 50,
          "time": 100.16845321875171,
          "velocity": 0.9291338582677166,
          "duration": 3.9076077187500857
        },
        {
          "name": "G2",
          "midi": 43,
          "time": 100.16845321875171,
          "velocity": 1,
          "duration": 0.7391302500000165
        },
        {
          "name": "A3",
          "midi": 57,
          "time": 100.17388800000171,
          "velocity": 0.7795275590551181,
          "duration": 0.005434781250002629
        },
        {
          "name": "C2",
          "midi": 36,
          "time": 100.17388800000171,
          "velocity": 0.8740157480314961,
          "duration": 0.005434781250002629
        },
        {
          "name": "D#3",
          "midi": 51,
          "time": 100.17932278125171,
          "velocity": 0.7952755905511811,
          "duration": 0.005434781250002629
        },
        {
          "name": "G1",
          "midi": 31,
          "time": 100.17932278125171,
          "velocity": 0.952755905511811,
          "duration": 0.1576086562500052
        },
        {
          "name": "G4",
          "midi": 67,
          "time": 100.17932278125171,
          "velocity": 0.9448818897637795,
          "duration": 1.5597822187500299
        },
        {
          "name": "B3",
          "midi": 59,
          "time": 100.18475756250172,
          "velocity": 0.9212598425196851,
          "duration": 3.9076077187500857
        },
        {
          "name": "D4",
          "midi": 62,
          "time": 100.18475756250172,
          "velocity": 0.9763779527559056,
          "duration": 2.0869560000000433
        },
        {
          "name": "D3",
          "midi": 50,
          "time": 100.18475756250172,
          "velocity": 0.9291338582677166,
          "duration": 3.9076077187500857
        },
        {
          "name": "G2",
          "midi": 43,
          "time": 100.18475756250172,
          "velocity": 1,
          "duration": 1.7608691250000277
        },
        {
          "name": "D5",
          "midi": 74,
          "time": 100.42932271875172,
          "velocity": 0.9212598425196851,
          "duration": 0.22826081250001096
        },
        {
          "name": "D4",
          "midi": 62,
          "time": 100.42932271875172,
          "velocity": 0.8346456692913385,
          "duration": 3.646738218750073
        },
        {
          "name": "G1",
          "midi": 31,
          "time": 100.42932271875172,
          "velocity": 0.9133858267716536,
          "duration": 0.27173906250000357
        },
        {
          "name": "D#3",
          "midi": 51,
          "time": 100.44019228125173,
          "velocity": 0.3937007874015748,
          "duration": 0.005434781250002629
        },
        {
          "name": "G5",
          "midi": 79,
          "time": 100.67932265625173,
          "velocity": 0.9212598425196851,
          "duration": 0.26630428125000094
        },
        {
          "name": "G4",
          "midi": 67,
          "time": 100.67932265625173,
          "velocity": 0.8346456692913385,
          "duration": 2.0815212187500407
        },
        {
          "name": "E2",
          "midi": 40,
          "time": 100.69562700000172,
          "velocity": 0.9291338582677166,
          "duration": 0.005434781250002629
        },
        {
          "name": "F3",
          "midi": 53,
          "time": 100.70106178125172,
          "velocity": 0.8740157480314961,
          "duration": 0.005434781250002629
        },
        {
          "name": "D#3",
          "midi": 51,
          "time": 100.70106178125172,
          "velocity": 0.7244094488188977,
          "duration": 0.005434781250002629
        },
        {
          "name": "G2",
          "midi": 43,
          "time": 100.70106178125172,
          "velocity": 0.952755905511811,
          "duration": 2.3369559375000506
        },
        {
          "name": "E5",
          "midi": 76,
          "time": 100.95106171875173,
          "velocity": 0.9212598425196851,
          "duration": 0.22826081249999675
        },
        {
          "name": "E4",
          "midi": 64,
          "time": 100.95106171875173,
          "velocity": 0.8346456692913385,
          "duration": 0.24456515624999042
        },
        {
          "name": "C2",
          "midi": 36,
          "time": 100.95649650000173,
          "velocity": 0.5905511811023622,
          "duration": 0.005434781250002629
        },
        {
          "name": "D#3",
          "midi": 51,
          "time": 100.96193128125174,
          "velocity": 0.4094488188976378,
          "duration": 0.005434781250002629
        },
        {
          "name": "G1",
          "midi": 31,
          "time": 100.96193128125174,
          "velocity": 0.952755905511811,
          "duration": 0.16847821874999624
        },
        {
          "name": "G5",
          "midi": 79,
          "time": 101.19562687500172,
          "velocity": 0.9212598425196851,
          "duration": 0.5271737812500135
        },
        {
          "name": "G4",
          "midi": 67,
          "time": 101.19562687500172,
          "velocity": 0.8346456692913385,
          "duration": 2.358695062500047
        },
        {
          "name": "D5",
          "midi": 74,
          "time": 101.21193121875172,
          "velocity": 0.6771653543307087,
          "duration": 1.0326084375000306
        },
        {
          "name": "D6",
          "midi": 86,
          "time": 101.21193121875172,
          "velocity": 0.7874015748031497,
          "duration": 1.0923910312500453
        },
        {
          "name": "F3",
          "midi": 53,
          "time": 101.21736600000172,
          "velocity": 0.9291338582677166,
          "duration": 0.005434781250002629
        },
        {
          "name": "D#3",
          "midi": 51,
          "time": 101.21736600000172,
          "velocity": 0.7952755905511811,
          "duration": 0.005434781250002629
        },
        {
          "name": "C2",
          "midi": 36,
          "time": 101.21736600000172,
          "velocity": 0.8740157480314961,
          "duration": 0.005434781250002629
        },
        {
          "name": "G1",
          "midi": 31,
          "time": 101.21736600000172,
          "velocity": 0.8976377952755905,
          "duration": 0.12499996875000363
        },
        {
          "name": "D6",
          "midi": 86,
          "time": 101.21736600000172,
          "velocity": 0.8503937007874016,
          "duration": 1.0869562500000427
        },
        {
          "name": "D#3",
          "midi": 51,
          "time": 101.47280071875173,
          "velocity": 0.33858267716535434,
          "duration": 0.005434781250002629
        },
        {
          "name": "G1",
          "midi": 31,
          "time": 101.47280071875173,
          "velocity": 0.952755905511811,
          "duration": 0.24456515625000463
        },
        {
          "name": "D#3",
          "midi": 51,
          "time": 101.73367021875174,
          "velocity": 0.7716535433070866,
          "duration": 0.005434781250002629
        },
        {
          "name": "E5",
          "midi": 76,
          "time": 101.73910500000174,
          "velocity": 0.9212598425196851,
          "duration": 0.2608694999999983
        },
        {
          "name": "E4",
          "midi": 64,
          "time": 101.73910500000174,
          "velocity": 0.8346456692913385,
          "duration": 0.2608694999999983
        },
        {
          "name": "E2",
          "midi": 40,
          "time": 101.73910500000174,
          "velocity": 0.9291338582677166,
          "duration": 0.005434781250002629
        },
        {
          "name": "F3",
          "midi": 53,
          "time": 101.73910500000174,
          "velocity": 0.9291338582677166,
          "duration": 0.005434781250002629
        },
        {
          "name": "G2",
          "midi": 43,
          "time": 101.73910500000174,
          "velocity": 0.952755905511811,
          "duration": 1.9184777812500329
        },
        {
          "name": "D#3",
          "midi": 51,
          "time": 101.99453971875174,
          "velocity": 0.3858267716535433,
          "duration": 0.005434781250002629
        },
        {
          "name": "D5",
          "midi": 74,
          "time": 101.99997450000174,
          "velocity": 0.9212598425196851,
          "duration": 0.2934781875000141
        },
        {
          "name": "D4",
          "midi": 62,
          "time": 101.99997450000174,
          "velocity": 0.8346456692913385,
          "duration": 2.09239078125006
        },
        {
          "name": "F3",
          "midi": 53,
          "time": 101.99997450000174,
          "velocity": 0.4251968503937008,
          "duration": 0.005434781250002629
        },
        {
          "name": "G1",
          "midi": 31,
          "time": 101.99997450000174,
          "velocity": 0.952755905511811,
          "duration": 0.18478256250000413
        },
        {
          "name": "D#3",
          "midi": 51,
          "time": 102.25540921875175,
          "velocity": 0.7480314960629921,
          "duration": 0.005434781250002629
        },
        {
          "name": "G1",
          "midi": 31,
          "time": 102.25540921875175,
          "velocity": 0.9291338582677166,
          "duration": 0.15217387500000257
        },
        {
          "name": "C2",
          "midi": 36,
          "time": 102.26084400000175,
          "velocity": 0.905511811023622,
          "duration": 0.005434781250002629
        },
        {
          "name": "C6",
          "midi": 84,
          "time": 102.26084400000175,
          "velocity": 0.7874015748031497,
          "duration": 1.0163040937500227
        },
        {
          "name": "F3",
          "midi": 53,
          "time": 102.26627878125176,
          "velocity": 0.889763779527559,
          "duration": 0.005434781250002629
        },
        {
          "name": "G5",
          "midi": 79,
          "time": 102.27171356250176,
          "velocity": 0.9212598425196851,
          "duration": 0.478260750000004
        },
        {
          "name": "G4",
          "midi": 67,
          "time": 102.27171356250176,
          "velocity": 0.8346456692913385,
          "duration": 1.7989125937500319
        },
        {
          "name": "C6",
          "midi": 84,
          "time": 102.27171356250176,
          "velocity": 0.7401574803149606,
          "duration": 1.01086931250002
        },
        {
          "name": "C5",
          "midi": 72,
          "time": 102.27714834375176,
          "velocity": 0.8031496062992126,
          "duration": 1.0054345312500175
        },
        {
          "name": "G1",
          "midi": 31,
          "time": 102.51627871875175,
          "velocity": 0.952755905511811,
          "duration": 0.2554347187500241
        },
        {
          "name": "F3",
          "midi": 53,
          "time": 102.52171350000175,
          "velocity": 0.4566929133858268,
          "duration": 0.005434781250002629
        },
        {
          "name": "D#3",
          "midi": 51,
          "time": 102.52714828125175,
          "velocity": 0.3543307086614173,
          "duration": 0.005434781250002629
        },
        {
          "name": "E5",
          "midi": 76,
          "time": 102.76084387500177,
          "velocity": 0.9212598425196851,
          "duration": 0.2554347187500099
        },
        {
          "name": "E4",
          "midi": 64,
          "time": 102.76084387500177,
          "velocity": 0.8346456692913385,
          "duration": 0.28804340625001146
        },
        {
          "name": "E2",
          "midi": 40,
          "time": 102.78258300000178,
          "velocity": 0.9291338582677166,
          "duration": 0.005434781250002629
        },
        {
          "name": "F3",
          "midi": 53,
          "time": 102.78258300000178,
          "velocity": 0.8661417322834646,
          "duration": 0.005434781250002629
        },
        {
          "name": "D#3",
          "midi": 51,
          "time": 102.78258300000178,
          "velocity": 0.7952755905511811,
          "duration": 0.005434781250002629
        },
        {
          "name": "G2",
          "midi": 43,
          "time": 102.78801778125178,
          "velocity": 0.952755905511811,
          "duration": 0.9999997500000006
        },
        {
          "name": "D#3",
          "midi": 51,
          "time": 103.03801771875177,
          "velocity": 0.3543307086614173,
          "duration": 0.005434781250002629
        },
        {
          "name": "F3",
          "midi": 53,
          "time": 103.04345250000178,
          "velocity": 0.4566929133858268,
          "duration": 0.005434781250002629
        },
        {
          "name": "C2",
          "midi": 36,
          "time": 103.04345250000178,
          "velocity": 0.5748031496062992,
          "duration": 0.005434781250002629
        },
        {
          "name": "G5",
          "midi": 79,
          "time": 103.04888728125178,
          "velocity": 0.9212598425196851,
          "duration": 0.4565216249999935
        },
        {
          "name": "G4",
          "midi": 67,
          "time": 103.04888728125178,
          "velocity": 0.8346456692913385,
          "duration": 1.038043218750019
        },
        {
          "name": "G1",
          "midi": 31,
          "time": 103.04888728125178,
          "velocity": 0.952755905511811,
          "duration": 0.12499996875000363
        },
        {
          "name": "B5",
          "midi": 83,
          "time": 103.28258287500178,
          "velocity": 0.7874015748031497,
          "duration": 0.9782606250000185
        },
        {
          "name": "B4",
          "midi": 71,
          "time": 103.28258287500178,
          "velocity": 0.7480314960629921,
          "duration": 0.9782606250000185
        },
        {
          "name": "D#3",
          "midi": 51,
          "time": 103.29888721875177,
          "velocity": 0.7952755905511811,
          "duration": 0.005434781250002629
        },
        {
          "name": "G1",
          "midi": 31,
          "time": 103.29888721875177,
          "velocity": 0.9291338582677166,
          "duration": 0.15217387500000257
        },
        {
          "name": "B5",
          "midi": 83,
          "time": 103.29888721875177,
          "velocity": 0.8346456692913385,
          "duration": 1.038043218750019
        },
        {
          "name": "F3",
          "midi": 53,
          "time": 103.30432200000178,
          "velocity": 0.8661417322834646,
          "duration": 0.005434781250002629
        },
        {
          "name": "C2",
          "midi": 36,
          "time": 103.30432200000178,
          "velocity": 0.8582677165354331,
          "duration": 0.005434781250002629
        },
        {
          "name": "G5",
          "midi": 79,
          "time": 103.55975671875177,
          "velocity": 0.9212598425196851,
          "duration": 0.42391293750002035
        },
        {
          "name": "G4",
          "midi": 67,
          "time": 103.55975671875177,
          "velocity": 0.8346456692913385,
          "duration": 0.5434781250000356
        },
        {
          "name": "D#3",
          "midi": 51,
          "time": 103.55975671875177,
          "velocity": 0.3937007874015748,
          "duration": 0.005434781250002629
        },
        {
          "name": "G2",
          "midi": 43,
          "time": 103.55975671875177,
          "velocity": 0.952755905511811,
          "duration": 0.5163042187500224
        },
        {
          "name": "F3",
          "midi": 53,
          "time": 103.56519150000177,
          "velocity": 0.4094488188976378,
          "duration": 0.005434781250002629
        },
        {
          "name": "G2",
          "midi": 43,
          "time": 103.69019146875178,
          "velocity": 0.7165354330708661,
          "duration": 0.40217381250002404
        },
        {
          "name": "F3",
          "midi": 53,
          "time": 103.82062621875178,
          "velocity": 0.8740157480314961,
          "duration": 0.005434781250002629
        },
        {
          "name": "G1",
          "midi": 31,
          "time": 103.82062621875178,
          "velocity": 0.952755905511811,
          "duration": 0.2554347187500099
        },
        {
          "name": "E2",
          "midi": 40,
          "time": 103.82606100000179,
          "velocity": 0.9291338582677166,
          "duration": 0.005434781250002629
        },
        {
          "name": "D#3",
          "midi": 51,
          "time": 103.82606100000179,
          "velocity": 0.7952755905511811,
          "duration": 0.005434781250002629
        },
        {
          "name": "D#3",
          "midi": 51,
          "time": 104.0814957187518,
          "velocity": 0.33070866141732286,
          "duration": 0.005434781250002629
        },
        {
          "name": "G2",
          "midi": 43,
          "time": 104.0814957187518,
          "velocity": 0.952755905511811,
          "duration": 0.2173912499999915
        },
        {
          "name": "G5",
          "midi": 79,
          "time": 104.10866962500181,
          "velocity": 0.9212598425196851,
          "duration": 0.3206520937499988
        },
        {
          "name": "G4",
          "midi": 67,
          "time": 104.10866962500181,
          "velocity": 0.8346456692913385,
          "duration": 0.3206520937499988
        },
        {
          "name": "F2",
          "midi": 41,
          "time": 104.10866962500181,
          "velocity": 0.9212598425196851,
          "duration": 0.06521737499998892
        },
        {
          "name": "C3",
          "midi": 48,
          "time": 104.10866962500181,
          "velocity": 0.9212598425196851,
          "duration": 0.06521737499998892
        },
        {
          "name": "A3",
          "midi": 57,
          "time": 104.10866962500181,
          "velocity": 0.9212598425196851,
          "duration": 0.06521737499998892
        },
        {
          "name": "C4",
          "midi": 60,
          "time": 104.10866962500181,
          "velocity": 0.9212598425196851,
          "duration": 0.06521737499998892
        },
        {
          "name": "F4",
          "midi": 65,
          "time": 104.10866962500181,
          "velocity": 0.9212598425196851,
          "duration": 0.06521737499998892
        },
        {
          "name": "F2",
          "midi": 41,
          "time": 104.1249739687518,
          "velocity": 0.9212598425196851,
          "duration": 0.10326084374999311
        },
        {
          "name": "C3",
          "midi": 48,
          "time": 104.1249739687518,
          "velocity": 0.9212598425196851,
          "duration": 0.10326084374999311
        },
        {
          "name": "A3",
          "midi": 57,
          "time": 104.1249739687518,
          "velocity": 0.9212598425196851,
          "duration": 0.10326084374999311
        },
        {
          "name": "C4",
          "midi": 60,
          "time": 104.1249739687518,
          "velocity": 0.9212598425196851,
          "duration": 0.10326084374999311
        },
        {
          "name": "F4",
          "midi": 65,
          "time": 104.1249739687518,
          "velocity": 0.9212598425196851,
          "duration": 0.10326084374999311
        },
        {
          "name": "F4",
          "midi": 65,
          "time": 104.2228000312518,
          "velocity": 0.952755905511811,
          "duration": 0.05434781249999787
        },
        {
          "name": "A3",
          "midi": 57,
          "time": 104.2228000312518,
          "velocity": 0.952755905511811,
          "duration": 0.05434781249999787
        },
        {
          "name": "C3",
          "midi": 48,
          "time": 104.2228000312518,
          "velocity": 0.952755905511811,
          "duration": 0.05434781249999787
        },
        {
          "name": "F2",
          "midi": 41,
          "time": 104.2228000312518,
          "velocity": 0.952755905511811,
          "duration": 0.05434781249999787
        },
        {
          "name": "C4",
          "midi": 60,
          "time": 104.2228000312518,
          "velocity": 0.952755905511811,
          "duration": 0.05434781249999787
        },
        {
          "name": "F4",
          "midi": 65,
          "time": 104.2391043750018,
          "velocity": 0.952755905511811,
          "duration": 0.05434781249998366
        },
        {
          "name": "A3",
          "midi": 57,
          "time": 104.2391043750018,
          "velocity": 0.952755905511811,
          "duration": 0.05434781249998366
        },
        {
          "name": "C3",
          "midi": 48,
          "time": 104.2391043750018,
          "velocity": 0.952755905511811,
          "duration": 0.05434781249998366
        },
        {
          "name": "F2",
          "midi": 41,
          "time": 104.2391043750018,
          "velocity": 0.952755905511811,
          "duration": 0.05434781249998366
        },
        {
          "name": "C4",
          "midi": 60,
          "time": 104.2391043750018,
          "velocity": 0.952755905511811,
          "duration": 0.05434781249998366
        },
        {
          "name": "F4",
          "midi": 65,
          "time": 104.33693043750179,
          "velocity": 0.9448818897637795,
          "duration": 4.0217381250001125
        },
        {
          "name": "A3",
          "midi": 57,
          "time": 104.3423652187518,
          "velocity": 0.7952755905511811,
          "duration": 0.005434781250002629
        },
        {
          "name": "D#3",
          "midi": 51,
          "time": 104.3423652187518,
          "velocity": 0.7244094488188977,
          "duration": 0.005434781250002629
        },
        {
          "name": "A3",
          "midi": 57,
          "time": 104.3423652187518,
          "velocity": 0.9212598425196851,
          "duration": 4.0217381250001125
        },
        {
          "name": "C4",
          "midi": 60,
          "time": 104.3423652187518,
          "velocity": 0.9763779527559056,
          "duration": 0.521739000000025
        },
        {
          "name": "C3",
          "midi": 48,
          "time": 104.3423652187518,
          "velocity": 0.9291338582677166,
          "duration": 4.0217381250001125
        },
        {
          "name": "F2",
          "midi": 41,
          "time": 104.3423652187518,
          "velocity": 1,
          "duration": 0.7391302500000307
        },
        {
          "name": "C2",
          "midi": 36,
          "time": 104.3478000000018,
          "velocity": 0.8740157480314961,
          "duration": 0.005434781250002629
        },
        {
          "name": "F1",
          "midi": 29,
          "time": 104.3478000000018,
          "velocity": 0.952755905511811,
          "duration": 0.20108690625001202
        },
        {
          "name": "F4",
          "midi": 65,
          "time": 104.3532347812518,
          "velocity": 0.9448818897637795,
          "duration": 4.0217381250001125
        },
        {
          "name": "A3",
          "midi": 57,
          "time": 104.3586695625018,
          "velocity": 0.9212598425196851,
          "duration": 4.0217381250001125
        },
        {
          "name": "C4",
          "midi": 60,
          "time": 104.3586695625018,
          "velocity": 0.9763779527559056,
          "duration": 4.005433781250105
        },
        {
          "name": "C3",
          "midi": 48,
          "time": 104.3586695625018,
          "velocity": 0.9291338582677166,
          "duration": 4.0217381250001125
        },
        {
          "name": "F2",
          "midi": 41,
          "time": 104.3586695625018,
          "velocity": 1,
          "duration": 1.777173468750064
        },
        {
          "name": "C5",
          "midi": 72,
          "time": 104.59236515625182,
          "velocity": 0.9212598425196851,
          "duration": 0.2771738437500062
        },
        {
          "name": "C4",
          "midi": 60,
          "time": 104.59236515625182,
          "velocity": 0.8346456692913385,
          "duration": 3.788042531250099
        },
        {
          "name": "D#3",
          "midi": 51,
          "time": 104.61410428125181,
          "velocity": 0.3464566929133858,
          "duration": 0.005434781250002629
        },
        {
          "name": "F1",
          "midi": 29,
          "time": 104.61410428125181,
          "velocity": 0.9291338582677166,
          "duration": 0.239130375000002
        },
        {
          "name": "G5",
          "midi": 79,
          "time": 104.86410421875182,
          "velocity": 0.9212598425196851,
          "duration": 0.3749999062500109
        },
        {
          "name": "G4",
          "midi": 67,
          "time": 104.86410421875182,
          "velocity": 0.8346456692913385,
          "duration": 0.5163042187500082
        },
        {
          "name": "E2",
          "midi": 40,
          "time": 104.86953900000182,
          "velocity": 0.9291338582677166,
          "duration": 0.005434781250002629
        },
        {
          "name": "F3",
          "midi": 53,
          "time": 104.86953900000182,
          "velocity": 0.8976377952755905,
          "duration": 0.005434781250002629
        },
        {
          "name": "D#3",
          "midi": 51,
          "time": 104.87497378125182,
          "velocity": 0.7480314960629921,
          "duration": 0.005434781250002629
        },
        {
          "name": "F2",
          "midi": 41,
          "time": 104.87497378125182,
          "velocity": 0.952755905511811,
          "duration": 2.2880429062500554
        },
        {
          "name": "F1",
          "midi": 29,
          "time": 105.12497371875183,
          "velocity": 0.952755905511811,
          "duration": 0.19565212499999518
        },
        {
          "name": "D#3",
          "midi": 51,
          "time": 105.13040850000183,
          "velocity": 0.41732283464566927,
          "duration": 0.005434781250002629
        },
        {
          "name": "C2",
          "midi": 36,
          "time": 105.13040850000183,
          "velocity": 0.5905511811023622,
          "duration": 0.005434781250002629
        },
        {
          "name": "C6",
          "midi": 84,
          "time": 105.36953887500182,
          "velocity": 0.8976377952755905,
          "duration": 1.1032605937500506
        },
        {
          "name": "G5",
          "midi": 79,
          "time": 105.38584321875183,
          "velocity": 0.9212598425196851,
          "duration": 0.5108694375000198
        },
        {
          "name": "G4",
          "midi": 67,
          "time": 105.38584321875183,
          "velocity": 0.8346456692913385,
          "duration": 0.5271737812500277
        },
        {
          "name": "C6",
          "midi": 84,
          "time": 105.38584321875183,
          "velocity": 0.7716535433070866,
          "duration": 1.0923910312500453
        },
        {
          "name": "C5",
          "midi": 72,
          "time": 105.38584321875183,
          "velocity": 0.6929133858267716,
          "duration": 1.1032605937500506
        },
        {
          "name": "F3",
          "midi": 53,
          "time": 105.39127800000183,
          "velocity": 0.8818897637795275,
          "duration": 0.005434781250002629
        },
        {
          "name": "C2",
          "midi": 36,
          "time": 105.39127800000183,
          "velocity": 0.8740157480314961,
          "duration": 0.005434781250002629
        },
        {
          "name": "D#3",
          "midi": 51,
          "time": 105.39671278125184,
          "velocity": 0.7952755905511811,
          "duration": 0.005434781250002629
        },
        {
          "name": "F1",
          "midi": 29,
          "time": 105.39671278125184,
          "velocity": 0.952755905511811,
          "duration": 0.1358695312500089
        },
        {
          "name": "D#3",
          "midi": 51,
          "time": 105.64671271875184,
          "velocity": 0.4251968503937008,
          "duration": 0.005434781250002629
        },
        {
          "name": "F1",
          "midi": 29,
          "time": 105.64671271875184,
          "velocity": 0.952755905511811,
          "duration": 0.239130375000002
        },
        {
          "name": "F3",
          "midi": 53,
          "time": 105.65214750000185,
          "velocity": 0.5590551181102362,
          "duration": 0.005434781250002629
        },
        {
          "name": "D#3",
          "midi": 51,
          "time": 105.90758221875186,
          "velocity": 0.7716535433070866,
          "duration": 0.005434781250002629
        },
        {
          "name": "F2",
          "midi": 41,
          "time": 105.90758221875186,
          "velocity": 0.952755905511811,
          "duration": 1.9402169062500434
        },
        {
          "name": "D5",
          "midi": 74,
          "time": 105.91301700000186,
          "velocity": 0.9212598425196851,
          "duration": 0.28260862500002304
        },
        {
          "name": "D4",
          "midi": 62,
          "time": 105.91301700000186,
          "velocity": 0.8346456692913385,
          "duration": 0.2717390625000178
        },
        {
          "name": "E2",
          "midi": 40,
          "time": 105.91301700000186,
          "velocity": 0.9291338582677166,
          "duration": 0.005434781250002629
        },
        {
          "name": "F3",
          "midi": 53,
          "time": 105.91845178125186,
          "velocity": 0.8818897637795275,
          "duration": 0.005434781250002629
        },
        {
          "name": "F1",
          "midi": 29,
          "time": 106.16845171875187,
          "velocity": 0.952755905511811,
          "duration": 0.20108690625001202
        },
        {
          "name": "D#3",
          "midi": 51,
          "time": 106.17388650000187,
          "velocity": 0.4094488188976378,
          "duration": 0.005434781250002629
        },
        {
          "name": "G5",
          "midi": 79,
          "time": 106.18475606250188,
          "velocity": 0.9212598425196851,
          "duration": 0.48369553125000664
        },
        {
          "name": "G4",
          "midi": 67,
          "time": 106.18475606250188,
          "velocity": 0.8346456692913385,
          "duration": 0.5108694375000056
        },
        {
          "name": "D#3",
          "midi": 51,
          "time": 106.42932121875188,
          "velocity": 0.7952755905511811,
          "duration": 0.005434781250002629
        },
        {
          "name": "F1",
          "midi": 29,
          "time": 106.42932121875188,
          "velocity": 0.952755905511811,
          "duration": 0.1413043124999973
        },
        {
          "name": "B5",
          "midi": 83,
          "time": 106.42932121875188,
          "velocity": 0.8346456692913385,
          "duration": 1.0326084375000022
        },
        {
          "name": "F3",
          "midi": 53,
          "time": 106.43475600000188,
          "velocity": 0.8818897637795275,
          "duration": 0.005434781250002629
        },
        {
          "name": "C2",
          "midi": 36,
          "time": 106.43475600000188,
          "velocity": 0.905511811023622,
          "duration": 0.005434781250002629
        },
        {
          "name": "B5",
          "midi": 83,
          "time": 106.45649512500188,
          "velocity": 0.7637795275590551,
          "duration": 1.0054345312500033
        },
        {
          "name": "B4",
          "midi": 71,
          "time": 106.45649512500188,
          "velocity": 0.7716535433070866,
          "duration": 1.0054345312500033
        },
        {
          "name": "D#3",
          "midi": 51,
          "time": 106.69019071875188,
          "velocity": 0.3937007874015748,
          "duration": 0.005434781250002629
        },
        {
          "name": "F1",
          "midi": 29,
          "time": 106.69019071875188,
          "velocity": 0.952755905511811,
          "duration": 0.27173906250000357
        },
        {
          "name": "D5",
          "midi": 74,
          "time": 106.69562550000188,
          "velocity": 0.9212598425196851,
          "duration": 0.4999998750000003
        },
        {
          "name": "D4",
          "midi": 62,
          "time": 106.69562550000188,
          "velocity": 0.8346456692913385,
          "duration": 0.5380433437500045
        },
        {
          "name": "F3",
          "midi": 53,
          "time": 106.69562550000188,
          "velocity": 0.5590551181102362,
          "duration": 0.005434781250002629
        },
        {
          "name": "D#3",
          "midi": 51,
          "time": 106.95106021875188,
          "velocity": 0.7716535433070866,
          "duration": 0.005434781250002629
        },
        {
          "name": "F2",
          "midi": 41,
          "time": 106.95106021875188,
          "velocity": 0.952755905511811,
          "duration": 0.9945649687500122
        },
        {
          "name": "E2",
          "midi": 40,
          "time": 106.95649500000188,
          "velocity": 0.9291338582677166,
          "duration": 0.005434781250002629
        },
        {
          "name": "F3",
          "midi": 53,
          "time": 106.96192978125188,
          "velocity": 0.8818897637795275,
          "duration": 0.005434781250002629
        },
        {
          "name": "D#3",
          "midi": 51,
          "time": 107.21192971875188,
          "velocity": 0.4330708661417323,
          "duration": 0.005434781250002629
        },
        {
          "name": "F3",
          "midi": 53,
          "time": 107.21736450000188,
          "velocity": 0.5590551181102362,
          "duration": 0.005434781250002629
        },
        {
          "name": "C2",
          "midi": 36,
          "time": 107.21736450000188,
          "velocity": 0.5748031496062992,
          "duration": 0.005434781250002629
        },
        {
          "name": "F1",
          "midi": 29,
          "time": 107.22279928125188,
          "velocity": 0.952755905511811,
          "duration": 0.0978260625000047
        },
        {
          "name": "G5",
          "midi": 79,
          "time": 107.23366884375189,
          "velocity": 0.9212598425196851,
          "duration": 0.48913031250000927
        },
        {
          "name": "G4",
          "midi": 67,
          "time": 107.23366884375189,
          "velocity": 0.8346456692913385,
          "duration": 0.5380433437500187
        },
        {
          "name": "A4",
          "midi": 69,
          "time": 107.46192965625188,
          "velocity": 0.6692913385826772,
          "duration": 1.0597823437500438
        },
        {
          "name": "A5",
          "midi": 81,
          "time": 107.46736443750189,
          "velocity": 0.7874015748031497,
          "duration": 0.9347823750000401
        },
        {
          "name": "A5",
          "midi": 81,
          "time": 107.46736443750189,
          "velocity": 0.8188976377952756,
          "duration": 1.0543475625000411
        },
        {
          "name": "D#3",
          "midi": 51,
          "time": 107.47279921875189,
          "velocity": 0.7716535433070866,
          "duration": 0.005434781250002629
        },
        {
          "name": "F3",
          "midi": 53,
          "time": 107.47823400000189,
          "velocity": 0.8740157480314961,
          "duration": 0.005434781250002629
        },
        {
          "name": "C2",
          "midi": 36,
          "time": 107.47823400000189,
          "velocity": 0.8582677165354331,
          "duration": 0.005434781250002629
        },
        {
          "name": "F1",
          "midi": 29,
          "time": 107.4836687812519,
          "velocity": 0.952755905511811,
          "duration": 0.22826081249999675
        },
        {
          "name": "D#3",
          "midi": 51,
          "time": 107.7336687187519,
          "velocity": 0.4566929133858268,
          "duration": 0.005434781250002629
        },
        {
          "name": "F2",
          "midi": 41,
          "time": 107.7445382812519,
          "velocity": 0.905511811023622,
          "duration": 0.5869563749999998
        },
        {
          "name": "D5",
          "midi": 74,
          "time": 107.7717121875019,
          "velocity": 0.9212598425196851,
          "duration": 0.38586946874998773
        },
        {
          "name": "D4",
          "midi": 62,
          "time": 107.7717121875019,
          "velocity": 0.8346456692913385,
          "duration": 0.505434656250003
        },
        {
          "name": "F2",
          "midi": 41,
          "time": 107.86410346875189,
          "velocity": 0.7165354330708661,
          "duration": 0.4999998750000145
        },
        {
          "name": "E2",
          "midi": 40,
          "time": 107.97279909375189,
          "velocity": 0.6062992125984252,
          "duration": 0.005434781250002629
        },
        {
          "name": "D#3",
          "midi": 51,
          "time": 107.99453821875188,
          "velocity": 0.7952755905511811,
          "duration": 0.005434781250002629
        },
        {
          "name": "E2",
          "midi": 40,
          "time": 107.99997300000189,
          "velocity": 0.9291338582677166,
          "duration": 0.005434781250002629
        },
        {
          "name": "F3",
          "midi": 53,
          "time": 108.00540778125189,
          "velocity": 0.889763779527559,
          "duration": 0.005434781250002629
        },
        {
          "name": "F1",
          "midi": 29,
          "time": 108.00540778125189,
          "velocity": 0.952755905511811,
          "duration": 0.239130375000002
        },
        {
          "name": "D#3",
          "midi": 51,
          "time": 108.2554077187519,
          "velocity": 0.4566929133858268,
          "duration": 0.005434781250002629
        },
        {
          "name": "F3",
          "midi": 53,
          "time": 108.2662772812519,
          "velocity": 0.47244094488188976,
          "duration": 0.005434781250002629
        },
        {
          "name": "F2",
          "midi": 41,
          "time": 108.2662772812519,
          "velocity": 0.8976377952755905,
          "duration": 0.11413040625001258
        },
        {
          "name": "A5",
          "midi": 81,
          "time": 108.27714684375191,
          "velocity": 0.9212598425196851,
          "duration": 8.603258718750567
        },
        {
          "name": "A4",
          "midi": 69,
          "time": 108.27714684375191,
          "velocity": 0.6456692913385826,
          "duration": 1.5869561250000572
        },
        {
          "name": "C#3",
          "midi": 49,
          "time": 108.38584246875192,
          "velocity": 0.7165354330708661,
          "duration": 0.005434781250002629
        },
        {
          "name": "F2",
          "midi": 41,
          "time": 108.38584246875192,
          "velocity": 0.7716535433070866,
          "duration": 0.0978260625000047
        },
        {
          "name": "E4",
          "midi": 64,
          "time": 108.40758159375193,
          "velocity": 0.9606299212598425,
          "duration": 0.05434781249999787
        },
        {
          "name": "C#4",
          "midi": 61,
          "time": 108.40758159375193,
          "velocity": 0.9606299212598425,
          "duration": 0.05434781249999787
        },
        {
          "name": "A3",
          "midi": 57,
          "time": 108.40758159375193,
          "velocity": 0.9606299212598425,
          "duration": 0.05434781249999787
        },
        {
          "name": "E3",
          "midi": 52,
          "time": 108.40758159375193,
          "velocity": 0.9606299212598425,
          "duration": 0.05434781249999787
        },
        {
          "name": "A2",
          "midi": 45,
          "time": 108.40758159375193,
          "velocity": 0.9606299212598425,
          "duration": 0.05434781249999787
        },
        {
          "name": "E4",
          "midi": 64,
          "time": 108.42388593750192,
          "velocity": 0.9763779527559056,
          "duration": 0.05434781249999787
        },
        {
          "name": "C#4",
          "midi": 61,
          "time": 108.42388593750192,
          "velocity": 0.9763779527559056,
          "duration": 0.05434781249999787
        },
        {
          "name": "A3",
          "midi": 57,
          "time": 108.42388593750192,
          "velocity": 0.9763779527559056,
          "duration": 0.05434781249999787
        },
        {
          "name": "E3",
          "midi": 52,
          "time": 108.42388593750192,
          "velocity": 0.9763779527559056,
          "duration": 0.05434781249999787
        },
        {
          "name": "A2",
          "midi": 45,
          "time": 108.42388593750192,
          "velocity": 0.9763779527559056,
          "duration": 0.05434781249999787
        },
        {
          "name": "A2",
          "midi": 45,
          "time": 108.49453809375193,
          "velocity": 0.9212598425196851,
          "duration": 0.05434781249999787
        },
        {
          "name": "A2",
          "midi": 45,
          "time": 108.49453809375193,
          "velocity": 1,
          "duration": 1.994564718750027
        },
        {
          "name": "E3",
          "midi": 52,
          "time": 108.49453809375193,
          "velocity": 1,
          "duration": 0.30978253125000776
        },
        {
          "name": "A3",
          "midi": 57,
          "time": 108.49453809375193,
          "velocity": 1,
          "duration": 0.038043468750004195
        },
        {
          "name": "C#4",
          "midi": 61,
          "time": 108.49453809375193,
          "velocity": 1,
          "duration": 1.0923910312500453
        },
        {
          "name": "E4",
          "midi": 64,
          "time": 108.49453809375193,
          "velocity": 1,
          "duration": 4.168477218750041
        },
        {
          "name": "A2",
          "midi": 45,
          "time": 108.51084243750192,
          "velocity": 1,
          "duration": 2.1249994687500333
        },
        {
          "name": "E3",
          "midi": 52,
          "time": 108.51084243750192,
          "velocity": 1,
          "duration": 0.6521737500000313
        },
        {
          "name": "A3",
          "midi": 57,
          "time": 108.51084243750192,
          "velocity": 1,
          "duration": 4.152172875000048
        },
        {
          "name": "C#4",
          "midi": 61,
          "time": 108.51084243750192,
          "velocity": 1,
          "duration": 1.3043475000000484
        },
        {
          "name": "E4",
          "midi": 64,
          "time": 108.51084243750192,
          "velocity": 1,
          "duration": 4.168477218750056
        },
        {
          "name": "C2",
          "midi": 36,
          "time": 108.52171200000193,
          "velocity": 0.8818897637795275,
          "duration": 0.005434781250002629
        },
        {
          "name": "A2",
          "midi": 45,
          "time": 108.52171200000193,
          "velocity": 0.9763779527559056,
          "duration": 4.054346812500043
        },
        {
          "name": "A4",
          "midi": 69,
          "time": 108.52171200000193,
          "velocity": 0.6771653543307087,
          "duration": 2.4021733125000395
        },
        {
          "name": "E4",
          "midi": 64,
          "time": 108.52171200000193,
          "velocity": 0.6929133858267716,
          "duration": 8.891302125000536
        },
        {
          "name": "A3",
          "midi": 57,
          "time": 108.52714678125193,
          "velocity": 0.8267716535433071,
          "duration": 4.152172875000048
        },
        {
          "name": "A1",
          "midi": 33,
          "time": 108.52714678125193,
          "velocity": 0.952755905511811,
          "duration": 0.15760865624999099
        },
        {
          "name": "E3",
          "midi": 52,
          "time": 108.74997281250192,
          "velocity": 0.6141732283464567,
          "duration": 0.5760868125000513
        },
        {
          "name": "A1",
          "midi": 33,
          "time": 108.77714671875192,
          "velocity": 0.7952755905511811,
          "duration": 0.1576086562500194
        },
        {
          "name": "E3",
          "midi": 52,
          "time": 108.77714671875192,
          "velocity": 0.6692913385826772,
          "duration": 1.1684779687500395
        },
        {
          "name": "F#2",
          "midi": 42,
          "time": 108.78801628125193,
          "velocity": 0.30708661417322836,
          "duration": 0.005434781250002629
        },
        {
          "name": "C#5",
          "midi": 73,
          "time": 109.01084231250194,
          "velocity": 0.889763779527559,
          "duration": 0.8315215312500328
        },
        {
          "name": "B3",
          "midi": 59,
          "time": 109.01084231250194,
          "velocity": 0.8503937007874016,
          "duration": 0.05434781250001208
        },
        {
          "name": "A4",
          "midi": 69,
          "time": 109.02171187500194,
          "velocity": 0.8346456692913385,
          "duration": 2.961955781250026
        },
        {
          "name": "B3",
          "midi": 59,
          "time": 109.03801621875193,
          "velocity": 0.905511811023622,
          "duration": 0.2554347187500241
        },
        {
          "name": "E2",
          "midi": 40,
          "time": 109.04345100000194,
          "velocity": 0.9291338582677166,
          "duration": 0.005434781250002629
        },
        {
          "name": "A1",
          "midi": 33,
          "time": 109.04345100000194,
          "velocity": 0.9291338582677166,
          "duration": 0.16304343750002204
        },
        {
          "name": "F#2",
          "midi": 42,
          "time": 109.04888578125194,
          "velocity": 0.7480314960629921,
          "duration": 0.005434781250002629
        },
        {
          "name": "E3",
          "midi": 52,
          "time": 109.27171181250196,
          "velocity": 0.7086614173228346,
          "duration": 0.8369563124999928
        },
        {
          "name": "E3",
          "midi": 52,
          "time": 109.29888571875196,
          "velocity": 0.7637795275590551,
          "duration": 1.1684779687499969
        },
        {
          "name": "C2",
          "midi": 36,
          "time": 109.30432050000196,
          "velocity": 0.6377952755905512,
          "duration": 0.005434781250002629
        },
        {
          "name": "F#2",
          "midi": 42,
          "time": 109.30975528125197,
          "velocity": 0.4094488188976378,
          "duration": 0.005434781250002629
        },
        {
          "name": "A1",
          "midi": 33,
          "time": 109.30975528125197,
          "velocity": 0.9133858267716536,
          "duration": 0.15217387500000257
        },
        {
          "name": "C#4",
          "midi": 61,
          "time": 109.53258131250197,
          "velocity": 0.7952755905511811,
          "duration": 2.1413038124999844
        },
        {
          "name": "A6",
          "midi": 93,
          "time": 109.54888565625197,
          "velocity": 0.7874015748031497,
          "duration": 3.418477406250048
        },
        {
          "name": "F#2",
          "midi": 42,
          "time": 109.55975521875197,
          "velocity": 0.7480314960629921,
          "duration": 0.005434781250002629
        },
        {
          "name": "A1",
          "midi": 33,
          "time": 109.55975521875197,
          "velocity": 0.9291338582677166,
          "duration": 0.1413043124999973
        },
        {
          "name": "C#4",
          "midi": 61,
          "time": 109.55975521875197,
          "velocity": 0.8503937007874016,
          "duration": 2.342390718749982
        },
        {
          "name": "C2",
          "midi": 36,
          "time": 109.56519000000198,
          "velocity": 0.8582677165354331,
          "duration": 0.005434781250002629
        },
        {
          "name": "B3",
          "midi": 59,
          "time": 109.79345081250197,
          "velocity": 0.7716535433070866,
          "duration": 0.05434781249999787
        },
        {
          "name": "F#2",
          "midi": 42,
          "time": 109.82062471875197,
          "velocity": 0.49606299212598426,
          "duration": 0.005434781250002629
        },
        {
          "name": "A1",
          "midi": 33,
          "time": 109.82062471875197,
          "velocity": 0.8976377952755905,
          "duration": 0.14673909374998573
        },
        {
          "name": "B3",
          "midi": 59,
          "time": 109.82062471875197,
          "velocity": 0.8267716535433071,
          "duration": 0.48913031249998085
        },
        {
          "name": "E3",
          "midi": 52,
          "time": 110.05432031250196,
          "velocity": 0.7165354330708661,
          "duration": 0.836956312500007
        },
        {
          "name": "C#5",
          "midi": 73,
          "time": 110.07062465625195,
          "velocity": 0.9133858267716536,
          "duration": 0.8423910937500096
        },
        {
          "name": "A4",
          "midi": 69,
          "time": 110.07062465625195,
          "velocity": 0.8661417322834646,
          "duration": 2.9673905625000714
        },
        {
          "name": "F#2",
          "midi": 42,
          "time": 110.08149421875196,
          "velocity": 0.7716535433070866,
          "duration": 0.005434781250002629
        },
        {
          "name": "E3",
          "midi": 52,
          "time": 110.08149421875196,
          "velocity": 0.7716535433070866,
          "duration": 1.168477968750011
        },
        {
          "name": "E2",
          "midi": 40,
          "time": 110.08692900000196,
          "velocity": 0.9291338582677166,
          "duration": 0.005434781250002629
        },
        {
          "name": "A1",
          "midi": 33,
          "time": 110.08692900000196,
          "velocity": 0.952755905511811,
          "duration": 0.14673909374999994
        },
        {
          "name": "B3",
          "midi": 59,
          "time": 110.31518981250196,
          "velocity": 0.7874015748031497,
          "duration": 0.05434781249999787
        },
        {
          "name": "F#2",
          "midi": 42,
          "time": 110.34236371875195,
          "velocity": 0.4251968503937008,
          "duration": 0.005434781250002629
        },
        {
          "name": "A1",
          "midi": 33,
          "time": 110.34236371875195,
          "velocity": 0.8503937007874016,
          "duration": 0.14673909374999994
        },
        {
          "name": "B3",
          "midi": 59,
          "time": 110.34236371875195,
          "velocity": 0.84251968503937,
          "duration": 0.24456515625000463
        },
        {
          "name": "A2",
          "midi": 45,
          "time": 110.58149409375196,
          "velocity": 0.9212598425196851,
          "duration": 2.0815212187500123
        },
        {
          "name": "F#2",
          "midi": 42,
          "time": 110.60323321875195,
          "velocity": 0.8661417322834646,
          "duration": 0.005434781250002629
        },
        {
          "name": "A1",
          "midi": 33,
          "time": 110.60323321875195,
          "velocity": 0.952755905511811,
          "duration": 0.16304343750000783
        },
        {
          "name": "C2",
          "midi": 36,
          "time": 110.60866800000196,
          "velocity": 0.8818897637795275,
          "duration": 0.005434781250002629
        },
        {
          "name": "A2",
          "midi": 45,
          "time": 110.60866800000196,
          "velocity": 0.9763779527559056,
          "duration": 2.0706516562500212
        },
        {
          "name": "E3",
          "midi": 52,
          "time": 110.83692881250197,
          "velocity": 0.6141732283464567,
          "duration": 0.5760868124999945
        },
        {
          "name": "F#2",
          "midi": 42,
          "time": 110.86410271875197,
          "velocity": 0.4566929133858268,
          "duration": 0.005434781250002629
        },
        {
          "name": "A1",
          "midi": 33,
          "time": 110.86410271875197,
          "velocity": 0.8503937007874016,
          "duration": 0.1576086562500052
        },
        {
          "name": "E3",
          "midi": 52,
          "time": 110.86410271875197,
          "velocity": 0.6692913385826772,
          "duration": 0.7663041562500013
        },
        {
          "name": "B3",
          "midi": 59,
          "time": 111.09779831250196,
          "velocity": 0.8503937007874016,
          "duration": 0.05434781249999787
        },
        {
          "name": "F#2",
          "midi": 42,
          "time": 111.12497221875196,
          "velocity": 0.7480314960629921,
          "duration": 0.005434781250002629
        },
        {
          "name": "A1",
          "midi": 33,
          "time": 111.12497221875196,
          "velocity": 0.952755905511811,
          "duration": 0.17391299999999887
        },
        {
          "name": "B3",
          "midi": 59,
          "time": 111.12497221875196,
          "velocity": 0.905511811023622,
          "duration": 0.24456515625000463
        },
        {
          "name": "E2",
          "midi": 40,
          "time": 111.13040700000197,
          "velocity": 0.9291338582677166,
          "duration": 0.005434781250002629
        },
        {
          "name": "C#5",
          "midi": 73,
          "time": 111.13040700000197,
          "velocity": 0.9133858267716536,
          "duration": 0.8423910937499954
        },
        {
          "name": "A4",
          "midi": 69,
          "time": 111.15214612500196,
          "velocity": 0.8031496062992126,
          "duration": 2.95108621875022
        },
        {
          "name": "E3",
          "midi": 52,
          "time": 111.35866781250196,
          "velocity": 0.7086614173228346,
          "duration": 0.836956312500007
        },
        {
          "name": "A1",
          "midi": 33,
          "time": 111.38584171875196,
          "velocity": 0.8346456692913385,
          "duration": 0.1793477812500015
        },
        {
          "name": "E3",
          "midi": 52,
          "time": 111.38584171875196,
          "velocity": 0.7637795275590551,
          "duration": 1.0271736562500138
        },
        {
          "name": "F#2",
          "midi": 42,
          "time": 111.39127650000196,
          "velocity": 0.4015748031496063,
          "duration": 0.005434781250002629
        },
        {
          "name": "C2",
          "midi": 36,
          "time": 111.39127650000196,
          "velocity": 0.6220472440944882,
          "duration": 0.005434781250002629
        },
        {
          "name": "C#4",
          "midi": 61,
          "time": 111.61953731250196,
          "velocity": 0.7952755905511811,
          "duration": 1.0434780000000075
        },
        {
          "name": "F#2",
          "midi": 42,
          "time": 111.64671121875196,
          "velocity": 0.7559055118110236,
          "duration": 0.005434781250002629
        },
        {
          "name": "A1",
          "midi": 33,
          "time": 111.64671121875196,
          "velocity": 0.952755905511811,
          "duration": 0.16304343749999362
        },
        {
          "name": "C#4",
          "midi": 61,
          "time": 111.64671121875196,
          "velocity": 0.8503937007874016,
          "duration": 1.0326084375000164
        },
        {
          "name": "C2",
          "midi": 36,
          "time": 111.65214600000196,
          "velocity": 0.8740157480314961,
          "duration": 0.005434781250002629
        },
        {
          "name": "B3",
          "midi": 59,
          "time": 111.88040681250196,
          "velocity": 0.7716535433070866,
          "duration": 0.05434781249999787
        },
        {
          "name": "A1",
          "midi": 33,
          "time": 111.90758071875196,
          "velocity": 0.7952755905511811,
          "duration": 0.17391300000001308
        },
        {
          "name": "B3",
          "midi": 59,
          "time": 111.90758071875196,
          "velocity": 0.8267716535433071,
          "duration": 0.4728259687500156
        },
        {
          "name": "F#2",
          "midi": 42,
          "time": 111.91301550000196,
          "velocity": 0.4409448818897638,
          "duration": 0.005434781250002629
        },
        {
          "name": "E3",
          "midi": 52,
          "time": 112.14127631250197,
          "velocity": 0.7165354330708661,
          "duration": 0.5217389999999966
        },
        {
          "name": "C#5",
          "midi": 73,
          "time": 112.16301543750197,
          "velocity": 0.937007874015748,
          "duration": 0.8695650000000512
        },
        {
          "name": "A1",
          "midi": 33,
          "time": 112.16845021875197,
          "velocity": 0.952755905511811,
          "duration": 0.1576086562500052
        },
        {
          "name": "E3",
          "midi": 52,
          "time": 112.16845021875197,
          "velocity": 0.7716535433070866,
          "duration": 0.5108694375000056
        },
        {
          "name": "E2",
          "midi": 40,
          "time": 112.17388500000197,
          "velocity": 0.9291338582677166,
          "duration": 0.005434781250002629
        },
        {
          "name": "F#2",
          "midi": 42,
          "time": 112.17388500000197,
          "velocity": 0.7086614173228346,
          "duration": 0.005434781250002629
        },
        {
          "name": "A4",
          "midi": 69,
          "time": 112.17388500000197,
          "velocity": 0.8346456692913385,
          "duration": 2.9565210000002793
        },
        {
          "name": "B3",
          "midi": 59,
          "time": 112.40214581250197,
          "velocity": 0.7874015748031497,
          "duration": 0.05434781249999787
        },
        {
          "name": "A1",
          "midi": 33,
          "time": 112.42931971875197,
          "velocity": 0.952755905511811,
          "duration": 0.1576086562500052
        },
        {
          "name": "B3",
          "midi": 59,
          "time": 112.42931971875197,
          "velocity": 0.84251968503937,
          "duration": 0.24456515625000463
        },
        {
          "name": "F#2",
          "midi": 42,
          "time": 112.43475450000197,
          "velocity": 0.4094488188976378,
          "duration": 0.005434781250002629
        },
        {
          "name": "F#2",
          "midi": 42,
          "time": 112.66845009375197,
          "velocity": 0.9212598425196851,
          "duration": 0.032608687500015776
        },
        {
          "name": "F#1",
          "midi": 30,
          "time": 112.69018921875198,
          "velocity": 0.8976377952755905,
          "duration": 0.16847821875001046
        },
        {
          "name": "F#2",
          "midi": 42,
          "time": 112.69562400000198,
          "velocity": 0.8976377952755905,
          "duration": 0.027173906249998936
        },
        {
          "name": "C2",
          "midi": 36,
          "time": 112.69562400000198,
          "velocity": 0.8818897637795275,
          "duration": 0.005434781250002629
        },
        {
          "name": "F#2",
          "midi": 42,
          "time": 112.69562400000198,
          "velocity": 0.9763779527559056,
          "duration": 0.271739062500032
        },
        {
          "name": "C#3",
          "midi": 49,
          "time": 112.92388481250201,
          "velocity": 0.6141732283464567,
          "duration": 0.05434781250001208
        },
        {
          "name": "F#1",
          "midi": 30,
          "time": 112.95105871875201,
          "velocity": 0.8740157480314961,
          "duration": 0.1576086562500194
        },
        {
          "name": "C#3",
          "midi": 49,
          "time": 112.95105871875201,
          "velocity": 0.6692913385826772,
          "duration": 0.3858694687500588
        },
        {
          "name": "F#2",
          "midi": 42,
          "time": 112.96192828125201,
          "velocity": 0.4566929133858268,
          "duration": 0.26630428125002936
        },
        {
          "name": "G#3",
          "midi": 56,
          "time": 113.18475431250204,
          "velocity": 0.8503937007874016,
          "duration": 0.05434781250001208
        },
        {
          "name": "G#3",
          "midi": 56,
          "time": 113.21192821875204,
          "velocity": 0.905511811023622,
          "duration": 0.2554347187500525
        },
        {
          "name": "E2",
          "midi": 40,
          "time": 113.21736300000204,
          "velocity": 0.9291338582677166,
          "duration": 0.005434781250002629
        },
        {
          "name": "C#5",
          "midi": 73,
          "time": 113.21736300000204,
          "velocity": 0.968503937007874,
          "duration": 0.8804345625001417
        },
        {
          "name": "F#2",
          "midi": 42,
          "time": 113.22279778125204,
          "velocity": 0.7244094488188977,
          "duration": 0.2663042812500578
        },
        {
          "name": "F#1",
          "midi": 30,
          "time": 113.22279778125204,
          "velocity": 0.952755905511811,
          "duration": 0.152173875000031
        },
        {
          "name": "A4",
          "midi": 69,
          "time": 113.22823256250204,
          "velocity": 0.9212598425196851,
          "duration": 2.9782601250003466
        },
        {
          "name": "C#3",
          "midi": 49,
          "time": 113.44562381250208,
          "velocity": 0.7086614173228346,
          "duration": 0.054347812500026293
        },
        {
          "name": "C#3",
          "midi": 49,
          "time": 113.47279771875209,
          "velocity": 0.7637795275590551,
          "duration": 0.6467389687500855
        },
        {
          "name": "C2",
          "midi": 36,
          "time": 113.4782325000021,
          "velocity": 0.5905511811023622,
          "duration": 0.005434781250002629
        },
        {
          "name": "F#1",
          "midi": 30,
          "time": 113.4782325000021,
          "velocity": 0.905511811023622,
          "duration": 0.15760865625003362
        },
        {
          "name": "F#2",
          "midi": 42,
          "time": 113.4836672812521,
          "velocity": 0.4330708661417323,
          "duration": 0.2663042812500436
        },
        {
          "name": "A3",
          "midi": 57,
          "time": 113.70649331250213,
          "velocity": 0.7952755905511811,
          "duration": 0.05434781250001208
        },
        {
          "name": "F#1",
          "midi": 30,
          "time": 113.73366721875213,
          "velocity": 0.952755905511811,
          "duration": 0.1739130000000273
        },
        {
          "name": "A3",
          "midi": 57,
          "time": 113.73366721875213,
          "velocity": 0.8503937007874016,
          "duration": 0.2554347187500383
        },
        {
          "name": "C2",
          "midi": 36,
          "time": 113.73910200000213,
          "velocity": 0.8818897637795275,
          "duration": 0.005434781250002629
        },
        {
          "name": "F#2",
          "midi": 42,
          "time": 113.74453678125214,
          "velocity": 0.7086614173228346,
          "duration": 0.2554347187500383
        },
        {
          "name": "G#3",
          "midi": 56,
          "time": 113.96736281250217,
          "velocity": 0.7716535433070866,
          "duration": 0.05434781249999787
        },
        {
          "name": "F#2",
          "midi": 42,
          "time": 113.99453671875217,
          "velocity": 0.4566929133858268,
          "duration": 0.26630428125001515
        },
        {
          "name": "G#3",
          "midi": 56,
          "time": 113.99453671875217,
          "velocity": 0.8267716535433071,
          "duration": 0.4891303125000235
        },
        {
          "name": "F#1",
          "midi": 30,
          "time": 113.99997150000218,
          "velocity": 0.8582677165354331,
          "duration": 0.15217387500000257
        },
        {
          "name": "C#3",
          "midi": 49,
          "time": 114.22823231250219,
          "velocity": 0.7165354330708661,
          "duration": 0.05434781249999787
        },
        {
          "name": "F#2",
          "midi": 42,
          "time": 114.25540621875219,
          "velocity": 0.6299212598425197,
          "duration": 0.26630428125001515
        },
        {
          "name": "C#3",
          "midi": 49,
          "time": 114.25540621875219,
          "velocity": 0.7716535433070866,
          "duration": 0.38586946875001615
        },
        {
          "name": "E2",
          "midi": 40,
          "time": 114.26084100000219,
          "velocity": 0.9291338582677166,
          "duration": 0.005434781250002629
        },
        {
          "name": "F#1",
          "midi": 30,
          "time": 114.26627578125219,
          "velocity": 0.9212598425196851,
          "duration": 0.16847821875001046
        },
        {
          "name": "C#5",
          "midi": 73,
          "time": 114.28258012500218,
          "velocity": 0.9133858267716536,
          "duration": 0.8369563125000639
        },
        {
          "name": "A4",
          "midi": 69,
          "time": 114.28801490625219,
          "velocity": 0.8503937007874016,
          "duration": 2.592390656250288
        },
        {
          "name": "G#3",
          "midi": 56,
          "time": 114.4891018125022,
          "velocity": 0.7874015748031497,
          "duration": 0.05434781249999787
        },
        {
          "name": "F#2",
          "midi": 42,
          "time": 114.5162757187522,
          "velocity": 0.4094488188976378,
          "duration": 0.14673909375001415
        },
        {
          "name": "G#3",
          "midi": 56,
          "time": 114.5162757187522,
          "velocity": 0.84251968503937,
          "duration": 0.24456515625001884
        },
        {
          "name": "F#1",
          "midi": 30,
          "time": 114.5271452812522,
          "velocity": 0.8661417322834646,
          "duration": 0.14130431250001152
        },
        {
          "name": "F#2",
          "midi": 42,
          "time": 114.75540609375221,
          "velocity": 0.9212598425196851,
          "duration": 0.027173906249998936
        },
        {
          "name": "F#2",
          "midi": 42,
          "time": 114.77714521875221,
          "velocity": 0.8976377952755905,
          "duration": 0.032608687500001565
        },
        {
          "name": "C2",
          "midi": 36,
          "time": 114.78258000000221,
          "velocity": 0.8661417322834646,
          "duration": 0.005434781250002629
        },
        {
          "name": "F#1",
          "midi": 30,
          "time": 114.78258000000221,
          "velocity": 0.9212598425196851,
          "duration": 0.16304343750000783
        },
        {
          "name": "F#2",
          "midi": 42,
          "time": 114.78258000000221,
          "velocity": 0.9763779527559056,
          "duration": 0.26086950000002673
        },
        {
          "name": "C#3",
          "midi": 49,
          "time": 115.01084081250224,
          "velocity": 0.6141732283464567,
          "duration": 0.05434781249999787
        },
        {
          "name": "F#2",
          "midi": 42,
          "time": 115.03801471875224,
          "velocity": 0.4409448818897638,
          "duration": 0.26630428125002936
        },
        {
          "name": "C#3",
          "midi": 49,
          "time": 115.03801471875224,
          "velocity": 0.6692913385826772,
          "duration": 0.3858694687500588
        },
        {
          "name": "F#1",
          "midi": 30,
          "time": 115.04344950000224,
          "velocity": 0.8267716535433071,
          "duration": 0.14673909375001415
        },
        {
          "name": "G#3",
          "midi": 56,
          "time": 115.27171031250226,
          "velocity": 0.8503937007874016,
          "duration": 0.05434781250001208
        },
        {
          "name": "F#2",
          "midi": 42,
          "time": 115.29888421875226,
          "velocity": 0.7007874015748031,
          "duration": 0.2663042812500436
        },
        {
          "name": "C#5",
          "midi": 73,
          "time": 115.29888421875226,
          "velocity": 0.937007874015748,
          "duration": 0.8913041250001186
        },
        {
          "name": "G#3",
          "midi": 56,
          "time": 115.29888421875226,
          "velocity": 0.905511811023622,
          "duration": 0.24456515625004727
        },
        {
          "name": "E2",
          "midi": 40,
          "time": 115.30431900000227,
          "velocity": 0.9291338582677166,
          "duration": 0.005434781250002629
        },
        {
          "name": "F#1",
          "midi": 30,
          "time": 115.30431900000227,
          "velocity": 0.9212598425196851,
          "duration": 0.16304343750003625
        },
        {
          "name": "A4",
          "midi": 69,
          "time": 115.31518856250227,
          "velocity": 0.8818897637795275,
          "duration": 1.9076082187501981
        },
        {
          "name": "C#3",
          "midi": 49,
          "time": 115.5325798125023,
          "velocity": 0.7086614173228346,
          "duration": 0.05434781249999787
        },
        {
          "name": "F#2",
          "midi": 42,
          "time": 115.5597537187523,
          "velocity": 0.4251968503937008,
          "duration": 0.2771738437500346
        },
        {
          "name": "C#3",
          "midi": 49,
          "time": 115.5597537187523,
          "velocity": 0.7637795275590551,
          "duration": 0.24456515625003306
        },
        {
          "name": "C2",
          "midi": 36,
          "time": 115.56518850000231,
          "velocity": 0.5669291338582677,
          "duration": 0.005434781250002629
        },
        {
          "name": "F#1",
          "midi": 30,
          "time": 115.56518850000231,
          "velocity": 0.8110236220472441,
          "duration": 0.16847821875001046
        },
        {
          "name": "A3",
          "midi": 57,
          "time": 115.79344931250233,
          "velocity": 0.7952755905511811,
          "duration": 0.05434781250001208
        },
        {
          "name": "A3",
          "midi": 57,
          "time": 115.82062321875233,
          "velocity": 0.8503937007874016,
          "duration": 0.2554347187500241
        },
        {
          "name": "C2",
          "midi": 36,
          "time": 115.82605800000233,
          "velocity": 0.8740157480314961,
          "duration": 0.005434781250002629
        },
        {
          "name": "F#1",
          "midi": 30,
          "time": 115.82605800000233,
          "velocity": 0.952755905511811,
          "duration": 0.16847821875001046
        },
        {
          "name": "F#2",
          "midi": 42,
          "time": 115.83149278125234,
          "velocity": 0.6929133858267716,
          "duration": 0.26630428125002936
        },
        {
          "name": "G#3",
          "midi": 56,
          "time": 116.05431881250234,
          "velocity": 0.7716535433070866,
          "duration": 0.054347812500026293
        },
        {
          "name": "G#3",
          "midi": 56,
          "time": 116.08149271875236,
          "velocity": 0.8267716535433071,
          "duration": 0.47282596875007243
        },
        {
          "name": "F#2",
          "midi": 42,
          "time": 116.09236228125236,
          "velocity": 0.44881889763779526,
          "duration": 0.2663042812500436
        },
        {
          "name": "F#1",
          "midi": 30,
          "time": 116.09236228125236,
          "velocity": 0.8582677165354331,
          "duration": 0.152173875000031
        },
        {
          "name": "C#3",
          "midi": 49,
          "time": 116.3151883125024,
          "velocity": 0.7165354330708661,
          "duration": 0.05434781250001208
        },
        {
          "name": "F#1",
          "midi": 30,
          "time": 116.3423622187524,
          "velocity": 0.937007874015748,
          "duration": 0.17934778125002993
        },
        {
          "name": "C#3",
          "midi": 49,
          "time": 116.3423622187524,
          "velocity": 0.7716535433070866,
          "duration": 0.24456515625004727
        },
        {
          "name": "E2",
          "midi": 40,
          "time": 116.3477970000024,
          "velocity": 0.9291338582677166,
          "duration": 0.005434781250002629
        },
        {
          "name": "F#2",
          "midi": 42,
          "time": 116.3532317812524,
          "velocity": 0.7244094488188977,
          "duration": 0.2663042812500436
        },
        {
          "name": "C#5",
          "midi": 73,
          "time": 116.3586665625024,
          "velocity": 0.9133858267716536,
          "duration": 0.8423910937500665
        },
        {
          "name": "A4",
          "midi": 69,
          "time": 116.3586665625024,
          "velocity": 0.8818897637795275,
          "duration": 1.8913038750000908
        },
        {
          "name": "G#3",
          "midi": 56,
          "time": 116.57605781250244,
          "velocity": 0.7874015748031497,
          "duration": 0.05434781250001208
        },
        {
          "name": "A1",
          "midi": 33,
          "time": 116.60323171875244,
          "velocity": 0.9212598425196851,
          "duration": 0.23913037500003043
        },
        {
          "name": "G#3",
          "midi": 56,
          "time": 116.60323171875244,
          "velocity": 0.84251968503937,
          "duration": 0.24456515625003306
        },
        {
          "name": "F#2",
          "midi": 42,
          "time": 116.61410128125245,
          "velocity": 0.3700787401574803,
          "duration": 0.1358695312500231
        },
        {
          "name": "D3",
          "midi": 50,
          "time": 116.84236209375247,
          "velocity": 0.9212598425196851,
          "duration": 0.05434781249999787
        },
        {
          "name": "C2",
          "midi": 36,
          "time": 116.86953600000247,
          "velocity": 0.8503937007874016,
          "duration": 0.005434781250002629
        },
        {
          "name": "D3",
          "midi": 50,
          "time": 116.86953600000247,
          "velocity": 0.9763779527559056,
          "duration": 0.7771737187499923
        },
        {
          "name": "F#2",
          "midi": 42,
          "time": 116.87497078125247,
          "velocity": 0.84251968503937,
          "duration": 0.005434781250002629
        },
        {
          "name": "D2",
          "midi": 38,
          "time": 116.87497078125247,
          "velocity": 0.9133858267716536,
          "duration": 0.13586953124999468
        },
        {
          "name": "D2",
          "midi": 38,
          "time": 116.90214468750247,
          "velocity": 0.9606299212598425,
          "duration": 0.396739031249993
        },
        {
          "name": "D3",
          "midi": 50,
          "time": 116.90214468750247,
          "velocity": 0.8976377952755905,
          "duration": 0.7771737187500065
        },
        {
          "name": "A3",
          "midi": 57,
          "time": 117.09779681250247,
          "velocity": 0.6141732283464567,
          "duration": 0.05434781250001208
        },
        {
          "name": "A3",
          "midi": 57,
          "time": 117.12497071875246,
          "velocity": 0.6692913385826772,
          "duration": 0.516304218749994
        },
        {
          "name": "D2",
          "midi": 38,
          "time": 117.13040550000247,
          "velocity": 0.8818897637795275,
          "duration": 0.4184781562499893
        },
        {
          "name": "F#2",
          "midi": 42,
          "time": 117.13584028125247,
          "velocity": 0.4330708661417323,
          "duration": 0.005434781250002629
        },
        {
          "name": "E4",
          "midi": 64,
          "time": 117.35866631250246,
          "velocity": 0.7952755905511811,
          "duration": 0.4130433750000151
        },
        {
          "name": "F#2",
          "midi": 42,
          "time": 117.38584021875246,
          "velocity": 0.7559055118110236,
          "duration": 0.005434781250002629
        },
        {
          "name": "A4",
          "midi": 69,
          "time": 117.38584021875246,
          "velocity": 0.8346456692913385,
          "duration": 1.9130430000000729
        },
        {
          "name": "C#5",
          "midi": 73,
          "time": 117.38584021875246,
          "velocity": 0.9133858267716536,
          "duration": 0.8423910937500381
        },
        {
          "name": "E4",
          "midi": 64,
          "time": 117.38584021875246,
          "velocity": 0.8503937007874016,
          "duration": 2.6358689062500957
        },
        {
          "name": "E2",
          "midi": 40,
          "time": 117.39127500000247,
          "velocity": 0.9291338582677166,
          "duration": 0.005434781250002629
        },
        {
          "name": "D2",
          "midi": 38,
          "time": 117.39127500000247,
          "velocity": 0.9133858267716536,
          "duration": 0.42934771875000877
        },
        {
          "name": "A3",
          "midi": 57,
          "time": 117.61953581250246,
          "velocity": 0.7086614173228346,
          "duration": 0.05434781250001208
        },
        {
          "name": "D3",
          "midi": 50,
          "time": 117.62497059375247,
          "velocity": 0.7401574803149606,
          "duration": 0.8043476250000339
        },
        {
          "name": "A3",
          "midi": 57,
          "time": 117.64670971875246,
          "velocity": 0.7637795275590551,
          "duration": 0.48369553125002085
        },
        {
          "name": "C2",
          "midi": 36,
          "time": 117.65214450000246,
          "velocity": 0.6377952755905512,
          "duration": 0.005434781250002629
        },
        {
          "name": "D2",
          "midi": 38,
          "time": 117.65214450000246,
          "velocity": 0.8031496062992126,
          "duration": 0.42391293750002035
        },
        {
          "name": "D3",
          "midi": 50,
          "time": 117.65214450000246,
          "velocity": 0.7952755905511811,
          "duration": 0.8097824062500365
        },
        {
          "name": "F#2",
          "midi": 42,
          "time": 117.65757928125247,
          "velocity": 0.44881889763779526,
          "duration": 0.005434781250002629
        },
        {
          "name": "D4",
          "midi": 62,
          "time": 117.88040531250248,
          "velocity": 0.7952755905511811,
          "duration": 0.05434781250001208
        },
        {
          "name": "D2",
          "midi": 38,
          "time": 117.90757921875247,
          "velocity": 0.9133858267716536,
          "duration": 0.4347825000000256
        },
        {
          "name": "D4",
          "midi": 62,
          "time": 117.90757921875247,
          "velocity": 0.8503937007874016,
          "duration": 0.38586946875003036
        },
        {
          "name": "C2",
          "midi": 36,
          "time": 117.91301400000248,
          "velocity": 0.8740157480314961,
          "duration": 0.005434781250002629
        },
        {
          "name": "F#2",
          "midi": 42,
          "time": 117.91844878125248,
          "velocity": 0.7559055118110236,
          "duration": 0.005434781250002629
        },
        {
          "name": "A3",
          "midi": 57,
          "time": 118.14127481250249,
          "velocity": 0.7716535433070866,
          "duration": 0.05434781250001208
        },
        {
          "name": "A3",
          "midi": 57,
          "time": 118.16844871875249,
          "velocity": 0.8267716535433071,
          "duration": 0.38586946875001615
        },
        {
          "name": "F#2",
          "midi": 42,
          "time": 118.17931828125249,
          "velocity": 0.44881889763779526,
          "duration": 0.005434781250002629
        },
        {
          "name": "D2",
          "midi": 38,
          "time": 118.17931828125249,
          "velocity": 0.7401574803149606,
          "duration": 0.42934771875000877
        },
        {
          "name": "D4",
          "midi": 62,
          "time": 118.4075790937525,
          "velocity": 0.5669291338582677,
          "duration": 0.05434781249999787
        },
        {
          "name": "D3",
          "midi": 50,
          "time": 118.4075790937525,
          "velocity": 0.7165354330708661,
          "duration": 0.3749999062500109
        },
        {
          "name": "A4",
          "midi": 69,
          "time": 118.4293182187525,
          "velocity": 0.8346456692913385,
          "duration": 1.9347821250000692
        },
        {
          "name": "C#5",
          "midi": 73,
          "time": 118.4293182187525,
          "velocity": 0.889763779527559,
          "duration": 0.8532606562500433
        },
        {
          "name": "E2",
          "midi": 40,
          "time": 118.4347530000025,
          "velocity": 0.9291338582677166,
          "duration": 0.005434781250002629
        },
        {
          "name": "F#2",
          "midi": 42,
          "time": 118.4347530000025,
          "velocity": 0.7086614173228346,
          "duration": 0.005434781250002629
        },
        {
          "name": "D4",
          "midi": 62,
          "time": 118.4347530000025,
          "velocity": 0.6220472440944882,
          "duration": 0.38586946875001615
        },
        {
          "name": "D3",
          "midi": 50,
          "time": 118.4347530000025,
          "velocity": 0.7716535433070866,
          "duration": 0.5163042187500082
        },
        {
          "name": "D2",
          "midi": 38,
          "time": 118.4401877812525,
          "velocity": 0.8976377952755905,
          "duration": 0.320652093750013
        },
        {
          "name": "A3",
          "midi": 57,
          "time": 118.6630138125025,
          "velocity": 0.7874015748031497,
          "duration": 0.05434781250001208
        },
        {
          "name": "A3",
          "midi": 57,
          "time": 118.6901877187525,
          "velocity": 0.84251968503937,
          "duration": 0.24456515625001884
        },
        {
          "name": "F#2",
          "midi": 42,
          "time": 118.7010572812525,
          "velocity": 0.33070866141732286,
          "duration": 0.005434781250002629
        },
        {
          "name": "E2",
          "midi": 40,
          "time": 118.7010572812525,
          "velocity": 0.8031496062992126,
          "duration": 0.17391300000001308
        },
        {
          "name": "E3",
          "midi": 52,
          "time": 118.92931809375251,
          "velocity": 0.9212598425196851,
          "duration": 0.05434781250001208
        },
        {
          "name": "F#2",
          "midi": 42,
          "time": 118.95649200000251,
          "velocity": 0.84251968503937,
          "duration": 0.005434781250002629
        },
        {
          "name": "C2",
          "midi": 36,
          "time": 118.95649200000251,
          "velocity": 0.8740157480314961,
          "duration": 0.005434781250002629
        },
        {
          "name": "E2",
          "midi": 40,
          "time": 118.95649200000251,
          "velocity": 0.8976377952755905,
          "duration": 0.17391300000001308
        },
        {
          "name": "E3",
          "midi": 52,
          "time": 118.95649200000251,
          "velocity": 0.8976377952755905,
          "duration": 0.7663041562500439
        },
        {
          "name": "E2",
          "midi": 40,
          "time": 118.96192678125252,
          "velocity": 0.8818897637795275,
          "duration": 0.3913042500000188
        },
        {
          "name": "E3",
          "midi": 52,
          "time": 118.97279634375252,
          "velocity": 0.8818897637795275,
          "duration": 0.7934780625000428
        },
        {
          "name": "B3",
          "midi": 59,
          "time": 119.18475281250252,
          "velocity": 0.6141732283464567,
          "duration": 0.05434781250001208
        },
        {
          "name": "E2",
          "midi": 40,
          "time": 119.21192671875252,
          "velocity": 0.7086614173228346,
          "duration": 0.2717390625000178
        },
        {
          "name": "B3",
          "midi": 59,
          "time": 119.21192671875252,
          "velocity": 0.6692913385826772,
          "duration": 0.38586946875003036
        },
        {
          "name": "F#2",
          "midi": 42,
          "time": 119.22279628125253,
          "velocity": 0.5196850393700787,
          "duration": 0.005434781250002629
        },
        {
          "name": "F#4",
          "midi": 66,
          "time": 119.44562231250254,
          "velocity": 0.8503937007874016,
          "duration": 0.05434781250001208
        },
        {
          "name": "E2",
          "midi": 40,
          "time": 119.47279621875253,
          "velocity": 0.8818897637795275,
          "duration": 0.17391300000001308
        },
        {
          "name": "A4",
          "midi": 69,
          "time": 119.47279621875253,
          "velocity": 0.8346456692913385,
          "duration": 1.940216906250015
        },
        {
          "name": "C#5",
          "midi": 73,
          "time": 119.47279621875253,
          "velocity": 0.889763779527559,
          "duration": 0.8749997812500396
        },
        {
          "name": "F#4",
          "midi": 66,
          "time": 119.47279621875253,
          "velocity": 0.7637795275590551,
          "duration": 0.38586946875003036
        },
        {
          "name": "E2",
          "midi": 40,
          "time": 119.47823100000254,
          "velocity": 0.9291338582677166,
          "duration": 0.429347718750023
        },
        {
          "name": "F#2",
          "midi": 42,
          "time": 119.48366578125254,
          "velocity": 0.7480314960629921,
          "duration": 0.005434781250002629
        },
        {
          "name": "B3",
          "midi": 59,
          "time": 119.70649181250255,
          "velocity": 0.7086614173228346,
          "duration": 0.05434781250001208
        },
        {
          "name": "E3",
          "midi": 52,
          "time": 119.71192659375255,
          "velocity": 0.7480314960629921,
          "duration": 0.7608693750000128
        },
        {
          "name": "F#2",
          "midi": 42,
          "time": 119.73366571875256,
          "velocity": 0.4251968503937008,
          "duration": 0.005434781250002629
        },
        {
          "name": "E2",
          "midi": 40,
          "time": 119.73366571875256,
          "velocity": 0.7401574803149606,
          "duration": 0.3967390312500072
        },
        {
          "name": "B3",
          "midi": 59,
          "time": 119.73366571875256,
          "velocity": 0.7637795275590551,
          "duration": 0.38586946875000194
        },
        {
          "name": "C2",
          "midi": 36,
          "time": 119.73910050000256,
          "velocity": 0.5984251968503937,
          "duration": 0.005434781250002629
        },
        {
          "name": "E3",
          "midi": 52,
          "time": 119.73910050000256,
          "velocity": 0.8031496062992126,
          "duration": 0.8043476250000055
        },
        {
          "name": "E4",
          "midi": 64,
          "time": 119.96736131250256,
          "velocity": 0.7952755905511811,
          "duration": 0.4130433750000009
        },
        {
          "name": "E2",
          "midi": 40,
          "time": 119.99453521875256,
          "velocity": 0.8346456692913385,
          "duration": 0.42934771875000877
        },
        {
          "name": "E4",
          "midi": 64,
          "time": 119.99453521875256,
          "velocity": 0.8503937007874016,
          "duration": 0.8097824062500081
        },
        {
          "name": "F#2",
          "midi": 42,
          "time": 119.99997000000256,
          "velocity": 0.7244094488188977,
          "duration": 0.005434781250002629
        },
        {
          "name": "C2",
          "midi": 36,
          "time": 119.99997000000256,
          "velocity": 0.8661417322834646,
          "duration": 0.005434781250002629
        },
        {
          "name": "B3",
          "midi": 59,
          "time": 120.22823081250257,
          "velocity": 0.7716535433070866,
          "duration": 0.05434781249999787
        },
        {
          "name": "F#2",
          "midi": 42,
          "time": 120.25540471875257,
          "velocity": 0.36220472440944884,
          "duration": 0.005434781250002629
        },
        {
          "name": "E2",
          "midi": 40,
          "time": 120.25540471875257,
          "velocity": 0.6614173228346457,
          "duration": 0.27173906249998936
        },
        {
          "name": "B3",
          "midi": 59,
          "time": 120.25540471875257,
          "velocity": 0.7795275590551181,
          "duration": 0.7771737187499781
        },
        {
          "name": "E3",
          "midi": 52,
          "time": 120.48910031250256,
          "velocity": 0.7165354330708661,
          "duration": 0.2717390625000178
        },
        {
          "name": "F#2",
          "midi": 42,
          "time": 120.51627421875256,
          "velocity": 0.7086614173228346,
          "duration": 0.005434781250002629
        },
        {
          "name": "E2",
          "midi": 40,
          "time": 120.51627421875256,
          "velocity": 0.8976377952755905,
          "duration": 0.1576086562500194
        },
        {
          "name": "C#5",
          "midi": 73,
          "time": 120.51627421875256,
          "velocity": 0.889763779527559,
          "duration": 0.885869343749988
        },
        {
          "name": "E3",
          "midi": 52,
          "time": 120.51627421875256,
          "velocity": 0.7007874015748031,
          "duration": 0.38586946875000194
        },
        {
          "name": "E2",
          "midi": 40,
          "time": 120.52170900000256,
          "velocity": 0.9291338582677166,
          "duration": 0.36413034375000564
        },
        {
          "name": "A4",
          "midi": 69,
          "time": 120.53257856250256,
          "velocity": 0.8346456692913385,
          "duration": 1.9021734375000108
        },
        {
          "name": "E4",
          "midi": 64,
          "time": 120.74996981250257,
          "velocity": 0.7874015748031497,
          "duration": 0.2826086249999804
        },
        {
          "name": "E2",
          "midi": 40,
          "time": 120.77714371875257,
          "velocity": 0.8188976377952756,
          "duration": 0.1793477812499873
        },
        {
          "name": "E4",
          "midi": 64,
          "time": 120.77714371875257,
          "velocity": 0.6692913385826772,
          "duration": 4.423911937500051
        },
        {
          "name": "F#2",
          "midi": 42,
          "time": 120.78257850000257,
          "velocity": 0.4015748031496063,
          "duration": 0.005434781250002629
        },
        {
          "name": "F#2",
          "midi": 42,
          "time": 121.01627409375256,
          "velocity": 0.9212598425196851,
          "duration": 0.038043468750004195
        },
        {
          "name": "C2",
          "midi": 36,
          "time": 121.04344800000256,
          "velocity": 0.8740157480314961,
          "duration": 0.005434781250002629
        },
        {
          "name": "F#1",
          "midi": 30,
          "time": 121.04344800000256,
          "velocity": 0.8976377952755905,
          "duration": 0.20652168750000044
        },
        {
          "name": "F#3",
          "midi": 54,
          "time": 121.04344800000256,
          "velocity": 0.8661417322834646,
          "duration": 3.9184772812500626
        },
        {
          "name": "F#2",
          "midi": 42,
          "time": 121.04344800000256,
          "velocity": 0.84251968503937,
          "duration": 0.027173906249998936
        },
        {
          "name": "F#2",
          "midi": 42,
          "time": 121.04344800000256,
          "velocity": 0.9763779527559056,
          "duration": 0.26630428125000094
        },
        {
          "name": "F#2",
          "midi": 42,
          "time": 121.04888278125256,
          "velocity": 0.84251968503937,
          "duration": 0.5217389999999966
        },
        {
          "name": "C#3",
          "midi": 49,
          "time": 121.27170881250255,
          "velocity": 0.6141732283464567,
          "duration": 0.05434781249999787
        },
        {
          "name": "C#3",
          "midi": 49,
          "time": 121.29888271875255,
          "velocity": 0.6692913385826772,
          "duration": 0.38586946875000194
        },
        {
          "name": "F#2",
          "midi": 42,
          "time": 121.30431750000255,
          "velocity": 0.4566929133858268,
          "duration": 0.5271737812500135
        },
        {
          "name": "F#1",
          "midi": 30,
          "time": 121.30975228125256,
          "velocity": 0.8976377952755905,
          "duration": 0.18478256249998992
        },
        {
          "name": "G#3",
          "midi": 56,
          "time": 121.53257831250255,
          "velocity": 0.8503937007874016,
          "duration": 0.05434781249999787
        },
        {
          "name": "G#3",
          "midi": 56,
          "time": 121.55975221875255,
          "velocity": 0.905511811023622,
          "duration": 0.2554347187500099
        },
        {
          "name": "E2",
          "midi": 40,
          "time": 121.56518700000255,
          "velocity": 0.9291338582677166,
          "duration": 0.005434781250002629
        },
        {
          "name": "F#2",
          "midi": 42,
          "time": 121.56518700000255,
          "velocity": 0.6771653543307087,
          "duration": 0.5326085625000019
        },
        {
          "name": "A4",
          "midi": 69,
          "time": 121.56518700000255,
          "velocity": 0.8503937007874016,
          "duration": 1.891303875000034
        },
        {
          "name": "C#5",
          "midi": 73,
          "time": 121.56518700000255,
          "velocity": 0.937007874015748,
          "duration": 0.8586954375000175
        },
        {
          "name": "F#1",
          "midi": 30,
          "time": 121.57062178125256,
          "velocity": 0.8267716535433071,
          "duration": 0.15217387500000257
        },
        {
          "name": "C#3",
          "midi": 49,
          "time": 121.79344781250256,
          "velocity": 0.7086614173228346,
          "duration": 0.05434781249999787
        },
        {
          "name": "C#3",
          "midi": 49,
          "time": 121.82062171875256,
          "velocity": 0.7637795275590551,
          "duration": 0.6467389687500145
        },
        {
          "name": "F#2",
          "midi": 42,
          "time": 121.82605650000257,
          "velocity": 0.49606299212598426,
          "duration": 0.5326085625000019
        },
        {
          "name": "C2",
          "midi": 36,
          "time": 121.82605650000257,
          "velocity": 0.5905511811023622,
          "duration": 0.005434781250002629
        },
        {
          "name": "F#1",
          "midi": 30,
          "time": 121.83149128125257,
          "velocity": 0.9448818897637795,
          "duration": 0.11956518749998679
        },
        {
          "name": "A3",
          "midi": 57,
          "time": 122.05431731250255,
          "velocity": 0.7952755905511811,
          "duration": 0.05434781250001208
        },
        {
          "name": "F#1",
          "midi": 30,
          "time": 122.08149121875255,
          "velocity": 0.9448818897637795,
          "duration": 0.14673909375001415
        },
        {
          "name": "A3",
          "midi": 57,
          "time": 122.08149121875255,
          "velocity": 0.8503937007874016,
          "duration": 0.2554347187500099
        },
        {
          "name": "C2",
          "midi": 36,
          "time": 122.08692600000255,
          "velocity": 0.8740157480314961,
          "duration": 0.005434781250002629
        },
        {
          "name": "F#2",
          "midi": 42,
          "time": 122.09236078125255,
          "velocity": 0.7244094488188977,
          "duration": 0.5271737812500277
        },
        {
          "name": "G#3",
          "midi": 56,
          "time": 122.31518681250256,
          "velocity": 0.7716535433070866,
          "duration": 0.05434781250001208
        },
        {
          "name": "F#1",
          "midi": 30,
          "time": 122.34236071875256,
          "velocity": 0.8976377952755905,
          "duration": 0.20652168750001465
        },
        {
          "name": "G#3",
          "midi": 56,
          "time": 122.34236071875256,
          "velocity": 0.8267716535433071,
          "duration": 0.4891303125000235
        },
        {
          "name": "F#2",
          "midi": 42,
          "time": 122.35323028125256,
          "velocity": 0.36220472440944884,
          "duration": 0.5163042187500224
        },
        {
          "name": "C#3",
          "midi": 49,
          "time": 122.57605631250257,
          "velocity": 0.7165354330708661,
          "duration": 0.05434781250001208
        },
        {
          "name": "C#3",
          "midi": 49,
          "time": 122.60323021875257,
          "velocity": 0.7716535433070866,
          "duration": 0.38586946875001615
        },
        {
          "name": "E2",
          "midi": 40,
          "time": 122.60866500000257,
          "velocity": 0.9291338582677166,
          "duration": 0.005434781250002629
        },
        {
          "name": "F#1",
          "midi": 30,
          "time": 122.60866500000257,
          "velocity": 0.8976377952755905,
          "duration": 0.16847821875001046
        },
        {
          "name": "C#5",
          "midi": 73,
          "time": 122.60866500000257,
          "velocity": 0.9133858267716536,
          "duration": 0.8315215312500186
        },
        {
          "name": "A4",
          "midi": 69,
          "time": 122.60866500000257,
          "velocity": 0.8661417322834646,
          "duration": 1.8749995312500403
        },
        {
          "name": "F#2",
          "midi": 42,
          "time": 122.61409978125258,
          "velocity": 0.7716535433070866,
          "duration": 0.3967390312500072
        },
        {
          "name": "G#3",
          "midi": 56,
          "time": 122.83692581250259,
          "velocity": 0.7874015748031497,
          "duration": 0.05434781249999787
        },
        {
          "name": "F#2",
          "midi": 42,
          "time": 122.86409971875258,
          "velocity": 0.4409448818897638,
          "duration": 0.2771738437500062
        },
        {
          "name": "F#1",
          "midi": 30,
          "time": 122.86409971875258,
          "velocity": 0.8976377952755905,
          "duration": 0.16847821874999624
        },
        {
          "name": "G#3",
          "midi": 56,
          "time": 122.86409971875258,
          "velocity": 0.84251968503937,
          "duration": 0.24456515625000463
        },
        {
          "name": "F#2",
          "midi": 42,
          "time": 123.10323009375259,
          "velocity": 0.9212598425196851,
          "duration": 0.05434781249999787
        },
        {
          "name": "F#1",
          "midi": 30,
          "time": 123.12496921875258,
          "velocity": 0.8267716535433071,
          "duration": 0.17391299999999887
        },
        {
          "name": "C2",
          "midi": 36,
          "time": 123.13040400000259,
          "velocity": 0.905511811023622,
          "duration": 0.005434781250002629
        },
        {
          "name": "F#2",
          "midi": 42,
          "time": 123.13040400000259,
          "velocity": 0.9763779527559056,
          "duration": 0.27173906250000357
        },
        {
          "name": "F#2",
          "midi": 42,
          "time": 123.13583878125259,
          "velocity": 0.84251968503937,
          "duration": 0.5217390000000108
        },
        {
          "name": "C#3",
          "midi": 49,
          "time": 123.35866481250258,
          "velocity": 0.6141732283464567,
          "duration": 0.05434781250001208
        },
        {
          "name": "F#1",
          "midi": 30,
          "time": 123.38583871875258,
          "velocity": 0.9448818897637795,
          "duration": 0.16847821875001046
        },
        {
          "name": "C#3",
          "midi": 49,
          "time": 123.38583871875258,
          "velocity": 0.6692913385826772,
          "duration": 0.38586946875001615
        },
        {
          "name": "F#2",
          "midi": 42,
          "time": 123.39670828125259,
          "velocity": 0.4094488188976378,
          "duration": 0.5271737812500277
        },
        {
          "name": "G#3",
          "midi": 56,
          "time": 123.6195343125026,
          "velocity": 0.8503937007874016,
          "duration": 0.05434781249999787
        },
        {
          "name": "A4",
          "midi": 69,
          "time": 123.63583865625259,
          "velocity": 0.8503937007874016,
          "duration": 1.5652170000000325
        },
        {
          "name": "C#5",
          "midi": 73,
          "time": 123.63583865625259,
          "velocity": 0.889763779527559,
          "duration": 0.8423910937500239
        },
        {
          "name": "F#1",
          "midi": 30,
          "time": 123.6467082187526,
          "velocity": 0.8503937007874016,
          "duration": 0.1358695312500089
        },
        {
          "name": "G#3",
          "midi": 56,
          "time": 123.6467082187526,
          "velocity": 0.905511811023622,
          "duration": 0.24456515625001884
        },
        {
          "name": "E2",
          "midi": 40,
          "time": 123.6521430000026,
          "velocity": 0.9291338582677166,
          "duration": 0.005434781250002629
        },
        {
          "name": "F#2",
          "midi": 42,
          "time": 123.6521430000026,
          "velocity": 0.7086614173228346,
          "duration": 0.5326085625000161
        },
        {
          "name": "C#3",
          "midi": 49,
          "time": 123.8804038125026,
          "velocity": 0.7086614173228346,
          "duration": 0.05434781250001208
        },
        {
          "name": "F#1",
          "midi": 30,
          "time": 123.9075777187526,
          "velocity": 0.8740157480314961,
          "duration": 0.13043475000000626
        },
        {
          "name": "C#3",
          "midi": 49,
          "time": 123.9075777187526,
          "velocity": 0.7637795275590551,
          "duration": 0.5163042187500082
        },
        {
          "name": "C2",
          "midi": 36,
          "time": 123.91301250000261,
          "velocity": 0.5748031496062992,
          "duration": 0.005434781250002629
        },
        {
          "name": "F#2",
          "midi": 42,
          "time": 123.91844728125261,
          "velocity": 0.3858267716535433,
          "duration": 0.5163042187500082
        },
        {
          "name": "A3",
          "midi": 57,
          "time": 124.1412733125026,
          "velocity": 0.7952755905511811,
          "duration": 0.05434781250001208
        },
        {
          "name": "F#1",
          "midi": 30,
          "time": 124.1684472187526,
          "velocity": 0.8740157480314961,
          "duration": 0.12499996875001784
        },
        {
          "name": "A3",
          "midi": 57,
          "time": 124.1684472187526,
          "velocity": 0.8503937007874016,
          "duration": 0.2554347187500099
        },
        {
          "name": "C2",
          "midi": 36,
          "time": 124.1738820000026,
          "velocity": 0.8582677165354331,
          "duration": 0.005434781250002629
        },
        {
          "name": "F#2",
          "midi": 42,
          "time": 124.17931678125261,
          "velocity": 0.7716535433070866,
          "duration": 0.5271737812500135
        },
        {
          "name": "G#3",
          "midi": 56,
          "time": 124.40214281250262,
          "velocity": 0.7716535433070866,
          "duration": 0.05434781249999787
        },
        {
          "name": "F#2",
          "midi": 42,
          "time": 124.42931671875262,
          "velocity": 0.3858267716535433,
          "duration": 0.5271737812499993
        },
        {
          "name": "G#3",
          "midi": 56,
          "time": 124.42931671875262,
          "velocity": 0.8267716535433071,
          "duration": 0.4728259687500014
        },
        {
          "name": "E2",
          "midi": 40,
          "time": 124.44018628125262,
          "velocity": 0.8976377952755905,
          "duration": 0.1413043124999973
        },
        {
          "name": "C#3",
          "midi": 49,
          "time": 124.66844709375262,
          "velocity": 0.7165354330708661,
          "duration": 0.05434781249999787
        },
        {
          "name": "A4",
          "midi": 69,
          "time": 124.69018621875261,
          "velocity": 0.8346456692913385,
          "duration": 0.8206519687500133
        },
        {
          "name": "C#5",
          "midi": 73,
          "time": 124.69018621875261,
          "velocity": 0.8661417322834646,
          "duration": 0.8206519687500133
        },
        {
          "name": "C#3",
          "midi": 49,
          "time": 124.69018621875261,
          "velocity": 0.7716535433070866,
          "duration": 0.38586946875000194
        },
        {
          "name": "E2",
          "midi": 40,
          "time": 124.69562100000262,
          "velocity": 0.9291338582677166,
          "duration": 0.005434781250002629
        },
        {
          "name": "F#2",
          "midi": 42,
          "time": 124.70105578125262,
          "velocity": 0.84251968503937,
          "duration": 0.2608694999999983
        },
        {
          "name": "E2",
          "midi": 40,
          "time": 124.70105578125262,
          "velocity": 0.952755905511811,
          "duration": 0.15760865624999099
        },
        {
          "name": "G#3",
          "midi": 56,
          "time": 124.92388181250261,
          "velocity": 0.7874015748031497,
          "duration": 0.05434781249999787
        },
        {
          "name": "F#2",
          "midi": 42,
          "time": 124.95105571875261,
          "velocity": 0.31496062992125984,
          "duration": 0.14673909374999994
        },
        {
          "name": "G#3",
          "midi": 56,
          "time": 124.95105571875261,
          "velocity": 0.84251968503937,
          "duration": 0.24456515625000463
        },
        {
          "name": "E2",
          "midi": 40,
          "time": 124.96192528125262,
          "velocity": 0.8031496062992126,
          "duration": 0.16304343749999362
        },
        {
          "name": "A2",
          "midi": 45,
          "time": 125.19018609375262,
          "velocity": 0.9212598425196851,
          "duration": 0.05434781249999787
        },
        {
          "name": "C2",
          "midi": 36,
          "time": 125.21736000000261,
          "velocity": 0.8818897637795275,
          "duration": 0.005434781250002629
        },
        {
          "name": "A3",
          "midi": 57,
          "time": 125.21736000000261,
          "velocity": 0.8976377952755905,
          "duration": 1.0597823437500438
        },
        {
          "name": "A2",
          "midi": 45,
          "time": 125.21736000000261,
          "velocity": 0.9763779527559056,
          "duration": 1.967390812500085
        },
        {
          "name": "E4",
          "midi": 64,
          "time": 125.21736000000261,
          "velocity": 0.5275590551181102,
          "duration": 1.5597822187500583
        },
        {
          "name": "A4",
          "midi": 69,
          "time": 125.21736000000261,
          "velocity": 0.5039370078740157,
          "duration": 1.3858692187500452
        },
        {
          "name": "F#2",
          "midi": 42,
          "time": 125.22279478125262,
          "velocity": 0.8582677165354331,
          "duration": 0.005434781250002629
        },
        {
          "name": "A1",
          "midi": 33,
          "time": 125.22279478125262,
          "velocity": 0.952755905511811,
          "duration": 0.18478256249998992
        },
        {
          "name": "E3",
          "midi": 52,
          "time": 125.44562081250261,
          "velocity": 0.6141732283464567,
          "duration": 0.05434781250001208
        },
        {
          "name": "E3",
          "midi": 52,
          "time": 125.47279471875261,
          "velocity": 0.6692913385826772,
          "duration": 0.38586946875003036
        },
        {
          "name": "A1",
          "midi": 33,
          "time": 125.47822950000261,
          "velocity": 0.8976377952755905,
          "duration": 0.14130431250001152
        },
        {
          "name": "F#2",
          "midi": 42,
          "time": 125.48366428125262,
          "velocity": 0.30708661417322836,
          "duration": 0.005434781250002629
        },
        {
          "name": "B3",
          "midi": 59,
          "time": 125.70649031250262,
          "velocity": 0.8503937007874016,
          "duration": 0.05434781250001208
        },
        {
          "name": "A1",
          "midi": 33,
          "time": 125.73366421875262,
          "velocity": 0.952755905511811,
          "duration": 0.17391300000001308
        },
        {
          "name": "B3",
          "midi": 59,
          "time": 125.73366421875262,
          "velocity": 0.905511811023622,
          "duration": 0.2554347187500099
        },
        {
          "name": "E2",
          "midi": 40,
          "time": 125.73909900000262,
          "velocity": 0.9291338582677166,
          "duration": 0.005434781250002629
        },
        {
          "name": "F#2",
          "midi": 42,
          "time": 125.74453378125263,
          "velocity": 0.7480314960629921,
          "duration": 0.005434781250002629
        },
        {
          "name": "A4",
          "midi": 69,
          "time": 125.75540334375263,
          "velocity": 0.8346456692913385,
          "duration": 1.8967386562500792
        },
        {
          "name": "C#5",
          "midi": 73,
          "time": 125.75540334375263,
          "velocity": 0.889763779527559,
          "duration": 0.8369563125000212
        },
        {
          "name": "E3",
          "midi": 52,
          "time": 125.96735981250264,
          "velocity": 0.7086614173228346,
          "duration": 0.05434781250001208
        },
        {
          "name": "A1",
          "midi": 33,
          "time": 125.99453371875263,
          "velocity": 0.8503937007874016,
          "duration": 0.14130431250001152
        },
        {
          "name": "E3",
          "midi": 52,
          "time": 125.99453371875263,
          "velocity": 0.7637795275590551,
          "duration": 0.6467389687500287
        },
        {
          "name": "C2",
          "midi": 36,
          "time": 125.99996850000264,
          "velocity": 0.6377952755905512,
          "duration": 0.005434781250002629
        },
        {
          "name": "F#2",
          "midi": 42,
          "time": 126.00540328125264,
          "velocity": 0.4094488188976378,
          "duration": 0.005434781250002629
        },
        {
          "name": "E4",
          "midi": 64,
          "time": 126.01627284375265,
          "velocity": 0.6377952755905512,
          "duration": 0.7663041562500297
        },
        {
          "name": "E5",
          "midi": 76,
          "time": 126.01627284375265,
          "velocity": 0.8110236220472441,
          "duration": 0.7771737187500349
        },
        {
          "name": "C#4",
          "midi": 61,
          "time": 126.22822931250265,
          "velocity": 0.7952755905511811,
          "duration": 0.05434781250001208
        },
        {
          "name": "F#2",
          "midi": 42,
          "time": 126.25540321875265,
          "velocity": 0.7480314960629921,
          "duration": 0.005434781250002629
        },
        {
          "name": "A1",
          "midi": 33,
          "time": 126.25540321875265,
          "velocity": 0.952755905511811,
          "duration": 0.17934778125001571
        },
        {
          "name": "C#4",
          "midi": 61,
          "time": 126.25540321875265,
          "velocity": 0.8503937007874016,
          "duration": 0.2554347187500099
        },
        {
          "name": "C2",
          "midi": 36,
          "time": 126.26083800000265,
          "velocity": 0.8582677165354331,
          "duration": 0.005434781250002629
        },
        {
          "name": "E4",
          "midi": 64,
          "time": 126.26083800000265,
          "velocity": 0.8503937007874016,
          "duration": 2.6086949999999263
        },
        {
          "name": "B3",
          "midi": 59,
          "time": 126.48909881250266,
          "velocity": 0.7716535433070866,
          "duration": 0.05434781249999787
        },
        {
          "name": "F#2",
          "midi": 42,
          "time": 126.51627271875266,
          "velocity": 0.49606299212598426,
          "duration": 0.005434781250002629
        },
        {
          "name": "A1",
          "midi": 33,
          "time": 126.51627271875266,
          "velocity": 0.8976377952755905,
          "duration": 0.16304343750000783
        },
        {
          "name": "B3",
          "midi": 59,
          "time": 126.51627271875266,
          "velocity": 0.8267716535433071,
          "duration": 0.4891303125000377
        },
        {
          "name": "A4",
          "midi": 69,
          "time": 126.74996831250267,
          "velocity": 0.8346456692913385,
          "duration": 1.9782603749999197
        },
        {
          "name": "C#5",
          "midi": 73,
          "time": 126.74996831250267,
          "velocity": 0.889763779527559,
          "duration": 0.5760868125000229
        },
        {
          "name": "E3",
          "midi": 52,
          "time": 126.74996831250267,
          "velocity": 0.7165354330708661,
          "duration": 0.05434781250001208
        },
        {
          "name": "F#2",
          "midi": 42,
          "time": 126.77714221875267,
          "velocity": 0.7716535433070866,
          "duration": 0.005434781250002629
        },
        {
          "name": "A1",
          "midi": 33,
          "time": 126.77714221875267,
          "velocity": 0.952755905511811,
          "duration": 0.18478256250001834
        },
        {
          "name": "E3",
          "midi": 52,
          "time": 126.77714221875267,
          "velocity": 0.7716535433070866,
          "duration": 0.38586946875003036
        },
        {
          "name": "D4",
          "midi": 62,
          "time": 126.78257700000268,
          "velocity": 0.6377952755905512,
          "duration": 0.2554347187500241
        },
        {
          "name": "D5",
          "midi": 74,
          "time": 126.78257700000268,
          "velocity": 0.8110236220472441,
          "duration": 0.2554347187500241
        },
        {
          "name": "E2",
          "midi": 40,
          "time": 126.78257700000268,
          "velocity": 0.9291338582677166,
          "duration": 0.005434781250002629
        },
        {
          "name": "D4",
          "midi": 62,
          "time": 126.78257700000268,
          "velocity": 0.7637795275590551,
          "duration": 0.26086950000002673
        },
        {
          "name": "B3",
          "midi": 59,
          "time": 127.0108378125027,
          "velocity": 0.7874015748031497,
          "duration": 0.05434781249999787
        },
        {
          "name": "F#2",
          "midi": 42,
          "time": 127.0380117187527,
          "velocity": 0.4251968503937008,
          "duration": 0.005434781250002629
        },
        {
          "name": "A1",
          "midi": 33,
          "time": 127.0380117187527,
          "velocity": 0.8661417322834646,
          "duration": 0.15217387500000257
        },
        {
          "name": "B3",
          "midi": 59,
          "time": 127.0380117187527,
          "velocity": 0.84251968503937,
          "duration": 0.24456515625000463
        },
        {
          "name": "C#4",
          "midi": 61,
          "time": 127.0434465000027,
          "velocity": 0.5748031496062992,
          "duration": 0.2554347187499957
        },
        {
          "name": "C#5",
          "midi": 73,
          "time": 127.0434465000027,
          "velocity": 0.7322834645669292,
          "duration": 0.597825937500005
        },
        {
          "name": "C#4",
          "midi": 61,
          "time": 127.0434465000027,
          "velocity": 0.84251968503937,
          "duration": 0.2826086249999946
        },
        {
          "name": "A2",
          "midi": 45,
          "time": 127.2771420937527,
          "velocity": 0.9212598425196851,
          "duration": 0.05434781249999787
        },
        {
          "name": "F#2",
          "midi": 42,
          "time": 127.2988812187527,
          "velocity": 0.8661417322834646,
          "duration": 0.005434781250002629
        },
        {
          "name": "A1",
          "midi": 33,
          "time": 127.2988812187527,
          "velocity": 0.952755905511811,
          "duration": 0.16304343750000783
        },
        {
          "name": "C2",
          "midi": 36,
          "time": 127.3043160000027,
          "velocity": 0.8818897637795275,
          "duration": 0.005434781250002629
        },
        {
          "name": "A2",
          "midi": 45,
          "time": 127.3043160000027,
          "velocity": 0.9763779527559056,
          "duration": 1.9673908124998434
        },
        {
          "name": "A3",
          "midi": 57,
          "time": 127.3097507812527,
          "velocity": 0.8818897637795275,
          "duration": 1.048912781249939
        },
        {
          "name": "E3",
          "midi": 52,
          "time": 127.53257681250271,
          "velocity": 0.6141732283464567,
          "duration": 0.05434781249999787
        },
        {
          "name": "F#2",
          "midi": 42,
          "time": 127.55975071875271,
          "velocity": 0.4566929133858268,
          "duration": 0.005434781250002629
        },
        {
          "name": "E3",
          "midi": 52,
          "time": 127.55975071875271,
          "velocity": 0.6692913385826772,
          "duration": 0.38586946875000194
        },
        {
          "name": "A1",
          "midi": 33,
          "time": 127.56518550000271,
          "velocity": 0.9291338582677166,
          "duration": 0.1793477812500015
        },
        {
          "name": "B3",
          "midi": 59,
          "time": 127.79344631250271,
          "velocity": 0.8503937007874016,
          "duration": 0.05434781249999787
        },
        {
          "name": "F#2",
          "midi": 42,
          "time": 127.82062021875271,
          "velocity": 0.7480314960629921,
          "duration": 0.005434781250002629
        },
        {
          "name": "A1",
          "midi": 33,
          "time": 127.82062021875271,
          "velocity": 0.952755905511811,
          "duration": 0.1793477812500015
        },
        {
          "name": "A4",
          "midi": 69,
          "time": 127.82062021875271,
          "velocity": 0.8503937007874016,
          "duration": 1.902173437499755
        },
        {
          "name": "C#5",
          "midi": 73,
          "time": 127.82062021875271,
          "velocity": 0.8661417322834646,
          "duration": 0.8913041249998912
        },
        {
          "name": "B3",
          "midi": 59,
          "time": 127.82062021875271,
          "velocity": 0.905511811023622,
          "duration": 0.24456515625001884
        },
        {
          "name": "E2",
          "midi": 40,
          "time": 127.82605500000271,
          "velocity": 0.9291338582677166,
          "duration": 0.005434781250002629
        },
        {
          "name": "E3",
          "midi": 52,
          "time": 128.05431581250272,
          "velocity": 0.7086614173228346,
          "duration": 0.05434781249996945
        },
        {
          "name": "E4",
          "midi": 64,
          "time": 128.07605493750273,
          "velocity": 0.6377952755905512,
          "duration": 0.7989128437498323
        },
        {
          "name": "E5",
          "midi": 76,
          "time": 128.07605493750273,
          "velocity": 0.8110236220472441,
          "duration": 0.815217187499826
        },
        {
          "name": "E3",
          "midi": 52,
          "time": 128.08148971875272,
          "velocity": 0.7637795275590551,
          "duration": 0.244565156249962
        },
        {
          "name": "F#2",
          "midi": 42,
          "time": 128.0869245000027,
          "velocity": 0.4015748031496063,
          "duration": 0.0054347812499884185
        },
        {
          "name": "C2",
          "midi": 36,
          "time": 128.0869245000027,
          "velocity": 0.6220472440944882,
          "duration": 0.0054347812499884185
        },
        {
          "name": "A1",
          "midi": 33,
          "time": 128.0923592812527,
          "velocity": 0.952755905511811,
          "duration": 0.1413043124999831
        },
        {
          "name": "C#4",
          "midi": 61,
          "time": 128.31518531250268,
          "velocity": 0.7952755905511811,
          "duration": 0.05434781249996945
        },
        {
          "name": "F#2",
          "midi": 42,
          "time": 128.34235921875268,
          "velocity": 0.7559055118110236,
          "duration": 0.0054347812499884185
        },
        {
          "name": "A1",
          "midi": 33,
          "time": 128.34235921875268,
          "velocity": 0.952755905511811,
          "duration": 0.1630434374999652
        },
        {
          "name": "C#4",
          "midi": 61,
          "time": 128.34235921875268,
          "velocity": 0.8503937007874016,
          "duration": 0.25543471874996726
        },
        {
          "name": "C2",
          "midi": 36,
          "time": 128.34779400000266,
          "velocity": 0.8740157480314961,
          "duration": 0.0054347812499884185
        },
        {
          "name": "E4",
          "midi": 64,
          "time": 128.35866356250264,
          "velocity": 0.9448818897637795,
          "duration": 2.592390656249677
        },
        {
          "name": "B3",
          "midi": 59,
          "time": 128.57605481250263,
          "velocity": 0.7716535433070866,
          "duration": 0.05434781249996945
        },
        {
          "name": "B3",
          "midi": 59,
          "time": 128.60322871875263,
          "velocity": 0.8267716535433071,
          "duration": 0.4728259687499303
        },
        {
          "name": "F#2",
          "midi": 42,
          "time": 128.60866350000262,
          "velocity": 0.4409448818897638,
          "duration": 0.0054347812499884185
        },
        {
          "name": "A1",
          "midi": 33,
          "time": 128.60866350000262,
          "velocity": 0.8818897637795275,
          "duration": 0.15760865624997678
        },
        {
          "name": "E3",
          "midi": 52,
          "time": 128.8369243125026,
          "velocity": 0.7165354330708661,
          "duration": 0.05434781249996945
        },
        {
          "name": "E3",
          "midi": 52,
          "time": 128.8640982187526,
          "velocity": 0.7716535433070866,
          "duration": 0.24456515624999042
        },
        {
          "name": "D4",
          "midi": 62,
          "time": 128.86953300000258,
          "velocity": 0.5905511811023622,
          "duration": 0.2608694999999841
        },
        {
          "name": "D5",
          "midi": 74,
          "time": 128.86953300000258,
          "velocity": 0.7480314960629921,
          "duration": 0.2554347187499957
        },
        {
          "name": "E2",
          "midi": 40,
          "time": 128.86953300000258,
          "velocity": 0.9291338582677166,
          "duration": 0.0054347812499884185
        },
        {
          "name": "F#2",
          "midi": 42,
          "time": 128.86953300000258,
          "velocity": 0.7086614173228346,
          "duration": 0.0054347812499884185
        },
        {
          "name": "D4",
          "midi": 62,
          "time": 128.86953300000258,
          "velocity": 0.8031496062992126,
          "duration": 0.2663042812499725
        },
        {
          "name": "A1",
          "midi": 33,
          "time": 128.87496778125256,
          "velocity": 0.952755905511811,
          "duration": 0.17391299999999887
        },
        {
          "name": "A4",
          "midi": 69,
          "time": 128.89127212500256,
          "velocity": 0.8503937007874016,
          "duration": 1.8858690937497613
        },
        {
          "name": "C#5",
          "midi": 73,
          "time": 128.89127212500256,
          "velocity": 0.9133858267716536,
          "duration": 0.48913031249998085
        },
        {
          "name": "B3",
          "midi": 59,
          "time": 129.09779381250257,
          "velocity": 0.7874015748031497,
          "duration": 0.05434781249996945
        },
        {
          "name": "C#4",
          "midi": 61,
          "time": 129.11953293750258,
          "velocity": 0.889763779527559,
          "duration": 0.2663042812499441
        },
        {
          "name": "A1",
          "midi": 33,
          "time": 129.12496771875257,
          "velocity": 0.8976377952755905,
          "duration": 0.1630434374999652
        },
        {
          "name": "B3",
          "midi": 59,
          "time": 129.12496771875257,
          "velocity": 0.84251968503937,
          "duration": 0.244565156249962
        },
        {
          "name": "C#4",
          "midi": 61,
          "time": 129.13040250000256,
          "velocity": 0.5669291338582677,
          "duration": 0.2826086249999378
        },
        {
          "name": "C#5",
          "midi": 73,
          "time": 129.13040250000256,
          "velocity": 0.7244094488188977,
          "duration": 0.5760868124999092
        },
        {
          "name": "F#2",
          "midi": 42,
          "time": 129.13040250000256,
          "velocity": 0.4094488188976378,
          "duration": 0.0054347812499884185
        },
        {
          "name": "F#2",
          "midi": 42,
          "time": 129.36409809375255,
          "velocity": 0.9212598425196851,
          "duration": 0.03260868749995893
        },
        {
          "name": "F#1",
          "midi": 30,
          "time": 129.38583721875253,
          "velocity": 0.9448818897637795,
          "duration": 0.15760865624994835
        },
        {
          "name": "F#2",
          "midi": 42,
          "time": 129.39127200000252,
          "velocity": 0.8976377952755905,
          "duration": 0.027173906249970514
        },
        {
          "name": "C2",
          "midi": 36,
          "time": 129.39127200000252,
          "velocity": 0.8818897637795275,
          "duration": 0.0054347812499884185
        },
        {
          "name": "A3",
          "midi": 57,
          "time": 129.39127200000252,
          "velocity": 0.8188976377952756,
          "duration": 1.0597823437498164
        },
        {
          "name": "F#2",
          "midi": 42,
          "time": 129.39127200000252,
          "velocity": 0.9763779527559056,
          "duration": 0.27173906249996094
        },
        {
          "name": "C#3",
          "midi": 49,
          "time": 129.61953281250248,
          "velocity": 0.6141732283464567,
          "duration": 0.05434781249999787
        },
        {
          "name": "F#1",
          "midi": 30,
          "time": 129.64670671875248,
          "velocity": 0.8503937007874016,
          "duration": 0.15217387499998836
        },
        {
          "name": "C#3",
          "midi": 49,
          "time": 129.64670671875248,
          "velocity": 0.6692913385826772,
          "duration": 0.3858694687499451
        },
        {
          "name": "F#2",
          "midi": 42,
          "time": 129.6575762812525,
          "velocity": 0.4566929133858268,
          "duration": 0.2663042812499441
        },
        {
          "name": "G#3",
          "midi": 56,
          "time": 129.88040231250247,
          "velocity": 0.8503937007874016,
          "duration": 0.05434781249996945
        },
        {
          "name": "F#1",
          "midi": 30,
          "time": 129.90757621875247,
          "velocity": 0.952755905511811,
          "duration": 0.1630434374999652
        },
        {
          "name": "C#5",
          "midi": 73,
          "time": 129.90757621875247,
          "velocity": 0.8661417322834646,
          "duration": 0.8478258749998417
        },
        {
          "name": "A4",
          "midi": 69,
          "time": 129.90757621875247,
          "velocity": 0.8346456692913385,
          "duration": 1.9130429999997318
        },
        {
          "name": "G#3",
          "midi": 56,
          "time": 129.90757621875247,
          "velocity": 0.905511811023622,
          "duration": 0.25543471874993884
        },
        {
          "name": "E2",
          "midi": 40,
          "time": 129.91301100000246,
          "velocity": 0.9291338582677166,
          "duration": 0.0054347812499884185
        },
        {
          "name": "F#2",
          "midi": 42,
          "time": 129.91844578125244,
          "velocity": 0.7244094488188977,
          "duration": 0.2663042812499157
        },
        {
          "name": "C#3",
          "midi": 49,
          "time": 130.14127181250242,
          "velocity": 0.7086614173228346,
          "duration": 0.05434781249994103
        },
        {
          "name": "E4",
          "midi": 64,
          "time": 130.15757615625242,
          "velocity": 0.7244094488188977,
          "duration": 0.7989128437498891
        },
        {
          "name": "E5",
          "midi": 76,
          "time": 130.15757615625242,
          "velocity": 0.9212598425196851,
          "duration": 0.7934780624999007
        },
        {
          "name": "F#1",
          "midi": 30,
          "time": 130.1684457187524,
          "velocity": 0.8740157480314961,
          "duration": 0.1413043124999831
        },
        {
          "name": "C#3",
          "midi": 49,
          "time": 130.1684457187524,
          "velocity": 0.7637795275590551,
          "duration": 0.6467389687499292
        },
        {
          "name": "C2",
          "midi": 36,
          "time": 130.17388050000238,
          "velocity": 0.5905511811023622,
          "duration": 0.0054347812499884185
        },
        {
          "name": "F#2",
          "midi": 42,
          "time": 130.17931528125237,
          "velocity": 0.4330708661417323,
          "duration": 0.2663042812499725
        },
        {
          "name": "A3",
          "midi": 57,
          "time": 130.40214131250238,
          "velocity": 0.7952755905511811,
          "duration": 0.05434781249994103
        },
        {
          "name": "F#1",
          "midi": 30,
          "time": 130.42931521875238,
          "velocity": 0.952755905511811,
          "duration": 0.16304343749993677
        },
        {
          "name": "A3",
          "midi": 57,
          "time": 130.42931521875238,
          "velocity": 0.8503937007874016,
          "duration": 0.25543471874993884
        },
        {
          "name": "C2",
          "midi": 36,
          "time": 130.43475000000237,
          "velocity": 0.8818897637795275,
          "duration": 0.0054347812499884185
        },
        {
          "name": "E4",
          "midi": 64,
          "time": 130.43475000000237,
          "velocity": 0.8661417322834646,
          "duration": 2.6086949999997273
        },
        {
          "name": "F#2",
          "midi": 42,
          "time": 130.44018478125236,
          "velocity": 0.7086614173228346,
          "duration": 0.25543471874993884
        },
        {
          "name": "G#3",
          "midi": 56,
          "time": 130.6630108125023,
          "velocity": 0.7716535433070866,
          "duration": 0.05434781249999787
        },
        {
          "name": "F#2",
          "midi": 42,
          "time": 130.6901847187523,
          "velocity": 0.4566929133858268,
          "duration": 0.26630428125000094
        },
        {
          "name": "F#1",
          "midi": 30,
          "time": 130.6901847187523,
          "velocity": 0.8110236220472441,
          "duration": 0.14130431250001152
        },
        {
          "name": "G#3",
          "midi": 56,
          "time": 130.6901847187523,
          "velocity": 0.8267716535433071,
          "duration": 0.48913031249998085
        },
        {
          "name": "C#3",
          "midi": 49,
          "time": 130.92388031250232,
          "velocity": 0.7165354330708661,
          "duration": 0.05434781249996945
        },
        {
          "name": "F#2",
          "midi": 42,
          "time": 130.95105421875232,
          "velocity": 0.6299212598425197,
          "duration": 0.2663042812499441
        },
        {
          "name": "C#5",
          "midi": 73,
          "time": 130.95105421875232,
          "velocity": 0.889763779527559,
          "duration": 0.5054346562499177
        },
        {
          "name": "A4",
          "midi": 69,
          "time": 130.95105421875232,
          "velocity": 0.8503937007874016,
          "duration": 1.918477781249777
        },
        {
          "name": "C#3",
          "midi": 49,
          "time": 130.95105421875232,
          "velocity": 0.7716535433070866,
          "duration": 0.3858694687499451
        },
        {
          "name": "D4",
          "midi": 62,
          "time": 130.9564890000023,
          "velocity": 0.6377952755905512,
          "duration": 0.24999993749997884
        },
        {
          "name": "D5",
          "midi": 74,
          "time": 130.9564890000023,
          "velocity": 0.8110236220472441,
          "duration": 0.25543471874996726
        },
        {
          "name": "E2",
          "midi": 40,
          "time": 130.9564890000023,
          "velocity": 0.9291338582677166,
          "duration": 0.0054347812499884185
        },
        {
          "name": "F#1",
          "midi": 30,
          "time": 130.9619237812523,
          "velocity": 0.9448818897637795,
          "duration": 0.14673909374999994
        },
        {
          "name": "D4",
          "midi": 62,
          "time": 130.9619237812523,
          "velocity": 0.8346456692913385,
          "duration": 0.25543471874996726
        },
        {
          "name": "G#3",
          "midi": 56,
          "time": 131.18474981250228,
          "velocity": 0.7874015748031497,
          "duration": 0.05434781249999787
        },
        {
          "name": "F#2",
          "midi": 42,
          "time": 131.21192371875227,
          "velocity": 0.4094488188976378,
          "duration": 0.14673909374997152
        },
        {
          "name": "F#1",
          "midi": 30,
          "time": 131.21192371875227,
          "velocity": 0.8110236220472441,
          "duration": 0.13043474999997784
        },
        {
          "name": "C#4",
          "midi": 61,
          "time": 131.21192371875227,
          "velocity": 0.889763779527559,
          "duration": 0.23913037499997358
        },
        {
          "name": "G#3",
          "midi": 56,
          "time": 131.21192371875227,
          "velocity": 0.84251968503937,
          "duration": 0.244565156249962
        },
        {
          "name": "C#4",
          "midi": 61,
          "time": 131.21735850000226,
          "velocity": 0.6456692913385826,
          "duration": 0.29347818749994303
        },
        {
          "name": "C#5",
          "midi": 73,
          "time": 131.21735850000226,
          "velocity": 0.8188976377952756,
          "duration": 0.5869563749999429
        },
        {
          "name": "A3",
          "midi": 57,
          "time": 131.45105409375225,
          "velocity": 0.8503937007874016,
          "duration": 1.0923910312498322
        },
        {
          "name": "F#2",
          "midi": 42,
          "time": 131.45105409375225,
          "velocity": 0.9212598425196851,
          "duration": 0.027173906249970514
        },
        {
          "name": "F#2",
          "midi": 42,
          "time": 131.47279321875223,
          "velocity": 0.8976377952755905,
          "duration": 0.032608687499987354
        },
        {
          "name": "F#1",
          "midi": 30,
          "time": 131.47279321875223,
          "velocity": 0.952755905511811,
          "duration": 0.1413043124999831
        },
        {
          "name": "C2",
          "midi": 36,
          "time": 131.47822800000222,
          "velocity": 0.8661417322834646,
          "duration": 0.0054347812499884185
        },
        {
          "name": "F#2",
          "midi": 42,
          "time": 131.47822800000222,
          "velocity": 0.9763779527559056,
          "duration": 0.2608694999999841
        },
        {
          "name": "C#3",
          "midi": 49,
          "time": 131.70648881250222,
          "velocity": 0.6141732283464567,
          "duration": 0.05434781249999787
        },
        {
          "name": "F#2",
          "midi": 42,
          "time": 131.7336627187522,
          "velocity": 0.4409448818897638,
          "duration": 0.2663042812499725
        },
        {
          "name": "F#1",
          "midi": 30,
          "time": 131.7336627187522,
          "velocity": 0.7952755905511811,
          "duration": 0.13586953124999468
        },
        {
          "name": "C#3",
          "midi": 49,
          "time": 131.7336627187522,
          "velocity": 0.6692913385826772,
          "duration": 0.3858694687499451
        },
        {
          "name": "G#3",
          "midi": 56,
          "time": 131.9673583125022,
          "velocity": 0.8503937007874016,
          "duration": 0.05434781249996945
        },
        {
          "name": "A4",
          "midi": 69,
          "time": 131.9890974375022,
          "velocity": 0.8661417322834646,
          "duration": 1.5706517812498078
        },
        {
          "name": "C#5",
          "midi": 73,
          "time": 131.9890974375022,
          "velocity": 0.889763779527559,
          "duration": 0.8695649999998807
        },
        {
          "name": "F#2",
          "midi": 42,
          "time": 131.9945322187522,
          "velocity": 0.7007874015748031,
          "duration": 0.2663042812499441
        },
        {
          "name": "F#1",
          "midi": 30,
          "time": 131.9945322187522,
          "velocity": 0.952755905511811,
          "duration": 0.1630434374999652
        },
        {
          "name": "G#3",
          "midi": 56,
          "time": 131.9945322187522,
          "velocity": 0.905511811023622,
          "duration": 0.244565156249962
        },
        {
          "name": "E2",
          "midi": 40,
          "time": 131.9999670000022,
          "velocity": 0.9291338582677166,
          "duration": 0.0054347812499884185
        },
        {
          "name": "C#3",
          "midi": 49,
          "time": 132.22822781250215,
          "velocity": 0.7086614173228346,
          "duration": 0.05434781249996945
        },
        {
          "name": "E4",
          "midi": 64,
          "time": 132.25540171875215,
          "velocity": 0.6220472440944882,
          "duration": 0.7880432812499407
        },
        {
          "name": "E5",
          "midi": 76,
          "time": 132.25540171875215,
          "velocity": 0.7952755905511811,
          "duration": 0.8097824062499228
        },
        {
          "name": "F#2",
          "midi": 42,
          "time": 132.25540171875215,
          "velocity": 0.4251968503937008,
          "duration": 0.27717384374992093
        },
        {
          "name": "F#1",
          "midi": 30,
          "time": 132.25540171875215,
          "velocity": 0.7795275590551181,
          "duration": 0.15217387499995993
        },
        {
          "name": "C#3",
          "midi": 49,
          "time": 132.25540171875215,
          "velocity": 0.7637795275590551,
          "duration": 0.244565156249962
        },
        {
          "name": "C2",
          "midi": 36,
          "time": 132.26083650000214,
          "velocity": 0.5669291338582677,
          "duration": 0.0054347812499884185
        },
        {
          "name": "A3",
          "midi": 57,
          "time": 132.4890973125021,
          "velocity": 0.7952755905511811,
          "duration": 0.07608693749997997
        },
        {
          "name": "F#1",
          "midi": 30,
          "time": 132.5162712187521,
          "velocity": 0.952755905511811,
          "duration": 0.16847821874998203
        },
        {
          "name": "A3",
          "midi": 57,
          "time": 132.5162712187521,
          "velocity": 0.8503937007874016,
          "duration": 0.2554347187499957
        },
        {
          "name": "C2",
          "midi": 36,
          "time": 132.5217060000021,
          "velocity": 0.8740157480314961,
          "duration": 0.0054347812499884185
        },
        {
          "name": "E4",
          "midi": 64,
          "time": 132.5217060000021,
          "velocity": 0.8661417322834646,
          "duration": 1.0380432187499196
        },
        {
          "name": "F#2",
          "midi": 42,
          "time": 132.5271407812521,
          "velocity": 0.6929133858267716,
          "duration": 0.26630428125000094
        },
        {
          "name": "G#3",
          "midi": 56,
          "time": 132.7499668125021,
          "velocity": 0.7716535433070866,
          "duration": 0.05434781249999787
        },
        {
          "name": "F#1",
          "midi": 30,
          "time": 132.7771407187521,
          "velocity": 0.889763779527559,
          "duration": 0.14673909374999994
        },
        {
          "name": "G#3",
          "midi": 56,
          "time": 132.7771407187521,
          "velocity": 0.8267716535433071,
          "duration": 0.47282596874998717
        },
        {
          "name": "F#2",
          "midi": 42,
          "time": 132.7880102812521,
          "velocity": 0.44881889763779526,
          "duration": 0.2663042812499725
        },
        {
          "name": "C#3",
          "midi": 49,
          "time": 133.0108363125021,
          "velocity": 0.7165354330708661,
          "duration": 0.05434781249996945
        },
        {
          "name": "F#1",
          "midi": 30,
          "time": 133.0380102187521,
          "velocity": 0.952755905511811,
          "duration": 0.17391299999997045
        },
        {
          "name": "C#3",
          "midi": 49,
          "time": 133.0380102187521,
          "velocity": 0.7716535433070866,
          "duration": 0.24456515624999042
        },
        {
          "name": "D4",
          "midi": 62,
          "time": 133.0434450000021,
          "velocity": 0.5905511811023622,
          "duration": 0.2608694999999841
        },
        {
          "name": "D5",
          "midi": 74,
          "time": 133.0434450000021,
          "velocity": 0.7480314960629921,
          "duration": 0.2554347187499957
        },
        {
          "name": "E2",
          "midi": 40,
          "time": 133.0434450000021,
          "velocity": 0.9291338582677166,
          "duration": 0.0054347812499884185
        },
        {
          "name": "D4",
          "midi": 62,
          "time": 133.0434450000021,
          "velocity": 0.7086614173228346,
          "duration": 0.27717384374994936
        },
        {
          "name": "F#2",
          "midi": 42,
          "time": 133.04887978125208,
          "velocity": 0.7244094488188977,
          "duration": 0.2663042812499725
        },
        {
          "name": "A4",
          "midi": 69,
          "time": 133.04887978125208,
          "velocity": 0.8503937007874016,
          "duration": 0.8586954374999038
        },
        {
          "name": "C#5",
          "midi": 73,
          "time": 133.04887978125208,
          "velocity": 0.889763779527559,
          "duration": 0.5434781249998935
        },
        {
          "name": "G#3",
          "midi": 56,
          "time": 133.2717058125021,
          "velocity": 0.7874015748031497,
          "duration": 0.05434781249994103
        },
        {
          "name": "F#1",
          "midi": 30,
          "time": 133.2988797187521,
          "velocity": 0.8976377952755905,
          "duration": 0.1086956249999389
        },
        {
          "name": "G#3",
          "midi": 56,
          "time": 133.2988797187521,
          "velocity": 0.84251968503937,
          "duration": 0.24456515624993358
        },
        {
          "name": "C#4",
          "midi": 61,
          "time": 133.30431450000208,
          "velocity": 0.6614173228346457,
          "duration": 0.25543471874993884
        },
        {
          "name": "C#5",
          "midi": 73,
          "time": 133.30431450000208,
          "velocity": 0.7874015748031497,
          "duration": 0.5815215937498976
        },
        {
          "name": "C#4",
          "midi": 61,
          "time": 133.30431450000208,
          "velocity": 0.8346456692913385,
          "duration": 0.28804340624989777
        },
        {
          "name": "F#2",
          "midi": 42,
          "time": 133.30974928125207,
          "velocity": 0.3700787401574803,
          "duration": 0.13586953124996626
        },
        {
          "name": "D3",
          "midi": 50,
          "time": 133.53801009375204,
          "velocity": 0.9212598425196851,
          "duration": 0.05434781249994103
        },
        {
          "name": "C2",
          "midi": 36,
          "time": 133.565184000002,
          "velocity": 0.8503937007874016,
          "duration": 0.0054347812499884185
        },
        {
          "name": "A3",
          "midi": 57,
          "time": 133.565184000002,
          "velocity": 0.9448818897637795,
          "duration": 0.2826086249999662
        },
        {
          "name": "D3",
          "midi": 50,
          "time": 133.565184000002,
          "velocity": 0.9763779527559056,
          "duration": 0.7771737187499355
        },
        {
          "name": "E4",
          "midi": 64,
          "time": 133.565184000002,
          "velocity": 0.5275590551181102,
          "duration": 0.5434781249999503
        },
        {
          "name": "A4",
          "midi": 69,
          "time": 133.565184000002,
          "velocity": 0.5275590551181102,
          "duration": 1.3913039999998773
        },
        {
          "name": "F#2",
          "midi": 42,
          "time": 133.570618781252,
          "velocity": 0.84251968503937,
          "duration": 0.0054347812499884185
        },
        {
          "name": "D2",
          "midi": 38,
          "time": 133.570618781252,
          "velocity": 0.952755905511811,
          "duration": 0.1413043124999831
        },
        {
          "name": "A3",
          "midi": 57,
          "time": 133.79344481250197,
          "velocity": 0.6141732283464567,
          "duration": 0.5434781249999787
        },
        {
          "name": "D2",
          "midi": 38,
          "time": 133.82061871875197,
          "velocity": 0.8661417322834646,
          "duration": 0.17934778125001571
        },
        {
          "name": "A3",
          "midi": 57,
          "time": 133.82061871875197,
          "velocity": 0.6692913385826772,
          "duration": 0.5489129062499387
        },
        {
          "name": "F#2",
          "midi": 42,
          "time": 133.83148828125198,
          "velocity": 0.4330708661417323,
          "duration": 0.0054347812499884185
        },
        {
          "name": "E4",
          "midi": 64,
          "time": 134.054314312502,
          "velocity": 0.7952755905511811,
          "duration": 0.4130433749999156
        },
        {
          "name": "C#5",
          "midi": 73,
          "time": 134.076053437502,
          "velocity": 0.889763779527559,
          "duration": 0.8586954374998754
        },
        {
          "name": "A4",
          "midi": 69,
          "time": 134.076053437502,
          "velocity": 0.8818897637795275,
          "duration": 1.9239125624998223
        },
        {
          "name": "F#2",
          "midi": 42,
          "time": 134.08148821875199,
          "velocity": 0.7559055118110236,
          "duration": 0.0054347812499884185
        },
        {
          "name": "E4",
          "midi": 64,
          "time": 134.08148821875199,
          "velocity": 0.8503937007874016,
          "duration": 1.0489127812498964
        },
        {
          "name": "E2",
          "midi": 40,
          "time": 134.08692300000197,
          "velocity": 0.9291338582677166,
          "duration": 0.0054347812499884185
        },
        {
          "name": "D2",
          "midi": 38,
          "time": 134.08692300000197,
          "velocity": 0.952755905511811,
          "duration": 0.1793477812499873
        },
        {
          "name": "A3",
          "midi": 57,
          "time": 134.31518381250197,
          "velocity": 0.7086614173228346,
          "duration": 0.3695651249998946
        },
        {
          "name": "D3",
          "midi": 50,
          "time": 134.32061859375196,
          "velocity": 0.7401574803149606,
          "duration": 0.05434781249994103
        },
        {
          "name": "A3",
          "midi": 57,
          "time": 134.34235771875194,
          "velocity": 0.7637795275590551,
          "duration": 0.4836955312499356
        },
        {
          "name": "E4",
          "midi": 64,
          "time": 134.34779250000193,
          "velocity": 0.6692913385826772,
          "duration": 0.7826084999999523
        },
        {
          "name": "E5",
          "midi": 76,
          "time": 134.34779250000193,
          "velocity": 0.8110236220472441,
          "duration": 0.7771737187499639
        },
        {
          "name": "C2",
          "midi": 36,
          "time": 134.34779250000193,
          "velocity": 0.6377952755905512,
          "duration": 0.0054347812499884185
        },
        {
          "name": "D3",
          "midi": 50,
          "time": 134.34779250000193,
          "velocity": 0.7952755905511811,
          "duration": 0.7771737187499639
        },
        {
          "name": "F#2",
          "midi": 42,
          "time": 134.35322728125192,
          "velocity": 0.44881889763779526,
          "duration": 0.0054347812499884185
        },
        {
          "name": "D2",
          "midi": 38,
          "time": 134.35322728125192,
          "velocity": 0.8031496062992126,
          "duration": 0.15217387499998836
        },
        {
          "name": "D4",
          "midi": 62,
          "time": 134.5760533125019,
          "velocity": 0.7952755905511811,
          "duration": 0.05434781249996945
        },
        {
          "name": "D2",
          "midi": 38,
          "time": 134.6032272187519,
          "velocity": 0.952755905511811,
          "duration": 0.16847821874998203
        },
        {
          "name": "D4",
          "midi": 62,
          "time": 134.6032272187519,
          "velocity": 0.8503937007874016,
          "duration": 0.3858694687499735
        },
        {
          "name": "C2",
          "midi": 36,
          "time": 134.60866200000189,
          "velocity": 0.8740157480314961,
          "duration": 0.0054347812499884185
        },
        {
          "name": "F#2",
          "midi": 42,
          "time": 134.61409678125187,
          "velocity": 0.7559055118110236,
          "duration": 0.0054347812499884185
        },
        {
          "name": "E4",
          "midi": 64,
          "time": 134.61409678125187,
          "velocity": 0.7401574803149606,
          "duration": 2.103260343749838
        },
        {
          "name": "A3",
          "midi": 57,
          "time": 134.83692281250188,
          "velocity": 0.7716535433070866,
          "duration": 0.05434781249999787
        },
        {
          "name": "D2",
          "midi": 38,
          "time": 134.86409671875188,
          "velocity": 0.8031496062992126,
          "duration": 0.16304343749999362
        },
        {
          "name": "A3",
          "midi": 57,
          "time": 134.86409671875188,
          "velocity": 0.8267716535433071,
          "duration": 0.38586946875000194
        },
        {
          "name": "F#2",
          "midi": 42,
          "time": 134.8749662812519,
          "velocity": 0.44881889763779526,
          "duration": 0.0054347812499884185
        },
        {
          "name": "D4",
          "midi": 62,
          "time": 135.10322709375188,
          "velocity": 0.5669291338582677,
          "duration": 0.05434781249999787
        },
        {
          "name": "D3",
          "midi": 50,
          "time": 135.10322709375188,
          "velocity": 0.7165354330708661,
          "duration": 0.05434781249999787
        },
        {
          "name": "D2",
          "midi": 38,
          "time": 135.1249662187519,
          "velocity": 0.952755905511811,
          "duration": 0.15760865624997678
        },
        {
          "name": "D4",
          "midi": 62,
          "time": 135.13040100000188,
          "velocity": 0.6141732283464567,
          "duration": 0.2608694999999841
        },
        {
          "name": "D5",
          "midi": 74,
          "time": 135.13040100000188,
          "velocity": 0.7322834645669292,
          "duration": 0.2554347187499957
        },
        {
          "name": "E2",
          "midi": 40,
          "time": 135.13040100000188,
          "velocity": 0.9291338582677166,
          "duration": 0.0054347812499884185
        },
        {
          "name": "F#2",
          "midi": 42,
          "time": 135.13040100000188,
          "velocity": 0.7086614173228346,
          "duration": 0.0054347812499884185
        },
        {
          "name": "D4",
          "midi": 62,
          "time": 135.13040100000188,
          "velocity": 0.7480314960629921,
          "duration": 0.29347818749997145
        },
        {
          "name": "D4",
          "midi": 62,
          "time": 135.13040100000188,
          "velocity": 0.6220472440944882,
          "duration": 0.3858694687499735
        },
        {
          "name": "D3",
          "midi": 50,
          "time": 135.13040100000188,
          "velocity": 0.7716535433070866,
          "duration": 0.5163042187499514
        },
        {
          "name": "C#5",
          "midi": 73,
          "time": 135.14670534375188,
          "velocity": 0.9133858267716536,
          "duration": 0.5489129062499387
        },
        {
          "name": "A4",
          "midi": 69,
          "time": 135.14670534375188,
          "velocity": 0.8661417322834646,
          "duration": 1.874999531249813
        },
        {
          "name": "A3",
          "midi": 57,
          "time": 135.35866181250188,
          "velocity": 0.7874015748031497,
          "duration": 0.05434781249996945
        },
        {
          "name": "E2",
          "midi": 40,
          "time": 135.38583571875188,
          "velocity": 0.9212598425196851,
          "duration": 0.20652168749998623
        },
        {
          "name": "A3",
          "midi": 57,
          "time": 135.38583571875188,
          "velocity": 0.84251968503937,
          "duration": 0.244565156249962
        },
        {
          "name": "C#4",
          "midi": 61,
          "time": 135.39127050000187,
          "velocity": 0.5433070866141733,
          "duration": 0.25543471874996726
        },
        {
          "name": "C#5",
          "midi": 73,
          "time": 135.39127050000187,
          "velocity": 0.7244094488188977,
          "duration": 0.5869563749999429
        },
        {
          "name": "C#4",
          "midi": 61,
          "time": 135.39127050000187,
          "velocity": 0.8661417322834646,
          "duration": 0.3043477499999483
        },
        {
          "name": "F#2",
          "midi": 42,
          "time": 135.39670528125185,
          "velocity": 0.33070866141732286,
          "duration": 0.0054347812499884185
        },
        {
          "name": "E3",
          "midi": 52,
          "time": 135.62496609375185,
          "velocity": 0.9212598425196851,
          "duration": 0.05434781249996945
        },
        {
          "name": "F#2",
          "midi": 42,
          "time": 135.65214000000182,
          "velocity": 0.84251968503937,
          "duration": 0.0054347812499884185
        },
        {
          "name": "C2",
          "midi": 36,
          "time": 135.65214000000182,
          "velocity": 0.8740157480314961,
          "duration": 0.0054347812499884185
        },
        {
          "name": "E2",
          "midi": 40,
          "time": 135.65214000000182,
          "velocity": 0.8976377952755905,
          "duration": 0.1576086562500052
        },
        {
          "name": "A3",
          "midi": 57,
          "time": 135.65214000000182,
          "velocity": 0.8976377952755905,
          "duration": 1.0271736562499143
        },
        {
          "name": "E3",
          "midi": 52,
          "time": 135.65214000000182,
          "velocity": 0.8976377952755905,
          "duration": 0.7663041562499586
        },
        {
          "name": "B3",
          "midi": 59,
          "time": 135.88040081250182,
          "velocity": 0.6141732283464567,
          "duration": 0.05434781249999787
        },
        {
          "name": "E2",
          "midi": 40,
          "time": 135.90757471875182,
          "velocity": 0.8976377952755905,
          "duration": 0.1576086562500052
        },
        {
          "name": "B3",
          "midi": 59,
          "time": 135.90757471875182,
          "velocity": 0.6692913385826772,
          "duration": 0.3858694687499735
        },
        {
          "name": "F#2",
          "midi": 42,
          "time": 135.91844428125182,
          "velocity": 0.5196850393700787,
          "duration": 0.0054347812499884185
        },
        {
          "name": "F#4",
          "midi": 66,
          "time": 136.14127031250183,
          "velocity": 0.8503937007874016,
          "duration": 0.05434781249996945
        },
        {
          "name": "E2",
          "midi": 40,
          "time": 136.16844421875183,
          "velocity": 0.8188976377952756,
          "duration": 0.010869562499976837
        },
        {
          "name": "F#4",
          "midi": 66,
          "time": 136.16844421875183,
          "velocity": 0.7637795275590551,
          "duration": 0.3858694687499167
        },
        {
          "name": "E2",
          "midi": 40,
          "time": 136.17387900000182,
          "velocity": 0.9291338582677166,
          "duration": 0.1630434374999652
        },
        {
          "name": "F#2",
          "midi": 42,
          "time": 136.1793137812518,
          "velocity": 0.7480314960629921,
          "duration": 0.0054347812499884185
        },
        {
          "name": "C#5",
          "midi": 73,
          "time": 136.1847485625018,
          "velocity": 0.937007874015748,
          "duration": 0.8206519687498997
        },
        {
          "name": "A4",
          "midi": 69,
          "time": 136.1847485625018,
          "velocity": 0.8818897637795275,
          "duration": 1.9130429999997034
        },
        {
          "name": "B3",
          "midi": 59,
          "time": 136.4021398125018,
          "velocity": 0.7086614173228346,
          "duration": 0.05434781249996945
        },
        {
          "name": "E3",
          "midi": 52,
          "time": 136.40757459375178,
          "velocity": 0.7480314960629921,
          "duration": 0.05434781249996945
        },
        {
          "name": "F#2",
          "midi": 42,
          "time": 136.42931371875179,
          "velocity": 0.4251968503937008,
          "duration": 0.0054347812499884185
        },
        {
          "name": "E2",
          "midi": 40,
          "time": 136.42931371875179,
          "velocity": 0.8661417322834646,
          "duration": 0.15760865624994835
        },
        {
          "name": "B3",
          "midi": 59,
          "time": 136.42931371875179,
          "velocity": 0.7637795275590551,
          "duration": 0.3858694687499167
        },
        {
          "name": "E4",
          "midi": 64,
          "time": 136.43474850000177,
          "velocity": 0.5984251968503937,
          "duration": 0.6413041874999124
        },
        {
          "name": "E5",
          "midi": 76,
          "time": 136.43474850000177,
          "velocity": 0.7795275590551181,
          "duration": 0.777173718749907
        },
        {
          "name": "C2",
          "midi": 36,
          "time": 136.43474850000177,
          "velocity": 0.5984251968503937,
          "duration": 0.0054347812499884185
        },
        {
          "name": "E3",
          "midi": 52,
          "time": 136.43474850000177,
          "velocity": 0.8031496062992126,
          "duration": 0.7336954687499144
        },
        {
          "name": "E4",
          "midi": 64,
          "time": 136.66300931250174,
          "velocity": 0.7952755905511811,
          "duration": 0.5543476874999271
        },
        {
          "name": "E4",
          "midi": 64,
          "time": 136.67931365625174,
          "velocity": 0.8976377952755905,
          "duration": 0.5978259374999197
        },
        {
          "name": "E2",
          "midi": 40,
          "time": 136.69018321875174,
          "velocity": 0.8661417322834646,
          "duration": 0.17934778124995887
        },
        {
          "name": "E4",
          "midi": 64,
          "time": 136.69018321875174,
          "velocity": 0.8503937007874016,
          "duration": 0.8097824062498944
        },
        {
          "name": "F#2",
          "midi": 42,
          "time": 136.69561800000173,
          "velocity": 0.7244094488188977,
          "duration": 0.0054347812499884185
        },
        {
          "name": "C2",
          "midi": 36,
          "time": 136.69561800000173,
          "velocity": 0.8661417322834646,
          "duration": 0.0054347812499884185
        },
        {
          "name": "B3",
          "midi": 59,
          "time": 136.9238788125017,
          "velocity": 0.7716535433070866,
          "duration": 0.05434781249999787
        },
        {
          "name": "F#2",
          "midi": 42,
          "time": 136.9510527187517,
          "velocity": 0.36220472440944884,
          "duration": 0.0054347812499884185
        },
        {
          "name": "E2",
          "midi": 40,
          "time": 136.9510527187517,
          "velocity": 0.7716535433070866,
          "duration": 0.1793477812499873
        },
        {
          "name": "B3",
          "midi": 59,
          "time": 136.9510527187517,
          "velocity": 0.7795275590551181,
          "duration": 0.777173718749907
        },
        {
          "name": "E3",
          "midi": 52,
          "time": 137.18474831250168,
          "velocity": 0.7165354330708661,
          "duration": 0.05434781249996945
        },
        {
          "name": "F#2",
          "midi": 42,
          "time": 137.21192221875168,
          "velocity": 0.7086614173228346,
          "duration": 0.0054347812499884185
        },
        {
          "name": "E2",
          "midi": 40,
          "time": 137.21192221875168,
          "velocity": 0.8818897637795275,
          "duration": 0.010869562499976837
        },
        {
          "name": "C#5",
          "midi": 73,
          "time": 137.21192221875168,
          "velocity": 0.9133858267716536,
          "duration": 0.5326085624998882
        },
        {
          "name": "A4",
          "midi": 69,
          "time": 137.21192221875168,
          "velocity": 0.8661417322834646,
          "duration": 1.9076082187496581
        },
        {
          "name": "D4",
          "midi": 62,
          "time": 137.21192221875168,
          "velocity": 0.8346456692913385,
          "duration": 0.23369559374998516
        },
        {
          "name": "E3",
          "midi": 52,
          "time": 137.21192221875168,
          "velocity": 0.7007874015748031,
          "duration": 0.24456515624999042
        },
        {
          "name": "D4",
          "midi": 62,
          "time": 137.21735700000167,
          "velocity": 0.6220472440944882,
          "duration": 0.2608694999999841
        },
        {
          "name": "D5",
          "midi": 74,
          "time": 137.21735700000167,
          "velocity": 0.8031496062992126,
          "duration": 0.2771738437499778
        },
        {
          "name": "E2",
          "midi": 40,
          "time": 137.21735700000167,
          "velocity": 0.9291338582677166,
          "duration": 0.17391299999999887
        },
        {
          "name": "E4",
          "midi": 64,
          "time": 137.44561781250167,
          "velocity": 0.7874015748031497,
          "duration": 0.2826086249999378
        },
        {
          "name": "C#4",
          "midi": 61,
          "time": 137.46192215625166,
          "velocity": 0.84251968503937,
          "duration": 0.244565156249962
        },
        {
          "name": "E2",
          "midi": 40,
          "time": 137.47279171875167,
          "velocity": 0.8503937007874016,
          "duration": 0.1630434374999652
        },
        {
          "name": "E4",
          "midi": 64,
          "time": 137.47279171875167,
          "velocity": 0.6692913385826772,
          "duration": 1.8315212812496497
        },
        {
          "name": "C#4",
          "midi": 61,
          "time": 137.47822650000165,
          "velocity": 0.6220472440944882,
          "duration": 0.3097825312499083
        },
        {
          "name": "C#5",
          "midi": 73,
          "time": 137.47822650000165,
          "velocity": 0.7795275590551181,
          "duration": 0.6032607187498513
        },
        {
          "name": "F#2",
          "midi": 42,
          "time": 137.47822650000165,
          "velocity": 0.4015748031496063,
          "duration": 0.0054347812499884185
        },
        {
          "name": "A2",
          "midi": 45,
          "time": 137.7119220937516,
          "velocity": 0.9212598425196851,
          "duration": 0.05434781249994103
        },
        {
          "name": "A3",
          "midi": 57,
          "time": 137.7282264375016,
          "velocity": 0.8976377952755905,
          "duration": 1.0706519062497648
        },
        {
          "name": "A1",
          "midi": 33,
          "time": 137.7336612187516,
          "velocity": 0.8976377952755905,
          "duration": 0.13586953124996626
        },
        {
          "name": "C2",
          "midi": 36,
          "time": 137.73909600000158,
          "velocity": 0.8740157480314961,
          "duration": 0.0054347812499884185
        },
        {
          "name": "A2",
          "midi": 45,
          "time": 137.73909600000158,
          "velocity": 0.9763779527559056,
          "duration": 1.9673908124996444
        },
        {
          "name": "F#2",
          "midi": 42,
          "time": 137.74453078125157,
          "velocity": 0.84251968503937,
          "duration": 0.0054347812499884185
        },
        {
          "name": "E3",
          "midi": 52,
          "time": 137.96735681250155,
          "velocity": 0.6141732283464567,
          "duration": 0.05434781249996945
        },
        {
          "name": "A1",
          "midi": 33,
          "time": 137.99453071875155,
          "velocity": 0.8661417322834646,
          "duration": 0.17934778124995887
        },
        {
          "name": "E3",
          "midi": 52,
          "time": 137.99453071875155,
          "velocity": 0.6692913385826772,
          "duration": 0.3858694687499167
        },
        {
          "name": "F#2",
          "midi": 42,
          "time": 137.99996550000154,
          "velocity": 0.4566929133858268,
          "duration": 0.0054347812499884185
        },
        {
          "name": "B3",
          "midi": 59,
          "time": 138.2282263125015,
          "velocity": 0.8503937007874016,
          "duration": 0.05434781249996945
        },
        {
          "name": "B3",
          "midi": 59,
          "time": 138.2554002187515,
          "velocity": 0.905511811023622,
          "duration": 0.25543471874996726
        },
        {
          "name": "E2",
          "midi": 40,
          "time": 138.2608350000015,
          "velocity": 0.9291338582677166,
          "duration": 0.0054347812499884185
        },
        {
          "name": "F#2",
          "midi": 42,
          "time": 138.2608350000015,
          "velocity": 0.6771653543307087,
          "duration": 0.0054347812499884185
        },
        {
          "name": "A1",
          "midi": 33,
          "time": 138.2608350000015,
          "velocity": 0.9291338582677166,
          "duration": 0.17934778124995887
        },
        {
          "name": "A4",
          "midi": 69,
          "time": 138.2771393437515,
          "velocity": 0.8503937007874016,
          "duration": 1.8913038749996645
        },
        {
          "name": "C#5",
          "midi": 73,
          "time": 138.2771393437515,
          "velocity": 0.9133858267716536,
          "duration": 0.8315215312498481
        },
        {
          "name": "E3",
          "midi": 52,
          "time": 138.48909581250146,
          "velocity": 0.7086614173228346,
          "duration": 0.05434781249996945
        },
        {
          "name": "E3",
          "midi": 52,
          "time": 138.51626971875146,
          "velocity": 0.7637795275590551,
          "duration": 0.6467389687498724
        },
        {
          "name": "F#2",
          "midi": 42,
          "time": 138.52170450000145,
          "velocity": 0.49606299212598426,
          "duration": 0.0054347812499884185
        },
        {
          "name": "C2",
          "midi": 36,
          "time": 138.52170450000145,
          "velocity": 0.5905511811023622,
          "duration": 0.0054347812499884185
        },
        {
          "name": "A1",
          "midi": 33,
          "time": 138.52170450000145,
          "velocity": 0.8188976377952756,
          "duration": 0.16847821874998203
        },
        {
          "name": "E4",
          "midi": 64,
          "time": 138.53257406250142,
          "velocity": 0.6220472440944882,
          "duration": 0.8152171874998828
        },
        {
          "name": "E5",
          "midi": 76,
          "time": 138.53257406250142,
          "velocity": 0.8110236220472441,
          "duration": 0.7771737187498786
        },
        {
          "name": "C#4",
          "midi": 61,
          "time": 138.74996531250142,
          "velocity": 0.7952755905511811,
          "duration": 0.05434781249994103
        },
        {
          "name": "C#4",
          "midi": 61,
          "time": 138.77713921875142,
          "velocity": 0.8503937007874016,
          "duration": 0.25543471874993884
        },
        {
          "name": "C2",
          "midi": 36,
          "time": 138.7825740000014,
          "velocity": 0.8740157480314961,
          "duration": 0.0054347812499884185
        },
        {
          "name": "A1",
          "midi": 33,
          "time": 138.7825740000014,
          "velocity": 0.952755905511811,
          "duration": 0.15760865624994835
        },
        {
          "name": "E4",
          "midi": 64,
          "time": 138.7825740000014,
          "velocity": 0.8818897637795275,
          "duration": 2.6467384687494757
        },
        {
          "name": "F#2",
          "midi": 42,
          "time": 138.7880087812514,
          "velocity": 0.7244094488188977,
          "duration": 0.0054347812499884185
        },
        {
          "name": "B3",
          "midi": 59,
          "time": 139.01083481250134,
          "velocity": 0.7716535433070866,
          "duration": 0.05434781249999787
        },
        {
          "name": "A1",
          "midi": 33,
          "time": 139.03800871875134,
          "velocity": 0.8188976377952756,
          "duration": 0.14673909374999994
        },
        {
          "name": "B3",
          "midi": 59,
          "time": 139.03800871875134,
          "velocity": 0.8267716535433071,
          "duration": 0.4891303124999524
        },
        {
          "name": "F#2",
          "midi": 42,
          "time": 139.04887828125135,
          "velocity": 0.36220472440944884,
          "duration": 0.0054347812499884185
        },
        {
          "name": "D4",
          "midi": 62,
          "time": 139.26626953125134,
          "velocity": 0.7165354330708661,
          "duration": 0.2880434062499262
        },
        {
          "name": "E3",
          "midi": 52,
          "time": 139.27170431250133,
          "velocity": 0.7165354330708661,
          "duration": 0.05434781249996945
        },
        {
          "name": "C#5",
          "midi": 73,
          "time": 139.29344343750134,
          "velocity": 0.889763779527559,
          "duration": 0.5271737812498714
        },
        {
          "name": "A4",
          "midi": 69,
          "time": 139.29344343750134,
          "velocity": 0.8661417322834646,
          "duration": 1.5706517812496656
        },
        {
          "name": "E3",
          "midi": 52,
          "time": 139.29887821875133,
          "velocity": 0.7716535433070866,
          "duration": 0.3858694687499167
        },
        {
          "name": "D4",
          "midi": 62,
          "time": 139.30431300000132,
          "velocity": 0.5905511811023622,
          "duration": 0.26086949999992726
        },
        {
          "name": "D5",
          "midi": 74,
          "time": 139.30431300000132,
          "velocity": 0.7559055118110236,
          "duration": 0.25543471874993884
        },
        {
          "name": "E2",
          "midi": 40,
          "time": 139.30431300000132,
          "velocity": 0.9291338582677166,
          "duration": 0.0054347812499884185
        },
        {
          "name": "A1",
          "midi": 33,
          "time": 139.30431300000132,
          "velocity": 0.952755905511811,
          "duration": 0.16304343749999362
        },
        {
          "name": "F#2",
          "midi": 42,
          "time": 139.3097477812513,
          "velocity": 0.7716535433070866,
          "duration": 0.0054347812499884185
        },
        {
          "name": "B3",
          "midi": 59,
          "time": 139.53257381250128,
          "velocity": 0.7874015748031497,
          "duration": 0.05434781249996945
        },
        {
          "name": "C#4",
          "midi": 61,
          "time": 139.54887815625128,
          "velocity": 0.8661417322834646,
          "duration": 0.244565156249962
        },
        {
          "name": "F#2",
          "midi": 42,
          "time": 139.55974771875125,
          "velocity": 0.4409448818897638,
          "duration": 0.0054347812499884185
        },
        {
          "name": "A1",
          "midi": 33,
          "time": 139.55974771875125,
          "velocity": 0.8818897637795275,
          "duration": 0.1413043124999831
        },
        {
          "name": "B3",
          "midi": 59,
          "time": 139.55974771875125,
          "velocity": 0.84251968503937,
          "duration": 0.244565156249962
        },
        {
          "name": "C#4",
          "midi": 61,
          "time": 139.56518250000124,
          "velocity": 0.5984251968503937,
          "duration": 0.25543471874996726
        },
        {
          "name": "C#5",
          "midi": 73,
          "time": 139.56518250000124,
          "velocity": 0.7637795275590551,
          "duration": 0.5869563749999145
        },
        {
          "name": "A2",
          "midi": 45,
          "time": 139.79887809375123,
          "velocity": 0.9212598425196851,
          "duration": 0.05434781249994103
        },
        {
          "name": "A3",
          "midi": 57,
          "time": 139.80431287500122,
          "velocity": 0.7480314960629921,
          "duration": 1.0380432187498059
        },
        {
          "name": "C2",
          "midi": 36,
          "time": 139.8260520000012,
          "velocity": 0.905511811023622,
          "duration": 0.0054347812499884185
        },
        {
          "name": "A1",
          "midi": 33,
          "time": 139.8260520000012,
          "velocity": 0.952755905511811,
          "duration": 0.15217387499995993
        },
        {
          "name": "A2",
          "midi": 45,
          "time": 139.8260520000012,
          "velocity": 0.9763779527559056,
          "duration": 1.9673908124996728
        },
        {
          "name": "F#2",
          "midi": 42,
          "time": 139.8314867812512,
          "velocity": 0.84251968503937,
          "duration": 0.0054347812499884185
        },
        {
          "name": "E3",
          "midi": 52,
          "time": 140.05431281250117,
          "velocity": 0.6141732283464567,
          "duration": 0.05434781249999787
        },
        {
          "name": "E3",
          "midi": 52,
          "time": 140.08148671875117,
          "velocity": 0.6692913385826772,
          "duration": 0.3858694687499167
        },
        {
          "name": "F#2",
          "midi": 42,
          "time": 140.09235628125117,
          "velocity": 0.4094488188976378,
          "duration": 0.0054347812499884185
        },
        {
          "name": "A1",
          "midi": 33,
          "time": 140.09235628125117,
          "velocity": 0.8031496062992126,
          "duration": 0.14673909374997152
        },
        {
          "name": "B3",
          "midi": 59,
          "time": 140.31518231250115,
          "velocity": 0.8503937007874016,
          "duration": 0.05434781249994103
        },
        {
          "name": "E2",
          "midi": 40,
          "time": 140.33148665625114,
          "velocity": 0.9133858267716536,
          "duration": 0.0054347812499884185
        },
        {
          "name": "C#5",
          "midi": 73,
          "time": 140.33692143750113,
          "velocity": 0.889763779527559,
          "duration": 0.8315215312497912
        },
        {
          "name": "A4",
          "midi": 69,
          "time": 140.33692143750113,
          "velocity": 0.8503937007874016,
          "duration": 0.8369563124997796
        },
        {
          "name": "B3",
          "midi": 59,
          "time": 140.34235621875112,
          "velocity": 0.905511811023622,
          "duration": 0.244565156249962
        },
        {
          "name": "A4",
          "midi": 69,
          "time": 140.3477910000011,
          "velocity": 0.9212598425196851,
          "duration": 1.4347822499997847
        },
        {
          "name": "E2",
          "midi": 40,
          "time": 140.3477910000011,
          "velocity": 0.9291338582677166,
          "duration": 0.0054347812499884185
        },
        {
          "name": "F#2",
          "midi": 42,
          "time": 140.3477910000011,
          "velocity": 0.7086614173228346,
          "duration": 0.0054347812499884185
        },
        {
          "name": "A1",
          "midi": 33,
          "time": 140.3477910000011,
          "velocity": 0.952755905511811,
          "duration": 0.16847821874998203
        },
        {
          "name": "E3",
          "midi": 52,
          "time": 140.57605181250108,
          "velocity": 0.7086614173228346,
          "duration": 0.05434781249996945
        },
        {
          "name": "E3",
          "midi": 52,
          "time": 140.60322571875108,
          "velocity": 0.7637795275590551,
          "duration": 0.5163042187498945
        },
        {
          "name": "C2",
          "midi": 36,
          "time": 140.60866050000106,
          "velocity": 0.5748031496062992,
          "duration": 0.0054347812499884185
        },
        {
          "name": "A1",
          "midi": 33,
          "time": 140.60866050000106,
          "velocity": 0.7952755905511811,
          "duration": 0.15760865624997678
        },
        {
          "name": "F#2",
          "midi": 42,
          "time": 140.61409528125105,
          "velocity": 0.3858267716535433,
          "duration": 0.0054347812499884185
        },
        {
          "name": "C#4",
          "midi": 61,
          "time": 140.83692131250103,
          "velocity": 0.7952755905511811,
          "duration": 0.05434781249994103
        },
        {
          "name": "C#5",
          "midi": 73,
          "time": 140.84235609375102,
          "velocity": 0.9212598425196851,
          "duration": 0.5163042187498945
        },
        {
          "name": "E4",
          "midi": 64,
          "time": 140.847790875001,
          "velocity": 0.7244094488188977,
          "duration": 0.8858693437498744
        },
        {
          "name": "A1",
          "midi": 33,
          "time": 140.864095218751,
          "velocity": 0.952755905511811,
          "duration": 0.1630434374999652
        },
        {
          "name": "C#4",
          "midi": 61,
          "time": 140.864095218751,
          "velocity": 0.8503937007874016,
          "duration": 0.25543471874996726
        },
        {
          "name": "C2",
          "midi": 36,
          "time": 140.869530000001,
          "velocity": 0.8582677165354331,
          "duration": 0.0054347812499884185
        },
        {
          "name": "F#2",
          "midi": 42,
          "time": 140.87496478125098,
          "velocity": 0.7716535433070866,
          "duration": 0.0054347812499884185
        },
        {
          "name": "B3",
          "midi": 59,
          "time": 141.09779081250096,
          "velocity": 0.7716535433070866,
          "duration": 0.05434781249996945
        },
        {
          "name": "F#2",
          "midi": 42,
          "time": 141.12496471875096,
          "velocity": 0.3858267716535433,
          "duration": 0.0054347812499884185
        },
        {
          "name": "B3",
          "midi": 59,
          "time": 141.12496471875096,
          "velocity": 0.8267716535433071,
          "duration": 0.4728259687499303
        },
        {
          "name": "C2",
          "midi": 36,
          "time": 141.13039950000095,
          "velocity": 0.8582677165354331,
          "duration": 0.0054347812499884185
        },
        {
          "name": "A1",
          "midi": 33,
          "time": 141.13583428125094,
          "velocity": 0.8346456692913385,
          "duration": 0.14673909374997152
        },
        {
          "name": "E3",
          "midi": 52,
          "time": 141.35866031250092,
          "velocity": 0.7165354330708661,
          "duration": 0.05434781249996945
        },
        {
          "name": "D4",
          "midi": 62,
          "time": 141.36952987500092,
          "velocity": 0.6771653543307087,
          "duration": 0.2608694999999841
        },
        {
          "name": "E5",
          "midi": 76,
          "time": 141.38039943750093,
          "velocity": 0.9212598425196851,
          "duration": 0.23913037499997358
        },
        {
          "name": "E3",
          "midi": 52,
          "time": 141.38583421875092,
          "velocity": 0.7716535433070866,
          "duration": 0.24456515624999042
        },
        {
          "name": "E2",
          "midi": 40,
          "time": 141.3912690000009,
          "velocity": 0.9291338582677166,
          "duration": 0.0054347812499884185
        },
        {
          "name": "A1",
          "midi": 33,
          "time": 141.3912690000009,
          "velocity": 0.8818897637795275,
          "duration": 0.12499996874998942
        },
        {
          "name": "C#5",
          "midi": 73,
          "time": 141.3912690000009,
          "velocity": 0.889763779527559,
          "duration": 0.4891303124999524
        },
        {
          "name": "A4",
          "midi": 69,
          "time": 141.3912690000009,
          "velocity": 0.8503937007874016,
          "duration": 0.5163042187499229
        },
        {
          "name": "A3",
          "midi": 57,
          "time": 141.3967037812509,
          "velocity": 0.7086614173228346,
          "duration": 0.0054347812499884185
        },
        {
          "name": "C#4",
          "midi": 61,
          "time": 141.6195298125009,
          "velocity": 0.7165354330708661,
          "duration": 0.16847821874998203
        },
        {
          "name": "B3",
          "midi": 59,
          "time": 141.6195298125009,
          "velocity": 0.7874015748031497,
          "duration": 0.05434781249999787
        },
        {
          "name": "D5",
          "midi": 74,
          "time": 141.6412689375009,
          "velocity": 0.905511811023622,
          "duration": 0.5380433437498766
        },
        {
          "name": "C#2",
          "midi": 37,
          "time": 141.6467037187509,
          "velocity": 0.9448818897637795,
          "duration": 0.19021734374996413
        },
        {
          "name": "B3",
          "midi": 59,
          "time": 141.6467037187509,
          "velocity": 0.84251968503937,
          "duration": 0.24456515624993358
        },
        {
          "name": "D3",
          "midi": 50,
          "time": 141.88583409375084,
          "velocity": 0.9212598425196851,
          "duration": 0.05434781249994103
        },
        {
          "name": "C2",
          "midi": 36,
          "time": 141.91300800000081,
          "velocity": 0.8818897637795275,
          "duration": 0.0054347812499884185
        },
        {
          "name": "D2",
          "midi": 38,
          "time": 141.91300800000081,
          "velocity": 0.9291338582677166,
          "duration": 0.15217387499995993
        },
        {
          "name": "D3",
          "midi": 50,
          "time": 141.91300800000081,
          "velocity": 0.9763779527559056,
          "duration": 1.5163039687498667
        },
        {
          "name": "F#4",
          "midi": 66,
          "time": 141.91300800000081,
          "velocity": 0.5511811023622047,
          "duration": 2.86412971874978
        },
        {
          "name": "D4",
          "midi": 62,
          "time": 141.91300800000081,
          "velocity": 0.5511811023622047,
          "duration": 1.0652171249998617
        },
        {
          "name": "E4",
          "midi": 64,
          "time": 141.91300800000081,
          "velocity": 0.5511811023622047,
          "duration": 0.5434781249999219
        },
        {
          "name": "A4",
          "midi": 69,
          "time": 141.91300800000081,
          "velocity": 0.5511811023622047,
          "duration": 0.6739128749998997
        },
        {
          "name": "F#2",
          "midi": 42,
          "time": 141.9184427812508,
          "velocity": 0.8582677165354331,
          "duration": 0.0054347812499884185
        },
        {
          "name": "A3",
          "midi": 57,
          "time": 142.14126881250078,
          "velocity": 0.6141732283464567,
          "duration": 0.05434781249999787
        },
        {
          "name": "D2",
          "midi": 38,
          "time": 142.16844271875078,
          "velocity": 0.7952755905511811,
          "duration": 0.17391299999999887
        },
        {
          "name": "A3",
          "midi": 57,
          "time": 142.16844271875078,
          "velocity": 0.6692913385826772,
          "duration": 0.3858694687499451
        },
        {
          "name": "F#2",
          "midi": 42,
          "time": 142.1793122812508,
          "velocity": 0.30708661417322836,
          "duration": 0.0054347812499884185
        },
        {
          "name": "F#5",
          "midi": 78,
          "time": 142.20105140625077,
          "velocity": 0.8976377952755905,
          "duration": 1.5543474374998993
        },
        {
          "name": "A4",
          "midi": 69,
          "time": 142.23909487500077,
          "velocity": 0.8031496062992126,
          "duration": 0.6358694062499239
        },
        {
          "name": "E4",
          "midi": 64,
          "time": 142.40213831250077,
          "velocity": 0.8503937007874016,
          "duration": 0.5434781249999503
        },
        {
          "name": "D2",
          "midi": 38,
          "time": 142.42931221875077,
          "velocity": 0.8818897637795275,
          "duration": 0.1684782187499536
        },
        {
          "name": "E4",
          "midi": 64,
          "time": 142.42931221875077,
          "velocity": 0.905511811023622,
          "duration": 3.6521729999996353
        },
        {
          "name": "E2",
          "midi": 40,
          "time": 142.43474700000075,
          "velocity": 0.9291338582677166,
          "duration": 0.0054347812499884185
        },
        {
          "name": "F#2",
          "midi": 42,
          "time": 142.44018178125074,
          "velocity": 0.7480314960629921,
          "duration": 0.0054347812499884185
        },
        {
          "name": "A4",
          "midi": 69,
          "time": 142.62496434375072,
          "velocity": 0.6535433070866141,
          "duration": 0.6467389687499576
        },
        {
          "name": "A3",
          "midi": 57,
          "time": 142.66300781250072,
          "velocity": 0.7086614173228346,
          "duration": 0.05434781249996945
        },
        {
          "name": "A3",
          "midi": 57,
          "time": 142.69018171875072,
          "velocity": 0.7637795275590551,
          "duration": 0.5163042187499798
        },
        {
          "name": "C2",
          "midi": 36,
          "time": 142.6956165000007,
          "velocity": 0.6377952755905512,
          "duration": 0.0054347812499884185
        },
        {
          "name": "F#2",
          "midi": 42,
          "time": 142.7010512812507,
          "velocity": 0.4094488188976378,
          "duration": 0.0054347812499884185
        },
        {
          "name": "D2",
          "midi": 38,
          "time": 142.7010512812507,
          "velocity": 0.8503937007874016,
          "duration": 0.15217387499998836
        },
        {
          "name": "D4",
          "midi": 62,
          "time": 142.9238773125007,
          "velocity": 0.7952755905511811,
          "duration": 0.2826086249999946
        },
        {
          "name": "F#2",
          "midi": 42,
          "time": 142.9510512187507,
          "velocity": 0.7480314960629921,
          "duration": 0.0054347812499884185
        },
        {
          "name": "D2",
          "midi": 38,
          "time": 142.9510512187507,
          "velocity": 0.9133858267716536,
          "duration": 0.15760865624997678
        },
        {
          "name": "D4",
          "midi": 62,
          "time": 142.9510512187507,
          "velocity": 0.8503937007874016,
          "duration": 1.5923909062498751
        },
        {
          "name": "C2",
          "midi": 36,
          "time": 142.9564860000007,
          "velocity": 0.8582677165354331,
          "duration": 0.0054347812499884185
        },
        {
          "name": "A4",
          "midi": 69,
          "time": 142.96735556250067,
          "velocity": 0.7637795275590551,
          "duration": 0.6956520000000239
        },
        {
          "name": "A3",
          "midi": 57,
          "time": 143.1847468125007,
          "velocity": 0.7716535433070866,
          "duration": 0.05434781249999787
        },
        {
          "name": "F#2",
          "midi": 42,
          "time": 143.2119207187507,
          "velocity": 0.49606299212598426,
          "duration": 0.0054347812499884185
        },
        {
          "name": "D2",
          "midi": 38,
          "time": 143.2119207187507,
          "velocity": 0.8188976377952756,
          "duration": 0.16304343749999362
        },
        {
          "name": "A3",
          "midi": 57,
          "time": 143.2119207187507,
          "velocity": 0.8267716535433071,
          "duration": 0.48913031250000927
        },
        {
          "name": "A4",
          "midi": 69,
          "time": 143.34779025000068,
          "velocity": 0.7716535433070866,
          "duration": 0.7499998124999365
        },
        {
          "name": "D3",
          "midi": 50,
          "time": 143.4510510937507,
          "velocity": 0.7165354330708661,
          "duration": 0.05434781249999787
        },
        {
          "name": "F#2",
          "midi": 42,
          "time": 143.4727902187507,
          "velocity": 0.7716535433070866,
          "duration": 0.0054347812499884185
        },
        {
          "name": "D2",
          "midi": 38,
          "time": 143.4727902187507,
          "velocity": 0.9291338582677166,
          "duration": 0.13586953124999468
        },
        {
          "name": "D3",
          "midi": 50,
          "time": 143.4727902187507,
          "velocity": 0.7716535433070866,
          "duration": 0.2554347187499957
        },
        {
          "name": "E2",
          "midi": 40,
          "time": 143.4782250000007,
          "velocity": 0.9291338582677166,
          "duration": 0.0054347812499884185
        },
        {
          "name": "D3",
          "midi": 50,
          "time": 143.7064858125007,
          "velocity": 0.7874015748031497,
          "duration": 0.05434781249996945
        },
        {
          "name": "A4",
          "midi": 69,
          "time": 143.7282249375007,
          "velocity": 0.7401574803149606,
          "duration": 0.7499998124999081
        },
        {
          "name": "F#2",
          "midi": 42,
          "time": 143.7336597187507,
          "velocity": 0.4251968503937008,
          "duration": 0.0054347812499884185
        },
        {
          "name": "D2",
          "midi": 38,
          "time": 143.7336597187507,
          "velocity": 0.7795275590551181,
          "duration": 0.15217387499995993
        },
        {
          "name": "D3",
          "midi": 50,
          "time": 143.7336597187507,
          "velocity": 0.84251968503937,
          "duration": 0.244565156249962
        },
        {
          "name": "D3",
          "midi": 50,
          "time": 143.97279009375066,
          "velocity": 0.9212598425196851,
          "duration": 0.05434781249996945
        },
        {
          "name": "F#2",
          "midi": 42,
          "time": 143.99452921875064,
          "velocity": 0.8661417322834646,
          "duration": 0.0054347812499884185
        },
        {
          "name": "C2",
          "midi": 36,
          "time": 143.99452921875064,
          "velocity": 0.9133858267716536,
          "duration": 0.010869562499976837
        },
        {
          "name": "C2",
          "midi": 36,
          "time": 143.99996400000063,
          "velocity": 0.8818897637795275,
          "duration": 0.15217387499998836
        },
        {
          "name": "D3",
          "midi": 50,
          "time": 143.99996400000063,
          "velocity": 0.6062992125984252,
          "duration": 0.7771737187499639
        },
        {
          "name": "A4",
          "midi": 69,
          "time": 144.1684422187506,
          "velocity": 0.7716535433070866,
          "duration": 0.7336954687499713
        },
        {
          "name": "A3",
          "midi": 57,
          "time": 144.2282248125006,
          "velocity": 0.6141732283464567,
          "duration": 0.05434781249999787
        },
        {
          "name": "F#2",
          "midi": 42,
          "time": 144.2553987187506,
          "velocity": 0.4566929133858268,
          "duration": 0.0054347812499884185
        },
        {
          "name": "C2",
          "midi": 36,
          "time": 144.2553987187506,
          "velocity": 0.8976377952755905,
          "duration": 0.16847821875001046
        },
        {
          "name": "A3",
          "midi": 57,
          "time": 144.2553987187506,
          "velocity": 0.6692913385826772,
          "duration": 0.38586946875000194
        },
        {
          "name": "F#4",
          "midi": 66,
          "time": 144.2608335000006,
          "velocity": 0.49606299212598426,
          "duration": 1.820651718749815
        },
        {
          "name": "D4",
          "midi": 62,
          "time": 144.4890943125006,
          "velocity": 0.8503937007874016,
          "duration": 0.27173906249998936
        },
        {
          "name": "F#2",
          "midi": 42,
          "time": 144.5162682187506,
          "velocity": 0.7480314960629921,
          "duration": 0.0054347812499884185
        },
        {
          "name": "C2",
          "midi": 36,
          "time": 144.5162682187506,
          "velocity": 0.8503937007874016,
          "duration": 0.1847825624999757
        },
        {
          "name": "D4",
          "midi": 62,
          "time": 144.5162682187506,
          "velocity": 0.905511811023622,
          "duration": 1.565216999999791
        },
        {
          "name": "E2",
          "midi": 40,
          "time": 144.5217030000006,
          "velocity": 0.9291338582677166,
          "duration": 0.0054347812499884185
        },
        {
          "name": "F#5",
          "midi": 78,
          "time": 144.53257256250058,
          "velocity": 0.9212598425196851,
          "duration": 0.24999993750000726
        },
        {
          "name": "A4",
          "midi": 69,
          "time": 144.5543116875006,
          "velocity": 0.8031496062992126,
          "duration": 0.7336954687499144
        },
        {
          "name": "A3",
          "midi": 57,
          "time": 144.7499638125006,
          "velocity": 0.7086614173228346,
          "duration": 0.05434781249996945
        },
        {
          "name": "C2",
          "midi": 36,
          "time": 144.7771377187506,
          "velocity": 0.9291338582677166,
          "duration": 0.010869562499976837
        },
        {
          "name": "F#2",
          "midi": 42,
          "time": 144.78257250000058,
          "velocity": 0.4015748031496063,
          "duration": 0.0054347812499884185
        },
        {
          "name": "C2",
          "midi": 36,
          "time": 144.78257250000058,
          "velocity": 0.6220472440944882,
          "duration": 0.15217387499998836
        },
        {
          "name": "D3",
          "midi": 50,
          "time": 144.78257250000058,
          "velocity": 0.7637795275590551,
          "duration": 0.733695468749886
        },
        {
          "name": "F#5",
          "midi": 78,
          "time": 144.81518118750057,
          "velocity": 0.8031496062992126,
          "duration": 0.25543471874993884
        },
        {
          "name": "A4",
          "midi": 69,
          "time": 144.96735506250056,
          "velocity": 0.7165354330708661,
          "duration": 0.733695468749886
        },
        {
          "name": "C4",
          "midi": 60,
          "time": 145.01083331250055,
          "velocity": 0.7952755905511811,
          "duration": 0.05434781249996945
        },
        {
          "name": "F#2",
          "midi": 42,
          "time": 145.03800721875055,
          "velocity": 0.7559055118110236,
          "duration": 0.0054347812499884185
        },
        {
          "name": "C2",
          "midi": 36,
          "time": 145.03800721875055,
          "velocity": 0.8661417322834646,
          "duration": 0.010869562499976837
        },
        {
          "name": "C4",
          "midi": 60,
          "time": 145.03800721875055,
          "velocity": 0.8503937007874016,
          "duration": 0.25543471874993884
        },
        {
          "name": "E5",
          "midi": 76,
          "time": 145.04344200000054,
          "velocity": 0.8740157480314961,
          "duration": 0.657608531249906
        },
        {
          "name": "C2",
          "midi": 36,
          "time": 145.04344200000054,
          "velocity": 0.8740157480314961,
          "duration": 0.15760865624997678
        },
        {
          "name": "A3",
          "midi": 57,
          "time": 145.2717028125005,
          "velocity": 0.7716535433070866,
          "duration": 0.05434781249994103
        },
        {
          "name": "C2",
          "midi": 36,
          "time": 145.29887671875048,
          "velocity": 0.8976377952755905,
          "duration": 0.16847821874998203
        },
        {
          "name": "A3",
          "midi": 57,
          "time": 145.29887671875048,
          "velocity": 0.8267716535433071,
          "duration": 0.47282596874995875
        },
        {
          "name": "F#2",
          "midi": 42,
          "time": 145.30431150000047,
          "velocity": 0.4409448818897638,
          "duration": 0.0054347812499884185
        },
        {
          "name": "A4",
          "midi": 69,
          "time": 145.34778975000046,
          "velocity": 0.7165354330708661,
          "duration": 0.7119563437499608
        },
        {
          "name": "D3",
          "midi": 50,
          "time": 145.53257231250046,
          "velocity": 0.7165354330708661,
          "duration": 0.05434781249996945
        },
        {
          "name": "D3",
          "midi": 50,
          "time": 145.55974621875046,
          "velocity": 0.7716535433070866,
          "duration": 0.5163042187499514
        },
        {
          "name": "E2",
          "midi": 40,
          "time": 145.56518100000045,
          "velocity": 0.9291338582677166,
          "duration": 0.0054347812499884185
        },
        {
          "name": "F#2",
          "midi": 42,
          "time": 145.56518100000045,
          "velocity": 0.7086614173228346,
          "duration": 0.0054347812499884185
        },
        {
          "name": "C2",
          "midi": 36,
          "time": 145.57061578125044,
          "velocity": 0.8346456692913385,
          "duration": 0.1576086562500052
        },
        {
          "name": "A4",
          "midi": 69,
          "time": 145.76083312500043,
          "velocity": 0.6929133858267716,
          "duration": 0.3206520937499704
        },
        {
          "name": "A4",
          "midi": 69,
          "time": 145.77170268750044,
          "velocity": 0.8346456692913385,
          "duration": 0.6195650624999303
        },
        {
          "name": "A3",
          "midi": 57,
          "time": 145.79344181250045,
          "velocity": 0.7874015748031497,
          "duration": 0.05434781249996945
        },
        {
          "name": "C#2",
          "midi": 37,
          "time": 145.82061571875045,
          "velocity": 0.9212598425196851,
          "duration": 0.19565212499998097
        },
        {
          "name": "A3",
          "midi": 57,
          "time": 145.82061571875045,
          "velocity": 0.7480314960629921,
          "duration": 0.244565156249962
        },
        {
          "name": "F#2",
          "midi": 42,
          "time": 145.82605050000043,
          "velocity": 0.4094488188976378,
          "duration": 0.0054347812499884185
        },
        {
          "name": "F#4",
          "midi": 66,
          "time": 145.82605050000043,
          "velocity": 0.5039370078740157,
          "duration": 0.5163042187499514
        },
        {
          "name": "A2",
          "midi": 45,
          "time": 146.05974609375042,
          "velocity": 0.9212598425196851,
          "duration": 0.05434781249996945
        },
        {
          "name": "A1",
          "midi": 33,
          "time": 146.0814852187504,
          "velocity": 0.8661417322834646,
          "duration": 0.19021734374999255
        },
        {
          "name": "F#2",
          "midi": 42,
          "time": 146.0869200000004,
          "velocity": 0.8976377952755905,
          "duration": 0.0054347812499884185
        },
        {
          "name": "C2",
          "midi": 36,
          "time": 146.0869200000004,
          "velocity": 0.8818897637795275,
          "duration": 0.0054347812499884185
        },
        {
          "name": "A2",
          "midi": 45,
          "time": 146.0869200000004,
          "velocity": 0.9763779527559056,
          "duration": 1.9673908124997581
        },
        {
          "name": "E4",
          "midi": 64,
          "time": 146.0869200000004,
          "velocity": 0.5748031496062992,
          "duration": 4.16847721874953
        },
        {
          "name": "A4",
          "midi": 69,
          "time": 146.0869200000004,
          "velocity": 0.5748031496062992,
          "duration": 0.3478259999999693
        },
        {
          "name": "A4",
          "midi": 69,
          "time": 146.1249634687504,
          "velocity": 0.7086614173228346,
          "duration": 0.6630433124998945
        },
        {
          "name": "E3",
          "midi": 52,
          "time": 146.3151808125004,
          "velocity": 0.6141732283464567,
          "duration": 0.05434781249996945
        },
        {
          "name": "E3",
          "midi": 52,
          "time": 146.34235471875039,
          "velocity": 0.6692913385826772,
          "duration": 0.3858694687499167
        },
        {
          "name": "A1",
          "midi": 33,
          "time": 146.34778950000037,
          "velocity": 0.8976377952755905,
          "duration": 0.1630434374999652
        },
        {
          "name": "F#2",
          "midi": 42,
          "time": 146.35322428125036,
          "velocity": 0.4566929133858268,
          "duration": 0.0054347812499884185
        },
        {
          "name": "C#5",
          "midi": 73,
          "time": 146.39126775000037,
          "velocity": 0.905511811023622,
          "duration": 1.315217062499812
        },
        {
          "name": "A4",
          "midi": 69,
          "time": 146.49452859375035,
          "velocity": 0.7086614173228346,
          "duration": 0.7282606874998692
        },
        {
          "name": "B3",
          "midi": 59,
          "time": 146.57605031250034,
          "velocity": 0.8503937007874016,
          "duration": 0.05434781249996945
        },
        {
          "name": "B3",
          "midi": 59,
          "time": 146.60322421875034,
          "velocity": 0.905511811023622,
          "duration": 0.25543471874996726
        },
        {
          "name": "E2",
          "midi": 40,
          "time": 146.60865900000033,
          "velocity": 0.9291338582677166,
          "duration": 0.0054347812499884185
        },
        {
          "name": "A1",
          "midi": 33,
          "time": 146.60865900000033,
          "velocity": 0.8661417322834646,
          "duration": 0.1630434374999652
        },
        {
          "name": "F#2",
          "midi": 42,
          "time": 146.61409378125032,
          "velocity": 0.7244094488188977,
          "duration": 0.0054347812499884185
        },
        {
          "name": "E3",
          "midi": 52,
          "time": 146.8369198125003,
          "velocity": 0.7086614173228346,
          "duration": 0.05434781249996945
        },
        {
          "name": "E3",
          "midi": 52,
          "time": 146.8640937187503,
          "velocity": 0.7637795275590551,
          "duration": 0.6467389687498724
        },
        {
          "name": "C2",
          "midi": 36,
          "time": 146.86952850000029,
          "velocity": 0.5905511811023622,
          "duration": 0.0054347812499884185
        },
        {
          "name": "F#2",
          "midi": 42,
          "time": 146.87496328125027,
          "velocity": 0.4330708661417323,
          "duration": 0.0054347812499884185
        },
        {
          "name": "A1",
          "midi": 33,
          "time": 146.87496328125027,
          "velocity": 0.9133858267716536,
          "duration": 0.15217387499998836
        },
        {
          "name": "A4",
          "midi": 69,
          "time": 146.87496328125027,
          "velocity": 0.7086614173228346,
          "duration": 0.7228259062499092
        },
        {
          "name": "C#4",
          "midi": 61,
          "time": 147.09778931250025,
          "velocity": 0.7952755905511811,
          "duration": 0.05434781249996945
        },
        {
          "name": "A1",
          "midi": 33,
          "time": 147.12496321875025,
          "velocity": 0.8503937007874016,
          "duration": 0.15760865624994835
        },
        {
          "name": "C#4",
          "midi": 61,
          "time": 147.12496321875025,
          "velocity": 0.8503937007874016,
          "duration": 0.25543471874996726
        },
        {
          "name": "C2",
          "midi": 36,
          "time": 147.13039800000024,
          "velocity": 0.8818897637795275,
          "duration": 0.0054347812499884185
        },
        {
          "name": "F#2",
          "midi": 42,
          "time": 147.13583278125023,
          "velocity": 0.7086614173228346,
          "duration": 0.0054347812499884185
        },
        {
          "name": "A4",
          "midi": 69,
          "time": 147.2934414375002,
          "velocity": 0.6220472440944882,
          "duration": 0.6793476562499734
        },
        {
          "name": "B3",
          "midi": 59,
          "time": 147.3586588125002,
          "velocity": 0.7716535433070866,
          "duration": 0.05434781249996945
        },
        {
          "name": "F#2",
          "midi": 42,
          "time": 147.3858327187502,
          "velocity": 0.4566929133858268,
          "duration": 0.0054347812499884185
        },
        {
          "name": "B3",
          "midi": 59,
          "time": 147.3858327187502,
          "velocity": 0.8267716535433071,
          "duration": 0.48913031249998085
        },
        {
          "name": "A1",
          "midi": 33,
          "time": 147.39670228125019,
          "velocity": 0.952755905511811,
          "duration": 0.15217387499998836
        },
        {
          "name": "E3",
          "midi": 52,
          "time": 147.6195283125002,
          "velocity": 0.7165354330708661,
          "duration": 0.05434781249996945
        },
        {
          "name": "F#2",
          "midi": 42,
          "time": 147.6467022187502,
          "velocity": 0.6299212598425197,
          "duration": 0.0054347812499884185
        },
        {
          "name": "E3",
          "midi": 52,
          "time": 147.6467022187502,
          "velocity": 0.7716535433070866,
          "duration": 0.3858694687499735
        },
        {
          "name": "E2",
          "midi": 40,
          "time": 147.65213700000018,
          "velocity": 0.9291338582677166,
          "duration": 0.0054347812499884185
        },
        {
          "name": "A1",
          "midi": 33,
          "time": 147.65757178125017,
          "velocity": 0.9133858267716536,
          "duration": 0.14130431250001152
        },
        {
          "name": "A4",
          "midi": 69,
          "time": 147.68474568750017,
          "velocity": 0.6614173228346457,
          "duration": 0.6630433124999513
        },
        {
          "name": "B3",
          "midi": 59,
          "time": 147.88039781250018,
          "velocity": 0.7874015748031497,
          "duration": 0.05434781249999787
        },
        {
          "name": "F#2",
          "midi": 42,
          "time": 147.90757171875018,
          "velocity": 0.4094488188976378,
          "duration": 0.0054347812499884185
        },
        {
          "name": "B3",
          "midi": 59,
          "time": 147.90757171875018,
          "velocity": 0.84251968503937,
          "duration": 0.244565156249962
        },
        {
          "name": "A1",
          "midi": 33,
          "time": 147.91300650000017,
          "velocity": 0.952755905511811,
          "duration": 0.13586953124999468
        },
        {
          "name": "A4",
          "midi": 69,
          "time": 148.04344125000017,
          "velocity": 0.7716535433070866,
          "duration": 0.7065215624998871
        },
        {
          "name": "A2",
          "midi": 45,
          "time": 148.14670209375015,
          "velocity": 0.9212598425196851,
          "duration": 0.05434781249996945
        },
        {
          "name": "F#2",
          "midi": 42,
          "time": 148.16844121875013,
          "velocity": 0.8976377952755905,
          "duration": 0.0054347812499884185
        },
        {
          "name": "A1",
          "midi": 33,
          "time": 148.16844121875013,
          "velocity": 0.8346456692913385,
          "duration": 0.16304343749999362
        },
        {
          "name": "C2",
          "midi": 36,
          "time": 148.17387600000012,
          "velocity": 0.8661417322834646,
          "duration": 0.0054347812499884185
        },
        {
          "name": "A2",
          "midi": 45,
          "time": 148.17387600000012,
          "velocity": 0.9763779527559056,
          "duration": 1.967390812499815
        },
        {
          "name": "E3",
          "midi": 52,
          "time": 148.40213681250012,
          "velocity": 0.6141732283464567,
          "duration": 0.05434781249996945
        },
        {
          "name": "F#2",
          "midi": 42,
          "time": 148.42931071875012,
          "velocity": 0.4409448818897638,
          "duration": 0.0054347812499884185
        },
        {
          "name": "A1",
          "midi": 33,
          "time": 148.42931071875012,
          "velocity": 0.9133858267716536,
          "duration": 0.1413043124999831
        },
        {
          "name": "E3",
          "midi": 52,
          "time": 148.42931071875012,
          "velocity": 0.6692913385826772,
          "duration": 0.3858694687499451
        },
        {
          "name": "A4",
          "midi": 69,
          "time": 148.4401802812501,
          "velocity": 0.7480314960629921,
          "duration": 0.679347656249945
        },
        {
          "name": "A5",
          "midi": 81,
          "time": 148.6630063125001,
          "velocity": 0.9212598425196851,
          "duration": 0.29891296874993145
        },
        {
          "name": "B3",
          "midi": 59,
          "time": 148.6630063125001,
          "velocity": 0.8503937007874016,
          "duration": 0.05434781249996945
        },
        {
          "name": "F#2",
          "midi": 42,
          "time": 148.6901802187501,
          "velocity": 0.7007874015748031,
          "duration": 0.0054347812499884185
        },
        {
          "name": "A1",
          "midi": 33,
          "time": 148.6901802187501,
          "velocity": 0.8661417322834646,
          "duration": 0.1684782187499536
        },
        {
          "name": "B3",
          "midi": 59,
          "time": 148.6901802187501,
          "velocity": 0.905511811023622,
          "duration": 0.244565156249962
        },
        {
          "name": "E2",
          "midi": 40,
          "time": 148.6956150000001,
          "velocity": 0.9291338582677166,
          "duration": 0.0054347812499884185
        },
        {
          "name": "A4",
          "midi": 69,
          "time": 148.81518018750006,
          "velocity": 0.7165354330708661,
          "duration": 0.7119563437499608
        },
        {
          "name": "E3",
          "midi": 52,
          "time": 148.92387581250006,
          "velocity": 0.7086614173228346,
          "duration": 0.05434781249996945
        },
        {
          "name": "F#5",
          "midi": 78,
          "time": 148.95104971875006,
          "velocity": 0.8740157480314961,
          "duration": 0.27717384374994936
        },
        {
          "name": "F#2",
          "midi": 42,
          "time": 148.95104971875006,
          "velocity": 0.4251968503937008,
          "duration": 0.0054347812499884185
        },
        {
          "name": "E3",
          "midi": 52,
          "time": 148.95104971875006,
          "velocity": 0.7637795275590551,
          "duration": 0.24456515624999042
        },
        {
          "name": "C2",
          "midi": 36,
          "time": 148.95648450000004,
          "velocity": 0.5669291338582677,
          "duration": 0.0054347812499884185
        },
        {
          "name": "A1",
          "midi": 33,
          "time": 148.95648450000004,
          "velocity": 0.9291338582677166,
          "duration": 0.15217387499998836
        },
        {
          "name": "F#4",
          "midi": 66,
          "time": 148.95648450000004,
          "velocity": 0.5118110236220472,
          "duration": 0.5163042187499798
        },
        {
          "name": "C#4",
          "midi": 61,
          "time": 149.18474531250004,
          "velocity": 0.7952755905511811,
          "duration": 0.05434781249996945
        },
        {
          "name": "A4",
          "midi": 69,
          "time": 149.20648443750005,
          "velocity": 0.6299212598425197,
          "duration": 0.6739128749999281
        },
        {
          "name": "A1",
          "midi": 33,
          "time": 149.21191921875004,
          "velocity": 0.8818897637795275,
          "duration": 0.14673909374997152
        },
        {
          "name": "C#4",
          "midi": 61,
          "time": 149.21191921875004,
          "velocity": 0.8503937007874016,
          "duration": 0.2554347187499957
        },
        {
          "name": "A5",
          "midi": 81,
          "time": 149.21735400000003,
          "velocity": 0.9212598425196851,
          "duration": 0.44565206249998823
        },
        {
          "name": "C2",
          "midi": 36,
          "time": 149.21735400000003,
          "velocity": 0.8740157480314961,
          "duration": 0.0054347812499884185
        },
        {
          "name": "F#2",
          "midi": 42,
          "time": 149.22278878125002,
          "velocity": 0.6929133858267716,
          "duration": 0.0054347812499884185
        },
        {
          "name": "B3",
          "midi": 59,
          "time": 149.44561481250003,
          "velocity": 0.7716535433070866,
          "duration": 0.05434781249999787
        },
        {
          "name": "A1",
          "midi": 33,
          "time": 149.47278871875002,
          "velocity": 0.952755905511811,
          "duration": 0.15217387499998836
        },
        {
          "name": "B3",
          "midi": 59,
          "time": 149.47278871875002,
          "velocity": 0.8267716535433071,
          "duration": 0.4728259687499303
        },
        {
          "name": "F#2",
          "midi": 42,
          "time": 149.48365828125003,
          "velocity": 0.44881889763779526,
          "duration": 0.0054347812499884185
        },
        {
          "name": "A4",
          "midi": 69,
          "time": 149.59235390625003,
          "velocity": 0.7401574803149606,
          "duration": 0.6630433124998945
        },
        {
          "name": "E3",
          "midi": 52,
          "time": 149.7064843125,
          "velocity": 0.7165354330708661,
          "duration": 0.05434781249996945
        },
        {
          "name": "A1",
          "midi": 33,
          "time": 149.73365821875,
          "velocity": 0.8661417322834646,
          "duration": 0.17934778124995887
        },
        {
          "name": "E3",
          "midi": 52,
          "time": 149.73365821875,
          "velocity": 0.7716535433070866,
          "duration": 0.244565156249962
        },
        {
          "name": "A5",
          "midi": 81,
          "time": 149.739093,
          "velocity": 0.9212598425196851,
          "duration": 0.25543471874996726
        },
        {
          "name": "E2",
          "midi": 40,
          "time": 149.739093,
          "velocity": 0.9291338582677166,
          "duration": 0.0054347812499884185
        },
        {
          "name": "F#2",
          "midi": 42,
          "time": 149.74452778124999,
          "velocity": 0.7244094488188977,
          "duration": 0.0054347812499884185
        },
        {
          "name": "B3",
          "midi": 59,
          "time": 149.96735381249997,
          "velocity": 0.7874015748031497,
          "duration": 0.05434781249996945
        },
        {
          "name": "A4",
          "midi": 69,
          "time": 149.99452771874996,
          "velocity": 0.8818897637795275,
          "duration": 0.369565124999923
        },
        {
          "name": "B3",
          "midi": 59,
          "time": 149.99452771874996,
          "velocity": 0.84251968503937,
          "duration": 0.244565156249962
        },
        {
          "name": "F#5",
          "midi": 78,
          "time": 149.99996249999995,
          "velocity": 0.8818897637795275,
          "duration": 0.47826074999991874
        },
        {
          "name": "F#2",
          "midi": 42,
          "time": 150.00539728124994,
          "velocity": 0.3700787401574803,
          "duration": 0.0054347812499884185
        },
        {
          "name": "A#1",
          "midi": 34,
          "time": 150.00539728124994,
          "velocity": 0.8740157480314961,
          "duration": 0.17391299999999887
        },
        {
          "name": "B2",
          "midi": 47,
          "time": 150.23365809374994,
          "velocity": 0.9212598425196851,
          "duration": 0.05434781249994103
        },
        {
          "name": "C2",
          "midi": 36,
          "time": 150.2608319999999,
          "velocity": 0.8503937007874016,
          "duration": 0.0054347812499884185
        },
        {
          "name": "B1",
          "midi": 35,
          "time": 150.2608319999999,
          "velocity": 0.952755905511811,
          "duration": 0.1847825624999757
        },
        {
          "name": "B2",
          "midi": 47,
          "time": 150.2608319999999,
          "velocity": 0.9763779527559056,
          "duration": 2.0815212187498275
        },
        {
          "name": "D#4",
          "midi": 63,
          "time": 150.2608319999999,
          "velocity": 0.5826771653543307,
          "duration": 1.06521712499989
        },
        {
          "name": "A4",
          "midi": 69,
          "time": 150.2608319999999,
          "velocity": 0.5826771653543307,
          "duration": 0.5163042187499798
        },
        {
          "name": "F#2",
          "midi": 42,
          "time": 150.2662667812499,
          "velocity": 0.84251968503937,
          "duration": 0.0054347812499884185
        },
        {
          "name": "A4",
          "midi": 69,
          "time": 150.4401797812499,
          "velocity": 0.7716535433070866,
          "duration": 0.7228259062499376
        },
        {
          "name": "A5",
          "midi": 81,
          "time": 150.48909281249988,
          "velocity": 0.8976377952755905,
          "duration": 0.17391299999999887
        },
        {
          "name": "F#3",
          "midi": 54,
          "time": 150.48909281249988,
          "velocity": 0.6141732283464567,
          "duration": 0.05434781249999787
        },
        {
          "name": "B1",
          "midi": 35,
          "time": 150.51626671874988,
          "velocity": 0.7795275590551181,
          "duration": 0.1576086562500052
        },
        {
          "name": "F#3",
          "midi": 54,
          "time": 150.51626671874988,
          "velocity": 0.6692913385826772,
          "duration": 0.38586946875000194
        },
        {
          "name": "F#2",
          "midi": 42,
          "time": 150.52713628124988,
          "velocity": 0.4330708661417323,
          "duration": 0.0054347812499884185
        },
        {
          "name": "E5",
          "midi": 76,
          "time": 150.65213624999987,
          "velocity": 0.7401574803149606,
          "duration": 0.21195646875000307
        },
        {
          "name": "C#4",
          "midi": 61,
          "time": 150.7499623124999,
          "velocity": 0.8503937007874016,
          "duration": 0.05434781249996945
        },
        {
          "name": "F#2",
          "midi": 42,
          "time": 150.7771362187499,
          "velocity": 0.7559055118110236,
          "duration": 0.0054347812499884185
        },
        {
          "name": "B1",
          "midi": 35,
          "time": 150.7771362187499,
          "velocity": 0.9133858267716536,
          "duration": 0.16304343749999362
        },
        {
          "name": "C#4",
          "midi": 61,
          "time": 150.7771362187499,
          "velocity": 0.905511811023622,
          "duration": 0.5163042187499514
        },
        {
          "name": "E2",
          "midi": 40,
          "time": 150.78257099999988,
          "velocity": 0.9291338582677166,
          "duration": 0.0054347812499884185
        },
        {
          "name": "A4",
          "midi": 69,
          "time": 150.85322315624987,
          "velocity": 0.6929133858267716,
          "duration": 0.7336954687499144
        },
        {
          "name": "F#5",
          "midi": 78,
          "time": 150.86409271874987,
          "velocity": 0.8582677165354331,
          "duration": 1.1249997187499048
        },
        {
          "name": "F#3",
          "midi": 54,
          "time": 151.01083181249987,
          "velocity": 0.7086614173228346,
          "duration": 0.05434781249996945
        },
        {
          "name": "F#3",
          "midi": 54,
          "time": 151.03800571874987,
          "velocity": 0.7637795275590551,
          "duration": 0.6467389687499008
        },
        {
          "name": "C2",
          "midi": 36,
          "time": 151.04344049999986,
          "velocity": 0.6377952755905512,
          "duration": 0.0054347812499884185
        },
        {
          "name": "F#2",
          "midi": 42,
          "time": 151.04887528124985,
          "velocity": 0.44881889763779526,
          "duration": 0.0054347812499884185
        },
        {
          "name": "B1",
          "midi": 35,
          "time": 151.04887528124985,
          "velocity": 0.8661417322834646,
          "duration": 0.13043474999997784
        },
        {
          "name": "A4",
          "midi": 69,
          "time": 151.22822306249984,
          "velocity": 0.6929133858267716,
          "duration": 0.7499998124999365
        },
        {
          "name": "D#4",
          "midi": 63,
          "time": 151.27170131249983,
          "velocity": 0.7952755905511811,
          "duration": 0.2826086249999662
        },
        {
          "name": "B1",
          "midi": 35,
          "time": 151.29887521874983,
          "velocity": 0.9291338582677166,
          "duration": 0.1630434374999652
        },
        {
          "name": "D#4",
          "midi": 63,
          "time": 151.29887521874983,
          "velocity": 0.8503937007874016,
          "duration": 2.114129906249815
        },
        {
          "name": "C2",
          "midi": 36,
          "time": 151.30430999999982,
          "velocity": 0.8740157480314961,
          "duration": 0.0054347812499884185
        },
        {
          "name": "F#2",
          "midi": 42,
          "time": 151.3097447812498,
          "velocity": 0.7559055118110236,
          "duration": 0.0054347812499884185
        },
        {
          "name": "C#4",
          "midi": 61,
          "time": 151.53257081249978,
          "velocity": 0.7716535433070866,
          "duration": 0.05434781249999787
        },
        {
          "name": "B1",
          "midi": 35,
          "time": 151.55974471874978,
          "velocity": 0.8818897637795275,
          "duration": 0.14673909374999994
        },
        {
          "name": "C#4",
          "midi": 61,
          "time": 151.55974471874978,
          "velocity": 0.8267716535433071,
          "duration": 0.48913031249998085
        },
        {
          "name": "F#2",
          "midi": 42,
          "time": 151.5706142812498,
          "velocity": 0.44881889763779526,
          "duration": 0.0054347812499884185
        },
        {
          "name": "A4",
          "midi": 69,
          "time": 151.65213599999979,
          "velocity": 0.6850393700787402,
          "duration": 0.7608693749999418
        },
        {
          "name": "F#3",
          "midi": 54,
          "time": 151.7934403124998,
          "velocity": 0.7165354330708661,
          "duration": 0.05434781249996945
        },
        {
          "name": "B1",
          "midi": 35,
          "time": 151.8206142187498,
          "velocity": 0.8976377952755905,
          "duration": 0.14673909374997152
        },
        {
          "name": "F#3",
          "midi": 54,
          "time": 151.8206142187498,
          "velocity": 0.7716535433070866,
          "duration": 0.5163042187499514
        },
        {
          "name": "E2",
          "midi": 40,
          "time": 151.82604899999978,
          "velocity": 0.9291338582677166,
          "duration": 0.0054347812499884185
        },
        {
          "name": "F#2",
          "midi": 42,
          "time": 151.82604899999978,
          "velocity": 0.7086614173228346,
          "duration": 0.0054347812499884185
        },
        {
          "name": "A4",
          "midi": 69,
          "time": 152.04344024999978,
          "velocity": 0.6614173228346457,
          "duration": 0.7608693749999134
        },
        {
          "name": "C#4",
          "midi": 61,
          "time": 152.05430981249975,
          "velocity": 0.7874015748031497,
          "duration": 0.05434781249999787
        },
        {
          "name": "B1",
          "midi": 35,
          "time": 152.08148371874975,
          "velocity": 0.8188976377952756,
          "duration": 0.16304343749999362
        },
        {
          "name": "C#4",
          "midi": 61,
          "time": 152.08148371874975,
          "velocity": 0.84251968503937,
          "duration": 0.24456515624999042
        },
        {
          "name": "F#2",
          "midi": 42,
          "time": 152.09235328124976,
          "velocity": 0.33070866141732286,
          "duration": 0.0054347812499884185
        },
        {
          "name": "B2",
          "midi": 47,
          "time": 152.32061409374975,
          "velocity": 0.9212598425196851,
          "duration": 0.05434781249996945
        },
        {
          "name": "B1",
          "midi": 35,
          "time": 152.34235321874974,
          "velocity": 0.8661417322834646,
          "duration": 0.13043474999997784
        },
        {
          "name": "F#2",
          "midi": 42,
          "time": 152.34778799999972,
          "velocity": 0.84251968503937,
          "duration": 0.0054347812499884185
        },
        {
          "name": "C2",
          "midi": 36,
          "time": 152.34778799999972,
          "velocity": 0.8740157480314961,
          "duration": 0.0054347812499884185
        },
        {
          "name": "B2",
          "midi": 47,
          "time": 152.34778799999972,
          "velocity": 0.9763779527559056,
          "duration": 2.0815212187498275
        },
        {
          "name": "A4",
          "midi": 69,
          "time": 152.48365753124972,
          "velocity": 0.7716535433070866,
          "duration": 0.7119563437499323
        },
        {
          "name": "F#3",
          "midi": 54,
          "time": 152.57604881249972,
          "velocity": 0.6141732283464567,
          "duration": 0.05434781249996945
        },
        {
          "name": "B1",
          "midi": 35,
          "time": 152.60322271874972,
          "velocity": 0.8188976377952756,
          "duration": 0.16847821874998203
        },
        {
          "name": "F#3",
          "midi": 54,
          "time": 152.60322271874972,
          "velocity": 0.6692913385826772,
          "duration": 0.3858694687499167
        },
        {
          "name": "F#4",
          "midi": 66,
          "time": 152.6086574999997,
          "velocity": 0.5118110236220472,
          "duration": 0.5163042187499514
        },
        {
          "name": "F#2",
          "midi": 42,
          "time": 152.6140922812497,
          "velocity": 0.5196850393700787,
          "duration": 0.0054347812499884185
        },
        {
          "name": "B4",
          "midi": 71,
          "time": 152.6575705312497,
          "velocity": 0.7874015748031497,
          "duration": 0.1793477812499873
        },
        {
          "name": "C#4",
          "midi": 61,
          "time": 152.83691831249968,
          "velocity": 0.8503937007874016,
          "duration": 0.05434781249996945
        },
        {
          "name": "B5",
          "midi": 83,
          "time": 152.86409221874968,
          "velocity": 0.9212598425196851,
          "duration": 0.22826081249996832
        },
        {
          "name": "B1",
          "midi": 35,
          "time": 152.86409221874968,
          "velocity": 0.9291338582677166,
          "duration": 0.14673909374997152
        },
        {
          "name": "A4",
          "midi": 69,
          "time": 152.86409221874968,
          "velocity": 0.7086614173228346,
          "duration": 0.7445650312499765
        },
        {
          "name": "C#4",
          "midi": 61,
          "time": 152.86409221874968,
          "velocity": 0.905511811023622,
          "duration": 0.5163042187500082
        },
        {
          "name": "E2",
          "midi": 40,
          "time": 152.86952699999966,
          "velocity": 0.9291338582677166,
          "duration": 0.0054347812499884185
        },
        {
          "name": "F#2",
          "midi": 42,
          "time": 152.87496178124965,
          "velocity": 0.7480314960629921,
          "duration": 0.0054347812499884185
        },
        {
          "name": "F#3",
          "midi": 54,
          "time": 153.10322259374965,
          "velocity": 0.7086614173228346,
          "duration": 0.05434781249999787
        },
        {
          "name": "B5",
          "midi": 83,
          "time": 153.12496171874966,
          "velocity": 0.7795275590551181,
          "duration": 0.2554347187500241
        },
        {
          "name": "F#2",
          "midi": 42,
          "time": 153.12496171874966,
          "velocity": 0.4251968503937008,
          "duration": 0.0054347812499884185
        },
        {
          "name": "B1",
          "midi": 35,
          "time": 153.12496171874966,
          "velocity": 0.8188976377952756,
          "duration": 0.1576086562500052
        },
        {
          "name": "C2",
          "midi": 36,
          "time": 153.13039649999965,
          "velocity": 0.5984251968503937,
          "duration": 0.0054347812499884185
        },
        {
          "name": "F#3",
          "midi": 54,
          "time": 153.13039649999965,
          "velocity": 0.7637795275590551,
          "duration": 0.7336954687499713
        },
        {
          "name": "A4",
          "midi": 69,
          "time": 153.26083124999965,
          "velocity": 0.7874015748031497,
          "duration": 0.7880432812499407
        },
        {
          "name": "D#4",
          "midi": 63,
          "time": 153.35865731249967,
          "velocity": 0.7952755905511811,
          "duration": 0.2826086249999946
        },
        {
          "name": "B1",
          "midi": 35,
          "time": 153.38583121874967,
          "velocity": 0.952755905511811,
          "duration": 0.15760865624997678
        },
        {
          "name": "D#4",
          "midi": 63,
          "time": 153.38583121874967,
          "velocity": 0.8503937007874016,
          "duration": 1.0434779999998796
        },
        {
          "name": "F#2",
          "midi": 42,
          "time": 153.39126599999966,
          "velocity": 0.7244094488188977,
          "duration": 0.0054347812499884185
        },
        {
          "name": "C2",
          "midi": 36,
          "time": 153.39126599999966,
          "velocity": 0.8661417322834646,
          "duration": 0.0054347812499884185
        },
        {
          "name": "G5",
          "midi": 79,
          "time": 153.40213556249964,
          "velocity": 0.9212598425196851,
          "duration": 0.26630428125000094
        },
        {
          "name": "C#4",
          "midi": 61,
          "time": 153.61952681249966,
          "velocity": 0.7716535433070866,
          "duration": 0.05434781249996945
        },
        {
          "name": "F#5",
          "midi": 78,
          "time": 153.64670071874966,
          "velocity": 0.7795275590551181,
          "duration": 0.5054346562499461
        },
        {
          "name": "F#2",
          "midi": 42,
          "time": 153.64670071874966,
          "velocity": 0.36220472440944884,
          "duration": 0.0054347812499884185
        },
        {
          "name": "B1",
          "midi": 35,
          "time": 153.64670071874966,
          "velocity": 0.7401574803149606,
          "duration": 0.17391299999997045
        },
        {
          "name": "C#4",
          "midi": 61,
          "time": 153.64670071874966,
          "velocity": 0.8267716535433071,
          "duration": 0.4728259687499303
        },
        {
          "name": "A4",
          "midi": 69,
          "time": 153.66300506249965,
          "velocity": 0.7480314960629921,
          "duration": 0.7663041562499018
        },
        {
          "name": "F#3",
          "midi": 54,
          "time": 153.8803963124996,
          "velocity": 0.7165354330708661,
          "duration": 0.05434781249996945
        },
        {
          "name": "F#2",
          "midi": 42,
          "time": 153.9075702187496,
          "velocity": 0.7086614173228346,
          "duration": 0.0054347812499884185
        },
        {
          "name": "B1",
          "midi": 35,
          "time": 153.9075702187496,
          "velocity": 0.9133858267716536,
          "duration": 0.15760865624997678
        },
        {
          "name": "F#3",
          "midi": 54,
          "time": 153.9075702187496,
          "velocity": 0.7716535433070866,
          "duration": 0.5163042187499514
        },
        {
          "name": "E2",
          "midi": 40,
          "time": 153.9130049999996,
          "velocity": 0.9291338582677166,
          "duration": 0.0054347812499884185
        },
        {
          "name": "A4",
          "midi": 69,
          "time": 154.1195266874996,
          "velocity": 0.7244094488188977,
          "duration": 0.40217381249991035
        },
        {
          "name": "C#4",
          "midi": 61,
          "time": 154.1412658124996,
          "velocity": 0.6929133858267716,
          "duration": 0.05434781249996945
        },
        {
          "name": "E5",
          "midi": 76,
          "time": 154.1630049374996,
          "velocity": 0.8976377952755905,
          "duration": 0.36413034374987774
        },
        {
          "name": "B1",
          "midi": 35,
          "time": 154.1684397187496,
          "velocity": 0.7952755905511811,
          "duration": 0.19565212499998097
        },
        {
          "name": "C#4",
          "midi": 61,
          "time": 154.1684397187496,
          "velocity": 0.7480314960629921,
          "duration": 0.244565156249962
        },
        {
          "name": "F#2",
          "midi": 42,
          "time": 154.17387449999958,
          "velocity": 0.4015748031496063,
          "duration": 0.0054347812499884185
        },
        {
          "name": "E3",
          "midi": 52,
          "time": 154.40757009374957,
          "velocity": 0.9212598425196851,
          "duration": 0.05434781249994103
        },
        {
          "name": "E2",
          "midi": 40,
          "time": 154.42930921874955,
          "velocity": 0.8188976377952756,
          "duration": 0.17934778124993045
        },
        {
          "name": "C2",
          "midi": 36,
          "time": 154.43474399999954,
          "velocity": 0.8740157480314961,
          "duration": 0.0054347812499884185
        },
        {
          "name": "E3",
          "midi": 52,
          "time": 154.43474399999954,
          "velocity": 0.9763779527559056,
          "duration": 1.5597822187497457
        },
        {
          "name": "A4",
          "midi": 69,
          "time": 154.43474399999954,
          "velocity": 0.5826771653543307,
          "duration": 0.489130312499924
        },
        {
          "name": "D4",
          "midi": 62,
          "time": 154.43474399999954,
          "velocity": 0.5826771653543307,
          "duration": 4.168477218749331
        },
        {
          "name": "F#2",
          "midi": 42,
          "time": 154.44017878124953,
          "velocity": 0.84251968503937,
          "duration": 0.0054347812499884185
        },
        {
          "name": "E5",
          "midi": 76,
          "time": 154.5488744062495,
          "velocity": 0.8503937007874016,
          "duration": 1.608695249999755
        },
        {
          "name": "A4",
          "midi": 69,
          "time": 154.58148309374948,
          "velocity": 0.7165354330708661,
          "duration": 0.733695468749886
        },
        {
          "name": "B3",
          "midi": 59,
          "time": 154.66300481249948,
          "velocity": 0.6141732283464567,
          "duration": 0.05434781249996945
        },
        {
          "name": "E2",
          "midi": 40,
          "time": 154.69017871874948,
          "velocity": 0.8031496062992126,
          "duration": 0.21195646874997465
        },
        {
          "name": "B3",
          "midi": 59,
          "time": 154.69017871874948,
          "velocity": 0.6692913385826772,
          "duration": 0.3858694687499451
        },
        {
          "name": "F#2",
          "midi": 42,
          "time": 154.69561349999947,
          "velocity": 0.4566929133858268,
          "duration": 0.0054347812499884185
        },
        {
          "name": "F#4",
          "midi": 66,
          "time": 154.92387431249946,
          "velocity": 0.8503937007874016,
          "duration": 0.05434781249996945
        },
        {
          "name": "F#4",
          "midi": 66,
          "time": 154.95104821874946,
          "velocity": 0.905511811023622,
          "duration": 0.3858694687499167
        },
        {
          "name": "E2",
          "midi": 40,
          "time": 154.95648299999945,
          "velocity": 0.9291338582677166,
          "duration": 0.0054347812499884185
        },
        {
          "name": "F#2",
          "midi": 42,
          "time": 154.95648299999945,
          "velocity": 0.6771653543307087,
          "duration": 0.0054347812499884185
        },
        {
          "name": "E2",
          "midi": 40,
          "time": 154.95648299999945,
          "velocity": 0.7795275590551181,
          "duration": 0.1630434374999652
        },
        {
          "name": "A4",
          "midi": 69,
          "time": 154.99452646874943,
          "velocity": 0.7637795275590551,
          "duration": 0.7282606874998692
        },
        {
          "name": "B3",
          "midi": 59,
          "time": 155.18474381249942,
          "velocity": 0.7086614173228346,
          "duration": 0.05434781249996945
        },
        {
          "name": "E2",
          "midi": 40,
          "time": 155.21191771874942,
          "velocity": 0.7165354330708661,
          "duration": 0.17391299999994203
        },
        {
          "name": "B3",
          "midi": 59,
          "time": 155.21191771874942,
          "velocity": 0.7637795275590551,
          "duration": 0.5163042187498661
        },
        {
          "name": "F#2",
          "midi": 42,
          "time": 155.2173524999994,
          "velocity": 0.49606299212598426,
          "duration": 0.0054347812499884185
        },
        {
          "name": "C2",
          "midi": 36,
          "time": 155.2173524999994,
          "velocity": 0.5905511811023622,
          "duration": 0.0054347812499884185
        },
        {
          "name": "A4",
          "midi": 69,
          "time": 155.36952637499937,
          "velocity": 0.6692913385826772,
          "duration": 0.7826084999998955
        },
        {
          "name": "E4",
          "midi": 64,
          "time": 155.44561331249935,
          "velocity": 0.7952755905511811,
          "duration": 0.05434781249996945
        },
        {
          "name": "E2",
          "midi": 40,
          "time": 155.47278721874935,
          "velocity": 0.8188976377952756,
          "duration": 0.17391299999997045
        },
        {
          "name": "E4",
          "midi": 64,
          "time": 155.47278721874935,
          "velocity": 0.8503937007874016,
          "duration": 0.9076084687498849
        },
        {
          "name": "C2",
          "midi": 36,
          "time": 155.47822199999933,
          "velocity": 0.8740157480314961,
          "duration": 0.0054347812499884185
        },
        {
          "name": "F#2",
          "midi": 42,
          "time": 155.48365678124932,
          "velocity": 0.7244094488188977,
          "duration": 0.0054347812499884185
        },
        {
          "name": "B3",
          "midi": 59,
          "time": 155.7064828124993,
          "velocity": 0.7716535433070866,
          "duration": 0.05434781249996945
        },
        {
          "name": "E2",
          "midi": 40,
          "time": 155.73365671874927,
          "velocity": 0.7952755905511811,
          "duration": 0.1576086562500052
        },
        {
          "name": "B3",
          "midi": 59,
          "time": 155.73365671874927,
          "velocity": 0.8267716535433071,
          "duration": 0.48913031249998085
        },
        {
          "name": "F#2",
          "midi": 42,
          "time": 155.74452628124928,
          "velocity": 0.36220472440944884,
          "duration": 0.0054347812499884185
        },
        {
          "name": "A4",
          "midi": 69,
          "time": 155.78256974999928,
          "velocity": 0.8188976377952756,
          "duration": 0.8369563124998933
        },
        {
          "name": "E3",
          "midi": 52,
          "time": 155.97278709374928,
          "velocity": 0.7165354330708661,
          "duration": 0.05434781249996945
        },
        {
          "name": "E2",
          "midi": 40,
          "time": 155.9945262187493,
          "velocity": 0.8661417322834646,
          "duration": 0.010869562499976837
        },
        {
          "name": "E2",
          "midi": 40,
          "time": 155.99996099999927,
          "velocity": 0.9291338582677166,
          "duration": 0.1413043124999831
        },
        {
          "name": "E3",
          "midi": 52,
          "time": 155.99996099999927,
          "velocity": 0.7716535433070866,
          "duration": 0.5163042187499514
        },
        {
          "name": "F#2",
          "midi": 42,
          "time": 156.00539578124926,
          "velocity": 0.7716535433070866,
          "duration": 0.0054347812499884185
        },
        {
          "name": "A4",
          "midi": 69,
          "time": 156.21191746874925,
          "velocity": 0.6535433070866141,
          "duration": 0.7934780624999007
        },
        {
          "name": "B3",
          "midi": 59,
          "time": 156.22822181249924,
          "velocity": 0.7874015748031497,
          "duration": 0.05434781249999787
        },
        {
          "name": "F#2",
          "midi": 42,
          "time": 156.25539571874924,
          "velocity": 0.4409448818897638,
          "duration": 0.0054347812499884185
        },
        {
          "name": "E2",
          "midi": 40,
          "time": 156.25539571874924,
          "velocity": 0.7165354330708661,
          "duration": 0.17391299999999887
        },
        {
          "name": "B3",
          "midi": 59,
          "time": 156.25539571874924,
          "velocity": 0.84251968503937,
          "duration": 0.24456515624999042
        },
        {
          "name": "E3",
          "midi": 52,
          "time": 156.49452609374924,
          "velocity": 0.9212598425196851,
          "duration": 0.05434781249994103
        },
        {
          "name": "E2",
          "midi": 40,
          "time": 156.51626521874923,
          "velocity": 0.8661417322834646,
          "duration": 0.1467390937499431
        },
        {
          "name": "C2",
          "midi": 36,
          "time": 156.5216999999992,
          "velocity": 0.905511811023622,
          "duration": 0.0054347812499884185
        },
        {
          "name": "E3",
          "midi": 52,
          "time": 156.5216999999992,
          "velocity": 0.9763779527559056,
          "duration": 1.5597822187497457
        },
        {
          "name": "F#2",
          "midi": 42,
          "time": 156.5271347812492,
          "velocity": 0.84251968503937,
          "duration": 0.0054347812499884185
        },
        {
          "name": "A4",
          "midi": 69,
          "time": 156.68474343749918,
          "velocity": 0.7874015748031497,
          "duration": 0.6956519999998818
        },
        {
          "name": "B3",
          "midi": 59,
          "time": 156.74996081249918,
          "velocity": 0.6141732283464567,
          "duration": 0.05434781249996945
        },
        {
          "name": "E2",
          "midi": 40,
          "time": 156.77713471874918,
          "velocity": 0.7952755905511811,
          "duration": 0.17934778124995887
        },
        {
          "name": "B3",
          "midi": 59,
          "time": 156.77713471874918,
          "velocity": 0.6692913385826772,
          "duration": 0.3858694687499167
        },
        {
          "name": "F#4",
          "midi": 66,
          "time": 156.78256949999917,
          "velocity": 0.5118110236220472,
          "duration": 0.2826086249999378
        },
        {
          "name": "F#2",
          "midi": 42,
          "time": 156.78800428124916,
          "velocity": 0.4094488188976378,
          "duration": 0.0054347812499884185
        },
        {
          "name": "E4",
          "midi": 64,
          "time": 156.79343906249915,
          "velocity": 0.5039370078740157,
          "duration": 0.13586953124999468
        },
        {
          "name": "F#4",
          "midi": 66,
          "time": 157.01083031249914,
          "velocity": 0.8503937007874016,
          "duration": 0.2880434062499546
        },
        {
          "name": "C#5",
          "midi": 73,
          "time": 157.02713465624913,
          "velocity": 0.889763779527559,
          "duration": 0.27173906249996094
        },
        {
          "name": "F#4",
          "midi": 66,
          "time": 157.03800421874914,
          "velocity": 0.905511811023622,
          "duration": 0.5163042187499229
        },
        {
          "name": "E2",
          "midi": 40,
          "time": 157.04343899999913,
          "velocity": 0.9291338582677166,
          "duration": 0.0054347812499884185
        },
        {
          "name": "F#2",
          "midi": 42,
          "time": 157.04343899999913,
          "velocity": 0.7086614173228346,
          "duration": 0.0054347812499884185
        },
        {
          "name": "E2",
          "midi": 40,
          "time": 157.04343899999913,
          "velocity": 0.8661417322834646,
          "duration": 0.13586953124996626
        },
        {
          "name": "A4",
          "midi": 69,
          "time": 157.05974334374912,
          "velocity": 0.6377952755905512,
          "duration": 0.7173911249998639
        },
        {
          "name": "B3",
          "midi": 59,
          "time": 157.2716998124991,
          "velocity": 0.7086614173228346,
          "duration": 0.05434781249996945
        },
        {
          "name": "D5",
          "midi": 74,
          "time": 157.2988737187491,
          "velocity": 0.7874015748031497,
          "duration": 0.2934781874999146
        },
        {
          "name": "E2",
          "midi": 40,
          "time": 157.2988737187491,
          "velocity": 0.7165354330708661,
          "duration": 0.10869562499996732
        },
        {
          "name": "B3",
          "midi": 59,
          "time": 157.2988737187491,
          "velocity": 0.7637795275590551,
          "duration": 0.3858694687499167
        },
        {
          "name": "C2",
          "midi": 36,
          "time": 157.30430849999908,
          "velocity": 0.5748031496062992,
          "duration": 0.0054347812499884185
        },
        {
          "name": "F#2",
          "midi": 42,
          "time": 157.30974328124907,
          "velocity": 0.3858267716535433,
          "duration": 0.0054347812499884185
        },
        {
          "name": "E2",
          "midi": 40,
          "time": 157.43474324999906,
          "velocity": 0.7716535433070866,
          "duration": 0.10326084375000733
        },
        {
          "name": "A4",
          "midi": 69,
          "time": 157.44561281249906,
          "velocity": 0.7874015748031497,
          "duration": 0.782608499999867
        },
        {
          "name": "E4",
          "midi": 64,
          "time": 157.53256931249908,
          "velocity": 0.7952755905511811,
          "duration": 0.05434781249994103
        },
        {
          "name": "E2",
          "midi": 40,
          "time": 157.55974321874905,
          "velocity": 0.8346456692913385,
          "duration": 0.15760865624994835
        },
        {
          "name": "E4",
          "midi": 64,
          "time": 157.55974321874905,
          "velocity": 0.8503937007874016,
          "duration": 0.7771737187498786
        },
        {
          "name": "C2",
          "midi": 36,
          "time": 157.56517799999904,
          "velocity": 0.8582677165354331,
          "duration": 0.0054347812499884185
        },
        {
          "name": "F#2",
          "midi": 42,
          "time": 157.57061278124903,
          "velocity": 0.7716535433070866,
          "duration": 0.0054347812499884185
        },
        {
          "name": "C#5",
          "midi": 73,
          "time": 157.58691712499902,
          "velocity": 0.8582677165354331,
          "duration": 0.4891303124999524
        },
        {
          "name": "B3",
          "midi": 59,
          "time": 157.79343881249898,
          "velocity": 0.7716535433070866,
          "duration": 0.05434781249999787
        },
        {
          "name": "F#2",
          "midi": 42,
          "time": 157.82061271874898,
          "velocity": 0.3858267716535433,
          "duration": 0.0054347812499884185
        },
        {
          "name": "B3",
          "midi": 59,
          "time": 157.82061271874898,
          "velocity": 0.8267716535433071,
          "duration": 0.777173718749907
        },
        {
          "name": "E2",
          "midi": 40,
          "time": 157.82604749999896,
          "velocity": 0.7716535433070866,
          "duration": 0.19021734375002097
        },
        {
          "name": "A4",
          "midi": 69,
          "time": 157.82604749999896,
          "velocity": 0.7244094488188977,
          "duration": 0.722825906249966
        },
        {
          "name": "E3",
          "midi": 52,
          "time": 158.05974309374898,
          "velocity": 0.7165354330708661,
          "duration": 0.05434781249994103
        },
        {
          "name": "E2",
          "midi": 40,
          "time": 158.08148221874896,
          "velocity": 0.8976377952755905,
          "duration": 0.010869562499976837
        },
        {
          "name": "E2",
          "midi": 40,
          "time": 158.08691699999895,
          "velocity": 0.9291338582677166,
          "duration": 0.16847821874998203
        },
        {
          "name": "E3",
          "midi": 52,
          "time": 158.08691699999895,
          "velocity": 0.7716535433070866,
          "duration": 0.5163042187499229
        },
        {
          "name": "F#2",
          "midi": 42,
          "time": 158.09235178124894,
          "velocity": 0.84251968503937,
          "duration": 0.0054347812499884185
        },
        {
          "name": "B4",
          "midi": 71,
          "time": 158.09778656249892,
          "velocity": 0.8740157480314961,
          "duration": 0.239130375000002
        },
        {
          "name": "A4",
          "midi": 69,
          "time": 158.28800390624892,
          "velocity": 0.7716535433070866,
          "duration": 0.3043477499999767
        },
        {
          "name": "E4",
          "midi": 64,
          "time": 158.31517781249892,
          "velocity": 0.7874015748031497,
          "duration": 0.05434781249999787
        },
        {
          "name": "A4",
          "midi": 69,
          "time": 158.33691693749893,
          "velocity": 0.8110236220472441,
          "duration": 0.5543476874998987
        },
        {
          "name": "F#2",
          "midi": 42,
          "time": 158.34235171874892,
          "velocity": 0.3937007874015748,
          "duration": 0.0054347812499884185
        },
        {
          "name": "E2",
          "midi": 40,
          "time": 158.34235171874892,
          "velocity": 0.7480314960629921,
          "duration": 0.16847821875001046
        },
        {
          "name": "E4",
          "midi": 64,
          "time": 158.34235171874892,
          "velocity": 0.84251968503937,
          "duration": 0.24456515624999042
        },
        {
          "name": "A2",
          "midi": 45,
          "time": 158.58148209374892,
          "velocity": 0.9212598425196851,
          "duration": 0.05434781249991261
        },
        {
          "name": "C2",
          "midi": 36,
          "time": 158.60865599999886,
          "velocity": 0.8818897637795275,
          "duration": 0.0054347812499884185
        },
        {
          "name": "A2",
          "midi": 45,
          "time": 158.60865599999886,
          "velocity": 0.9763779527559056,
          "duration": 1.9673908124998434
        },
        {
          "name": "E4",
          "midi": 64,
          "time": 158.60865599999886,
          "velocity": 0.5511811023622047,
          "duration": 2.532608062499804
        },
        {
          "name": "A3",
          "midi": 57,
          "time": 158.61409078124885,
          "velocity": 0.8267716535433071,
          "duration": 0.0054347812499884185
        },
        {
          "name": "A1",
          "midi": 33,
          "time": 158.61409078124885,
          "velocity": 0.952755905511811,
          "duration": 0.15760865624997678
        },
        {
          "name": "A4",
          "midi": 69,
          "time": 158.61952556249884,
          "velocity": 0.6062992125984252,
          "duration": 1.0380432187498911
        },
        {
          "name": "E3",
          "midi": 52,
          "time": 158.83691681249883,
          "velocity": 0.6141732283464567,
          "duration": 0.05434781249999787
        },
        {
          "name": "A1",
          "midi": 33,
          "time": 158.86409071874883,
          "velocity": 0.7952755905511811,
          "duration": 0.1576086562500052
        },
        {
          "name": "E3",
          "midi": 52,
          "time": 158.86409071874883,
          "velocity": 0.6692913385826772,
          "duration": 0.3858694687499735
        },
        {
          "name": "F#2",
          "midi": 42,
          "time": 158.87496028124883,
          "velocity": 0.30708661417322836,
          "duration": 0.0054347812499884185
        },
        {
          "name": "C#5",
          "midi": 73,
          "time": 158.89126462499883,
          "velocity": 0.7637795275590551,
          "duration": 1.3695648749998952
        },
        {
          "name": "B3",
          "midi": 59,
          "time": 159.09778631249884,
          "velocity": 0.8503937007874016,
          "duration": 0.05434781249996945
        },
        {
          "name": "B3",
          "midi": 59,
          "time": 159.12496021874884,
          "velocity": 0.905511811023622,
          "duration": 0.25543471874996726
        },
        {
          "name": "E2",
          "midi": 40,
          "time": 159.13039499999883,
          "velocity": 0.9291338582677166,
          "duration": 0.0054347812499884185
        },
        {
          "name": "A1",
          "midi": 33,
          "time": 159.13039499999883,
          "velocity": 0.9291338582677166,
          "duration": 0.1630434374999652
        },
        {
          "name": "F#2",
          "midi": 42,
          "time": 159.13582978124882,
          "velocity": 0.7480314960629921,
          "duration": 0.0054347812499884185
        },
        {
          "name": "E3",
          "midi": 52,
          "time": 159.3586558124988,
          "velocity": 0.7086614173228346,
          "duration": 0.05434781249996945
        },
        {
          "name": "E3",
          "midi": 52,
          "time": 159.3858297187488,
          "velocity": 0.7637795275590551,
          "duration": 0.6467389687499292
        },
        {
          "name": "C2",
          "midi": 36,
          "time": 159.39126449999878,
          "velocity": 0.6377952755905512,
          "duration": 0.0054347812499884185
        },
        {
          "name": "F#2",
          "midi": 42,
          "time": 159.39669928124877,
          "velocity": 0.4094488188976378,
          "duration": 0.0054347812499884185
        },
        {
          "name": "A1",
          "midi": 33,
          "time": 159.39669928124877,
          "velocity": 0.9133858267716536,
          "duration": 0.15217387499998836
        },
        {
          "name": "C#4",
          "midi": 61,
          "time": 159.61952531249875,
          "velocity": 0.7952755905511811,
          "duration": 0.05434781249996945
        },
        {
          "name": "F#2",
          "midi": 42,
          "time": 159.64669921874875,
          "velocity": 0.7480314960629921,
          "duration": 0.0054347812499884185
        },
        {
          "name": "A1",
          "midi": 33,
          "time": 159.64669921874875,
          "velocity": 0.9291338582677166,
          "duration": 0.1413043124999831
        },
        {
          "name": "C#4",
          "midi": 61,
          "time": 159.64669921874875,
          "velocity": 0.8503937007874016,
          "duration": 0.2554347187499957
        },
        {
          "name": "C2",
          "midi": 36,
          "time": 159.65213399999874,
          "velocity": 0.8582677165354331,
          "duration": 0.0054347812499884185
        },
        {
          "name": "B4",
          "midi": 71,
          "time": 159.66300356249872,
          "velocity": 0.5905511811023622,
          "duration": 1.0760866874999522
        },
        {
          "name": "B3",
          "midi": 59,
          "time": 159.88039481249874,
          "velocity": 0.7716535433070866,
          "duration": 0.05434781249999787
        },
        {
          "name": "F#2",
          "midi": 42,
          "time": 159.90756871874873,
          "velocity": 0.49606299212598426,
          "duration": 0.0054347812499884185
        },
        {
          "name": "A1",
          "midi": 33,
          "time": 159.90756871874873,
          "velocity": 0.8976377952755905,
          "duration": 0.14673909374999994
        },
        {
          "name": "B3",
          "midi": 59,
          "time": 159.90756871874873,
          "velocity": 0.8267716535433071,
          "duration": 0.48913031249998085
        },
        {
          "name": "E3",
          "midi": 52,
          "time": 160.14126431249875,
          "velocity": 0.7165354330708661,
          "duration": 0.05434781249996945
        },
        {
          "name": "F#2",
          "midi": 42,
          "time": 160.16843821874875,
          "velocity": 0.7716535433070866,
          "duration": 0.0054347812499884185
        },
        {
          "name": "E3",
          "midi": 52,
          "time": 160.16843821874875,
          "velocity": 0.7716535433070866,
          "duration": 0.3858694687499451
        },
        {
          "name": "E2",
          "midi": 40,
          "time": 160.17387299999874,
          "velocity": 0.9291338582677166,
          "duration": 0.0054347812499884185
        },
        {
          "name": "A1",
          "midi": 33,
          "time": 160.17387299999874,
          "velocity": 0.952755905511811,
          "duration": 0.14673909374997152
        },
        {
          "name": "B3",
          "midi": 59,
          "time": 160.4021338124987,
          "velocity": 0.7874015748031497,
          "duration": 0.05434781249999787
        },
        {
          "name": "F#2",
          "midi": 42,
          "time": 160.4293077187487,
          "velocity": 0.4251968503937008,
          "duration": 0.0054347812499884185
        },
        {
          "name": "A1",
          "midi": 33,
          "time": 160.4293077187487,
          "velocity": 0.8503937007874016,
          "duration": 0.14673909374999994
        },
        {
          "name": "B3",
          "midi": 59,
          "time": 160.4293077187487,
          "velocity": 0.84251968503937,
          "duration": 0.24456515624999042
        },
        {
          "name": "A2",
          "midi": 45,
          "time": 160.6684380937487,
          "velocity": 0.9212598425196851,
          "duration": 0.05434781249996945
        },
        {
          "name": "F#2",
          "midi": 42,
          "time": 160.6901772187487,
          "velocity": 0.8661417322834646,
          "duration": 0.0054347812499884185
        },
        {
          "name": "A1",
          "midi": 33,
          "time": 160.6901772187487,
          "velocity": 0.952755905511811,
          "duration": 0.16304343749999362
        },
        {
          "name": "C2",
          "midi": 36,
          "time": 160.69561199999868,
          "velocity": 0.8818897637795275,
          "duration": 0.0054347812499884185
        },
        {
          "name": "A2",
          "midi": 45,
          "time": 160.69561199999868,
          "velocity": 0.9763779527559056,
          "duration": 1.9673908124997581
        },
        {
          "name": "C#5",
          "midi": 73,
          "time": 160.71191634374867,
          "velocity": 0.49606299212598426,
          "duration": 0.7717389374999186
        },
        {
          "name": "E3",
          "midi": 52,
          "time": 160.92387281249867,
          "velocity": 0.6141732283464567,
          "duration": 0.05434781249999787
        },
        {
          "name": "F#2",
          "midi": 42,
          "time": 160.95104671874867,
          "velocity": 0.4566929133858268,
          "duration": 0.0054347812499884185
        },
        {
          "name": "A1",
          "midi": 33,
          "time": 160.95104671874867,
          "velocity": 0.8503937007874016,
          "duration": 0.1576086562500052
        },
        {
          "name": "E3",
          "midi": 52,
          "time": 160.95104671874867,
          "velocity": 0.6692913385826772,
          "duration": 0.3858694687499451
        },
        {
          "name": "E4",
          "midi": 64,
          "time": 160.95648149999866,
          "velocity": 0.6141732283464567,
          "duration": 1.8206517187497582
        },
        {
          "name": "B3",
          "midi": 59,
          "time": 161.18474231249866,
          "velocity": 0.8503937007874016,
          "duration": 0.05434781249996945
        },
        {
          "name": "F#2",
          "midi": 42,
          "time": 161.21191621874866,
          "velocity": 0.7480314960629921,
          "duration": 0.0054347812499884185
        },
        {
          "name": "A1",
          "midi": 33,
          "time": 161.21191621874866,
          "velocity": 0.952755905511811,
          "duration": 0.17391299999997045
        },
        {
          "name": "B3",
          "midi": 59,
          "time": 161.21191621874866,
          "velocity": 0.905511811023622,
          "duration": 0.244565156249962
        },
        {
          "name": "C#5",
          "midi": 73,
          "time": 161.21735099999864,
          "velocity": 0.84251968503937,
          "duration": 1.0380432187498343
        },
        {
          "name": "E2",
          "midi": 40,
          "time": 161.21735099999864,
          "velocity": 0.9291338582677166,
          "duration": 0.0054347812499884185
        },
        {
          "name": "E3",
          "midi": 52,
          "time": 161.4456118124986,
          "velocity": 0.7086614173228346,
          "duration": 0.05434781249996945
        },
        {
          "name": "A1",
          "midi": 33,
          "time": 161.4727857187486,
          "velocity": 0.8346456692913385,
          "duration": 0.17934778124995887
        },
        {
          "name": "E3",
          "midi": 52,
          "time": 161.4727857187486,
          "velocity": 0.7637795275590551,
          "duration": 0.244565156249962
        },
        {
          "name": "D5",
          "midi": 74,
          "time": 161.4782204999986,
          "velocity": 0.7559055118110236,
          "duration": 0.2826086249999378
        },
        {
          "name": "F#2",
          "midi": 42,
          "time": 161.4782204999986,
          "velocity": 0.4015748031496063,
          "duration": 0.0054347812499884185
        },
        {
          "name": "C2",
          "midi": 36,
          "time": 161.4782204999986,
          "velocity": 0.6220472440944882,
          "duration": 0.0054347812499884185
        },
        {
          "name": "C#4",
          "midi": 61,
          "time": 161.70648131249857,
          "velocity": 0.7952755905511811,
          "duration": 0.05434781249996945
        },
        {
          "name": "F#2",
          "midi": 42,
          "time": 161.73365521874857,
          "velocity": 0.7559055118110236,
          "duration": 0.0054347812499884185
        },
        {
          "name": "A1",
          "midi": 33,
          "time": 161.73365521874857,
          "velocity": 0.952755905511811,
          "duration": 0.1630434374999652
        },
        {
          "name": "C#4",
          "midi": 61,
          "time": 161.73365521874857,
          "velocity": 0.8503937007874016,
          "duration": 0.25543471874996726
        },
        {
          "name": "C2",
          "midi": 36,
          "time": 161.73908999999855,
          "velocity": 0.8740157480314961,
          "duration": 0.0054347812499884185
        },
        {
          "name": "C#5",
          "midi": 73,
          "time": 161.76626390624853,
          "velocity": 0.7874015748031497,
          "duration": 1.0271736562498575
        },
        {
          "name": "B3",
          "midi": 59,
          "time": 161.96735081249852,
          "velocity": 0.7716535433070866,
          "duration": 0.05434781249996945
        },
        {
          "name": "A1",
          "midi": 33,
          "time": 161.99452471874852,
          "velocity": 0.7952755905511811,
          "duration": 0.17391299999997045
        },
        {
          "name": "B3",
          "midi": 59,
          "time": 161.99452471874852,
          "velocity": 0.8267716535433071,
          "duration": 0.4728259687499303
        },
        {
          "name": "F#2",
          "midi": 42,
          "time": 161.9999594999985,
          "velocity": 0.4409448818897638,
          "duration": 0.0054347812499884185
        },
        {
          "name": "E3",
          "midi": 52,
          "time": 162.22822031249848,
          "velocity": 0.7165354330708661,
          "duration": 0.05434781249996945
        },
        {
          "name": "A1",
          "midi": 33,
          "time": 162.25539421874848,
          "velocity": 0.952755905511811,
          "duration": 0.15760865624997678
        },
        {
          "name": "E3",
          "midi": 52,
          "time": 162.25539421874848,
          "velocity": 0.7716535433070866,
          "duration": 0.24456515624999042
        },
        {
          "name": "E2",
          "midi": 40,
          "time": 162.26082899999847,
          "velocity": 0.9291338582677166,
          "duration": 0.0054347812499884185
        },
        {
          "name": "F#2",
          "midi": 42,
          "time": 162.26082899999847,
          "velocity": 0.7086614173228346,
          "duration": 0.0054347812499884185
        },
        {
          "name": "B4",
          "midi": 71,
          "time": 162.28256812499845,
          "velocity": 0.7952755905511811,
          "duration": 0.5543476874999271
        },
        {
          "name": "B3",
          "midi": 59,
          "time": 162.48908981249846,
          "velocity": 0.7874015748031497,
          "duration": 0.05434781249996945
        },
        {
          "name": "A1",
          "midi": 33,
          "time": 162.51626371874846,
          "velocity": 0.952755905511811,
          "duration": 0.15760865624997678
        },
        {
          "name": "B3",
          "midi": 59,
          "time": 162.51626371874846,
          "velocity": 0.84251968503937,
          "duration": 0.244565156249962
        },
        {
          "name": "F#2",
          "midi": 42,
          "time": 162.52169849999845,
          "velocity": 0.4094488188976378,
          "duration": 0.0054347812499884185
        },
        {
          "name": "F#2",
          "midi": 42,
          "time": 162.75539409374844,
          "velocity": 0.9212598425196851,
          "duration": 0.03260868749995893
        },
        {
          "name": "F#1",
          "midi": 30,
          "time": 162.77713321874842,
          "velocity": 0.8976377952755905,
          "duration": 0.1684782187499536
        },
        {
          "name": "F#2",
          "midi": 42,
          "time": 162.7825679999984,
          "velocity": 0.8976377952755905,
          "duration": 0.027173906249970514
        },
        {
          "name": "C2",
          "midi": 36,
          "time": 162.7825679999984,
          "velocity": 0.8818897637795275,
          "duration": 0.0054347812499884185
        },
        {
          "name": "F#2",
          "midi": 42,
          "time": 162.7825679999984,
          "velocity": 0.9763779527559056,
          "duration": 0.27173906249996094
        },
        {
          "name": "E4",
          "midi": 64,
          "time": 162.7825679999984,
          "velocity": 0.5039370078740157,
          "duration": 4.717390124999412
        },
        {
          "name": "A4",
          "midi": 69,
          "time": 162.7825679999984,
          "velocity": 0.5669291338582677,
          "duration": 1.21739099999985
        },
        {
          "name": "A4",
          "midi": 69,
          "time": 162.82604624999837,
          "velocity": 0.7244094488188977,
          "duration": 2.038042968749778
        },
        {
          "name": "C#3",
          "midi": 49,
          "time": 163.01082881249837,
          "velocity": 0.6141732283464567,
          "duration": 0.05434781249999787
        },
        {
          "name": "F#1",
          "midi": 30,
          "time": 163.03800271874837,
          "velocity": 0.8740157480314961,
          "duration": 0.1576086562500052
        },
        {
          "name": "C#3",
          "midi": 49,
          "time": 163.03800271874837,
          "velocity": 0.6692913385826772,
          "duration": 0.3858694687499735
        },
        {
          "name": "F#2",
          "midi": 42,
          "time": 163.04887228124838,
          "velocity": 0.4566929133858268,
          "duration": 0.2663042812499725
        },
        {
          "name": "G#3",
          "midi": 56,
          "time": 163.2716983124984,
          "velocity": 0.8503937007874016,
          "duration": 0.05434781249996945
        },
        {
          "name": "G#3",
          "midi": 56,
          "time": 163.2988722187484,
          "velocity": 0.905511811023622,
          "duration": 0.25543471874996726
        },
        {
          "name": "E2",
          "midi": 40,
          "time": 163.30430699999837,
          "velocity": 0.9291338582677166,
          "duration": 0.0054347812499884185
        },
        {
          "name": "F#2",
          "midi": 42,
          "time": 163.30974178124836,
          "velocity": 0.7244094488188977,
          "duration": 0.2663042812499441
        },
        {
          "name": "F#1",
          "midi": 30,
          "time": 163.30974178124836,
          "velocity": 0.952755905511811,
          "duration": 0.15217387499998836
        },
        {
          "name": "C#3",
          "midi": 49,
          "time": 163.53256781249834,
          "velocity": 0.7086614173228346,
          "duration": 0.05434781249996945
        },
        {
          "name": "C#3",
          "midi": 49,
          "time": 163.55974171874834,
          "velocity": 0.7637795275590551,
          "duration": 0.6467389687499008
        },
        {
          "name": "C2",
          "midi": 36,
          "time": 163.56517649999833,
          "velocity": 0.5905511811023622,
          "duration": 0.0054347812499884185
        },
        {
          "name": "F#1",
          "midi": 30,
          "time": 163.56517649999833,
          "velocity": 0.905511811023622,
          "duration": 0.15760865624997678
        },
        {
          "name": "F#2",
          "midi": 42,
          "time": 163.57061128124832,
          "velocity": 0.4330708661417323,
          "duration": 0.2663042812499441
        },
        {
          "name": "A3",
          "midi": 57,
          "time": 163.7934373124983,
          "velocity": 0.7952755905511811,
          "duration": 0.05434781249996945
        },
        {
          "name": "F#1",
          "midi": 30,
          "time": 163.8206112187483,
          "velocity": 0.952755905511811,
          "duration": 0.17391299999997045
        },
        {
          "name": "A3",
          "midi": 57,
          "time": 163.8206112187483,
          "velocity": 0.8503937007874016,
          "duration": 0.25543471874996726
        },
        {
          "name": "C2",
          "midi": 36,
          "time": 163.82604599999829,
          "velocity": 0.8818897637795275,
          "duration": 0.0054347812499884185
        },
        {
          "name": "F#2",
          "midi": 42,
          "time": 163.83148078124827,
          "velocity": 0.7086614173228346,
          "duration": 0.25543471874996726
        },
        {
          "name": "G#3",
          "midi": 56,
          "time": 164.05430681249825,
          "velocity": 0.7716535433070866,
          "duration": 0.05434781249999787
        },
        {
          "name": "F#2",
          "midi": 42,
          "time": 164.08148071874825,
          "velocity": 0.4566929133858268,
          "duration": 0.2663042812499725
        },
        {
          "name": "G#3",
          "midi": 56,
          "time": 164.08148071874825,
          "velocity": 0.8267716535433071,
          "duration": 0.4891303124999524
        },
        {
          "name": "F#1",
          "midi": 30,
          "time": 164.08691549999824,
          "velocity": 0.8582677165354331,
          "duration": 0.15217387499998836
        },
        {
          "name": "C#3",
          "midi": 49,
          "time": 164.31517631249824,
          "velocity": 0.7165354330708661,
          "duration": 0.05434781249996945
        },
        {
          "name": "F#2",
          "midi": 42,
          "time": 164.34235021874824,
          "velocity": 0.6299212598425197,
          "duration": 0.2663042812499441
        },
        {
          "name": "C#3",
          "midi": 49,
          "time": 164.34235021874824,
          "velocity": 0.7716535433070866,
          "duration": 0.3858694687499167
        },
        {
          "name": "E2",
          "midi": 40,
          "time": 164.34778499999823,
          "velocity": 0.9291338582677166,
          "duration": 0.0054347812499884185
        },
        {
          "name": "F#1",
          "midi": 30,
          "time": 164.3532197812482,
          "velocity": 0.9212598425196851,
          "duration": 0.16847821874998203
        },
        {
          "name": "G#3",
          "midi": 56,
          "time": 164.5760458124982,
          "velocity": 0.7874015748031497,
          "duration": 0.05434781249996945
        },
        {
          "name": "F#2",
          "midi": 42,
          "time": 164.6032197187482,
          "velocity": 0.4094488188976378,
          "duration": 0.14673909374997152
        },
        {
          "name": "G#3",
          "midi": 56,
          "time": 164.6032197187482,
          "velocity": 0.84251968503937,
          "duration": 0.244565156249962
        },
        {
          "name": "F#1",
          "midi": 30,
          "time": 164.61408928124817,
          "velocity": 0.8661417322834646,
          "duration": 0.1413043124999831
        },
        {
          "name": "F#2",
          "midi": 42,
          "time": 164.84235009374817,
          "velocity": 0.9212598425196851,
          "duration": 0.027173906249970514
        },
        {
          "name": "F#2",
          "midi": 42,
          "time": 164.86408921874815,
          "velocity": 0.8976377952755905,
          "duration": 0.032608687499987354
        },
        {
          "name": "C2",
          "midi": 36,
          "time": 164.86952399999814,
          "velocity": 0.8661417322834646,
          "duration": 0.0054347812499884185
        },
        {
          "name": "F#1",
          "midi": 30,
          "time": 164.86952399999814,
          "velocity": 0.9212598425196851,
          "duration": 0.16304343749999362
        },
        {
          "name": "F#2",
          "midi": 42,
          "time": 164.86952399999814,
          "velocity": 0.9763779527559056,
          "duration": 0.2608694999999841
        },
        {
          "name": "B4",
          "midi": 71,
          "time": 164.86952399999814,
          "velocity": 0.5590551181102362,
          "duration": 2.0978255624997644
        },
        {
          "name": "C#3",
          "midi": 49,
          "time": 165.09778481249813,
          "velocity": 0.6141732283464567,
          "duration": 0.05434781249999787
        },
        {
          "name": "A4",
          "midi": 69,
          "time": 165.12495871874813,
          "velocity": 0.8818897637795275,
          "duration": 0.2173912499999915
        },
        {
          "name": "F#2",
          "midi": 42,
          "time": 165.12495871874813,
          "velocity": 0.4409448818897638,
          "duration": 0.2663042812499725
        },
        {
          "name": "C#3",
          "midi": 49,
          "time": 165.12495871874813,
          "velocity": 0.6692913385826772,
          "duration": 0.3858694687499451
        },
        {
          "name": "F#1",
          "midi": 30,
          "time": 165.13039349999812,
          "velocity": 0.8267716535433071,
          "duration": 0.14673909374999994
        },
        {
          "name": "G#3",
          "midi": 56,
          "time": 165.35865431249812,
          "velocity": 0.8503937007874016,
          "duration": 0.05434781249996945
        },
        {
          "name": "A4",
          "midi": 69,
          "time": 165.3749586562481,
          "velocity": 0.8740157480314961,
          "duration": 0.21739124999996307
        },
        {
          "name": "F#2",
          "midi": 42,
          "time": 165.38582821874812,
          "velocity": 0.7007874015748031,
          "duration": 0.2663042812499441
        },
        {
          "name": "G#3",
          "midi": 56,
          "time": 165.38582821874812,
          "velocity": 0.905511811023622,
          "duration": 0.244565156249962
        },
        {
          "name": "E2",
          "midi": 40,
          "time": 165.3912629999981,
          "velocity": 0.9291338582677166,
          "duration": 0.0054347812499884185
        },
        {
          "name": "F#1",
          "midi": 30,
          "time": 165.3912629999981,
          "velocity": 0.9212598425196851,
          "duration": 0.1630434374999652
        },
        {
          "name": "C#3",
          "midi": 49,
          "time": 165.61952381249807,
          "velocity": 0.7086614173228346,
          "duration": 0.05434781249996945
        },
        {
          "name": "C#5",
          "midi": 73,
          "time": 165.64669771874807,
          "velocity": 0.905511811023622,
          "duration": 0.4673911874999135
        },
        {
          "name": "F#2",
          "midi": 42,
          "time": 165.64669771874807,
          "velocity": 0.4251968503937008,
          "duration": 0.27717384374992093
        },
        {
          "name": "C#3",
          "midi": 49,
          "time": 165.64669771874807,
          "velocity": 0.7637795275590551,
          "duration": 0.244565156249962
        },
        {
          "name": "C2",
          "midi": 36,
          "time": 165.65213249999806,
          "velocity": 0.5669291338582677,
          "duration": 0.0054347812499884185
        },
        {
          "name": "F#1",
          "midi": 30,
          "time": 165.65213249999806,
          "velocity": 0.8110236220472441,
          "duration": 0.16847821874998203
        },
        {
          "name": "A3",
          "midi": 57,
          "time": 165.88039331249803,
          "velocity": 0.7952755905511811,
          "duration": 0.05434781249996945
        },
        {
          "name": "A3",
          "midi": 57,
          "time": 165.90756721874803,
          "velocity": 0.8503937007874016,
          "duration": 0.25543471874996726
        },
        {
          "name": "C2",
          "midi": 36,
          "time": 165.91300199999802,
          "velocity": 0.8740157480314961,
          "duration": 0.0054347812499884185
        },
        {
          "name": "F#1",
          "midi": 30,
          "time": 165.91300199999802,
          "velocity": 0.952755905511811,
          "duration": 0.16847821874998203
        },
        {
          "name": "F#2",
          "midi": 42,
          "time": 165.918436781248,
          "velocity": 0.6929133858267716,
          "duration": 0.2663042812499725
        },
        {
          "name": "D5",
          "midi": 74,
          "time": 166.14126281249798,
          "velocity": 0.8818897637795275,
          "duration": 0.4673911874999419
        },
        {
          "name": "G#3",
          "midi": 56,
          "time": 166.14126281249798,
          "velocity": 0.7716535433070866,
          "duration": 0.05434781249999787
        },
        {
          "name": "G#3",
          "midi": 56,
          "time": 166.16843671874798,
          "velocity": 0.8267716535433071,
          "duration": 0.4728259687499303
        },
        {
          "name": "F#2",
          "midi": 42,
          "time": 166.179306281248,
          "velocity": 0.44881889763779526,
          "duration": 0.2663042812499441
        },
        {
          "name": "F#1",
          "midi": 30,
          "time": 166.179306281248,
          "velocity": 0.8582677165354331,
          "duration": 0.15217387499998836
        },
        {
          "name": "C#3",
          "midi": 49,
          "time": 166.40213231249797,
          "velocity": 0.7165354330708661,
          "duration": 0.05434781249996945
        },
        {
          "name": "F#1",
          "midi": 30,
          "time": 166.42930621874797,
          "velocity": 0.937007874015748,
          "duration": 0.17934778124995887
        },
        {
          "name": "C#3",
          "midi": 49,
          "time": 166.42930621874797,
          "velocity": 0.7716535433070866,
          "duration": 0.244565156249962
        },
        {
          "name": "E2",
          "midi": 40,
          "time": 166.43474099999796,
          "velocity": 0.9291338582677166,
          "duration": 0.0054347812499884185
        },
        {
          "name": "F#2",
          "midi": 42,
          "time": 166.44017578124794,
          "velocity": 0.7244094488188977,
          "duration": 0.2663042812499725
        },
        {
          "name": "G#3",
          "midi": 56,
          "time": 166.66300181249792,
          "velocity": 0.7874015748031497,
          "duration": 0.05434781249999787
        },
        {
          "name": "A4",
          "midi": 69,
          "time": 166.67387137499793,
          "velocity": 0.7952755905511811,
          "duration": 0.4076085937499556
        },
        {
          "name": "F#1",
          "midi": 30,
          "time": 166.69017571874792,
          "velocity": 0.9212598425196851,
          "duration": 0.239130375000002
        },
        {
          "name": "G#3",
          "midi": 56,
          "time": 166.69017571874792,
          "velocity": 0.84251968503937,
          "duration": 0.24456515624999042
        },
        {
          "name": "F#2",
          "midi": 42,
          "time": 166.70104528124793,
          "velocity": 0.3700787401574803,
          "duration": 0.13586953124999468
        },
        {
          "name": "D3",
          "midi": 50,
          "time": 166.92930609374793,
          "velocity": 0.9212598425196851,
          "duration": 0.05434781249996945
        },
        {
          "name": "C2",
          "midi": 36,
          "time": 166.95647999999792,
          "velocity": 0.8503937007874016,
          "duration": 0.0054347812499884185
        },
        {
          "name": "D3",
          "midi": 50,
          "time": 166.95647999999792,
          "velocity": 0.9763779527559056,
          "duration": 0.7771737187498502
        },
        {
          "name": "A4",
          "midi": 69,
          "time": 166.95647999999792,
          "velocity": 0.5118110236220472,
          "duration": 0.5108694374999345
        },
        {
          "name": "F#2",
          "midi": 42,
          "time": 166.9619147812479,
          "velocity": 0.84251968503937,
          "duration": 0.0054347812499884185
        },
        {
          "name": "D2",
          "midi": 38,
          "time": 166.9619147812479,
          "velocity": 0.9133858267716536,
          "duration": 0.13586953124996626
        },
        {
          "name": "A3",
          "midi": 57,
          "time": 167.1847408124979,
          "velocity": 0.6141732283464567,
          "duration": 0.05434781249996945
        },
        {
          "name": "A3",
          "midi": 57,
          "time": 167.2119147187479,
          "velocity": 0.6692913385826772,
          "duration": 0.5163042187498945
        },
        {
          "name": "D2",
          "midi": 38,
          "time": 167.21734949999788,
          "velocity": 0.8818897637795275,
          "duration": 0.16847821874998203
        },
        {
          "name": "A4",
          "midi": 69,
          "time": 167.22278428124787,
          "velocity": 0.8346456692913385,
          "duration": 0.4945650937499124
        },
        {
          "name": "F#2",
          "midi": 42,
          "time": 167.22278428124787,
          "velocity": 0.4330708661417323,
          "duration": 0.0054347812499884185
        },
        {
          "name": "E4",
          "midi": 64,
          "time": 167.44561031249785,
          "velocity": 0.7952755905511811,
          "duration": 0.4130433749998872
        },
        {
          "name": "F#2",
          "midi": 42,
          "time": 167.47278421874785,
          "velocity": 0.7559055118110236,
          "duration": 0.0054347812499884185
        },
        {
          "name": "E4",
          "midi": 64,
          "time": 167.47278421874785,
          "velocity": 0.8503937007874016,
          "duration": 2.6358689062497263
        },
        {
          "name": "E2",
          "midi": 40,
          "time": 167.47821899999784,
          "velocity": 0.9291338582677166,
          "duration": 0.0054347812499884185
        },
        {
          "name": "D2",
          "midi": 38,
          "time": 167.47821899999784,
          "velocity": 0.9133858267716536,
          "duration": 0.15760865624997678
        },
        {
          "name": "A4",
          "midi": 69,
          "time": 167.49452334374783,
          "velocity": 0.8661417322834646,
          "duration": 2.260868999999815
        },
        {
          "name": "A3",
          "midi": 57,
          "time": 167.7064798124978,
          "velocity": 0.7086614173228346,
          "duration": 0.05434781249994103
        },
        {
          "name": "D3",
          "midi": 50,
          "time": 167.7119145937478,
          "velocity": 0.7401574803149606,
          "duration": 0.05434781249994103
        },
        {
          "name": "A3",
          "midi": 57,
          "time": 167.73365371874777,
          "velocity": 0.7637795275590551,
          "duration": 0.4836955312499356
        },
        {
          "name": "D5",
          "midi": 74,
          "time": 167.73908849999776,
          "velocity": 0.905511811023622,
          "duration": 0.4999998749999577
        },
        {
          "name": "C2",
          "midi": 36,
          "time": 167.73908849999776,
          "velocity": 0.6377952755905512,
          "duration": 0.0054347812499884185
        },
        {
          "name": "D2",
          "midi": 38,
          "time": 167.73908849999776,
          "velocity": 0.8031496062992126,
          "duration": 0.16847821874998203
        },
        {
          "name": "D3",
          "midi": 50,
          "time": 167.73908849999776,
          "velocity": 0.7952755905511811,
          "duration": 0.7771737187499639
        },
        {
          "name": "F#2",
          "midi": 42,
          "time": 167.74452328124775,
          "velocity": 0.44881889763779526,
          "duration": 0.0054347812499884185
        },
        {
          "name": "D4",
          "midi": 62,
          "time": 167.96734931249773,
          "velocity": 0.7952755905511811,
          "duration": 0.05434781249996945
        },
        {
          "name": "D2",
          "midi": 38,
          "time": 167.99452321874773,
          "velocity": 0.9133858267716536,
          "duration": 0.16847821874998203
        },
        {
          "name": "D4",
          "midi": 62,
          "time": 167.99452321874773,
          "velocity": 0.8503937007874016,
          "duration": 0.3858694687499735
        },
        {
          "name": "C2",
          "midi": 36,
          "time": 167.99995799999772,
          "velocity": 0.8740157480314961,
          "duration": 0.0054347812499884185
        },
        {
          "name": "F#2",
          "midi": 42,
          "time": 168.0053927812477,
          "velocity": 0.7559055118110236,
          "duration": 0.0054347812499884185
        },
        {
          "name": "A3",
          "midi": 57,
          "time": 168.22821881249772,
          "velocity": 0.7716535433070866,
          "duration": 0.05434781249999787
        },
        {
          "name": "C#5",
          "midi": 73,
          "time": 168.23908837499772,
          "velocity": 0.889763779527559,
          "duration": 0.48913031249998085
        },
        {
          "name": "A3",
          "midi": 57,
          "time": 168.25539271874771,
          "velocity": 0.8267716535433071,
          "duration": 0.38586946875000194
        },
        {
          "name": "F#2",
          "midi": 42,
          "time": 168.26626228124772,
          "velocity": 0.44881889763779526,
          "duration": 0.0054347812499884185
        },
        {
          "name": "D2",
          "midi": 38,
          "time": 168.26626228124772,
          "velocity": 0.7401574803149606,
          "duration": 0.16304343749999362
        },
        {
          "name": "D4",
          "midi": 62,
          "time": 168.49452309374772,
          "velocity": 0.5669291338582677,
          "duration": 0.05434781249999787
        },
        {
          "name": "D3",
          "midi": 50,
          "time": 168.49452309374772,
          "velocity": 0.7165354330708661,
          "duration": 0.05434781249999787
        },
        {
          "name": "E2",
          "midi": 40,
          "time": 168.52169699999772,
          "velocity": 0.9291338582677166,
          "duration": 0.0054347812499884185
        },
        {
          "name": "F#2",
          "midi": 42,
          "time": 168.52169699999772,
          "velocity": 0.7086614173228346,
          "duration": 0.0054347812499884185
        },
        {
          "name": "D4",
          "midi": 62,
          "time": 168.52169699999772,
          "velocity": 0.6220472440944882,
          "duration": 0.3858694687499735
        },
        {
          "name": "D3",
          "midi": 50,
          "time": 168.52169699999772,
          "velocity": 0.7716535433070866,
          "duration": 0.5163042187499514
        },
        {
          "name": "D2",
          "midi": 38,
          "time": 168.5271317812477,
          "velocity": 0.8976377952755905,
          "duration": 0.16847821875001046
        },
        {
          "name": "B4",
          "midi": 71,
          "time": 168.7445230312477,
          "velocity": 0.7874015748031497,
          "duration": 0.4402172812499714
        },
        {
          "name": "A3",
          "midi": 57,
          "time": 168.74995781249768,
          "velocity": 0.7874015748031497,
          "duration": 0.05434781249999787
        },
        {
          "name": "A3",
          "midi": 57,
          "time": 168.77713171874768,
          "velocity": 0.84251968503937,
          "duration": 0.24456515624999042
        },
        {
          "name": "F#2",
          "midi": 42,
          "time": 168.7880012812477,
          "velocity": 0.33070866141732286,
          "duration": 0.0054347812499884185
        },
        {
          "name": "E2",
          "midi": 40,
          "time": 168.7880012812477,
          "velocity": 0.8031496062992126,
          "duration": 0.17391299999999887
        },
        {
          "name": "E3",
          "midi": 52,
          "time": 169.01626209374768,
          "velocity": 0.9212598425196851,
          "duration": 0.05434781249996945
        },
        {
          "name": "F#2",
          "midi": 42,
          "time": 169.04343599999766,
          "velocity": 0.84251968503937,
          "duration": 0.0054347812499884185
        },
        {
          "name": "C2",
          "midi": 36,
          "time": 169.04343599999766,
          "velocity": 0.8740157480314961,
          "duration": 0.0054347812499884185
        },
        {
          "name": "E3",
          "midi": 52,
          "time": 169.04343599999766,
          "velocity": 0.8976377952755905,
          "duration": 0.766304156249987
        },
        {
          "name": "E2",
          "midi": 40,
          "time": 169.04887078124764,
          "velocity": 0.8818897637795275,
          "duration": 0.16847821875001046
        },
        {
          "name": "B4",
          "midi": 71,
          "time": 169.27169681249765,
          "velocity": 0.8267716535433071,
          "duration": 0.3043477499999767
        },
        {
          "name": "B3",
          "midi": 59,
          "time": 169.27169681249765,
          "velocity": 0.6141732283464567,
          "duration": 0.05434781249999787
        },
        {
          "name": "E2",
          "midi": 40,
          "time": 169.29887071874765,
          "velocity": 0.7086614173228346,
          "duration": 0.14130431250001152
        },
        {
          "name": "B3",
          "midi": 59,
          "time": 169.29887071874765,
          "velocity": 0.6692913385826772,
          "duration": 0.3858694687499735
        },
        {
          "name": "F#2",
          "midi": 42,
          "time": 169.30974028124766,
          "velocity": 0.5196850393700787,
          "duration": 0.0054347812499884185
        },
        {
          "name": "F#4",
          "midi": 66,
          "time": 169.53256631249766,
          "velocity": 0.8503937007874016,
          "duration": 0.05434781249996945
        },
        {
          "name": "A4",
          "midi": 69,
          "time": 169.54343587499767,
          "velocity": 0.7559055118110236,
          "duration": 1.2717388124998479
        },
        {
          "name": "E2",
          "midi": 40,
          "time": 169.55974021874766,
          "velocity": 0.8818897637795275,
          "duration": 0.010869562499976837
        },
        {
          "name": "F#4",
          "midi": 66,
          "time": 169.55974021874766,
          "velocity": 0.7637795275590551,
          "duration": 0.3858694687499451
        },
        {
          "name": "E2",
          "midi": 40,
          "time": 169.56517499999765,
          "velocity": 0.9291338582677166,
          "duration": 0.16847821874998203
        },
        {
          "name": "F#2",
          "midi": 42,
          "time": 169.57060978124764,
          "velocity": 0.7480314960629921,
          "duration": 0.0054347812499884185
        },
        {
          "name": "B3",
          "midi": 59,
          "time": 169.79343581249765,
          "velocity": 0.7086614173228346,
          "duration": 0.05434781249996945
        },
        {
          "name": "C#5",
          "midi": 73,
          "time": 169.79887059374764,
          "velocity": 0.905511811023622,
          "duration": 0.5163042187499229
        },
        {
          "name": "E3",
          "midi": 52,
          "time": 169.79887059374764,
          "velocity": 0.7480314960629921,
          "duration": 0.05434781249996945
        },
        {
          "name": "F#2",
          "midi": 42,
          "time": 169.82060971874765,
          "velocity": 0.4251968503937008,
          "duration": 0.0054347812499884185
        },
        {
          "name": "E2",
          "midi": 40,
          "time": 169.82060971874765,
          "velocity": 0.7401574803149606,
          "duration": 0.17391299999997045
        },
        {
          "name": "B3",
          "midi": 59,
          "time": 169.82060971874765,
          "velocity": 0.7637795275590551,
          "duration": 0.3858694687499167
        },
        {
          "name": "C2",
          "midi": 36,
          "time": 169.82604449999764,
          "velocity": 0.5984251968503937,
          "duration": 0.0054347812499884185
        },
        {
          "name": "E3",
          "midi": 52,
          "time": 169.82604449999764,
          "velocity": 0.8031496062992126,
          "duration": 0.7336954687499144
        },
        {
          "name": "E4",
          "midi": 64,
          "time": 170.0543053124976,
          "velocity": 0.7952755905511811,
          "duration": 0.41304337499994404
        },
        {
          "name": "E2",
          "midi": 40,
          "time": 170.0814792187476,
          "velocity": 0.8346456692913385,
          "duration": 0.13586953124996626
        },
        {
          "name": "E4",
          "midi": 64,
          "time": 170.0814792187476,
          "velocity": 0.8503937007874016,
          "duration": 0.8097824062498944
        },
        {
          "name": "F#2",
          "midi": 42,
          "time": 170.0869139999976,
          "velocity": 0.7244094488188977,
          "duration": 0.0054347812499884185
        },
        {
          "name": "C2",
          "midi": 36,
          "time": 170.0869139999976,
          "velocity": 0.8661417322834646,
          "duration": 0.0054347812499884185
        },
        {
          "name": "B3",
          "midi": 59,
          "time": 170.31517481249756,
          "velocity": 0.7716535433070866,
          "duration": 0.05434781249999787
        },
        {
          "name": "F#2",
          "midi": 42,
          "time": 170.34234871874756,
          "velocity": 0.36220472440944884,
          "duration": 0.0054347812499884185
        },
        {
          "name": "E2",
          "midi": 40,
          "time": 170.34234871874756,
          "velocity": 0.6614173228346457,
          "duration": 0.16847821874998203
        },
        {
          "name": "B3",
          "midi": 59,
          "time": 170.34234871874756,
          "velocity": 0.7795275590551181,
          "duration": 0.777173718749907
        },
        {
          "name": "A4",
          "midi": 69,
          "time": 170.35865306249755,
          "velocity": 0.7874015748031497,
          "duration": 0.7663041562499018
        },
        {
          "name": "E3",
          "midi": 52,
          "time": 170.57604431249754,
          "velocity": 0.7165354330708661,
          "duration": 0.05434781249996945
        },
        {
          "name": "F#2",
          "midi": 42,
          "time": 170.60321821874754,
          "velocity": 0.7086614173228346,
          "duration": 0.0054347812499884185
        },
        {
          "name": "E2",
          "midi": 40,
          "time": 170.60321821874754,
          "velocity": 0.8976377952755905,
          "duration": 0.010869562499976837
        },
        {
          "name": "E3",
          "midi": 52,
          "time": 170.60321821874754,
          "velocity": 0.7007874015748031,
          "duration": 0.24456515624999042
        },
        {
          "name": "E2",
          "midi": 40,
          "time": 170.60865299999753,
          "velocity": 0.9291338582677166,
          "duration": 0.15217387499998836
        },
        {
          "name": "E4",
          "midi": 64,
          "time": 170.83691381249753,
          "velocity": 0.7874015748031497,
          "duration": 0.2826086249999378
        },
        {
          "name": "A4",
          "midi": 69,
          "time": 170.86408771874753,
          "velocity": 0.7716535433070866,
          "duration": 1.9891299374997118
        },
        {
          "name": "E2",
          "midi": 40,
          "time": 170.86408771874753,
          "velocity": 0.8188976377952756,
          "duration": 0.17934778124995887
        },
        {
          "name": "E4",
          "midi": 64,
          "time": 170.86408771874753,
          "velocity": 0.6692913385826772,
          "duration": 0.26086949999992726
        },
        {
          "name": "F#2",
          "midi": 42,
          "time": 170.86952249999752,
          "velocity": 0.4015748031496063,
          "duration": 0.0054347812499884185
        },
        {
          "name": "F#2",
          "midi": 42,
          "time": 171.10321809374747,
          "velocity": 0.9212598425196851,
          "duration": 0.03804346874994735
        },
        {
          "name": "C2",
          "midi": 36,
          "time": 171.13039199999744,
          "velocity": 0.8740157480314961,
          "duration": 0.0054347812499884185
        },
        {
          "name": "F#2",
          "midi": 42,
          "time": 171.13039199999744,
          "velocity": 0.952755905511811,
          "duration": 0.027173906249970514
        },
        {
          "name": "F#2",
          "midi": 42,
          "time": 171.13039199999744,
          "velocity": 0.9763779527559056,
          "duration": 0.17391299999997045
        },
        {
          "name": "E4",
          "midi": 64,
          "time": 171.13039199999744,
          "velocity": 0.5511811023622047,
          "duration": 4.168477218749501
        },
        {
          "name": "A4",
          "midi": 69,
          "time": 171.13039199999744,
          "velocity": 0.5275590551181102,
          "duration": 2.5869558749996884
        },
        {
          "name": "F#2",
          "midi": 42,
          "time": 171.13582678124743,
          "velocity": 0.84251968503937,
          "duration": 0.2608694999999557
        },
        {
          "name": "C#3",
          "midi": 49,
          "time": 171.3586528124974,
          "velocity": 0.6141732283464567,
          "duration": 0.05434781249996945
        },
        {
          "name": "C#3",
          "midi": 49,
          "time": 171.3858267187474,
          "velocity": 0.6692913385826772,
          "duration": 0.3858694687499167
        },
        {
          "name": "F#2",
          "midi": 42,
          "time": 171.3912614999974,
          "velocity": 0.4566929133858268,
          "duration": 0.17391299999997045
        },
        {
          "name": "F#2",
          "midi": 42,
          "time": 171.3912614999974,
          "velocity": 0.7952755905511811,
          "duration": 0.2663042812499441
        },
        {
          "name": "G#3",
          "midi": 56,
          "time": 171.61952231249737,
          "velocity": 0.8503937007874016,
          "duration": 0.05434781249996945
        },
        {
          "name": "G#3",
          "midi": 56,
          "time": 171.64669621874737,
          "velocity": 0.905511811023622,
          "duration": 0.25543471874996726
        },
        {
          "name": "E2",
          "midi": 40,
          "time": 171.65213099999735,
          "velocity": 0.9291338582677166,
          "duration": 0.0054347812499884185
        },
        {
          "name": "F#2",
          "midi": 42,
          "time": 171.65213099999735,
          "velocity": 0.6771653543307087,
          "duration": 0.17934778124995887
        },
        {
          "name": "F#2",
          "midi": 42,
          "time": 171.65213099999735,
          "velocity": 0.9448818897637795,
          "duration": 0.2663042812499441
        },
        {
          "name": "C#3",
          "midi": 49,
          "time": 171.88039181249732,
          "velocity": 0.7086614173228346,
          "duration": 0.05434781249996945
        },
        {
          "name": "C#3",
          "midi": 49,
          "time": 171.90756571874732,
          "velocity": 0.7637795275590551,
          "duration": 0.6467389687499292
        },
        {
          "name": "F#2",
          "midi": 42,
          "time": 171.9130004999973,
          "velocity": 0.49606299212598426,
          "duration": 0.13043474999997784
        },
        {
          "name": "C2",
          "midi": 36,
          "time": 171.9130004999973,
          "velocity": 0.5905511811023622,
          "duration": 0.0054347812499884185
        },
        {
          "name": "F#2",
          "midi": 42,
          "time": 171.9184352812473,
          "velocity": 0.7637795275590551,
          "duration": 0.2663042812499441
        },
        {
          "name": "A3",
          "midi": 57,
          "time": 172.14126131249728,
          "velocity": 0.7952755905511811,
          "duration": 0.05434781249996945
        },
        {
          "name": "F#2",
          "midi": 42,
          "time": 172.16843521874728,
          "velocity": 0.952755905511811,
          "duration": 0.15760865624997678
        },
        {
          "name": "A3",
          "midi": 57,
          "time": 172.16843521874728,
          "velocity": 0.8503937007874016,
          "duration": 0.2554347187499957
        },
        {
          "name": "C2",
          "midi": 36,
          "time": 172.17386999999727,
          "velocity": 0.8740157480314961,
          "duration": 0.0054347812499884185
        },
        {
          "name": "F#2",
          "midi": 42,
          "time": 172.17930478124725,
          "velocity": 0.7244094488188977,
          "duration": 0.26630428125000094
        },
        {
          "name": "G#3",
          "midi": 56,
          "time": 172.40213081249726,
          "velocity": 0.7716535433070866,
          "duration": 0.05434781249999787
        },
        {
          "name": "G#3",
          "midi": 56,
          "time": 172.42930471874726,
          "velocity": 0.8267716535433071,
          "duration": 0.48913031249998085
        },
        {
          "name": "F#2",
          "midi": 42,
          "time": 172.44017428124727,
          "velocity": 0.36220472440944884,
          "duration": 0.15217387499998836
        },
        {
          "name": "F#2",
          "midi": 42,
          "time": 172.44017428124727,
          "velocity": 0.8267716535433071,
          "duration": 0.2663042812499441
        },
        {
          "name": "C#3",
          "midi": 49,
          "time": 172.66300031249725,
          "velocity": 0.7165354330708661,
          "duration": 0.05434781249996945
        },
        {
          "name": "F#2",
          "midi": 42,
          "time": 172.69017421874725,
          "velocity": 0.9448818897637795,
          "duration": 0.1413043124999831
        },
        {
          "name": "C#3",
          "midi": 49,
          "time": 172.69017421874725,
          "velocity": 0.7716535433070866,
          "duration": 0.3858694687499735
        },
        {
          "name": "E2",
          "midi": 40,
          "time": 172.69560899999723,
          "velocity": 0.9291338582677166,
          "duration": 0.0054347812499884185
        },
        {
          "name": "F#2",
          "midi": 42,
          "time": 172.70104378124722,
          "velocity": 0.7716535433070866,
          "duration": 0.2554347187499957
        },
        {
          "name": "G#3",
          "midi": 56,
          "time": 172.92386981249723,
          "velocity": 0.7874015748031497,
          "duration": 0.05434781249999787
        },
        {
          "name": "F#2",
          "midi": 42,
          "time": 172.95104371874723,
          "velocity": 0.4409448818897638,
          "duration": 0.13043474999997784
        },
        {
          "name": "F#2",
          "midi": 42,
          "time": 172.95104371874723,
          "velocity": 0.7795275590551181,
          "duration": 0.14673909374997152
        },
        {
          "name": "G#3",
          "midi": 56,
          "time": 172.95104371874723,
          "velocity": 0.84251968503937,
          "duration": 0.244565156249962
        },
        {
          "name": "F#2",
          "midi": 42,
          "time": 173.1901740937472,
          "velocity": 0.9212598425196851,
          "duration": 0.03804346874994735
        },
        {
          "name": "F#2",
          "midi": 42,
          "time": 173.21191321874718,
          "velocity": 0.952755905511811,
          "duration": 0.03260868749995893
        },
        {
          "name": "C2",
          "midi": 36,
          "time": 173.21734799999717,
          "velocity": 0.905511811023622,
          "duration": 0.0054347812499884185
        },
        {
          "name": "F#2",
          "midi": 42,
          "time": 173.21734799999717,
          "velocity": 0.9763779527559056,
          "duration": 0.124999968749961
        },
        {
          "name": "F#2",
          "midi": 42,
          "time": 173.22278278124716,
          "velocity": 0.84251968503937,
          "duration": 0.2663042812499725
        },
        {
          "name": "C#3",
          "midi": 49,
          "time": 173.44560881249714,
          "velocity": 0.6141732283464567,
          "duration": 0.05434781249999787
        },
        {
          "name": "A4",
          "midi": 69,
          "time": 173.46191315624714,
          "velocity": 0.8976377952755905,
          "duration": 0.532608562499945
        },
        {
          "name": "F#2",
          "midi": 42,
          "time": 173.47278271874714,
          "velocity": 0.7795275590551181,
          "duration": 0.12499996874998942
        },
        {
          "name": "C#3",
          "midi": 49,
          "time": 173.47278271874714,
          "velocity": 0.6692913385826772,
          "duration": 0.3858694687499451
        },
        {
          "name": "F#2",
          "midi": 42,
          "time": 173.48365228124715,
          "velocity": 0.4094488188976378,
          "duration": 0.2608694999999557
        },
        {
          "name": "G#3",
          "midi": 56,
          "time": 173.70647831249713,
          "velocity": 0.8503937007874016,
          "duration": 0.05434781249996945
        },
        {
          "name": "F#2",
          "midi": 42,
          "time": 173.73365221874712,
          "velocity": 0.952755905511811,
          "duration": 0.17934778124995887
        },
        {
          "name": "G#3",
          "midi": 56,
          "time": 173.73365221874712,
          "velocity": 0.905511811023622,
          "duration": 0.244565156249962
        },
        {
          "name": "A4",
          "midi": 69,
          "time": 173.7390869999971,
          "velocity": 0.7952755905511811,
          "duration": 1.559782218749831
        },
        {
          "name": "E2",
          "midi": 40,
          "time": 173.7390869999971,
          "velocity": 0.9291338582677166,
          "duration": 0.0054347812499884185
        },
        {
          "name": "F#2",
          "midi": 42,
          "time": 173.7390869999971,
          "velocity": 0.7086614173228346,
          "duration": 0.2717390624999325
        },
        {
          "name": "C#3",
          "midi": 49,
          "time": 173.96734781249708,
          "velocity": 0.7086614173228346,
          "duration": 0.05434781249996945
        },
        {
          "name": "C#5",
          "midi": 73,
          "time": 173.98365215624708,
          "velocity": 0.905511811023622,
          "duration": 0.5163042187499514
        },
        {
          "name": "F#2",
          "midi": 42,
          "time": 173.99452171874708,
          "velocity": 0.8503937007874016,
          "duration": 0.1413043124999831
        },
        {
          "name": "C#3",
          "midi": 49,
          "time": 173.99452171874708,
          "velocity": 0.7637795275590551,
          "duration": 0.5163042187499514
        },
        {
          "name": "C2",
          "midi": 36,
          "time": 173.99995649999707,
          "velocity": 0.5748031496062992,
          "duration": 0.0054347812499884185
        },
        {
          "name": "F#2",
          "midi": 42,
          "time": 174.00539128124706,
          "velocity": 0.3858267716535433,
          "duration": 0.2663042812499725
        },
        {
          "name": "A3",
          "midi": 57,
          "time": 174.22821731249707,
          "velocity": 0.7952755905511811,
          "duration": 0.05434781249996945
        },
        {
          "name": "F#2",
          "midi": 42,
          "time": 174.25539121874706,
          "velocity": 0.8503937007874016,
          "duration": 0.1630434374999652
        },
        {
          "name": "A3",
          "midi": 57,
          "time": 174.25539121874706,
          "velocity": 0.8503937007874016,
          "duration": 0.25543471874996726
        },
        {
          "name": "C2",
          "midi": 36,
          "time": 174.26082599999705,
          "velocity": 0.8582677165354331,
          "duration": 0.0054347812499884185
        },
        {
          "name": "F#2",
          "midi": 42,
          "time": 174.26626078124704,
          "velocity": 0.7716535433070866,
          "duration": 0.25543471874996726
        },
        {
          "name": "G#3",
          "midi": 56,
          "time": 174.48908681249702,
          "velocity": 0.7716535433070866,
          "duration": 0.05434781249999787
        },
        {
          "name": "D5",
          "midi": 74,
          "time": 174.49995637499703,
          "velocity": 0.7952755905511811,
          "duration": 0.5489129062499387
        },
        {
          "name": "F#2",
          "midi": 42,
          "time": 174.51626071874702,
          "velocity": 0.3858267716535433,
          "duration": 0.15217387499998836
        },
        {
          "name": "F#2",
          "midi": 42,
          "time": 174.51626071874702,
          "velocity": 0.8503937007874016,
          "duration": 0.2771738437499778
        },
        {
          "name": "G#3",
          "midi": 56,
          "time": 174.51626071874702,
          "velocity": 0.8267716535433071,
          "duration": 0.47282596874995875
        },
        {
          "name": "C#3",
          "midi": 49,
          "time": 174.75539109374702,
          "velocity": 0.7165354330708661,
          "duration": 0.05434781249996945
        },
        {
          "name": "F#2",
          "midi": 42,
          "time": 174.77713021874703,
          "velocity": 0.6377952755905512,
          "duration": 0.05978259374995787
        },
        {
          "name": "C#3",
          "midi": 49,
          "time": 174.77713021874703,
          "velocity": 0.7716535433070866,
          "duration": 0.3858694687499451
        },
        {
          "name": "E2",
          "midi": 40,
          "time": 174.78256499999702,
          "velocity": 0.9291338582677166,
          "duration": 0.0054347812499884185
        },
        {
          "name": "F#2",
          "midi": 42,
          "time": 174.787999781247,
          "velocity": 0.84251968503937,
          "duration": 0.25543471874996726
        },
        {
          "name": "A2",
          "midi": 45,
          "time": 174.90756496874698,
          "velocity": 0.8031496062992126,
          "duration": 0.12499996875001784
        },
        {
          "name": "G#3",
          "midi": 56,
          "time": 175.010825812497,
          "velocity": 0.7874015748031497,
          "duration": 0.05434781249996945
        },
        {
          "name": "F#2",
          "midi": 42,
          "time": 175.037999718747,
          "velocity": 0.31496062992125984,
          "duration": 0.07608693749997997
        },
        {
          "name": "F#2",
          "midi": 42,
          "time": 175.037999718747,
          "velocity": 0.8267716535433071,
          "duration": 0.14673909374997152
        },
        {
          "name": "G#3",
          "midi": 56,
          "time": 175.037999718747,
          "velocity": 0.84251968503937,
          "duration": 0.244565156249962
        },
        {
          "name": "A4",
          "midi": 69,
          "time": 175.05973884374697,
          "velocity": 0.7559055118110236,
          "duration": 0.41304337499994404
        },
        {
          "name": "E2",
          "midi": 40,
          "time": 175.16843446874697,
          "velocity": 0.8661417322834646,
          "duration": 0.14130431249995468
        },
        {
          "name": "D3",
          "midi": 50,
          "time": 175.27713009374696,
          "velocity": 0.9212598425196851,
          "duration": 0.05434781249994103
        },
        {
          "name": "C2",
          "midi": 36,
          "time": 175.30430399999693,
          "velocity": 0.8503937007874016,
          "duration": 0.0054347812499884185
        },
        {
          "name": "D3",
          "midi": 50,
          "time": 175.30430399999693,
          "velocity": 0.9763779527559056,
          "duration": 0.7771737187498502
        },
        {
          "name": "E4",
          "midi": 64,
          "time": 175.30430399999693,
          "velocity": 0.5511811023622047,
          "duration": 0.5434781249998935
        },
        {
          "name": "A4",
          "midi": 69,
          "time": 175.30430399999693,
          "velocity": 0.5118110236220472,
          "duration": 0.489130312499924
        },
        {
          "name": "F#2",
          "midi": 42,
          "time": 175.30973878124692,
          "velocity": 0.84251968503937,
          "duration": 0.0054347812499884185
        },
        {
          "name": "D2",
          "midi": 38,
          "time": 175.30973878124692,
          "velocity": 0.9133858267716536,
          "duration": 0.13586953124999468
        },
        {
          "name": "A3",
          "midi": 57,
          "time": 175.5325648124969,
          "velocity": 0.6141732283464567,
          "duration": 0.05434781249996945
        },
        {
          "name": "A4",
          "midi": 69,
          "time": 175.5488691562469,
          "velocity": 0.7952755905511811,
          "duration": 0.5054346562499177
        },
        {
          "name": "A3",
          "midi": 57,
          "time": 175.5597387187469,
          "velocity": 0.6692913385826772,
          "duration": 0.5163042187498945
        },
        {
          "name": "D2",
          "midi": 38,
          "time": 175.5651734999969,
          "velocity": 0.8818897637795275,
          "duration": 0.16847821874998203
        },
        {
          "name": "F#2",
          "midi": 42,
          "time": 175.57060828124688,
          "velocity": 0.4330708661417323,
          "duration": 0.0054347812499884185
        },
        {
          "name": "E4",
          "midi": 64,
          "time": 175.79343431249686,
          "velocity": 0.7952755905511811,
          "duration": 0.4130433749998872
        },
        {
          "name": "A4",
          "midi": 69,
          "time": 175.80430387499686,
          "velocity": 0.6220472440944882,
          "duration": 1.5815213437498414
        },
        {
          "name": "F#2",
          "midi": 42,
          "time": 175.82060821874686,
          "velocity": 0.7559055118110236,
          "duration": 0.0054347812499884185
        },
        {
          "name": "E4",
          "midi": 64,
          "time": 175.82060821874686,
          "velocity": 0.8503937007874016,
          "duration": 2.635868906249698
        },
        {
          "name": "E2",
          "midi": 40,
          "time": 175.82604299999684,
          "velocity": 0.9291338582677166,
          "duration": 0.0054347812499884185
        },
        {
          "name": "D2",
          "midi": 38,
          "time": 175.82604299999684,
          "velocity": 0.9133858267716536,
          "duration": 0.15760865624997678
        },
        {
          "name": "A3",
          "midi": 57,
          "time": 176.0543038124968,
          "velocity": 0.7086614173228346,
          "duration": 0.05434781249994103
        },
        {
          "name": "D3",
          "midi": 50,
          "time": 176.0597385937468,
          "velocity": 0.7401574803149606,
          "duration": 0.05434781249994103
        },
        {
          "name": "A3",
          "midi": 57,
          "time": 176.08147771874678,
          "velocity": 0.7637795275590551,
          "duration": 0.4836955312499356
        },
        {
          "name": "C2",
          "midi": 36,
          "time": 176.08691249999677,
          "velocity": 0.6377952755905512,
          "duration": 0.0054347812499884185
        },
        {
          "name": "D2",
          "midi": 38,
          "time": 176.08691249999677,
          "velocity": 0.8031496062992126,
          "duration": 0.16847821874998203
        },
        {
          "name": "D3",
          "midi": 50,
          "time": 176.08691249999677,
          "velocity": 0.7952755905511811,
          "duration": 0.7771737187499639
        },
        {
          "name": "F#2",
          "midi": 42,
          "time": 176.09234728124676,
          "velocity": 0.44881889763779526,
          "duration": 0.0054347812499884185
        },
        {
          "name": "D5",
          "midi": 74,
          "time": 176.09778206249675,
          "velocity": 0.8661417322834646,
          "duration": 0.5163042187499798
        },
        {
          "name": "D4",
          "midi": 62,
          "time": 176.31517331249674,
          "velocity": 0.7952755905511811,
          "duration": 0.05434781249996945
        },
        {
          "name": "D2",
          "midi": 38,
          "time": 176.34234721874674,
          "velocity": 0.9133858267716536,
          "duration": 0.16847821874998203
        },
        {
          "name": "D4",
          "midi": 62,
          "time": 176.34234721874674,
          "velocity": 0.8503937007874016,
          "duration": 0.3858694687499735
        },
        {
          "name": "C2",
          "midi": 36,
          "time": 176.34778199999673,
          "velocity": 0.8740157480314961,
          "duration": 0.0054347812499884185
        },
        {
          "name": "F#2",
          "midi": 42,
          "time": 176.35321678124672,
          "velocity": 0.7559055118110236,
          "duration": 0.0054347812499884185
        },
        {
          "name": "A3",
          "midi": 57,
          "time": 176.57604281249672,
          "velocity": 0.7716535433070866,
          "duration": 0.05434781249999787
        },
        {
          "name": "A3",
          "midi": 57,
          "time": 176.60321671874672,
          "velocity": 0.8267716535433071,
          "duration": 0.38586946875000194
        },
        {
          "name": "F#2",
          "midi": 42,
          "time": 176.61408628124673,
          "velocity": 0.44881889763779526,
          "duration": 0.0054347812499884185
        },
        {
          "name": "D2",
          "midi": 38,
          "time": 176.61408628124673,
          "velocity": 0.7401574803149606,
          "duration": 0.16304343749999362
        },
        {
          "name": "C#5",
          "midi": 73,
          "time": 176.6358254062467,
          "velocity": 0.8582677165354331,
          "duration": 0.48369553125002085
        },
        {
          "name": "D4",
          "midi": 62,
          "time": 176.84234709374672,
          "velocity": 0.5669291338582677,
          "duration": 0.05434781249999787
        },
        {
          "name": "D3",
          "midi": 50,
          "time": 176.84234709374672,
          "velocity": 0.7165354330708661,
          "duration": 0.05434781249999787
        },
        {
          "name": "E2",
          "midi": 40,
          "time": 176.86952099999672,
          "velocity": 0.9291338582677166,
          "duration": 0.0054347812499884185
        },
        {
          "name": "F#2",
          "midi": 42,
          "time": 176.86952099999672,
          "velocity": 0.7086614173228346,
          "duration": 0.0054347812499884185
        },
        {
          "name": "D4",
          "midi": 62,
          "time": 176.86952099999672,
          "velocity": 0.6220472440944882,
          "duration": 0.38586946875000194
        },
        {
          "name": "D3",
          "midi": 50,
          "time": 176.86952099999672,
          "velocity": 0.7716535433070866,
          "duration": 0.5163042187499798
        },
        {
          "name": "D2",
          "midi": 38,
          "time": 176.8749557812467,
          "velocity": 0.8976377952755905,
          "duration": 0.16847821875001046
        },
        {
          "name": "A3",
          "midi": 57,
          "time": 177.09778181249672,
          "velocity": 0.7874015748031497,
          "duration": 0.05434781249999787
        },
        {
          "name": "B4",
          "midi": 71,
          "time": 177.11952093749673,
          "velocity": 0.8503937007874016,
          "duration": 0.4456520624999598
        },
        {
          "name": "A3",
          "midi": 57,
          "time": 177.12495571874672,
          "velocity": 0.84251968503937,
          "duration": 0.24456515624999042
        },
        {
          "name": "F#2",
          "midi": 42,
          "time": 177.13582528124672,
          "velocity": 0.33070866141732286,
          "duration": 0.0054347812499884185
        },
        {
          "name": "E2",
          "midi": 40,
          "time": 177.13582528124672,
          "velocity": 0.8031496062992126,
          "duration": 0.17391299999999887
        },
        {
          "name": "E3",
          "midi": 52,
          "time": 177.36408609374672,
          "velocity": 0.9212598425196851,
          "duration": 0.05434781249996945
        },
        {
          "name": "F#2",
          "midi": 42,
          "time": 177.3912599999967,
          "velocity": 0.84251968503937,
          "duration": 0.0054347812499884185
        },
        {
          "name": "C2",
          "midi": 36,
          "time": 177.3912599999967,
          "velocity": 0.8740157480314961,
          "duration": 0.0054347812499884185
        },
        {
          "name": "E3",
          "midi": 52,
          "time": 177.3912599999967,
          "velocity": 0.8976377952755905,
          "duration": 0.7663041562499302
        },
        {
          "name": "B4",
          "midi": 71,
          "time": 177.3912599999967,
          "velocity": 0.5118110236220472,
          "duration": 0.5380433437499619
        },
        {
          "name": "E2",
          "midi": 40,
          "time": 177.39669478124668,
          "velocity": 0.8818897637795275,
          "duration": 0.16847821875001046
        },
        {
          "name": "B3",
          "midi": 59,
          "time": 177.6195208124967,
          "velocity": 0.6141732283464567,
          "duration": 0.05434781249999787
        },
        {
          "name": "B4",
          "midi": 71,
          "time": 177.63582515624668,
          "velocity": 0.7952755905511811,
          "duration": 1.8369560624997519
        },
        {
          "name": "E2",
          "midi": 40,
          "time": 177.6466947187467,
          "velocity": 0.7086614173228346,
          "duration": 0.14130431250001152
        },
        {
          "name": "B3",
          "midi": 59,
          "time": 177.6466947187467,
          "velocity": 0.6692913385826772,
          "duration": 0.3858694687499451
        },
        {
          "name": "F#2",
          "midi": 42,
          "time": 177.6575642812467,
          "velocity": 0.5196850393700787,
          "duration": 0.0054347812499884185
        },
        {
          "name": "F#4",
          "midi": 66,
          "time": 177.8803903124967,
          "velocity": 0.8503937007874016,
          "duration": 0.05434781249994103
        },
        {
          "name": "E2",
          "midi": 40,
          "time": 177.9075642187467,
          "velocity": 0.8818897637795275,
          "duration": 0.010869562499976837
        },
        {
          "name": "F#4",
          "midi": 66,
          "time": 177.9075642187467,
          "velocity": 0.7637795275590551,
          "duration": 0.38586946874988826
        },
        {
          "name": "E2",
          "midi": 40,
          "time": 177.9129989999967,
          "velocity": 0.9291338582677166,
          "duration": 0.1684782187499536
        },
        {
          "name": "A4",
          "midi": 69,
          "time": 177.91843378124668,
          "velocity": 0.7401574803149606,
          "duration": 0.22282603124995148
        },
        {
          "name": "F#2",
          "midi": 42,
          "time": 177.91843378124668,
          "velocity": 0.7480314960629921,
          "duration": 0.0054347812499884185
        },
        {
          "name": "C#5",
          "midi": 73,
          "time": 178.14125981249663,
          "velocity": 0.889763779527559,
          "duration": 0.5489129062499103
        },
        {
          "name": "B3",
          "midi": 59,
          "time": 178.14125981249663,
          "velocity": 0.7086614173228346,
          "duration": 0.05434781249996945
        },
        {
          "name": "E3",
          "midi": 52,
          "time": 178.14669459374662,
          "velocity": 0.7480314960629921,
          "duration": 0.05434781249996945
        },
        {
          "name": "F#2",
          "midi": 42,
          "time": 178.16843371874663,
          "velocity": 0.4251968503937008,
          "duration": 0.0054347812499884185
        },
        {
          "name": "E2",
          "midi": 40,
          "time": 178.16843371874663,
          "velocity": 0.7401574803149606,
          "duration": 0.17391299999997045
        },
        {
          "name": "B3",
          "midi": 59,
          "time": 178.16843371874663,
          "velocity": 0.7637795275590551,
          "duration": 0.3858694687499167
        },
        {
          "name": "C2",
          "midi": 36,
          "time": 178.17386849999662,
          "velocity": 0.5984251968503937,
          "duration": 0.0054347812499884185
        },
        {
          "name": "E3",
          "midi": 52,
          "time": 178.17386849999662,
          "velocity": 0.8031496062992126,
          "duration": 0.7336954687499144
        },
        {
          "name": "E4",
          "midi": 64,
          "time": 178.40212931249658,
          "velocity": 0.7952755905511811,
          "duration": 0.41304337499994404
        },
        {
          "name": "E2",
          "midi": 40,
          "time": 178.42930321874658,
          "velocity": 0.8346456692913385,
          "duration": 0.13586953124996626
        },
        {
          "name": "E4",
          "midi": 64,
          "time": 178.42930321874658,
          "velocity": 0.8503937007874016,
          "duration": 0.8097824062498944
        },
        {
          "name": "F#2",
          "midi": 42,
          "time": 178.43473799999657,
          "velocity": 0.7244094488188977,
          "duration": 0.0054347812499884185
        },
        {
          "name": "C2",
          "midi": 36,
          "time": 178.43473799999657,
          "velocity": 0.8661417322834646,
          "duration": 0.0054347812499884185
        },
        {
          "name": "B3",
          "midi": 59,
          "time": 178.66299881249654,
          "velocity": 0.7716535433070866,
          "duration": 0.05434781249999787
        },
        {
          "name": "A4",
          "midi": 69,
          "time": 178.69017271874654,
          "velocity": 0.7637795275590551,
          "duration": 0.45652162499996507
        },
        {
          "name": "F#2",
          "midi": 42,
          "time": 178.69017271874654,
          "velocity": 0.36220472440944884,
          "duration": 0.0054347812499884185
        },
        {
          "name": "E2",
          "midi": 40,
          "time": 178.69017271874654,
          "velocity": 0.6614173228346457,
          "duration": 0.16847821874998203
        },
        {
          "name": "B3",
          "midi": 59,
          "time": 178.69017271874654,
          "velocity": 0.7795275590551181,
          "duration": 0.777173718749907
        },
        {
          "name": "E3",
          "midi": 52,
          "time": 178.92386831249652,
          "velocity": 0.7165354330708661,
          "duration": 0.05434781249996945
        },
        {
          "name": "F#2",
          "midi": 42,
          "time": 178.95104221874652,
          "velocity": 0.7086614173228346,
          "duration": 0.0054347812499884185
        },
        {
          "name": "E2",
          "midi": 40,
          "time": 178.95104221874652,
          "velocity": 0.8976377952755905,
          "duration": 0.010869562499976837
        },
        {
          "name": "E3",
          "midi": 52,
          "time": 178.95104221874652,
          "velocity": 0.7007874015748031,
          "duration": 0.24456515624999042
        },
        {
          "name": "E2",
          "midi": 40,
          "time": 178.9564769999965,
          "velocity": 0.9291338582677166,
          "duration": 0.15217387499998836
        },
        {
          "name": "E4",
          "midi": 64,
          "time": 179.1847378124965,
          "velocity": 0.7874015748031497,
          "duration": 0.2826086249999378
        },
        {
          "name": "A4",
          "midi": 69,
          "time": 179.1956073749965,
          "velocity": 0.6929133858267716,
          "duration": 2.114129906249673
        },
        {
          "name": "E2",
          "midi": 40,
          "time": 179.2119117187465,
          "velocity": 0.8188976377952756,
          "duration": 0.17934778124995887
        },
        {
          "name": "E4",
          "midi": 64,
          "time": 179.2119117187465,
          "velocity": 0.6692913385826772,
          "duration": 0.26086949999992726
        },
        {
          "name": "F#2",
          "midi": 42,
          "time": 179.2173464999965,
          "velocity": 0.4015748031496063,
          "duration": 0.0054347812499884185
        },
        {
          "name": "F#2",
          "midi": 42,
          "time": 179.45104209374645,
          "velocity": 0.9212598425196851,
          "duration": 0.03804346874994735
        },
        {
          "name": "C2",
          "midi": 36,
          "time": 179.47821599999642,
          "velocity": 0.8740157480314961,
          "duration": 0.0054347812499884185
        },
        {
          "name": "F#2",
          "midi": 42,
          "time": 179.47821599999642,
          "velocity": 0.8740157480314961,
          "duration": 0.027173906249970514
        },
        {
          "name": "F#2",
          "midi": 42,
          "time": 179.47821599999642,
          "velocity": 0.9763779527559056,
          "duration": 0.1413043124999831
        },
        {
          "name": "E4",
          "midi": 64,
          "time": 179.47821599999642,
          "velocity": 0.5511811023622047,
          "duration": 4.1684772187494445
        },
        {
          "name": "A4",
          "midi": 69,
          "time": 179.47821599999642,
          "velocity": 0.5275590551181102,
          "duration": 4.1684772187494445
        },
        {
          "name": "F#2",
          "midi": 42,
          "time": 179.4836507812464,
          "velocity": 0.84251968503937,
          "duration": 0.2608694999999841
        },
        {
          "name": "C#3",
          "midi": 49,
          "time": 179.70647681249642,
          "velocity": 0.6141732283464567,
          "duration": 0.05434781249996945
        },
        {
          "name": "C#3",
          "midi": 49,
          "time": 179.73365071874642,
          "velocity": 0.6692913385826772,
          "duration": 0.3858694687499167
        },
        {
          "name": "F#2",
          "midi": 42,
          "time": 179.7390854999964,
          "velocity": 0.4566929133858268,
          "duration": 0.19565212499998097
        },
        {
          "name": "F#2",
          "midi": 42,
          "time": 179.7445202812464,
          "velocity": 0.8110236220472441,
          "duration": 0.2608694999999557
        },
        {
          "name": "G#3",
          "midi": 56,
          "time": 179.96734631249637,
          "velocity": 0.8503937007874016,
          "duration": 0.05434781249996945
        },
        {
          "name": "G#3",
          "midi": 56,
          "time": 179.99452021874637,
          "velocity": 0.905511811023622,
          "duration": 0.25543471874996726
        },
        {
          "name": "E2",
          "midi": 40,
          "time": 179.99995499999636,
          "velocity": 0.9291338582677166,
          "duration": 0.0054347812499884185
        },
        {
          "name": "F#2",
          "midi": 42,
          "time": 179.99995499999636,
          "velocity": 0.6771653543307087,
          "duration": 0.14673909374997152
        },
        {
          "name": "F#2",
          "midi": 42,
          "time": 180.00538978124635,
          "velocity": 0.8740157480314961,
          "duration": 0.2608694999999557
        },
        {
          "name": "C#3",
          "midi": 49,
          "time": 180.22821581249633,
          "velocity": 0.7086614173228346,
          "duration": 0.05434781249996945
        },
        {
          "name": "C#3",
          "midi": 49,
          "time": 180.25538971874633,
          "velocity": 0.7637795275590551,
          "duration": 0.6467389687499292
        },
        {
          "name": "F#2",
          "midi": 42,
          "time": 180.26082449999632,
          "velocity": 0.49606299212598426,
          "duration": 0.19565212499998097
        },
        {
          "name": "C2",
          "midi": 36,
          "time": 180.26082449999632,
          "velocity": 0.5905511811023622,
          "duration": 0.0054347812499884185
        },
        {
          "name": "F#2",
          "midi": 42,
          "time": 180.2662592812463,
          "velocity": 0.8267716535433071,
          "duration": 0.2663042812499441
        },
        {
          "name": "A3",
          "midi": 57,
          "time": 180.4890853124963,
          "velocity": 0.7952755905511811,
          "duration": 0.05434781249996945
        },
        {
          "name": "F#2",
          "midi": 42,
          "time": 180.51625921874628,
          "velocity": 0.8110236220472441,
          "duration": 0.1413043124999831
        },
        {
          "name": "A3",
          "midi": 57,
          "time": 180.51625921874628,
          "velocity": 0.8503937007874016,
          "duration": 0.2554347187499957
        },
        {
          "name": "C2",
          "midi": 36,
          "time": 180.52169399999627,
          "velocity": 0.8740157480314961,
          "duration": 0.0054347812499884185
        },
        {
          "name": "F#2",
          "midi": 42,
          "time": 180.52712878124626,
          "velocity": 0.7244094488188977,
          "duration": 0.26630428125000094
        },
        {
          "name": "G#3",
          "midi": 56,
          "time": 180.74995481249627,
          "velocity": 0.7716535433070866,
          "duration": 0.05434781249999787
        },
        {
          "name": "F#2",
          "midi": 42,
          "time": 180.77712871874627,
          "velocity": 0.7952755905511811,
          "duration": 0.13043474999997784
        },
        {
          "name": "G#3",
          "midi": 56,
          "time": 180.77712871874627,
          "velocity": 0.8267716535433071,
          "duration": 0.4891303124999524
        },
        {
          "name": "F#2",
          "midi": 42,
          "time": 180.78799828124627,
          "velocity": 0.36220472440944884,
          "duration": 0.2663042812499441
        },
        {
          "name": "C#3",
          "midi": 49,
          "time": 181.01082431249625,
          "velocity": 0.7165354330708661,
          "duration": 0.05434781249996945
        },
        {
          "name": "F#2",
          "midi": 42,
          "time": 181.03799821874625,
          "velocity": 0.8740157480314961,
          "duration": 0.124999968749961
        },
        {
          "name": "C#3",
          "midi": 49,
          "time": 181.03799821874625,
          "velocity": 0.7716535433070866,
          "duration": 0.3858694687499167
        },
        {
          "name": "E2",
          "midi": 40,
          "time": 181.04343299999624,
          "velocity": 0.9291338582677166,
          "duration": 0.0054347812499884185
        },
        {
          "name": "F#2",
          "midi": 42,
          "time": 181.04886778124623,
          "velocity": 0.7716535433070866,
          "duration": 0.25543471874996726
        },
        {
          "name": "G#3",
          "midi": 56,
          "time": 181.2716938124962,
          "velocity": 0.7874015748031497,
          "duration": 0.05434781249996945
        },
        {
          "name": "F#2",
          "midi": 42,
          "time": 181.2988677187462,
          "velocity": 0.4409448818897638,
          "duration": 0.13043474999994942
        },
        {
          "name": "F#2",
          "midi": 42,
          "time": 181.2988677187462,
          "velocity": 0.7795275590551181,
          "duration": 0.1467390937499431
        },
        {
          "name": "G#3",
          "midi": 56,
          "time": 181.2988677187462,
          "velocity": 0.84251968503937,
          "duration": 0.24456515624993358
        },
        {
          "name": "F#2",
          "midi": 42,
          "time": 181.53799809374615,
          "velocity": 0.9212598425196851,
          "duration": 0.03804346874994735
        },
        {
          "name": "F#2",
          "midi": 42,
          "time": 181.55973721874614,
          "velocity": 0.9212598425196851,
          "duration": 0.03260868749995893
        },
        {
          "name": "C2",
          "midi": 36,
          "time": 181.56517199999612,
          "velocity": 0.905511811023622,
          "duration": 0.0054347812499884185
        },
        {
          "name": "F#2",
          "midi": 42,
          "time": 181.56517199999612,
          "velocity": 0.9763779527559056,
          "duration": 0.15217387499995993
        },
        {
          "name": "F#2",
          "midi": 42,
          "time": 181.5706067812461,
          "velocity": 0.84251968503937,
          "duration": 0.2663042812499725
        },
        {
          "name": "C#3",
          "midi": 49,
          "time": 181.7934328124961,
          "velocity": 0.6141732283464567,
          "duration": 0.05434781249999787
        },
        {
          "name": "F#2",
          "midi": 42,
          "time": 181.8206067187461,
          "velocity": 0.8976377952755905,
          "duration": 0.19021734374999255
        },
        {
          "name": "C#3",
          "midi": 49,
          "time": 181.8206067187461,
          "velocity": 0.6692913385826772,
          "duration": 0.3858694687499451
        },
        {
          "name": "F#2",
          "midi": 42,
          "time": 181.8314762812461,
          "velocity": 0.4094488188976378,
          "duration": 0.2608694999999557
        },
        {
          "name": "G#3",
          "midi": 56,
          "time": 182.05430231249608,
          "velocity": 0.8503937007874016,
          "duration": 0.05434781249996945
        },
        {
          "name": "F#2",
          "midi": 42,
          "time": 182.08147621874608,
          "velocity": 0.8976377952755905,
          "duration": 0.15760865624994835
        },
        {
          "name": "G#3",
          "midi": 56,
          "time": 182.08147621874608,
          "velocity": 0.905511811023622,
          "duration": 0.244565156249962
        },
        {
          "name": "E2",
          "midi": 40,
          "time": 182.08691099999606,
          "velocity": 0.9291338582677166,
          "duration": 0.0054347812499884185
        },
        {
          "name": "F#2",
          "midi": 42,
          "time": 182.08691099999606,
          "velocity": 0.7086614173228346,
          "duration": 0.2717390624999325
        },
        {
          "name": "C#3",
          "midi": 49,
          "time": 182.31517181249603,
          "velocity": 0.7086614173228346,
          "duration": 0.05434781249996945
        },
        {
          "name": "C#3",
          "midi": 49,
          "time": 182.34234571874603,
          "velocity": 0.7637795275590551,
          "duration": 0.5163042187499514
        },
        {
          "name": "C2",
          "midi": 36,
          "time": 182.34778049999602,
          "velocity": 0.5748031496062992,
          "duration": 0.0054347812499884185
        },
        {
          "name": "F#2",
          "midi": 42,
          "time": 182.353215281246,
          "velocity": 0.3858267716535433,
          "duration": 0.14673909374999994
        },
        {
          "name": "F#2",
          "midi": 42,
          "time": 182.353215281246,
          "velocity": 0.7952755905511811,
          "duration": 0.2663042812499725
        },
        {
          "name": "A3",
          "midi": 57,
          "time": 182.57604131249602,
          "velocity": 0.7952755905511811,
          "duration": 0.05434781249996945
        },
        {
          "name": "F#2",
          "midi": 42,
          "time": 182.60321521874602,
          "velocity": 0.8740157480314961,
          "duration": 0.25543471874996726
        },
        {
          "name": "A3",
          "midi": 57,
          "time": 182.60321521874602,
          "velocity": 0.8503937007874016,
          "duration": 0.25543471874996726
        },
        {
          "name": "C2",
          "midi": 36,
          "time": 182.608649999996,
          "velocity": 0.8582677165354331,
          "duration": 0.0054347812499884185
        },
        {
          "name": "F#2",
          "midi": 42,
          "time": 182.614084781246,
          "velocity": 0.7716535433070866,
          "duration": 0.25543471874996726
        },
        {
          "name": "G#3",
          "midi": 56,
          "time": 182.83691081249597,
          "velocity": 0.7716535433070866,
          "duration": 0.05434781249996945
        },
        {
          "name": "F#2",
          "midi": 42,
          "time": 182.86408471874597,
          "velocity": 0.3858267716535433,
          "duration": 0.27717384374994936
        },
        {
          "name": "G#3",
          "midi": 56,
          "time": 182.86408471874597,
          "velocity": 0.8267716535433071,
          "duration": 0.4728259687499303
        },
        {
          "name": "E2",
          "midi": 40,
          "time": 182.87495428124595,
          "velocity": 0.8267716535433071,
          "duration": 0.2173912499999915
        },
        {
          "name": "C#3",
          "midi": 49,
          "time": 183.10321509374594,
          "velocity": 0.7165354330708661,
          "duration": 0.05434781249996945
        },
        {
          "name": "C#3",
          "midi": 49,
          "time": 183.12495421874596,
          "velocity": 0.7716535433070866,
          "duration": 0.3858694687499451
        },
        {
          "name": "E2",
          "midi": 40,
          "time": 183.13038899999594,
          "velocity": 0.9291338582677166,
          "duration": 0.0054347812499884185
        },
        {
          "name": "E2",
          "midi": 40,
          "time": 183.13038899999594,
          "velocity": 0.8267716535433071,
          "duration": 0.25543471874996726
        },
        {
          "name": "F#2",
          "midi": 42,
          "time": 183.13582378124593,
          "velocity": 0.84251968503937,
          "duration": 0.25543471874996726
        },
        {
          "name": "G#3",
          "midi": 56,
          "time": 183.3586498124959,
          "velocity": 0.7874015748031497,
          "duration": 0.05434781249999787
        },
        {
          "name": "F#2",
          "midi": 42,
          "time": 183.3858237187459,
          "velocity": 0.31496062992125984,
          "duration": 0.14673909374999994
        },
        {
          "name": "G#3",
          "midi": 56,
          "time": 183.3858237187459,
          "velocity": 0.84251968503937,
          "duration": 0.244565156249962
        },
        {
          "name": "F#2",
          "midi": 42,
          "time": 183.3912584999959,
          "velocity": 0.7322834645669292,
          "duration": 0.17391299999999887
        },
        {
          "name": "F#2",
          "midi": 42,
          "time": 183.62495409374588,
          "velocity": 0.9212598425196851,
          "duration": 0.03804346874994735
        },
        {
          "name": "C2",
          "midi": 36,
          "time": 183.65212799999586,
          "velocity": 0.8818897637795275,
          "duration": 0.0054347812499884185
        },
        {
          "name": "F#1",
          "midi": 30,
          "time": 183.65212799999586,
          "velocity": 0.952755905511811,
          "duration": 0.17391299999997045
        },
        {
          "name": "F#2",
          "midi": 42,
          "time": 183.65212799999586,
          "velocity": 0.9763779527559056,
          "duration": 0.027173906249970514
        },
        {
          "name": "E4",
          "midi": 64,
          "time": 183.65212799999586,
          "velocity": 0.5511811023622047,
          "duration": 4.16847721874953
        },
        {
          "name": "A4",
          "midi": 69,
          "time": 183.65212799999586,
          "velocity": 0.5511811023622047,
          "duration": 4.16847721874953
        },
        {
          "name": "F#2",
          "midi": 42,
          "time": 183.65756278124584,
          "velocity": 0.7480314960629921,
          "duration": 0.2663042812499725
        },
        {
          "name": "C#3",
          "midi": 49,
          "time": 183.88038881249582,
          "velocity": 0.6141732283464567,
          "duration": 0.05434781249999787
        },
        {
          "name": "F#1",
          "midi": 30,
          "time": 183.90756271874582,
          "velocity": 0.7322834645669292,
          "duration": 0.17391299999999887
        },
        {
          "name": "C#3",
          "midi": 49,
          "time": 183.90756271874582,
          "velocity": 0.6692913385826772,
          "duration": 0.3858694687499451
        },
        {
          "name": "F#2",
          "midi": 42,
          "time": 183.91843228124583,
          "velocity": 0.30708661417322836,
          "duration": 0.2663042812499441
        },
        {
          "name": "G#3",
          "midi": 56,
          "time": 184.1412583124958,
          "velocity": 0.8503937007874016,
          "duration": 0.05434781249996945
        },
        {
          "name": "F#1",
          "midi": 30,
          "time": 184.1684322187458,
          "velocity": 0.952755905511811,
          "duration": 0.17391299999997045
        },
        {
          "name": "G#3",
          "midi": 56,
          "time": 184.1684322187458,
          "velocity": 0.905511811023622,
          "duration": 0.25543471874996726
        },
        {
          "name": "E2",
          "midi": 40,
          "time": 184.1738669999958,
          "velocity": 0.9291338582677166,
          "duration": 0.0054347812499884185
        },
        {
          "name": "F#2",
          "midi": 42,
          "time": 184.17930178124578,
          "velocity": 0.7480314960629921,
          "duration": 0.2663042812499441
        },
        {
          "name": "C#3",
          "midi": 49,
          "time": 184.40212781249576,
          "velocity": 0.7086614173228346,
          "duration": 0.05434781249996945
        },
        {
          "name": "C#3",
          "midi": 49,
          "time": 184.42930171874576,
          "velocity": 0.7637795275590551,
          "duration": 0.6467389687499008
        },
        {
          "name": "C2",
          "midi": 36,
          "time": 184.43473649999575,
          "velocity": 0.6377952755905512,
          "duration": 0.0054347812499884185
        },
        {
          "name": "F#2",
          "midi": 42,
          "time": 184.44017128124574,
          "velocity": 0.4094488188976378,
          "duration": 0.25543471874996726
        },
        {
          "name": "F#1",
          "midi": 30,
          "time": 184.44017128124574,
          "velocity": 0.8267716535433071,
          "duration": 0.16847821874998203
        },
        {
          "name": "A3",
          "midi": 57,
          "time": 184.66299731249572,
          "velocity": 0.7952755905511811,
          "duration": 0.05434781249996945
        },
        {
          "name": "F#2",
          "midi": 42,
          "time": 184.69017121874572,
          "velocity": 0.7480314960629921,
          "duration": 0.2663042812499441
        },
        {
          "name": "F#1",
          "midi": 30,
          "time": 184.69017121874572,
          "velocity": 0.952755905511811,
          "duration": 0.1630434374999652
        },
        {
          "name": "A3",
          "midi": 57,
          "time": 184.69017121874572,
          "velocity": 0.8503937007874016,
          "duration": 0.25543471874996726
        },
        {
          "name": "C2",
          "midi": 36,
          "time": 184.6956059999957,
          "velocity": 0.8582677165354331,
          "duration": 0.0054347812499884185
        },
        {
          "name": "G#3",
          "midi": 56,
          "time": 184.92386681249567,
          "velocity": 0.7716535433070866,
          "duration": 0.05434781249999787
        },
        {
          "name": "F#2",
          "midi": 42,
          "time": 184.95104071874567,
          "velocity": 0.49606299212598426,
          "duration": 0.2663042812499725
        },
        {
          "name": "F#1",
          "midi": 30,
          "time": 184.95104071874567,
          "velocity": 0.7952755905511811,
          "duration": 0.15217387499998836
        },
        {
          "name": "G#3",
          "midi": 56,
          "time": 184.95104071874567,
          "velocity": 0.8267716535433071,
          "duration": 0.4891303124999524
        },
        {
          "name": "C#3",
          "midi": 49,
          "time": 185.18473631249566,
          "velocity": 0.7165354330708661,
          "duration": 0.05434781249996945
        },
        {
          "name": "F#2",
          "midi": 42,
          "time": 185.21191021874566,
          "velocity": 0.7716535433070866,
          "duration": 0.2663042812499441
        },
        {
          "name": "F#1",
          "midi": 30,
          "time": 185.21191021874566,
          "velocity": 0.952755905511811,
          "duration": 0.16847821874998203
        },
        {
          "name": "C#3",
          "midi": 49,
          "time": 185.21191021874566,
          "velocity": 0.7716535433070866,
          "duration": 0.3858694687499451
        },
        {
          "name": "E2",
          "midi": 40,
          "time": 185.21734499999565,
          "velocity": 0.9291338582677166,
          "duration": 0.0054347812499884185
        },
        {
          "name": "G#3",
          "midi": 56,
          "time": 185.44560581249561,
          "velocity": 0.7874015748031497,
          "duration": 0.05434781249999787
        },
        {
          "name": "F#2",
          "midi": 42,
          "time": 185.4727797187456,
          "velocity": 0.4251968503937008,
          "duration": 0.14673909374999994
        },
        {
          "name": "F#1",
          "midi": 30,
          "time": 185.4727797187456,
          "velocity": 0.8976377952755905,
          "duration": 0.119565187500001
        },
        {
          "name": "G#3",
          "midi": 56,
          "time": 185.4727797187456,
          "velocity": 0.84251968503937,
          "duration": 0.24456515624999042
        },
        {
          "name": "F#2",
          "midi": 42,
          "time": 185.71191009374562,
          "velocity": 0.9212598425196851,
          "duration": 0.027173906249970514
        },
        {
          "name": "F#2",
          "midi": 42,
          "time": 185.7336492187456,
          "velocity": 0.8661417322834646,
          "duration": 0.032608687499987354
        },
        {
          "name": "F#2",
          "midi": 42,
          "time": 185.7336492187456,
          "velocity": 0.8267716535433071,
          "duration": 0.16847821874998203
        },
        {
          "name": "C2",
          "midi": 36,
          "time": 185.7390839999956,
          "velocity": 0.8818897637795275,
          "duration": 0.0054347812499884185
        },
        {
          "name": "F#2",
          "midi": 42,
          "time": 185.7390839999956,
          "velocity": 0.9763779527559056,
          "duration": 0.2608694999999841
        },
        {
          "name": "C#3",
          "midi": 49,
          "time": 185.96734481249558,
          "velocity": 0.6141732283464567,
          "duration": 0.05434781249996945
        },
        {
          "name": "F#2",
          "midi": 42,
          "time": 185.99451871874558,
          "velocity": 0.4566929133858268,
          "duration": 0.16847821874998203
        },
        {
          "name": "C#3",
          "midi": 49,
          "time": 185.99451871874558,
          "velocity": 0.6692913385826772,
          "duration": 0.3858694687499451
        },
        {
          "name": "F#2",
          "midi": 42,
          "time": 186.00538828124556,
          "velocity": 0.8503937007874016,
          "duration": 0.2554347187499957
        },
        {
          "name": "G#3",
          "midi": 56,
          "time": 186.22821431249557,
          "velocity": 0.8503937007874016,
          "duration": 0.05434781249996945
        },
        {
          "name": "F#2",
          "midi": 42,
          "time": 186.25538821874557,
          "velocity": 0.7480314960629921,
          "duration": 0.15217387499995993
        },
        {
          "name": "F#2",
          "midi": 42,
          "time": 186.25538821874557,
          "velocity": 0.952755905511811,
          "duration": 0.2717390624999325
        },
        {
          "name": "G#3",
          "midi": 56,
          "time": 186.25538821874557,
          "velocity": 0.905511811023622,
          "duration": 0.244565156249962
        },
        {
          "name": "C#5",
          "midi": 73,
          "time": 186.26082299999555,
          "velocity": 0.84251968503937,
          "duration": 0.29347818749994303
        },
        {
          "name": "E2",
          "midi": 40,
          "time": 186.26082299999555,
          "velocity": 0.9291338582677166,
          "duration": 0.0054347812499884185
        },
        {
          "name": "C#3",
          "midi": 49,
          "time": 186.48908381249552,
          "velocity": 0.7086614173228346,
          "duration": 0.05434781249996945
        },
        {
          "name": "C#3",
          "midi": 49,
          "time": 186.51625771874552,
          "velocity": 0.7637795275590551,
          "duration": 0.5163042187499798
        },
        {
          "name": "D5",
          "midi": 74,
          "time": 186.5216924999955,
          "velocity": 0.6771653543307087,
          "duration": 0.2554347187499957
        },
        {
          "name": "F#2",
          "midi": 42,
          "time": 186.5216924999955,
          "velocity": 0.4015748031496063,
          "duration": 0.13586953124999468
        },
        {
          "name": "C2",
          "midi": 36,
          "time": 186.5216924999955,
          "velocity": 0.6220472440944882,
          "duration": 0.0054347812499884185
        },
        {
          "name": "F#2",
          "midi": 42,
          "time": 186.5271272812455,
          "velocity": 0.8267716535433071,
          "duration": 0.2554347187499957
        },
        {
          "name": "A3",
          "midi": 57,
          "time": 186.7499533124955,
          "velocity": 0.7952755905511811,
          "duration": 0.05434781249996945
        },
        {
          "name": "F#2",
          "midi": 42,
          "time": 186.7771272187455,
          "velocity": 0.7559055118110236,
          "duration": 0.14673909374997152
        },
        {
          "name": "F#2",
          "midi": 42,
          "time": 186.7771272187455,
          "velocity": 0.952755905511811,
          "duration": 0.27173906249996094
        },
        {
          "name": "A3",
          "midi": 57,
          "time": 186.7771272187455,
          "velocity": 0.8503937007874016,
          "duration": 0.2554347187499957
        },
        {
          "name": "C2",
          "midi": 36,
          "time": 186.7825619999955,
          "velocity": 0.8740157480314961,
          "duration": 0.0054347812499884185
        },
        {
          "name": "C#5",
          "midi": 73,
          "time": 186.7988663437455,
          "velocity": 0.8267716535433071,
          "duration": 0.5054346562499745
        },
        {
          "name": "G#3",
          "midi": 56,
          "time": 187.0108228124955,
          "velocity": 0.7716535433070866,
          "duration": 0.05434781249996945
        },
        {
          "name": "E2",
          "midi": 40,
          "time": 187.0379967187455,
          "velocity": 0.8740157480314961,
          "duration": 0.1630434374999652
        },
        {
          "name": "G#3",
          "midi": 56,
          "time": 187.0379967187455,
          "velocity": 0.8267716535433071,
          "duration": 0.47282596874995875
        },
        {
          "name": "F#2",
          "midi": 42,
          "time": 187.04343149999548,
          "velocity": 0.4409448818897638,
          "duration": 0.2663042812499725
        },
        {
          "name": "C#3",
          "midi": 49,
          "time": 187.27712709374546,
          "velocity": 0.7165354330708661,
          "duration": 0.05434781249999787
        },
        {
          "name": "C#3",
          "midi": 49,
          "time": 187.29886621874547,
          "velocity": 0.7716535433070866,
          "duration": 0.3858694687499167
        },
        {
          "name": "B4",
          "midi": 71,
          "time": 187.30430099999546,
          "velocity": 0.7322834645669292,
          "duration": 0.5163042187499229
        },
        {
          "name": "E2",
          "midi": 40,
          "time": 187.30430099999546,
          "velocity": 0.9291338582677166,
          "duration": 0.0054347812499884185
        },
        {
          "name": "F#2",
          "midi": 42,
          "time": 187.30430099999546,
          "velocity": 0.7086614173228346,
          "duration": 0.2663042812499441
        },
        {
          "name": "E2",
          "midi": 40,
          "time": 187.30973578124545,
          "velocity": 0.8661417322834646,
          "duration": 0.20652168749998623
        },
        {
          "name": "G#3",
          "midi": 56,
          "time": 187.53256181249543,
          "velocity": 0.7874015748031497,
          "duration": 0.05434781249996945
        },
        {
          "name": "G#3",
          "midi": 56,
          "time": 187.55973571874543,
          "velocity": 0.84251968503937,
          "duration": 0.244565156249962
        },
        {
          "name": "F#2",
          "midi": 42,
          "time": 187.56517049999542,
          "velocity": 0.4094488188976378,
          "duration": 0.1413043124999831
        },
        {
          "name": "E2",
          "midi": 40,
          "time": 187.56517049999542,
          "velocity": 0.8031496062992126,
          "duration": 0.1847825624999757
        },
        {
          "name": "A2",
          "midi": 45,
          "time": 187.7988660937454,
          "velocity": 0.9212598425196851,
          "duration": 0.05434781249996945
        },
        {
          "name": "A4",
          "midi": 69,
          "time": 187.8151704374954,
          "velocity": 0.5669291338582677,
          "duration": 0.12499996874998942
        },
        {
          "name": "F#2",
          "midi": 42,
          "time": 187.82603999999537,
          "velocity": 0.8976377952755905,
          "duration": 0.0054347812499884185
        },
        {
          "name": "C2",
          "midi": 36,
          "time": 187.82603999999537,
          "velocity": 0.8818897637795275,
          "duration": 0.0054347812499884185
        },
        {
          "name": "A1",
          "midi": 33,
          "time": 187.82603999999537,
          "velocity": 0.9291338582677166,
          "duration": 0.119565187500001
        },
        {
          "name": "A2",
          "midi": 45,
          "time": 187.82603999999537,
          "velocity": 0.9763779527559056,
          "duration": 1.9673908124997581
        },
        {
          "name": "A4",
          "midi": 69,
          "time": 187.82603999999537,
          "velocity": 0.5511811023622047,
          "duration": 8.342389218748963
        },
        {
          "name": "E4",
          "midi": 64,
          "time": 187.82603999999537,
          "velocity": 0.6062992125984252,
          "duration": 0.5108694374999629
        },
        {
          "name": "E3",
          "midi": 52,
          "time": 188.05430081249537,
          "velocity": 0.6141732283464567,
          "duration": 0.05434781249996945
        },
        {
          "name": "C#4",
          "midi": 61,
          "time": 188.08147471874537,
          "velocity": 0.7952755905511811,
          "duration": 0.25543471874996726
        },
        {
          "name": "A3",
          "midi": 57,
          "time": 188.08147471874537,
          "velocity": 0.7952755905511811,
          "duration": 0.25543471874996726
        },
        {
          "name": "E4",
          "midi": 64,
          "time": 188.08147471874537,
          "velocity": 0.7401574803149606,
          "duration": 0.5163042187499229
        },
        {
          "name": "A1",
          "midi": 33,
          "time": 188.08147471874537,
          "velocity": 0.7165354330708661,
          "duration": 0.17934778124995887
        },
        {
          "name": "E3",
          "midi": 52,
          "time": 188.08147471874537,
          "velocity": 0.6692913385826772,
          "duration": 0.3858694687499167
        },
        {
          "name": "F#2",
          "midi": 42,
          "time": 188.09234428124535,
          "velocity": 0.4566929133858268,
          "duration": 0.0054347812499884185
        },
        {
          "name": "B3",
          "midi": 59,
          "time": 188.31517031249533,
          "velocity": 0.8503937007874016,
          "duration": 0.05434781249996945
        },
        {
          "name": "C#4",
          "midi": 61,
          "time": 188.34234421874532,
          "velocity": 0.7165354330708661,
          "duration": 0.25543471874996726
        },
        {
          "name": "A3",
          "midi": 57,
          "time": 188.34234421874532,
          "velocity": 0.7952755905511811,
          "duration": 0.25543471874996726
        },
        {
          "name": "E4",
          "midi": 64,
          "time": 188.34234421874532,
          "velocity": 0.7716535433070866,
          "duration": 0.7771737187498786
        },
        {
          "name": "A1",
          "midi": 33,
          "time": 188.34234421874532,
          "velocity": 0.9133858267716536,
          "duration": 0.19021734374996413
        },
        {
          "name": "B3",
          "midi": 59,
          "time": 188.34234421874532,
          "velocity": 0.905511811023622,
          "duration": 0.25543471874996726
        },
        {
          "name": "E2",
          "midi": 40,
          "time": 188.3477789999953,
          "velocity": 0.9291338582677166,
          "duration": 0.0054347812499884185
        },
        {
          "name": "F#2",
          "midi": 42,
          "time": 188.3532137812453,
          "velocity": 0.7244094488188977,
          "duration": 0.0054347812499884185
        },
        {
          "name": "E3",
          "midi": 52,
          "time": 188.57603981249528,
          "velocity": 0.7086614173228346,
          "duration": 0.05434781249996945
        },
        {
          "name": "E4",
          "midi": 64,
          "time": 188.60321371874528,
          "velocity": 0.7401574803149606,
          "duration": 1.0380432187498627
        },
        {
          "name": "C#4",
          "midi": 61,
          "time": 188.60321371874528,
          "velocity": 0.7559055118110236,
          "duration": 0.2880434062499262
        },
        {
          "name": "A3",
          "midi": 57,
          "time": 188.60321371874528,
          "velocity": 0.7559055118110236,
          "duration": 0.5163042187499229
        },
        {
          "name": "A1",
          "midi": 33,
          "time": 188.60321371874528,
          "velocity": 0.7795275590551181,
          "duration": 0.17934778124995887
        },
        {
          "name": "E3",
          "midi": 52,
          "time": 188.60321371874528,
          "velocity": 0.7637795275590551,
          "duration": 0.6467389687499008
        },
        {
          "name": "C2",
          "midi": 36,
          "time": 188.60864849999527,
          "velocity": 0.5905511811023622,
          "duration": 0.0054347812499884185
        },
        {
          "name": "F#2",
          "midi": 42,
          "time": 188.61408328124526,
          "velocity": 0.4330708661417323,
          "duration": 0.0054347812499884185
        },
        {
          "name": "C#4",
          "midi": 61,
          "time": 188.83690931249524,
          "velocity": 0.7952755905511811,
          "duration": 0.2826086249999662
        },
        {
          "name": "A1",
          "midi": 33,
          "time": 188.86408321874524,
          "velocity": 0.952755905511811,
          "duration": 0.17934778124995887
        },
        {
          "name": "C#4",
          "midi": 61,
          "time": 188.86408321874524,
          "velocity": 0.8503937007874016,
          "duration": 0.25543471874996726
        },
        {
          "name": "C2",
          "midi": 36,
          "time": 188.86951799999522,
          "velocity": 0.8818897637795275,
          "duration": 0.0054347812499884185
        },
        {
          "name": "F#2",
          "midi": 42,
          "time": 188.8749527812452,
          "velocity": 0.7086614173228346,
          "duration": 0.0054347812499884185
        },
        {
          "name": "B3",
          "midi": 59,
          "time": 189.0977788124952,
          "velocity": 0.7716535433070866,
          "duration": 0.05434781249999787
        },
        {
          "name": "E4",
          "midi": 64,
          "time": 189.1249527187452,
          "velocity": 0.6692913385826772,
          "duration": 0.9130432499999017
        },
        {
          "name": "A3",
          "midi": 57,
          "time": 189.1249527187452,
          "velocity": 0.8110236220472441,
          "duration": 0.5163042187499514
        },
        {
          "name": "C#4",
          "midi": 61,
          "time": 189.1249527187452,
          "velocity": 0.8110236220472441,
          "duration": 0.5163042187499514
        },
        {
          "name": "F#2",
          "midi": 42,
          "time": 189.1249527187452,
          "velocity": 0.4566929133858268,
          "duration": 0.0054347812499884185
        },
        {
          "name": "A1",
          "midi": 33,
          "time": 189.1249527187452,
          "velocity": 0.6614173228346457,
          "duration": 0.15760865624997678
        },
        {
          "name": "B3",
          "midi": 59,
          "time": 189.1249527187452,
          "velocity": 0.8267716535433071,
          "duration": 0.4891303124999524
        },
        {
          "name": "E3",
          "midi": 52,
          "time": 189.35864831249518,
          "velocity": 0.7165354330708661,
          "duration": 0.05434781249996945
        },
        {
          "name": "F#2",
          "midi": 42,
          "time": 189.38582221874518,
          "velocity": 0.6299212598425197,
          "duration": 0.0054347812499884185
        },
        {
          "name": "A1",
          "midi": 33,
          "time": 189.38582221874518,
          "velocity": 0.952755905511811,
          "duration": 0.19021734374996413
        },
        {
          "name": "E3",
          "midi": 52,
          "time": 189.38582221874518,
          "velocity": 0.7716535433070866,
          "duration": 0.3858694687499451
        },
        {
          "name": "E2",
          "midi": 40,
          "time": 189.39125699999516,
          "velocity": 0.9291338582677166,
          "duration": 0.0054347812499884185
        },
        {
          "name": "B3",
          "midi": 59,
          "time": 189.61951781249513,
          "velocity": 0.7874015748031497,
          "duration": 0.05434781249999787
        },
        {
          "name": "E4",
          "midi": 64,
          "time": 189.64669171874513,
          "velocity": 0.6692913385826772,
          "duration": 0.7771737187499639
        },
        {
          "name": "A3",
          "midi": 57,
          "time": 189.64669171874513,
          "velocity": 0.7716535433070866,
          "duration": 0.39130424999996194
        },
        {
          "name": "C#4",
          "midi": 61,
          "time": 189.64669171874513,
          "velocity": 0.7716535433070866,
          "duration": 0.39130424999996194
        },
        {
          "name": "F#2",
          "midi": 42,
          "time": 189.64669171874513,
          "velocity": 0.4094488188976378,
          "duration": 0.0054347812499884185
        },
        {
          "name": "A1",
          "midi": 33,
          "time": 189.64669171874513,
          "velocity": 0.7165354330708661,
          "duration": 0.1576086562500052
        },
        {
          "name": "B3",
          "midi": 59,
          "time": 189.64669171874513,
          "velocity": 0.84251968503937,
          "duration": 0.24456515624999042
        },
        {
          "name": "A2",
          "midi": 45,
          "time": 189.88582209374513,
          "velocity": 0.9212598425196851,
          "duration": 0.05434781249996945
        },
        {
          "name": "F#2",
          "midi": 42,
          "time": 189.90756121874512,
          "velocity": 0.8976377952755905,
          "duration": 0.0054347812499884185
        },
        {
          "name": "A1",
          "midi": 33,
          "time": 189.90756121874512,
          "velocity": 0.9133858267716536,
          "duration": 0.1847825624999757
        },
        {
          "name": "C2",
          "midi": 36,
          "time": 189.9129959999951,
          "velocity": 0.8661417322834646,
          "duration": 0.0054347812499884185
        },
        {
          "name": "A2",
          "midi": 45,
          "time": 189.9129959999951,
          "velocity": 0.9763779527559056,
          "duration": 1.967390812499815
        },
        {
          "name": "E3",
          "midi": 52,
          "time": 190.1412568124951,
          "velocity": 0.6141732283464567,
          "duration": 0.05434781249999787
        },
        {
          "name": "E4",
          "midi": 64,
          "time": 190.1684307187451,
          "velocity": 0.7637795275590551,
          "duration": 0.5163042187499514
        },
        {
          "name": "C#4",
          "midi": 61,
          "time": 190.1684307187451,
          "velocity": 0.7952755905511811,
          "duration": 0.2554347187499957
        },
        {
          "name": "A3",
          "midi": 57,
          "time": 190.1684307187451,
          "velocity": 0.7952755905511811,
          "duration": 0.2554347187499957
        },
        {
          "name": "F#2",
          "midi": 42,
          "time": 190.1684307187451,
          "velocity": 0.4409448818897638,
          "duration": 0.0054347812499884185
        },
        {
          "name": "A1",
          "midi": 33,
          "time": 190.1684307187451,
          "velocity": 0.7165354330708661,
          "duration": 0.15217387499998836
        },
        {
          "name": "E3",
          "midi": 52,
          "time": 190.1684307187451,
          "velocity": 0.6692913385826772,
          "duration": 0.3858694687499451
        },
        {
          "name": "B3",
          "midi": 59,
          "time": 190.40212631249508,
          "velocity": 0.8503937007874016,
          "duration": 0.05434781249996945
        },
        {
          "name": "C#4",
          "midi": 61,
          "time": 190.42930021874508,
          "velocity": 0.7480314960629921,
          "duration": 0.25543471874996726
        },
        {
          "name": "A3",
          "midi": 57,
          "time": 190.42930021874508,
          "velocity": 0.7480314960629921,
          "duration": 0.25543471874996726
        },
        {
          "name": "E4",
          "midi": 64,
          "time": 190.42930021874508,
          "velocity": 0.6850393700787402,
          "duration": 0.777173718749907
        },
        {
          "name": "F#2",
          "midi": 42,
          "time": 190.42930021874508,
          "velocity": 0.7007874015748031,
          "duration": 0.0054347812499884185
        },
        {
          "name": "A1",
          "midi": 33,
          "time": 190.42930021874508,
          "velocity": 0.8976377952755905,
          "duration": 0.17934778124995887
        },
        {
          "name": "B3",
          "midi": 59,
          "time": 190.42930021874508,
          "velocity": 0.905511811023622,
          "duration": 0.244565156249962
        },
        {
          "name": "E2",
          "midi": 40,
          "time": 190.43473499999507,
          "velocity": 0.9291338582677166,
          "duration": 0.0054347812499884185
        },
        {
          "name": "E3",
          "midi": 52,
          "time": 190.66299581249504,
          "velocity": 0.7086614173228346,
          "duration": 0.05434781249996945
        },
        {
          "name": "E4",
          "midi": 64,
          "time": 190.69016971874504,
          "velocity": 0.7716535433070866,
          "duration": 1.0380432187498911
        },
        {
          "name": "C#4",
          "midi": 61,
          "time": 190.69016971874504,
          "velocity": 0.7716535433070866,
          "duration": 0.2880434062499546
        },
        {
          "name": "A3",
          "midi": 57,
          "time": 190.69016971874504,
          "velocity": 0.7716535433070866,
          "duration": 0.5163042187499514
        },
        {
          "name": "F#2",
          "midi": 42,
          "time": 190.69016971874504,
          "velocity": 0.4251968503937008,
          "duration": 0.0054347812499884185
        },
        {
          "name": "A1",
          "midi": 33,
          "time": 190.69016971874504,
          "velocity": 0.6692913385826772,
          "duration": 0.15760865624997678
        },
        {
          "name": "E3",
          "midi": 52,
          "time": 190.69016971874504,
          "velocity": 0.7637795275590551,
          "duration": 0.24456515624999042
        },
        {
          "name": "C2",
          "midi": 36,
          "time": 190.69560449999503,
          "velocity": 0.5669291338582677,
          "duration": 0.0054347812499884185
        },
        {
          "name": "C#4",
          "midi": 61,
          "time": 190.92386531249502,
          "velocity": 0.7952755905511811,
          "duration": 0.2826086249999662
        },
        {
          "name": "A1",
          "midi": 33,
          "time": 190.95103921874502,
          "velocity": 0.952755905511811,
          "duration": 0.19021734374996413
        },
        {
          "name": "C#4",
          "midi": 61,
          "time": 190.95103921874502,
          "velocity": 0.8503937007874016,
          "duration": 0.25543471874996726
        },
        {
          "name": "C2",
          "midi": 36,
          "time": 190.956473999995,
          "velocity": 0.8740157480314961,
          "duration": 0.0054347812499884185
        },
        {
          "name": "F#2",
          "midi": 42,
          "time": 190.961908781245,
          "velocity": 0.6929133858267716,
          "duration": 0.0054347812499884185
        },
        {
          "name": "B3",
          "midi": 59,
          "time": 191.18473481249498,
          "velocity": 0.7716535433070866,
          "duration": 0.05434781249999787
        },
        {
          "name": "A3",
          "midi": 57,
          "time": 191.21190871874498,
          "velocity": 0.8740157480314961,
          "duration": 0.5163042187499514
        },
        {
          "name": "C#4",
          "midi": 61,
          "time": 191.21190871874498,
          "velocity": 0.8740157480314961,
          "duration": 0.5163042187499514
        },
        {
          "name": "E4",
          "midi": 64,
          "time": 191.21190871874498,
          "velocity": 0.6771653543307087,
          "duration": 0.9130432499998733
        },
        {
          "name": "A1",
          "midi": 33,
          "time": 191.21190871874498,
          "velocity": 0.7007874015748031,
          "duration": 0.16304343749999362
        },
        {
          "name": "B3",
          "midi": 59,
          "time": 191.21190871874498,
          "velocity": 0.8267716535433071,
          "duration": 0.4728259687499303
        },
        {
          "name": "F#2",
          "midi": 42,
          "time": 191.22277828124498,
          "velocity": 0.44881889763779526,
          "duration": 0.0054347812499884185
        },
        {
          "name": "E3",
          "midi": 52,
          "time": 191.44560431249496,
          "velocity": 0.7165354330708661,
          "duration": 0.05434781249996945
        },
        {
          "name": "A1",
          "midi": 33,
          "time": 191.47277821874496,
          "velocity": 0.8976377952755905,
          "duration": 0.2065216874999578
        },
        {
          "name": "E3",
          "midi": 52,
          "time": 191.47277821874496,
          "velocity": 0.7716535433070866,
          "duration": 0.244565156249962
        },
        {
          "name": "E2",
          "midi": 40,
          "time": 191.47821299999495,
          "velocity": 0.9291338582677166,
          "duration": 0.0054347812499884185
        },
        {
          "name": "F#2",
          "midi": 42,
          "time": 191.48364778124494,
          "velocity": 0.7244094488188977,
          "duration": 0.0054347812499884185
        },
        {
          "name": "B3",
          "midi": 59,
          "time": 191.70647381249492,
          "velocity": 0.7874015748031497,
          "duration": 0.05434781249999787
        },
        {
          "name": "A3",
          "midi": 57,
          "time": 191.73364771874492,
          "velocity": 0.6850393700787402,
          "duration": 0.3913042499999335
        },
        {
          "name": "C#4",
          "midi": 61,
          "time": 191.73364771874492,
          "velocity": 0.6850393700787402,
          "duration": 0.3913042499999335
        },
        {
          "name": "E4",
          "midi": 64,
          "time": 191.73364771874492,
          "velocity": 0.5511811023622047,
          "duration": 0.7771737187499355
        },
        {
          "name": "A1",
          "midi": 33,
          "time": 191.73364771874492,
          "velocity": 0.8188976377952756,
          "duration": 0.16847821875001046
        },
        {
          "name": "B3",
          "midi": 59,
          "time": 191.73364771874492,
          "velocity": 0.84251968503937,
          "duration": 0.24456515624999042
        },
        {
          "name": "F#2",
          "midi": 42,
          "time": 191.74451728124492,
          "velocity": 0.3700787401574803,
          "duration": 0.0054347812499884185
        },
        {
          "name": "F#2",
          "midi": 42,
          "time": 191.97277809374492,
          "velocity": 0.9212598425196851,
          "duration": 0.03804346874994735
        },
        {
          "name": "F#1",
          "midi": 30,
          "time": 191.9945172187449,
          "velocity": 0.7952755905511811,
          "duration": 0.16304343749993677
        },
        {
          "name": "C2",
          "midi": 36,
          "time": 191.9999519999949,
          "velocity": 0.8503937007874016,
          "duration": 0.0054347812499884185
        },
        {
          "name": "F#2",
          "midi": 42,
          "time": 191.9999519999949,
          "velocity": 0.9763779527559056,
          "duration": 0.027173906249970514
        },
        {
          "name": "F#2",
          "midi": 42,
          "time": 192.00538678124488,
          "velocity": 0.84251968503937,
          "duration": 0.2663042812499441
        },
        {
          "name": "C#3",
          "midi": 49,
          "time": 192.22821281249483,
          "velocity": 0.6141732283464567,
          "duration": 0.05434781249999787
        },
        {
          "name": "C#4",
          "midi": 61,
          "time": 192.25538671874483,
          "velocity": 0.6929133858267716,
          "duration": 0.2554347187500241
        },
        {
          "name": "E4",
          "midi": 64,
          "time": 192.25538671874483,
          "velocity": 0.7244094488188977,
          "duration": 0.5163042187499798
        },
        {
          "name": "A3",
          "midi": 57,
          "time": 192.25538671874483,
          "velocity": 0.6929133858267716,
          "duration": 0.2554347187500241
        },
        {
          "name": "F#1",
          "midi": 30,
          "time": 192.25538671874483,
          "velocity": 0.7952755905511811,
          "duration": 0.14130431250001152
        },
        {
          "name": "C#3",
          "midi": 49,
          "time": 192.25538671874483,
          "velocity": 0.6692913385826772,
          "duration": 0.3858694687499735
        },
        {
          "name": "F#2",
          "midi": 42,
          "time": 192.26625628124484,
          "velocity": 0.4330708661417323,
          "duration": 0.2554347187499957
        },
        {
          "name": "G#3",
          "midi": 56,
          "time": 192.48908231249484,
          "velocity": 0.8503937007874016,
          "duration": 0.05434781249996945
        },
        {
          "name": "A3",
          "midi": 57,
          "time": 192.51625621874484,
          "velocity": 0.7244094488188977,
          "duration": 0.25543471874996726
        },
        {
          "name": "E4",
          "midi": 64,
          "time": 192.51625621874484,
          "velocity": 0.6141732283464567,
          "duration": 0.7771737187498786
        },
        {
          "name": "C#4",
          "midi": 61,
          "time": 192.51625621874484,
          "velocity": 0.7244094488188977,
          "duration": 0.25543471874996726
        },
        {
          "name": "F#2",
          "midi": 42,
          "time": 192.51625621874484,
          "velocity": 0.7559055118110236,
          "duration": 0.27717384374992093
        },
        {
          "name": "F#1",
          "midi": 30,
          "time": 192.51625621874484,
          "velocity": 0.952755905511811,
          "duration": 0.19021734374996413
        },
        {
          "name": "G#3",
          "midi": 56,
          "time": 192.51625621874484,
          "velocity": 0.905511811023622,
          "duration": 0.244565156249962
        },
        {
          "name": "E2",
          "midi": 40,
          "time": 192.52169099999483,
          "velocity": 0.9291338582677166,
          "duration": 0.0054347812499884185
        },
        {
          "name": "C#3",
          "midi": 49,
          "time": 192.7499518124948,
          "velocity": 0.7086614173228346,
          "duration": 0.05434781249996945
        },
        {
          "name": "A3",
          "midi": 57,
          "time": 192.7771257187448,
          "velocity": 0.7716535433070866,
          "duration": 0.2880434062499262
        },
        {
          "name": "E4",
          "midi": 64,
          "time": 192.7771257187448,
          "velocity": 0.6850393700787402,
          "duration": 1.0380432187498911
        },
        {
          "name": "C#4",
          "midi": 61,
          "time": 192.7771257187448,
          "velocity": 0.7716535433070866,
          "duration": 0.5163042187499229
        },
        {
          "name": "F#1",
          "midi": 30,
          "time": 192.7771257187448,
          "velocity": 0.7322834645669292,
          "duration": 0.13586953124996626
        },
        {
          "name": "C#3",
          "midi": 49,
          "time": 192.7771257187448,
          "velocity": 0.7637795275590551,
          "duration": 0.244565156249962
        },
        {
          "name": "C2",
          "midi": 36,
          "time": 192.7825604999948,
          "velocity": 0.6377952755905512,
          "duration": 0.0054347812499884185
        },
        {
          "name": "F#2",
          "midi": 42,
          "time": 192.78799528124478,
          "velocity": 0.44881889763779526,
          "duration": 0.2663042812499441
        },
        {
          "name": "A3",
          "midi": 57,
          "time": 193.01082131249476,
          "velocity": 0.7952755905511811,
          "duration": 0.2826086249999662
        },
        {
          "name": "F#1",
          "midi": 30,
          "time": 193.03799521874475,
          "velocity": 0.9448818897637795,
          "duration": 0.1630434374999652
        },
        {
          "name": "A3",
          "midi": 57,
          "time": 193.03799521874475,
          "velocity": 0.8503937007874016,
          "duration": 0.25543471874996726
        },
        {
          "name": "C2",
          "midi": 36,
          "time": 193.04342999999474,
          "velocity": 0.8740157480314961,
          "duration": 0.0054347812499884185
        },
        {
          "name": "F#2",
          "midi": 42,
          "time": 193.04886478124473,
          "velocity": 0.7559055118110236,
          "duration": 0.2663042812499725
        },
        {
          "name": "G#3",
          "midi": 56,
          "time": 193.2716908124947,
          "velocity": 0.7716535433070866,
          "duration": 0.05434781249999787
        },
        {
          "name": "C#4",
          "midi": 61,
          "time": 193.2988647187447,
          "velocity": 0.7795275590551181,
          "duration": 0.5163042187499798
        },
        {
          "name": "E4",
          "midi": 64,
          "time": 193.2988647187447,
          "velocity": 0.6771653543307087,
          "duration": 0.9130432499999301
        },
        {
          "name": "A3",
          "midi": 57,
          "time": 193.2988647187447,
          "velocity": 0.7795275590551181,
          "duration": 0.5163042187499798
        },
        {
          "name": "F#1",
          "midi": 30,
          "time": 193.2988647187447,
          "velocity": 0.8110236220472441,
          "duration": 0.15217387499998836
        },
        {
          "name": "G#3",
          "midi": 56,
          "time": 193.2988647187447,
          "velocity": 0.8267716535433071,
          "duration": 0.47282596874995875
        },
        {
          "name": "F#2",
          "midi": 42,
          "time": 193.30973428124472,
          "velocity": 0.44881889763779526,
          "duration": 0.2608694999999557
        },
        {
          "name": "C#3",
          "midi": 49,
          "time": 193.5325603124947,
          "velocity": 0.7165354330708661,
          "duration": 0.05434781249996945
        },
        {
          "name": "F#1",
          "midi": 30,
          "time": 193.5597342187447,
          "velocity": 0.9212598425196851,
          "duration": 0.19021734374996413
        },
        {
          "name": "C#3",
          "midi": 49,
          "time": 193.5597342187447,
          "velocity": 0.7716535433070866,
          "duration": 0.24456515624999042
        },
        {
          "name": "E2",
          "midi": 40,
          "time": 193.56516899999468,
          "velocity": 0.9291338582677166,
          "duration": 0.0054347812499884185
        },
        {
          "name": "F#2",
          "midi": 42,
          "time": 193.56516899999468,
          "velocity": 0.7086614173228346,
          "duration": 0.27173906249998936
        },
        {
          "name": "G#3",
          "midi": 56,
          "time": 193.79342981249468,
          "velocity": 0.7874015748031497,
          "duration": 0.05434781249999787
        },
        {
          "name": "C#4",
          "midi": 61,
          "time": 193.82060371874468,
          "velocity": 0.7480314960629921,
          "duration": 0.39130424999996194
        },
        {
          "name": "E4",
          "midi": 64,
          "time": 193.82060371874468,
          "velocity": 0.6929133858267716,
          "duration": 0.777173718749907
        },
        {
          "name": "A3",
          "midi": 57,
          "time": 193.82060371874468,
          "velocity": 0.7480314960629921,
          "duration": 0.39130424999996194
        },
        {
          "name": "D2",
          "midi": 38,
          "time": 193.82060371874468,
          "velocity": 0.8031496062992126,
          "duration": 0.16304343749999362
        },
        {
          "name": "G#3",
          "midi": 56,
          "time": 193.82060371874468,
          "velocity": 0.84251968503937,
          "duration": 0.24456515624999042
        },
        {
          "name": "F#2",
          "midi": 42,
          "time": 193.83147328124468,
          "velocity": 0.33070866141732286,
          "duration": 0.13586953124999468
        },
        {
          "name": "D3",
          "midi": 50,
          "time": 194.05973409374468,
          "velocity": 0.9212598425196851,
          "duration": 0.05434781249996945
        },
        {
          "name": "D2",
          "midi": 38,
          "time": 194.08147321874466,
          "velocity": 0.6692913385826772,
          "duration": 0.17391299999997045
        },
        {
          "name": "F#2",
          "midi": 42,
          "time": 194.08690799999465,
          "velocity": 0.84251968503937,
          "duration": 0.0054347812499884185
        },
        {
          "name": "C2",
          "midi": 36,
          "time": 194.08690799999465,
          "velocity": 0.8740157480314961,
          "duration": 0.0054347812499884185
        },
        {
          "name": "D3",
          "midi": 50,
          "time": 194.08690799999465,
          "velocity": 0.9763779527559056,
          "duration": 0.7771737187498786
        },
        {
          "name": "A3",
          "midi": 57,
          "time": 194.31516881249462,
          "velocity": 0.6141732283464567,
          "duration": 0.05434781249999787
        },
        {
          "name": "E4",
          "midi": 64,
          "time": 194.34234271874462,
          "velocity": 0.7165354330708661,
          "duration": 0.2880434062499262
        },
        {
          "name": "A3",
          "midi": 57,
          "time": 194.34234271874462,
          "velocity": 0.7795275590551181,
          "duration": 0.25543471874996726
        },
        {
          "name": "C#4",
          "midi": 61,
          "time": 194.34234271874462,
          "velocity": 0.7795275590551181,
          "duration": 0.25543471874996726
        },
        {
          "name": "D2",
          "midi": 38,
          "time": 194.34234271874462,
          "velocity": 0.8346456692913385,
          "duration": 0.1793477812499873
        },
        {
          "name": "A3",
          "midi": 57,
          "time": 194.34234271874462,
          "velocity": 0.6692913385826772,
          "duration": 0.5163042187499229
        },
        {
          "name": "F#2",
          "midi": 42,
          "time": 194.35321228124462,
          "velocity": 0.5196850393700787,
          "duration": 0.0054347812499884185
        },
        {
          "name": "E4",
          "midi": 64,
          "time": 194.5760383124946,
          "velocity": 0.7952755905511811,
          "duration": 0.2880434062499262
        },
        {
          "name": "E2",
          "midi": 40,
          "time": 194.5923426562446,
          "velocity": 0.6377952755905512,
          "duration": 0.0054347812499884185
        },
        {
          "name": "C#4",
          "midi": 61,
          "time": 194.60321221874457,
          "velocity": 0.7007874015748031,
          "duration": 0.2608694999999557
        },
        {
          "name": "A3",
          "midi": 57,
          "time": 194.60321221874457,
          "velocity": 0.7007874015748031,
          "duration": 0.25543471874996726
        },
        {
          "name": "E4",
          "midi": 64,
          "time": 194.60321221874457,
          "velocity": 0.5433070866141733,
          "duration": 0.3858694687499167
        },
        {
          "name": "D2",
          "midi": 38,
          "time": 194.60321221874457,
          "velocity": 0.8346456692913385,
          "duration": 0.1847825624999757
        },
        {
          "name": "E4",
          "midi": 64,
          "time": 194.60321221874457,
          "velocity": 0.8503937007874016,
          "duration": 1.5652169999997625
        },
        {
          "name": "E2",
          "midi": 40,
          "time": 194.60864699999456,
          "velocity": 0.9291338582677166,
          "duration": 0.0054347812499884185
        },
        {
          "name": "F#2",
          "midi": 42,
          "time": 194.61408178124455,
          "velocity": 0.7480314960629921,
          "duration": 0.0054347812499884185
        },
        {
          "name": "A3",
          "midi": 57,
          "time": 194.83690781249456,
          "velocity": 0.7086614173228346,
          "duration": 0.05434781249994103
        },
        {
          "name": "D3",
          "midi": 50,
          "time": 194.84234259374455,
          "velocity": 0.7401574803149606,
          "duration": 0.05434781249994103
        },
        {
          "name": "A3",
          "midi": 57,
          "time": 194.86408171874453,
          "velocity": 0.8818897637795275,
          "duration": 0.4836955312499356
        },
        {
          "name": "D4",
          "midi": 62,
          "time": 194.86408171874453,
          "velocity": 0.8818897637795275,
          "duration": 0.2880434062499262
        },
        {
          "name": "F#4",
          "midi": 66,
          "time": 194.86408171874453,
          "velocity": 0.7244094488188977,
          "duration": 0.5163042187499514
        },
        {
          "name": "F#2",
          "midi": 42,
          "time": 194.86408171874453,
          "velocity": 0.4251968503937008,
          "duration": 0.0054347812499884185
        },
        {
          "name": "D2",
          "midi": 38,
          "time": 194.86408171874453,
          "velocity": 0.8188976377952756,
          "duration": 0.1684782187499536
        },
        {
          "name": "A3",
          "midi": 57,
          "time": 194.86408171874453,
          "velocity": 0.7637795275590551,
          "duration": 0.5163042187499514
        },
        {
          "name": "C2",
          "midi": 36,
          "time": 194.86951649999452,
          "velocity": 0.5984251968503937,
          "duration": 0.0054347812499884185
        },
        {
          "name": "D3",
          "midi": 50,
          "time": 194.86951649999452,
          "velocity": 0.7952755905511811,
          "duration": 0.777173718749907
        },
        {
          "name": "D4",
          "midi": 62,
          "time": 195.0977773124945,
          "velocity": 0.7952755905511811,
          "duration": 0.2826086249999946
        },
        {
          "name": "D2",
          "midi": 38,
          "time": 195.12495121874449,
          "velocity": 0.7952755905511811,
          "duration": 0.1847825624999757
        },
        {
          "name": "D4",
          "midi": 62,
          "time": 195.12495121874449,
          "velocity": 0.8503937007874016,
          "duration": 0.3858694687499451
        },
        {
          "name": "F#2",
          "midi": 42,
          "time": 195.13038599999447,
          "velocity": 0.7244094488188977,
          "duration": 0.0054347812499884185
        },
        {
          "name": "C2",
          "midi": 36,
          "time": 195.13038599999447,
          "velocity": 0.8661417322834646,
          "duration": 0.0054347812499884185
        },
        {
          "name": "B4",
          "midi": 71,
          "time": 195.13038599999447,
          "velocity": 0.5275590551181102,
          "duration": 1.054347562499828
        },
        {
          "name": "A3",
          "midi": 57,
          "time": 195.35864681249447,
          "velocity": 0.7716535433070866,
          "duration": 0.05434781249996945
        },
        {
          "name": "F#4",
          "midi": 66,
          "time": 195.38582071874447,
          "velocity": 0.6771653543307087,
          "duration": 0.5217389999999398
        },
        {
          "name": "D4",
          "midi": 62,
          "time": 195.38582071874447,
          "velocity": 0.8188976377952756,
          "duration": 0.29347818749994303
        },
        {
          "name": "A3",
          "midi": 57,
          "time": 195.38582071874447,
          "velocity": 0.8188976377952756,
          "duration": 0.2663042812499441
        },
        {
          "name": "F#2",
          "midi": 42,
          "time": 195.38582071874447,
          "velocity": 0.36220472440944884,
          "duration": 0.0054347812499884185
        },
        {
          "name": "A3",
          "midi": 57,
          "time": 195.38582071874447,
          "velocity": 0.8267716535433071,
          "duration": 0.3858694687499451
        },
        {
          "name": "C2",
          "midi": 36,
          "time": 195.39125549999446,
          "velocity": 0.8661417322834646,
          "duration": 0.0054347812499884185
        },
        {
          "name": "D2",
          "midi": 38,
          "time": 195.39125549999446,
          "velocity": 0.9133858267716536,
          "duration": 0.15217387499995993
        },
        {
          "name": "D4",
          "midi": 62,
          "time": 195.62495109374441,
          "velocity": 0.5669291338582677,
          "duration": 0.2826086249999946
        },
        {
          "name": "D3",
          "midi": 50,
          "time": 195.62495109374441,
          "velocity": 0.7165354330708661,
          "duration": 0.05434781249999787
        },
        {
          "name": "A3",
          "midi": 57,
          "time": 195.64669021874442,
          "velocity": 0.5826771653543307,
          "duration": 0.2554347187499957
        },
        {
          "name": "E2",
          "midi": 40,
          "time": 195.6521249999944,
          "velocity": 0.9291338582677166,
          "duration": 0.0054347812499884185
        },
        {
          "name": "D2",
          "midi": 38,
          "time": 195.6521249999944,
          "velocity": 0.8503937007874016,
          "duration": 0.16304343749999362
        },
        {
          "name": "D4",
          "midi": 62,
          "time": 195.6521249999944,
          "velocity": 0.6220472440944882,
          "duration": 0.3858694687499451
        },
        {
          "name": "D3",
          "midi": 50,
          "time": 195.6521249999944,
          "velocity": 0.7716535433070866,
          "duration": 0.5163042187499229
        },
        {
          "name": "A3",
          "midi": 57,
          "time": 195.8803858124944,
          "velocity": 0.7874015748031497,
          "duration": 0.05434781249996945
        },
        {
          "name": "C#4",
          "midi": 61,
          "time": 195.9075597187444,
          "velocity": 0.7244094488188977,
          "duration": 0.3913042499998767
        },
        {
          "name": "A3",
          "midi": 57,
          "time": 195.9075597187444,
          "velocity": 0.7244094488188977,
          "duration": 0.24456515624993358
        },
        {
          "name": "E4",
          "midi": 64,
          "time": 195.9075597187444,
          "velocity": 0.6850393700787402,
          "duration": 0.3913042499998767
        },
        {
          "name": "D2",
          "midi": 38,
          "time": 195.9075597187444,
          "velocity": 0.9291338582677166,
          "duration": 0.124999968749961
        },
        {
          "name": "A3",
          "midi": 57,
          "time": 195.9075597187444,
          "velocity": 0.84251968503937,
          "duration": 0.3913042499998767
        },
        {
          "name": "C2",
          "midi": 36,
          "time": 195.9129944999944,
          "velocity": 0.8740157480314961,
          "duration": 0.0054347812499884185
        },
        {
          "name": "A2",
          "midi": 45,
          "time": 196.14669009374435,
          "velocity": 0.9212598425196851,
          "duration": 0.05434781249994103
        },
        {
          "name": "D#3",
          "midi": 51,
          "time": 196.17386399999432,
          "velocity": 0.7716535433070866,
          "duration": 0.0054347812499884185
        },
        {
          "name": "C2",
          "midi": 36,
          "time": 196.17386399999432,
          "velocity": 0.8818897637795275,
          "duration": 0.0054347812499884185
        },
        {
          "name": "A1",
          "midi": 33,
          "time": 196.17386399999432,
          "velocity": 0.8976377952755905,
          "duration": 0.15217387499995993
        },
        {
          "name": "A2",
          "midi": 45,
          "time": 196.17386399999432,
          "velocity": 0.9763779527559056,
          "duration": 1.9673908124997581
        },
        {
          "name": "E4",
          "midi": 64,
          "time": 196.17386399999432,
          "velocity": 0.5511811023622047,
          "duration": 0.5108694374999914
        },
        {
          "name": "A4",
          "midi": 69,
          "time": 196.17386399999432,
          "velocity": 0.48031496062992124,
          "duration": 8.336954437499088
        },
        {
          "name": "E3",
          "midi": 52,
          "time": 196.4021248124943,
          "velocity": 0.6141732283464567,
          "duration": 0.05434781249999787
        },
        {
          "name": "E4",
          "midi": 64,
          "time": 196.4292987187443,
          "velocity": 0.6614173228346457,
          "duration": 0.5163042187499798
        },
        {
          "name": "C#4",
          "midi": 61,
          "time": 196.4292987187443,
          "velocity": 0.7716535433070866,
          "duration": 0.2554347187500241
        },
        {
          "name": "A3",
          "midi": 57,
          "time": 196.4292987187443,
          "velocity": 0.7716535433070866,
          "duration": 0.2554347187500241
        },
        {
          "name": "A1",
          "midi": 33,
          "time": 196.4292987187443,
          "velocity": 0.7952755905511811,
          "duration": 0.16847821875001046
        },
        {
          "name": "E3",
          "midi": 52,
          "time": 196.4292987187443,
          "velocity": 0.6692913385826772,
          "duration": 0.3858694687499735
        },
        {
          "name": "D#3",
          "midi": 51,
          "time": 196.4401682812443,
          "velocity": 0.5118110236220472,
          "duration": 0.0054347812499884185
        },
        {
          "name": "B3",
          "midi": 59,
          "time": 196.6629943124943,
          "velocity": 0.8503937007874016,
          "duration": 0.05434781249996945
        },
        {
          "name": "E4",
          "midi": 64,
          "time": 196.6901682187443,
          "velocity": 0.7165354330708661,
          "duration": 0.7771737187498786
        },
        {
          "name": "A3",
          "midi": 57,
          "time": 196.6901682187443,
          "velocity": 0.7559055118110236,
          "duration": 0.25543471874996726
        },
        {
          "name": "C#4",
          "midi": 61,
          "time": 196.6901682187443,
          "velocity": 0.7559055118110236,
          "duration": 0.25543471874996726
        },
        {
          "name": "B3",
          "midi": 59,
          "time": 196.6901682187443,
          "velocity": 0.905511811023622,
          "duration": 0.25543471874996726
        },
        {
          "name": "E2",
          "midi": 40,
          "time": 196.6956029999943,
          "velocity": 0.9291338582677166,
          "duration": 0.0054347812499884185
        },
        {
          "name": "A1",
          "midi": 33,
          "time": 196.6956029999943,
          "velocity": 0.8818897637795275,
          "duration": 0.1847825624999757
        },
        {
          "name": "E3",
          "midi": 52,
          "time": 196.92386381249426,
          "velocity": 0.7086614173228346,
          "duration": 0.05434781249996945
        },
        {
          "name": "C#4",
          "midi": 61,
          "time": 196.95103771874426,
          "velocity": 0.7716535433070866,
          "duration": 0.2880434062499262
        },
        {
          "name": "A3",
          "midi": 57,
          "time": 196.95103771874426,
          "velocity": 0.7716535433070866,
          "duration": 0.5163042187499229
        },
        {
          "name": "E4",
          "midi": 64,
          "time": 196.95103771874426,
          "velocity": 0.7244094488188977,
          "duration": 1.0380432187498627
        },
        {
          "name": "E3",
          "midi": 52,
          "time": 196.95103771874426,
          "velocity": 0.7637795275590551,
          "duration": 0.6467389687498724
        },
        {
          "name": "C2",
          "midi": 36,
          "time": 196.95647249999425,
          "velocity": 0.5905511811023622,
          "duration": 0.0054347812499884185
        },
        {
          "name": "A1",
          "midi": 33,
          "time": 196.95647249999425,
          "velocity": 0.7559055118110236,
          "duration": 0.14673909374997152
        },
        {
          "name": "D#3",
          "midi": 51,
          "time": 196.96190728124424,
          "velocity": 0.5433070866141733,
          "duration": 0.0054347812499884185
        },
        {
          "name": "C#4",
          "midi": 61,
          "time": 197.18473331249422,
          "velocity": 0.7952755905511811,
          "duration": 0.2826086249999662
        },
        {
          "name": "A1",
          "midi": 33,
          "time": 197.21190721874422,
          "velocity": 0.952755905511811,
          "duration": 0.15217387499995993
        },
        {
          "name": "C#4",
          "midi": 61,
          "time": 197.21190721874422,
          "velocity": 0.8503937007874016,
          "duration": 0.25543471874996726
        },
        {
          "name": "C2",
          "midi": 36,
          "time": 197.2173419999942,
          "velocity": 0.8818897637795275,
          "duration": 0.0054347812499884185
        },
        {
          "name": "D#3",
          "midi": 51,
          "time": 197.2227767812442,
          "velocity": 0.7401574803149606,
          "duration": 0.0054347812499884185
        },
        {
          "name": "B3",
          "midi": 59,
          "time": 197.44560281249417,
          "velocity": 0.7716535433070866,
          "duration": 0.05434781249996945
        },
        {
          "name": "E4",
          "midi": 64,
          "time": 197.47277671874417,
          "velocity": 0.6220472440944882,
          "duration": 0.9130432499998733
        },
        {
          "name": "C#4",
          "midi": 61,
          "time": 197.47277671874417,
          "velocity": 0.7795275590551181,
          "duration": 0.5163042187499514
        },
        {
          "name": "A3",
          "midi": 57,
          "time": 197.47277671874417,
          "velocity": 0.7795275590551181,
          "duration": 0.5163042187499514
        },
        {
          "name": "A1",
          "midi": 33,
          "time": 197.47277671874417,
          "velocity": 0.8503937007874016,
          "duration": 0.14673909374997152
        },
        {
          "name": "B3",
          "midi": 59,
          "time": 197.47277671874417,
          "velocity": 0.8267716535433071,
          "duration": 0.4891303124999524
        },
        {
          "name": "D#3",
          "midi": 51,
          "time": 197.47821149999416,
          "velocity": 0.5511811023622047,
          "duration": 0.0054347812499884185
        },
        {
          "name": "E3",
          "midi": 52,
          "time": 197.70647231249416,
          "velocity": 0.7165354330708661,
          "duration": 0.05434781249996945
        },
        {
          "name": "E3",
          "midi": 52,
          "time": 197.73364621874416,
          "velocity": 0.7716535433070866,
          "duration": 0.3858694687499167
        },
        {
          "name": "E2",
          "midi": 40,
          "time": 197.73908099999414,
          "velocity": 0.9291338582677166,
          "duration": 0.0054347812499884185
        },
        {
          "name": "A1",
          "midi": 33,
          "time": 197.74451578124413,
          "velocity": 0.952755905511811,
          "duration": 0.16304343749999362
        },
        {
          "name": "B3",
          "midi": 59,
          "time": 197.9673418124941,
          "velocity": 0.7874015748031497,
          "duration": 0.05434781249996945
        },
        {
          "name": "C#4",
          "midi": 61,
          "time": 197.9945157187441,
          "velocity": 0.6850393700787402,
          "duration": 0.3913042499999335
        },
        {
          "name": "A3",
          "midi": 57,
          "time": 197.9945157187441,
          "velocity": 0.6850393700787402,
          "duration": 0.3913042499999335
        },
        {
          "name": "E4",
          "midi": 64,
          "time": 197.9945157187441,
          "velocity": 0.6771653543307087,
          "duration": 0.7771737187499355
        },
        {
          "name": "D#3",
          "midi": 51,
          "time": 197.9945157187441,
          "velocity": 0.7401574803149606,
          "duration": 0.0054347812499884185
        },
        {
          "name": "B3",
          "midi": 59,
          "time": 197.9945157187441,
          "velocity": 0.84251968503937,
          "duration": 0.244565156249962
        },
        {
          "name": "A1",
          "midi": 33,
          "time": 198.0053852812441,
          "velocity": 0.7559055118110236,
          "duration": 0.13586953124999468
        },
        {
          "name": "A2",
          "midi": 45,
          "time": 198.23364609374408,
          "velocity": 0.9212598425196851,
          "duration": 0.05434781249996945
        },
        {
          "name": "D#3",
          "midi": 51,
          "time": 198.25538521874407,
          "velocity": 0.6377952755905512,
          "duration": 0.0054347812499884185
        },
        {
          "name": "C2",
          "midi": 36,
          "time": 198.26081999999406,
          "velocity": 0.8661417322834646,
          "duration": 0.0054347812499884185
        },
        {
          "name": "A1",
          "midi": 33,
          "time": 198.26081999999406,
          "velocity": 0.952755905511811,
          "duration": 0.16304343749999362
        },
        {
          "name": "A2",
          "midi": 45,
          "time": 198.26081999999406,
          "velocity": 0.9763779527559056,
          "duration": 1.9673908124998434
        },
        {
          "name": "E3",
          "midi": 52,
          "time": 198.48908081249405,
          "velocity": 0.6141732283464567,
          "duration": 0.05434781249996945
        },
        {
          "name": "E4",
          "midi": 64,
          "time": 198.51625471874405,
          "velocity": 0.7244094488188977,
          "duration": 0.5163042187499514
        },
        {
          "name": "A3",
          "midi": 57,
          "time": 198.51625471874405,
          "velocity": 0.7244094488188977,
          "duration": 0.2554347187499957
        },
        {
          "name": "C#4",
          "midi": 61,
          "time": 198.51625471874405,
          "velocity": 0.7244094488188977,
          "duration": 0.2554347187499957
        },
        {
          "name": "A1",
          "midi": 33,
          "time": 198.51625471874405,
          "velocity": 0.7480314960629921,
          "duration": 0.16847821874998203
        },
        {
          "name": "E3",
          "midi": 52,
          "time": 198.51625471874405,
          "velocity": 0.6692913385826772,
          "duration": 0.3858694687499451
        },
        {
          "name": "D#3",
          "midi": 51,
          "time": 198.52168949999404,
          "velocity": 0.5118110236220472,
          "duration": 0.0054347812499884185
        },
        {
          "name": "B3",
          "midi": 59,
          "time": 198.74995031249404,
          "velocity": 0.8503937007874016,
          "duration": 0.05434781249996945
        },
        {
          "name": "C#4",
          "midi": 61,
          "time": 198.77712421874404,
          "velocity": 0.7795275590551181,
          "duration": 0.25543471874996726
        },
        {
          "name": "A3",
          "midi": 57,
          "time": 198.77712421874404,
          "velocity": 0.7795275590551181,
          "duration": 0.25543471874996726
        },
        {
          "name": "E4",
          "midi": 64,
          "time": 198.77712421874404,
          "velocity": 0.7480314960629921,
          "duration": 0.7771737187498786
        },
        {
          "name": "B3",
          "midi": 59,
          "time": 198.77712421874404,
          "velocity": 0.905511811023622,
          "duration": 0.244565156249962
        },
        {
          "name": "E2",
          "midi": 40,
          "time": 198.78255899999402,
          "velocity": 0.9291338582677166,
          "duration": 0.0054347812499884185
        },
        {
          "name": "A1",
          "midi": 33,
          "time": 198.78255899999402,
          "velocity": 0.9291338582677166,
          "duration": 0.16847821874998203
        },
        {
          "name": "E3",
          "midi": 52,
          "time": 199.010819812494,
          "velocity": 0.7086614173228346,
          "duration": 0.05434781249996945
        },
        {
          "name": "A3",
          "midi": 57,
          "time": 199.037993718744,
          "velocity": 0.7716535433070866,
          "duration": 0.5163042187499229
        },
        {
          "name": "E4",
          "midi": 64,
          "time": 199.037993718744,
          "velocity": 0.7952755905511811,
          "duration": 1.0380432187499196
        },
        {
          "name": "C#4",
          "midi": 61,
          "time": 199.037993718744,
          "velocity": 0.7716535433070866,
          "duration": 0.2880434062499262
        },
        {
          "name": "D#3",
          "midi": 51,
          "time": 199.037993718744,
          "velocity": 0.7165354330708661,
          "duration": 0.0054347812499884185
        },
        {
          "name": "E3",
          "midi": 52,
          "time": 199.037993718744,
          "velocity": 0.7637795275590551,
          "duration": 0.244565156249962
        },
        {
          "name": "C2",
          "midi": 36,
          "time": 199.04342849999398,
          "velocity": 0.5669291338582677,
          "duration": 0.0054347812499884185
        },
        {
          "name": "A1",
          "midi": 33,
          "time": 199.04886328124397,
          "velocity": 0.6929133858267716,
          "duration": 0.1413043124999831
        },
        {
          "name": "C#4",
          "midi": 61,
          "time": 199.27168931249395,
          "velocity": 0.7952755905511811,
          "duration": 0.2826086249999662
        },
        {
          "name": "A1",
          "midi": 33,
          "time": 199.29886321874395,
          "velocity": 0.952755905511811,
          "duration": 0.17391299999997045
        },
        {
          "name": "C#4",
          "midi": 61,
          "time": 199.29886321874395,
          "velocity": 0.8503937007874016,
          "duration": 0.25543471874996726
        },
        {
          "name": "C2",
          "midi": 36,
          "time": 199.30429799999393,
          "velocity": 0.8740157480314961,
          "duration": 0.0054347812499884185
        },
        {
          "name": "D#3",
          "midi": 51,
          "time": 199.30973278124392,
          "velocity": 0.6299212598425197,
          "duration": 0.0054347812499884185
        },
        {
          "name": "B3",
          "midi": 59,
          "time": 199.5325588124939,
          "velocity": 0.7716535433070866,
          "duration": 0.05434781249999787
        },
        {
          "name": "E4",
          "midi": 64,
          "time": 199.5597327187439,
          "velocity": 0.6850393700787402,
          "duration": 0.9130432499999301
        },
        {
          "name": "C#4",
          "midi": 61,
          "time": 199.5597327187439,
          "velocity": 0.6850393700787402,
          "duration": 0.5163042187500082
        },
        {
          "name": "A3",
          "midi": 57,
          "time": 199.5597327187439,
          "velocity": 0.6850393700787402,
          "duration": 0.5163042187500082
        },
        {
          "name": "A1",
          "midi": 33,
          "time": 199.5597327187439,
          "velocity": 0.6614173228346457,
          "duration": 0.13043475000000626
        },
        {
          "name": "B3",
          "midi": 59,
          "time": 199.5597327187439,
          "velocity": 0.8267716535433071,
          "duration": 0.47282596874998717
        },
        {
          "name": "D#3",
          "midi": 51,
          "time": 199.5706022812439,
          "velocity": 0.7244094488188977,
          "duration": 0.0054347812499884185
        },
        {
          "name": "E3",
          "midi": 52,
          "time": 199.79342831249392,
          "velocity": 0.7165354330708661,
          "duration": 0.05434781249996945
        },
        {
          "name": "A1",
          "midi": 33,
          "time": 199.82060221874391,
          "velocity": 0.9133858267716536,
          "duration": 0.19565212499998097
        },
        {
          "name": "E3",
          "midi": 52,
          "time": 199.82060221874391,
          "velocity": 0.7716535433070866,
          "duration": 0.24456515624999042
        },
        {
          "name": "E2",
          "midi": 40,
          "time": 199.8260369999939,
          "velocity": 0.9291338582677166,
          "duration": 0.0054347812499884185
        },
        {
          "name": "B3",
          "midi": 59,
          "time": 200.0542978124939,
          "velocity": 0.7874015748031497,
          "duration": 0.05434781249999787
        },
        {
          "name": "A3",
          "midi": 57,
          "time": 200.0814717187439,
          "velocity": 0.6850393700787402,
          "duration": 0.3913042499999335
        },
        {
          "name": "C#4",
          "midi": 61,
          "time": 200.0814717187439,
          "velocity": 0.6850393700787402,
          "duration": 0.3913042499999335
        },
        {
          "name": "E4",
          "midi": 64,
          "time": 200.0814717187439,
          "velocity": 0.6377952755905512,
          "duration": 0.7771737187499639
        },
        {
          "name": "A1",
          "midi": 33,
          "time": 200.0814717187439,
          "velocity": 0.8188976377952756,
          "duration": 0.16304343749999362
        },
        {
          "name": "B3",
          "midi": 59,
          "time": 200.0814717187439,
          "velocity": 0.84251968503937,
          "duration": 0.24456515624999042
        },
        {
          "name": "D#3",
          "midi": 51,
          "time": 200.0923412812439,
          "velocity": 0.7480314960629921,
          "duration": 0.0054347812499884185
        },
        {
          "name": "F#2",
          "midi": 42,
          "time": 200.3206020937439,
          "velocity": 0.9212598425196851,
          "duration": 0.05434781249994103
        },
        {
          "name": "F#1",
          "midi": 30,
          "time": 200.34234121874388,
          "velocity": 0.7795275590551181,
          "duration": 0.15217387499995993
        },
        {
          "name": "C2",
          "midi": 36,
          "time": 200.34777599999387,
          "velocity": 0.8503937007874016,
          "duration": 0.0054347812499884185
        },
        {
          "name": "F#2",
          "midi": 42,
          "time": 200.34777599999387,
          "velocity": 0.9763779527559056,
          "duration": 1.9673908124998718
        },
        {
          "name": "D#3",
          "midi": 51,
          "time": 200.35321078124386,
          "velocity": 0.6692913385826772,
          "duration": 0.0054347812499884185
        },
        {
          "name": "C#3",
          "midi": 49,
          "time": 200.57603681249384,
          "velocity": 0.6141732283464567,
          "duration": 0.05434781249999787
        },
        {
          "name": "E4",
          "midi": 64,
          "time": 200.60321071874384,
          "velocity": 0.7322834645669292,
          "duration": 0.5163042187499798
        },
        {
          "name": "C#4",
          "midi": 61,
          "time": 200.60321071874384,
          "velocity": 0.6850393700787402,
          "duration": 0.2554347187500241
        },
        {
          "name": "A3",
          "midi": 57,
          "time": 200.60321071874384,
          "velocity": 0.6850393700787402,
          "duration": 0.2554347187500241
        },
        {
          "name": "F#1",
          "midi": 30,
          "time": 200.60321071874384,
          "velocity": 0.6456692913385826,
          "duration": 0.13043475000000626
        },
        {
          "name": "C#3",
          "midi": 49,
          "time": 200.60321071874384,
          "velocity": 0.6692913385826772,
          "duration": 0.3858694687499735
        },
        {
          "name": "D#3",
          "midi": 51,
          "time": 200.61408028124384,
          "velocity": 0.4330708661417323,
          "duration": 0.0054347812499884185
        },
        {
          "name": "G#3",
          "midi": 56,
          "time": 200.83690631249385,
          "velocity": 0.8503937007874016,
          "duration": 0.05434781249996945
        },
        {
          "name": "C#4",
          "midi": 61,
          "time": 200.86408021874385,
          "velocity": 0.7480314960629921,
          "duration": 0.25543471874996726
        },
        {
          "name": "A3",
          "midi": 57,
          "time": 200.86408021874385,
          "velocity": 0.7480314960629921,
          "duration": 0.25543471874996726
        },
        {
          "name": "E4",
          "midi": 64,
          "time": 200.86408021874385,
          "velocity": 0.7086614173228346,
          "duration": 0.777173718749907
        },
        {
          "name": "F#1",
          "midi": 30,
          "time": 200.86408021874385,
          "velocity": 0.952755905511811,
          "duration": 0.15760865624994835
        },
        {
          "name": "G#3",
          "midi": 56,
          "time": 200.86408021874385,
          "velocity": 0.905511811023622,
          "duration": 0.244565156249962
        },
        {
          "name": "E2",
          "midi": 40,
          "time": 200.86951499999384,
          "velocity": 0.9291338582677166,
          "duration": 0.0054347812499884185
        },
        {
          "name": "C#3",
          "midi": 49,
          "time": 201.0977758124938,
          "velocity": 0.7086614173228346,
          "duration": 0.05434781249996945
        },
        {
          "name": "E4",
          "midi": 64,
          "time": 201.1249497187438,
          "velocity": 0.8031496062992126,
          "duration": 1.038043218749948
        },
        {
          "name": "C#4",
          "midi": 61,
          "time": 201.1249497187438,
          "velocity": 0.8267716535433071,
          "duration": 0.5163042187499514
        },
        {
          "name": "A3",
          "midi": 57,
          "time": 201.1249497187438,
          "velocity": 0.8267716535433071,
          "duration": 0.2880434062499262
        },
        {
          "name": "F#1",
          "midi": 30,
          "time": 201.1249497187438,
          "velocity": 0.7165354330708661,
          "duration": 0.124999968749961
        },
        {
          "name": "C#3",
          "midi": 49,
          "time": 201.1249497187438,
          "velocity": 0.7637795275590551,
          "duration": 0.244565156249962
        },
        {
          "name": "C2",
          "midi": 36,
          "time": 201.1303844999938,
          "velocity": 0.6377952755905512,
          "duration": 0.0054347812499884185
        },
        {
          "name": "D#3",
          "midi": 51,
          "time": 201.13581928124378,
          "velocity": 0.7480314960629921,
          "duration": 0.0054347812499884185
        },
        {
          "name": "A3",
          "midi": 57,
          "time": 201.35864531249376,
          "velocity": 0.7952755905511811,
          "duration": 0.2826086249999946
        },
        {
          "name": "F#1",
          "midi": 30,
          "time": 201.38581921874376,
          "velocity": 0.9212598425196851,
          "duration": 0.14673909374997152
        },
        {
          "name": "A3",
          "midi": 57,
          "time": 201.38581921874376,
          "velocity": 0.8503937007874016,
          "duration": 0.2554347187499957
        },
        {
          "name": "C2",
          "midi": 36,
          "time": 201.39125399999375,
          "velocity": 0.8740157480314961,
          "duration": 0.0054347812499884185
        },
        {
          "name": "D#3",
          "midi": 51,
          "time": 201.39668878124374,
          "velocity": 0.6456692913385826,
          "duration": 0.0054347812499884185
        },
        {
          "name": "G#3",
          "midi": 56,
          "time": 201.61951481249375,
          "velocity": 0.7716535433070866,
          "duration": 0.05434781249999787
        },
        {
          "name": "E4",
          "midi": 64,
          "time": 201.64668871874375,
          "velocity": 0.7401574803149606,
          "duration": 0.9130432499999586
        },
        {
          "name": "C#4",
          "midi": 61,
          "time": 201.64668871874375,
          "velocity": 0.7952755905511811,
          "duration": 0.5163042187500082
        },
        {
          "name": "A3",
          "midi": 57,
          "time": 201.64668871874375,
          "velocity": 0.7952755905511811,
          "duration": 0.5163042187500082
        },
        {
          "name": "F#1",
          "midi": 30,
          "time": 201.64668871874375,
          "velocity": 0.7007874015748031,
          "duration": 0.11413040625001258
        },
        {
          "name": "G#3",
          "midi": 56,
          "time": 201.64668871874375,
          "velocity": 0.8267716535433071,
          "duration": 0.47282596874998717
        },
        {
          "name": "D#3",
          "midi": 51,
          "time": 201.65755828124375,
          "velocity": 0.44881889763779526,
          "duration": 0.0054347812499884185
        },
        {
          "name": "C#3",
          "midi": 49,
          "time": 201.88038431249376,
          "velocity": 0.7165354330708661,
          "duration": 0.05434781249996945
        },
        {
          "name": "F#1",
          "midi": 30,
          "time": 201.90755821874376,
          "velocity": 0.952755905511811,
          "duration": 0.1630434374999652
        },
        {
          "name": "C#3",
          "midi": 49,
          "time": 201.90755821874376,
          "velocity": 0.7716535433070866,
          "duration": 0.24456515624999042
        },
        {
          "name": "E2",
          "midi": 40,
          "time": 201.91299299999375,
          "velocity": 0.9291338582677166,
          "duration": 0.0054347812499884185
        },
        {
          "name": "D#3",
          "midi": 51,
          "time": 201.91299299999375,
          "velocity": 0.7086614173228346,
          "duration": 0.0054347812499884185
        },
        {
          "name": "G#3",
          "midi": 56,
          "time": 202.14125381249374,
          "velocity": 0.7874015748031497,
          "duration": 0.05434781249999787
        },
        {
          "name": "C#4",
          "midi": 61,
          "time": 202.16842771874374,
          "velocity": 0.7480314960629921,
          "duration": 0.39130424999996194
        },
        {
          "name": "E4",
          "midi": 64,
          "time": 202.16842771874374,
          "velocity": 0.6377952755905512,
          "duration": 0.7771737187499639
        },
        {
          "name": "A3",
          "midi": 57,
          "time": 202.16842771874374,
          "velocity": 0.7480314960629921,
          "duration": 0.39130424999996194
        },
        {
          "name": "F#1",
          "midi": 30,
          "time": 202.16842771874374,
          "velocity": 0.6141732283464567,
          "duration": 0.11413040625001258
        },
        {
          "name": "G#3",
          "midi": 56,
          "time": 202.16842771874374,
          "velocity": 0.84251968503937,
          "duration": 0.24456515624999042
        },
        {
          "name": "D#3",
          "midi": 51,
          "time": 202.17929728124375,
          "velocity": 0.8267716535433071,
          "duration": 0.0054347812499884185
        },
        {
          "name": "D3",
          "midi": 50,
          "time": 202.40755809374375,
          "velocity": 0.9212598425196851,
          "duration": 0.05434781249996945
        },
        {
          "name": "D2",
          "midi": 38,
          "time": 202.42929721874373,
          "velocity": 0.8503937007874016,
          "duration": 0.15760865624997678
        },
        {
          "name": "D#3",
          "midi": 51,
          "time": 202.43473199999372,
          "velocity": 0.7322834645669292,
          "duration": 0.0054347812499884185
        },
        {
          "name": "C2",
          "midi": 36,
          "time": 202.43473199999372,
          "velocity": 0.8740157480314961,
          "duration": 0.0054347812499884185
        },
        {
          "name": "D3",
          "midi": 50,
          "time": 202.43473199999372,
          "velocity": 0.9763779527559056,
          "duration": 0.777173718749907
        },
        {
          "name": "A3",
          "midi": 57,
          "time": 202.6629928124937,
          "velocity": 0.6141732283464567,
          "duration": 0.05434781249999787
        },
        {
          "name": "A3",
          "midi": 57,
          "time": 202.6901667187437,
          "velocity": 0.7322834645669292,
          "duration": 0.2554347187499957
        },
        {
          "name": "C#4",
          "midi": 61,
          "time": 202.6901667187437,
          "velocity": 0.7322834645669292,
          "duration": 0.2554347187499957
        },
        {
          "name": "E4",
          "midi": 64,
          "time": 202.6901667187437,
          "velocity": 0.6614173228346457,
          "duration": 0.2880434062499546
        },
        {
          "name": "D2",
          "midi": 38,
          "time": 202.6901667187437,
          "velocity": 0.6692913385826772,
          "duration": 0.14130431250001152
        },
        {
          "name": "A3",
          "midi": 57,
          "time": 202.6901667187437,
          "velocity": 0.6692913385826772,
          "duration": 0.5163042187499229
        },
        {
          "name": "D#3",
          "midi": 51,
          "time": 202.70103628124372,
          "velocity": 0.5196850393700787,
          "duration": 0.0054347812499884185
        },
        {
          "name": "E4",
          "midi": 64,
          "time": 202.92386231249372,
          "velocity": 0.7952755905511811,
          "duration": 0.28804340624989777
        },
        {
          "name": "E2",
          "midi": 40,
          "time": 202.94016665624372,
          "velocity": 0.6377952755905512,
          "duration": 0.0054347812499884185
        },
        {
          "name": "A3",
          "midi": 57,
          "time": 202.9510362187437,
          "velocity": 0.6062992125984252,
          "duration": 0.25543471874993884
        },
        {
          "name": "E4",
          "midi": 64,
          "time": 202.9510362187437,
          "velocity": 0.5905511811023622,
          "duration": 0.38586946874988826
        },
        {
          "name": "C#4",
          "midi": 61,
          "time": 202.9510362187437,
          "velocity": 0.6062992125984252,
          "duration": 0.26086949999992726
        },
        {
          "name": "D2",
          "midi": 38,
          "time": 202.9510362187437,
          "velocity": 0.952755905511811,
          "duration": 0.17934778124995887
        },
        {
          "name": "E4",
          "midi": 64,
          "time": 202.9510362187437,
          "velocity": 0.8503937007874016,
          "duration": 1.5652169999997056
        },
        {
          "name": "E2",
          "midi": 40,
          "time": 202.95647099999368,
          "velocity": 0.9291338582677166,
          "duration": 0.0054347812499884185
        },
        {
          "name": "D#3",
          "midi": 51,
          "time": 202.96190578124367,
          "velocity": 0.6535433070866141,
          "duration": 0.0054347812499884185
        },
        {
          "name": "A3",
          "midi": 57,
          "time": 203.18473181249365,
          "velocity": 0.7086614173228346,
          "duration": 0.05434781249994103
        },
        {
          "name": "D3",
          "midi": 50,
          "time": 203.19016659374364,
          "velocity": 0.7401574803149606,
          "duration": 0.05434781249994103
        },
        {
          "name": "A3",
          "midi": 57,
          "time": 203.21190571874362,
          "velocity": 0.8267716535433071,
          "duration": 0.48369553124990716
        },
        {
          "name": "F#4",
          "midi": 66,
          "time": 203.21190571874362,
          "velocity": 0.7480314960629921,
          "duration": 0.5163042187499229
        },
        {
          "name": "D4",
          "midi": 62,
          "time": 203.21190571874362,
          "velocity": 0.8267716535433071,
          "duration": 0.2880434062499262
        },
        {
          "name": "D#3",
          "midi": 51,
          "time": 203.21190571874362,
          "velocity": 0.7795275590551181,
          "duration": 0.0054347812499884185
        },
        {
          "name": "D2",
          "midi": 38,
          "time": 203.21190571874362,
          "velocity": 0.7086614173228346,
          "duration": 0.15760865624994835
        },
        {
          "name": "A3",
          "midi": 57,
          "time": 203.21190571874362,
          "velocity": 0.7637795275590551,
          "duration": 0.5163042187499229
        },
        {
          "name": "C2",
          "midi": 36,
          "time": 203.2173404999936,
          "velocity": 0.5984251968503937,
          "duration": 0.0054347812499884185
        },
        {
          "name": "D3",
          "midi": 50,
          "time": 203.2173404999936,
          "velocity": 0.7952755905511811,
          "duration": 0.7771737187498786
        },
        {
          "name": "D4",
          "midi": 62,
          "time": 203.44560131249358,
          "velocity": 0.7952755905511811,
          "duration": 0.2826086249999662
        },
        {
          "name": "D2",
          "midi": 38,
          "time": 203.47277521874358,
          "velocity": 0.9133858267716536,
          "duration": 0.1630434374999652
        },
        {
          "name": "D4",
          "midi": 62,
          "time": 203.47277521874358,
          "velocity": 0.8503937007874016,
          "duration": 0.3858694687499167
        },
        {
          "name": "D#3",
          "midi": 51,
          "time": 203.47820999999357,
          "velocity": 0.7244094488188977,
          "duration": 0.0054347812499884185
        },
        {
          "name": "C2",
          "midi": 36,
          "time": 203.47820999999357,
          "velocity": 0.8661417322834646,
          "duration": 0.0054347812499884185
        },
        {
          "name": "A3",
          "midi": 57,
          "time": 203.70647081249354,
          "velocity": 0.7716535433070866,
          "duration": 0.05434781249996945
        },
        {
          "name": "D4",
          "midi": 62,
          "time": 203.73364471874353,
          "velocity": 0.7952755905511811,
          "duration": 0.29347818749994303
        },
        {
          "name": "A3",
          "midi": 57,
          "time": 203.73364471874353,
          "velocity": 0.7952755905511811,
          "duration": 0.2663042812499441
        },
        {
          "name": "F#4",
          "midi": 66,
          "time": 203.73364471874353,
          "velocity": 0.7480314960629921,
          "duration": 0.5217389999999398
        },
        {
          "name": "D#3",
          "midi": 51,
          "time": 203.73364471874353,
          "velocity": 0.36220472440944884,
          "duration": 0.0054347812499884185
        },
        {
          "name": "D2",
          "midi": 38,
          "time": 203.73364471874353,
          "velocity": 0.7795275590551181,
          "duration": 0.15760865624994835
        },
        {
          "name": "A3",
          "midi": 57,
          "time": 203.73364471874353,
          "velocity": 0.8267716535433071,
          "duration": 0.3858694687499451
        },
        {
          "name": "C2",
          "midi": 36,
          "time": 203.73907949999352,
          "velocity": 0.8661417322834646,
          "duration": 0.0054347812499884185
        },
        {
          "name": "D5",
          "midi": 74,
          "time": 203.73907949999352,
          "velocity": 0.5039370078740157,
          "duration": 0.7771737187498786
        },
        {
          "name": "D4",
          "midi": 62,
          "time": 203.97277509374348,
          "velocity": 0.5669291338582677,
          "duration": 0.2826086249999946
        },
        {
          "name": "D3",
          "midi": 50,
          "time": 203.97277509374348,
          "velocity": 0.7165354330708661,
          "duration": 0.05434781249999787
        },
        {
          "name": "A3",
          "midi": 57,
          "time": 203.9945142187435,
          "velocity": 0.6771653543307087,
          "duration": 0.2554347187499957
        },
        {
          "name": "E2",
          "midi": 40,
          "time": 203.99994899999348,
          "velocity": 0.9291338582677166,
          "duration": 0.0054347812499884185
        },
        {
          "name": "D2",
          "midi": 38,
          "time": 203.99994899999348,
          "velocity": 0.8818897637795275,
          "duration": 0.16847821875001046
        },
        {
          "name": "D4",
          "midi": 62,
          "time": 203.99994899999348,
          "velocity": 0.6220472440944882,
          "duration": 0.3858694687499735
        },
        {
          "name": "D3",
          "midi": 50,
          "time": 203.99994899999348,
          "velocity": 0.7716535433070866,
          "duration": 0.5163042187499229
        },
        {
          "name": "A3",
          "midi": 57,
          "time": 204.22820981249347,
          "velocity": 0.7874015748031497,
          "duration": 0.05434781249996945
        },
        {
          "name": "E4",
          "midi": 64,
          "time": 204.25538371874347,
          "velocity": 0.6850393700787402,
          "duration": 0.3913042499999051
        },
        {
          "name": "A3",
          "midi": 57,
          "time": 204.25538371874347,
          "velocity": 0.6771653543307087,
          "duration": 0.24456515624993358
        },
        {
          "name": "C#4",
          "midi": 61,
          "time": 204.25538371874347,
          "velocity": 0.6771653543307087,
          "duration": 0.3913042499999051
        },
        {
          "name": "E2",
          "midi": 40,
          "time": 204.25538371874347,
          "velocity": 0.8976377952755905,
          "duration": 0.2065216874999578
        },
        {
          "name": "A3",
          "midi": 57,
          "time": 204.25538371874347,
          "velocity": 0.84251968503937,
          "duration": 0.3913042499999051
        },
        {
          "name": "C2",
          "midi": 36,
          "time": 204.26081849999346,
          "velocity": 0.8740157480314961,
          "duration": 0.0054347812499884185
        },
        {
          "name": "A2",
          "midi": 45,
          "time": 204.49451409374342,
          "velocity": 0.9212598425196851,
          "duration": 0.05434781249996945
        },
        {
          "name": "C#3",
          "midi": 49,
          "time": 204.5162532187434,
          "velocity": 0.6692913385826772,
          "duration": 0.0054347812499884185
        },
        {
          "name": "C2",
          "midi": 36,
          "time": 204.5216879999934,
          "velocity": 0.8818897637795275,
          "duration": 0.0054347812499884185
        },
        {
          "name": "A1",
          "midi": 33,
          "time": 204.5216879999934,
          "velocity": 0.9291338582677166,
          "duration": 0.119565187500001
        },
        {
          "name": "A2",
          "midi": 45,
          "time": 204.5216879999934,
          "velocity": 0.9763779527559056,
          "duration": 1.9673908124997865
        },
        {
          "name": "E4",
          "midi": 64,
          "time": 204.5216879999934,
          "velocity": 0.5511811023622047,
          "duration": 0.5108694374999914
        },
        {
          "name": "A4",
          "midi": 69,
          "time": 204.5216879999934,
          "velocity": 0.5511811023622047,
          "duration": 3.1467383437496323
        },
        {
          "name": "E3",
          "midi": 52,
          "time": 204.7499488124934,
          "velocity": 0.6141732283464567,
          "duration": 0.05434781249999787
        },
        {
          "name": "C#4",
          "midi": 61,
          "time": 204.77712271874339,
          "velocity": 0.7952755905511811,
          "duration": 0.2554347187499957
        },
        {
          "name": "A3",
          "midi": 57,
          "time": 204.77712271874339,
          "velocity": 0.7952755905511811,
          "duration": 0.2554347187499957
        },
        {
          "name": "E4",
          "midi": 64,
          "time": 204.77712271874339,
          "velocity": 0.7401574803149606,
          "duration": 0.5163042187499514
        },
        {
          "name": "A1",
          "midi": 33,
          "time": 204.77712271874339,
          "velocity": 0.7165354330708661,
          "duration": 0.1793477812499873
        },
        {
          "name": "E3",
          "midi": 52,
          "time": 204.77712271874339,
          "velocity": 0.6692913385826772,
          "duration": 0.3858694687499451
        },
        {
          "name": "D#3",
          "midi": 51,
          "time": 204.7879922812434,
          "velocity": 0.5118110236220472,
          "duration": 0.0054347812499884185
        },
        {
          "name": "B3",
          "midi": 59,
          "time": 205.01081831249337,
          "velocity": 0.8503937007874016,
          "duration": 0.05434781249996945
        },
        {
          "name": "E4",
          "midi": 64,
          "time": 205.03799221874337,
          "velocity": 0.7716535433070866,
          "duration": 0.7771737187498786
        },
        {
          "name": "C#4",
          "midi": 61,
          "time": 205.03799221874337,
          "velocity": 0.7165354330708661,
          "duration": 0.25543471874996726
        },
        {
          "name": "A3",
          "midi": 57,
          "time": 205.03799221874337,
          "velocity": 0.7165354330708661,
          "duration": 0.25543471874996726
        },
        {
          "name": "A1",
          "midi": 33,
          "time": 205.03799221874337,
          "velocity": 0.9133858267716536,
          "duration": 0.19021734374996413
        },
        {
          "name": "B3",
          "midi": 59,
          "time": 205.03799221874337,
          "velocity": 0.905511811023622,
          "duration": 0.25543471874996726
        },
        {
          "name": "E2",
          "midi": 40,
          "time": 205.04342699999336,
          "velocity": 0.9291338582677166,
          "duration": 0.0054347812499884185
        },
        {
          "name": "D#3",
          "midi": 51,
          "time": 205.04886178124335,
          "velocity": 0.84251968503937,
          "duration": 0.0054347812499884185
        },
        {
          "name": "E3",
          "midi": 52,
          "time": 205.27168781249333,
          "velocity": 0.7086614173228346,
          "duration": 0.05434781249996945
        },
        {
          "name": "A3",
          "midi": 57,
          "time": 205.29886171874332,
          "velocity": 0.7559055118110236,
          "duration": 0.5163042187499229
        },
        {
          "name": "C#4",
          "midi": 61,
          "time": 205.29886171874332,
          "velocity": 0.7559055118110236,
          "duration": 0.2880434062499262
        },
        {
          "name": "E4",
          "midi": 64,
          "time": 205.29886171874332,
          "velocity": 0.7401574803149606,
          "duration": 1.0380432187498627
        },
        {
          "name": "A1",
          "midi": 33,
          "time": 205.29886171874332,
          "velocity": 0.7795275590551181,
          "duration": 0.17934778124995887
        },
        {
          "name": "E3",
          "midi": 52,
          "time": 205.29886171874332,
          "velocity": 0.7637795275590551,
          "duration": 0.6467389687499008
        },
        {
          "name": "C2",
          "midi": 36,
          "time": 205.3042964999933,
          "velocity": 0.5905511811023622,
          "duration": 0.0054347812499884185
        },
        {
          "name": "D#3",
          "midi": 51,
          "time": 205.3097312812433,
          "velocity": 0.5433070866141733,
          "duration": 0.0054347812499884185
        },
        {
          "name": "C#4",
          "midi": 61,
          "time": 205.53255731249328,
          "velocity": 0.7952755905511811,
          "duration": 0.2826086249999662
        },
        {
          "name": "A1",
          "midi": 33,
          "time": 205.55973121874328,
          "velocity": 0.952755905511811,
          "duration": 0.17934778124995887
        },
        {
          "name": "C#4",
          "midi": 61,
          "time": 205.55973121874328,
          "velocity": 0.8503937007874016,
          "duration": 0.25543471874996726
        },
        {
          "name": "C2",
          "midi": 36,
          "time": 205.56516599999327,
          "velocity": 0.8818897637795275,
          "duration": 0.0054347812499884185
        },
        {
          "name": "D#3",
          "midi": 51,
          "time": 205.57060078124326,
          "velocity": 0.7952755905511811,
          "duration": 0.0054347812499884185
        },
        {
          "name": "B3",
          "midi": 59,
          "time": 205.79342681249324,
          "velocity": 0.7716535433070866,
          "duration": 0.05434781249999787
        },
        {
          "name": "E4",
          "midi": 64,
          "time": 205.82060071874324,
          "velocity": 0.6692913385826772,
          "duration": 0.9130432499999017
        },
        {
          "name": "C#4",
          "midi": 61,
          "time": 205.82060071874324,
          "velocity": 0.8110236220472441,
          "duration": 0.5163042187499514
        },
        {
          "name": "A3",
          "midi": 57,
          "time": 205.82060071874324,
          "velocity": 0.8110236220472441,
          "duration": 0.5163042187499514
        },
        {
          "name": "D#3",
          "midi": 51,
          "time": 205.82060071874324,
          "velocity": 0.5433070866141733,
          "duration": 0.0054347812499884185
        },
        {
          "name": "A1",
          "midi": 33,
          "time": 205.82060071874324,
          "velocity": 0.6614173228346457,
          "duration": 0.15760865624997678
        },
        {
          "name": "B3",
          "midi": 59,
          "time": 205.82060071874324,
          "velocity": 0.8267716535433071,
          "duration": 0.4891303124999524
        },
        {
          "name": "E3",
          "midi": 52,
          "time": 206.05429631249322,
          "velocity": 0.7165354330708661,
          "duration": 0.05434781249996945
        },
        {
          "name": "D#3",
          "midi": 51,
          "time": 206.08147021874322,
          "velocity": 0.7401574803149606,
          "duration": 0.0054347812499884185
        },
        {
          "name": "A1",
          "midi": 33,
          "time": 206.08147021874322,
          "velocity": 0.952755905511811,
          "duration": 0.19021734374996413
        },
        {
          "name": "E3",
          "midi": 52,
          "time": 206.08147021874322,
          "velocity": 0.7716535433070866,
          "duration": 0.3858694687499451
        },
        {
          "name": "E2",
          "midi": 40,
          "time": 206.0869049999932,
          "velocity": 0.9291338582677166,
          "duration": 0.0054347812499884185
        },
        {
          "name": "B3",
          "midi": 59,
          "time": 206.31516581249318,
          "velocity": 0.7874015748031497,
          "duration": 0.05434781249999787
        },
        {
          "name": "C#4",
          "midi": 61,
          "time": 206.34233971874318,
          "velocity": 0.7716535433070866,
          "duration": 0.39130424999996194
        },
        {
          "name": "A3",
          "midi": 57,
          "time": 206.34233971874318,
          "velocity": 0.7716535433070866,
          "duration": 0.39130424999996194
        },
        {
          "name": "E4",
          "midi": 64,
          "time": 206.34233971874318,
          "velocity": 0.6692913385826772,
          "duration": 0.7771737187499639
        },
        {
          "name": "D#3",
          "midi": 51,
          "time": 206.34233971874318,
          "velocity": 0.7952755905511811,
          "duration": 0.0054347812499884185
        },
        {
          "name": "A1",
          "midi": 33,
          "time": 206.34233971874318,
          "velocity": 0.7165354330708661,
          "duration": 0.1576086562500052
        },
        {
          "name": "B3",
          "midi": 59,
          "time": 206.34233971874318,
          "velocity": 0.84251968503937,
          "duration": 0.24456515624999042
        },
        {
          "name": "A2",
          "midi": 45,
          "time": 206.58147009374318,
          "velocity": 0.9212598425196851,
          "duration": 0.05434781249996945
        },
        {
          "name": "D#3",
          "midi": 51,
          "time": 206.60320921874316,
          "velocity": 0.7637795275590551,
          "duration": 0.0054347812499884185
        },
        {
          "name": "A1",
          "midi": 33,
          "time": 206.60320921874316,
          "velocity": 0.9133858267716536,
          "duration": 0.1847825624999757
        },
        {
          "name": "C2",
          "midi": 36,
          "time": 206.60864399999315,
          "velocity": 0.8661417322834646,
          "duration": 0.0054347812499884185
        },
        {
          "name": "A2",
          "midi": 45,
          "time": 206.60864399999315,
          "velocity": 0.9763779527559056,
          "duration": 1.9673908124997865
        },
        {
          "name": "E3",
          "midi": 52,
          "time": 206.83690481249315,
          "velocity": 0.6141732283464567,
          "duration": 0.05434781249999787
        },
        {
          "name": "C#4",
          "midi": 61,
          "time": 206.86407871874314,
          "velocity": 0.7952755905511811,
          "duration": 0.2554347187499957
        },
        {
          "name": "A3",
          "midi": 57,
          "time": 206.86407871874314,
          "velocity": 0.7952755905511811,
          "duration": 0.2554347187499957
        },
        {
          "name": "E4",
          "midi": 64,
          "time": 206.86407871874314,
          "velocity": 0.7637795275590551,
          "duration": 0.5163042187499514
        },
        {
          "name": "D#3",
          "midi": 51,
          "time": 206.86407871874314,
          "velocity": 0.5275590551181102,
          "duration": 0.0054347812499884185
        },
        {
          "name": "A1",
          "midi": 33,
          "time": 206.86407871874314,
          "velocity": 0.7165354330708661,
          "duration": 0.15217387499998836
        },
        {
          "name": "E3",
          "midi": 52,
          "time": 206.86407871874314,
          "velocity": 0.6692913385826772,
          "duration": 0.3858694687499451
        },
        {
          "name": "B3",
          "midi": 59,
          "time": 207.09777431249313,
          "velocity": 0.8503937007874016,
          "duration": 0.05434781249996945
        },
        {
          "name": "E4",
          "midi": 64,
          "time": 207.12494821874313,
          "velocity": 0.6850393700787402,
          "duration": 0.7771737187498786
        },
        {
          "name": "A3",
          "midi": 57,
          "time": 207.12494821874313,
          "velocity": 0.7480314960629921,
          "duration": 0.25543471874996726
        },
        {
          "name": "C#4",
          "midi": 61,
          "time": 207.12494821874313,
          "velocity": 0.7480314960629921,
          "duration": 0.25543471874996726
        },
        {
          "name": "D#3",
          "midi": 51,
          "time": 207.12494821874313,
          "velocity": 0.7795275590551181,
          "duration": 0.0054347812499884185
        },
        {
          "name": "A1",
          "midi": 33,
          "time": 207.12494821874313,
          "velocity": 0.8976377952755905,
          "duration": 0.17934778124995887
        },
        {
          "name": "B3",
          "midi": 59,
          "time": 207.12494821874313,
          "velocity": 0.905511811023622,
          "duration": 0.244565156249962
        },
        {
          "name": "E2",
          "midi": 40,
          "time": 207.13038299999312,
          "velocity": 0.9291338582677166,
          "duration": 0.0054347812499884185
        },
        {
          "name": "E3",
          "midi": 52,
          "time": 207.35864381249309,
          "velocity": 0.7086614173228346,
          "duration": 0.05434781249996945
        },
        {
          "name": "C#4",
          "midi": 61,
          "time": 207.38581771874308,
          "velocity": 0.7716535433070866,
          "duration": 0.2880434062499262
        },
        {
          "name": "A3",
          "midi": 57,
          "time": 207.38581771874308,
          "velocity": 0.7716535433070866,
          "duration": 0.5163042187499229
        },
        {
          "name": "E4",
          "midi": 64,
          "time": 207.38581771874308,
          "velocity": 0.7716535433070866,
          "duration": 1.0380432187498627
        },
        {
          "name": "D#3",
          "midi": 51,
          "time": 207.38581771874308,
          "velocity": 0.8031496062992126,
          "duration": 0.0054347812499884185
        },
        {
          "name": "A1",
          "midi": 33,
          "time": 207.38581771874308,
          "velocity": 0.6692913385826772,
          "duration": 0.15760865624997678
        },
        {
          "name": "E3",
          "midi": 52,
          "time": 207.38581771874308,
          "velocity": 0.7637795275590551,
          "duration": 0.24456515624999042
        },
        {
          "name": "C2",
          "midi": 36,
          "time": 207.39125249999307,
          "velocity": 0.5669291338582677,
          "duration": 0.0054347812499884185
        },
        {
          "name": "C#4",
          "midi": 61,
          "time": 207.61951331249307,
          "velocity": 0.7952755905511811,
          "duration": 0.2826086249999378
        },
        {
          "name": "B4",
          "midi": 71,
          "time": 207.64125243749308,
          "velocity": 0.6692913385826772,
          "duration": 1.0326084374998459
        },
        {
          "name": "A1",
          "midi": 33,
          "time": 207.64668721874307,
          "velocity": 0.952755905511811,
          "duration": 0.1902173437499357
        },
        {
          "name": "C#4",
          "midi": 61,
          "time": 207.64668721874307,
          "velocity": 0.8503937007874016,
          "duration": 0.25543471874993884
        },
        {
          "name": "C2",
          "midi": 36,
          "time": 207.65212199999306,
          "velocity": 0.8740157480314961,
          "duration": 0.0054347812499884185
        },
        {
          "name": "D#3",
          "midi": 51,
          "time": 207.65755678124304,
          "velocity": 0.6299212598425197,
          "duration": 0.0054347812499884185
        },
        {
          "name": "B3",
          "midi": 59,
          "time": 207.880382812493,
          "velocity": 0.7716535433070866,
          "duration": 0.05434781249999787
        },
        {
          "name": "C#4",
          "midi": 61,
          "time": 207.907556718743,
          "velocity": 0.8740157480314961,
          "duration": 0.5163042187499514
        },
        {
          "name": "E4",
          "midi": 64,
          "time": 207.907556718743,
          "velocity": 0.6771653543307087,
          "duration": 0.7336954687499428
        },
        {
          "name": "A3",
          "midi": 57,
          "time": 207.907556718743,
          "velocity": 0.6771653543307087,
          "duration": 0.5163042187499514
        },
        {
          "name": "A1",
          "midi": 33,
          "time": 207.907556718743,
          "velocity": 0.7007874015748031,
          "duration": 0.16304343749999362
        },
        {
          "name": "B3",
          "midi": 59,
          "time": 207.907556718743,
          "velocity": 0.8267716535433071,
          "duration": 0.4728259687499303
        },
        {
          "name": "D#3",
          "midi": 51,
          "time": 207.918426281243,
          "velocity": 0.48031496062992124,
          "duration": 0.0054347812499884185
        },
        {
          "name": "E3",
          "midi": 52,
          "time": 208.14125231249298,
          "velocity": 0.7165354330708661,
          "duration": 0.05434781249996945
        },
        {
          "name": "A1",
          "midi": 33,
          "time": 208.16842621874298,
          "velocity": 0.8976377952755905,
          "duration": 0.2065216874999578
        },
        {
          "name": "E3",
          "midi": 52,
          "time": 208.16842621874298,
          "velocity": 0.7716535433070866,
          "duration": 0.244565156249962
        },
        {
          "name": "E2",
          "midi": 40,
          "time": 208.17386099999297,
          "velocity": 0.9291338582677166,
          "duration": 0.0054347812499884185
        },
        {
          "name": "D#3",
          "midi": 51,
          "time": 208.17929578124296,
          "velocity": 0.6535433070866141,
          "duration": 0.0054347812499884185
        },
        {
          "name": "B3",
          "midi": 59,
          "time": 208.40212181249294,
          "velocity": 0.7874015748031497,
          "duration": 0.05434781249999787
        },
        {
          "name": "C#4",
          "midi": 61,
          "time": 208.42929571874294,
          "velocity": 0.6850393700787402,
          "duration": 0.3913042499999335
        },
        {
          "name": "A3",
          "midi": 57,
          "time": 208.42929571874294,
          "velocity": 0.6850393700787402,
          "duration": 0.3913042499999335
        },
        {
          "name": "E4",
          "midi": 64,
          "time": 208.42929571874294,
          "velocity": 0.5511811023622047,
          "duration": 0.3913042499999335
        },
        {
          "name": "A1",
          "midi": 33,
          "time": 208.42929571874294,
          "velocity": 0.8188976377952756,
          "duration": 0.16847821875001046
        },
        {
          "name": "B3",
          "midi": 59,
          "time": 208.42929571874294,
          "velocity": 0.84251968503937,
          "duration": 0.24456515624999042
        },
        {
          "name": "D#3",
          "midi": 51,
          "time": 208.44016528124294,
          "velocity": 0.7559055118110236,
          "duration": 0.0054347812499884185
        },
        {
          "name": "F#2",
          "midi": 42,
          "time": 208.66842609374294,
          "velocity": 0.9212598425196851,
          "duration": 0.05434781249994103
        },
        {
          "name": "A4",
          "midi": 69,
          "time": 208.67386087499293,
          "velocity": 0.6299212598425197,
          "duration": 3.1630426874995408
        },
        {
          "name": "E4",
          "midi": 64,
          "time": 208.67386087499293,
          "velocity": 0.5905511811023622,
          "duration": 0.532608562499945
        },
        {
          "name": "F#1",
          "midi": 30,
          "time": 208.69016521874292,
          "velocity": 0.7952755905511811,
          "duration": 0.16304343749993677
        },
        {
          "name": "C2",
          "midi": 36,
          "time": 208.6955999999929,
          "velocity": 0.8503937007874016,
          "duration": 0.0054347812499884185
        },
        {
          "name": "F#2",
          "midi": 42,
          "time": 208.6955999999929,
          "velocity": 0.9763779527559056,
          "duration": 1.9673908124997865
        },
        {
          "name": "D#3",
          "midi": 51,
          "time": 208.7010347812429,
          "velocity": 0.7322834645669292,
          "duration": 0.0054347812499884185
        },
        {
          "name": "C#3",
          "midi": 49,
          "time": 208.92386081249285,
          "velocity": 0.6141732283464567,
          "duration": 0.05434781249999787
        },
        {
          "name": "A3",
          "midi": 57,
          "time": 208.95103471874285,
          "velocity": 0.6929133858267716,
          "duration": 0.2554347187500241
        },
        {
          "name": "E4",
          "midi": 64,
          "time": 208.95103471874285,
          "velocity": 0.7244094488188977,
          "duration": 0.5163042187499798
        },
        {
          "name": "C#4",
          "midi": 61,
          "time": 208.95103471874285,
          "velocity": 0.6929133858267716,
          "duration": 0.2554347187500241
        },
        {
          "name": "F#1",
          "midi": 30,
          "time": 208.95103471874285,
          "velocity": 0.7952755905511811,
          "duration": 0.14130431250001152
        },
        {
          "name": "C#3",
          "midi": 49,
          "time": 208.95103471874285,
          "velocity": 0.6692913385826772,
          "duration": 0.3858694687499735
        },
        {
          "name": "D#3",
          "midi": 51,
          "time": 208.96190428124285,
          "velocity": 0.4330708661417323,
          "duration": 0.0054347812499884185
        },
        {
          "name": "G#3",
          "midi": 56,
          "time": 209.18473031249286,
          "velocity": 0.8503937007874016,
          "duration": 0.05434781249996945
        },
        {
          "name": "E4",
          "midi": 64,
          "time": 209.21190421874286,
          "velocity": 0.6141732283464567,
          "duration": 0.7771737187498786
        },
        {
          "name": "A3",
          "midi": 57,
          "time": 209.21190421874286,
          "velocity": 0.7244094488188977,
          "duration": 0.25543471874996726
        },
        {
          "name": "C#4",
          "midi": 61,
          "time": 209.21190421874286,
          "velocity": 0.7244094488188977,
          "duration": 0.25543471874996726
        },
        {
          "name": "D#3",
          "midi": 51,
          "time": 209.21190421874286,
          "velocity": 0.6614173228346457,
          "duration": 0.0054347812499884185
        },
        {
          "name": "F#1",
          "midi": 30,
          "time": 209.21190421874286,
          "velocity": 0.952755905511811,
          "duration": 0.19021734374996413
        },
        {
          "name": "G#3",
          "midi": 56,
          "time": 209.21190421874286,
          "velocity": 0.905511811023622,
          "duration": 0.244565156249962
        },
        {
          "name": "E2",
          "midi": 40,
          "time": 209.21733899999285,
          "velocity": 0.9291338582677166,
          "duration": 0.0054347812499884185
        },
        {
          "name": "C#3",
          "midi": 49,
          "time": 209.44559981249282,
          "velocity": 0.7086614173228346,
          "duration": 0.05434781249996945
        },
        {
          "name": "C#4",
          "midi": 61,
          "time": 209.47277371874281,
          "velocity": 0.7716535433070866,
          "duration": 0.5163042187499229
        },
        {
          "name": "A3",
          "midi": 57,
          "time": 209.47277371874281,
          "velocity": 0.7716535433070866,
          "duration": 0.2880434062499262
        },
        {
          "name": "E4",
          "midi": 64,
          "time": 209.47277371874281,
          "velocity": 0.6850393700787402,
          "duration": 1.0380432187498911
        },
        {
          "name": "F#1",
          "midi": 30,
          "time": 209.47277371874281,
          "velocity": 0.7322834645669292,
          "duration": 0.13586953124996626
        },
        {
          "name": "C#3",
          "midi": 49,
          "time": 209.47277371874281,
          "velocity": 0.7637795275590551,
          "duration": 0.244565156249962
        },
        {
          "name": "C2",
          "midi": 36,
          "time": 209.4782084999928,
          "velocity": 0.6377952755905512,
          "duration": 0.0054347812499884185
        },
        {
          "name": "D#3",
          "midi": 51,
          "time": 209.4836432812428,
          "velocity": 0.7480314960629921,
          "duration": 0.0054347812499884185
        },
        {
          "name": "A3",
          "midi": 57,
          "time": 209.70646931249277,
          "velocity": 0.7952755905511811,
          "duration": 0.2826086249999662
        },
        {
          "name": "F#1",
          "midi": 30,
          "time": 209.73364321874277,
          "velocity": 0.9448818897637795,
          "duration": 0.1630434374999652
        },
        {
          "name": "A3",
          "midi": 57,
          "time": 209.73364321874277,
          "velocity": 0.8503937007874016,
          "duration": 0.25543471874996726
        },
        {
          "name": "C2",
          "midi": 36,
          "time": 209.73907799999276,
          "velocity": 0.8740157480314961,
          "duration": 0.0054347812499884185
        },
        {
          "name": "D#3",
          "midi": 51,
          "time": 209.74451278124275,
          "velocity": 0.7401574803149606,
          "duration": 0.0054347812499884185
        },
        {
          "name": "G#3",
          "midi": 56,
          "time": 209.96733881249273,
          "velocity": 0.7716535433070866,
          "duration": 0.05434781249999787
        },
        {
          "name": "E4",
          "midi": 64,
          "time": 209.99451271874273,
          "velocity": 0.6771653543307087,
          "duration": 0.9130432499999301
        },
        {
          "name": "C#4",
          "midi": 61,
          "time": 209.99451271874273,
          "velocity": 0.7795275590551181,
          "duration": 0.5163042187499798
        },
        {
          "name": "A3",
          "midi": 57,
          "time": 209.99451271874273,
          "velocity": 0.7795275590551181,
          "duration": 0.5163042187499798
        },
        {
          "name": "F#1",
          "midi": 30,
          "time": 209.99451271874273,
          "velocity": 0.8110236220472441,
          "duration": 0.15217387499998836
        },
        {
          "name": "G#3",
          "midi": 56,
          "time": 209.99451271874273,
          "velocity": 0.8267716535433071,
          "duration": 0.47282596874995875
        },
        {
          "name": "D#3",
          "midi": 51,
          "time": 210.00538228124273,
          "velocity": 0.44881889763779526,
          "duration": 0.0054347812499884185
        },
        {
          "name": "C#3",
          "midi": 49,
          "time": 210.2282083124927,
          "velocity": 0.7165354330708661,
          "duration": 0.05434781249996945
        },
        {
          "name": "F#1",
          "midi": 30,
          "time": 210.2553822187427,
          "velocity": 0.9212598425196851,
          "duration": 0.19021734374996413
        },
        {
          "name": "C#3",
          "midi": 49,
          "time": 210.2553822187427,
          "velocity": 0.7716535433070866,
          "duration": 0.24456515624999042
        },
        {
          "name": "E2",
          "midi": 40,
          "time": 210.2608169999927,
          "velocity": 0.9291338582677166,
          "duration": 0.0054347812499884185
        },
        {
          "name": "D#3",
          "midi": 51,
          "time": 210.2608169999927,
          "velocity": 0.7086614173228346,
          "duration": 0.0054347812499884185
        },
        {
          "name": "G#3",
          "midi": 56,
          "time": 210.4890778124927,
          "velocity": 0.7874015748031497,
          "duration": 0.05434781249999787
        },
        {
          "name": "A3",
          "midi": 57,
          "time": 210.5162517187427,
          "velocity": 0.7480314960629921,
          "duration": 0.39130424999996194
        },
        {
          "name": "C#4",
          "midi": 61,
          "time": 210.5162517187427,
          "velocity": 0.7480314960629921,
          "duration": 0.39130424999996194
        },
        {
          "name": "E4",
          "midi": 64,
          "time": 210.5162517187427,
          "velocity": 0.6929133858267716,
          "duration": 0.777173718749907
        },
        {
          "name": "D2",
          "midi": 38,
          "time": 210.5162517187427,
          "velocity": 0.8031496062992126,
          "duration": 0.16304343749999362
        },
        {
          "name": "G#3",
          "midi": 56,
          "time": 210.5162517187427,
          "velocity": 0.84251968503937,
          "duration": 0.24456515624999042
        },
        {
          "name": "D#3",
          "midi": 51,
          "time": 210.5271212812427,
          "velocity": 0.7559055118110236,
          "duration": 0.0054347812499884185
        },
        {
          "name": "D3",
          "midi": 50,
          "time": 210.7553820937427,
          "velocity": 0.9212598425196851,
          "duration": 0.05434781249996945
        },
        {
          "name": "D2",
          "midi": 38,
          "time": 210.77712121874268,
          "velocity": 0.6692913385826772,
          "duration": 0.17391299999997045
        },
        {
          "name": "D#3",
          "midi": 51,
          "time": 210.78255599999267,
          "velocity": 0.7322834645669292,
          "duration": 0.0054347812499884185
        },
        {
          "name": "C2",
          "midi": 36,
          "time": 210.78255599999267,
          "velocity": 0.8740157480314961,
          "duration": 0.0054347812499884185
        },
        {
          "name": "D3",
          "midi": 50,
          "time": 210.78255599999267,
          "velocity": 0.9763779527559056,
          "duration": 0.7771737187498786
        },
        {
          "name": "A3",
          "midi": 57,
          "time": 211.01081681249264,
          "velocity": 0.6141732283464567,
          "duration": 0.05434781249999787
        },
        {
          "name": "E4",
          "midi": 64,
          "time": 211.03799071874263,
          "velocity": 0.7165354330708661,
          "duration": 0.2880434062499262
        },
        {
          "name": "C#4",
          "midi": 61,
          "time": 211.03799071874263,
          "velocity": 0.7795275590551181,
          "duration": 0.25543471874996726
        },
        {
          "name": "A3",
          "midi": 57,
          "time": 211.03799071874263,
          "velocity": 0.7795275590551181,
          "duration": 0.25543471874996726
        },
        {
          "name": "D2",
          "midi": 38,
          "time": 211.03799071874263,
          "velocity": 0.8346456692913385,
          "duration": 0.1793477812499873
        },
        {
          "name": "A3",
          "midi": 57,
          "time": 211.03799071874263,
          "velocity": 0.6692913385826772,
          "duration": 0.5163042187499229
        },
        {
          "name": "D#3",
          "midi": 51,
          "time": 211.04886028124264,
          "velocity": 0.5196850393700787,
          "duration": 0.0054347812499884185
        },
        {
          "name": "E4",
          "midi": 64,
          "time": 211.27168631249262,
          "velocity": 0.7952755905511811,
          "duration": 0.2880434062499262
        },
        {
          "name": "E2",
          "midi": 40,
          "time": 211.2879906562426,
          "velocity": 0.6377952755905512,
          "duration": 0.0054347812499884185
        },
        {
          "name": "C#4",
          "midi": 61,
          "time": 211.2988602187426,
          "velocity": 0.7007874015748031,
          "duration": 0.2608694999999557
        },
        {
          "name": "A3",
          "midi": 57,
          "time": 211.2988602187426,
          "velocity": 0.7007874015748031,
          "duration": 0.25543471874996726
        },
        {
          "name": "E4",
          "midi": 64,
          "time": 211.2988602187426,
          "velocity": 0.5433070866141733,
          "duration": 0.3858694687499167
        },
        {
          "name": "D2",
          "midi": 38,
          "time": 211.2988602187426,
          "velocity": 0.8346456692913385,
          "duration": 0.1847825624999757
        },
        {
          "name": "E4",
          "midi": 64,
          "time": 211.2988602187426,
          "velocity": 0.8503937007874016,
          "duration": 1.5434778749998088
        },
        {
          "name": "E2",
          "midi": 40,
          "time": 211.30429499999258,
          "velocity": 0.9291338582677166,
          "duration": 0.0054347812499884185
        },
        {
          "name": "D#3",
          "midi": 51,
          "time": 211.30972978124257,
          "velocity": 0.7480314960629921,
          "duration": 0.0054347812499884185
        },
        {
          "name": "A3",
          "midi": 57,
          "time": 211.53255581249257,
          "velocity": 0.7086614173228346,
          "duration": 0.05434781249994103
        },
        {
          "name": "D3",
          "midi": 50,
          "time": 211.53799059374256,
          "velocity": 0.7401574803149606,
          "duration": 0.05434781249994103
        },
        {
          "name": "A3",
          "midi": 57,
          "time": 211.55972971874255,
          "velocity": 0.8818897637795275,
          "duration": 0.4836955312499356
        },
        {
          "name": "F#4",
          "midi": 66,
          "time": 211.55972971874255,
          "velocity": 0.7244094488188977,
          "duration": 0.5163042187499514
        },
        {
          "name": "D4",
          "midi": 62,
          "time": 211.55972971874255,
          "velocity": 0.8818897637795275,
          "duration": 0.2880434062499262
        },
        {
          "name": "D#3",
          "midi": 51,
          "time": 211.55972971874255,
          "velocity": 0.7952755905511811,
          "duration": 0.0054347812499884185
        },
        {
          "name": "D2",
          "midi": 38,
          "time": 211.55972971874255,
          "velocity": 0.8188976377952756,
          "duration": 0.1684782187499536
        },
        {
          "name": "A3",
          "midi": 57,
          "time": 211.55972971874255,
          "velocity": 0.7637795275590551,
          "duration": 0.5163042187499514
        },
        {
          "name": "C2",
          "midi": 36,
          "time": 211.56516449999253,
          "velocity": 0.5984251968503937,
          "duration": 0.0054347812499884185
        },
        {
          "name": "D3",
          "midi": 50,
          "time": 211.56516449999253,
          "velocity": 0.7952755905511811,
          "duration": 0.777173718749907
        },
        {
          "name": "D4",
          "midi": 62,
          "time": 211.7934253124925,
          "velocity": 0.7952755905511811,
          "duration": 0.2826086249999946
        },
        {
          "name": "F#4",
          "midi": 66,
          "time": 211.7988600937425,
          "velocity": 0.6850393700787402,
          "duration": 0.8043476249999344
        },
        {
          "name": "D2",
          "midi": 38,
          "time": 211.8205992187425,
          "velocity": 0.7952755905511811,
          "duration": 0.1847825624999757
        },
        {
          "name": "D4",
          "midi": 62,
          "time": 211.8205992187425,
          "velocity": 0.8503937007874016,
          "duration": 0.3858694687499451
        },
        {
          "name": "D#3",
          "midi": 51,
          "time": 211.8260339999925,
          "velocity": 0.7244094488188977,
          "duration": 0.0054347812499884185
        },
        {
          "name": "C2",
          "midi": 36,
          "time": 211.8260339999925,
          "velocity": 0.8661417322834646,
          "duration": 0.0054347812499884185
        },
        {
          "name": "A3",
          "midi": 57,
          "time": 212.0542948124925,
          "velocity": 0.7716535433070866,
          "duration": 0.05434781249996945
        },
        {
          "name": "A3",
          "midi": 57,
          "time": 212.08146871874249,
          "velocity": 0.8188976377952756,
          "duration": 0.2663042812499441
        },
        {
          "name": "F#4",
          "midi": 66,
          "time": 212.08146871874249,
          "velocity": 0.6771653543307087,
          "duration": 0.7717389374998902
        },
        {
          "name": "D4",
          "midi": 62,
          "time": 212.08146871874249,
          "velocity": 0.8188976377952756,
          "duration": 0.29347818749994303
        },
        {
          "name": "D#3",
          "midi": 51,
          "time": 212.08146871874249,
          "velocity": 0.36220472440944884,
          "duration": 0.0054347812499884185
        },
        {
          "name": "A3",
          "midi": 57,
          "time": 212.08146871874249,
          "velocity": 0.8267716535433071,
          "duration": 0.3858694687499451
        },
        {
          "name": "C2",
          "midi": 36,
          "time": 212.08690349999247,
          "velocity": 0.8661417322834646,
          "duration": 0.0054347812499884185
        },
        {
          "name": "D2",
          "midi": 38,
          "time": 212.08690349999247,
          "velocity": 0.9133858267716536,
          "duration": 0.15217387499995993
        },
        {
          "name": "D4",
          "midi": 62,
          "time": 212.32059909374243,
          "velocity": 0.5669291338582677,
          "duration": 0.2826086249999946
        },
        {
          "name": "D3",
          "midi": 50,
          "time": 212.32059909374243,
          "velocity": 0.7165354330708661,
          "duration": 0.05434781249999787
        },
        {
          "name": "A3",
          "midi": 57,
          "time": 212.34233821874244,
          "velocity": 0.6771653543307087,
          "duration": 0.2554347187499957
        },
        {
          "name": "E2",
          "midi": 40,
          "time": 212.34777299999243,
          "velocity": 0.9291338582677166,
          "duration": 0.0054347812499884185
        },
        {
          "name": "D2",
          "midi": 38,
          "time": 212.34777299999243,
          "velocity": 0.8503937007874016,
          "duration": 0.16304343749999362
        },
        {
          "name": "D4",
          "midi": 62,
          "time": 212.34777299999243,
          "velocity": 0.6220472440944882,
          "duration": 0.3858694687499735
        },
        {
          "name": "D3",
          "midi": 50,
          "time": 212.34777299999243,
          "velocity": 0.7716535433070866,
          "duration": 0.5163042187499514
        },
        {
          "name": "A3",
          "midi": 57,
          "time": 212.57603381249243,
          "velocity": 0.7874015748031497,
          "duration": 0.05434781249999787
        },
        {
          "name": "C#4",
          "midi": 61,
          "time": 212.60320771874242,
          "velocity": 0.7244094488188977,
          "duration": 0.3913042499999335
        },
        {
          "name": "E4",
          "midi": 64,
          "time": 212.60320771874242,
          "velocity": 0.6850393700787402,
          "duration": 0.3913042499999335
        },
        {
          "name": "A3",
          "midi": 57,
          "time": 212.60320771874242,
          "velocity": 0.7244094488188977,
          "duration": 0.244565156249962
        },
        {
          "name": "D2",
          "midi": 38,
          "time": 212.60320771874242,
          "velocity": 0.9291338582677166,
          "duration": 0.12499996874998942
        },
        {
          "name": "A3",
          "midi": 57,
          "time": 212.60320771874242,
          "velocity": 0.84251968503937,
          "duration": 0.3913042499999335
        },
        {
          "name": "A2",
          "midi": 45,
          "time": 212.8423380937424,
          "velocity": 0.9212598425196851,
          "duration": 0.05434781249996945
        },
        {
          "name": "D#3",
          "midi": 51,
          "time": 212.86951199999237,
          "velocity": 0.8582677165354331,
          "duration": 0.0054347812499884185
        },
        {
          "name": "C2",
          "midi": 36,
          "time": 212.86951199999237,
          "velocity": 0.8818897637795275,
          "duration": 0.0054347812499884185
        },
        {
          "name": "A1",
          "midi": 33,
          "time": 212.86951199999237,
          "velocity": 0.8976377952755905,
          "duration": 0.15217387499998836
        },
        {
          "name": "A2",
          "midi": 45,
          "time": 212.86951199999237,
          "velocity": 0.9763779527559056,
          "duration": 1.9673908124997581
        },
        {
          "name": "E4",
          "midi": 64,
          "time": 212.86951199999237,
          "velocity": 0.6220472440944882,
          "duration": 0.5108694374999629
        },
        {
          "name": "A4",
          "midi": 69,
          "time": 212.86951199999237,
          "velocity": 0.6062992125984252,
          "duration": 3.1358687812495702
        },
        {
          "name": "E4",
          "midi": 64,
          "time": 213.09233803124235,
          "velocity": 0.6614173228346457,
          "duration": 0.3913042499999335
        },
        {
          "name": "E3",
          "midi": 52,
          "time": 213.09777281249234,
          "velocity": 0.6141732283464567,
          "duration": 0.05434781249999787
        },
        {
          "name": "E4",
          "midi": 64,
          "time": 213.11407715624233,
          "velocity": 0.7322834645669292,
          "duration": 0.44021728124994297
        },
        {
          "name": "C#4",
          "midi": 61,
          "time": 213.12494671874234,
          "velocity": 0.7716535433070866,
          "duration": 0.2554347187499957
        },
        {
          "name": "E4",
          "midi": 64,
          "time": 213.12494671874234,
          "velocity": 0.6614173228346457,
          "duration": 0.5163042187499514
        },
        {
          "name": "A3",
          "midi": 57,
          "time": 213.12494671874234,
          "velocity": 0.7716535433070866,
          "duration": 0.2554347187499957
        },
        {
          "name": "A1",
          "midi": 33,
          "time": 213.12494671874234,
          "velocity": 0.7952755905511811,
          "duration": 0.16847821875001046
        },
        {
          "name": "E3",
          "midi": 52,
          "time": 213.12494671874234,
          "velocity": 0.6692913385826772,
          "duration": 0.3858694687499451
        },
        {
          "name": "D#3",
          "midi": 51,
          "time": 213.13581628124234,
          "velocity": 0.5118110236220472,
          "duration": 0.0054347812499884185
        },
        {
          "name": "B3",
          "midi": 59,
          "time": 213.35864231249235,
          "velocity": 0.8503937007874016,
          "duration": 0.05434781249994103
        },
        {
          "name": "B3",
          "midi": 59,
          "time": 213.37494665624234,
          "velocity": 0.6692913385826772,
          "duration": 0.2663042812499441
        },
        {
          "name": "A3",
          "midi": 57,
          "time": 213.38581621874232,
          "velocity": 0.7559055118110236,
          "duration": 0.25543471874996726
        },
        {
          "name": "E4",
          "midi": 64,
          "time": 213.38581621874232,
          "velocity": 0.7165354330708661,
          "duration": 0.6413041874998839
        },
        {
          "name": "C#4",
          "midi": 61,
          "time": 213.38581621874232,
          "velocity": 0.7559055118110236,
          "duration": 0.25543471874996726
        },
        {
          "name": "B3",
          "midi": 59,
          "time": 213.38581621874232,
          "velocity": 0.905511811023622,
          "duration": 0.7880432812498555
        },
        {
          "name": "E2",
          "midi": 40,
          "time": 213.3912509999923,
          "velocity": 0.9291338582677166,
          "duration": 0.0054347812499884185
        },
        {
          "name": "A1",
          "midi": 33,
          "time": 213.3912509999923,
          "velocity": 0.8818897637795275,
          "duration": 0.1847825624999757
        },
        {
          "name": "D#3",
          "midi": 51,
          "time": 213.3966857812423,
          "velocity": 0.84251968503937,
          "duration": 0.0054347812499884185
        },
        {
          "name": "B3",
          "midi": 59,
          "time": 213.41842490624228,
          "velocity": 0.6141732283464567,
          "duration": 0.7608693749998849
        },
        {
          "name": "E3",
          "midi": 52,
          "time": 213.61951181249228,
          "velocity": 0.7086614173228346,
          "duration": 0.05434781249996945
        },
        {
          "name": "E4",
          "midi": 64,
          "time": 213.63038137499228,
          "velocity": 0.6141732283464567,
          "duration": 0.4347824999998977
        },
        {
          "name": "A3",
          "midi": 57,
          "time": 213.64668571874228,
          "velocity": 0.7716535433070866,
          "duration": 0.5163042187499229
        },
        {
          "name": "C#4",
          "midi": 61,
          "time": 213.64668571874228,
          "velocity": 0.7716535433070866,
          "duration": 0.2880434062499262
        },
        {
          "name": "E4",
          "midi": 64,
          "time": 213.64668571874228,
          "velocity": 0.7244094488188977,
          "duration": 0.5163042187499229
        },
        {
          "name": "E3",
          "midi": 52,
          "time": 213.64668571874228,
          "velocity": 0.7637795275590551,
          "duration": 0.6467389687498724
        },
        {
          "name": "C2",
          "midi": 36,
          "time": 213.65212049999226,
          "velocity": 0.5905511811023622,
          "duration": 0.0054347812499884185
        },
        {
          "name": "A1",
          "midi": 33,
          "time": 213.65212049999226,
          "velocity": 0.7559055118110236,
          "duration": 0.14673909374997152
        },
        {
          "name": "D#3",
          "midi": 51,
          "time": 213.65755528124225,
          "velocity": 0.5433070866141733,
          "duration": 0.0054347812499884185
        },
        {
          "name": "E4",
          "midi": 64,
          "time": 213.66299006249224,
          "velocity": 0.6377952755905512,
          "duration": 0.8152171874999112
        },
        {
          "name": "C#4",
          "midi": 61,
          "time": 213.88038131249223,
          "velocity": 0.7952755905511811,
          "duration": 0.2826086249999662
        },
        {
          "name": "A1",
          "midi": 33,
          "time": 213.90755521874223,
          "velocity": 0.952755905511811,
          "duration": 0.15217387499995993
        },
        {
          "name": "C#4",
          "midi": 61,
          "time": 213.90755521874223,
          "velocity": 0.8503937007874016,
          "duration": 0.25543471874996726
        },
        {
          "name": "C2",
          "midi": 36,
          "time": 213.91298999999222,
          "velocity": 0.8818897637795275,
          "duration": 0.0054347812499884185
        },
        {
          "name": "D#3",
          "midi": 51,
          "time": 213.9184247812422,
          "velocity": 0.7952755905511811,
          "duration": 0.0054347812499884185
        },
        {
          "name": "E4",
          "midi": 64,
          "time": 214.13038124999218,
          "velocity": 0.5511811023622047,
          "duration": 0.36956512499997984
        },
        {
          "name": "E4",
          "midi": 64,
          "time": 214.13038124999218,
          "velocity": 0.6299212598425197,
          "duration": 0.554347687499984
        },
        {
          "name": "B3",
          "midi": 59,
          "time": 214.1412508124922,
          "velocity": 0.7716535433070866,
          "duration": 0.05434781249996945
        },
        {
          "name": "E4",
          "midi": 64,
          "time": 214.1684247187422,
          "velocity": 0.6220472440944882,
          "duration": 0.9130432499999017
        },
        {
          "name": "A3",
          "midi": 57,
          "time": 214.1684247187422,
          "velocity": 0.7795275590551181,
          "duration": 0.5163042187499798
        },
        {
          "name": "C#4",
          "midi": 61,
          "time": 214.1684247187422,
          "velocity": 0.7795275590551181,
          "duration": 0.5163042187499798
        },
        {
          "name": "D#3",
          "midi": 51,
          "time": 214.1684247187422,
          "velocity": 0.5433070866141733,
          "duration": 0.0054347812499884185
        },
        {
          "name": "A1",
          "midi": 33,
          "time": 214.1684247187422,
          "velocity": 0.8503937007874016,
          "duration": 0.14673909374997152
        },
        {
          "name": "B3",
          "midi": 59,
          "time": 214.1684247187422,
          "velocity": 0.8267716535433071,
          "duration": 0.48913031249998085
        },
        {
          "name": "E3",
          "midi": 52,
          "time": 214.40212031249217,
          "velocity": 0.7165354330708661,
          "duration": 0.05434781249996945
        },
        {
          "name": "B3",
          "midi": 59,
          "time": 214.40212031249217,
          "velocity": 0.6456692913385826,
          "duration": 0.31521731249995355
        },
        {
          "name": "B3",
          "midi": 59,
          "time": 214.41298987499218,
          "velocity": 0.6614173228346457,
          "duration": 0.5217389999999398
        },
        {
          "name": "D#3",
          "midi": 51,
          "time": 214.42929421874217,
          "velocity": 0.7952755905511811,
          "duration": 0.0054347812499884185
        },
        {
          "name": "E3",
          "midi": 52,
          "time": 214.42929421874217,
          "velocity": 0.7716535433070866,
          "duration": 0.3858694687499451
        },
        {
          "name": "E2",
          "midi": 40,
          "time": 214.43472899999216,
          "velocity": 0.9291338582677166,
          "duration": 0.0054347812499884185
        },
        {
          "name": "A1",
          "midi": 33,
          "time": 214.44016378124215,
          "velocity": 0.952755905511811,
          "duration": 0.16304343750002204
        },
        {
          "name": "E4",
          "midi": 64,
          "time": 214.64668546874216,
          "velocity": 0.6929133858267716,
          "duration": 0.43478249999992613
        },
        {
          "name": "B3",
          "midi": 59,
          "time": 214.66298981249216,
          "velocity": 0.7874015748031497,
          "duration": 0.5815215937499261
        },
        {
          "name": "E4",
          "midi": 64,
          "time": 214.66298981249216,
          "velocity": 0.6456692913385826,
          "duration": 0.41847815624993245
        },
        {
          "name": "E4",
          "midi": 64,
          "time": 214.69016371874216,
          "velocity": 0.6771653543307087,
          "duration": 0.777173718749907
        },
        {
          "name": "C#4",
          "midi": 61,
          "time": 214.69016371874216,
          "velocity": 0.6850393700787402,
          "duration": 0.3913042499999335
        },
        {
          "name": "A3",
          "midi": 57,
          "time": 214.69016371874216,
          "velocity": 0.6850393700787402,
          "duration": 0.3913042499999335
        },
        {
          "name": "D#3",
          "midi": 51,
          "time": 214.69016371874216,
          "velocity": 0.5748031496062992,
          "duration": 0.0054347812499884185
        },
        {
          "name": "B3",
          "midi": 59,
          "time": 214.69016371874216,
          "velocity": 0.84251968503937,
          "duration": 0.5923911562499313
        },
        {
          "name": "A1",
          "midi": 33,
          "time": 214.70103328124213,
          "velocity": 0.7559055118110236,
          "duration": 0.13586953124999468
        },
        {
          "name": "A2",
          "midi": 45,
          "time": 214.92929409374213,
          "velocity": 0.9212598425196851,
          "duration": 0.05434781249996945
        },
        {
          "name": "D#3",
          "midi": 51,
          "time": 214.9510332187421,
          "velocity": 0.8188976377952756,
          "duration": 0.0054347812499884185
        },
        {
          "name": "C2",
          "midi": 36,
          "time": 214.9564679999921,
          "velocity": 0.8661417322834646,
          "duration": 0.0054347812499884185
        },
        {
          "name": "A1",
          "midi": 33,
          "time": 214.9564679999921,
          "velocity": 0.952755905511811,
          "duration": 0.16304343749999362
        },
        {
          "name": "A2",
          "midi": 45,
          "time": 214.9564679999921,
          "velocity": 0.9763779527559056,
          "duration": 1.9673908124997865
        },
        {
          "name": "E4",
          "midi": 64,
          "time": 215.1738592499921,
          "velocity": 0.6614173228346457,
          "duration": 0.38043468749992826
        },
        {
          "name": "E4",
          "midi": 64,
          "time": 215.1738592499921,
          "velocity": 0.6456692913385826,
          "duration": 0.3913042499999335
        },
        {
          "name": "E3",
          "midi": 52,
          "time": 215.1847288124921,
          "velocity": 0.6141732283464567,
          "duration": 0.05434781249999787
        },
        {
          "name": "C#4",
          "midi": 61,
          "time": 215.2119027187421,
          "velocity": 0.7244094488188977,
          "duration": 0.25543471874996726
        },
        {
          "name": "A3",
          "midi": 57,
          "time": 215.2119027187421,
          "velocity": 0.7244094488188977,
          "duration": 0.25543471874996726
        },
        {
          "name": "E4",
          "midi": 64,
          "time": 215.2119027187421,
          "velocity": 0.7244094488188977,
          "duration": 0.5163042187499229
        },
        {
          "name": "D#3",
          "midi": 51,
          "time": 215.2119027187421,
          "velocity": 0.5275590551181102,
          "duration": 0.0054347812499884185
        },
        {
          "name": "A1",
          "midi": 33,
          "time": 215.2119027187421,
          "velocity": 0.7480314960629921,
          "duration": 0.16847821874998203
        },
        {
          "name": "E3",
          "midi": 52,
          "time": 215.2119027187421,
          "velocity": 0.6692913385826772,
          "duration": 0.3858694687499167
        },
        {
          "name": "B3",
          "midi": 59,
          "time": 215.41298962499206,
          "velocity": 0.6929133858267716,
          "duration": 0.0869564999999568
        },
        {
          "name": "B3",
          "midi": 59,
          "time": 215.44559831249205,
          "velocity": 0.8503937007874016,
          "duration": 0.27173906249996094
        },
        {
          "name": "B3",
          "midi": 59,
          "time": 215.44559831249205,
          "velocity": 0.7086614173228346,
          "duration": 0.809782406249866
        },
        {
          "name": "E4",
          "midi": 64,
          "time": 215.47277221874205,
          "velocity": 0.7480314960629921,
          "duration": 0.6358694062498955
        },
        {
          "name": "C#4",
          "midi": 61,
          "time": 215.47277221874205,
          "velocity": 0.7795275590551181,
          "duration": 0.25543471874996726
        },
        {
          "name": "A3",
          "midi": 57,
          "time": 215.47277221874205,
          "velocity": 0.7795275590551181,
          "duration": 0.25543471874996726
        },
        {
          "name": "D#3",
          "midi": 51,
          "time": 215.47277221874205,
          "velocity": 0.8503937007874016,
          "duration": 0.0054347812499884185
        },
        {
          "name": "B3",
          "midi": 59,
          "time": 215.47277221874205,
          "velocity": 0.905511811023622,
          "duration": 0.809782406249866
        },
        {
          "name": "E2",
          "midi": 40,
          "time": 215.47820699999204,
          "velocity": 0.9291338582677166,
          "duration": 0.0054347812499884185
        },
        {
          "name": "A1",
          "midi": 33,
          "time": 215.47820699999204,
          "velocity": 0.9291338582677166,
          "duration": 0.16847821874998203
        },
        {
          "name": "E4",
          "midi": 64,
          "time": 215.69559824999203,
          "velocity": 0.6377952755905512,
          "duration": 0.4293477187499093
        },
        {
          "name": "E3",
          "midi": 52,
          "time": 215.70646781249204,
          "velocity": 0.7086614173228346,
          "duration": 0.05434781249994103
        },
        {
          "name": "E4",
          "midi": 64,
          "time": 215.71190259374202,
          "velocity": 0.6929133858267716,
          "duration": 0.538043343749905
        },
        {
          "name": "A3",
          "midi": 57,
          "time": 215.733641718742,
          "velocity": 0.7716535433070866,
          "duration": 0.5163042187499229
        },
        {
          "name": "C#4",
          "midi": 61,
          "time": 215.733641718742,
          "velocity": 0.7716535433070866,
          "duration": 0.2880434062499262
        },
        {
          "name": "E4",
          "midi": 64,
          "time": 215.733641718742,
          "velocity": 0.7952755905511811,
          "duration": 0.8369563124998649
        },
        {
          "name": "D#3",
          "midi": 51,
          "time": 215.733641718742,
          "velocity": 0.5826771653543307,
          "duration": 0.0054347812499884185
        },
        {
          "name": "E3",
          "midi": 52,
          "time": 215.733641718742,
          "velocity": 0.7637795275590551,
          "duration": 0.244565156249962
        },
        {
          "name": "C2",
          "midi": 36,
          "time": 215.739076499992,
          "velocity": 0.5669291338582677,
          "duration": 0.0054347812499884185
        },
        {
          "name": "A1",
          "midi": 33,
          "time": 215.74451128124198,
          "velocity": 0.6929133858267716,
          "duration": 0.1413043124999831
        },
        {
          "name": "B4",
          "midi": 71,
          "time": 215.86951124999197,
          "velocity": 0.5511811023622047,
          "duration": 1.163043187499909
        },
        {
          "name": "C#4",
          "midi": 61,
          "time": 215.96733731249196,
          "velocity": 0.7952755905511811,
          "duration": 0.2826086249999662
        },
        {
          "name": "A1",
          "midi": 33,
          "time": 215.99451121874196,
          "velocity": 0.952755905511811,
          "duration": 0.17391299999997045
        },
        {
          "name": "C#4",
          "midi": 61,
          "time": 215.99451121874196,
          "velocity": 0.8503937007874016,
          "duration": 0.25543471874996726
        },
        {
          "name": "C2",
          "midi": 36,
          "time": 215.99994599999195,
          "velocity": 0.8740157480314961,
          "duration": 0.0054347812499884185
        },
        {
          "name": "D#3",
          "midi": 51,
          "time": 216.00538078124194,
          "velocity": 0.8110236220472441,
          "duration": 0.0054347812499884185
        },
        {
          "name": "E4",
          "midi": 64,
          "time": 216.21733724999194,
          "velocity": 0.6456692913385826,
          "duration": 0.3641303437499346
        },
        {
          "name": "B3",
          "midi": 59,
          "time": 216.22820681249195,
          "velocity": 0.7716535433070866,
          "duration": 0.1032608437499789
        },
        {
          "name": "E4",
          "midi": 64,
          "time": 216.23364159374194,
          "velocity": 0.6456692913385826,
          "duration": 0.5380433437499619
        },
        {
          "name": "E4",
          "midi": 64,
          "time": 216.25538071874192,
          "velocity": 0.7952755905511811,
          "duration": 0.9130432499999017
        },
        {
          "name": "A3",
          "midi": 57,
          "time": 216.25538071874192,
          "velocity": 0.6850393700787402,
          "duration": 0.5163042187499798
        },
        {
          "name": "C#4",
          "midi": 61,
          "time": 216.25538071874192,
          "velocity": 0.6850393700787402,
          "duration": 0.5163042187499798
        },
        {
          "name": "A1",
          "midi": 33,
          "time": 216.25538071874192,
          "velocity": 0.6614173228346457,
          "duration": 0.13043475000000626
        },
        {
          "name": "B3",
          "midi": 59,
          "time": 216.25538071874192,
          "velocity": 0.8267716535433071,
          "duration": 0.47282596874995875
        },
        {
          "name": "D#3",
          "midi": 51,
          "time": 216.26625028124192,
          "velocity": 0.6062992125984252,
          "duration": 0.0054347812499884185
        },
        {
          "name": "E3",
          "midi": 52,
          "time": 216.48907631249193,
          "velocity": 0.7165354330708661,
          "duration": 0.05434781249994103
        },
        {
          "name": "B3",
          "midi": 59,
          "time": 216.49451109374192,
          "velocity": 0.7086614173228346,
          "duration": 0.30978253124996513
        },
        {
          "name": "B3",
          "midi": 59,
          "time": 216.5108154374919,
          "velocity": 0.7322834645669292,
          "duration": 0.5108694374999629
        },
        {
          "name": "A1",
          "midi": 33,
          "time": 216.5162502187419,
          "velocity": 0.9133858267716536,
          "duration": 0.19565212499998097
        },
        {
          "name": "E3",
          "midi": 52,
          "time": 216.5162502187419,
          "velocity": 0.7716535433070866,
          "duration": 0.24456515624999042
        },
        {
          "name": "E2",
          "midi": 40,
          "time": 216.5216849999919,
          "velocity": 0.9291338582677166,
          "duration": 0.0054347812499884185
        },
        {
          "name": "D#3",
          "midi": 51,
          "time": 216.52711978124188,
          "velocity": 0.8503937007874016,
          "duration": 0.0054347812499884185
        },
        {
          "name": "E4",
          "midi": 64,
          "time": 216.7227719062419,
          "velocity": 0.6929133858267716,
          "duration": 0.4456520624999314
        },
        {
          "name": "B3",
          "midi": 59,
          "time": 216.7499458124919,
          "velocity": 0.7874015748031497,
          "duration": 0.6304346249999071
        },
        {
          "name": "E4",
          "midi": 64,
          "time": 216.7499458124919,
          "velocity": 0.6456692913385826,
          "duration": 0.42391293749992087
        },
        {
          "name": "E4",
          "midi": 64,
          "time": 216.7771197187419,
          "velocity": 0.6377952755905512,
          "duration": 0.7771737187498786
        },
        {
          "name": "C#4",
          "midi": 61,
          "time": 216.7771197187419,
          "velocity": 0.6850393700787402,
          "duration": 0.3913042499999335
        },
        {
          "name": "A3",
          "midi": 57,
          "time": 216.7771197187419,
          "velocity": 0.6850393700787402,
          "duration": 0.3913042499999335
        },
        {
          "name": "A1",
          "midi": 33,
          "time": 216.7771197187419,
          "velocity": 0.8188976377952756,
          "duration": 0.16304343749999362
        },
        {
          "name": "B3",
          "midi": 59,
          "time": 216.7771197187419,
          "velocity": 0.84251968503937,
          "duration": 0.6358694062498955
        },
        {
          "name": "D#3",
          "midi": 51,
          "time": 216.7879892812419,
          "velocity": 0.6141732283464567,
          "duration": 0.0054347812499884185
        },
        {
          "name": "F#2",
          "midi": 42,
          "time": 217.0162500937419,
          "velocity": 0.9212598425196851,
          "duration": 0.05434781249994103
        },
        {
          "name": "F#1",
          "midi": 30,
          "time": 217.03798921874187,
          "velocity": 0.7795275590551181,
          "duration": 0.1521738749999315
        },
        {
          "name": "A4",
          "midi": 69,
          "time": 217.03798921874187,
          "velocity": 0.6299212598425197,
          "duration": 3.1684774687494723
        },
        {
          "name": "C2",
          "midi": 36,
          "time": 217.04342399999186,
          "velocity": 0.8503937007874016,
          "duration": 0.0054347812499884185
        },
        {
          "name": "F#2",
          "midi": 42,
          "time": 217.04342399999186,
          "velocity": 0.9763779527559056,
          "duration": 1.9673908124996444
        },
        {
          "name": "D#3",
          "midi": 51,
          "time": 217.04885878124185,
          "velocity": 0.84251968503937,
          "duration": 0.0054347812499884185
        },
        {
          "name": "C#3",
          "midi": 49,
          "time": 217.2716848124918,
          "velocity": 0.6141732283464567,
          "duration": 0.05434781249999787
        },
        {
          "name": "E4",
          "midi": 64,
          "time": 217.2716848124918,
          "velocity": 0.6614173228346457,
          "duration": 0.32065209374991355
        },
        {
          "name": "E4",
          "midi": 64,
          "time": 217.2771195937418,
          "velocity": 0.6456692913385826,
          "duration": 0.34239121874992406
        },
        {
          "name": "A3",
          "midi": 57,
          "time": 217.2988587187418,
          "velocity": 0.6850393700787402,
          "duration": 0.25543471874996726
        },
        {
          "name": "E4",
          "midi": 64,
          "time": 217.2988587187418,
          "velocity": 0.7322834645669292,
          "duration": 0.5163042187498661
        },
        {
          "name": "C#4",
          "midi": 61,
          "time": 217.2988587187418,
          "velocity": 0.6850393700787402,
          "duration": 0.25543471874996726
        },
        {
          "name": "F#1",
          "midi": 30,
          "time": 217.2988587187418,
          "velocity": 0.6456692913385826,
          "duration": 0.13043474999997784
        },
        {
          "name": "C#3",
          "midi": 49,
          "time": 217.2988587187418,
          "velocity": 0.6692913385826772,
          "duration": 0.3858694687499167
        },
        {
          "name": "D#3",
          "midi": 51,
          "time": 217.3097282812418,
          "velocity": 0.5748031496062992,
          "duration": 0.0054347812499884185
        },
        {
          "name": "G#3",
          "midi": 56,
          "time": 217.53255431249178,
          "velocity": 0.8503937007874016,
          "duration": 0.05434781249994103
        },
        {
          "name": "A3",
          "midi": 57,
          "time": 217.53255431249178,
          "velocity": 0.6929133858267716,
          "duration": 0.28260862499988093
        },
        {
          "name": "A3",
          "midi": 57,
          "time": 217.53798909374177,
          "velocity": 0.6929133858267716,
          "duration": 0.5706520312498071
        },
        {
          "name": "C#4",
          "midi": 61,
          "time": 217.55972821874175,
          "velocity": 0.7480314960629921,
          "duration": 0.2554347187499104
        },
        {
          "name": "E4",
          "midi": 64,
          "time": 217.55972821874175,
          "velocity": 0.7086614173228346,
          "duration": 0.6249998437498334
        },
        {
          "name": "A3",
          "midi": 57,
          "time": 217.55972821874175,
          "velocity": 0.7480314960629921,
          "duration": 0.7771737187498218
        },
        {
          "name": "D#3",
          "midi": 51,
          "time": 217.55972821874175,
          "velocity": 0.8818897637795275,
          "duration": 0.0054347812499884185
        },
        {
          "name": "F#1",
          "midi": 30,
          "time": 217.55972821874175,
          "velocity": 0.952755905511811,
          "duration": 0.15760865624994835
        },
        {
          "name": "G#3",
          "midi": 56,
          "time": 217.55972821874175,
          "velocity": 0.905511811023622,
          "duration": 0.24456515624990516
        },
        {
          "name": "E2",
          "midi": 40,
          "time": 217.56516299999174,
          "velocity": 0.9291338582677166,
          "duration": 0.0054347812499884185
        },
        {
          "name": "E4",
          "midi": 64,
          "time": 217.7771194687417,
          "velocity": 0.6456692913385826,
          "duration": 0.4347824999998977
        },
        {
          "name": "C#3",
          "midi": 49,
          "time": 217.79342381249168,
          "velocity": 0.7086614173228346,
          "duration": 0.05434781249994103
        },
        {
          "name": "E4",
          "midi": 64,
          "time": 217.79885859374167,
          "velocity": 0.6377952755905512,
          "duration": 0.538043343749905
        },
        {
          "name": "A3",
          "midi": 57,
          "time": 217.82059771874165,
          "velocity": 0.8267716535433071,
          "duration": 0.5163042187499229
        },
        {
          "name": "E4",
          "midi": 64,
          "time": 217.82059771874165,
          "velocity": 0.8031496062992126,
          "duration": 0.8478258749998986
        },
        {
          "name": "C#4",
          "midi": 61,
          "time": 217.82059771874165,
          "velocity": 0.8267716535433071,
          "duration": 0.5163042187499229
        },
        {
          "name": "F#1",
          "midi": 30,
          "time": 217.82059771874165,
          "velocity": 0.7165354330708661,
          "duration": 0.124999968749961
        },
        {
          "name": "C#3",
          "midi": 49,
          "time": 217.82059771874165,
          "velocity": 0.7637795275590551,
          "duration": 0.244565156249962
        },
        {
          "name": "C2",
          "midi": 36,
          "time": 217.82603249999164,
          "velocity": 0.6377952755905512,
          "duration": 0.0054347812499884185
        },
        {
          "name": "D#3",
          "midi": 51,
          "time": 217.83146728124163,
          "velocity": 0.5984251968503937,
          "duration": 0.0054347812499884185
        },
        {
          "name": "A3",
          "midi": 57,
          "time": 218.0542933124916,
          "velocity": 0.7952755905511811,
          "duration": 0.3043477499999483
        },
        {
          "name": "F#1",
          "midi": 30,
          "time": 218.0814672187416,
          "velocity": 0.9212598425196851,
          "duration": 0.14673909374997152
        },
        {
          "name": "A3",
          "midi": 57,
          "time": 218.0814672187416,
          "velocity": 0.8503937007874016,
          "duration": 0.33695643749996407
        },
        {
          "name": "C2",
          "midi": 36,
          "time": 218.0869019999916,
          "velocity": 0.8740157480314961,
          "duration": 0.0054347812499884185
        },
        {
          "name": "D#3",
          "midi": 51,
          "time": 218.09233678124158,
          "velocity": 0.8346456692913385,
          "duration": 0.0054347812499884185
        },
        {
          "name": "E4",
          "midi": 64,
          "time": 218.29342368749158,
          "velocity": 0.6377952755905512,
          "duration": 0.41304337499997246
        },
        {
          "name": "G#3",
          "midi": 56,
          "time": 218.3151628124916,
          "velocity": 0.7716535433070866,
          "duration": 0.05434781249996945
        },
        {
          "name": "E4",
          "midi": 64,
          "time": 218.32059759374158,
          "velocity": 0.6220472440944882,
          "duration": 0.5380433437499335
        },
        {
          "name": "C#4",
          "midi": 61,
          "time": 218.34233671874156,
          "velocity": 0.7952755905511811,
          "duration": 0.5163042187499514
        },
        {
          "name": "A3",
          "midi": 57,
          "time": 218.34233671874156,
          "velocity": 0.7952755905511811,
          "duration": 0.5163042187499514
        },
        {
          "name": "E4",
          "midi": 64,
          "time": 218.34233671874156,
          "velocity": 0.7401574803149606,
          "duration": 0.8641302187499207
        },
        {
          "name": "F#1",
          "midi": 30,
          "time": 218.34233671874156,
          "velocity": 0.7007874015748031,
          "duration": 0.11413040625001258
        },
        {
          "name": "G#3",
          "midi": 56,
          "time": 218.34233671874156,
          "velocity": 0.8267716535433071,
          "duration": 0.47282596874998717
        },
        {
          "name": "D#3",
          "midi": 51,
          "time": 218.35320628124157,
          "velocity": 0.5826771653543307,
          "duration": 0.0054347812499884185
        },
        {
          "name": "C#3",
          "midi": 49,
          "time": 218.57603231249158,
          "velocity": 0.7165354330708661,
          "duration": 0.05434781249996945
        },
        {
          "name": "A3",
          "midi": 57,
          "time": 218.57603231249158,
          "velocity": 0.6456692913385826,
          "duration": 0.6793476562499166
        },
        {
          "name": "A3",
          "midi": 57,
          "time": 218.58146709374157,
          "velocity": 0.7322834645669292,
          "duration": 0.7880432812499123
        },
        {
          "name": "F#1",
          "midi": 30,
          "time": 218.60320621874158,
          "velocity": 0.952755905511811,
          "duration": 0.1630434374999652
        },
        {
          "name": "C#3",
          "midi": 49,
          "time": 218.60320621874158,
          "velocity": 0.7716535433070866,
          "duration": 0.244565156249962
        },
        {
          "name": "E2",
          "midi": 40,
          "time": 218.60864099999156,
          "velocity": 0.9291338582677166,
          "duration": 0.0054347812499884185
        },
        {
          "name": "D#3",
          "midi": 51,
          "time": 218.60864099999156,
          "velocity": 0.84251968503937,
          "duration": 0.0054347812499884185
        },
        {
          "name": "E4",
          "midi": 64,
          "time": 218.82059746874154,
          "velocity": 0.6299212598425197,
          "duration": 0.43478249999995455
        },
        {
          "name": "G#3",
          "midi": 56,
          "time": 218.83690181249153,
          "velocity": 0.7874015748031497,
          "duration": 0.05434781249996945
        },
        {
          "name": "E4",
          "midi": 64,
          "time": 218.85320615624153,
          "velocity": 0.6929133858267716,
          "duration": 0.4021738124999672
        },
        {
          "name": "C#4",
          "midi": 61,
          "time": 218.8640757187415,
          "velocity": 0.7480314960629921,
          "duration": 0.39130424999999036
        },
        {
          "name": "E4",
          "midi": 64,
          "time": 218.8640757187415,
          "velocity": 0.6377952755905512,
          "duration": 0.7771737187499639
        },
        {
          "name": "A3",
          "midi": 57,
          "time": 218.8640757187415,
          "velocity": 0.7480314960629921,
          "duration": 0.5489129062499671
        },
        {
          "name": "F#1",
          "midi": 30,
          "time": 218.8640757187415,
          "velocity": 0.6141732283464567,
          "duration": 0.11413040625001258
        },
        {
          "name": "G#3",
          "midi": 56,
          "time": 218.8640757187415,
          "velocity": 0.84251968503937,
          "duration": 0.24456515624999042
        },
        {
          "name": "D#3",
          "midi": 51,
          "time": 218.8749452812415,
          "velocity": 0.4881889763779528,
          "duration": 0.0054347812499884185
        },
        {
          "name": "D3",
          "midi": 50,
          "time": 219.1032060937415,
          "velocity": 0.9212598425196851,
          "duration": 0.05434781249996945
        },
        {
          "name": "D2",
          "midi": 38,
          "time": 219.1249452187415,
          "velocity": 0.8503937007874016,
          "duration": 0.1576086562500052
        },
        {
          "name": "D#3",
          "midi": 51,
          "time": 219.13037999999148,
          "velocity": 0.8031496062992126,
          "duration": 0.0054347812499884185
        },
        {
          "name": "C2",
          "midi": 36,
          "time": 219.13037999999148,
          "velocity": 0.8740157480314961,
          "duration": 0.0054347812499884185
        },
        {
          "name": "D3",
          "midi": 50,
          "time": 219.13037999999148,
          "velocity": 0.9763779527559056,
          "duration": 0.7771737187499355
        },
        {
          "name": "E4",
          "midi": 64,
          "time": 219.3097277812415,
          "velocity": 0.6535433070866141,
          "duration": 0.3641303437499346
        },
        {
          "name": "A3",
          "midi": 57,
          "time": 219.3586408124915,
          "velocity": 0.6141732283464567,
          "duration": 0.08152171874996839
        },
        {
          "name": "E4",
          "midi": 64,
          "time": 219.3640755937415,
          "velocity": 0.6614173228346457,
          "duration": 0.32065209374994197
        },
        {
          "name": "E4",
          "midi": 64,
          "time": 219.38581471874147,
          "velocity": 0.6614173228346457,
          "duration": 0.30978253124996513
        },
        {
          "name": "A3",
          "midi": 57,
          "time": 219.38581471874147,
          "velocity": 0.7322834645669292,
          "duration": 0.2554347187499957
        },
        {
          "name": "C#4",
          "midi": 61,
          "time": 219.38581471874147,
          "velocity": 0.7322834645669292,
          "duration": 0.2554347187499957
        },
        {
          "name": "D2",
          "midi": 38,
          "time": 219.38581471874147,
          "velocity": 0.6692913385826772,
          "duration": 0.14130431250001152
        },
        {
          "name": "A3",
          "midi": 57,
          "time": 219.38581471874147,
          "velocity": 0.6692913385826772,
          "duration": 0.5163042187499514
        },
        {
          "name": "D#3",
          "midi": 51,
          "time": 219.39668428124148,
          "velocity": 0.5196850393700787,
          "duration": 0.0054347812499884185
        },
        {
          "name": "A3",
          "midi": 57,
          "time": 219.59777118749147,
          "velocity": 0.6299212598425197,
          "duration": 0.3043477499999483
        },
        {
          "name": "A3",
          "midi": 57,
          "time": 219.60864074999148,
          "velocity": 0.6929133858267716,
          "duration": 0.32608687499990197
        },
        {
          "name": "E4",
          "midi": 64,
          "time": 219.61951031249149,
          "velocity": 0.7952755905511811,
          "duration": 0.2880434062499262
        },
        {
          "name": "E2",
          "midi": 40,
          "time": 219.63581465624148,
          "velocity": 0.6377952755905512,
          "duration": 0.0054347812499884185
        },
        {
          "name": "E4",
          "midi": 64,
          "time": 219.64668421874146,
          "velocity": 0.5905511811023622,
          "duration": 0.3858694687499167
        },
        {
          "name": "C#4",
          "midi": 61,
          "time": 219.64668421874146,
          "velocity": 0.6062992125984252,
          "duration": 0.2608694999999557
        },
        {
          "name": "A3",
          "midi": 57,
          "time": 219.64668421874146,
          "velocity": 0.6062992125984252,
          "duration": 0.7173911249998639
        },
        {
          "name": "D2",
          "midi": 38,
          "time": 219.64668421874146,
          "velocity": 0.952755905511811,
          "duration": 0.1793477812499873
        },
        {
          "name": "E4",
          "midi": 64,
          "time": 219.64668421874146,
          "velocity": 0.8503937007874016,
          "duration": 0.6304346249998787
        },
        {
          "name": "E2",
          "midi": 40,
          "time": 219.65211899999144,
          "velocity": 0.9291338582677166,
          "duration": 0.0054347812499884185
        },
        {
          "name": "D#3",
          "midi": 51,
          "time": 219.65755378124143,
          "velocity": 0.8267716535433071,
          "duration": 0.0054347812499884185
        },
        {
          "name": "E4",
          "midi": 64,
          "time": 219.86407546874145,
          "velocity": 0.6456692913385826,
          "duration": 0.42934771874988087
        },
        {
          "name": "A3",
          "midi": 57,
          "time": 219.88037981249144,
          "velocity": 0.7086614173228346,
          "duration": 0.5108694374998777
        },
        {
          "name": "E4",
          "midi": 64,
          "time": 219.88037981249144,
          "velocity": 0.6929133858267716,
          "duration": 0.8586954374998186
        },
        {
          "name": "D3",
          "midi": 50,
          "time": 219.88581459374143,
          "velocity": 0.7401574803149606,
          "duration": 0.05434781249994103
        },
        {
          "name": "D4",
          "midi": 62,
          "time": 219.9075537187414,
          "velocity": 0.8267716535433071,
          "duration": 0.2880434062499262
        },
        {
          "name": "A3",
          "midi": 57,
          "time": 219.9075537187414,
          "velocity": 0.8267716535433071,
          "duration": 0.5163042187499229
        },
        {
          "name": "F#4",
          "midi": 66,
          "time": 219.9075537187414,
          "velocity": 0.7480314960629921,
          "duration": 0.5163042187499229
        },
        {
          "name": "D#3",
          "midi": 51,
          "time": 219.9075537187414,
          "velocity": 0.4566929133858268,
          "duration": 0.0054347812499884185
        },
        {
          "name": "D2",
          "midi": 38,
          "time": 219.9075537187414,
          "velocity": 0.7086614173228346,
          "duration": 0.15760865624994835
        },
        {
          "name": "A3",
          "midi": 57,
          "time": 219.9075537187414,
          "velocity": 0.7637795275590551,
          "duration": 0.5489129062498819
        },
        {
          "name": "C2",
          "midi": 36,
          "time": 219.9129884999914,
          "velocity": 0.5984251968503937,
          "duration": 0.0054347812499884185
        },
        {
          "name": "D3",
          "midi": 50,
          "time": 219.9129884999914,
          "velocity": 0.7952755905511811,
          "duration": 0.7771737187498786
        },
        {
          "name": "D4",
          "midi": 62,
          "time": 220.14124931249137,
          "velocity": 0.7952755905511811,
          "duration": 0.2826086249999662
        },
        {
          "name": "F#4",
          "midi": 66,
          "time": 220.14668409374136,
          "velocity": 0.7165354330708661,
          "duration": 0.8043476249998776
        },
        {
          "name": "D2",
          "midi": 38,
          "time": 220.16842321874137,
          "velocity": 0.9133858267716536,
          "duration": 0.1630434374999652
        },
        {
          "name": "D4",
          "midi": 62,
          "time": 220.16842321874137,
          "velocity": 0.8503937007874016,
          "duration": 0.3858694687499451
        },
        {
          "name": "D#3",
          "midi": 51,
          "time": 220.17385799999136,
          "velocity": 0.7244094488188977,
          "duration": 0.0054347812499884185
        },
        {
          "name": "C2",
          "midi": 36,
          "time": 220.17385799999136,
          "velocity": 0.8661417322834646,
          "duration": 0.0054347812499884185
        },
        {
          "name": "E4",
          "midi": 64,
          "time": 220.36407534374132,
          "velocity": 0.6299212598425197,
          "duration": 0.38043468749992826
        },
        {
          "name": "A3",
          "midi": 57,
          "time": 220.40211881249132,
          "velocity": 0.7716535433070866,
          "duration": 0.07608693749997997
        },
        {
          "name": "E4",
          "midi": 64,
          "time": 220.40211881249132,
          "velocity": 0.6692913385826772,
          "duration": 0.7826084999998955
        },
        {
          "name": "F#4",
          "midi": 66,
          "time": 220.42929271874132,
          "velocity": 0.7480314960629921,
          "duration": 0.7663041562498734
        },
        {
          "name": "D4",
          "midi": 62,
          "time": 220.42929271874132,
          "velocity": 0.7952755905511811,
          "duration": 0.29347818749994303
        },
        {
          "name": "A3",
          "midi": 57,
          "time": 220.42929271874132,
          "velocity": 0.7952755905511811,
          "duration": 0.2663042812499441
        },
        {
          "name": "D#3",
          "midi": 51,
          "time": 220.42929271874132,
          "velocity": 0.36220472440944884,
          "duration": 0.0054347812499884185
        },
        {
          "name": "D2",
          "midi": 38,
          "time": 220.42929271874132,
          "velocity": 0.7795275590551181,
          "duration": 0.15760865624997678
        },
        {
          "name": "A3",
          "midi": 57,
          "time": 220.42929271874132,
          "velocity": 0.8267716535433071,
          "duration": 0.3858694687499167
        },
        {
          "name": "C2",
          "midi": 36,
          "time": 220.4347274999913,
          "velocity": 0.8661417322834646,
          "duration": 0.0054347812499884185
        },
        {
          "name": "A3",
          "midi": 57,
          "time": 220.6521187499913,
          "velocity": 0.6692913385826772,
          "duration": 0.29347818749994303
        },
        {
          "name": "D4",
          "midi": 62,
          "time": 220.6684230937413,
          "velocity": 0.5669291338582677,
          "duration": 0.2826086249999378
        },
        {
          "name": "D3",
          "midi": 50,
          "time": 220.6684230937413,
          "velocity": 0.7165354330708661,
          "duration": 0.05434781249996945
        },
        {
          "name": "A3",
          "midi": 57,
          "time": 220.6847274374913,
          "velocity": 0.7322834645669292,
          "duration": 0.29347818749994303
        },
        {
          "name": "A3",
          "midi": 57,
          "time": 220.69016221874128,
          "velocity": 0.6771653543307087,
          "duration": 0.5054346562499177
        },
        {
          "name": "E2",
          "midi": 40,
          "time": 220.69559699999127,
          "velocity": 0.9291338582677166,
          "duration": 0.0054347812499884185
        },
        {
          "name": "D2",
          "midi": 38,
          "time": 220.69559699999127,
          "velocity": 0.8818897637795275,
          "duration": 0.16847821874998203
        },
        {
          "name": "D4",
          "midi": 62,
          "time": 220.69559699999127,
          "velocity": 0.6220472440944882,
          "duration": 0.3858694687499735
        },
        {
          "name": "D3",
          "midi": 50,
          "time": 220.69559699999127,
          "velocity": 0.7716535433070866,
          "duration": 0.5163042187499229
        },
        {
          "name": "E4",
          "midi": 64,
          "time": 220.89668390624124,
          "velocity": 0.6377952755905512,
          "duration": 0.44021728124994297
        },
        {
          "name": "E4",
          "midi": 64,
          "time": 220.91842303124125,
          "velocity": 0.6929133858267716,
          "duration": 0.42391293749992087
        },
        {
          "name": "A3",
          "midi": 57,
          "time": 220.92385781249124,
          "velocity": 0.7874015748031497,
          "duration": 0.41847815624993245
        },
        {
          "name": "A3",
          "midi": 57,
          "time": 220.95103171874123,
          "velocity": 0.6771653543307087,
          "duration": 0.538043343749905
        },
        {
          "name": "C#4",
          "midi": 61,
          "time": 220.95103171874123,
          "velocity": 0.6771653543307087,
          "duration": 0.3913042499999335
        },
        {
          "name": "E4",
          "midi": 64,
          "time": 220.95103171874123,
          "velocity": 0.6850393700787402,
          "duration": 0.3913042499999335
        },
        {
          "name": "E2",
          "midi": 40,
          "time": 220.95103171874123,
          "velocity": 0.8976377952755905,
          "duration": 0.20652168749998623
        },
        {
          "name": "A3",
          "midi": 57,
          "time": 220.95103171874123,
          "velocity": 0.84251968503937,
          "duration": 0.7391302499999028
        },
        {
          "name": "A2",
          "midi": 45,
          "time": 221.1901620937412,
          "velocity": 0.9212598425196851,
          "duration": 0.05434781249996945
        },
        {
          "name": "C#3",
          "midi": 49,
          "time": 221.21733599999118,
          "velocity": 0.5826771653543307,
          "duration": 0.0054347812499884185
        },
        {
          "name": "C2",
          "midi": 36,
          "time": 221.21733599999118,
          "velocity": 0.8818897637795275,
          "duration": 0.0054347812499884185
        },
        {
          "name": "A1",
          "midi": 33,
          "time": 221.21733599999118,
          "velocity": 0.9291338582677166,
          "duration": 0.119565187500001
        },
        {
          "name": "A2",
          "midi": 45,
          "time": 221.21733599999118,
          "velocity": 0.9763779527559056,
          "duration": 1.9673908124997297
        },
        {
          "name": "A4",
          "midi": 69,
          "time": 221.21733599999118,
          "velocity": 0.6141732283464567,
          "duration": 3.222825281249584
        },
        {
          "name": "E4",
          "midi": 64,
          "time": 221.21733599999118,
          "velocity": 0.5039370078740157,
          "duration": 0.4999998749999577
        },
        {
          "name": "E4",
          "midi": 64,
          "time": 221.43472724999117,
          "velocity": 0.5905511811023622,
          "duration": 0.29347818749997145
        },
        {
          "name": "E4",
          "midi": 64,
          "time": 221.44016203124116,
          "velocity": 0.6692913385826772,
          "duration": 0.32065209374994197
        },
        {
          "name": "E3",
          "midi": 52,
          "time": 221.44559681249115,
          "velocity": 0.6141732283464567,
          "duration": 0.05434781249999787
        },
        {
          "name": "A3",
          "midi": 57,
          "time": 221.47277071874115,
          "velocity": 0.7952755905511811,
          "duration": 0.2554347187499957
        },
        {
          "name": "C#4",
          "midi": 61,
          "time": 221.47277071874115,
          "velocity": 0.7952755905511811,
          "duration": 0.2554347187499957
        },
        {
          "name": "E4",
          "midi": 64,
          "time": 221.47277071874115,
          "velocity": 0.7401574803149606,
          "duration": 0.5163042187499514
        },
        {
          "name": "A1",
          "midi": 33,
          "time": 221.47277071874115,
          "velocity": 0.7165354330708661,
          "duration": 0.1793477812499873
        },
        {
          "name": "E3",
          "midi": 52,
          "time": 221.47277071874115,
          "velocity": 0.6692913385826772,
          "duration": 0.3858694687499451
        },
        {
          "name": "D#3",
          "midi": 51,
          "time": 221.48364028124115,
          "velocity": 0.5118110236220472,
          "duration": 0.0054347812499884185
        },
        {
          "name": "B3",
          "midi": 59,
          "time": 221.70103153124114,
          "velocity": 0.7086614173228346,
          "duration": 0.05978259374995787
        },
        {
          "name": "B3",
          "midi": 59,
          "time": 221.70103153124114,
          "velocity": 0.6614173228346457,
          "duration": 0.2880434062499546
        },
        {
          "name": "B3",
          "midi": 59,
          "time": 221.70646631249113,
          "velocity": 0.8503937007874016,
          "duration": 0.8369563124998649
        },
        {
          "name": "C#4",
          "midi": 61,
          "time": 221.73364021874113,
          "velocity": 0.7165354330708661,
          "duration": 0.25543471874996726
        },
        {
          "name": "E4",
          "midi": 64,
          "time": 221.73364021874113,
          "velocity": 0.7716535433070866,
          "duration": 0.6032607187498797
        },
        {
          "name": "A3",
          "midi": 57,
          "time": 221.73364021874113,
          "velocity": 0.7165354330708661,
          "duration": 0.25543471874996726
        },
        {
          "name": "A1",
          "midi": 33,
          "time": 221.73364021874113,
          "velocity": 0.9133858267716536,
          "duration": 0.19021734374996413
        },
        {
          "name": "B3",
          "midi": 59,
          "time": 221.73364021874113,
          "velocity": 0.905511811023622,
          "duration": 0.809782406249866
        },
        {
          "name": "E2",
          "midi": 40,
          "time": 221.73907499999112,
          "velocity": 0.9291338582677166,
          "duration": 0.0054347812499884185
        },
        {
          "name": "D#3",
          "midi": 51,
          "time": 221.7445097812411,
          "velocity": 0.84251968503937,
          "duration": 0.0054347812499884185
        },
        {
          "name": "E4",
          "midi": 64,
          "time": 221.9455966874911,
          "velocity": 0.6771653543307087,
          "duration": 0.4347824999998977
        },
        {
          "name": "E4",
          "midi": 64,
          "time": 221.9510314687411,
          "velocity": 0.6377952755905512,
          "duration": 0.5597824687499156
        },
        {
          "name": "E3",
          "midi": 52,
          "time": 221.9673358124911,
          "velocity": 0.7086614173228346,
          "duration": 0.05434781249996945
        },
        {
          "name": "A3",
          "midi": 57,
          "time": 221.99450971874109,
          "velocity": 0.7559055118110236,
          "duration": 0.5163042187499229
        },
        {
          "name": "E4",
          "midi": 64,
          "time": 221.99450971874109,
          "velocity": 0.7401574803149606,
          "duration": 0.8315215312498481
        },
        {
          "name": "C#4",
          "midi": 61,
          "time": 221.99450971874109,
          "velocity": 0.7559055118110236,
          "duration": 0.2880434062499262
        },
        {
          "name": "A1",
          "midi": 33,
          "time": 221.99450971874109,
          "velocity": 0.7795275590551181,
          "duration": 0.17934778124995887
        },
        {
          "name": "E3",
          "midi": 52,
          "time": 221.99450971874109,
          "velocity": 0.7637795275590551,
          "duration": 0.6467389687499008
        },
        {
          "name": "C2",
          "midi": 36,
          "time": 221.99994449999107,
          "velocity": 0.5905511811023622,
          "duration": 0.0054347812499884185
        },
        {
          "name": "D#3",
          "midi": 51,
          "time": 222.00537928124106,
          "velocity": 0.5433070866141733,
          "duration": 0.0054347812499884185
        },
        {
          "name": "C#4",
          "midi": 61,
          "time": 222.22820531249104,
          "velocity": 0.7952755905511811,
          "duration": 0.2826086249999662
        },
        {
          "name": "A1",
          "midi": 33,
          "time": 222.25537921874104,
          "velocity": 0.952755905511811,
          "duration": 0.17934778124995887
        },
        {
          "name": "C#4",
          "midi": 61,
          "time": 222.25537921874104,
          "velocity": 0.8503937007874016,
          "duration": 0.25543471874996726
        },
        {
          "name": "C2",
          "midi": 36,
          "time": 222.26081399999103,
          "velocity": 0.8818897637795275,
          "duration": 0.0054347812499884185
        },
        {
          "name": "D#3",
          "midi": 51,
          "time": 222.26624878124102,
          "velocity": 0.7952755905511811,
          "duration": 0.0054347812499884185
        },
        {
          "name": "E4",
          "midi": 64,
          "time": 222.456466124991,
          "velocity": 0.6062992125984252,
          "duration": 0.3858694687499167
        },
        {
          "name": "E4",
          "midi": 64,
          "time": 222.472770468741,
          "velocity": 0.6062992125984252,
          "duration": 0.5597824687499156
        },
        {
          "name": "B3",
          "midi": 59,
          "time": 222.489074812491,
          "velocity": 0.7716535433070866,
          "duration": 0.05978259374998629
        },
        {
          "name": "A3",
          "midi": 57,
          "time": 222.516248718741,
          "velocity": 0.8110236220472441,
          "duration": 0.5163042187499229
        },
        {
          "name": "E4",
          "midi": 64,
          "time": 222.516248718741,
          "velocity": 0.6692913385826772,
          "duration": 0.9130432499998733
        },
        {
          "name": "C#4",
          "midi": 61,
          "time": 222.516248718741,
          "velocity": 0.8110236220472441,
          "duration": 0.5163042187499229
        },
        {
          "name": "D#3",
          "midi": 51,
          "time": 222.516248718741,
          "velocity": 0.5433070866141733,
          "duration": 0.0054347812499884185
        },
        {
          "name": "A1",
          "midi": 33,
          "time": 222.516248718741,
          "velocity": 0.6614173228346457,
          "duration": 0.15760865624997678
        },
        {
          "name": "B3",
          "midi": 59,
          "time": 222.516248718741,
          "velocity": 0.8267716535433071,
          "duration": 0.489130312499924
        },
        {
          "name": "B3",
          "midi": 59,
          "time": 222.73907474999098,
          "velocity": 0.6692913385826772,
          "duration": 0.3260868749999304
        },
        {
          "name": "B3",
          "midi": 59,
          "time": 222.74450953124096,
          "velocity": 0.6299212598425197,
          "duration": 0.5380433437499335
        },
        {
          "name": "E3",
          "midi": 52,
          "time": 222.74994431249095,
          "velocity": 0.7165354330708661,
          "duration": 0.05434781249996945
        },
        {
          "name": "D#3",
          "midi": 51,
          "time": 222.77711821874095,
          "velocity": 0.7480314960629921,
          "duration": 0.0054347812499884185
        },
        {
          "name": "A1",
          "midi": 33,
          "time": 222.77711821874095,
          "velocity": 0.952755905511811,
          "duration": 0.19021734374996413
        },
        {
          "name": "E3",
          "midi": 52,
          "time": 222.77711821874095,
          "velocity": 0.7716535433070866,
          "duration": 0.3858694687499451
        },
        {
          "name": "E2",
          "midi": 40,
          "time": 222.78255299999094,
          "velocity": 0.9291338582677166,
          "duration": 0.0054347812499884185
        },
        {
          "name": "E4",
          "midi": 64,
          "time": 222.98907468749093,
          "velocity": 0.6771653543307087,
          "duration": 0.45652162499993665
        },
        {
          "name": "E4",
          "midi": 64,
          "time": 222.99994424999093,
          "velocity": 0.6220472440944882,
          "duration": 0.4510868437499198
        },
        {
          "name": "B3",
          "midi": 59,
          "time": 223.0108138124909,
          "velocity": 0.7874015748031497,
          "duration": 0.5869563749999429
        },
        {
          "name": "C#4",
          "midi": 61,
          "time": 223.0379877187409,
          "velocity": 0.7716535433070866,
          "duration": 0.39130424999996194
        },
        {
          "name": "E4",
          "midi": 64,
          "time": 223.0379877187409,
          "velocity": 0.6692913385826772,
          "duration": 0.7771737187499355
        },
        {
          "name": "A3",
          "midi": 57,
          "time": 223.0379877187409,
          "velocity": 0.7716535433070866,
          "duration": 0.39130424999996194
        },
        {
          "name": "D#3",
          "midi": 51,
          "time": 223.0379877187409,
          "velocity": 0.7874015748031497,
          "duration": 0.0054347812499884185
        },
        {
          "name": "A1",
          "midi": 33,
          "time": 223.0379877187409,
          "velocity": 0.7165354330708661,
          "duration": 0.1576086562500052
        },
        {
          "name": "B3",
          "midi": 59,
          "time": 223.0379877187409,
          "velocity": 0.84251968503937,
          "duration": 0.5815215937499545
        },
        {
          "name": "A2",
          "midi": 45,
          "time": 223.2771180937409,
          "velocity": 0.9212598425196851,
          "duration": 0.05434781249996945
        },
        {
          "name": "D#3",
          "midi": 51,
          "time": 223.2988572187409,
          "velocity": 0.7637795275590551,
          "duration": 0.0054347812499884185
        },
        {
          "name": "A1",
          "midi": 33,
          "time": 223.2988572187409,
          "velocity": 0.9133858267716536,
          "duration": 0.1847825624999473
        },
        {
          "name": "C2",
          "midi": 36,
          "time": 223.30429199999088,
          "velocity": 0.8661417322834646,
          "duration": 0.0054347812499884185
        },
        {
          "name": "A2",
          "midi": 45,
          "time": 223.30429199999088,
          "velocity": 0.9763779527559056,
          "duration": 1.9673908124997581
        },
        {
          "name": "E3",
          "midi": 52,
          "time": 223.53255281249085,
          "velocity": 0.6141732283464567,
          "duration": 0.05434781249999787
        },
        {
          "name": "E4",
          "midi": 64,
          "time": 223.54342237499085,
          "velocity": 0.6220472440944882,
          "duration": 0.31521731249995355
        },
        {
          "name": "E4",
          "midi": 64,
          "time": 223.54885715624084,
          "velocity": 0.6062992125984252,
          "duration": 0.3478259999999693
        },
        {
          "name": "C#4",
          "midi": 61,
          "time": 223.55972671874085,
          "velocity": 0.7952755905511811,
          "duration": 0.2554347187499957
        },
        {
          "name": "E4",
          "midi": 64,
          "time": 223.55972671874085,
          "velocity": 0.7637795275590551,
          "duration": 0.5163042187499798
        },
        {
          "name": "A3",
          "midi": 57,
          "time": 223.55972671874085,
          "velocity": 0.7952755905511811,
          "duration": 0.2554347187499957
        },
        {
          "name": "D#3",
          "midi": 51,
          "time": 223.55972671874085,
          "velocity": 0.5275590551181102,
          "duration": 0.0054347812499884185
        },
        {
          "name": "A1",
          "midi": 33,
          "time": 223.55972671874085,
          "velocity": 0.7165354330708661,
          "duration": 0.15217387500001678
        },
        {
          "name": "E3",
          "midi": 52,
          "time": 223.55972671874085,
          "velocity": 0.6692913385826772,
          "duration": 0.3858694687499735
        },
        {
          "name": "B3",
          "midi": 59,
          "time": 223.79342231249086,
          "velocity": 0.8503937007874016,
          "duration": 0.05434781249994103
        },
        {
          "name": "B3",
          "midi": 59,
          "time": 223.79342231249086,
          "velocity": 0.6299212598425197,
          "duration": 0.27173906249996094
        },
        {
          "name": "B3",
          "midi": 59,
          "time": 223.80972665624085,
          "velocity": 0.7322834645669292,
          "duration": 0.8206519687498712
        },
        {
          "name": "A3",
          "midi": 57,
          "time": 223.82059621874083,
          "velocity": 0.7480314960629921,
          "duration": 0.2554347187499957
        },
        {
          "name": "C#4",
          "midi": 61,
          "time": 223.82059621874083,
          "velocity": 0.7480314960629921,
          "duration": 0.2554347187499957
        },
        {
          "name": "E4",
          "midi": 64,
          "time": 223.82059621874083,
          "velocity": 0.6850393700787402,
          "duration": 0.6467389687499292
        },
        {
          "name": "D#3",
          "midi": 51,
          "time": 223.82059621874083,
          "velocity": 0.8267716535433071,
          "duration": 0.0054347812499884185
        },
        {
          "name": "A1",
          "midi": 33,
          "time": 223.82059621874083,
          "velocity": 0.8976377952755905,
          "duration": 0.1793477812499873
        },
        {
          "name": "B3",
          "midi": 59,
          "time": 223.82059621874083,
          "velocity": 0.905511811023622,
          "duration": 0.8315215312499049
        },
        {
          "name": "E2",
          "midi": 40,
          "time": 223.82603099999082,
          "velocity": 0.9291338582677166,
          "duration": 0.0054347812499884185
        },
        {
          "name": "E4",
          "midi": 64,
          "time": 224.04885703124083,
          "velocity": 0.6220472440944882,
          "duration": 0.46195640624992507
        },
        {
          "name": "E4",
          "midi": 64,
          "time": 224.04885703124083,
          "velocity": 0.6377952755905512,
          "duration": 0.5489129062499103
        },
        {
          "name": "E3",
          "midi": 52,
          "time": 224.05429181249082,
          "velocity": 0.7086614173228346,
          "duration": 0.05434781249996945
        },
        {
          "name": "E4",
          "midi": 64,
          "time": 224.08146571874082,
          "velocity": 0.7716535433070866,
          "duration": 0.8532606562498586
        },
        {
          "name": "C#4",
          "midi": 61,
          "time": 224.08146571874082,
          "velocity": 0.7716535433070866,
          "duration": 0.2880434062499546
        },
        {
          "name": "A3",
          "midi": 57,
          "time": 224.08146571874082,
          "velocity": 0.7716535433070866,
          "duration": 0.5163042187499229
        },
        {
          "name": "D#3",
          "midi": 51,
          "time": 224.08146571874082,
          "velocity": 0.7795275590551181,
          "duration": 0.0054347812499884185
        },
        {
          "name": "A1",
          "midi": 33,
          "time": 224.08146571874082,
          "velocity": 0.6692913385826772,
          "duration": 0.15760865624997678
        },
        {
          "name": "E3",
          "midi": 52,
          "time": 224.08146571874082,
          "velocity": 0.7637795275590551,
          "duration": 0.24456515624999042
        },
        {
          "name": "C2",
          "midi": 36,
          "time": 224.0869004999908,
          "velocity": 0.5669291338582677,
          "duration": 0.0054347812499884185
        },
        {
          "name": "C#4",
          "midi": 61,
          "time": 224.3151613124908,
          "velocity": 0.7952755905511811,
          "duration": 0.2826086249999378
        },
        {
          "name": "B4",
          "midi": 71,
          "time": 224.3314656562408,
          "velocity": 0.6220472440944882,
          "duration": 1.027173656249829
        },
        {
          "name": "A1",
          "midi": 33,
          "time": 224.3423352187408,
          "velocity": 0.952755905511811,
          "duration": 0.19021734374996413
        },
        {
          "name": "C#4",
          "midi": 61,
          "time": 224.3423352187408,
          "velocity": 0.8503937007874016,
          "duration": 0.25543471874993884
        },
        {
          "name": "C2",
          "midi": 36,
          "time": 224.3477699999908,
          "velocity": 0.8740157480314961,
          "duration": 0.0054347812499884185
        },
        {
          "name": "D#3",
          "midi": 51,
          "time": 224.35320478124078,
          "velocity": 0.6299212598425197,
          "duration": 0.0054347812499884185
        },
        {
          "name": "B3",
          "midi": 59,
          "time": 224.57603081249076,
          "velocity": 0.7716535433070866,
          "duration": 0.07608693749997997
        },
        {
          "name": "E4",
          "midi": 64,
          "time": 224.59233515624075,
          "velocity": 0.6220472440944882,
          "duration": 0.34239121874992406
        },
        {
          "name": "A3",
          "midi": 57,
          "time": 224.60320471874073,
          "velocity": 0.8740157480314961,
          "duration": 0.5163042187499229
        },
        {
          "name": "C#4",
          "midi": 61,
          "time": 224.60320471874073,
          "velocity": 0.8740157480314961,
          "duration": 0.5163042187499229
        },
        {
          "name": "E4",
          "midi": 64,
          "time": 224.60320471874073,
          "velocity": 0.6771653543307087,
          "duration": 0.5163042187499229
        },
        {
          "name": "A1",
          "midi": 33,
          "time": 224.60320471874073,
          "velocity": 0.7007874015748031,
          "duration": 0.16304343750002204
        },
        {
          "name": "B3",
          "midi": 59,
          "time": 224.60320471874073,
          "velocity": 0.8267716535433071,
          "duration": 0.4728259687499303
        },
        {
          "name": "E4",
          "midi": 64,
          "time": 224.60320471874073,
          "velocity": 0.6141732283464567,
          "duration": 0.7391302499999028
        },
        {
          "name": "D#3",
          "midi": 51,
          "time": 224.61407428124073,
          "velocity": 0.48031496062992124,
          "duration": 0.0054347812499884185
        },
        {
          "name": "E3",
          "midi": 52,
          "time": 224.83690031249074,
          "velocity": 0.7165354330708661,
          "duration": 0.05434781249994103
        },
        {
          "name": "B3",
          "midi": 59,
          "time": 224.84233509374073,
          "velocity": 0.6692913385826772,
          "duration": 0.3097825312499083
        },
        {
          "name": "B3",
          "midi": 59,
          "time": 224.84776987499072,
          "velocity": 0.7007874015748031,
          "duration": 0.5217389999998829
        },
        {
          "name": "A1",
          "midi": 33,
          "time": 224.8640742187407,
          "velocity": 0.8976377952755905,
          "duration": 0.2065216874999578
        },
        {
          "name": "E3",
          "midi": 52,
          "time": 224.8640742187407,
          "velocity": 0.7716535433070866,
          "duration": 0.24456515624993358
        },
        {
          "name": "E2",
          "midi": 40,
          "time": 224.8695089999907,
          "velocity": 0.9291338582677166,
          "duration": 0.0054347812499884185
        },
        {
          "name": "D#3",
          "midi": 51,
          "time": 224.8749437812407,
          "velocity": 0.6535433070866141,
          "duration": 0.0054347812499884185
        },
        {
          "name": "E4",
          "midi": 64,
          "time": 225.09233503124065,
          "velocity": 0.6141732283464567,
          "duration": 0.4130433749998872
        },
        {
          "name": "B3",
          "midi": 59,
          "time": 225.09776981249064,
          "velocity": 0.7874015748031497,
          "duration": 0.6032607187497945
        },
        {
          "name": "E4",
          "midi": 64,
          "time": 225.10863937499064,
          "velocity": 0.7165354330708661,
          "duration": 0.4076085937498988
        },
        {
          "name": "E4",
          "midi": 64,
          "time": 225.12494371874064,
          "velocity": 0.5511811023622047,
          "duration": 0.4130433749999156
        },
        {
          "name": "C#4",
          "midi": 61,
          "time": 225.12494371874064,
          "velocity": 0.6850393700787402,
          "duration": 0.3913042499999051
        },
        {
          "name": "A3",
          "midi": 57,
          "time": 225.12494371874064,
          "velocity": 0.6850393700787402,
          "duration": 0.3913042499999051
        },
        {
          "name": "A1",
          "midi": 33,
          "time": 225.12494371874064,
          "velocity": 0.8188976377952756,
          "duration": 0.16847821875001046
        },
        {
          "name": "B3",
          "midi": 59,
          "time": 225.12494371874064,
          "velocity": 0.84251968503937,
          "duration": 0.7554345937497544
        },
        {
          "name": "D#3",
          "midi": 51,
          "time": 225.13581328124064,
          "velocity": 0.7952755905511811,
          "duration": 0.0054347812499884185
        },
        {
          "name": "A4",
          "midi": 69,
          "time": 225.33146540624062,
          "velocity": 0.6299212598425197,
          "duration": 2.146738593749234
        },
        {
          "name": "E4",
          "midi": 64,
          "time": 225.35863931249062,
          "velocity": 0.5511811023622047,
          "duration": 0.5434781249997513
        },
        {
          "name": "F#2",
          "midi": 42,
          "time": 225.3640740937406,
          "velocity": 0.9212598425196851,
          "duration": 0.05434781249994103
        },
        {
          "name": "F#1",
          "midi": 30,
          "time": 225.3858132187406,
          "velocity": 0.7952755905511811,
          "duration": 0.1630434374999652
        },
        {
          "name": "C2",
          "midi": 36,
          "time": 225.39124799999058,
          "velocity": 0.8503937007874016,
          "duration": 0.0054347812499884185
        },
        {
          "name": "F#2",
          "midi": 42,
          "time": 225.39124799999058,
          "velocity": 0.9763779527559056,
          "duration": 1.9673908124993602
        },
        {
          "name": "D#3",
          "midi": 51,
          "time": 225.39668278124057,
          "velocity": 0.7322834645669292,
          "duration": 0.0054347812499884185
        },
        {
          "name": "E4",
          "midi": 64,
          "time": 225.61407403124053,
          "velocity": 0.6220472440944882,
          "duration": 0.2880434062498409
        },
        {
          "name": "C#3",
          "midi": 49,
          "time": 225.61950881249052,
          "velocity": 0.6141732283464567,
          "duration": 0.05434781249991261
        },
        {
          "name": "E4",
          "midi": 64,
          "time": 225.63581315624052,
          "velocity": 0.6692913385826772,
          "duration": 0.35869556249980405
        },
        {
          "name": "A3",
          "midi": 57,
          "time": 225.6466827187405,
          "velocity": 0.6929133858267716,
          "duration": 0.255434718749882
        },
        {
          "name": "E4",
          "midi": 64,
          "time": 225.6466827187405,
          "velocity": 0.7244094488188977,
          "duration": 0.5163042187498093
        },
        {
          "name": "C#4",
          "midi": 61,
          "time": 225.6466827187405,
          "velocity": 0.6929133858267716,
          "duration": 0.255434718749882
        },
        {
          "name": "F#1",
          "midi": 30,
          "time": 225.6466827187405,
          "velocity": 0.7952755905511811,
          "duration": 0.14130431249992625
        },
        {
          "name": "C#3",
          "midi": 49,
          "time": 225.6466827187405,
          "velocity": 0.6692913385826772,
          "duration": 0.3858694687498314
        },
        {
          "name": "D#3",
          "midi": 51,
          "time": 225.65755228124047,
          "velocity": 0.4330708661417323,
          "duration": 0.0054347812499884185
        },
        {
          "name": "A3",
          "midi": 57,
          "time": 225.8749435312404,
          "velocity": 0.6692913385826772,
          "duration": 0.28804340624989777
        },
        {
          "name": "G#3",
          "midi": 56,
          "time": 225.8803783124904,
          "velocity": 0.8503937007874016,
          "duration": 0.05434781249994103
        },
        {
          "name": "C#4",
          "midi": 61,
          "time": 225.90755221874036,
          "velocity": 0.7244094488188977,
          "duration": 0.25543471874993884
        },
        {
          "name": "E4",
          "midi": 64,
          "time": 225.90755221874036,
          "velocity": 0.6141732283464567,
          "duration": 0.6141302812497997
        },
        {
          "name": "A3",
          "midi": 57,
          "time": 225.90755221874036,
          "velocity": 0.7244094488188977,
          "duration": 0.5489129062497966
        },
        {
          "name": "D#3",
          "midi": 51,
          "time": 225.90755221874036,
          "velocity": 0.7559055118110236,
          "duration": 0.0054347812499884185
        },
        {
          "name": "F#1",
          "midi": 30,
          "time": 225.90755221874036,
          "velocity": 0.952755905511811,
          "duration": 0.19021734374996413
        },
        {
          "name": "G#3",
          "midi": 56,
          "time": 225.90755221874036,
          "velocity": 0.905511811023622,
          "duration": 0.24456515624993358
        },
        {
          "name": "E2",
          "midi": 40,
          "time": 225.91298699999035,
          "velocity": 0.9291338582677166,
          "duration": 0.0054347812499884185
        },
        {
          "name": "A3",
          "midi": 57,
          "time": 225.91298699999035,
          "velocity": 0.7322834645669292,
          "duration": 0.7717389374997765
        },
        {
          "name": "E4",
          "midi": 64,
          "time": 226.11950868749034,
          "velocity": 0.6377952755905512,
          "duration": 0.4510868437498061
        },
        {
          "name": "E4",
          "midi": 64,
          "time": 226.13581303124033,
          "velocity": 0.6771653543307087,
          "duration": 0.5489129062497966
        },
        {
          "name": "C#3",
          "midi": 49,
          "time": 226.14124781249032,
          "velocity": 0.7086614173228346,
          "duration": 0.05434781249994103
        },
        {
          "name": "C#4",
          "midi": 61,
          "time": 226.1684217187403,
          "velocity": 0.7716535433070866,
          "duration": 0.5163042187498377
        },
        {
          "name": "A3",
          "midi": 57,
          "time": 226.1684217187403,
          "velocity": 0.7716535433070866,
          "duration": 0.5163042187498377
        },
        {
          "name": "E4",
          "midi": 64,
          "time": 226.1684217187403,
          "velocity": 0.6850393700787402,
          "duration": 0.8097824062496954
        },
        {
          "name": "F#1",
          "midi": 30,
          "time": 226.1684217187403,
          "velocity": 0.7322834645669292,
          "duration": 0.13586953124996626
        },
        {
          "name": "C#3",
          "midi": 49,
          "time": 226.1684217187403,
          "velocity": 0.7637795275590551,
          "duration": 0.24456515624993358
        },
        {
          "name": "C2",
          "midi": 36,
          "time": 226.17385649999028,
          "velocity": 0.6377952755905512,
          "duration": 0.0054347812499884185
        },
        {
          "name": "D#3",
          "midi": 51,
          "time": 226.17929128124027,
          "velocity": 0.7952755905511811,
          "duration": 0.0054347812499884185
        },
        {
          "name": "A3",
          "midi": 57,
          "time": 226.40211731249025,
          "velocity": 0.7952755905511811,
          "duration": 0.33695643749982196
        },
        {
          "name": "F#1",
          "midi": 30,
          "time": 226.42929121874022,
          "velocity": 0.9448818897637795,
          "duration": 0.16304343749993677
        },
        {
          "name": "A3",
          "midi": 57,
          "time": 226.42929121874022,
          "velocity": 0.8503937007874016,
          "duration": 0.41304337499983035
        },
        {
          "name": "C2",
          "midi": 36,
          "time": 226.4347259999902,
          "velocity": 0.8740157480314961,
          "duration": 0.0054347812499884185
        },
        {
          "name": "D#3",
          "midi": 51,
          "time": 226.4401607812402,
          "velocity": 0.7559055118110236,
          "duration": 0.0054347812499884185
        },
        {
          "name": "E4",
          "midi": 64,
          "time": 226.65211724999014,
          "velocity": 0.6062992125984252,
          "duration": 0.380434687499843
        },
        {
          "name": "G#3",
          "midi": 56,
          "time": 226.66298681249015,
          "velocity": 0.7716535433070866,
          "duration": 0.05434781249991261
        },
        {
          "name": "E4",
          "midi": 64,
          "time": 226.66842159374013,
          "velocity": 0.6377952755905512,
          "duration": 0.5380433437498198
        },
        {
          "name": "A3",
          "midi": 57,
          "time": 226.69016071874012,
          "velocity": 0.7795275590551181,
          "duration": 0.5163042187498377
        },
        {
          "name": "C#4",
          "midi": 61,
          "time": 226.69016071874012,
          "velocity": 0.7795275590551181,
          "duration": 0.5163042187498377
        },
        {
          "name": "E4",
          "midi": 64,
          "time": 226.69016071874012,
          "velocity": 0.6771653543307087,
          "duration": 0.9076084687497143
        },
        {
          "name": "F#1",
          "midi": 30,
          "time": 226.69016071874012,
          "velocity": 0.8110236220472441,
          "duration": 0.1521738749999315
        },
        {
          "name": "G#3",
          "midi": 56,
          "time": 226.69016071874012,
          "velocity": 0.8267716535433071,
          "duration": 0.4728259687498735
        },
        {
          "name": "D#3",
          "midi": 51,
          "time": 226.7010302812401,
          "velocity": 0.44881889763779526,
          "duration": 0.0054347812499884185
        },
        {
          "name": "C#3",
          "midi": 49,
          "time": 226.92385631249005,
          "velocity": 0.7165354330708661,
          "duration": 0.05434781249994103
        },
        {
          "name": "A3",
          "midi": 57,
          "time": 226.92385631249005,
          "velocity": 0.6614173228346457,
          "duration": 0.6793476562497744
        },
        {
          "name": "A3",
          "midi": 57,
          "time": 226.94016065624004,
          "velocity": 0.7401574803149606,
          "duration": 0.8206519687496439
        },
        {
          "name": "F#1",
          "midi": 30,
          "time": 226.95103021874002,
          "velocity": 0.9212598425196851,
          "duration": 0.19021734374996413
        },
        {
          "name": "C#3",
          "midi": 49,
          "time": 226.95103021874002,
          "velocity": 0.7716535433070866,
          "duration": 0.24456515624993358
        },
        {
          "name": "E2",
          "midi": 40,
          "time": 226.95646499999,
          "velocity": 0.9291338582677166,
          "duration": 0.0054347812499884185
        },
        {
          "name": "D#3",
          "midi": 51,
          "time": 226.95646499999,
          "velocity": 0.7086614173228346,
          "duration": 0.0054347812499884185
        },
        {
          "name": "E4",
          "midi": 64,
          "time": 227.17929103123998,
          "velocity": 0.6299212598425197,
          "duration": 0.4239129374998356
        },
        {
          "name": "G#3",
          "midi": 56,
          "time": 227.18472581248997,
          "velocity": 0.7874015748031497,
          "duration": 0.05434781249996945
        },
        {
          "name": "E4",
          "midi": 64,
          "time": 227.18472581248997,
          "velocity": 0.6692913385826772,
          "duration": 0.429347718749824
        },
        {
          "name": "A3",
          "midi": 57,
          "time": 227.21189971873994,
          "velocity": 0.7480314960629921,
          "duration": 0.5706520312497503
        },
        {
          "name": "C#4",
          "midi": 61,
          "time": 227.21189971873994,
          "velocity": 0.7480314960629921,
          "duration": 0.3913042499998767
        },
        {
          "name": "E4",
          "midi": 64,
          "time": 227.21189971873994,
          "velocity": 0.6929133858267716,
          "duration": 0.7771737187496512
        },
        {
          "name": "A1",
          "midi": 33,
          "time": 227.21189971873994,
          "velocity": 0.8031496062992126,
          "duration": 0.22282603124995148
        },
        {
          "name": "G#3",
          "midi": 56,
          "time": 227.21189971873994,
          "velocity": 0.84251968503937,
          "duration": 0.24456515624993358
        },
        {
          "name": "D#3",
          "midi": 51,
          "time": 227.22276928123995,
          "velocity": 0.8818897637795275,
          "duration": 0.0054347812499884185
        },
        {
          "name": "F#4",
          "midi": 66,
          "time": 227.4292909687399,
          "velocity": 0.5354330708661418,
          "duration": 1.3423909687492994
        },
        {
          "name": "D3",
          "midi": 50,
          "time": 227.4510300937399,
          "velocity": 0.9212598425196851,
          "duration": 0.05434781249996945
        },
        {
          "name": "D2",
          "midi": 38,
          "time": 227.47276921873987,
          "velocity": 0.6692913385826772,
          "duration": 0.1739129999999136
        },
        {
          "name": "D#3",
          "midi": 51,
          "time": 227.47820399998986,
          "velocity": 0.7322834645669292,
          "duration": 0.0054347812499884185
        },
        {
          "name": "C2",
          "midi": 36,
          "time": 227.47820399998986,
          "velocity": 0.8740157480314961,
          "duration": 0.0054347812499884185
        },
        {
          "name": "D3",
          "midi": 50,
          "time": 227.47820399998986,
          "velocity": 0.9763779527559056,
          "duration": 0.777173718749566
        },
        {
          "name": "A3",
          "midi": 57,
          "time": 227.70646481248977,
          "velocity": 0.6141732283464567,
          "duration": 0.08152171874991154
        },
        {
          "name": "E4",
          "midi": 64,
          "time": 227.71189959373976,
          "velocity": 0.6456692913385826,
          "duration": 0.3097825312497662
        },
        {
          "name": "E4",
          "midi": 64,
          "time": 227.71733437498975,
          "velocity": 0.6062992125984252,
          "duration": 0.3315216562497767
        },
        {
          "name": "C#4",
          "midi": 61,
          "time": 227.73363871873974,
          "velocity": 0.7795275590551181,
          "duration": 0.2554347187498536
        },
        {
          "name": "A3",
          "midi": 57,
          "time": 227.73363871873974,
          "velocity": 0.7795275590551181,
          "duration": 0.2554347187498536
        },
        {
          "name": "E4",
          "midi": 64,
          "time": 227.73363871873974,
          "velocity": 0.7165354330708661,
          "duration": 0.32065209374977144
        },
        {
          "name": "D2",
          "midi": 38,
          "time": 227.73363871873974,
          "velocity": 0.8346456692913385,
          "duration": 0.17934778124993045
        },
        {
          "name": "A3",
          "midi": 57,
          "time": 227.73363871873974,
          "velocity": 0.6692913385826772,
          "duration": 0.5163042187496956
        },
        {
          "name": "D#3",
          "midi": 51,
          "time": 227.74450828123972,
          "velocity": 0.5196850393700787,
          "duration": 0.0054347812499884185
        },
        {
          "name": "A3",
          "midi": 57,
          "time": 227.96189953123965,
          "velocity": 0.6456692913385826,
          "duration": 0.2880434062497841
        },
        {
          "name": "E4",
          "midi": 64,
          "time": 227.96733431248964,
          "velocity": 0.7952755905511811,
          "duration": 0.2880434062497841
        },
        {
          "name": "A3",
          "midi": 57,
          "time": 227.97820387498962,
          "velocity": 0.7322834645669292,
          "duration": 0.30434774999977776
        },
        {
          "name": "E2",
          "midi": 40,
          "time": 227.9836386562396,
          "velocity": 0.6377952755905512,
          "duration": 0.0054347812499884185
        },
        {
          "name": "E4",
          "midi": 64,
          "time": 227.99450821873958,
          "velocity": 0.5433070866141733,
          "duration": 0.38586946874977457
        },
        {
          "name": "C#4",
          "midi": 61,
          "time": 227.99450821873958,
          "velocity": 0.7007874015748031,
          "duration": 0.260869499999842
        },
        {
          "name": "A3",
          "midi": 57,
          "time": 227.99450821873958,
          "velocity": 0.7007874015748031,
          "duration": 0.7445650312496355
        },
        {
          "name": "D2",
          "midi": 38,
          "time": 227.99450821873958,
          "velocity": 0.8346456692913385,
          "duration": 0.18478256249989045
        },
        {
          "name": "E4",
          "midi": 64,
          "time": 227.99450821873958,
          "velocity": 0.8503937007874016,
          "duration": 0.6086954999996976
        },
        {
          "name": "E2",
          "midi": 40,
          "time": 227.99994299998957,
          "velocity": 0.9291338582677166,
          "duration": 0.0054347812499884185
        },
        {
          "name": "D#3",
          "midi": 51,
          "time": 228.00537778123956,
          "velocity": 0.7480314960629921,
          "duration": 0.0054347812499884185
        },
        {
          "name": "E4",
          "midi": 64,
          "time": 228.21733424998948,
          "velocity": 0.6220472440944882,
          "duration": 0.4076085937497851
        },
        {
          "name": "E4",
          "midi": 64,
          "time": 228.22276903123947,
          "velocity": 0.6692913385826772,
          "duration": 0.842391093749626
        },
        {
          "name": "A3",
          "midi": 57,
          "time": 228.22820381248945,
          "velocity": 0.7086614173228346,
          "duration": 0.5434781249997513
        },
        {
          "name": "D3",
          "midi": 50,
          "time": 228.23363859373944,
          "velocity": 0.7401574803149606,
          "duration": 0.05434781249994103
        },
        {
          "name": "A3",
          "midi": 57,
          "time": 228.25537771873942,
          "velocity": 0.8818897637795275,
          "duration": 0.5217389999997692
        },
        {
          "name": "F#4",
          "midi": 66,
          "time": 228.25537771873942,
          "velocity": 0.7244094488188977,
          "duration": 1.0434779999995385
        },
        {
          "name": "D4",
          "midi": 62,
          "time": 228.25537771873942,
          "velocity": 0.8818897637795275,
          "duration": 0.28804340624986935
        },
        {
          "name": "D#3",
          "midi": 51,
          "time": 228.25537771873942,
          "velocity": 0.8188976377952756,
          "duration": 0.0054347812499884185
        },
        {
          "name": "D2",
          "midi": 38,
          "time": 228.25537771873942,
          "velocity": 0.8188976377952756,
          "duration": 0.1684782187499252
        },
        {
          "name": "A3",
          "midi": 57,
          "time": 228.25537771873942,
          "velocity": 0.7637795275590551,
          "duration": 0.5489129062497398
        },
        {
          "name": "C2",
          "midi": 36,
          "time": 228.2608124999894,
          "velocity": 0.5984251968503937,
          "duration": 0.0054347812499884185
        },
        {
          "name": "D3",
          "midi": 50,
          "time": 228.2608124999894,
          "velocity": 0.7952755905511811,
          "duration": 0.7771737187497081
        },
        {
          "name": "D4",
          "midi": 62,
          "time": 228.48907331248935,
          "velocity": 0.7952755905511811,
          "duration": 0.2826086249998525
        },
        {
          "name": "D2",
          "midi": 38,
          "time": 228.51624721873932,
          "velocity": 0.7952755905511811,
          "duration": 0.18478256249991887
        },
        {
          "name": "D4",
          "midi": 62,
          "time": 228.51624721873932,
          "velocity": 0.8503937007874016,
          "duration": 0.3858694687498314
        },
        {
          "name": "D#3",
          "midi": 51,
          "time": 228.5216819999893,
          "velocity": 0.7244094488188977,
          "duration": 0.0054347812499884185
        },
        {
          "name": "C2",
          "midi": 36,
          "time": 228.5216819999893,
          "velocity": 0.8661417322834646,
          "duration": 0.0054347812499884185
        },
        {
          "name": "E4",
          "midi": 64,
          "time": 228.72820368748924,
          "velocity": 0.6692913385826772,
          "duration": 0.3858694687498314
        },
        {
          "name": "E4",
          "midi": 64,
          "time": 228.73363846873923,
          "velocity": 0.5748031496062992,
          "duration": 0.7934780624997018
        },
        {
          "name": "A3",
          "midi": 57,
          "time": 228.74994281248922,
          "velocity": 0.7716535433070866,
          "duration": 0.09782606249993364
        },
        {
          "name": "A3",
          "midi": 57,
          "time": 228.7771167187392,
          "velocity": 0.8188976377952756,
          "duration": 0.2663042812499157
        },
        {
          "name": "D4",
          "midi": 62,
          "time": 228.7771167187392,
          "velocity": 0.8188976377952756,
          "duration": 0.2934781874998862
        },
        {
          "name": "F#4",
          "midi": 66,
          "time": 228.7771167187392,
          "velocity": 0.6771653543307087,
          "duration": 0.7663041562497312
        },
        {
          "name": "D#3",
          "midi": 51,
          "time": 228.7771167187392,
          "velocity": 0.36220472440944884,
          "duration": 0.0054347812499884185
        },
        {
          "name": "A3",
          "midi": 57,
          "time": 228.7771167187392,
          "velocity": 0.8267716535433071,
          "duration": 0.38586946874985983
        },
        {
          "name": "C2",
          "midi": 36,
          "time": 228.78255149998918,
          "velocity": 0.8661417322834646,
          "duration": 0.0054347812499884185
        },
        {
          "name": "D2",
          "midi": 38,
          "time": 228.78255149998918,
          "velocity": 0.9133858267716536,
          "duration": 0.15217387499995993
        },
        {
          "name": "A3",
          "midi": 57,
          "time": 228.99450796873916,
          "velocity": 0.6456692913385826,
          "duration": 0.29891296874981776
        },
        {
          "name": "D4",
          "midi": 62,
          "time": 229.01624709373914,
          "velocity": 0.5669291338582677,
          "duration": 0.2826086249998241
        },
        {
          "name": "D3",
          "midi": 50,
          "time": 229.01624709373914,
          "velocity": 0.7165354330708661,
          "duration": 0.05434781249994103
        },
        {
          "name": "A3",
          "midi": 57,
          "time": 229.03798621873912,
          "velocity": 0.6771653543307087,
          "duration": 0.2880434062498409
        },
        {
          "name": "E2",
          "midi": 40,
          "time": 229.0434209999891,
          "velocity": 0.9291338582677166,
          "duration": 0.0054347812499884185
        },
        {
          "name": "D2",
          "midi": 38,
          "time": 229.0434209999891,
          "velocity": 0.8503937007874016,
          "duration": 0.16304343749993677
        },
        {
          "name": "D4",
          "midi": 62,
          "time": 229.0434209999891,
          "velocity": 0.6220472440944882,
          "duration": 0.3858694687498314
        },
        {
          "name": "D3",
          "midi": 50,
          "time": 229.0434209999891,
          "velocity": 0.7716535433070866,
          "duration": 0.5163042187498093
        },
        {
          "name": "A3",
          "midi": 57,
          "time": 229.0434209999891,
          "velocity": 0.7165354330708661,
          "duration": 0.4999998749998156
        },
        {
          "name": "E4",
          "midi": 64,
          "time": 229.25537746873903,
          "velocity": 0.6299212598425197,
          "duration": 0.40760859374987035
        },
        {
          "name": "E4",
          "midi": 64,
          "time": 229.266247031239,
          "velocity": 0.6929133858267716,
          "duration": 0.4130433749998872
        },
        {
          "name": "A3",
          "midi": 57,
          "time": 229.271681812489,
          "velocity": 0.7874015748031497,
          "duration": 0.4184781562498756
        },
        {
          "name": "C#4",
          "midi": 61,
          "time": 229.29885571873896,
          "velocity": 0.7244094488188977,
          "duration": 0.3913042499999051
        },
        {
          "name": "E4",
          "midi": 64,
          "time": 229.29885571873896,
          "velocity": 0.6850393700787402,
          "duration": 0.3913042499999051
        },
        {
          "name": "A3",
          "midi": 57,
          "time": 229.29885571873896,
          "velocity": 0.7244094488188977,
          "duration": 0.5326085624998314
        },
        {
          "name": "E2",
          "midi": 40,
          "time": 229.29885571873896,
          "velocity": 0.9291338582677166,
          "duration": 0.2228260312499799
        },
        {
          "name": "A3",
          "midi": 57,
          "time": 229.29885571873896,
          "velocity": 0.84251968503937,
          "duration": 0.7173911249997786
        },
        {
          "name": "A2",
          "midi": 45,
          "time": 229.53798609373894,
          "velocity": 0.9212598425196851,
          "duration": 0.05434781249996945
        },
        {
          "name": "A4",
          "midi": 69,
          "time": 229.55429043748893,
          "velocity": 0.6299212598425197,
          "duration": 3.1304339999988713
        },
        {
          "name": "E4",
          "midi": 64,
          "time": 229.55429043748893,
          "velocity": 0.5984251968503937,
          "duration": 0.5217389999997977
        },
        {
          "name": "D#3",
          "midi": 51,
          "time": 229.5651599999889,
          "velocity": 0.8582677165354331,
          "duration": 0.0054347812499884185
        },
        {
          "name": "C2",
          "midi": 36,
          "time": 229.5651599999889,
          "velocity": 0.8818897637795275,
          "duration": 0.0054347812499884185
        },
        {
          "name": "A1",
          "midi": 33,
          "time": 229.5651599999889,
          "velocity": 0.8976377952755905,
          "duration": 0.1521738749999315
        },
        {
          "name": "A2",
          "midi": 45,
          "time": 229.5651599999889,
          "velocity": 0.9763779527559056,
          "duration": 1.967390812499275
        },
        {
          "name": "E4",
          "midi": 64,
          "time": 229.76624690623885,
          "velocity": 0.5984251968503937,
          "duration": 0.3260868749998451
        },
        {
          "name": "E3",
          "midi": 52,
          "time": 229.79342081248885,
          "velocity": 0.6141732283464567,
          "duration": 0.05434781249991261
        },
        {
          "name": "E4",
          "midi": 64,
          "time": 229.79342081248885,
          "velocity": 0.6535433070866141,
          "duration": 0.3260868749998167
        },
        {
          "name": "C#4",
          "midi": 61,
          "time": 229.82059471873882,
          "velocity": 0.7716535433070866,
          "duration": 0.2554347187499104
        },
        {
          "name": "E4",
          "midi": 64,
          "time": 229.82059471873882,
          "velocity": 0.6614173228346457,
          "duration": 0.5163042187498093
        },
        {
          "name": "A3",
          "midi": 57,
          "time": 229.82059471873882,
          "velocity": 0.7716535433070866,
          "duration": 0.2554347187499104
        },
        {
          "name": "A1",
          "midi": 33,
          "time": 229.82059471873882,
          "velocity": 0.7952755905511811,
          "duration": 0.12499996874993258
        },
        {
          "name": "E3",
          "midi": 52,
          "time": 229.82059471873882,
          "velocity": 0.6692913385826772,
          "duration": 0.3858694687498314
        },
        {
          "name": "D#3",
          "midi": 51,
          "time": 229.8314642812388,
          "velocity": 0.5118110236220472,
          "duration": 0.0054347812499884185
        },
        {
          "name": "A1",
          "midi": 33,
          "time": 229.95646424998876,
          "velocity": 0.6850393700787402,
          "duration": 0.124999968749961
        },
        {
          "name": "B3",
          "midi": 59,
          "time": 230.02711640623875,
          "velocity": 0.6377952755905512,
          "duration": 0.08152171874991154
        },
        {
          "name": "B3",
          "midi": 59,
          "time": 230.04885553123873,
          "velocity": 0.6929133858267716,
          "duration": 0.28804340624989777
        },
        {
          "name": "B3",
          "midi": 59,
          "time": 230.05429031248872,
          "velocity": 0.8503937007874016,
          "duration": 0.836956312499666
        },
        {
          "name": "E4",
          "midi": 64,
          "time": 230.08146421873872,
          "velocity": 0.7165354330708661,
          "duration": 0.6413041874997703
        },
        {
          "name": "A3",
          "midi": 57,
          "time": 230.08146421873872,
          "velocity": 0.7559055118110236,
          "duration": 0.2554347187499104
        },
        {
          "name": "C#4",
          "midi": 61,
          "time": 230.08146421873872,
          "velocity": 0.7559055118110236,
          "duration": 0.2554347187499104
        },
        {
          "name": "B3",
          "midi": 59,
          "time": 230.08146421873872,
          "velocity": 0.905511811023622,
          "duration": 0.809782406249667
        },
        {
          "name": "E2",
          "midi": 40,
          "time": 230.0868989999887,
          "velocity": 0.9291338582677166,
          "duration": 0.0054347812499884185
        },
        {
          "name": "A1",
          "midi": 33,
          "time": 230.0868989999887,
          "velocity": 0.8818897637795275,
          "duration": 0.1847825624999473
        },
        {
          "name": "D#3",
          "midi": 51,
          "time": 230.0923337812387,
          "velocity": 0.84251968503937,
          "duration": 0.0054347812499884185
        },
        {
          "name": "E4",
          "midi": 64,
          "time": 230.27711634373864,
          "velocity": 0.5905511811023622,
          "duration": 0.4619564062498398
        },
        {
          "name": "E3",
          "midi": 52,
          "time": 230.31515981248864,
          "velocity": 0.7086614173228346,
          "duration": 0.05434781249991261
        },
        {
          "name": "E4",
          "midi": 64,
          "time": 230.32059459373863,
          "velocity": 0.7322834645669292,
          "duration": 0.5380433437497913
        },
        {
          "name": "E4",
          "midi": 64,
          "time": 230.34233371873862,
          "velocity": 0.7244094488188977,
          "duration": 0.8097824062496954
        },
        {
          "name": "A3",
          "midi": 57,
          "time": 230.34233371873862,
          "velocity": 0.7716535433070866,
          "duration": 0.5163042187498093
        },
        {
          "name": "C#4",
          "midi": 61,
          "time": 230.34233371873862,
          "velocity": 0.7716535433070866,
          "duration": 0.28804340624986935
        },
        {
          "name": "E3",
          "midi": 52,
          "time": 230.34233371873862,
          "velocity": 0.7637795275590551,
          "duration": 0.6467389687497587
        },
        {
          "name": "C2",
          "midi": 36,
          "time": 230.3477684999886,
          "velocity": 0.5905511811023622,
          "duration": 0.0054347812499884185
        },
        {
          "name": "A1",
          "midi": 33,
          "time": 230.3477684999886,
          "velocity": 0.7559055118110236,
          "duration": 0.1467390937499431
        },
        {
          "name": "D#3",
          "midi": 51,
          "time": 230.3532032812386,
          "velocity": 0.5433070866141733,
          "duration": 0.0054347812499884185
        },
        {
          "name": "C#4",
          "midi": 61,
          "time": 230.57602931248854,
          "velocity": 0.7952755905511811,
          "duration": 0.28260862499988093
        },
        {
          "name": "A1",
          "midi": 33,
          "time": 230.6032032187385,
          "velocity": 0.952755905511811,
          "duration": 0.15217387499995993
        },
        {
          "name": "C#4",
          "midi": 61,
          "time": 230.6032032187385,
          "velocity": 0.8503937007874016,
          "duration": 0.2554347187499104
        },
        {
          "name": "C2",
          "midi": 36,
          "time": 230.6086379999885,
          "velocity": 0.8818897637795275,
          "duration": 0.0054347812499884185
        },
        {
          "name": "D#3",
          "midi": 51,
          "time": 230.6140727812385,
          "velocity": 0.7952755905511811,
          "duration": 0.0054347812499884185
        },
        {
          "name": "E4",
          "midi": 64,
          "time": 230.83146403123845,
          "velocity": 0.5905511811023622,
          "duration": 0.36956512499986616
        },
        {
          "name": "B3",
          "midi": 59,
          "time": 230.83689881248844,
          "velocity": 0.7716535433070866,
          "duration": 0.2119564687499178
        },
        {
          "name": "E4",
          "midi": 64,
          "time": 230.84233359373843,
          "velocity": 0.6456692913385826,
          "duration": 0.5380433437497913
        },
        {
          "name": "E4",
          "midi": 64,
          "time": 230.8640727187384,
          "velocity": 0.6220472440944882,
          "duration": 0.9130432499996743
        },
        {
          "name": "A3",
          "midi": 57,
          "time": 230.8640727187384,
          "velocity": 0.7795275590551181,
          "duration": 0.5163042187498093
        },
        {
          "name": "C#4",
          "midi": 61,
          "time": 230.8640727187384,
          "velocity": 0.7795275590551181,
          "duration": 0.5163042187498093
        },
        {
          "name": "D#3",
          "midi": 51,
          "time": 230.8640727187384,
          "velocity": 0.5433070866141733,
          "duration": 0.0054347812499884185
        },
        {
          "name": "A1",
          "midi": 33,
          "time": 230.8640727187384,
          "velocity": 0.8503937007874016,
          "duration": 0.14673909374997152
        },
        {
          "name": "B3",
          "midi": 59,
          "time": 230.8640727187384,
          "velocity": 0.8267716535433071,
          "duration": 0.48913031249983874
        },
        {
          "name": "B3",
          "midi": 59,
          "time": 231.09233353123835,
          "velocity": 0.47244094488188976,
          "duration": 0.3206520937498283
        },
        {
          "name": "E3",
          "midi": 52,
          "time": 231.09776831248834,
          "velocity": 0.7165354330708661,
          "duration": 0.05434781249996945
        },
        {
          "name": "D#3",
          "midi": 51,
          "time": 231.12494221873834,
          "velocity": 0.7952755905511811,
          "duration": 0.0054347812499884185
        },
        {
          "name": "E3",
          "midi": 52,
          "time": 231.12494221873834,
          "velocity": 0.7716535433070866,
          "duration": 0.3858694687498314
        },
        {
          "name": "E2",
          "midi": 40,
          "time": 231.13037699998833,
          "velocity": 0.9291338582677166,
          "duration": 0.0054347812499884185
        },
        {
          "name": "B3",
          "midi": 59,
          "time": 231.13037699998833,
          "velocity": 0.6929133858267716,
          "duration": 0.4999998749998156
        },
        {
          "name": "A1",
          "midi": 33,
          "time": 231.13581178123832,
          "velocity": 0.952755905511811,
          "duration": 0.1630434374999652
        },
        {
          "name": "E4",
          "midi": 64,
          "time": 231.34776824998826,
          "velocity": 0.5984251968503937,
          "duration": 0.429347718749824
        },
        {
          "name": "B3",
          "midi": 59,
          "time": 231.35863781248824,
          "velocity": 0.7874015748031497,
          "duration": 0.6195650624997597
        },
        {
          "name": "E4",
          "midi": 64,
          "time": 231.35863781248824,
          "velocity": 0.6614173228346457,
          "duration": 0.429347718749824
        },
        {
          "name": "A3",
          "midi": 57,
          "time": 231.3858117187382,
          "velocity": 0.6850393700787402,
          "duration": 0.3913042499998767
        },
        {
          "name": "E4",
          "midi": 64,
          "time": 231.3858117187382,
          "velocity": 0.6771653543307087,
          "duration": 0.7771737187497934
        },
        {
          "name": "C#4",
          "midi": 61,
          "time": 231.3858117187382,
          "velocity": 0.6850393700787402,
          "duration": 0.3913042499998767
        },
        {
          "name": "D#3",
          "midi": 51,
          "time": 231.3858117187382,
          "velocity": 0.5748031496062992,
          "duration": 0.0054347812499884185
        },
        {
          "name": "B3",
          "midi": 59,
          "time": 231.3858117187382,
          "velocity": 0.84251968503937,
          "duration": 0.5923911562497892
        },
        {
          "name": "A1",
          "midi": 33,
          "time": 231.3966812812382,
          "velocity": 0.7559055118110236,
          "duration": 0.13586953124999468
        },
        {
          "name": "A2",
          "midi": 45,
          "time": 231.62494209373816,
          "velocity": 0.9212598425196851,
          "duration": 0.05434781249996945
        },
        {
          "name": "D#3",
          "midi": 51,
          "time": 231.64668121873814,
          "velocity": 0.8188976377952756,
          "duration": 0.0054347812499884185
        },
        {
          "name": "C2",
          "midi": 36,
          "time": 231.65211599998813,
          "velocity": 0.8661417322834646,
          "duration": 0.0054347812499884185
        },
        {
          "name": "A1",
          "midi": 33,
          "time": 231.65211599998813,
          "velocity": 0.952755905511811,
          "duration": 0.16304343749993677
        },
        {
          "name": "A2",
          "midi": 45,
          "time": 231.65211599998813,
          "velocity": 0.9763779527559056,
          "duration": 1.967390812499275
        },
        {
          "name": "E4",
          "midi": 64,
          "time": 231.87494203123805,
          "velocity": 0.5905511811023622,
          "duration": 0.31521731249992513
        },
        {
          "name": "E3",
          "midi": 52,
          "time": 231.88037681248804,
          "velocity": 0.6141732283464567,
          "duration": 0.05434781249994103
        },
        {
          "name": "E4",
          "midi": 64,
          "time": 231.89668115623803,
          "velocity": 0.6614173228346457,
          "duration": 0.3315216562499472
        },
        {
          "name": "E4",
          "midi": 64,
          "time": 231.907550718738,
          "velocity": 0.7244094488188977,
          "duration": 0.5163042187498661
        },
        {
          "name": "C#4",
          "midi": 61,
          "time": 231.907550718738,
          "velocity": 0.7244094488188977,
          "duration": 0.2554347187499957
        },
        {
          "name": "A3",
          "midi": 57,
          "time": 231.907550718738,
          "velocity": 0.7244094488188977,
          "duration": 0.2554347187499957
        },
        {
          "name": "D#3",
          "midi": 51,
          "time": 231.907550718738,
          "velocity": 0.5275590551181102,
          "duration": 0.0054347812499884185
        },
        {
          "name": "A1",
          "midi": 33,
          "time": 231.907550718738,
          "velocity": 0.7480314960629921,
          "duration": 0.16847821874998203
        },
        {
          "name": "E3",
          "midi": 52,
          "time": 231.907550718738,
          "velocity": 0.6692913385826772,
          "duration": 0.3858694687499451
        },
        {
          "name": "B3",
          "midi": 59,
          "time": 232.141246312488,
          "velocity": 0.8503937007874016,
          "duration": 0.05434781249996945
        },
        {
          "name": "B3",
          "midi": 59,
          "time": 232.141246312488,
          "velocity": 0.6850393700787402,
          "duration": 0.27173906249987567
        },
        {
          "name": "B3",
          "midi": 59,
          "time": 232.152115874988,
          "velocity": 0.6535433070866141,
          "duration": 0.8260867499996323
        },
        {
          "name": "C#4",
          "midi": 61,
          "time": 232.168420218738,
          "velocity": 0.7795275590551181,
          "duration": 0.255434718749882
        },
        {
          "name": "E4",
          "midi": 64,
          "time": 232.168420218738,
          "velocity": 0.7480314960629921,
          "duration": 0.6467389687497587
        },
        {
          "name": "A3",
          "midi": 57,
          "time": 232.168420218738,
          "velocity": 0.7795275590551181,
          "duration": 0.255434718749882
        },
        {
          "name": "D#3",
          "midi": 51,
          "time": 232.168420218738,
          "velocity": 0.8503937007874016,
          "duration": 0.0054347812499884185
        },
        {
          "name": "B3",
          "midi": 59,
          "time": 232.168420218738,
          "velocity": 0.905511811023622,
          "duration": 0.8260867499996323
        },
        {
          "name": "E2",
          "midi": 40,
          "time": 232.17385499998798,
          "velocity": 0.9291338582677166,
          "duration": 0.0054347812499884185
        },
        {
          "name": "A1",
          "midi": 33,
          "time": 232.17385499998798,
          "velocity": 0.9291338582677166,
          "duration": 0.1684782187499536
        },
        {
          "name": "E4",
          "midi": 64,
          "time": 232.3858114687379,
          "velocity": 0.6141732283464567,
          "duration": 0.4456520624998461
        },
        {
          "name": "E3",
          "midi": 52,
          "time": 232.4021158124879,
          "velocity": 0.7086614173228346,
          "duration": 0.05434781249994103
        },
        {
          "name": "E4",
          "midi": 64,
          "time": 232.41298537498787,
          "velocity": 0.6614173228346457,
          "duration": 0.5326085624998314
        },
        {
          "name": "A3",
          "midi": 57,
          "time": 232.42928971873786,
          "velocity": 0.7716535433070866,
          "duration": 0.5163042187498377
        },
        {
          "name": "C#4",
          "midi": 61,
          "time": 232.42928971873786,
          "velocity": 0.7716535433070866,
          "duration": 0.28804340624989777
        },
        {
          "name": "E4",
          "midi": 64,
          "time": 232.42928971873786,
          "velocity": 0.7952755905511811,
          "duration": 0.8260867499996323
        },
        {
          "name": "D#3",
          "midi": 51,
          "time": 232.42928971873786,
          "velocity": 0.5826771653543307,
          "duration": 0.0054347812499884185
        },
        {
          "name": "E3",
          "midi": 52,
          "time": 232.42928971873786,
          "velocity": 0.7637795275590551,
          "duration": 0.24456515624993358
        },
        {
          "name": "C2",
          "midi": 36,
          "time": 232.43472449998785,
          "velocity": 0.5669291338582677,
          "duration": 0.0054347812499884185
        },
        {
          "name": "A1",
          "midi": 33,
          "time": 232.44015928123784,
          "velocity": 0.6929133858267716,
          "duration": 0.1413043124999831
        },
        {
          "name": "B4",
          "midi": 71,
          "time": 232.64668096873783,
          "velocity": 0.6299212598425197,
          "duration": 1.03804321874955
        },
        {
          "name": "C#4",
          "midi": 61,
          "time": 232.66298531248782,
          "velocity": 0.7952755905511811,
          "duration": 0.28260862499988093
        },
        {
          "name": "A1",
          "midi": 33,
          "time": 232.6901592187378,
          "velocity": 0.952755905511811,
          "duration": 0.17391299999994203
        },
        {
          "name": "C#4",
          "midi": 61,
          "time": 232.6901592187378,
          "velocity": 0.8503937007874016,
          "duration": 0.2554347187499104
        },
        {
          "name": "C2",
          "midi": 36,
          "time": 232.69559399998778,
          "velocity": 0.8740157480314961,
          "duration": 0.0054347812499884185
        },
        {
          "name": "D#3",
          "midi": 51,
          "time": 232.70102878123777,
          "velocity": 0.8110236220472441,
          "duration": 0.0054347812499884185
        },
        {
          "name": "B3",
          "midi": 59,
          "time": 232.92385481248772,
          "velocity": 0.7716535433070866,
          "duration": 0.10326084374989364
        },
        {
          "name": "E4",
          "midi": 64,
          "time": 232.92385481248772,
          "velocity": 0.6299212598425197,
          "duration": 0.3369564374997651
        },
        {
          "name": "E4",
          "midi": 64,
          "time": 232.9401591562377,
          "velocity": 0.6299212598425197,
          "duration": 0.5271737812497292
        },
        {
          "name": "E4",
          "midi": 64,
          "time": 232.9510287187377,
          "velocity": 0.7952755905511811,
          "duration": 0.6956519999996829
        },
        {
          "name": "C#4",
          "midi": 61,
          "time": 232.9510287187377,
          "velocity": 0.6850393700787402,
          "duration": 0.5163042187497524
        },
        {
          "name": "A3",
          "midi": 57,
          "time": 232.9510287187377,
          "velocity": 0.6850393700787402,
          "duration": 0.5163042187497524
        },
        {
          "name": "A1",
          "midi": 33,
          "time": 232.9510287187377,
          "velocity": 0.6614173228346457,
          "duration": 0.13043474999989257
        },
        {
          "name": "B3",
          "midi": 59,
          "time": 232.9510287187377,
          "velocity": 0.8267716535433071,
          "duration": 0.4728259687497598
        },
        {
          "name": "D#3",
          "midi": 51,
          "time": 232.96189828123767,
          "velocity": 0.6062992125984252,
          "duration": 0.0054347812499884185
        },
        {
          "name": "B3",
          "midi": 59,
          "time": 233.16298518748755,
          "velocity": 0.6456692913385826,
          "duration": 0.3369564374998504
        },
        {
          "name": "E3",
          "midi": 52,
          "time": 233.18472431248756,
          "velocity": 0.7165354330708661,
          "duration": 0.05434781249994103
        },
        {
          "name": "B3",
          "midi": 59,
          "time": 233.19559387498757,
          "velocity": 0.6692913385826772,
          "duration": 0.5217389999997977
        },
        {
          "name": "A1",
          "midi": 33,
          "time": 233.21189821873756,
          "velocity": 0.9133858267716536,
          "duration": 0.1956521249998957
        },
        {
          "name": "E3",
          "midi": 52,
          "time": 233.21189821873756,
          "velocity": 0.7716535433070866,
          "duration": 0.24456515624987674
        },
        {
          "name": "E2",
          "midi": 40,
          "time": 233.21733299998755,
          "velocity": 0.9291338582677166,
          "duration": 0.0054347812499884185
        },
        {
          "name": "D#3",
          "midi": 51,
          "time": 233.22276778123754,
          "velocity": 0.8503937007874016,
          "duration": 0.0054347812499884185
        },
        {
          "name": "E4",
          "midi": 64,
          "time": 233.40755034373746,
          "velocity": 0.6377952755905512,
          "duration": 0.40760859374984193
        },
        {
          "name": "E4",
          "midi": 64,
          "time": 233.42385468748745,
          "velocity": 0.6771653543307087,
          "duration": 0.4402172812498577
        },
        {
          "name": "B3",
          "midi": 59,
          "time": 233.44559381248746,
          "velocity": 0.7874015748031497,
          "duration": 0.6467389687497587
        },
        {
          "name": "A3",
          "midi": 57,
          "time": 233.47276771873743,
          "velocity": 0.6850393700787402,
          "duration": 0.3913042499998767
        },
        {
          "name": "C#4",
          "midi": 61,
          "time": 233.47276771873743,
          "velocity": 0.6850393700787402,
          "duration": 0.3913042499998767
        },
        {
          "name": "E4",
          "midi": 64,
          "time": 233.47276771873743,
          "velocity": 0.6377952755905512,
          "duration": 0.3967390312498651
        },
        {
          "name": "A1",
          "midi": 33,
          "time": 233.47276771873743,
          "velocity": 0.8188976377952756,
          "duration": 0.1630434374999652
        },
        {
          "name": "B3",
          "midi": 59,
          "time": 233.47276771873743,
          "velocity": 0.84251968503937,
          "duration": 0.6521737499997755
        },
        {
          "name": "D#3",
          "midi": 51,
          "time": 233.4836372812374,
          "velocity": 0.6141732283464567,
          "duration": 0.0054347812499884185
        },
        {
          "name": "E4",
          "midi": 64,
          "time": 233.67385462498737,
          "velocity": 0.5984251968503937,
          "duration": 0.5760868124997955
        },
        {
          "name": "A4",
          "midi": 69,
          "time": 233.68472418748738,
          "velocity": 0.6220472440944882,
          "duration": 3.173912249998949
        },
        {
          "name": "F#2",
          "midi": 42,
          "time": 233.71189809373737,
          "velocity": 0.9212598425196851,
          "duration": 0.05434781249994103
        },
        {
          "name": "F#1",
          "midi": 30,
          "time": 233.73363721873736,
          "velocity": 0.7795275590551181,
          "duration": 0.1521738749999315
        },
        {
          "name": "C2",
          "midi": 36,
          "time": 233.73907199998735,
          "velocity": 0.8503937007874016,
          "duration": 0.0054347812499884185
        },
        {
          "name": "F#2",
          "midi": 42,
          "time": 233.73907199998735,
          "velocity": 0.9763779527559056,
          "duration": 1.967390812499417
        },
        {
          "name": "D#3",
          "midi": 51,
          "time": 233.74450678123733,
          "velocity": 0.84251968503937,
          "duration": 0.0054347812499884185
        },
        {
          "name": "E4",
          "midi": 64,
          "time": 233.9401589062373,
          "velocity": 0.6299212598425197,
          "duration": 0.3260868749998451
        },
        {
          "name": "C#3",
          "midi": 49,
          "time": 233.96733281248729,
          "velocity": 0.6141732283464567,
          "duration": 0.05434781249994103
        },
        {
          "name": "E4",
          "midi": 64,
          "time": 233.98363715623728,
          "velocity": 0.6614173228346457,
          "duration": 0.3260868749998451
        },
        {
          "name": "E4",
          "midi": 64,
          "time": 233.99450671873728,
          "velocity": 0.7322834645669292,
          "duration": 0.5163042187498093
        },
        {
          "name": "C#4",
          "midi": 61,
          "time": 233.99450671873728,
          "velocity": 0.6850393700787402,
          "duration": 0.255434718749882
        },
        {
          "name": "A3",
          "midi": 57,
          "time": 233.99450671873728,
          "velocity": 0.6850393700787402,
          "duration": 0.255434718749882
        },
        {
          "name": "F#1",
          "midi": 30,
          "time": 233.99450671873728,
          "velocity": 0.6456692913385826,
          "duration": 0.130434749999921
        },
        {
          "name": "C#3",
          "midi": 49,
          "time": 233.99450671873728,
          "velocity": 0.6692913385826772,
          "duration": 0.3858694687498314
        },
        {
          "name": "D#3",
          "midi": 51,
          "time": 234.00537628123726,
          "velocity": 0.5748031496062992,
          "duration": 0.0054347812499884185
        },
        {
          "name": "A3",
          "midi": 57,
          "time": 234.19015884373718,
          "velocity": 0.5669291338582677,
          "duration": 0.32065209374991355
        },
        {
          "name": "G#3",
          "midi": 56,
          "time": 234.22820231248718,
          "velocity": 0.8503937007874016,
          "duration": 0.05434781249994103
        },
        {
          "name": "A3",
          "midi": 57,
          "time": 234.23363709373717,
          "velocity": 0.7007874015748031,
          "duration": 0.5706520312497787
        },
        {
          "name": "E4",
          "midi": 64,
          "time": 234.25537621873715,
          "velocity": 0.7086614173228346,
          "duration": 0.624999843749805
        },
        {
          "name": "A3",
          "midi": 57,
          "time": 234.25537621873715,
          "velocity": 0.7480314960629921,
          "duration": 0.7771737187498218
        },
        {
          "name": "C#4",
          "midi": 61,
          "time": 234.25537621873715,
          "velocity": 0.7480314960629921,
          "duration": 0.25543471874993884
        },
        {
          "name": "D#3",
          "midi": 51,
          "time": 234.25537621873715,
          "velocity": 0.8818897637795275,
          "duration": 0.0054347812499884185
        },
        {
          "name": "F#1",
          "midi": 30,
          "time": 234.25537621873715,
          "velocity": 0.952755905511811,
          "duration": 0.15760865624994835
        },
        {
          "name": "G#3",
          "midi": 56,
          "time": 234.25537621873715,
          "velocity": 0.905511811023622,
          "duration": 0.24456515624993358
        },
        {
          "name": "E2",
          "midi": 40,
          "time": 234.26081099998714,
          "velocity": 0.9291338582677166,
          "duration": 0.0054347812499884185
        },
        {
          "name": "E4",
          "midi": 64,
          "time": 234.4510283437371,
          "velocity": 0.5826771653543307,
          "duration": 0.45108684374983454
        },
        {
          "name": "C#3",
          "midi": 49,
          "time": 234.4890718124871,
          "velocity": 0.7086614173228346,
          "duration": 0.05434781249994103
        },
        {
          "name": "E4",
          "midi": 64,
          "time": 234.4890718124871,
          "velocity": 0.6535433070866141,
          "duration": 0.543478124999865
        },
        {
          "name": "E4",
          "midi": 64,
          "time": 234.51624571873708,
          "velocity": 0.8031496062992126,
          "duration": 0.8641302187497786
        },
        {
          "name": "C#4",
          "midi": 61,
          "time": 234.51624571873708,
          "velocity": 0.8267716535433071,
          "duration": 0.5163042187498945
        },
        {
          "name": "A3",
          "midi": 57,
          "time": 234.51624571873708,
          "velocity": 0.8267716535433071,
          "duration": 0.5163042187498945
        },
        {
          "name": "F#1",
          "midi": 30,
          "time": 234.51624571873708,
          "velocity": 0.7165354330708661,
          "duration": 0.124999968749961
        },
        {
          "name": "C#3",
          "midi": 49,
          "time": 234.51624571873708,
          "velocity": 0.7637795275590551,
          "duration": 0.24456515624993358
        },
        {
          "name": "C2",
          "midi": 36,
          "time": 234.52168049998707,
          "velocity": 0.6377952755905512,
          "duration": 0.0054347812499884185
        },
        {
          "name": "D#3",
          "midi": 51,
          "time": 234.52711528123706,
          "velocity": 0.5984251968503937,
          "duration": 0.0054347812499884185
        },
        {
          "name": "A3",
          "midi": 57,
          "time": 234.74994131248704,
          "velocity": 0.7952755905511811,
          "duration": 0.3586955624998893
        },
        {
          "name": "F#1",
          "midi": 30,
          "time": 234.777115218737,
          "velocity": 0.9212598425196851,
          "duration": 0.1467390937499431
        },
        {
          "name": "A3",
          "midi": 57,
          "time": 234.777115218737,
          "velocity": 0.8503937007874016,
          "duration": 0.3749999062499114
        },
        {
          "name": "C2",
          "midi": 36,
          "time": 234.782549999987,
          "velocity": 0.8740157480314961,
          "duration": 0.0054347812499884185
        },
        {
          "name": "D#3",
          "midi": 51,
          "time": 234.787984781237,
          "velocity": 0.8346456692913385,
          "duration": 0.0054347812499884185
        },
        {
          "name": "E4",
          "midi": 64,
          "time": 234.97820212498695,
          "velocity": 0.5511811023622047,
          "duration": 0.4130433749999156
        },
        {
          "name": "E4",
          "midi": 64,
          "time": 234.99994124998696,
          "velocity": 0.6062992125984252,
          "duration": 0.5543476874998419
        },
        {
          "name": "G#3",
          "midi": 56,
          "time": 235.01081081248697,
          "velocity": 0.7716535433070866,
          "duration": 0.05434781249994103
        },
        {
          "name": "C#4",
          "midi": 61,
          "time": 235.03798471873696,
          "velocity": 0.7952755905511811,
          "duration": 0.5163042187498377
        },
        {
          "name": "E4",
          "midi": 64,
          "time": 235.03798471873696,
          "velocity": 0.7401574803149606,
          "duration": 0.8804345624997154
        },
        {
          "name": "A3",
          "midi": 57,
          "time": 235.03798471873696,
          "velocity": 0.7952755905511811,
          "duration": 0.5163042187498377
        },
        {
          "name": "F#1",
          "midi": 30,
          "time": 235.03798471873696,
          "velocity": 0.7007874015748031,
          "duration": 0.11413040624995574
        },
        {
          "name": "G#3",
          "midi": 56,
          "time": 235.03798471873696,
          "velocity": 0.8267716535433071,
          "duration": 0.4728259687498735
        },
        {
          "name": "D#3",
          "midi": 51,
          "time": 235.04885428123694,
          "velocity": 0.5826771653543307,
          "duration": 0.0054347812499884185
        },
        {
          "name": "A3",
          "midi": 57,
          "time": 235.2662455312369,
          "velocity": 0.7086614173228346,
          "duration": 0.6847824374997629
        },
        {
          "name": "C#3",
          "midi": 49,
          "time": 235.2716803124869,
          "velocity": 0.7165354330708661,
          "duration": 0.05434781249996945
        },
        {
          "name": "A3",
          "midi": 57,
          "time": 235.27711509373688,
          "velocity": 0.6377952755905512,
          "duration": 0.8152171874997691
        },
        {
          "name": "F#1",
          "midi": 30,
          "time": 235.2988542187369,
          "velocity": 0.952755905511811,
          "duration": 0.1630434374999652
        },
        {
          "name": "C#3",
          "midi": 49,
          "time": 235.2988542187369,
          "velocity": 0.7716535433070866,
          "duration": 0.24456515624990516
        },
        {
          "name": "E2",
          "midi": 40,
          "time": 235.30428899998688,
          "velocity": 0.9291338582677166,
          "duration": 0.0054347812499884185
        },
        {
          "name": "D#3",
          "midi": 51,
          "time": 235.30428899998688,
          "velocity": 0.84251968503937,
          "duration": 0.0054347812499884185
        },
        {
          "name": "E4",
          "midi": 64,
          "time": 235.52711503123683,
          "velocity": 0.5905511811023622,
          "duration": 0.4184781562498472
        },
        {
          "name": "G#3",
          "midi": 56,
          "time": 235.53254981248682,
          "velocity": 0.7874015748031497,
          "duration": 0.05434781249994103
        },
        {
          "name": "E4",
          "midi": 64,
          "time": 235.53254981248682,
          "velocity": 0.6456692913385826,
          "duration": 0.4184781562498472
        },
        {
          "name": "E4",
          "midi": 64,
          "time": 235.5597237187368,
          "velocity": 0.6377952755905512,
          "duration": 0.7771737187497934
        },
        {
          "name": "C#4",
          "midi": 61,
          "time": 235.5597237187368,
          "velocity": 0.7480314960629921,
          "duration": 0.3913042499998767
        },
        {
          "name": "A3",
          "midi": 57,
          "time": 235.5597237187368,
          "velocity": 0.7480314960629921,
          "duration": 0.548912906249825
        },
        {
          "name": "A1",
          "midi": 33,
          "time": 235.5597237187368,
          "velocity": 0.6141732283464567,
          "duration": 0.25543471874993884
        },
        {
          "name": "G#3",
          "midi": 56,
          "time": 235.5597237187368,
          "velocity": 0.84251968503937,
          "duration": 0.24456515624993358
        },
        {
          "name": "D#3",
          "midi": 51,
          "time": 235.57059328123677,
          "velocity": 0.4881889763779528,
          "duration": 0.0054347812499884185
        },
        {
          "name": "D3",
          "midi": 50,
          "time": 235.79885409373674,
          "velocity": 0.9212598425196851,
          "duration": 0.05434781249996945
        },
        {
          "name": "D2",
          "midi": 38,
          "time": 235.82059321873672,
          "velocity": 0.8503937007874016,
          "duration": 0.15760865624994835
        },
        {
          "name": "D#3",
          "midi": 51,
          "time": 235.8260279999867,
          "velocity": 0.8031496062992126,
          "duration": 0.0054347812499884185
        },
        {
          "name": "C2",
          "midi": 36,
          "time": 235.8260279999867,
          "velocity": 0.8740157480314961,
          "duration": 0.0054347812499884185
        },
        {
          "name": "D3",
          "midi": 50,
          "time": 235.8260279999867,
          "velocity": 0.9763779527559056,
          "duration": 0.7771737187497365
        },
        {
          "name": "E4",
          "midi": 64,
          "time": 236.02168012498666,
          "velocity": 0.6456692913385826,
          "duration": 0.34782599999985564
        },
        {
          "name": "E4",
          "midi": 64,
          "time": 236.04341924998667,
          "velocity": 0.6141732283464567,
          "duration": 0.3260868749998451
        },
        {
          "name": "A3",
          "midi": 57,
          "time": 236.05428881248667,
          "velocity": 0.6141732283464567,
          "duration": 0.10326084374995048
        },
        {
          "name": "E4",
          "midi": 64,
          "time": 236.08146271873667,
          "velocity": 0.6614173228346457,
          "duration": 0.3206520937498567
        },
        {
          "name": "A3",
          "midi": 57,
          "time": 236.08146271873667,
          "velocity": 0.7322834645669292,
          "duration": 0.2554347187499104
        },
        {
          "name": "C#4",
          "midi": 61,
          "time": 236.08146271873667,
          "velocity": 0.7322834645669292,
          "duration": 0.2554347187499104
        },
        {
          "name": "D2",
          "midi": 38,
          "time": 236.08146271873667,
          "velocity": 0.6692913385826772,
          "duration": 0.14130431249992625
        },
        {
          "name": "A3",
          "midi": 57,
          "time": 236.08146271873667,
          "velocity": 0.6692913385826772,
          "duration": 0.5163042187497808
        },
        {
          "name": "D#3",
          "midi": 51,
          "time": 236.09233228123665,
          "velocity": 0.5196850393700787,
          "duration": 0.0054347812499884185
        },
        {
          "name": "A3",
          "midi": 57,
          "time": 236.2934191874866,
          "velocity": 0.6692913385826772,
          "duration": 0.304347749999863
        },
        {
          "name": "A3",
          "midi": 57,
          "time": 236.3042887499866,
          "velocity": 0.7322834645669292,
          "duration": 0.3260868749998167
        },
        {
          "name": "E4",
          "midi": 64,
          "time": 236.3151583124866,
          "velocity": 0.7952755905511811,
          "duration": 0.2880434062498409
        },
        {
          "name": "E2",
          "midi": 40,
          "time": 236.3314626562366,
          "velocity": 0.6377952755905512,
          "duration": 0.0054347812499884185
        },
        {
          "name": "E4",
          "midi": 64,
          "time": 236.34233221873657,
          "velocity": 0.5905511811023622,
          "duration": 0.385869468749803
        },
        {
          "name": "C#4",
          "midi": 61,
          "time": 236.34233221873657,
          "velocity": 0.6062992125984252,
          "duration": 0.2608694999998704
        },
        {
          "name": "A3",
          "midi": 57,
          "time": 236.34233221873657,
          "velocity": 0.6062992125984252,
          "duration": 0.7445650312496639
        },
        {
          "name": "D2",
          "midi": 38,
          "time": 236.34233221873657,
          "velocity": 0.952755905511811,
          "duration": 0.17934778124993045
        },
        {
          "name": "E4",
          "midi": 64,
          "time": 236.34233221873657,
          "velocity": 0.8503937007874016,
          "duration": 0.6086954999996976
        },
        {
          "name": "E2",
          "midi": 40,
          "time": 236.34776699998656,
          "velocity": 0.9291338582677166,
          "duration": 0.0054347812499884185
        },
        {
          "name": "D#3",
          "midi": 51,
          "time": 236.35320178123655,
          "velocity": 0.8267716535433071,
          "duration": 0.0054347812499884185
        },
        {
          "name": "E4",
          "midi": 64,
          "time": 236.55972346873648,
          "velocity": 0.5905511811023622,
          "duration": 0.42391293749977876
        },
        {
          "name": "E4",
          "midi": 64,
          "time": 236.56515824998647,
          "velocity": 0.7086614173228346,
          "duration": 0.8641302187496365
        },
        {
          "name": "A3",
          "midi": 57,
          "time": 236.57602781248647,
          "velocity": 0.7086614173228346,
          "duration": 0.5434781249997513
        },
        {
          "name": "D3",
          "midi": 50,
          "time": 236.58146259373646,
          "velocity": 0.7401574803149606,
          "duration": 0.05434781249994103
        },
        {
          "name": "D4",
          "midi": 62,
          "time": 236.60320171873644,
          "velocity": 0.8267716535433071,
          "duration": 0.2880434062498409
        },
        {
          "name": "A3",
          "midi": 57,
          "time": 236.60320171873644,
          "velocity": 0.8267716535433071,
          "duration": 0.5489129062497398
        },
        {
          "name": "F#4",
          "midi": 66,
          "time": 236.60320171873644,
          "velocity": 0.7480314960629921,
          "duration": 0.5163042187497808
        },
        {
          "name": "D#3",
          "midi": 51,
          "time": 236.60320171873644,
          "velocity": 0.4566929133858268,
          "duration": 0.0054347812499884185
        },
        {
          "name": "D2",
          "midi": 38,
          "time": 236.60320171873644,
          "velocity": 0.7086614173228346,
          "duration": 0.15760865624991993
        },
        {
          "name": "A3",
          "midi": 57,
          "time": 236.60320171873644,
          "velocity": 0.7637795275590551,
          "duration": 0.586956374999744
        },
        {
          "name": "C2",
          "midi": 36,
          "time": 236.60863649998643,
          "velocity": 0.5984251968503937,
          "duration": 0.0054347812499884185
        },
        {
          "name": "D3",
          "midi": 50,
          "time": 236.60863649998643,
          "velocity": 0.7952755905511811,
          "duration": 0.7771737187497081
        },
        {
          "name": "F#4",
          "midi": 66,
          "time": 236.83146253123635,
          "velocity": 0.5118110236220472,
          "duration": 0.7771737187497649
        },
        {
          "name": "D4",
          "midi": 62,
          "time": 236.83689731248634,
          "velocity": 0.7952755905511811,
          "duration": 0.28260862499988093
        },
        {
          "name": "D2",
          "midi": 38,
          "time": 236.8640712187363,
          "velocity": 0.9133858267716536,
          "duration": 0.16304343749993677
        },
        {
          "name": "D4",
          "midi": 62,
          "time": 236.8640712187363,
          "velocity": 0.8503937007874016,
          "duration": 0.38586946874985983
        },
        {
          "name": "D#3",
          "midi": 51,
          "time": 236.8695059999863,
          "velocity": 0.7244094488188977,
          "duration": 0.0054347812499884185
        },
        {
          "name": "C2",
          "midi": 36,
          "time": 236.8695059999863,
          "velocity": 0.8661417322834646,
          "duration": 0.0054347812499884185
        },
        {
          "name": "E4",
          "midi": 64,
          "time": 237.07059290623624,
          "velocity": 0.5984251968503937,
          "duration": 0.39130424999984825
        },
        {
          "name": "A3",
          "midi": 57,
          "time": 237.09776681248624,
          "velocity": 0.7716535433070866,
          "duration": 0.09239128124994522
        },
        {
          "name": "E4",
          "midi": 64,
          "time": 237.10863637498622,
          "velocity": 0.7244094488188977,
          "duration": 0.4728259687499019
        },
        {
          "name": "D4",
          "midi": 62,
          "time": 237.1249407187362,
          "velocity": 0.7952755905511811,
          "duration": 0.2934781874999146
        },
        {
          "name": "F#4",
          "midi": 66,
          "time": 237.1249407187362,
          "velocity": 0.7480314960629921,
          "duration": 0.5217389999998829
        },
        {
          "name": "A3",
          "midi": 57,
          "time": 237.1249407187362,
          "velocity": 0.7952755905511811,
          "duration": 0.38586946874988826
        },
        {
          "name": "D#3",
          "midi": 51,
          "time": 237.1249407187362,
          "velocity": 0.36220472440944884,
          "duration": 0.0054347812499884185
        },
        {
          "name": "D2",
          "midi": 38,
          "time": 237.1249407187362,
          "velocity": 0.7795275590551181,
          "duration": 0.15760865624994835
        },
        {
          "name": "A3",
          "midi": 57,
          "time": 237.1249407187362,
          "velocity": 0.8267716535433071,
          "duration": 0.5163042187498945
        },
        {
          "name": "C2",
          "midi": 36,
          "time": 237.1303754999862,
          "velocity": 0.8661417322834646,
          "duration": 0.0054347812499884185
        },
        {
          "name": "A3",
          "midi": 57,
          "time": 237.35863631248617,
          "velocity": 0.6456692913385826,
          "duration": 0.29891296874990303
        },
        {
          "name": "D4",
          "midi": 62,
          "time": 237.36407109373616,
          "velocity": 0.5669291338582677,
          "duration": 0.2826086249999378
        },
        {
          "name": "D3",
          "midi": 50,
          "time": 237.36407109373616,
          "velocity": 0.7165354330708661,
          "duration": 0.05434781249996945
        },
        {
          "name": "E2",
          "midi": 40,
          "time": 237.37494065623616,
          "velocity": 0.6377952755905512,
          "duration": 0.0054347812499884185
        },
        {
          "name": "A3",
          "midi": 57,
          "time": 237.38037543748615,
          "velocity": 0.7480314960629921,
          "duration": 0.2934781874999146
        },
        {
          "name": "E2",
          "midi": 40,
          "time": 237.39124499998613,
          "velocity": 0.9291338582677166,
          "duration": 0.0054347812499884185
        },
        {
          "name": "D#3",
          "midi": 51,
          "time": 237.39124499998613,
          "velocity": 0.7244094488188977,
          "duration": 0.0054347812499884185
        },
        {
          "name": "D2",
          "midi": 38,
          "time": 237.39124499998613,
          "velocity": 0.8818897637795275,
          "duration": 0.16847821874998203
        },
        {
          "name": "D3",
          "midi": 50,
          "time": 237.39124499998613,
          "velocity": 0.7716535433070866,
          "duration": 0.25543471874996726
        },
        {
          "name": "D4",
          "midi": 62,
          "time": 237.39124499998613,
          "velocity": 0.6220472440944882,
          "duration": 0.3858694687499451
        },
        {
          "name": "A3",
          "midi": 57,
          "time": 237.61950581248612,
          "velocity": 0.7874015748031497,
          "duration": 0.27173906249996094
        },
        {
          "name": "E4",
          "midi": 64,
          "time": 237.6249405937361,
          "velocity": 0.5984251968503937,
          "duration": 0.41304337499997246
        },
        {
          "name": "E4",
          "midi": 64,
          "time": 237.6412449374861,
          "velocity": 0.7480314960629921,
          "duration": 2.32608637499996
        },
        {
          "name": "E4",
          "midi": 64,
          "time": 237.6466797187361,
          "velocity": 0.6850393700787402,
          "duration": 2.3369559374999653
        },
        {
          "name": "C#4",
          "midi": 61,
          "time": 237.6466797187361,
          "velocity": 0.6771653543307087,
          "duration": 0.39130424999999036
        },
        {
          "name": "A3",
          "midi": 57,
          "time": 237.6466797187361,
          "velocity": 0.6771653543307087,
          "duration": 0.39130424999999036
        },
        {
          "name": "A1",
          "midi": 33,
          "time": 237.6466797187361,
          "velocity": 0.8976377952755905,
          "duration": 2.3423907187499537
        },
        {
          "name": "A3",
          "midi": 57,
          "time": 237.6466797187361,
          "velocity": 0.84251968503937,
          "duration": 2.3152168124999832
        },
        {
          "name": "A3",
          "midi": 57,
          "time": 237.65211449998608,
          "velocity": 0.5826771653543307,
          "duration": 2.331521156249977
        },
        {
          "name": "C2",
          "midi": 36,
          "time": 237.65211449998608,
          "velocity": 0.8661417322834646,
          "duration": 0.0054347812499884185
        },
        {
          "name": "A2",
          "midi": 45,
          "time": 237.65211449998608,
          "velocity": 0.7716535433070866,
          "duration": 2.3423907187499537
        },
        {
          "name": "A4",
          "midi": 69,
          "time": 237.65211449998608,
          "velocity": 0.5984251968503937,
          "duration": 2.3423907187499537
        },
        {
          "name": "E4",
          "midi": 64,
          "time": 237.65211449998608,
          "velocity": 0.5984251968503937,
          "duration": 2.3423907187499537
        }
      ],
      "controlChanges": {
        "1": [
          {
            "number": 1,
            "time": 3.6576077812499985,
            "value": 0
          },
          {
            "number": 1,
            "time": 3.9239120624999986,
            "value": 0
          },
          {
            "number": 1,
            "time": 4.152172874999999,
            "value": 0
          },
          {
            "number": 1,
            "time": 4.179346781249999,
            "value": 0
          },
          {
            "number": 1,
            "time": 8.059780593749997,
            "value": 0
          },
          {
            "number": 1,
            "time": 19.309777781250062,
            "value": 0
          },
          {
            "number": 1,
            "time": 54.26629078125043,
            "value": 0
          },
          {
            "number": 1,
            "time": 87.41845640625122,
            "value": 0
          },
          {
            "number": 1,
            "time": 87.43476075000123,
            "value": 0
          },
          {
            "number": 1,
            "time": 87.91845628125128,
            "value": 0
          },
          {
            "number": 1,
            "time": 88.7064995625013,
            "value": 0
          },
          {
            "number": 1,
            "time": 88.72280390625131,
            "value": 0
          },
          {
            "number": 1,
            "time": 116.90757946875247,
            "value": 0
          },
          {
            "number": 1,
            "time": 126.02170762500265,
            "value": 0
          }
        ],
        "7": [
          {
            "number": 7,
            "time": 0.5380433437499998,
            "value": 0.7086614173228346
          },
          {
            "number": 7,
            "time": 0.5652172499999998,
            "value": 0.8267716535433071
          },
          {
            "number": 7,
            "time": 0.5923911562499997,
            "value": 0.5511811023622047
          },
          {
            "number": 7,
            "time": 0.6195650624999997,
            "value": 0.7874015748031497
          },
          {
            "number": 7,
            "time": 0.6467389687499996,
            "value": 0.6692913385826772
          },
          {
            "number": 7,
            "time": 0.6739128749999995,
            "value": 0.7874015748031497
          },
          {
            "number": 7,
            "time": 0.7010867812499995,
            "value": 0.7086614173228346
          },
          {
            "number": 7,
            "time": 0.7282606874999994,
            "value": 0.7086614173228346
          },
          {
            "number": 7,
            "time": 0.7554345937499993,
            "value": 0.6299212598425197
          },
          {
            "number": 7,
            "time": 0.7826084999999993,
            "value": 0.8267716535433071
          },
          {
            "number": 7,
            "time": 0.8097824062499992,
            "value": 0.5511811023622047
          },
          {
            "number": 7,
            "time": 0.8369563124999991,
            "value": 0.7480314960629921
          },
          {
            "number": 7,
            "time": 0.8641302187499991,
            "value": 0.7480314960629921
          },
          {
            "number": 7,
            "time": 0.891304124999999,
            "value": 0.5118110236220472
          }
        ],
        "10": [
          {
            "number": 10,
            "time": 0.5380433437499998,
            "value": 0.15748031496062992
          },
          {
            "number": 10,
            "time": 0.5652172499999998,
            "value": 0.5039370078740157
          },
          {
            "number": 10,
            "time": 0.5923911562499997,
            "value": 0.23622047244094488
          },
          {
            "number": 10,
            "time": 0.6195650624999997,
            "value": 0.5511811023622047
          },
          {
            "number": 10,
            "time": 0.6467389687499996,
            "value": 0.5669291338582677
          },
          {
            "number": 10,
            "time": 0.6739128749999995,
            "value": 0.5039370078740157
          },
          {
            "number": 10,
            "time": 0.7010867812499995,
            "value": 0.3937007874015748
          },
          {
            "number": 10,
            "time": 0.7282606874999994,
            "value": 0.8661417322834646
          },
          {
            "number": 10,
            "time": 0.7554345937499993,
            "value": 0.6299212598425197
          },
          {
            "number": 10,
            "time": 0.8097824062499992,
            "value": 0.8110236220472441
          },
          {
            "number": 10,
            "time": 0.8369563124999991,
            "value": 0.49606299212598426
          },
          {
            "number": 10,
            "time": 0.8641302187499991,
            "value": 0.7480314960629921
          },
          {
            "number": 10,
            "time": 0.891304124999999,
            "value": 0.3937007874015748
          }
        ],
        "11": [
          {
            "number": 11,
            "time": 0.5380433437499998,
            "value": 1
          },
          {
            "number": 11,
            "time": 0.5652172499999998,
            "value": 1
          },
          {
            "number": 11,
            "time": 0.5923911562499997,
            "value": 1
          },
          {
            "number": 11,
            "time": 0.6195650624999997,
            "value": 1
          },
          {
            "number": 11,
            "time": 0.6467389687499996,
            "value": 1
          },
          {
            "number": 11,
            "time": 0.6739128749999995,
            "value": 1
          },
          {
            "number": 11,
            "time": 0.7010867812499995,
            "value": 1
          },
          {
            "number": 11,
            "time": 0.7282606874999994,
            "value": 1
          },
          {
            "number": 11,
            "time": 0.7554345937499993,
            "value": 1
          },
          {
            "number": 11,
            "time": 0.7826084999999993,
            "value": 1
          },
          {
            "number": 11,
            "time": 0.8097824062499992,
            "value": 1
          },
          {
            "number": 11,
            "time": 0.8369563124999991,
            "value": 1
          },
          {
            "number": 11,
            "time": 0.8641302187499991,
            "value": 1
          },
          {
            "number": 11,
            "time": 0.891304124999999,
            "value": 1
          },
          {
            "number": 11,
            "time": 112.71736312500198,
            "value": 0.9763779527559056
          },
          {
            "number": 11,
            "time": 112.78258050000198,
            "value": 0.968503937007874
          },
          {
            "number": 11,
            "time": 112.82605875000199,
            "value": 0.9606299212598425
          },
          {
            "number": 11,
            "time": 112.869537000002,
            "value": 0.952755905511811
          },
          {
            "number": 11,
            "time": 112.913015250002,
            "value": 0.9448818897637795
          },
          {
            "number": 11,
            "time": 112.95649350000201,
            "value": 0.937007874015748
          },
          {
            "number": 11,
            "time": 112.99997175000202,
            "value": 0.9291338582677166
          },
          {
            "number": 11,
            "time": 113.04345000000203,
            "value": 0.9212598425196851
          },
          {
            "number": 11,
            "time": 113.08692825000203,
            "value": 0.9133858267716536
          },
          {
            "number": 11,
            "time": 113.13040650000202,
            "value": 0.905511811023622
          },
          {
            "number": 11,
            "time": 113.17388475000203,
            "value": 0.8976377952755905
          },
          {
            "number": 11,
            "time": 113.23910212500205,
            "value": 0.889763779527559
          },
          {
            "number": 11,
            "time": 113.28258037500206,
            "value": 0.8818897637795275
          },
          {
            "number": 11,
            "time": 113.32605862500206,
            "value": 0.8740157480314961
          },
          {
            "number": 11,
            "time": 113.36953687500207,
            "value": 0.8661417322834646
          },
          {
            "number": 11,
            "time": 113.41301512500208,
            "value": 0.8582677165354331
          },
          {
            "number": 11,
            "time": 113.45649337500208,
            "value": 0.8503937007874016
          },
          {
            "number": 11,
            "time": 113.4999716250021,
            "value": 0.84251968503937
          },
          {
            "number": 11,
            "time": 113.54344987500211,
            "value": 0.8346456692913385
          },
          {
            "number": 11,
            "time": 113.58692812500212,
            "value": 0.8267716535433071
          },
          {
            "number": 11,
            "time": 113.63040637500212,
            "value": 0.8188976377952756
          },
          {
            "number": 11,
            "time": 113.69562375000213,
            "value": 0.8110236220472441
          },
          {
            "number": 11,
            "time": 113.73910200000213,
            "value": 0.8031496062992126
          },
          {
            "number": 11,
            "time": 113.78258025000214,
            "value": 0.7952755905511811
          },
          {
            "number": 11,
            "time": 113.82605850000215,
            "value": 0.7874015748031497
          },
          {
            "number": 11,
            "time": 113.86953675000215,
            "value": 0.7795275590551181
          },
          {
            "number": 11,
            "time": 113.91301500000216,
            "value": 0.7716535433070866
          },
          {
            "number": 11,
            "time": 113.95649325000217,
            "value": 0.7637795275590551
          },
          {
            "number": 11,
            "time": 113.99997150000218,
            "value": 0.7559055118110236
          },
          {
            "number": 11,
            "time": 114.04344975000217,
            "value": 0.7480314960629921
          },
          {
            "number": 11,
            "time": 114.08692800000217,
            "value": 0.7401574803149606
          },
          {
            "number": 11,
            "time": 114.15214537500218,
            "value": 0.7322834645669292
          },
          {
            "number": 11,
            "time": 114.19562362500218,
            "value": 0.7244094488188977
          },
          {
            "number": 11,
            "time": 114.23910187500219,
            "value": 0.7165354330708661
          },
          {
            "number": 11,
            "time": 114.28258012500218,
            "value": 0.7086614173228346
          },
          {
            "number": 11,
            "time": 114.32605837500219,
            "value": 0.7007874015748031
          },
          {
            "number": 11,
            "time": 114.3695366250022,
            "value": 0.6929133858267716
          },
          {
            "number": 11,
            "time": 114.4130148750022,
            "value": 0.6850393700787402
          },
          {
            "number": 11,
            "time": 114.4564931250022,
            "value": 0.6771653543307087
          },
          {
            "number": 11,
            "time": 114.4999713750022,
            "value": 0.6692913385826772
          },
          {
            "number": 11,
            "time": 114.5434496250022,
            "value": 0.6614173228346457
          },
          {
            "number": 11,
            "time": 114.6086670000022,
            "value": 0.6535433070866141
          },
          {
            "number": 11,
            "time": 114.6521452500022,
            "value": 0.6456692913385826
          },
          {
            "number": 11,
            "time": 114.69562350000221,
            "value": 0.6377952755905512
          },
          {
            "number": 11,
            "time": 114.73910175000222,
            "value": 0.6299212598425197
          },
          {
            "number": 11,
            "time": 114.78258000000221,
            "value": 0.6220472440944882
          },
          {
            "number": 11,
            "time": 114.8260582500022,
            "value": 0.6141732283464567
          },
          {
            "number": 11,
            "time": 114.86953650000221,
            "value": 0.6062992125984252
          },
          {
            "number": 11,
            "time": 114.91301475000222,
            "value": 0.5984251968503937
          },
          {
            "number": 11,
            "time": 114.95649300000223,
            "value": 0.5905511811023622
          },
          {
            "number": 11,
            "time": 114.99997125000223,
            "value": 0.5826771653543307
          },
          {
            "number": 11,
            "time": 115.06518862500224,
            "value": 0.5748031496062992
          },
          {
            "number": 11,
            "time": 115.10866687500224,
            "value": 0.5669291338582677
          },
          {
            "number": 11,
            "time": 115.15214512500225,
            "value": 0.5590551181102362
          },
          {
            "number": 11,
            "time": 115.19562337500226,
            "value": 0.5511811023622047
          },
          {
            "number": 11,
            "time": 115.23910162500226,
            "value": 0.5433070866141733
          },
          {
            "number": 11,
            "time": 115.28257987500227,
            "value": 0.5354330708661418
          },
          {
            "number": 11,
            "time": 115.32605812500228,
            "value": 0.5275590551181102
          },
          {
            "number": 11,
            "time": 115.36953637500228,
            "value": 0.5196850393700787
          },
          {
            "number": 11,
            "time": 115.41301462500229,
            "value": 0.5118110236220472
          },
          {
            "number": 11,
            "time": 115.4564928750023,
            "value": 0.5039370078740157
          },
          {
            "number": 11,
            "time": 115.5217102500023,
            "value": 0.49606299212598426
          },
          {
            "number": 11,
            "time": 115.56518850000231,
            "value": 0.4881889763779528
          },
          {
            "number": 11,
            "time": 115.6086667500023,
            "value": 0.48031496062992124
          },
          {
            "number": 11,
            "time": 115.6521450000023,
            "value": 0.47244094488188976
          },
          {
            "number": 11,
            "time": 115.69562325000231,
            "value": 0.4645669291338583
          },
          {
            "number": 11,
            "time": 115.73910150000232,
            "value": 0.4566929133858268
          },
          {
            "number": 11,
            "time": 115.78257975000233,
            "value": 0.44881889763779526
          },
          {
            "number": 11,
            "time": 115.82605800000233,
            "value": 0.4409448818897638
          },
          {
            "number": 11,
            "time": 115.86953625000234,
            "value": 0.4330708661417323
          },
          {
            "number": 11,
            "time": 115.91301450000235,
            "value": 0.4251968503937008
          },
          {
            "number": 11,
            "time": 115.97823187500235,
            "value": 0.41732283464566927
          },
          {
            "number": 11,
            "time": 116.02171012500234,
            "value": 0.4094488188976378
          },
          {
            "number": 11,
            "time": 116.06518837500235,
            "value": 0.4015748031496063
          },
          {
            "number": 11,
            "time": 116.10866662500237,
            "value": 0.3937007874015748
          },
          {
            "number": 11,
            "time": 116.15214487500238,
            "value": 0.3858267716535433
          },
          {
            "number": 11,
            "time": 116.19562312500238,
            "value": 0.3779527559055118
          },
          {
            "number": 11,
            "time": 116.23910137500239,
            "value": 0.3700787401574803
          },
          {
            "number": 11,
            "time": 116.2825796250024,
            "value": 0.36220472440944884
          },
          {
            "number": 11,
            "time": 116.3260578750024,
            "value": 0.3543307086614173
          },
          {
            "number": 11,
            "time": 116.36953612500241,
            "value": 0.3464566929133858
          },
          {
            "number": 11,
            "time": 116.43475350000242,
            "value": 0.33858267716535434
          },
          {
            "number": 11,
            "time": 116.47823175000242,
            "value": 0.33070866141732286
          },
          {
            "number": 11,
            "time": 116.52171000000243,
            "value": 0.3228346456692913
          },
          {
            "number": 11,
            "time": 116.56518825000244,
            "value": 0.31496062992125984
          },
          {
            "number": 11,
            "time": 116.60866650000244,
            "value": 0.30708661417322836
          },
          {
            "number": 11,
            "time": 116.65214475000245,
            "value": 0.2992125984251969
          },
          {
            "number": 11,
            "time": 116.69562300000246,
            "value": 0.29133858267716534
          },
          {
            "number": 11,
            "time": 116.73910125000246,
            "value": 0.28346456692913385
          },
          {
            "number": 11,
            "time": 116.78257950000247,
            "value": 0.2755905511811024
          },
          {
            "number": 11,
            "time": 116.82605775000248,
            "value": 0.2677165354330709
          },
          {
            "number": 11,
            "time": 116.86953600000247,
            "value": 0.25984251968503935
          },
          {
            "number": 11,
            "time": 117.30431850000247,
            "value": 0.9921259842519685
          },
          {
            "number": 11,
            "time": 225.3640740937406,
            "value": 0.9921259842519685
          },
          {
            "number": 11,
            "time": 225.43472624999055,
            "value": 0.9921259842519685
          },
          {
            "number": 11,
            "time": 225.49450884374053,
            "value": 0.984251968503937
          },
          {
            "number": 11,
            "time": 225.55429143749055,
            "value": 0.9921259842519685
          },
          {
            "number": 11,
            "time": 225.55429143749055,
            "value": 0.9921259842519685
          },
          {
            "number": 11,
            "time": 225.56516099999055,
            "value": 0.984251968503937
          },
          {
            "number": 11,
            "time": 225.56516099999055,
            "value": 0.9921259842519685
          },
          {
            "number": 11,
            "time": 225.56516099999055,
            "value": 0.9921259842519685
          },
          {
            "number": 11,
            "time": 225.58146534374055,
            "value": 0.9763779527559056
          },
          {
            "number": 11,
            "time": 225.58146534374055,
            "value": 0.9921259842519685
          },
          {
            "number": 11,
            "time": 225.60863924999055,
            "value": 0.9921259842519685
          },
          {
            "number": 11,
            "time": 225.6412479374905,
            "value": 0.984251968503937
          },
          {
            "number": 11,
            "time": 225.6412479374905,
            "value": 0.984251968503937
          },
          {
            "number": 11,
            "time": 225.65211749999048,
            "value": 0.9763779527559056
          },
          {
            "number": 11,
            "time": 225.65211749999048,
            "value": 0.984251968503937
          },
          {
            "number": 11,
            "time": 225.65211749999048,
            "value": 0.984251968503937
          },
          {
            "number": 11,
            "time": 225.66842184374045,
            "value": 0.968503937007874
          },
          {
            "number": 11,
            "time": 225.66842184374045,
            "value": 0.984251968503937
          },
          {
            "number": 11,
            "time": 225.69559574999045,
            "value": 0.984251968503937
          },
          {
            "number": 11,
            "time": 225.72820443749043,
            "value": 0.9763779527559056
          },
          {
            "number": 11,
            "time": 225.72820443749043,
            "value": 0.9763779527559056
          },
          {
            "number": 11,
            "time": 225.73907399999044,
            "value": 0.968503937007874
          },
          {
            "number": 11,
            "time": 225.73907399999044,
            "value": 0.9763779527559056
          },
          {
            "number": 11,
            "time": 225.73907399999044,
            "value": 0.9763779527559056
          },
          {
            "number": 11,
            "time": 225.75537834374043,
            "value": 0.9606299212598425
          },
          {
            "number": 11,
            "time": 225.75537834374043,
            "value": 0.9763779527559056
          },
          {
            "number": 11,
            "time": 225.78255224999043,
            "value": 0.9763779527559056
          },
          {
            "number": 11,
            "time": 225.81516093749042,
            "value": 0.968503937007874
          },
          {
            "number": 11,
            "time": 225.81516093749042,
            "value": 0.968503937007874
          },
          {
            "number": 11,
            "time": 225.82603049999042,
            "value": 0.9606299212598425
          },
          {
            "number": 11,
            "time": 225.82603049999042,
            "value": 0.968503937007874
          },
          {
            "number": 11,
            "time": 225.82603049999042,
            "value": 0.968503937007874
          },
          {
            "number": 11,
            "time": 225.84233484374042,
            "value": 0.968503937007874
          },
          {
            "number": 11,
            "time": 225.86950874999042,
            "value": 0.968503937007874
          },
          {
            "number": 11,
            "time": 225.88581309374038,
            "value": 0.952755905511811
          },
          {
            "number": 11,
            "time": 225.90211743749038,
            "value": 0.9606299212598425
          },
          {
            "number": 11,
            "time": 225.90211743749038,
            "value": 0.9606299212598425
          },
          {
            "number": 11,
            "time": 225.91298699999035,
            "value": 0.952755905511811
          },
          {
            "number": 11,
            "time": 225.91298699999035,
            "value": 0.9606299212598425
          },
          {
            "number": 11,
            "time": 225.91298699999035,
            "value": 0.9606299212598425
          },
          {
            "number": 11,
            "time": 225.92929134374035,
            "value": 0.9606299212598425
          },
          {
            "number": 11,
            "time": 225.95646524999034,
            "value": 0.9606299212598425
          },
          {
            "number": 11,
            "time": 225.97276959374034,
            "value": 0.9448818897637795
          },
          {
            "number": 11,
            "time": 225.98907393749033,
            "value": 0.952755905511811
          },
          {
            "number": 11,
            "time": 226.03255218749032,
            "value": 0.952755905511811
          },
          {
            "number": 11,
            "time": 226.04342174999033,
            "value": 0.9448818897637795
          },
          {
            "number": 11,
            "time": 226.04342174999033,
            "value": 0.952755905511811
          },
          {
            "number": 11,
            "time": 226.04342174999033,
            "value": 0.952755905511811
          },
          {
            "number": 11,
            "time": 226.04342174999033,
            "value": 0.952755905511811
          },
          {
            "number": 11,
            "time": 226.05972609374032,
            "value": 0.937007874015748
          },
          {
            "number": 11,
            "time": 226.05972609374032,
            "value": 0.952755905511811
          },
          {
            "number": 11,
            "time": 226.11950868749034,
            "value": 0.9448818897637795
          },
          {
            "number": 11,
            "time": 226.11950868749034,
            "value": 0.9448818897637795
          },
          {
            "number": 11,
            "time": 226.13037824999034,
            "value": 0.937007874015748
          },
          {
            "number": 11,
            "time": 226.13037824999034,
            "value": 0.9448818897637795
          },
          {
            "number": 11,
            "time": 226.13037824999034,
            "value": 0.9448818897637795
          },
          {
            "number": 11,
            "time": 226.1466825937403,
            "value": 0.9291338582677166
          },
          {
            "number": 11,
            "time": 226.1466825937403,
            "value": 0.9448818897637795
          },
          {
            "number": 11,
            "time": 226.17385649999028,
            "value": 0.9448818897637795
          },
          {
            "number": 11,
            "time": 226.20646518749027,
            "value": 0.937007874015748
          },
          {
            "number": 11,
            "time": 226.20646518749027,
            "value": 0.937007874015748
          },
          {
            "number": 11,
            "time": 226.21733474999027,
            "value": 0.9291338582677166
          },
          {
            "number": 11,
            "time": 226.21733474999027,
            "value": 0.937007874015748
          },
          {
            "number": 11,
            "time": 226.21733474999027,
            "value": 0.937007874015748
          },
          {
            "number": 11,
            "time": 226.23363909374027,
            "value": 0.9212598425196851
          },
          {
            "number": 11,
            "time": 226.23363909374027,
            "value": 0.937007874015748
          },
          {
            "number": 11,
            "time": 226.26081299999026,
            "value": 0.937007874015748
          },
          {
            "number": 11,
            "time": 226.29342168749025,
            "value": 0.9291338582677166
          },
          {
            "number": 11,
            "time": 226.29342168749025,
            "value": 0.9291338582677166
          },
          {
            "number": 11,
            "time": 226.30429124999026,
            "value": 0.9212598425196851
          },
          {
            "number": 11,
            "time": 226.30429124999026,
            "value": 0.9291338582677166
          },
          {
            "number": 11,
            "time": 226.30429124999026,
            "value": 0.9291338582677166
          },
          {
            "number": 11,
            "time": 226.32059559374025,
            "value": 0.9291338582677166
          },
          {
            "number": 11,
            "time": 226.34776949999025,
            "value": 0.9291338582677166
          },
          {
            "number": 11,
            "time": 226.36407384374024,
            "value": 0.9133858267716536
          },
          {
            "number": 11,
            "time": 226.38037818749024,
            "value": 0.9212598425196851
          },
          {
            "number": 11,
            "time": 226.38037818749024,
            "value": 0.9212598425196851
          },
          {
            "number": 11,
            "time": 226.39124774999024,
            "value": 0.9133858267716536
          },
          {
            "number": 11,
            "time": 226.39124774999024,
            "value": 0.9212598425196851
          },
          {
            "number": 11,
            "time": 226.39124774999024,
            "value": 0.9212598425196851
          },
          {
            "number": 11,
            "time": 226.40755209374024,
            "value": 0.9212598425196851
          },
          {
            "number": 11,
            "time": 226.4347259999902,
            "value": 0.9212598425196851
          },
          {
            "number": 11,
            "time": 226.45103034374017,
            "value": 0.905511811023622
          },
          {
            "number": 11,
            "time": 226.46733468749017,
            "value": 0.9133858267716536
          },
          {
            "number": 11,
            "time": 226.47820424999017,
            "value": 0.9133858267716536
          },
          {
            "number": 11,
            "time": 226.47820424999017,
            "value": 0.9133858267716536
          },
          {
            "number": 11,
            "time": 226.49450859374016,
            "value": 0.9133858267716536
          },
          {
            "number": 11,
            "time": 226.51081293749016,
            "value": 0.9133858267716536
          },
          {
            "number": 11,
            "time": 226.52168249999016,
            "value": 0.905511811023622
          },
          {
            "number": 11,
            "time": 226.52168249999016,
            "value": 0.9133858267716536
          },
          {
            "number": 11,
            "time": 226.53798684374016,
            "value": 0.8976377952755905
          },
          {
            "number": 11,
            "time": 226.55429118749015,
            "value": 0.905511811023622
          },
          {
            "number": 11,
            "time": 226.59776943749014,
            "value": 0.905511811023622
          },
          {
            "number": 11,
            "time": 226.60863899999015,
            "value": 0.8976377952755905
          },
          {
            "number": 11,
            "time": 226.60863899999015,
            "value": 0.905511811023622
          },
          {
            "number": 11,
            "time": 226.60863899999015,
            "value": 0.905511811023622
          },
          {
            "number": 11,
            "time": 226.60863899999015,
            "value": 0.905511811023622
          },
          {
            "number": 11,
            "time": 226.62494334374014,
            "value": 0.889763779527559
          },
          {
            "number": 11,
            "time": 226.62494334374014,
            "value": 0.905511811023622
          },
          {
            "number": 11,
            "time": 226.68472593749013,
            "value": 0.8976377952755905
          },
          {
            "number": 11,
            "time": 226.68472593749013,
            "value": 0.8976377952755905
          },
          {
            "number": 11,
            "time": 226.6955954999901,
            "value": 0.889763779527559
          },
          {
            "number": 11,
            "time": 226.6955954999901,
            "value": 0.8976377952755905
          },
          {
            "number": 11,
            "time": 226.6955954999901,
            "value": 0.8976377952755905
          },
          {
            "number": 11,
            "time": 226.71189984374007,
            "value": 0.8818897637795275
          },
          {
            "number": 11,
            "time": 226.71189984374007,
            "value": 0.8976377952755905
          },
          {
            "number": 11,
            "time": 226.73907374999007,
            "value": 0.8976377952755905
          },
          {
            "number": 11,
            "time": 226.77168243749006,
            "value": 0.889763779527559
          },
          {
            "number": 11,
            "time": 226.77168243749006,
            "value": 0.889763779527559
          },
          {
            "number": 11,
            "time": 226.78255199999006,
            "value": 0.8818897637795275
          },
          {
            "number": 11,
            "time": 226.78255199999006,
            "value": 0.889763779527559
          },
          {
            "number": 11,
            "time": 226.78255199999006,
            "value": 0.889763779527559
          },
          {
            "number": 11,
            "time": 226.79885634374006,
            "value": 0.889763779527559
          },
          {
            "number": 11,
            "time": 226.82603024999005,
            "value": 0.889763779527559
          },
          {
            "number": 11,
            "time": 226.84233459374005,
            "value": 0.8740157480314961
          },
          {
            "number": 11,
            "time": 226.85863893749004,
            "value": 0.8818897637795275
          },
          {
            "number": 11,
            "time": 226.85863893749004,
            "value": 0.8818897637795275
          },
          {
            "number": 11,
            "time": 226.86950849999005,
            "value": 0.8740157480314961
          },
          {
            "number": 11,
            "time": 226.86950849999005,
            "value": 0.8818897637795275
          },
          {
            "number": 11,
            "time": 226.86950849999005,
            "value": 0.8818897637795275
          },
          {
            "number": 11,
            "time": 226.88581284374004,
            "value": 0.8818897637795275
          },
          {
            "number": 11,
            "time": 226.91298674999004,
            "value": 0.8818897637795275
          },
          {
            "number": 11,
            "time": 226.92929109374003,
            "value": 0.8661417322834646
          },
          {
            "number": 11,
            "time": 226.94559543749003,
            "value": 0.8740157480314961
          },
          {
            "number": 11,
            "time": 226.95646499999,
            "value": 0.8740157480314961
          },
          {
            "number": 11,
            "time": 226.95646499999,
            "value": 0.8740157480314961
          },
          {
            "number": 11,
            "time": 226.97276934374,
            "value": 0.8740157480314961
          },
          {
            "number": 11,
            "time": 226.98907368749,
            "value": 0.8740157480314961
          },
          {
            "number": 11,
            "time": 226.99994324999,
            "value": 0.8661417322834646
          },
          {
            "number": 11,
            "time": 226.99994324999,
            "value": 0.8740157480314961
          },
          {
            "number": 11,
            "time": 227.01624759374,
            "value": 0.8582677165354331
          },
          {
            "number": 11,
            "time": 227.03255193748998,
            "value": 0.8661417322834646
          },
          {
            "number": 11,
            "time": 227.04342149999,
            "value": 0.8661417322834646
          },
          {
            "number": 11,
            "time": 227.07603018748998,
            "value": 0.8661417322834646
          },
          {
            "number": 11,
            "time": 227.08689974998998,
            "value": 0.8582677165354331
          },
          {
            "number": 11,
            "time": 227.08689974998998,
            "value": 0.8661417322834646
          },
          {
            "number": 11,
            "time": 227.08689974998998,
            "value": 0.8661417322834646
          },
          {
            "number": 11,
            "time": 227.10320409373998,
            "value": 0.8503937007874016
          },
          {
            "number": 11,
            "time": 227.10320409373998,
            "value": 0.8661417322834646
          },
          {
            "number": 11,
            "time": 227.11950843748997,
            "value": 0.8582677165354331
          },
          {
            "number": 11,
            "time": 227.16298668749,
            "value": 0.8582677165354331
          },
          {
            "number": 11,
            "time": 227.17385624999,
            "value": 0.8503937007874016
          },
          {
            "number": 11,
            "time": 227.17385624999,
            "value": 0.8582677165354331
          },
          {
            "number": 11,
            "time": 227.17385624999,
            "value": 0.8582677165354331
          },
          {
            "number": 11,
            "time": 227.17385624999,
            "value": 0.8582677165354331
          },
          {
            "number": 11,
            "time": 227.19016059373996,
            "value": 0.84251968503937
          },
          {
            "number": 11,
            "time": 227.19016059373996,
            "value": 0.8582677165354331
          },
          {
            "number": 11,
            "time": 227.24994318748995,
            "value": 0.8503937007874016
          },
          {
            "number": 11,
            "time": 227.24994318748995,
            "value": 0.8503937007874016
          },
          {
            "number": 11,
            "time": 227.26081274998995,
            "value": 0.84251968503937
          },
          {
            "number": 11,
            "time": 227.26081274998995,
            "value": 0.8503937007874016
          },
          {
            "number": 11,
            "time": 227.26081274998995,
            "value": 0.8503937007874016
          },
          {
            "number": 11,
            "time": 227.26081274998995,
            "value": 0.8503937007874016
          },
          {
            "number": 11,
            "time": 227.27711709373995,
            "value": 0.8503937007874016
          },
          {
            "number": 11,
            "time": 227.32059534373994,
            "value": 0.8346456692913385
          },
          {
            "number": 11,
            "time": 227.33689968748993,
            "value": 0.84251968503937
          },
          {
            "number": 11,
            "time": 227.33689968748993,
            "value": 0.84251968503937
          },
          {
            "number": 11,
            "time": 227.34776924998994,
            "value": 0.8346456692913385
          },
          {
            "number": 11,
            "time": 227.34776924998994,
            "value": 0.84251968503937
          },
          {
            "number": 11,
            "time": 227.34776924998994,
            "value": 0.84251968503937
          },
          {
            "number": 11,
            "time": 227.36407359373993,
            "value": 0.84251968503937
          },
          {
            "number": 11,
            "time": 227.39124749998993,
            "value": 0.84251968503937
          },
          {
            "number": 11,
            "time": 227.40755184373992,
            "value": 0.8267716535433071
          },
          {
            "number": 11,
            "time": 227.42385618748992,
            "value": 0.8346456692913385
          },
          {
            "number": 11,
            "time": 227.42385618748992,
            "value": 0.8346456692913385
          },
          {
            "number": 11,
            "time": 227.4347257499899,
            "value": 0.8267716535433071
          },
          {
            "number": 11,
            "time": 227.4347257499899,
            "value": 0.8346456692913385
          },
          {
            "number": 11,
            "time": 227.4347257499899,
            "value": 0.8346456692913385
          },
          {
            "number": 11,
            "time": 227.4510300937399,
            "value": 0.8346456692913385
          },
          {
            "number": 11,
            "time": 227.47820399998986,
            "value": 0.8346456692913385
          },
          {
            "number": 11,
            "time": 227.49450834373985,
            "value": 0.8188976377952756
          },
          {
            "number": 11,
            "time": 227.51081268748985,
            "value": 0.8267716535433071
          },
          {
            "number": 11,
            "time": 227.52168224998985,
            "value": 0.8267716535433071
          },
          {
            "number": 11,
            "time": 227.52168224998985,
            "value": 0.8267716535433071
          },
          {
            "number": 11,
            "time": 227.53798659373984,
            "value": 0.8267716535433071
          },
          {
            "number": 11,
            "time": 227.55429093748984,
            "value": 0.8267716535433071
          },
          {
            "number": 11,
            "time": 227.56516049998984,
            "value": 0.8188976377952756
          },
          {
            "number": 11,
            "time": 227.56516049998984,
            "value": 0.8267716535433071
          },
          {
            "number": 11,
            "time": 227.58146484373984,
            "value": 0.8110236220472441
          },
          {
            "number": 11,
            "time": 227.59776918748983,
            "value": 0.8188976377952756
          },
          {
            "number": 11,
            "time": 227.6086387499898,
            "value": 0.8188976377952756
          },
          {
            "number": 11,
            "time": 227.6412474374898,
            "value": 0.8188976377952756
          },
          {
            "number": 11,
            "time": 227.65211699998977,
            "value": 0.8110236220472441
          },
          {
            "number": 11,
            "time": 227.65211699998977,
            "value": 0.8188976377952756
          },
          {
            "number": 11,
            "time": 227.65211699998977,
            "value": 0.8188976377952756
          },
          {
            "number": 11,
            "time": 227.66842134373977,
            "value": 0.8031496062992126
          },
          {
            "number": 11,
            "time": 227.66842134373977,
            "value": 0.8188976377952756
          },
          {
            "number": 11,
            "time": 227.68472568748976,
            "value": 0.8110236220472441
          },
          {
            "number": 11,
            "time": 227.72820393748975,
            "value": 0.8110236220472441
          },
          {
            "number": 11,
            "time": 227.73907349998973,
            "value": 0.8031496062992126
          },
          {
            "number": 11,
            "time": 227.73907349998973,
            "value": 0.8110236220472441
          },
          {
            "number": 11,
            "time": 227.73907349998973,
            "value": 0.8110236220472441
          },
          {
            "number": 11,
            "time": 227.73907349998973,
            "value": 0.8110236220472441
          },
          {
            "number": 11,
            "time": 227.7553778437397,
            "value": 0.8110236220472441
          },
          {
            "number": 11,
            "time": 227.7988560937397,
            "value": 0.7952755905511811
          },
          {
            "number": 11,
            "time": 227.81516043748968,
            "value": 0.8031496062992126
          },
          {
            "number": 11,
            "time": 227.81516043748968,
            "value": 0.8031496062992126
          },
          {
            "number": 11,
            "time": 227.8260299999897,
            "value": 0.7952755905511811
          },
          {
            "number": 11,
            "time": 227.8260299999897,
            "value": 0.8031496062992126
          },
          {
            "number": 11,
            "time": 227.8260299999897,
            "value": 0.8031496062992126
          },
          {
            "number": 11,
            "time": 227.8260299999897,
            "value": 0.8031496062992126
          },
          {
            "number": 11,
            "time": 227.84233434373968,
            "value": 0.8031496062992126
          },
          {
            "number": 11,
            "time": 227.88581259373967,
            "value": 0.7874015748031497
          },
          {
            "number": 11,
            "time": 227.90211693748967,
            "value": 0.7952755905511811
          },
          {
            "number": 11,
            "time": 227.90211693748967,
            "value": 0.7952755905511811
          },
          {
            "number": 11,
            "time": 227.91298649998967,
            "value": 0.7874015748031497
          },
          {
            "number": 11,
            "time": 227.91298649998967,
            "value": 0.7952755905511811
          },
          {
            "number": 11,
            "time": 227.91298649998967,
            "value": 0.7952755905511811
          },
          {
            "number": 11,
            "time": 227.92929084373966,
            "value": 0.7952755905511811
          },
          {
            "number": 11,
            "time": 227.95646474998966,
            "value": 0.7952755905511811
          },
          {
            "number": 11,
            "time": 227.97276909373963,
            "value": 0.7795275590551181
          },
          {
            "number": 11,
            "time": 227.9890734374896,
            "value": 0.7874015748031497
          },
          {
            "number": 11,
            "time": 227.99994299998957,
            "value": 0.7874015748031497
          },
          {
            "number": 11,
            "time": 227.99994299998957,
            "value": 0.7874015748031497
          },
          {
            "number": 11,
            "time": 228.01624734373954,
            "value": 0.7874015748031497
          },
          {
            "number": 11,
            "time": 228.03255168748953,
            "value": 0.7874015748031497
          },
          {
            "number": 11,
            "time": 228.04342124998954,
            "value": 0.7795275590551181
          },
          {
            "number": 11,
            "time": 228.04342124998954,
            "value": 0.7874015748031497
          },
          {
            "number": 11,
            "time": 228.0597255937395,
            "value": 0.7716535433070866
          },
          {
            "number": 11,
            "time": 228.0760299374895,
            "value": 0.7795275590551181
          },
          {
            "number": 11,
            "time": 228.0868994999895,
            "value": 0.7795275590551181
          },
          {
            "number": 11,
            "time": 228.1195081874895,
            "value": 0.7795275590551181
          },
          {
            "number": 11,
            "time": 228.1303777499895,
            "value": 0.7716535433070866
          },
          {
            "number": 11,
            "time": 228.1303777499895,
            "value": 0.7795275590551181
          },
          {
            "number": 11,
            "time": 228.1303777499895,
            "value": 0.7795275590551181
          },
          {
            "number": 11,
            "time": 228.14668209373949,
            "value": 0.7637795275590551
          },
          {
            "number": 11,
            "time": 228.14668209373949,
            "value": 0.7795275590551181
          },
          {
            "number": 11,
            "time": 228.16298643748948,
            "value": 0.7716535433070866
          },
          {
            "number": 11,
            "time": 228.20646468748947,
            "value": 0.7716535433070866
          },
          {
            "number": 11,
            "time": 228.21733424998948,
            "value": 0.7637795275590551
          },
          {
            "number": 11,
            "time": 228.21733424998948,
            "value": 0.7716535433070866
          },
          {
            "number": 11,
            "time": 228.21733424998948,
            "value": 0.7716535433070866
          },
          {
            "number": 11,
            "time": 228.21733424998948,
            "value": 0.7716535433070866
          },
          {
            "number": 11,
            "time": 228.23363859373944,
            "value": 0.7716535433070866
          },
          {
            "number": 11,
            "time": 228.24994293748944,
            "value": 0.7637795275590551
          },
          {
            "number": 11,
            "time": 228.2771168437394,
            "value": 0.7559055118110236
          },
          {
            "number": 11,
            "time": 228.29342118748937,
            "value": 0.7637795275590551
          },
          {
            "number": 11,
            "time": 228.30429074998938,
            "value": 0.7559055118110236
          },
          {
            "number": 11,
            "time": 228.30429074998938,
            "value": 0.7637795275590551
          },
          {
            "number": 11,
            "time": 228.30429074998938,
            "value": 0.7637795275590551
          },
          {
            "number": 11,
            "time": 228.30429074998938,
            "value": 0.7637795275590551
          },
          {
            "number": 11,
            "time": 228.32059509373937,
            "value": 0.7637795275590551
          },
          {
            "number": 11,
            "time": 228.36407334373936,
            "value": 0.7480314960629921
          },
          {
            "number": 11,
            "time": 228.38037768748936,
            "value": 0.7559055118110236
          },
          {
            "number": 11,
            "time": 228.38037768748936,
            "value": 0.7559055118110236
          },
          {
            "number": 11,
            "time": 228.39124724998936,
            "value": 0.7480314960629921
          },
          {
            "number": 11,
            "time": 228.39124724998936,
            "value": 0.7559055118110236
          },
          {
            "number": 11,
            "time": 228.39124724998936,
            "value": 0.7559055118110236
          },
          {
            "number": 11,
            "time": 228.39124724998936,
            "value": 0.7559055118110236
          },
          {
            "number": 11,
            "time": 228.40755159373936,
            "value": 0.7559055118110236
          },
          {
            "number": 11,
            "time": 228.45102984373935,
            "value": 0.7401574803149606
          },
          {
            "number": 11,
            "time": 228.46733418748934,
            "value": 0.7480314960629921
          },
          {
            "number": 11,
            "time": 228.47820374998935,
            "value": 0.7480314960629921
          },
          {
            "number": 11,
            "time": 228.47820374998935,
            "value": 0.7480314960629921
          },
          {
            "number": 11,
            "time": 228.49450809373934,
            "value": 0.7480314960629921
          },
          {
            "number": 11,
            "time": 228.51081243748934,
            "value": 0.7480314960629921
          },
          {
            "number": 11,
            "time": 228.5216819999893,
            "value": 0.7401574803149606
          },
          {
            "number": 11,
            "time": 228.5216819999893,
            "value": 0.7480314960629921
          },
          {
            "number": 11,
            "time": 228.5379863437393,
            "value": 0.7322834645669292
          },
          {
            "number": 11,
            "time": 228.5542906874893,
            "value": 0.7401574803149606
          },
          {
            "number": 11,
            "time": 228.5651602499893,
            "value": 0.7401574803149606
          },
          {
            "number": 11,
            "time": 228.5651602499893,
            "value": 0.7401574803149606
          },
          {
            "number": 11,
            "time": 228.5814645937393,
            "value": 0.7401574803149606
          },
          {
            "number": 11,
            "time": 228.5977689374893,
            "value": 0.7401574803149606
          },
          {
            "number": 11,
            "time": 228.60863849998927,
            "value": 0.7322834645669292
          },
          {
            "number": 11,
            "time": 228.60863849998927,
            "value": 0.7401574803149606
          },
          {
            "number": 11,
            "time": 228.64124718748926,
            "value": 0.7322834645669292
          },
          {
            "number": 11,
            "time": 228.65211674998926,
            "value": 0.7322834645669292
          },
          {
            "number": 11,
            "time": 228.66842109373925,
            "value": 0.7244094488188977
          },
          {
            "number": 11,
            "time": 228.68472543748925,
            "value": 0.7322834645669292
          },
          {
            "number": 11,
            "time": 228.69559499998925,
            "value": 0.7244094488188977
          },
          {
            "number": 11,
            "time": 228.69559499998925,
            "value": 0.7322834645669292
          },
          {
            "number": 11,
            "time": 228.69559499998925,
            "value": 0.7322834645669292
          },
          {
            "number": 11,
            "time": 228.71189934373925,
            "value": 0.7322834645669292
          },
          {
            "number": 11,
            "time": 228.72820368748924,
            "value": 0.7244094488188977
          },
          {
            "number": 11,
            "time": 228.7553775937392,
            "value": 0.7165354330708661
          },
          {
            "number": 11,
            "time": 228.7716819374892,
            "value": 0.7244094488188977
          },
          {
            "number": 11,
            "time": 228.78255149998918,
            "value": 0.7165354330708661
          },
          {
            "number": 11,
            "time": 228.78255149998918,
            "value": 0.7244094488188977
          },
          {
            "number": 11,
            "time": 228.78255149998918,
            "value": 0.7244094488188977
          },
          {
            "number": 11,
            "time": 228.78255149998918,
            "value": 0.7244094488188977
          },
          {
            "number": 11,
            "time": 228.79885584373918,
            "value": 0.7244094488188977
          },
          {
            "number": 11,
            "time": 228.81516018748917,
            "value": 0.7165354330708661
          },
          {
            "number": 11,
            "time": 228.84233409373917,
            "value": 0.7086614173228346
          },
          {
            "number": 11,
            "time": 228.85863843748916,
            "value": 0.7165354330708661
          },
          {
            "number": 11,
            "time": 228.86950799998917,
            "value": 0.7086614173228346
          },
          {
            "number": 11,
            "time": 228.86950799998917,
            "value": 0.7165354330708661
          },
          {
            "number": 11,
            "time": 228.86950799998917,
            "value": 0.7165354330708661
          },
          {
            "number": 11,
            "time": 228.86950799998917,
            "value": 0.7165354330708661
          },
          {
            "number": 11,
            "time": 228.88581234373916,
            "value": 0.7165354330708661
          },
          {
            "number": 11,
            "time": 228.92929059373915,
            "value": 0.7007874015748031
          },
          {
            "number": 11,
            "time": 228.94559493748915,
            "value": 0.7086614173228346
          },
          {
            "number": 11,
            "time": 228.94559493748915,
            "value": 0.7086614173228346
          },
          {
            "number": 11,
            "time": 228.95646449998915,
            "value": 0.7086614173228346
          },
          {
            "number": 11,
            "time": 228.95646449998915,
            "value": 0.7086614173228346
          },
          {
            "number": 11,
            "time": 228.95646449998915,
            "value": 0.7086614173228346
          },
          {
            "number": 11,
            "time": 228.97276884373915,
            "value": 0.7086614173228346
          },
          {
            "number": 11,
            "time": 228.99994274998915,
            "value": 0.7007874015748031
          },
          {
            "number": 11,
            "time": 229.01624709373914,
            "value": 0.6929133858267716
          },
          {
            "number": 11,
            "time": 229.03255143748913,
            "value": 0.7007874015748031
          },
          {
            "number": 11,
            "time": 229.0434209999891,
            "value": 0.7007874015748031
          },
          {
            "number": 11,
            "time": 229.0434209999891,
            "value": 0.7007874015748031
          },
          {
            "number": 11,
            "time": 229.0434209999891,
            "value": 0.7007874015748031
          },
          {
            "number": 11,
            "time": 229.0597253437391,
            "value": 0.7007874015748031
          },
          {
            "number": 11,
            "time": 229.07602968748907,
            "value": 0.7007874015748031
          },
          {
            "number": 11,
            "time": 229.08689924998907,
            "value": 0.6929133858267716
          },
          {
            "number": 11,
            "time": 229.11950793748906,
            "value": 0.6929133858267716
          },
          {
            "number": 11,
            "time": 229.13037749998907,
            "value": 0.6929133858267716
          },
          {
            "number": 11,
            "time": 229.14668184373906,
            "value": 0.6850393700787402
          },
          {
            "number": 11,
            "time": 229.16298618748905,
            "value": 0.6929133858267716
          },
          {
            "number": 11,
            "time": 229.17385574998906,
            "value": 0.6850393700787402
          },
          {
            "number": 11,
            "time": 229.17385574998906,
            "value": 0.6929133858267716
          },
          {
            "number": 11,
            "time": 229.17385574998906,
            "value": 0.6929133858267716
          },
          {
            "number": 11,
            "time": 229.19016009373905,
            "value": 0.6929133858267716
          },
          {
            "number": 11,
            "time": 229.20646443748905,
            "value": 0.6850393700787402
          },
          {
            "number": 11,
            "time": 229.21733399998905,
            "value": 0.6850393700787402
          },
          {
            "number": 11,
            "time": 229.23363834373905,
            "value": 0.6771653543307087
          },
          {
            "number": 11,
            "time": 229.24994268748904,
            "value": 0.6850393700787402
          },
          {
            "number": 11,
            "time": 229.26081224998902,
            "value": 0.6771653543307087
          },
          {
            "number": 11,
            "time": 229.26081224998902,
            "value": 0.6850393700787402
          },
          {
            "number": 11,
            "time": 229.26081224998902,
            "value": 0.6850393700787402
          },
          {
            "number": 11,
            "time": 229.27711659373898,
            "value": 0.6850393700787402
          },
          {
            "number": 11,
            "time": 229.29342093748897,
            "value": 0.6771653543307087
          },
          {
            "number": 11,
            "time": 229.32059484373897,
            "value": 0.6692913385826772
          },
          {
            "number": 11,
            "time": 229.33689918748897,
            "value": 0.6771653543307087
          },
          {
            "number": 11,
            "time": 229.34776874998897,
            "value": 0.6692913385826772
          },
          {
            "number": 11,
            "time": 229.34776874998897,
            "value": 0.6771653543307087
          },
          {
            "number": 11,
            "time": 229.34776874998897,
            "value": 0.6771653543307087
          },
          {
            "number": 11,
            "time": 229.34776874998897,
            "value": 0.6771653543307087
          },
          {
            "number": 11,
            "time": 229.36407309373897,
            "value": 0.6771653543307087
          },
          {
            "number": 11,
            "time": 229.38037743748896,
            "value": 0.6692913385826772
          },
          {
            "number": 11,
            "time": 229.40755134373896,
            "value": 0.6614173228346457
          },
          {
            "number": 11,
            "time": 229.42385568748895,
            "value": 0.6692913385826772
          },
          {
            "number": 11,
            "time": 229.43472524998893,
            "value": 0.6614173228346457
          },
          {
            "number": 11,
            "time": 229.43472524998893,
            "value": 0.6692913385826772
          },
          {
            "number": 11,
            "time": 229.43472524998893,
            "value": 0.6692913385826772
          },
          {
            "number": 11,
            "time": 229.43472524998893,
            "value": 0.6692913385826772
          },
          {
            "number": 11,
            "time": 229.45102959373892,
            "value": 0.6692913385826772
          },
          {
            "number": 11,
            "time": 229.49450784373894,
            "value": 0.6535433070866141
          },
          {
            "number": 11,
            "time": 229.51081218748894,
            "value": 0.6614173228346457
          },
          {
            "number": 11,
            "time": 229.52168174998894,
            "value": 0.6614173228346457
          },
          {
            "number": 11,
            "time": 229.52168174998894,
            "value": 0.6614173228346457
          },
          {
            "number": 11,
            "time": 229.52168174998894,
            "value": 0.6614173228346457
          },
          {
            "number": 11,
            "time": 229.53798609373894,
            "value": 0.6614173228346457
          },
          {
            "number": 11,
            "time": 229.55429043748893,
            "value": 0.6614173228346457
          },
          {
            "number": 11,
            "time": 229.5651599999889,
            "value": 0.6535433070866141
          },
          {
            "number": 11,
            "time": 229.5977686874889,
            "value": 0.6535433070866141
          },
          {
            "number": 11,
            "time": 229.6086382499889,
            "value": 0.6535433070866141
          },
          {
            "number": 11,
            "time": 229.6086382499889,
            "value": 0.6535433070866141
          },
          {
            "number": 11,
            "time": 229.6086382499889,
            "value": 0.6535433070866141
          },
          {
            "number": 11,
            "time": 229.6249425937389,
            "value": 0.6456692913385826
          },
          {
            "number": 11,
            "time": 229.6249425937389,
            "value": 0.6535433070866141
          },
          {
            "number": 11,
            "time": 229.6412469374889,
            "value": 0.6535433070866141
          },
          {
            "number": 11,
            "time": 229.6521164999889,
            "value": 0.6456692913385826
          },
          {
            "number": 11,
            "time": 229.68472518748888,
            "value": 0.6456692913385826
          },
          {
            "number": 11,
            "time": 229.69559474998886,
            "value": 0.6456692913385826
          },
          {
            "number": 11,
            "time": 229.71189909373885,
            "value": 0.6377952755905512
          },
          {
            "number": 11,
            "time": 229.72820343748884,
            "value": 0.6456692913385826
          },
          {
            "number": 11,
            "time": 229.73907299998885,
            "value": 0.6377952755905512
          },
          {
            "number": 11,
            "time": 229.73907299998885,
            "value": 0.6456692913385826
          },
          {
            "number": 11,
            "time": 229.73907299998885,
            "value": 0.6456692913385826
          },
          {
            "number": 11,
            "time": 229.75537734373884,
            "value": 0.6456692913385826
          },
          {
            "number": 11,
            "time": 229.77168168748884,
            "value": 0.6377952755905512
          },
          {
            "number": 11,
            "time": 229.78255124998884,
            "value": 0.6377952755905512
          },
          {
            "number": 11,
            "time": 229.79885559373884,
            "value": 0.6299212598425197
          },
          {
            "number": 11,
            "time": 229.81515993748883,
            "value": 0.6377952755905512
          },
          {
            "number": 11,
            "time": 229.8260294999888,
            "value": 0.6299212598425197
          },
          {
            "number": 11,
            "time": 229.8260294999888,
            "value": 0.6377952755905512
          },
          {
            "number": 11,
            "time": 229.8260294999888,
            "value": 0.6377952755905512
          },
          {
            "number": 11,
            "time": 229.84233384373877,
            "value": 0.6377952755905512
          },
          {
            "number": 11,
            "time": 229.85863818748876,
            "value": 0.6299212598425197
          },
          {
            "number": 11,
            "time": 229.88581209373876,
            "value": 0.6220472440944882
          },
          {
            "number": 11,
            "time": 229.90211643748876,
            "value": 0.6299212598425197
          },
          {
            "number": 11,
            "time": 229.91298599998876,
            "value": 0.6220472440944882
          },
          {
            "number": 11,
            "time": 229.91298599998876,
            "value": 0.6299212598425197
          },
          {
            "number": 11,
            "time": 229.91298599998876,
            "value": 0.6299212598425197
          },
          {
            "number": 11,
            "time": 229.91298599998876,
            "value": 0.6299212598425197
          },
          {
            "number": 11,
            "time": 229.92929034373876,
            "value": 0.6299212598425197
          },
          {
            "number": 11,
            "time": 229.94559468748875,
            "value": 0.6220472440944882
          },
          {
            "number": 11,
            "time": 229.97276859373875,
            "value": 0.6141732283464567
          },
          {
            "number": 11,
            "time": 229.99994249998875,
            "value": 0.6220472440944882
          },
          {
            "number": 11,
            "time": 229.99994249998875,
            "value": 0.6220472440944882
          },
          {
            "number": 11,
            "time": 229.99994249998875,
            "value": 0.6220472440944882
          },
          {
            "number": 11,
            "time": 230.01624684373874,
            "value": 0.6220472440944882
          },
          {
            "number": 11,
            "time": 230.03255118748874,
            "value": 0.6220472440944882
          },
          {
            "number": 11,
            "time": 230.04342074998874,
            "value": 0.6141732283464567
          },
          {
            "number": 11,
            "time": 230.07602943748873,
            "value": 0.6141732283464567
          },
          {
            "number": 11,
            "time": 230.0868989999887,
            "value": 0.6141732283464567
          },
          {
            "number": 11,
            "time": 230.0868989999887,
            "value": 0.6141732283464567
          },
          {
            "number": 11,
            "time": 230.0868989999887,
            "value": 0.6141732283464567
          },
          {
            "number": 11,
            "time": 230.10320334373867,
            "value": 0.6062992125984252
          },
          {
            "number": 11,
            "time": 230.10320334373867,
            "value": 0.6141732283464567
          },
          {
            "number": 11,
            "time": 230.11950768748866,
            "value": 0.6141732283464567
          },
          {
            "number": 11,
            "time": 230.13037724998867,
            "value": 0.6062992125984252
          },
          {
            "number": 11,
            "time": 230.16298593748866,
            "value": 0.6062992125984252
          },
          {
            "number": 11,
            "time": 230.17385549998866,
            "value": 0.6062992125984252
          },
          {
            "number": 11,
            "time": 230.17385549998866,
            "value": 0.6062992125984252
          },
          {
            "number": 11,
            "time": 230.19015984373866,
            "value": 0.5984251968503937
          },
          {
            "number": 11,
            "time": 230.20646418748865,
            "value": 0.6062992125984252
          },
          {
            "number": 11,
            "time": 230.21733374998865,
            "value": 0.5984251968503937
          },
          {
            "number": 11,
            "time": 230.21733374998865,
            "value": 0.6062992125984252
          },
          {
            "number": 11,
            "time": 230.23363809373865,
            "value": 0.6062992125984252
          },
          {
            "number": 11,
            "time": 230.24994243748864,
            "value": 0.5984251968503937
          },
          {
            "number": 11,
            "time": 230.26081199998865,
            "value": 0.5984251968503937
          },
          {
            "number": 11,
            "time": 230.27711634373864,
            "value": 0.5905511811023622
          },
          {
            "number": 11,
            "time": 230.29342068748863,
            "value": 0.5984251968503937
          },
          {
            "number": 11,
            "time": 230.30429024998864,
            "value": 0.5905511811023622
          },
          {
            "number": 11,
            "time": 230.30429024998864,
            "value": 0.5984251968503937
          },
          {
            "number": 11,
            "time": 230.30429024998864,
            "value": 0.5984251968503937
          },
          {
            "number": 11,
            "time": 230.32059459373863,
            "value": 0.5984251968503937
          },
          {
            "number": 11,
            "time": 230.33689893748863,
            "value": 0.5905511811023622
          },
          {
            "number": 11,
            "time": 230.36407284373857,
            "value": 0.5826771653543307
          },
          {
            "number": 11,
            "time": 230.38037718748856,
            "value": 0.5905511811023622
          },
          {
            "number": 11,
            "time": 230.39124674998857,
            "value": 0.5826771653543307
          },
          {
            "number": 11,
            "time": 230.39124674998857,
            "value": 0.5905511811023622
          },
          {
            "number": 11,
            "time": 230.39124674998857,
            "value": 0.5905511811023622
          },
          {
            "number": 11,
            "time": 230.39124674998857,
            "value": 0.5905511811023622
          },
          {
            "number": 11,
            "time": 230.40755109373856,
            "value": 0.5905511811023622
          },
          {
            "number": 11,
            "time": 230.42385543748856,
            "value": 0.5826771653543307
          },
          {
            "number": 11,
            "time": 230.45102934373855,
            "value": 0.5748031496062992
          },
          {
            "number": 11,
            "time": 230.47820324998855,
            "value": 0.5826771653543307
          },
          {
            "number": 11,
            "time": 230.47820324998855,
            "value": 0.5826771653543307
          },
          {
            "number": 11,
            "time": 230.47820324998855,
            "value": 0.5826771653543307
          },
          {
            "number": 11,
            "time": 230.49450759373855,
            "value": 0.5826771653543307
          },
          {
            "number": 11,
            "time": 230.51081193748854,
            "value": 0.5748031496062992
          },
          {
            "number": 11,
            "time": 230.51081193748854,
            "value": 0.5826771653543307
          },
          {
            "number": 11,
            "time": 230.52168149998855,
            "value": 0.5748031496062992
          },
          {
            "number": 11,
            "time": 230.56515974998854,
            "value": 0.5748031496062992
          },
          {
            "number": 11,
            "time": 230.56515974998854,
            "value": 0.5748031496062992
          },
          {
            "number": 11,
            "time": 230.56515974998854,
            "value": 0.5748031496062992
          },
          {
            "number": 11,
            "time": 230.58146409373853,
            "value": 0.5669291338582677
          },
          {
            "number": 11,
            "time": 230.58146409373853,
            "value": 0.5748031496062992
          },
          {
            "number": 11,
            "time": 230.59776843748853,
            "value": 0.5748031496062992
          },
          {
            "number": 11,
            "time": 230.6086379999885,
            "value": 0.5669291338582677
          },
          {
            "number": 11,
            "time": 230.6412466874885,
            "value": 0.5669291338582677
          },
          {
            "number": 11,
            "time": 230.6521162499885,
            "value": 0.5669291338582677
          },
          {
            "number": 11,
            "time": 230.6521162499885,
            "value": 0.5669291338582677
          },
          {
            "number": 11,
            "time": 230.6521162499885,
            "value": 0.5669291338582677
          },
          {
            "number": 11,
            "time": 230.6684205937385,
            "value": 0.5590551181102362
          },
          {
            "number": 11,
            "time": 230.6684205937385,
            "value": 0.5669291338582677
          },
          {
            "number": 11,
            "time": 230.68472493748848,
            "value": 0.5669291338582677
          },
          {
            "number": 11,
            "time": 230.6955944999885,
            "value": 0.5590551181102362
          },
          {
            "number": 11,
            "time": 230.72820318748848,
            "value": 0.5590551181102362
          },
          {
            "number": 11,
            "time": 230.73907274998848,
            "value": 0.5590551181102362
          },
          {
            "number": 11,
            "time": 230.73907274998848,
            "value": 0.5590551181102362
          },
          {
            "number": 11,
            "time": 230.75537709373847,
            "value": 0.5511811023622047
          },
          {
            "number": 11,
            "time": 230.77168143748847,
            "value": 0.5590551181102362
          },
          {
            "number": 11,
            "time": 230.78255099998847,
            "value": 0.5511811023622047
          },
          {
            "number": 11,
            "time": 230.78255099998847,
            "value": 0.5590551181102362
          },
          {
            "number": 11,
            "time": 230.79885534373847,
            "value": 0.5590551181102362
          },
          {
            "number": 11,
            "time": 230.81515968748846,
            "value": 0.5511811023622047
          },
          {
            "number": 11,
            "time": 230.82602924998847,
            "value": 0.5511811023622047
          },
          {
            "number": 11,
            "time": 230.82602924998847,
            "value": 0.5511811023622047
          },
          {
            "number": 11,
            "time": 230.84233359373843,
            "value": 0.5433070866141733
          },
          {
            "number": 11,
            "time": 230.85863793748842,
            "value": 0.5511811023622047
          },
          {
            "number": 11,
            "time": 230.8695074999884,
            "value": 0.5433070866141733
          },
          {
            "number": 11,
            "time": 230.8695074999884,
            "value": 0.5511811023622047
          },
          {
            "number": 11,
            "time": 230.8858118437384,
            "value": 0.5511811023622047
          },
          {
            "number": 11,
            "time": 230.9021161874884,
            "value": 0.5433070866141733
          },
          {
            "number": 11,
            "time": 230.9292900937384,
            "value": 0.5354330708661418
          },
          {
            "number": 11,
            "time": 230.94559443748838,
            "value": 0.5433070866141733
          },
          {
            "number": 11,
            "time": 230.9564639999884,
            "value": 0.5433070866141733
          },
          {
            "number": 11,
            "time": 230.9564639999884,
            "value": 0.5433070866141733
          },
          {
            "number": 11,
            "time": 230.9564639999884,
            "value": 0.5433070866141733
          },
          {
            "number": 11,
            "time": 230.97276834373838,
            "value": 0.5433070866141733
          },
          {
            "number": 11,
            "time": 230.98907268748837,
            "value": 0.5354330708661418
          },
          {
            "number": 11,
            "time": 230.99994224998838,
            "value": 0.5354330708661418
          },
          {
            "number": 11,
            "time": 231.04342049998837,
            "value": 0.5354330708661418
          },
          {
            "number": 11,
            "time": 231.04342049998837,
            "value": 0.5354330708661418
          },
          {
            "number": 11,
            "time": 231.04342049998837,
            "value": 0.5354330708661418
          },
          {
            "number": 11,
            "time": 231.05972484373837,
            "value": 0.5275590551181102
          },
          {
            "number": 11,
            "time": 231.05972484373837,
            "value": 0.5354330708661418
          },
          {
            "number": 11,
            "time": 231.07602918748836,
            "value": 0.5275590551181102
          },
          {
            "number": 11,
            "time": 231.07602918748836,
            "value": 0.5354330708661418
          },
          {
            "number": 11,
            "time": 231.08689874998836,
            "value": 0.5275590551181102
          },
          {
            "number": 11,
            "time": 231.13037699998833,
            "value": 0.5275590551181102
          },
          {
            "number": 11,
            "time": 231.13037699998833,
            "value": 0.5275590551181102
          },
          {
            "number": 11,
            "time": 231.13037699998833,
            "value": 0.5275590551181102
          },
          {
            "number": 11,
            "time": 231.14668134373832,
            "value": 0.5196850393700787
          },
          {
            "number": 11,
            "time": 231.14668134373832,
            "value": 0.5275590551181102
          },
          {
            "number": 11,
            "time": 231.16298568748832,
            "value": 0.5275590551181102
          },
          {
            "number": 11,
            "time": 231.17385524998832,
            "value": 0.5196850393700787
          },
          {
            "number": 11,
            "time": 231.2064639374883,
            "value": 0.5196850393700787
          },
          {
            "number": 11,
            "time": 231.2173334999883,
            "value": 0.5196850393700787
          },
          {
            "number": 11,
            "time": 231.2173334999883,
            "value": 0.5196850393700787
          },
          {
            "number": 11,
            "time": 231.2336378437383,
            "value": 0.5118110236220472
          },
          {
            "number": 11,
            "time": 231.2499421874883,
            "value": 0.5196850393700787
          },
          {
            "number": 11,
            "time": 231.2608117499883,
            "value": 0.5118110236220472
          },
          {
            "number": 11,
            "time": 231.2608117499883,
            "value": 0.5196850393700787
          },
          {
            "number": 11,
            "time": 231.2771160937383,
            "value": 0.5196850393700787
          },
          {
            "number": 11,
            "time": 231.2934204374883,
            "value": 0.5118110236220472
          },
          {
            "number": 11,
            "time": 231.30428999998827,
            "value": 0.5118110236220472
          },
          {
            "number": 11,
            "time": 231.30428999998827,
            "value": 0.5118110236220472
          },
          {
            "number": 11,
            "time": 231.32059434373826,
            "value": 0.5039370078740157
          },
          {
            "number": 11,
            "time": 231.33689868748826,
            "value": 0.5118110236220472
          },
          {
            "number": 11,
            "time": 231.34776824998826,
            "value": 0.5039370078740157
          },
          {
            "number": 11,
            "time": 231.34776824998826,
            "value": 0.5118110236220472
          },
          {
            "number": 11,
            "time": 231.36407259373823,
            "value": 0.5118110236220472
          },
          {
            "number": 11,
            "time": 231.38037693748822,
            "value": 0.5039370078740157
          },
          {
            "number": 11,
            "time": 231.3912464999882,
            "value": 0.5039370078740157
          },
          {
            "number": 11,
            "time": 231.3912464999882,
            "value": 0.5039370078740157
          },
          {
            "number": 11,
            "time": 231.4075508437382,
            "value": 0.49606299212598426
          },
          {
            "number": 11,
            "time": 231.4238551874882,
            "value": 0.5039370078740157
          },
          {
            "number": 11,
            "time": 231.4347247499882,
            "value": 0.49606299212598426
          },
          {
            "number": 11,
            "time": 231.4347247499882,
            "value": 0.5039370078740157
          },
          {
            "number": 11,
            "time": 231.45102909373819,
            "value": 0.5039370078740157
          },
          {
            "number": 11,
            "time": 231.46733343748818,
            "value": 0.49606299212598426
          },
          {
            "number": 11,
            "time": 231.52168124998818,
            "value": 0.49606299212598426
          },
          {
            "number": 11,
            "time": 231.52168124998818,
            "value": 0.49606299212598426
          },
          {
            "number": 11,
            "time": 231.52168124998818,
            "value": 0.49606299212598426
          },
          {
            "number": 11,
            "time": 231.53798559373817,
            "value": 0.4881889763779528
          },
          {
            "number": 11,
            "time": 231.53798559373817,
            "value": 0.49606299212598426
          },
          {
            "number": 11,
            "time": 231.55428993748816,
            "value": 0.4881889763779528
          },
          {
            "number": 11,
            "time": 231.55428993748816,
            "value": 0.49606299212598426
          },
          {
            "number": 11,
            "time": 231.56515949998817,
            "value": 0.4881889763779528
          },
          {
            "number": 11,
            "time": 231.60863774998816,
            "value": 0.4881889763779528
          },
          {
            "number": 11,
            "time": 231.60863774998816,
            "value": 0.4881889763779528
          },
          {
            "number": 11,
            "time": 231.60863774998816,
            "value": 0.4881889763779528
          },
          {
            "number": 11,
            "time": 231.62494209373816,
            "value": 0.48031496062992124
          },
          {
            "number": 11,
            "time": 231.62494209373816,
            "value": 0.4881889763779528
          },
          {
            "number": 11,
            "time": 231.64124643748815,
            "value": 0.48031496062992124
          },
          {
            "number": 11,
            "time": 231.64124643748815,
            "value": 0.4881889763779528
          },
          {
            "number": 11,
            "time": 231.65211599998813,
            "value": 0.48031496062992124
          },
          {
            "number": 11,
            "time": 231.69559424998812,
            "value": 0.48031496062992124
          },
          {
            "number": 11,
            "time": 231.69559424998812,
            "value": 0.48031496062992124
          },
          {
            "number": 11,
            "time": 231.69559424998812,
            "value": 0.48031496062992124
          },
          {
            "number": 11,
            "time": 231.7118985937381,
            "value": 0.47244094488188976
          },
          {
            "number": 11,
            "time": 231.7118985937381,
            "value": 0.48031496062992124
          },
          {
            "number": 11,
            "time": 231.7282029374881,
            "value": 0.48031496062992124
          },
          {
            "number": 11,
            "time": 231.7390724999881,
            "value": 0.47244094488188976
          },
          {
            "number": 11,
            "time": 231.7716811874881,
            "value": 0.47244094488188976
          },
          {
            "number": 11,
            "time": 231.78255074998808,
            "value": 0.47244094488188976
          },
          {
            "number": 11,
            "time": 231.78255074998808,
            "value": 0.47244094488188976
          },
          {
            "number": 11,
            "time": 231.79885509373807,
            "value": 0.4645669291338583
          },
          {
            "number": 11,
            "time": 231.81515943748806,
            "value": 0.47244094488188976
          },
          {
            "number": 11,
            "time": 231.82602899998807,
            "value": 0.4645669291338583
          },
          {
            "number": 11,
            "time": 231.82602899998807,
            "value": 0.47244094488188976
          },
          {
            "number": 11,
            "time": 231.84233334373806,
            "value": 0.47244094488188976
          },
          {
            "number": 11,
            "time": 231.85863768748806,
            "value": 0.4645669291338583
          },
          {
            "number": 11,
            "time": 231.86950724998806,
            "value": 0.4645669291338583
          },
          {
            "number": 11,
            "time": 231.86950724998806,
            "value": 0.4645669291338583
          },
          {
            "number": 11,
            "time": 231.90211593748802,
            "value": 0.4645669291338583
          },
          {
            "number": 11,
            "time": 231.912985499988,
            "value": 0.4566929133858268
          },
          {
            "number": 11,
            "time": 231.912985499988,
            "value": 0.4645669291338583
          },
          {
            "number": 11,
            "time": 231.929289843738,
            "value": 0.4566929133858268
          },
          {
            "number": 11,
            "time": 231.929289843738,
            "value": 0.4645669291338583
          },
          {
            "number": 11,
            "time": 231.94559418748798,
            "value": 0.4566929133858268
          },
          {
            "number": 11,
            "time": 231.956463749988,
            "value": 0.4566929133858268
          },
          {
            "number": 11,
            "time": 231.956463749988,
            "value": 0.4566929133858268
          },
          {
            "number": 11,
            "time": 231.999941999988,
            "value": 0.4566929133858268
          },
          {
            "number": 11,
            "time": 232.016246343738,
            "value": 0.44881889763779526
          },
          {
            "number": 11,
            "time": 232.016246343738,
            "value": 0.4566929133858268
          },
          {
            "number": 11,
            "time": 232.032550687488,
            "value": 0.44881889763779526
          },
          {
            "number": 11,
            "time": 232.032550687488,
            "value": 0.4566929133858268
          },
          {
            "number": 11,
            "time": 232.043420249988,
            "value": 0.44881889763779526
          },
          {
            "number": 11,
            "time": 232.086898499988,
            "value": 0.44881889763779526
          },
          {
            "number": 11,
            "time": 232.086898499988,
            "value": 0.44881889763779526
          },
          {
            "number": 11,
            "time": 232.086898499988,
            "value": 0.44881889763779526
          },
          {
            "number": 11,
            "time": 232.103202843738,
            "value": 0.4409448818897638
          },
          {
            "number": 11,
            "time": 232.103202843738,
            "value": 0.44881889763779526
          },
          {
            "number": 11,
            "time": 232.11950718748798,
            "value": 0.4409448818897638
          },
          {
            "number": 11,
            "time": 232.11950718748798,
            "value": 0.44881889763779526
          },
          {
            "number": 11,
            "time": 232.130376749988,
            "value": 0.4409448818897638
          },
          {
            "number": 11,
            "time": 232.17385499998798,
            "value": 0.4409448818897638
          },
          {
            "number": 11,
            "time": 232.17385499998798,
            "value": 0.4409448818897638
          },
          {
            "number": 11,
            "time": 232.17385499998798,
            "value": 0.4409448818897638
          },
          {
            "number": 11,
            "time": 232.19015934373797,
            "value": 0.4330708661417323
          },
          {
            "number": 11,
            "time": 232.19015934373797,
            "value": 0.4409448818897638
          },
          {
            "number": 11,
            "time": 232.20646368748797,
            "value": 0.4330708661417323
          },
          {
            "number": 11,
            "time": 232.20646368748797,
            "value": 0.4409448818897638
          },
          {
            "number": 11,
            "time": 232.21733324998797,
            "value": 0.4330708661417323
          },
          {
            "number": 11,
            "time": 232.26081149998797,
            "value": 0.4330708661417323
          },
          {
            "number": 11,
            "time": 232.26081149998797,
            "value": 0.4330708661417323
          },
          {
            "number": 11,
            "time": 232.27711584373796,
            "value": 0.4251968503937008
          },
          {
            "number": 11,
            "time": 232.29342018748795,
            "value": 0.4330708661417323
          },
          {
            "number": 11,
            "time": 232.30428974998796,
            "value": 0.4251968503937008
          },
          {
            "number": 11,
            "time": 232.30428974998796,
            "value": 0.4330708661417323
          },
          {
            "number": 11,
            "time": 232.32059409373795,
            "value": 0.4330708661417323
          },
          {
            "number": 11,
            "time": 232.33689843748795,
            "value": 0.4251968503937008
          },
          {
            "number": 11,
            "time": 232.34776799998792,
            "value": 0.4251968503937008
          },
          {
            "number": 11,
            "time": 232.34776799998792,
            "value": 0.4251968503937008
          },
          {
            "number": 11,
            "time": 232.3803766874879,
            "value": 0.4251968503937008
          },
          {
            "number": 11,
            "time": 232.3912462499879,
            "value": 0.41732283464566927
          },
          {
            "number": 11,
            "time": 232.3912462499879,
            "value": 0.4251968503937008
          },
          {
            "number": 11,
            "time": 232.40755059373788,
            "value": 0.41732283464566927
          },
          {
            "number": 11,
            "time": 232.40755059373788,
            "value": 0.4251968503937008
          },
          {
            "number": 11,
            "time": 232.42385493748787,
            "value": 0.41732283464566927
          },
          {
            "number": 11,
            "time": 232.43472449998785,
            "value": 0.41732283464566927
          },
          {
            "number": 11,
            "time": 232.43472449998785,
            "value": 0.41732283464566927
          },
          {
            "number": 11,
            "time": 232.46733318748784,
            "value": 0.41732283464566927
          },
          {
            "number": 11,
            "time": 232.47820274998784,
            "value": 0.41732283464566927
          },
          {
            "number": 11,
            "time": 232.49450709373784,
            "value": 0.4094488188976378
          },
          {
            "number": 11,
            "time": 232.49450709373784,
            "value": 0.41732283464566927
          },
          {
            "number": 11,
            "time": 232.51081143748783,
            "value": 0.4094488188976378
          },
          {
            "number": 11,
            "time": 232.52168099998784,
            "value": 0.4094488188976378
          },
          {
            "number": 11,
            "time": 232.52168099998784,
            "value": 0.4094488188976378
          },
          {
            "number": 11,
            "time": 232.52168099998784,
            "value": 0.4094488188976378
          },
          {
            "number": 11,
            "time": 232.56515924998783,
            "value": 0.4094488188976378
          },
          {
            "number": 11,
            "time": 232.58146359373782,
            "value": 0.4015748031496063
          },
          {
            "number": 11,
            "time": 232.58146359373782,
            "value": 0.4094488188976378
          },
          {
            "number": 11,
            "time": 232.59776793748782,
            "value": 0.4015748031496063
          },
          {
            "number": 11,
            "time": 232.59776793748782,
            "value": 0.4094488188976378
          },
          {
            "number": 11,
            "time": 232.60863749998782,
            "value": 0.4015748031496063
          },
          {
            "number": 11,
            "time": 232.60863749998782,
            "value": 0.4015748031496063
          },
          {
            "number": 11,
            "time": 232.65211574998781,
            "value": 0.4015748031496063
          },
          {
            "number": 11,
            "time": 232.65211574998781,
            "value": 0.4015748031496063
          },
          {
            "number": 11,
            "time": 232.6684200937378,
            "value": 0.3937007874015748
          },
          {
            "number": 11,
            "time": 232.6684200937378,
            "value": 0.4015748031496063
          },
          {
            "number": 11,
            "time": 232.6847244374878,
            "value": 0.3937007874015748
          },
          {
            "number": 11,
            "time": 232.6847244374878,
            "value": 0.4015748031496063
          },
          {
            "number": 11,
            "time": 232.69559399998778,
            "value": 0.3937007874015748
          },
          {
            "number": 11,
            "time": 232.73907224998777,
            "value": 0.3937007874015748
          },
          {
            "number": 11,
            "time": 232.73907224998777,
            "value": 0.3937007874015748
          },
          {
            "number": 11,
            "time": 232.73907224998777,
            "value": 0.3937007874015748
          },
          {
            "number": 11,
            "time": 232.75537659373776,
            "value": 0.3858267716535433
          },
          {
            "number": 11,
            "time": 232.75537659373776,
            "value": 0.3937007874015748
          },
          {
            "number": 11,
            "time": 232.77168093748776,
            "value": 0.3858267716535433
          },
          {
            "number": 11,
            "time": 232.77168093748776,
            "value": 0.3937007874015748
          },
          {
            "number": 11,
            "time": 232.78255049998776,
            "value": 0.3858267716535433
          },
          {
            "number": 11,
            "time": 232.82602874998776,
            "value": 0.3858267716535433
          },
          {
            "number": 11,
            "time": 232.82602874998776,
            "value": 0.3858267716535433
          },
          {
            "number": 11,
            "time": 232.85863743748774,
            "value": 0.3858267716535433
          },
          {
            "number": 11,
            "time": 232.86950699998772,
            "value": 0.3779527559055118
          },
          {
            "number": 11,
            "time": 232.86950699998772,
            "value": 0.3858267716535433
          },
          {
            "number": 11,
            "time": 232.8858113437377,
            "value": 0.3779527559055118
          },
          {
            "number": 11,
            "time": 232.8858113437377,
            "value": 0.3858267716535433
          },
          {
            "number": 11,
            "time": 232.9021156874877,
            "value": 0.3779527559055118
          },
          {
            "number": 11,
            "time": 232.9129852499877,
            "value": 0.3779527559055118
          },
          {
            "number": 11,
            "time": 232.9129852499877,
            "value": 0.3779527559055118
          },
          {
            "number": 11,
            "time": 232.9455939374877,
            "value": 0.3779527559055118
          },
          {
            "number": 11,
            "time": 232.95646349998768,
            "value": 0.3779527559055118
          },
          {
            "number": 11,
            "time": 232.97276784373764,
            "value": 0.3700787401574803
          },
          {
            "number": 11,
            "time": 232.97276784373764,
            "value": 0.3779527559055118
          },
          {
            "number": 11,
            "time": 232.98907218748764,
            "value": 0.3700787401574803
          },
          {
            "number": 11,
            "time": 232.9999417499876,
            "value": 0.3700787401574803
          },
          {
            "number": 11,
            "time": 232.9999417499876,
            "value": 0.3700787401574803
          },
          {
            "number": 11,
            "time": 232.9999417499876,
            "value": 0.3700787401574803
          },
          {
            "number": 11,
            "time": 233.0434199999876,
            "value": 0.3700787401574803
          },
          {
            "number": 11,
            "time": 233.0597243437376,
            "value": 0.36220472440944884
          },
          {
            "number": 11,
            "time": 233.0597243437376,
            "value": 0.3700787401574803
          },
          {
            "number": 11,
            "time": 233.0760286874876,
            "value": 0.36220472440944884
          },
          {
            "number": 11,
            "time": 233.0760286874876,
            "value": 0.3700787401574803
          },
          {
            "number": 11,
            "time": 233.08689824998757,
            "value": 0.36220472440944884
          },
          {
            "number": 11,
            "time": 233.08689824998757,
            "value": 0.36220472440944884
          },
          {
            "number": 11,
            "time": 233.13037649998756,
            "value": 0.36220472440944884
          },
          {
            "number": 11,
            "time": 233.13037649998756,
            "value": 0.36220472440944884
          },
          {
            "number": 11,
            "time": 233.14668084373756,
            "value": 0.3543307086614173
          },
          {
            "number": 11,
            "time": 233.14668084373756,
            "value": 0.36220472440944884
          },
          {
            "number": 11,
            "time": 233.16298518748755,
            "value": 0.3543307086614173
          },
          {
            "number": 11,
            "time": 233.16298518748755,
            "value": 0.36220472440944884
          },
          {
            "number": 11,
            "time": 233.17385474998756,
            "value": 0.3543307086614173
          },
          {
            "number": 11,
            "time": 233.17385474998756,
            "value": 0.3543307086614173
          },
          {
            "number": 11,
            "time": 233.21733299998755,
            "value": 0.3543307086614173
          },
          {
            "number": 11,
            "time": 233.21733299998755,
            "value": 0.3543307086614173
          },
          {
            "number": 11,
            "time": 233.2336373437375,
            "value": 0.3464566929133858
          },
          {
            "number": 11,
            "time": 233.2336373437375,
            "value": 0.3543307086614173
          },
          {
            "number": 11,
            "time": 233.2499416874875,
            "value": 0.3464566929133858
          },
          {
            "number": 11,
            "time": 233.2499416874875,
            "value": 0.3543307086614173
          },
          {
            "number": 11,
            "time": 233.26081124998748,
            "value": 0.3464566929133858
          },
          {
            "number": 11,
            "time": 233.30428949998748,
            "value": 0.3464566929133858
          },
          {
            "number": 11,
            "time": 233.30428949998748,
            "value": 0.3464566929133858
          },
          {
            "number": 11,
            "time": 233.33689818748746,
            "value": 0.33858267716535434
          },
          {
            "number": 11,
            "time": 233.33689818748746,
            "value": 0.3464566929133858
          },
          {
            "number": 11,
            "time": 233.34776774998747,
            "value": 0.33858267716535434
          },
          {
            "number": 11,
            "time": 233.34776774998747,
            "value": 0.3464566929133858
          },
          {
            "number": 11,
            "time": 233.36407209373746,
            "value": 0.33858267716535434
          },
          {
            "number": 11,
            "time": 233.36407209373746,
            "value": 0.3464566929133858
          },
          {
            "number": 11,
            "time": 233.39124599998746,
            "value": 0.33858267716535434
          },
          {
            "number": 11,
            "time": 233.39124599998746,
            "value": 0.33858267716535434
          },
          {
            "number": 11,
            "time": 233.42385468748745,
            "value": 0.33858267716535434
          },
          {
            "number": 11,
            "time": 233.43472424998745,
            "value": 0.33070866141732286
          },
          {
            "number": 11,
            "time": 233.43472424998745,
            "value": 0.33858267716535434
          },
          {
            "number": 11,
            "time": 233.45102859373745,
            "value": 0.33070866141732286
          },
          {
            "number": 11,
            "time": 233.45102859373745,
            "value": 0.33858267716535434
          },
          {
            "number": 11,
            "time": 233.46733293748744,
            "value": 0.33070866141732286
          },
          {
            "number": 11,
            "time": 233.47820249998742,
            "value": 0.33070866141732286
          },
          {
            "number": 11,
            "time": 233.47820249998742,
            "value": 0.33070866141732286
          },
          {
            "number": 11,
            "time": 233.5216807499874,
            "value": 0.33070866141732286
          },
          {
            "number": 11,
            "time": 233.5379850937374,
            "value": 0.3228346456692913
          },
          {
            "number": 11,
            "time": 233.5379850937374,
            "value": 0.33070866141732286
          },
          {
            "number": 11,
            "time": 233.5542894374874,
            "value": 0.3228346456692913
          },
          {
            "number": 11,
            "time": 233.5542894374874,
            "value": 0.33070866141732286
          },
          {
            "number": 11,
            "time": 233.5651589999874,
            "value": 0.3228346456692913
          },
          {
            "number": 11,
            "time": 233.5651589999874,
            "value": 0.3228346456692913
          },
          {
            "number": 11,
            "time": 233.5651589999874,
            "value": 0.3228346456692913
          },
          {
            "number": 11,
            "time": 233.6086372499874,
            "value": 0.3228346456692913
          },
          {
            "number": 11,
            "time": 233.6249415937374,
            "value": 0.31496062992125984
          },
          {
            "number": 11,
            "time": 233.6249415937374,
            "value": 0.3228346456692913
          },
          {
            "number": 11,
            "time": 233.64124593748738,
            "value": 0.31496062992125984
          },
          {
            "number": 11,
            "time": 233.64124593748738,
            "value": 0.3228346456692913
          },
          {
            "number": 11,
            "time": 233.65211549998736,
            "value": 0.31496062992125984
          },
          {
            "number": 11,
            "time": 233.65211549998736,
            "value": 0.31496062992125984
          },
          {
            "number": 11,
            "time": 233.69559374998738,
            "value": 0.31496062992125984
          },
          {
            "number": 11,
            "time": 233.69559374998738,
            "value": 0.31496062992125984
          },
          {
            "number": 11,
            "time": 233.71189809373737,
            "value": 0.30708661417322836
          },
          {
            "number": 11,
            "time": 233.71189809373737,
            "value": 0.31496062992125984
          },
          {
            "number": 11,
            "time": 233.72820243748737,
            "value": 0.30708661417322836
          },
          {
            "number": 11,
            "time": 233.72820243748737,
            "value": 0.31496062992125984
          },
          {
            "number": 11,
            "time": 233.73907199998735,
            "value": 0.30708661417322836
          },
          {
            "number": 11,
            "time": 233.73907199998735,
            "value": 0.30708661417322836
          },
          {
            "number": 11,
            "time": 233.7825502499873,
            "value": 0.30708661417322836
          },
          {
            "number": 11,
            "time": 233.7825502499873,
            "value": 0.30708661417322836
          },
          {
            "number": 11,
            "time": 233.7988545937373,
            "value": 0.30708661417322836
          },
          {
            "number": 11,
            "time": 233.8151589374873,
            "value": 0.2992125984251969
          },
          {
            "number": 11,
            "time": 233.8151589374873,
            "value": 0.30708661417322836
          },
          {
            "number": 11,
            "time": 233.8260284999873,
            "value": 0.2992125984251969
          },
          {
            "number": 11,
            "time": 233.8423328437373,
            "value": 0.2992125984251969
          },
          {
            "number": 11,
            "time": 233.8695067499873,
            "value": 0.2992125984251969
          },
          {
            "number": 11,
            "time": 233.8695067499873,
            "value": 0.2992125984251969
          },
          {
            "number": 11,
            "time": 233.90211543748728,
            "value": 0.29133858267716534
          },
          {
            "number": 11,
            "time": 233.90211543748728,
            "value": 0.2992125984251969
          },
          {
            "number": 11,
            "time": 233.9129849999873,
            "value": 0.29133858267716534
          },
          {
            "number": 11,
            "time": 233.9129849999873,
            "value": 0.2992125984251969
          },
          {
            "number": 11,
            "time": 233.92928934373728,
            "value": 0.29133858267716534
          },
          {
            "number": 11,
            "time": 233.92928934373728,
            "value": 0.2992125984251969
          },
          {
            "number": 11,
            "time": 233.95646324998728,
            "value": 0.29133858267716534
          },
          {
            "number": 11,
            "time": 233.95646324998728,
            "value": 0.29133858267716534
          },
          {
            "number": 11,
            "time": 233.99994149998727,
            "value": 0.29133858267716534
          },
          {
            "number": 11,
            "time": 234.01624584373724,
            "value": 0.28346456692913385
          },
          {
            "number": 11,
            "time": 234.01624584373724,
            "value": 0.29133858267716534
          },
          {
            "number": 11,
            "time": 234.03255018748723,
            "value": 0.28346456692913385
          },
          {
            "number": 11,
            "time": 234.03255018748723,
            "value": 0.29133858267716534
          },
          {
            "number": 11,
            "time": 234.04341974998724,
            "value": 0.28346456692913385
          },
          {
            "number": 11,
            "time": 234.04341974998724,
            "value": 0.28346456692913385
          },
          {
            "number": 11,
            "time": 234.04341974998724,
            "value": 0.28346456692913385
          },
          {
            "number": 11,
            "time": 234.08689799998723,
            "value": 0.28346456692913385
          },
          {
            "number": 11,
            "time": 234.10320234373722,
            "value": 0.2755905511811024
          },
          {
            "number": 11,
            "time": 234.10320234373722,
            "value": 0.28346456692913385
          },
          {
            "number": 11,
            "time": 234.11950668748722,
            "value": 0.2755905511811024
          },
          {
            "number": 11,
            "time": 234.11950668748722,
            "value": 0.28346456692913385
          },
          {
            "number": 11,
            "time": 234.1303762499872,
            "value": 0.2755905511811024
          },
          {
            "number": 11,
            "time": 234.1303762499872,
            "value": 0.2755905511811024
          },
          {
            "number": 11,
            "time": 234.1303762499872,
            "value": 0.2755905511811024
          },
          {
            "number": 11,
            "time": 234.1738544999872,
            "value": 0.2755905511811024
          },
          {
            "number": 11,
            "time": 234.19015884373718,
            "value": 0.2677165354330709
          },
          {
            "number": 11,
            "time": 234.19015884373718,
            "value": 0.2755905511811024
          },
          {
            "number": 11,
            "time": 234.20646318748717,
            "value": 0.2677165354330709
          },
          {
            "number": 11,
            "time": 234.20646318748717,
            "value": 0.2755905511811024
          },
          {
            "number": 11,
            "time": 234.21733274998718,
            "value": 0.2677165354330709
          },
          {
            "number": 11,
            "time": 234.21733274998718,
            "value": 0.2677165354330709
          },
          {
            "number": 11,
            "time": 234.26081099998714,
            "value": 0.2677165354330709
          },
          {
            "number": 11,
            "time": 234.26081099998714,
            "value": 0.2677165354330709
          },
          {
            "number": 11,
            "time": 234.27711534373714,
            "value": 0.2677165354330709
          },
          {
            "number": 11,
            "time": 234.29341968748713,
            "value": 0.25984251968503935
          },
          {
            "number": 11,
            "time": 234.29341968748713,
            "value": 0.2677165354330709
          },
          {
            "number": 11,
            "time": 234.30428924998714,
            "value": 0.25984251968503935
          },
          {
            "number": 11,
            "time": 234.30428924998714,
            "value": 0.25984251968503935
          },
          {
            "number": 11,
            "time": 234.32059359373713,
            "value": 0.25984251968503935
          },
          {
            "number": 11,
            "time": 234.34776749998713,
            "value": 0.25984251968503935
          },
          {
            "number": 11,
            "time": 234.38037618748712,
            "value": 0.25196850393700787
          },
          {
            "number": 11,
            "time": 234.38037618748712,
            "value": 0.25984251968503935
          },
          {
            "number": 11,
            "time": 234.39124574998712,
            "value": 0.25196850393700787
          },
          {
            "number": 11,
            "time": 234.39124574998712,
            "value": 0.25196850393700787
          },
          {
            "number": 11,
            "time": 234.39124574998712,
            "value": 0.25984251968503935
          },
          {
            "number": 11,
            "time": 234.40755009373711,
            "value": 0.25196850393700787
          },
          {
            "number": 11,
            "time": 234.40755009373711,
            "value": 0.25984251968503935
          },
          {
            "number": 11,
            "time": 234.4347239999871,
            "value": 0.25196850393700787
          },
          {
            "number": 11,
            "time": 234.4673326874871,
            "value": 0.2440944881889764
          },
          {
            "number": 11,
            "time": 234.4673326874871,
            "value": 0.25196850393700787
          },
          {
            "number": 11,
            "time": 234.4782022499871,
            "value": 0.25196850393700787
          },
          {
            "number": 11,
            "time": 234.4945065937371,
            "value": 0.2440944881889764
          },
          {
            "number": 11,
            "time": 234.4945065937371,
            "value": 0.25196850393700787
          },
          {
            "number": 11,
            "time": 234.52168049998707,
            "value": 0.2440944881889764
          },
          {
            "number": 11,
            "time": 234.52168049998707,
            "value": 0.2440944881889764
          },
          {
            "number": 11,
            "time": 234.52168049998707,
            "value": 0.2440944881889764
          },
          {
            "number": 11,
            "time": 234.56515874998706,
            "value": 0.2440944881889764
          },
          {
            "number": 11,
            "time": 234.58146309373706,
            "value": 0.23622047244094488
          },
          {
            "number": 11,
            "time": 234.58146309373706,
            "value": 0.2440944881889764
          },
          {
            "number": 11,
            "time": 234.59776743748705,
            "value": 0.23622047244094488
          },
          {
            "number": 11,
            "time": 234.59776743748705,
            "value": 0.2440944881889764
          },
          {
            "number": 11,
            "time": 234.60863699998706,
            "value": 0.23622047244094488
          },
          {
            "number": 11,
            "time": 234.60863699998706,
            "value": 0.23622047244094488
          },
          {
            "number": 11,
            "time": 234.60863699998706,
            "value": 0.23622047244094488
          },
          {
            "number": 11,
            "time": 234.65211524998705,
            "value": 0.23622047244094488
          },
          {
            "number": 11,
            "time": 234.66841959373704,
            "value": 0.23622047244094488
          },
          {
            "number": 11,
            "time": 234.68472393748704,
            "value": 0.2283464566929134
          },
          {
            "number": 11,
            "time": 234.68472393748704,
            "value": 0.23622047244094488
          },
          {
            "number": 11,
            "time": 234.69559349998704,
            "value": 0.2283464566929134
          },
          {
            "number": 11,
            "time": 234.69559349998704,
            "value": 0.2283464566929134
          },
          {
            "number": 11,
            "time": 234.69559349998704,
            "value": 0.2283464566929134
          },
          {
            "number": 11,
            "time": 234.71189784373703,
            "value": 0.2283464566929134
          },
          {
            "number": 11,
            "time": 234.73907174998703,
            "value": 0.2283464566929134
          },
          {
            "number": 11,
            "time": 234.75537609373703,
            "value": 0.2283464566929134
          },
          {
            "number": 11,
            "time": 234.77168043748702,
            "value": 0.2204724409448819
          },
          {
            "number": 11,
            "time": 234.77168043748702,
            "value": 0.2283464566929134
          },
          {
            "number": 11,
            "time": 234.782549999987,
            "value": 0.2204724409448819
          },
          {
            "number": 11,
            "time": 234.782549999987,
            "value": 0.2204724409448819
          },
          {
            "number": 11,
            "time": 234.79885434373696,
            "value": 0.2204724409448819
          },
          {
            "number": 11,
            "time": 234.82602824998696,
            "value": 0.2204724409448819
          },
          {
            "number": 11,
            "time": 234.82602824998696,
            "value": 0.2204724409448819
          },
          {
            "number": 11,
            "time": 234.84233259373696,
            "value": 0.2204724409448819
          },
          {
            "number": 11,
            "time": 234.85863693748695,
            "value": 0.2125984251968504
          },
          {
            "number": 11,
            "time": 234.85863693748695,
            "value": 0.2204724409448819
          },
          {
            "number": 11,
            "time": 234.86950649998695,
            "value": 0.2125984251968504
          },
          {
            "number": 11,
            "time": 234.86950649998695,
            "value": 0.2125984251968504
          },
          {
            "number": 11,
            "time": 234.88581084373695,
            "value": 0.2125984251968504
          },
          {
            "number": 11,
            "time": 234.91298474998695,
            "value": 0.2125984251968504
          },
          {
            "number": 11,
            "time": 234.94559343748696,
            "value": 0.2047244094488189
          },
          {
            "number": 11,
            "time": 234.94559343748696,
            "value": 0.2125984251968504
          },
          {
            "number": 11,
            "time": 234.95646299998697,
            "value": 0.2047244094488189
          },
          {
            "number": 11,
            "time": 234.95646299998697,
            "value": 0.2125984251968504
          },
          {
            "number": 11,
            "time": 234.97276734373696,
            "value": 0.2047244094488189
          },
          {
            "number": 11,
            "time": 234.97276734373696,
            "value": 0.2125984251968504
          },
          {
            "number": 11,
            "time": 234.99994124998696,
            "value": 0.2047244094488189
          },
          {
            "number": 11,
            "time": 234.99994124998696,
            "value": 0.2047244094488189
          },
          {
            "number": 11,
            "time": 235.03254993748698,
            "value": 0.1968503937007874
          },
          {
            "number": 11,
            "time": 235.04341949998695,
            "value": 0.2047244094488189
          },
          {
            "number": 11,
            "time": 235.05972384373692,
            "value": 0.1968503937007874
          },
          {
            "number": 11,
            "time": 235.05972384373692,
            "value": 0.2047244094488189
          },
          {
            "number": 11,
            "time": 235.0760281874869,
            "value": 0.2047244094488189
          },
          {
            "number": 11,
            "time": 235.08689774998692,
            "value": 0.1968503937007874
          },
          {
            "number": 11,
            "time": 235.08689774998692,
            "value": 0.1968503937007874
          },
          {
            "number": 11,
            "time": 235.08689774998692,
            "value": 0.1968503937007874
          },
          {
            "number": 11,
            "time": 235.13037599998694,
            "value": 0.1968503937007874
          },
          {
            "number": 11,
            "time": 235.14668034373693,
            "value": 0.1968503937007874
          },
          {
            "number": 11,
            "time": 235.16298468748693,
            "value": 0.1889763779527559
          },
          {
            "number": 11,
            "time": 235.16298468748693,
            "value": 0.1968503937007874
          },
          {
            "number": 11,
            "time": 235.17385424998693,
            "value": 0.1889763779527559
          },
          {
            "number": 11,
            "time": 235.17385424998693,
            "value": 0.1889763779527559
          },
          {
            "number": 11,
            "time": 235.17385424998693,
            "value": 0.1889763779527559
          },
          {
            "number": 11,
            "time": 235.19015859373692,
            "value": 0.1889763779527559
          },
          {
            "number": 11,
            "time": 235.21733249998692,
            "value": 0.1889763779527559
          },
          {
            "number": 11,
            "time": 235.23363684373692,
            "value": 0.1889763779527559
          },
          {
            "number": 11,
            "time": 235.2499411874869,
            "value": 0.18110236220472442
          },
          {
            "number": 11,
            "time": 235.2499411874869,
            "value": 0.1889763779527559
          },
          {
            "number": 11,
            "time": 235.26081074998692,
            "value": 0.18110236220472442
          },
          {
            "number": 11,
            "time": 235.26081074998692,
            "value": 0.18110236220472442
          },
          {
            "number": 11,
            "time": 235.27711509373688,
            "value": 0.18110236220472442
          },
          {
            "number": 11,
            "time": 235.30428899998688,
            "value": 0.18110236220472442
          },
          {
            "number": 11,
            "time": 235.30428899998688,
            "value": 0.18110236220472442
          },
          {
            "number": 11,
            "time": 235.32059334373687,
            "value": 0.18110236220472442
          },
          {
            "number": 11,
            "time": 235.33689768748687,
            "value": 0.1732283464566929
          },
          {
            "number": 11,
            "time": 235.33689768748687,
            "value": 0.18110236220472442
          },
          {
            "number": 11,
            "time": 235.34776724998687,
            "value": 0.1732283464566929
          },
          {
            "number": 11,
            "time": 235.34776724998687,
            "value": 0.1732283464566929
          },
          {
            "number": 11,
            "time": 235.36407159373687,
            "value": 0.1732283464566929
          },
          {
            "number": 11,
            "time": 235.39124549998687,
            "value": 0.1732283464566929
          },
          {
            "number": 11,
            "time": 235.42385418748685,
            "value": 0.16535433070866143
          },
          {
            "number": 11,
            "time": 235.42385418748685,
            "value": 0.1732283464566929
          },
          {
            "number": 11,
            "time": 235.43472374998686,
            "value": 0.16535433070866143
          },
          {
            "number": 11,
            "time": 235.43472374998686,
            "value": 0.16535433070866143
          },
          {
            "number": 11,
            "time": 235.43472374998686,
            "value": 0.1732283464566929
          },
          {
            "number": 11,
            "time": 235.45102809373685,
            "value": 0.16535433070866143
          },
          {
            "number": 11,
            "time": 235.45102809373685,
            "value": 0.1732283464566929
          },
          {
            "number": 11,
            "time": 235.47820199998685,
            "value": 0.16535433070866143
          },
          {
            "number": 11,
            "time": 235.51081068748684,
            "value": 0.15748031496062992
          },
          {
            "number": 11,
            "time": 235.52168024998684,
            "value": 0.15748031496062992
          },
          {
            "number": 11,
            "time": 235.52168024998684,
            "value": 0.16535433070866143
          },
          {
            "number": 11,
            "time": 235.5379845937368,
            "value": 0.15748031496062992
          },
          {
            "number": 11,
            "time": 235.5379845937368,
            "value": 0.16535433070866143
          },
          {
            "number": 11,
            "time": 235.5542889374868,
            "value": 0.16535433070866143
          },
          {
            "number": 11,
            "time": 235.56515849998678,
            "value": 0.15748031496062992
          },
          {
            "number": 11,
            "time": 235.56515849998678,
            "value": 0.15748031496062992
          },
          {
            "number": 11,
            "time": 235.59776718748677,
            "value": 0.14960629921259844
          },
          {
            "number": 11,
            "time": 235.60863674998677,
            "value": 0.15748031496062992
          },
          {
            "number": 11,
            "time": 235.62494109373677,
            "value": 0.15748031496062992
          },
          {
            "number": 11,
            "time": 235.64124543748676,
            "value": 0.15748031496062992
          },
          {
            "number": 11,
            "time": 235.65211499998676,
            "value": 0.14960629921259844
          },
          {
            "number": 11,
            "time": 235.65211499998676,
            "value": 0.14960629921259844
          },
          {
            "number": 11,
            "time": 235.65211499998676,
            "value": 0.14960629921259844
          },
          {
            "number": 11,
            "time": 235.66841934373676,
            "value": 0.14960629921259844
          },
          {
            "number": 11,
            "time": 235.69559324998676,
            "value": 0.14960629921259844
          },
          {
            "number": 11,
            "time": 235.71189759373675,
            "value": 0.14960629921259844
          },
          {
            "number": 11,
            "time": 235.72820193748674,
            "value": 0.14173228346456693
          },
          {
            "number": 11,
            "time": 235.72820193748674,
            "value": 0.14960629921259844
          },
          {
            "number": 11,
            "time": 235.73907149998675,
            "value": 0.14173228346456693
          },
          {
            "number": 11,
            "time": 235.73907149998675,
            "value": 0.14173228346456693
          },
          {
            "number": 11,
            "time": 235.73907149998675,
            "value": 0.14173228346456693
          },
          {
            "number": 11,
            "time": 235.75537584373674,
            "value": 0.14173228346456693
          },
          {
            "number": 11,
            "time": 235.78254974998674,
            "value": 0.14173228346456693
          },
          {
            "number": 11,
            "time": 235.79885409373674,
            "value": 0.14173228346456693
          },
          {
            "number": 11,
            "time": 235.81515843748673,
            "value": 0.13385826771653545
          },
          {
            "number": 11,
            "time": 235.81515843748673,
            "value": 0.14173228346456693
          },
          {
            "number": 11,
            "time": 235.8260279999867,
            "value": 0.13385826771653545
          },
          {
            "number": 11,
            "time": 235.8260279999867,
            "value": 0.13385826771653545
          },
          {
            "number": 11,
            "time": 235.8423323437367,
            "value": 0.13385826771653545
          },
          {
            "number": 11,
            "time": 235.8695062499867,
            "value": 0.13385826771653545
          },
          {
            "number": 11,
            "time": 235.8695062499867,
            "value": 0.13385826771653545
          },
          {
            "number": 11,
            "time": 235.8858105937367,
            "value": 0.13385826771653545
          },
          {
            "number": 11,
            "time": 235.9021149374867,
            "value": 0.12598425196850394
          },
          {
            "number": 11,
            "time": 235.9021149374867,
            "value": 0.13385826771653545
          },
          {
            "number": 11,
            "time": 235.9129844999867,
            "value": 0.12598425196850394
          },
          {
            "number": 11,
            "time": 235.9129844999867,
            "value": 0.12598425196850394
          },
          {
            "number": 11,
            "time": 235.92928884373669,
            "value": 0.12598425196850394
          },
          {
            "number": 11,
            "time": 235.95646274998666,
            "value": 0.12598425196850394
          },
          {
            "number": 11,
            "time": 235.98907143748667,
            "value": 0.11811023622047244
          },
          {
            "number": 11,
            "time": 235.98907143748667,
            "value": 0.12598425196850394
          },
          {
            "number": 11,
            "time": 235.99994099998668,
            "value": 0.11811023622047244
          },
          {
            "number": 11,
            "time": 235.99994099998668,
            "value": 0.12598425196850394
          },
          {
            "number": 11,
            "time": 236.01624534373667,
            "value": 0.11811023622047244
          },
          {
            "number": 11,
            "time": 236.01624534373667,
            "value": 0.12598425196850394
          },
          {
            "number": 11,
            "time": 236.04341924998667,
            "value": 0.11811023622047244
          },
          {
            "number": 11,
            "time": 236.04341924998667,
            "value": 0.11811023622047244
          },
          {
            "number": 11,
            "time": 236.07602793748669,
            "value": 0.11023622047244094
          },
          {
            "number": 11,
            "time": 236.08689749998666,
            "value": 0.11023622047244094
          },
          {
            "number": 11,
            "time": 236.08689749998666,
            "value": 0.11811023622047244
          },
          {
            "number": 11,
            "time": 236.10320184373663,
            "value": 0.11811023622047244
          },
          {
            "number": 11,
            "time": 236.11950618748662,
            "value": 0.11811023622047244
          },
          {
            "number": 11,
            "time": 236.13037574998663,
            "value": 0.11023622047244094
          },
          {
            "number": 11,
            "time": 236.13037574998663,
            "value": 0.11023622047244094
          },
          {
            "number": 11,
            "time": 236.14668009373662,
            "value": 0.11023622047244094
          },
          {
            "number": 11,
            "time": 236.1629844374866,
            "value": 0.10236220472440945
          },
          {
            "number": 11,
            "time": 236.17385399998662,
            "value": 0.10236220472440945
          },
          {
            "number": 11,
            "time": 236.17385399998662,
            "value": 0.11023622047244094
          },
          {
            "number": 11,
            "time": 236.1901583437366,
            "value": 0.11023622047244094
          },
          {
            "number": 11,
            "time": 236.2064626874866,
            "value": 0.11023622047244094
          },
          {
            "number": 11,
            "time": 236.2173322499866,
            "value": 0.10236220472440945
          },
          {
            "number": 11,
            "time": 236.2173322499866,
            "value": 0.10236220472440945
          },
          {
            "number": 11,
            "time": 236.2336365937366,
            "value": 0.10236220472440945
          },
          {
            "number": 11,
            "time": 236.2608104999866,
            "value": 0.10236220472440945
          },
          {
            "number": 11,
            "time": 236.2771148437366,
            "value": 0.10236220472440945
          },
          {
            "number": 11,
            "time": 236.2934191874866,
            "value": 0.09448818897637795
          },
          {
            "number": 11,
            "time": 236.2934191874866,
            "value": 0.10236220472440945
          },
          {
            "number": 11,
            "time": 236.3042887499866,
            "value": 0.09448818897637795
          },
          {
            "number": 11,
            "time": 236.3042887499866,
            "value": 0.09448818897637795
          },
          {
            "number": 11,
            "time": 236.3042887499866,
            "value": 0.09448818897637795
          },
          {
            "number": 11,
            "time": 236.3205930937366,
            "value": 0.09448818897637795
          },
          {
            "number": 11,
            "time": 236.34776699998656,
            "value": 0.09448818897637795
          },
          {
            "number": 11,
            "time": 236.36407134373653,
            "value": 0.09448818897637795
          },
          {
            "number": 11,
            "time": 236.38037568748652,
            "value": 0.08661417322834646
          },
          {
            "number": 11,
            "time": 236.38037568748652,
            "value": 0.09448818897637795
          },
          {
            "number": 11,
            "time": 236.39124524998653,
            "value": 0.08661417322834646
          },
          {
            "number": 11,
            "time": 236.39124524998653,
            "value": 0.08661417322834646
          },
          {
            "number": 11,
            "time": 236.40754959373652,
            "value": 0.08661417322834646
          },
          {
            "number": 11,
            "time": 236.43472349998652,
            "value": 0.08661417322834646
          },
          {
            "number": 11,
            "time": 236.4673321874865,
            "value": 0.07874015748031496
          },
          {
            "number": 11,
            "time": 236.4673321874865,
            "value": 0.08661417322834646
          },
          {
            "number": 11,
            "time": 236.4782017499865,
            "value": 0.07874015748031496
          },
          {
            "number": 11,
            "time": 236.4782017499865,
            "value": 0.08661417322834646
          },
          {
            "number": 11,
            "time": 236.4945060937365,
            "value": 0.07874015748031496
          },
          {
            "number": 11,
            "time": 236.4945060937365,
            "value": 0.08661417322834646
          },
          {
            "number": 11,
            "time": 236.5216799999865,
            "value": 0.07874015748031496
          },
          {
            "number": 11,
            "time": 236.5216799999865,
            "value": 0.07874015748031496
          },
          {
            "number": 11,
            "time": 236.5542886874865,
            "value": 0.07086614173228346
          },
          {
            "number": 11,
            "time": 236.56515824998647,
            "value": 0.07086614173228346
          },
          {
            "number": 11,
            "time": 236.56515824998647,
            "value": 0.07874015748031496
          },
          {
            "number": 11,
            "time": 236.58146259373646,
            "value": 0.07874015748031496
          },
          {
            "number": 11,
            "time": 236.59776693748645,
            "value": 0.07874015748031496
          },
          {
            "number": 11,
            "time": 236.60863649998643,
            "value": 0.07086614173228346
          },
          {
            "number": 11,
            "time": 236.60863649998643,
            "value": 0.07086614173228346
          },
          {
            "number": 11,
            "time": 236.62494084373643,
            "value": 0.07086614173228346
          },
          {
            "number": 11,
            "time": 236.6412451874864,
            "value": 0.06299212598425197
          },
          {
            "number": 11,
            "time": 236.6521147499864,
            "value": 0.06299212598425197
          },
          {
            "number": 11,
            "time": 236.6521147499864,
            "value": 0.07086614173228346
          },
          {
            "number": 11,
            "time": 236.6684190937364,
            "value": 0.07086614173228346
          },
          {
            "number": 11,
            "time": 236.68472343748638,
            "value": 0.07086614173228346
          },
          {
            "number": 11,
            "time": 236.6955929999864,
            "value": 0.06299212598425197
          },
          {
            "number": 11,
            "time": 236.6955929999864,
            "value": 0.06299212598425197
          },
          {
            "number": 11,
            "time": 236.71189734373638,
            "value": 0.06299212598425197
          },
          {
            "number": 11,
            "time": 236.72820168748638,
            "value": 0.05511811023622047
          },
          {
            "number": 11,
            "time": 236.73907124998638,
            "value": 0.05511811023622047
          },
          {
            "number": 11,
            "time": 236.73907124998638,
            "value": 0.06299212598425197
          },
          {
            "number": 11,
            "time": 236.75537559373637,
            "value": 0.06299212598425197
          },
          {
            "number": 11,
            "time": 236.77167993748637,
            "value": 0.06299212598425197
          },
          {
            "number": 11,
            "time": 236.78254949998637,
            "value": 0.05511811023622047
          },
          {
            "number": 11,
            "time": 236.78254949998637,
            "value": 0.05511811023622047
          },
          {
            "number": 11,
            "time": 236.79885384373637,
            "value": 0.05511811023622047
          },
          {
            "number": 11,
            "time": 236.82602774998637,
            "value": 0.05511811023622047
          },
          {
            "number": 11,
            "time": 236.84233209373633,
            "value": 0.05511811023622047
          },
          {
            "number": 11,
            "time": 236.85863643748633,
            "value": 0.047244094488188976
          },
          {
            "number": 11,
            "time": 236.85863643748633,
            "value": 0.05511811023622047
          },
          {
            "number": 11,
            "time": 236.8695059999863,
            "value": 0.047244094488188976
          },
          {
            "number": 11,
            "time": 236.8695059999863,
            "value": 0.047244094488188976
          },
          {
            "number": 11,
            "time": 236.8695059999863,
            "value": 0.047244094488188976
          },
          {
            "number": 11,
            "time": 236.8858103437363,
            "value": 0.047244094488188976
          },
          {
            "number": 11,
            "time": 236.9129842499863,
            "value": 0.047244094488188976
          },
          {
            "number": 11,
            "time": 236.9292885937363,
            "value": 0.047244094488188976
          },
          {
            "number": 11,
            "time": 236.94559293748628,
            "value": 0.03937007874015748
          },
          {
            "number": 11,
            "time": 236.94559293748628,
            "value": 0.047244094488188976
          },
          {
            "number": 11,
            "time": 236.95646249998626,
            "value": 0.03937007874015748
          },
          {
            "number": 11,
            "time": 236.97276684373625,
            "value": 0.03937007874015748
          },
          {
            "number": 11,
            "time": 236.99994074998625,
            "value": 0.03937007874015748
          },
          {
            "number": 11,
            "time": 236.99994074998625,
            "value": 0.03937007874015748
          },
          {
            "number": 11,
            "time": 237.03254943748624,
            "value": 0.031496062992125984
          },
          {
            "number": 11,
            "time": 237.04341899998624,
            "value": 0.031496062992125984
          },
          {
            "number": 11,
            "time": 237.04341899998624,
            "value": 0.03937007874015748
          },
          {
            "number": 11,
            "time": 237.05972334373624,
            "value": 0.03937007874015748
          },
          {
            "number": 11,
            "time": 237.07602768748623,
            "value": 0.03937007874015748
          },
          {
            "number": 11,
            "time": 237.08689724998624,
            "value": 0.031496062992125984
          },
          {
            "number": 11,
            "time": 237.08689724998624,
            "value": 0.031496062992125984
          },
          {
            "number": 11,
            "time": 237.10320159373623,
            "value": 0.031496062992125984
          },
          {
            "number": 11,
            "time": 237.11950593748622,
            "value": 0.023622047244094488
          },
          {
            "number": 11,
            "time": 237.1303754999862,
            "value": 0.023622047244094488
          },
          {
            "number": 11,
            "time": 237.1303754999862,
            "value": 0.031496062992125984
          },
          {
            "number": 11,
            "time": 237.1466798437362,
            "value": 0.031496062992125984
          },
          {
            "number": 11,
            "time": 237.1629841874862,
            "value": 0.031496062992125984
          },
          {
            "number": 11,
            "time": 237.1738537499862,
            "value": 0.023622047244094488
          },
          {
            "number": 11,
            "time": 237.1738537499862,
            "value": 0.023622047244094488
          },
          {
            "number": 11,
            "time": 237.1901580937362,
            "value": 0.023622047244094488
          },
          {
            "number": 11,
            "time": 237.20646243748618,
            "value": 0.015748031496062992
          },
          {
            "number": 11,
            "time": 237.2173319999862,
            "value": 0.015748031496062992
          },
          {
            "number": 11,
            "time": 237.2173319999862,
            "value": 0.023622047244094488
          },
          {
            "number": 11,
            "time": 237.23363634373618,
            "value": 0.023622047244094488
          },
          {
            "number": 11,
            "time": 237.24994068748617,
            "value": 0.023622047244094488
          },
          {
            "number": 11,
            "time": 237.26081024998618,
            "value": 0.015748031496062992
          },
          {
            "number": 11,
            "time": 237.26081024998618,
            "value": 0.015748031496062992
          },
          {
            "number": 11,
            "time": 237.27711459373617,
            "value": 0.015748031496062992
          },
          {
            "number": 11,
            "time": 237.29341893748617,
            "value": 0.007874015748031496
          },
          {
            "number": 11,
            "time": 237.30428849998617,
            "value": 0.007874015748031496
          },
          {
            "number": 11,
            "time": 237.30428849998617,
            "value": 0.015748031496062992
          },
          {
            "number": 11,
            "time": 237.32059284373616,
            "value": 0.015748031496062992
          },
          {
            "number": 11,
            "time": 237.33689718748616,
            "value": 0.015748031496062992
          },
          {
            "number": 11,
            "time": 237.34776674998616,
            "value": 0.007874015748031496
          },
          {
            "number": 11,
            "time": 237.34776674998616,
            "value": 0.007874015748031496
          },
          {
            "number": 11,
            "time": 237.36407109373616,
            "value": 0
          },
          {
            "number": 11,
            "time": 237.38037543748615,
            "value": 0
          },
          {
            "number": 11,
            "time": 237.39124499998613,
            "value": 0
          },
          {
            "number": 11,
            "time": 237.39124499998613,
            "value": 0
          },
          {
            "number": 11,
            "time": 237.39124499998613,
            "value": 0
          },
          {
            "number": 11,
            "time": 237.40754934373612,
            "value": 0
          },
          {
            "number": 11,
            "time": 237.42385368748612,
            "value": 0
          },
          {
            "number": 11,
            "time": 237.4347232499861,
            "value": 0
          },
          {
            "number": 11,
            "time": 241.82602649998603,
            "value": 1
          },
          {
            "number": 11,
            "time": 241.84233084373602,
            "value": 1
          },
          {
            "number": 11,
            "time": 241.85863518748602,
            "value": 1
          },
          {
            "number": 11,
            "time": 241.86950474998602,
            "value": 1
          },
          {
            "number": 11,
            "time": 241.902113437486,
            "value": 1
          },
          {
            "number": 11,
            "time": 242.01624384373602,
            "value": 1
          },
          {
            "number": 11,
            "time": 242.04341774998602,
            "value": 1
          },
          {
            "number": 11,
            "time": 242.04341774998602,
            "value": 1
          }
        ],
        "91": [
          {
            "number": 91,
            "time": 0.5434781249999998,
            "value": 0.5354330708661418
          },
          {
            "number": 91,
            "time": 0.5706520312499997,
            "value": 0.12598425196850394
          },
          {
            "number": 91,
            "time": 0.5978259374999997,
            "value": 0.7874015748031497
          },
          {
            "number": 91,
            "time": 0.6249998437499996,
            "value": 0.7874015748031497
          },
          {
            "number": 91,
            "time": 0.6521737499999996,
            "value": 0.7874015748031497
          },
          {
            "number": 91,
            "time": 0.6793476562499995,
            "value": 0.6299212598425197
          },
          {
            "number": 91,
            "time": 0.7065215624999994,
            "value": 0.47244094488188976
          },
          {
            "number": 91,
            "time": 0.7336954687499994,
            "value": 0.5511811023622047
          },
          {
            "number": 91,
            "time": 0.7608693749999993,
            "value": 0.5905511811023622
          },
          {
            "number": 91,
            "time": 0.7880432812499992,
            "value": 0.4330708661417323
          },
          {
            "number": 91,
            "time": 0.8152171874999992,
            "value": 0.7874015748031497
          },
          {
            "number": 91,
            "time": 0.8423910937499991,
            "value": 0.5118110236220472
          },
          {
            "number": 91,
            "time": 0.869564999999999,
            "value": 0.5118110236220472
          },
          {
            "number": 91,
            "time": 0.896738906249999,
            "value": 0.47244094488188976
          }
        ],
        "93": [
          {
            "number": 93,
            "time": 0.5434781249999998,
            "value": 0.5039370078740157
          },
          {
            "number": 93,
            "time": 0.5706520312499997,
            "value": 0.31496062992125984
          },
          {
            "number": 93,
            "time": 0.5978259374999997,
            "value": 0.5039370078740157
          },
          {
            "number": 93,
            "time": 0.6249998437499996,
            "value": 0.31496062992125984
          },
          {
            "number": 93,
            "time": 0.6521737499999996,
            "value": 0.31496062992125984
          },
          {
            "number": 93,
            "time": 0.6793476562499995,
            "value": 0.31496062992125984
          },
          {
            "number": 93,
            "time": 0.7065215624999994,
            "value": 0
          },
          {
            "number": 93,
            "time": 0.7336954687499994,
            "value": 0.5039370078740157
          },
          {
            "number": 93,
            "time": 0.7608693749999993,
            "value": 0.5039370078740157
          },
          {
            "number": 93,
            "time": 0.7880432812499992,
            "value": 0
          },
          {
            "number": 93,
            "time": 0.8152171874999992,
            "value": 0.5039370078740157
          },
          {
            "number": 93,
            "time": 0.8423910937499991,
            "value": 0.31496062992125984
          },
          {
            "number": 93,
            "time": 0.869564999999999,
            "value": 0
          },
          {
            "number": 93,
            "time": 0.896738906249999,
            "value": 0
          }
        ]
      },
      "id": 0,
      "name": "EVERY BREATH YOU TAKE;Words and music by Sting",
      "instrumentNumber": 120,
      "instrument": "guitar fret noise",
      "instrumentFamily": "sound effects",
      "channelNumber": 14,
      "isPercussion": false
    }
  ]
}